<svg xmlns="http://www.w3.org/2000/svg" width="102" height="102" viewBox="0 0 102 102">
  <g id="Grupo_995458" data-name="Grupo 995458" transform="translate(-237 -5881)">
    <g id="Grupo_991209" data-name="Grupo 991209">
      <circle id="Elipse_8068" data-name="Elipse 8068" cx="51" cy="51" r="51" transform="translate(237 5881)" fill="#00c1ab"/>
      <circle id="Elipse_8069" data-name="Elipse 8069" cx="40" cy="40" r="40" transform="translate(248 5892)" fill="#fff"/>
    </g>
    <path id="Trazado_654099" data-name="Trazado 654099" d="M26.99,30.539a3.007,3.007,0,0,0-1.172-2.549A15.371,15.371,0,0,0,21.6,26.115a29.906,29.906,0,0,1-4.824-1.943q-4.844-2.617-4.844-7.051a6.867,6.867,0,0,1,1.3-4.111,8.472,8.472,0,0,1,3.73-2.822A14.041,14.041,0,0,1,22.42,9.172a12.78,12.78,0,0,1,5.43,1.1,8.646,8.646,0,0,1,3.7,3.115,8.152,8.152,0,0,1,1.318,4.57H27.01a3.835,3.835,0,0,0-1.23-3.037,5.058,5.058,0,0,0-3.457-1.084,5.4,5.4,0,0,0-3.34.908,2.865,2.865,0,0,0-1.191,2.393,2.744,2.744,0,0,0,1.4,2.324A15.777,15.777,0,0,0,23.3,21.223a17.764,17.764,0,0,1,7.285,3.73A7.429,7.429,0,0,1,32.869,30.5a6.844,6.844,0,0,1-2.793,5.791,12.227,12.227,0,0,1-7.52,2.1,14.52,14.52,0,0,1-5.977-1.2A9.457,9.457,0,0,1,12.469,33.9a8.428,8.428,0,0,1-1.416-4.844h5.879q0,4.707,5.625,4.707a5.472,5.472,0,0,0,3.262-.85A2.764,2.764,0,0,0,26.99,30.539Z" transform="translate(266 5903)" fill="#12263f"/>
  </g>
</svg>
