<svg xmlns="http://www.w3.org/2000/svg" width="295" height="427" viewBox="0 0 295 427">
  <g id="Grupo_995458" data-name="Grupo 995458" transform="translate(-180 -7619.63)">
    <rect id="Rectángulo_308410" data-name="Rectángulo 308410" width="295" height="427" rx="18" transform="translate(180 7619.63)" fill="#00c1ab"/>
    <circle id="Elipse_8083" data-name="Elipse 8083" cx="147.5" cy="147.5" r="147.5" transform="translate(180 7689)" fill="#00d0b8"/>
    <g id="Grupo_991930" data-name="Grupo 991930" transform="translate(-689.16 7700.748)">
      <path id="Trazado_651113" data-name="Trazado 651113" d="M1062.575,135.775c-.68.066-.969.617-1.368.984a64.9,64.9,0,0,1-24.557,14.328c-1.22.387-1.876.655-1.454,2.21a8.381,8.381,0,0,1-.919,5.852c-.609,1.252-.142,1.325.916,1.314,3.15-.034,6.3-.089,9.449.014,5.212.17,9.174,3.9,9.422,8.735a9.307,9.307,0,0,1-8.149,9.911,37.423,37.423,0,0,1-4.83.032,9.272,9.272,0,0,1-1.433,8.808c-.507.655-.13.984.186,1.449a8.894,8.894,0,0,1,.636,9.794,9.19,9.19,0,0,1-8.684,4.987h-.188c-2.466.019-2.466.019-2.479,2.445-.031,6.117-3.921,10-10.041,10.023-1.764.006-3.527.01-5.292,0a9.017,9.017,0,0,1-8.451-5.018,2.04,2.04,0,0,0-2.192-1.252c-2.2.056-4.409-.006-6.614.021-8.663.105-14.017-.208-23.545-5.734a7.3,7.3,0,0,1-2.638,4.528c-1.583,1.184-3.377,1.218-5.218,1.208-3.465-.02-6.93.017-10.394-.012-3.693-.033-5.761-1.577-6.606-5.171-.289-1.231-1-1.034-1.774-1.034-8.252,0-16.5-.037-24.757.031-1.371.011-1.772-.263-1.765-1.718q.1-20.119,0-40.24c-.007-1.486.373-1.869,1.857-1.855,8.126.076,16.253.018,24.379.057,1.187.005,1.882-.089,2.176-1.544a5.815,5.815,0,0,1,5.876-4.632c3.842-.042,7.688.081,11.527-.041a6.792,6.792,0,0,1,6.9,3.992,36.574,36.574,0,0,1,17.824-9.439,69.066,69.066,0,0,1-19.557-13.256c-.255.653-.443,1.134-.632,1.615a7.141,7.141,0,0,1-6.709,4.623,7,7,0,0,1-6.572-4.8,56.511,56.511,0,0,1-1.548-6.016c-.257-1.239-.724-1.7-2.095-1.68-7.622.086-15.245.048-22.868.039-6.736-.008-10.526-3.8-10.528-10.521q0-20.782,0-41.563c0-6.564,3.722-10.323,10.273-10.341,7.686-.021,15.371-.04,23.056.028a2.072,2.072,0,0,0,2.277-1.607c9.864-23.941,27.611-38.132,53.257-41.6,29.758-4.027,58.279,13.367,69,41.444a2.255,2.255,0,0,0,2.547,1.764c7.5-.067,15,.159,22.487-.087,7.064-.232,10.8,5.04,10.708,10.613-.222,13.851-.069,27.708-.075,41.562,0,6.442-3.871,10.3-10.363,10.308-7.559.015-15.12.064-22.677-.044-1.676-.023-2.3.5-2.529,2.083a41.235,41.235,0,0,1-1.077,4.389c-.942,3.667-3.428,5.868-6.8,6.024-3.283.152-5.973-1.912-7.2-5.522C1062.708,136.094,1062.639,135.937,1062.575,135.775ZM975.112,66.9H977.7c6.677,0,13.355-.055,20.031.021,5.4.061,9.454,3.842,9.48,8.98q.111,22.2,0,44.395a9.124,9.124,0,0,1-7.446,8.788c-1.844.4-3.72.064-5.657.347,12.829,8.2,32.962,7.889,45.191-.1-1.13,0-2.052,0-2.975,0-6.5-.031-10.285-3.834-10.288-10.362q-.011-20.876,0-41.751c0-6.59,3.693-10.293,10.279-10.31,6.614-.017,13.228,0,19.843-.017.523,0,1.116.236,1.588-.222-6.279-12.845-21.647-24.969-41.2-24.677C998.192,42.263,984.648,50.83,975.112,66.9Zm-11.455,6.2q-16.716,0-33.432,0c-3.04,0-4.091,1.03-4.093,4.072q-.018,20.865,0,41.729c0,3.173.976,4.11,4.207,4.112,9.193.005,18.385.048,27.577-.044a1.986,1.986,0,0,1,2.351,1.873c.7,3.124,1.533,6.218,2.3,9.327.138.562.211,1.176.935,1.23.874.064.938-.644,1.093-1.259.8-3.165,1.688-6.311,2.371-9.5.284-1.324.814-1.667,2.132-1.658,9.192.062,18.384.035,27.576.032,3.449,0,4.4-.932,4.4-4.336q.006-20.581,0-41.163c0-3.427-.978-4.415-4.354-4.416Q980.184,73.1,963.657,73.1Zm106.09,0q-16.621,0-33.243,0c-3.274,0-4.284,1.009-4.285,4.292q-.008,20.676,0,41.352c0,3.306.964,4.267,4.27,4.27,9.255,0,18.51.019,27.766-.02,1.172-.005,1.767.2,2.035,1.526.623,3.073,1.452,6.107,2.272,9.137.176.648.029,1.7,1.1,1.732,1.094.036.975-.97,1.151-1.649.738-2.856,1.54-5.7,2.127-8.591.327-1.61.9-2.209,2.681-2.186,9.065.114,18.132.055,27.2.052,3.442,0,4.335-.9,4.337-4.366q.007-20.582,0-41.163c0-3.443-.945-4.385-4.354-4.386Q1086.274,73.1,1069.747,73.1ZM1004.16,189.225c0-4.5,0-8.586,0-12.677,0-.608.115-1.487-.905-1-1.287.614-1.462-.2-1.73-1.078a19,19,0,0,0-.967-2.849c-.649-1.327-.2-1.829,1.12-2.185a13.741,13.741,0,0,0,9.341-7.855,1.756,1.756,0,0,1,1.886-1.155c3.4.054,6.8.067,10.2,0a6.109,6.109,0,0,0,5.807-4.553c.376-1.237.162-1.623-1.221-1.615-10.326.055-20.656-.115-30.979.078-9.623.18-17.225,4.5-22.967,12.174a4.091,4.091,0,0,0-.847,2.607q.051,13.029-.005,26.059a2.72,2.72,0,0,0,1.162,2.373,30.852,30.852,0,0,0,9.53,5.229c6.51,2.173,13.226,1.173,19.862,1.412.788.028.669-.512.721-1.013.293-2.868-.212-5.367-2.438-7.519a34.783,34.783,0,0,0-7.276-5.637c-1.181-.655-3.159-.741-3.433-1.9-.286-1.209.734-2.7,1.092-4.095.317-1.236.828-1.526,2.087-1A37.558,37.558,0,0,1,1004.16,189.225Zm16.5-159.77c-26.76.017-47.1,12.616-57.167,32.91-2.253,4.541-2.252,4.487,2.809,4.571a2.68,2.68,0,0,0,2.848-1.73c9.721-18.469,25.046-28.783,45.9-29.379,21.256-.607,37.423,8.971,47.968,27.453,1.672,2.931,3.292,4.011,6.453,3.671,2.34-.251,2.413-.076,1.39-2.226C1059.995,41.89,1041.644,30.54,1020.661,29.455ZM926.134,182.309c0,4.716.034,9.432-.025,14.147-.014,1.153.319,1.5,1.487,1.492q9.434-.081,18.869,0c1.133.009,1.558-.266,1.495-1.46-.1-1.881,0-3.772-.031-5.658-.041-2.78-.087-5.56,1.616-7.975.4-.569.053-.934-.2-1.349a10.533,10.533,0,0,1-1.412-5.772c.02-2.516-.059-5.033.033-7.545.042-1.179-.32-1.469-1.475-1.459-6.289.057-12.58.07-18.869-.007-1.336-.017-1.518.488-1.505,1.627C926.164,173,926.133,177.655,926.134,182.309Zm133.652-52.982c-2.808,0-5.239.046-7.667-.022a3.719,3.719,0,0,0-2.554.932,52.765,52.765,0,0,1-65.971-.072c-.386-.306-.822-.763-1.245-.774-2.838-.069-5.677-.036-8.772-.036A59.322,59.322,0,0,0,1059.786,129.327Zm-93.069,52.945c0-6.668-.052-13.336.039-20,.021-1.538-.451-1.9-1.9-1.848-3.016.107-6.041.087-9.059.006-1.229-.033-1.613.314-1.587,1.576.083,4.024.184,8.058-.023,12.073-.142,2.746.5,4.947,2.763,6.558,1.606,1.144,1.648,2.21.013,3.369-2.267,1.6-2.912,3.811-2.774,6.555.2,4.016.095,8.05.026,12.074-.02,1.192.248,1.627,1.532,1.588,3.143-.1,6.293-.09,9.437,0,1.241.034,1.574-.332,1.563-1.567C966.687,195.859,966.718,189.065,966.718,182.272Zm43.654,7.835c0,5.478-.018,10.956.008,16.434.011,2.295.86,3.627,2.626,3.736a59.757,59.757,0,0,0,7.356-.014,2.5,2.5,0,0,0,2.421-2.681c-.052-1.562,1.123-3.395-1.181-4.615a9.028,9.028,0,0,1-3.353-13.255,1.7,1.7,0,0,0,.006-2.271c-2.784-4.232-2.061-9.721,2.129-12.359,2.376-1.5,2.779-3.154,2.539-5.5-.064-.624-.013-1.259-.014-1.889,0-.466-.064-.98-.661-.918-3.143.33-6.893-1.459-8.994,2.612a5.261,5.261,0,0,1-1.743,1.7,2.718,2.718,0,0,0-1.16,2.579C1010.394,179.15,1010.37,184.628,1010.372,190.106Zm27.27-23.351h-3.765c-5.058,0-5.025,0-4.781,5.071.045.946.348,1.144,1.209,1.138,4.707-.034,9.414.011,14.12-.033,2.138-.02,3.462-1.328,3.4-3.177-.057-1.766-1.378-2.958-3.408-2.988C1042.16,166.731,1039.9,166.757,1037.641,166.755Zm-8.611,31.109v.054c1,0,2,0,3.006,0a3.884,3.884,0,0,0,.561-.052,3.031,3.031,0,0,0,2.735-3.049,3,3,0,0,0-2.919-3.073c-2.189-.087-4.387-.087-6.575,0a2.964,2.964,0,0,0-2.91,3.068,2.924,2.924,0,0,0,2.722,3.032A33.707,33.707,0,0,0,1029.03,197.864Zm.141-18.624h-3.006a3.646,3.646,0,0,0-.376.01,3.044,3.044,0,0,0-2.857,3.129,2.9,2.9,0,0,0,2.772,2.982c2.249.1,4.51.1,6.76.009a2.929,2.929,0,0,0,2.869-3.09,3.028,3.028,0,0,0-2.968-3.024C1031.3,179.194,1030.236,179.246,1029.171,179.24Z" transform="translate(0)" fill="#030303"/>
      <path id="Trazado_651114" data-name="Trazado 651114" d="M1129.432,212.775c4.654,0,9.31.036,13.963-.025,1.135-.015,1.483.262,1.49,1.452.027,4.768.075,4.767-4.59,4.767-8.366,0-16.731-.031-25.1.033-1.335.01-1.664-.366-1.652-1.671.042-4.556-.009-4.556,4.563-4.556Z" transform="translate(-47.018 -46.021)" fill="#010101"/>
      <path id="Trazado_651115" data-name="Trazado 651115" d="M1129.162,235.454c-4.719,0-9.437-.039-14.155.027-1.181.017-1.451-.339-1.457-1.484-.026-4.748-.067-4.748,4.747-4.748,8.3,0,16.609.03,24.913-.03,1.3-.01,1.691.305,1.677,1.647-.045,4.586.012,4.587-4.589,4.587Z" transform="translate(-47.018 -50.019)" fill="#010101"/>
      <path id="Trazado_651116" data-name="Trazado 651116" d="M1139.467,196.3c2.7,0,5.4.033,8.1-.018.94-.017,1.278.211,1.313,1.239.169,4.97.2,4.969-4.745,4.969-4.208,0-8.416-.039-12.624.025-1.137.017-1.478-.27-1.485-1.453-.029-4.763-.076-4.762,4.729-4.762Z" transform="translate(-51.017 -42.024)" fill="#020202"/>
      <path id="Trazado_651117" data-name="Trazado 651117" d="M1116.787,245.728c3.106,0,3.106,0,3.106,3.165,0,3.068,0,3.068-3.041,3.068-3.268,0-3.268,0-3.268-3.192C1113.584,245.728,1113.584,245.728,1116.787,245.728Z" transform="translate(-47.027 -54.026)" fill="#070707"/>
      <path id="Trazado_651118" data-name="Trazado 651118" d="M1136.381,248.769c0,3.192,0,3.192-3.293,3.192-3.021,0-3.021,0-3.021-3.068,0-3.165,0-3.165,3.084-3.165h.189C1136.381,245.728,1136.381,245.728,1136.381,248.769Z" transform="translate(-51.028 -54.026)" fill="#070707"/>
      <path id="Trazado_651119" data-name="Trazado 651119" d="M1149.765,245.728c3.1,0,3.1,0,3.1,3.164,0,3.069,0,3.069-3.037,3.069-3.281,0-3.281,0-3.281-3.19C1146.551,245.728,1146.551,245.728,1149.765,245.728Z" transform="translate(-55.029 -54.026)" fill="#070707"/>
      <path id="Trazado_651120" data-name="Trazado 651120" d="M1119.894,199.534c0,2.968,0,2.968-2.925,2.968-3.385,0-3.385,0-3.385-3.424,0-2.778,0-2.778,2.71-2.778h.376C1119.894,196.3,1119.894,196.3,1119.894,199.534Z" transform="translate(-47.027 -42.029)" fill="#070707"/>
      <path id="Trazado_651121" data-name="Trazado 651121" d="M992.829,72.94c9.536-16.071,23.08-24.638,41.435-24.912,19.553-.292,34.921,11.832,41.2,24.677-.472.457-1.065.22-1.588.222-6.615.02-13.229,0-19.843.017-6.586.017-10.276,3.721-10.279,10.31q-.012,20.876,0,41.751c0,6.528,3.792,10.331,10.288,10.362.922,0,1.845,0,2.975,0-12.229,7.992-32.362,8.308-45.191.1,1.937-.283,3.813.056,5.657-.347a9.124,9.124,0,0,0,7.446-8.788q.091-22.2,0-44.395c-.026-5.137-4.084-8.918-9.48-8.98-6.676-.076-13.355-.02-20.031-.021Z" transform="translate(-17.717 -6.038)" fill="#82d2ed"/>
      <path id="Trazado_651122" data-name="Trazado 651122" d="M965.672,89.114q16.526,0,33.054,0c3.377,0,4.354.989,4.354,4.416q0,20.582,0,41.163c0,3.4-.948,4.335-4.4,4.336-9.192,0-18.384.03-27.576-.032-1.318-.009-1.848.333-2.132,1.658-.683,3.19-1.573,6.335-2.371,9.5-.155.614-.219,1.322-1.093,1.259-.724-.054-.8-.668-.935-1.23-.763-3.109-1.593-6.2-2.3-9.327a1.986,1.986,0,0,0-2.351-1.873c-9.192.092-18.384.049-27.577.044-3.231,0-4.205-.939-4.207-4.112q-.015-20.865,0-41.729c0-3.042,1.053-4.07,4.093-4.072Q948.955,89.108,965.672,89.114Zm-.076,43.733c9.194,0,18.388.018,27.582-.008,3.867-.011,6.564-2.34,6.674-5.968.133-4.4.129-8.814-.015-13.215a5.883,5.883,0,0,0-5.868-5.734c-2.2-.084-4.409-.078-6.611-.011a6.081,6.081,0,0,0-6.131,6.292c-.038,2.707-.009,5.414-.01,8.12,0,4.23,0,4.123-4.315,4.271-1.779.061-2.026-.549-2.01-2.117.079-7.491.064-14.983.023-22.473-.023-4.132-2.485-6.539-6.6-6.584-1.763-.019-3.527-.013-5.29,0-4.337.03-6.759,2.448-6.769,6.8-.015,6.547,0,13.093,0,19.641,0,4.79,0,4.732-4.8,4.725-1.322,0-1.542-.469-1.521-1.63q.092-5.381.005-10.764a6.049,6.049,0,0,0-6.32-6.288c-1.952-.046-3.9-.041-5.856,0-3.985.075-6.432,2.54-6.464,6.531-.03,3.714-.011,7.428-.005,11.143.007,4.92,2.363,7.277,7.292,7.28Q952.089,132.854,965.6,132.847Z" transform="translate(-2.015 -16.012)" fill="#e2e5e8"/>
      <path id="Trazado_651123" data-name="Trazado 651123" d="M1105.766,89.114q16.527,0,33.055,0c3.409,0,4.352.944,4.354,4.386q.008,20.581,0,41.163c0,3.471-.9,4.365-4.337,4.366-9.067,0-18.134.062-27.2-.051-1.779-.023-2.354.576-2.681,2.186-.587,2.889-1.39,5.734-2.127,8.591-.176.679-.057,1.684-1.151,1.649-1.073-.036-.926-1.084-1.1-1.732-.819-3.03-1.649-6.064-2.272-9.137-.268-1.322-.863-1.531-2.035-1.526-9.255.039-18.51.024-27.766.02-3.306,0-4.268-.963-4.27-4.27q-.006-20.676,0-41.352c0-3.284,1.011-4.291,4.285-4.292Q1089.145,89.11,1105.766,89.114Zm-.171,43.734c9.193,0,18.388.014,27.582-.007,4.229-.009,6.815-2.5,6.846-6.585s.052-8.185-.015-12.275a6,6,0,0,0-5.952-6.062c-2.2-.081-4.41-.076-6.611-.006a6.01,6.01,0,0,0-6.06,6.151c-.062,2.643-.017,5.288-.018,7.932,0,4.581,0,4.515-4.588,4.585-1.434.022-1.763-.371-1.749-1.772.073-7.68.058-15.36.022-23.039a6.054,6.054,0,0,0-6.264-6.344c-1.762-.039-3.526-.012-5.29-.008-4.746.011-7.091,2.318-7.1,7.031-.015,6.42,0,12.841,0,19.262,0,4.941,0,4.9-4.875,4.865-1.19-.008-1.467-.345-1.443-1.488.075-3.586.053-7.176.02-10.763a6.125,6.125,0,0,0-6.393-6.43c-1.825-.042-3.652-.023-5.478-.005-4.359.043-6.767,2.423-6.809,6.776-.035,3.588-.014,7.177-.006,10.765.01,5.065,2.339,7.414,7.361,7.417Q1092.182,132.853,1105.6,132.847Z" transform="translate(-36.02 -16.012)" fill="#e2e5e8"/>
      <path id="Trazado_651124" data-name="Trazado 651124" d="M1021.165,231.244a37.558,37.558,0,0,0-9.961-6.205c-1.259-.522-1.771-.232-2.087,1-.357,1.393-1.378,2.886-1.092,4.095.275,1.161,2.252,1.246,3.433,1.9a34.783,34.783,0,0,1,7.276,5.637c2.226,2.152,2.731,4.651,2.438,7.519-.052.5.067,1.041-.721,1.013-6.636-.239-13.352.761-19.862-1.412a30.852,30.852,0,0,1-9.53-5.229,2.719,2.719,0,0,1-1.162-2.373q.067-13.03.005-26.059a4.091,4.091,0,0,1,.847-2.607c5.742-7.673,13.343-11.994,22.967-12.174,10.323-.193,20.653-.023,30.979-.078,1.383-.008,1.6.379,1.221,1.615a6.109,6.109,0,0,1-5.807,4.553c-3.4.07-6.8.056-10.2,0a1.756,1.756,0,0,0-1.886,1.155,13.741,13.741,0,0,1-9.341,7.855c-1.316.356-1.769.858-1.12,2.185a19,19,0,0,1,.967,2.849c.267.878.443,1.693,1.73,1.078,1.02-.488.905.392.905,1C1021.167,222.658,1021.165,226.748,1021.165,231.244Z" transform="translate(-17.005 -42.019)" fill="#e9cfb5"/>
      <path id="Trazado_651125" data-name="Trazado 651125" d="M1034.192,31.478c20.983,1.084,39.334,12.435,50.2,35.269,1.023,2.15.95,1.974-1.39,2.226-3.161.34-4.781-.74-6.453-3.671-10.544-18.481-26.712-28.059-47.968-27.453-20.858.6-36.183,10.91-45.9,29.379a2.68,2.68,0,0,1-2.848,1.73c-5.061-.084-5.062-.03-2.809-4.571C987.093,44.094,1007.432,31.5,1034.192,31.478Z" transform="translate(-13.531 -2.023)" fill="#c9cdd4"/>
      <path id="Trazado_651126" data-name="Trazado 651126" d="M928.144,228.328c0-4.653.03-9.306-.021-13.959-.013-1.14.17-1.644,1.505-1.627,6.289.076,12.58.064,18.869.007,1.155-.011,1.518.279,1.475,1.459-.092,2.512-.013,5.029-.033,7.545a10.533,10.533,0,0,0,1.412,5.772c.256.415.6.781.2,1.349-1.7,2.415-1.657,5.195-1.616,7.975.027,1.886-.067,3.777.031,5.658.063,1.194-.362,1.469-1.495,1.46q-9.434-.075-18.869,0c-1.168.01-1.5-.339-1.487-1.492C928.179,237.76,928.145,233.044,928.144,228.328Z" transform="translate(-2.011 -46.019)" fill="#f5d67e"/>
      <path id="Trazado_651127" data-name="Trazado 651127" d="M1077.011,163.352a59.322,59.322,0,0,1-86.208.029c3.1,0,5.935-.033,8.772.036.423.011.859.468,1.245.774a52.765,52.765,0,0,0,65.971.072,3.719,3.719,0,0,1,2.554-.932C1071.773,163.4,1074.2,163.352,1077.011,163.352Z" transform="translate(-17.225 -34.026)" fill="#c9cdd4"/>
      <path id="Trazado_651128" data-name="Trazado 651128" d="M977.722,226.27c0,6.794-.031,13.587.028,20.38.011,1.234-.322,1.6-1.563,1.567-3.144-.087-6.294-.095-9.437,0-1.284.039-1.552-.4-1.532-1.588.069-4.024.177-8.058-.026-12.074-.139-2.744.507-4.95,2.774-6.555,1.635-1.159,1.593-2.225-.013-3.369-2.26-1.611-2.9-3.812-2.763-6.558.207-4.015.105-8.049.023-12.073-.026-1.262.358-1.608,1.587-1.576,3.018.081,6.042.1,9.058-.006,1.45-.051,1.923.31,1.9,1.848C977.669,212.935,977.722,219.6,977.722,226.27Z" transform="translate(-11.004 -43.999)" fill="#f4c64e"/>
      <path id="Trazado_651129" data-name="Trazado 651129" d="M1039.382,236.107c0-5.478.023-10.956-.021-16.434a2.718,2.718,0,0,1,1.16-2.579,5.262,5.262,0,0,0,1.743-1.7c2.1-4.071,5.851-2.282,8.994-2.612.6-.062.66.452.661.918,0,.63-.049,1.265.014,1.889.24,2.342-.163,4-2.539,5.5-4.189,2.638-4.912,8.126-2.129,12.359a1.7,1.7,0,0,1-.006,2.271,9.028,9.028,0,0,0,3.353,13.255c2.3,1.22,1.129,3.053,1.181,4.615a2.5,2.5,0,0,1-2.421,2.681,59.755,59.755,0,0,1-7.356.014c-1.766-.109-2.615-1.441-2.626-3.736C1039.365,247.064,1039.383,241.586,1039.382,236.107Z" transform="translate(-29.011 -46.001)" fill="#929aa4"/>
      <path id="Trazado_651130" data-name="Trazado 651130" d="M1072.634,212.784c2.26,0,4.519-.026,6.778.009,2.03.03,3.35,1.222,3.408,2.988.059,1.849-1.266,3.157-3.4,3.177-4.706.045-9.414,0-14.12.033-.86.006-1.163-.192-1.209-1.138-.244-5.072-.276-5.071,4.781-5.071Q1070.751,212.783,1072.634,212.784Z" transform="translate(-34.993 -46.028)" fill="#e9cfb5"/>
      <path id="Trazado_651131" data-name="Trazado 651131" d="M1062.074,251.882a33.707,33.707,0,0,1-3.378-.021,2.924,2.924,0,0,1-2.722-3.032,2.964,2.964,0,0,1,2.91-3.068c2.188-.088,4.387-.088,6.575,0a3,3,0,0,1,2.918,3.073,3.031,3.031,0,0,1-2.735,3.049,3.881,3.881,0,0,1-.561.052c-1,.005-2,0-3.006,0Z" transform="translate(-33.044 -54.018)" fill="#e7ceb4"/>
      <path id="Trazado_651132" data-name="Trazado 651132" d="M1062.215,229.27c1.065,0,2.132-.048,3.193.014a3.028,3.028,0,0,1,2.968,3.024,2.929,2.929,0,0,1-2.869,3.09c-2.25.095-4.511.1-6.76-.009a2.9,2.9,0,0,1-2.772-2.982,3.044,3.044,0,0,1,2.857-3.129,3.646,3.646,0,0,1,.376-.01Q1060.711,229.266,1062.215,229.27Z" transform="translate(-33.044 -50.027)" fill="#e7ceb4"/>
      <path id="Trazado_651133" data-name="Trazado 651133" d="M966.6,134.864q-13.507,0-27.015,0c-4.929,0-7.285-2.36-7.292-7.28-.006-3.714-.025-7.429.005-11.143.033-3.991,2.479-6.456,6.464-6.531,1.952-.036,3.9-.042,5.856,0a6.049,6.049,0,0,1,6.32,6.288q.09,5.381-.005,10.764c-.02,1.161.2,1.628,1.521,1.63,4.8.008,4.8.065,4.8-4.725,0-6.547-.011-13.094,0-19.641.01-4.347,2.432-6.765,6.769-6.8,1.763-.012,3.527-.018,5.29,0,4.113.045,6.574,2.451,6.6,6.584.042,7.49.056,14.982-.023,22.473-.017,1.568.231,2.179,2.01,2.117,4.311-.148,4.315-.041,4.315-4.271,0-2.707-.028-5.414.01-8.12a6.081,6.081,0,0,1,6.131-6.292c2.2-.067,4.41-.073,6.611.011a5.883,5.883,0,0,1,5.868,5.734c.144,4.4.148,8.814.015,13.215-.11,3.628-2.807,5.957-6.674,5.968C984.991,134.882,975.8,134.864,966.6,134.864Zm3.143-18.628v-7.914c0-4.833,0-4.78-4.778-4.76-1.29.005-1.562.437-1.553,1.622.049,6.218.023,12.437.023,18.656,0,4.933,0,4.894,4.991,4.753,1.112-.032,1.352-.405,1.338-1.427C969.713,123.523,969.745,119.879,969.745,116.236Zm-24.963,6.193v-1.512c0-5.139,0-5.119-5.085-4.855-.843.044-1.259.206-1.248,1.157.041,3.4.014,6.8.019,10.2,0,.489-.1,1.125.649,1.116,1.814-.021,3.847.585,5.363-.269.909-.513.2-2.461.294-3.761C944.821,123.817,944.782,123.121,944.782,122.429Zm49.926-.165v-1.51c0-4.956,0-4.923-5.04-4.7-1.012.045-1.284.379-1.273,1.332.042,3.335.017,6.671.017,10.006,0,.584-.035,1.184.822,1.162,1.751-.044,3.758.415,5.163-.3.946-.485.21-2.675.3-4.1C994.742,123.524,994.708,122.893,994.708,122.263Z" transform="translate(-3.021 -18.029)" fill="#020202"/>
      <path id="Trazado_651134" data-name="Trazado 651134" d="M1106.608,134.864q-13.413,0-26.826,0c-5.022,0-7.352-2.351-7.361-7.417-.008-3.588-.029-7.177.006-10.765.042-4.354,2.45-6.733,6.809-6.776,1.826-.018,3.653-.036,5.478.005a6.125,6.125,0,0,1,6.393,6.43c.033,3.587.055,7.177-.02,10.763-.024,1.143.252,1.48,1.443,1.488,4.875.03,4.875.076,4.875-4.865,0-6.421-.011-12.842,0-19.262.011-4.713,2.356-7.021,7.1-7.031,1.764,0,3.527-.031,5.29.008a6.054,6.054,0,0,1,6.264,6.344c.036,7.68.051,15.36-.022,23.039-.014,1.4.315,1.794,1.749,1.772,4.586-.07,4.587,0,4.588-4.585,0-2.644-.044-5.289.018-7.932a6.01,6.01,0,0,1,6.06-6.151c2.2-.07,4.41-.075,6.611.006A6,6,0,0,1,1141.02,116c.067,4.091.045,8.184.015,12.275s-2.616,6.576-6.846,6.585C1125,134.877,1115.8,134.864,1106.608,134.864Zm-3.015-18.812v8.1c0,4.422,0,4.356,4.339,4.441,1.518.03,2.037-.318,2.01-1.937-.1-6.092-.039-12.185-.039-18.278,0-4.952,0-4.9-4.93-4.822-1.265.02-1.412.514-1.4,1.564C1103.622,108.765,1103.593,112.408,1103.593,116.051Zm-24.963,6.036v1.7c0,5.126,0,5.1,5.112,4.8.889-.053,1.219-.3,1.2-1.2-.046-2.2-.014-4.405-.014-6.607,0-4.946,0-4.913-5.049-4.718-1.008.039-1.3.35-1.265,1.314C1078.677,118.938,1078.63,120.513,1078.63,122.087Zm56.244.231v-1.512c0-4.847,0-4.812-4.825-4.753-1.118.014-1.576.253-1.52,1.464.1,2.073.026,4.154.026,6.232,0,5.125,0,5.09,5.1,4.84,1.045-.051,1.264-.437,1.234-1.362C1134.833,125.593,1134.873,123.954,1134.874,122.318Z" transform="translate(-37.032 -18.028)" fill="#020202"/>
      <path id="Trazado_651135" data-name="Trazado 651135" d="M979.723,118.2c0,3.643-.032,7.287.021,10.929.014,1.022-.226,1.395-1.338,1.427-4.992.141-4.991.18-4.991-4.753,0-6.219.026-12.438-.023-18.656-.009-1.185.263-1.617,1.553-1.622,4.778-.02,4.778-.073,4.778,4.76Z" transform="translate(-12.999 -19.995)" fill="#e78370"/>
      <path id="Trazado_651136" data-name="Trazado 651136" d="M946.758,128.373c0,.692.039,1.388-.008,2.077-.089,1.3.615,3.248-.294,3.761-1.516.854-3.549.248-5.363.269-.751.008-.648-.627-.649-1.116-.005-3.4.022-6.8-.019-10.2-.011-.951.405-1.113,1.248-1.157,5.086-.264,5.085-.284,5.085,4.855Z" transform="translate(-4.997 -23.974)" fill="#e68370"/>
      <path id="Trazado_651137" data-name="Trazado 651137" d="M1012.692,128.211c0,.629.034,1.261-.008,1.888-.094,1.424.641,3.614-.3,4.1-1.4.719-3.412.261-5.163.3-.857.022-.822-.579-.822-1.162,0-3.335.026-6.671-.017-10.006-.011-.953.261-1.287,1.273-1.332,5.041-.224,5.04-.257,5.04,4.7Z" transform="translate(-21.006 -23.977)" fill="#e68370"/>
      <path id="Trazado_651138" data-name="Trazado 651138" d="M1113.582,118.013c0-3.643.029-7.287-.019-10.929-.014-1.05.133-1.543,1.4-1.564,4.931-.077,4.93-.13,4.93,4.822,0,6.093-.06,12.187.039,18.278.027,1.619-.492,1.967-2.01,1.937-4.338-.086-4.339-.02-4.339-4.441Z" transform="translate(-47.022 -19.99)" fill="#e78370"/>
      <path id="Trazado_651139" data-name="Trazado 651139" d="M1080.618,128.039c0-1.574.047-3.149-.017-4.719-.039-.964.257-1.275,1.265-1.314,5.051-.2,5.049-.228,5.049,4.718,0,2.2-.032,4.406.014,6.607.019.9-.311,1.152-1.2,1.2-5.113.3-5.112.329-5.112-4.8Z" transform="translate(-39.021 -23.981)" fill="#e68370"/>
      <path id="Trazado_651140" data-name="Trazado 651140" d="M1152.86,128.286c0,1.636-.04,3.275.015,4.91.03.925-.189,1.31-1.234,1.362-5.1.251-5.1.285-5.1-4.84,0-2.078.07-4.159-.026-6.232-.056-1.211.4-1.45,1.52-1.464,4.825-.059,4.825-.095,4.825,4.753Z" transform="translate(-55.019 -23.997)" fill="#e68370"/>
    </g>
  </g>
</svg>
