<svg xmlns="http://www.w3.org/2000/svg" width="295" height="427" viewBox="0 0 295 427">
  <g id="Grupo_995459" data-name="Grupo 995459" transform="translate(-495 -7619.63)">
    <rect id="Rectángulo_309014" data-name="Rectángulo 309014" width="295" height="427" rx="18" transform="translate(495 7619.63)" fill="#00c1ab"/>
    <circle id="Elipse_8084" data-name="Elipse 8084" cx="147.5" cy="147.5" r="147.5" transform="translate(495 7689)" fill="#00d0b8"/>
    <g id="Grupo_991931" data-name="Grupo 991931" transform="translate(-368.249 7399.403)">
      <path id="Trazado_651141" data-name="Trazado 651141" d="M987.885,562.509a5.147,5.147,0,0,0-2.237-.3q-8.6,0-17.2-.006a4.4,4.4,0,0,0-1.987-2.56c-1.218-.812-2.376-1.712-3.567-2.565a11.872,11.872,0,0,1-4.528-6.3q-4.432-14.326-8.842-28.657c-.917-2.993.248-5.375,2.92-6.163,2.429-.716,4.68.656,5.573,3.47,1.2,3.789,2.277,7.621,3.56,11.382.881,2.585,1.725,4.98-.231,7.545-.889,1.166-.15,2.772,1.1,3.43a2.54,2.54,0,0,0,3.489-1.046c.589-.939.985-2,1.586-2.93a4.7,4.7,0,0,0,.426-4.318c-3.24-10.257-6.39-20.543-9.561-30.821-2.636-8.547-5.283-17.091-7.879-25.651-.984-3.241.695-5.873,3.795-6.139,2.213-.19,3.942,1.136,4.776,3.808q4.729,15.151,9.4,30.319c1.281,4.132,2.555,8.266,3.848,12.395.64,2.043,1.833,2.9,3.364,2.482,1.683-.463,2.275-1.866,1.668-3.949-.082-.281-.159-.563-.245-.842q-2.939-9.555-5.876-19.112c-.818-2.683.1-4.927,2.35-5.883,2.533-1.079,5.216.286,6.151,3.245,1.813,5.742,3.557,11.505,5.334,17.258.362,1.173.664,2.373,1.138,3.5a2.457,2.457,0,0,0,3.143,1.553,2.535,2.535,0,0,0,1.809-3.144c-.094-.456-.256-.9-.392-1.346-1.354-4.476-2.818-8.923-4.03-13.437a4.3,4.3,0,0,1,5.271-5.228c2,.482,2.979,1.92,3.545,3.76q1.908,6.2,3.834,12.4c.766,2.47,1.891,3.315,3.619,2.729,1.754-.6,2.152-1.851,1.386-4.37-.647-2.125-1.38-4.23-1.914-6.383a4.349,4.349,0,0,1,4.315-5.328c2.1.015,3.667,1.234,4.42,3.6,1.3,4.065,2.534,8.15,3.781,12.231a4.044,4.044,0,0,0,1.789,2.691,46.269,46.269,0,0,1-2.311,9.505,80.186,80.186,0,0,1-12.624,24.889,65.036,65.036,0,0,1-9.817,10.453C990.613,559.873,988.774,560.7,987.885,562.509Z" transform="translate(-8.426 -36.063)" fill="#f8dcce"/>
      <path id="Trazado_651142" data-name="Trazado 651142" d="M1008.371,501.631a4.044,4.044,0,0,1-1.789-2.691c-1.247-4.081-2.485-8.166-3.781-12.231-.754-2.363-2.323-3.582-4.42-3.6a4.349,4.349,0,0,0-4.315,5.328c.534,2.153,1.267,4.258,1.914,6.383.766,2.519.368,3.774-1.386,4.37-1.728.587-2.854-.259-3.619-2.729q-1.922-6.2-3.834-12.4c-.566-1.84-1.55-3.279-3.545-3.76a4.3,4.3,0,0,0-5.271,5.228c1.213,4.514,2.676,8.961,4.03,13.437.136.447.3.89.392,1.346a2.535,2.535,0,0,1-1.809,3.144,2.457,2.457,0,0,1-3.143-1.553c-.474-1.128-.776-2.328-1.138-3.5-1.778-5.753-3.521-11.517-5.334-17.258-.934-2.959-3.617-4.324-6.151-3.245-2.247.955-3.168,3.2-2.35,5.883q2.916,9.564,5.876,19.112c.086.279.164.561.245.842.607,2.082.015,3.485-1.668,3.949-1.532.422-2.725-.439-3.364-2.482-1.293-4.128-2.567-8.262-3.848-12.395q-4.7-15.161-9.4-30.319c-.834-2.672-2.564-4-4.776-3.808-3.1.266-4.779,2.9-3.795,6.139,2.6,8.559,5.242,17.1,7.879,25.651,3.171,10.278,6.321,20.564,9.561,30.821a4.7,4.7,0,0,1-.426,4.318c-.6.929-1,1.991-1.586,2.93a2.54,2.54,0,0,1-3.489,1.046c-1.247-.659-1.986-2.264-1.1-3.43,1.955-2.565,1.112-4.96.231-7.545-1.283-3.761-2.357-7.593-3.56-11.382-.893-2.814-3.144-4.186-5.573-3.47-2.672.788-3.836,3.17-2.92,6.163q4.394,14.337,8.842,28.657a11.872,11.872,0,0,0,4.528,6.3c1.19.853,2.349,1.753,3.567,2.565a4.4,4.4,0,0,1,1.987,2.56c-.831,3-2.483,3.6-5.008,1.783-1.522-1.093-3.064-2.163-4.529-3.329a16.6,16.6,0,0,1-5.573-8.332c-2.922-9.5-5.875-18.98-8.791-28.478-2.273-7.405,2.165-13.366,9.9-13.343.221,0,.441-.04.812-.075-1.644-5.333-3.341-10.551-4.826-15.83-.46-1.636-1.1-2.215-2.822-2.125-2.982.159-5.979.062-8.969.04-5.62-.04-9.542-3.914-9.553-9.486q-.032-15.917,0-31.833c.011-5.463,3.734-9.374,9.214-9.419q16.182-.133,32.367,0a8.861,8.861,0,0,1,9.157,9.264c.032,11.139-.02,22.277-.05,33.415,0,.526-.143,1.028.472,1.357A11.285,11.285,0,0,1,975.7,477.6c4.785-4.193,11.9-3.869,15.889,2.887a9.617,9.617,0,0,1,9.275-2.313,9.3,9.3,0,0,1,6.7,6.163c1.555,4.592,2.88,9.262,4.335,13.889.519,1.649-.224,2.684-1.526,3.508A4.446,4.446,0,0,1,1008.371,501.631Zm-82.365-31.146c-.059,2.667,1.211,4.424,3.564,4.513,3.313.125,6.636.032,10.118.032l-1.911-5.989c-.3-.987-1.312-1.589-1.306-2.788.042-7.557,0-15.113.037-22.67a2.488,2.488,0,0,1,2.666-2.644c2.4-.054,4.81-.111,7.2.025a7.769,7.769,0,0,1,7.146,8.577,11.629,11.629,0,0,0,1.328,7.006,1.781,1.781,0,0,0,.217.264c.869,6.223,3.267,12.009,4.981,18.143a10.394,10.394,0,0,1,4.841-2.451c1.06-.15,1.287-.711,1.262-1.656-.047-1.814-.013-3.631-.013-5.448q0-13.092-.007-26.185c0-2.558-.933-3.728-3.235-4.234-.7-.047-1.395-.136-2.093-.137q-15.1-.014-30.21,0c-2.933,0-4.617,1.345-4.624,3.861C925.944,449.3,925.988,459.891,926.006,470.485Zm15.768-21.8c0,.64,0,1.281,0,1.921,0,.443.062.826.64.809a28.9,28.9,0,0,0,3.828-.145,2.317,2.317,0,0,0,2.027-2.639,2.411,2.411,0,0,0-2.495-2.411c-.987-.058-1.983.035-2.969-.039-.884-.066-1.124.307-1.041,1.107C941.81,447.751,941.771,448.221,941.773,448.687Z" transform="translate(-0.004 -23.874)" fill="#040303"/>
      <path id="Trazado_651143" data-name="Trazado 651143" d="M1060.87,374.221c0-5.276-.021-10.551,0-15.827.028-5.644,3.867-9.492,9.5-9.5q15.918-.029,31.836,0a9.061,9.061,0,0,1,9.4,9.424q.04,16,0,32.005a8.918,8.918,0,0,1-9.146,9.288q-16.268.12-32.538-.006a8.9,8.9,0,0,1-9.042-9.2C1060.839,385.006,1060.87,379.613,1060.87,374.221Zm42.262-19.939c-1.462-.039-2.923-.109-4.385-.111q-14.072-.015-28.145,0c-2.763,0-4.423,1.39-4.428,3.883-.02,10.55.023,21.1.044,31.651-.125,3.043,1.214,4.632,4.116,4.641q15.9.051,31.8,0c2.78-.008,4.183-1.484,4.188-4.292q.024-15.811,0-31.622C1106.323,356.077,1105.436,354.972,1103.132,354.282Z" transform="translate(-41.347 -0.092)" fill="#020302"/>
      <path id="Trazado_651144" data-name="Trazado 651144" d="M941.632,351.525c.506-2.154,1.192-2.725,3.382-2.728,5.689-.009,11.378-.027,17.067,0a8.98,8.98,0,0,1,9.316,9.14q.093,16.271,0,32.544a8.8,8.8,0,0,1-8.858,9.017q-16.449.143-32.9,0a8.915,8.915,0,0,1-8.964-9.123q-.057-16.185,0-32.368a9.57,9.57,0,0,1,11.909-9.155c1.395.354,1.9,1.443,2.18,2.7a3.176,3.176,0,0,1-3.825,2.519,6.926,6.926,0,0,0-1.054,0,3.8,3.8,0,0,0-3.918,3.884c-.024,10.547.016,21.1.032,31.643-.091,3.055,1.252,4.632,4.156,4.641q15.91.049,31.819,0c2.691-.008,4.14-1.471,4.146-4.146q.037-15.906,0-31.813c0-2.371-.9-3.441-3.235-4.113-5.96-.034-11.92-.1-17.88-.084C943.146,354.1,942,353.381,941.632,351.525Z" fill="#030202"/>
      <path id="Trazado_651145" data-name="Trazado 651145" d="M1083.518,432.111c.4-1.96,1.662-2.6,3.573-2.576,4.926.063,9.853-.012,14.779.03,6.056.051,9.738,3.763,9.744,9.786q.018,15.568,0,31.137c-.006,6.074-3.793,9.839-9.889,9.845q-15.483.014-30.967,0c-6.1,0-9.877-3.76-9.884-9.844q-.017-15.568,0-31.137c.006-6.009,3.7-9.712,9.738-9.793.88-.012,1.762.039,2.639-.01a2.912,2.912,0,0,1,3.385,2.567c-.615,2.218-1.254,2.7-3.6,2.727-1.111.011-2.227-.032-3.333.056a3.6,3.6,0,0,0-3.521,3.655c-.021,10.646.02,21.292.039,31.939-.094,2.8,1.286,4.529,3.885,4.539q16.177.066,32.353,0a3.712,3.712,0,0,0,3.854-3.927q.047-16.174,0-32.346c-.005-2.076-1.073-3.248-3.177-3.764-5.347-.338-10.7-.059-16.049-.146C1084.79,434.8,1084.16,434.334,1083.518,432.111Z" transform="translate(-41.35 -23.877)" fill="#020303"/>
      <path id="Trazado_651146" data-name="Trazado 651146" d="M1032.964,531.787a4.447,4.447,0,0,0,2,.1q.933,3.327,1.864,6.656a2.832,2.832,0,0,0-1.5,3.937c.367.98.614,2.005.937,3,1.491,4.607,3.01,9.209,2.9,14.143a46.076,46.076,0,0,0,3.139,17.437c.409,1.087.656,2.234.979,3.354-5.745.028-11.491.073-17.236.08-7.33.009-14.659-.013-21.988-.021.89-1.808,2.729-2.637,4.157-3.843a65.039,65.039,0,0,0,9.817-10.453,80.189,80.189,0,0,0,12.624-24.889A46.269,46.269,0,0,0,1032.964,531.787Z" transform="translate(-24.597 -54.03)" fill="#f5ccbf"/>
      <path id="Trazado_651147" data-name="Trazado 651147" d="M928.223,390.847c-.016-10.548-.056-21.1-.032-31.643a3.8,3.8,0,0,1,3.918-3.884,6.923,6.923,0,0,1,1.054,0,3.176,3.176,0,0,0,3.825-2.519l6.866-.037c.365,1.857,1.515,2.573,3.376,2.568,5.96-.016,11.92.05,17.88.084a34.024,34.024,0,0,1-6.472,20.484c-.495.708-.793,1.754-1.888,1.933-1.749-4.58-3.528-9.15-5.23-13.748-.587-1.587-1.522-2.686-3.272-2.666-1.677.02-2.572,1.132-3.136,2.624-2.662,7.044-5.36,14.074-8.028,21.116-.941,2.482-.259,3.712,2.338,4.335C935.8,390.9,932.019,390.915,928.223,390.847Z" transform="translate(-2.223 -1.239)" fill="#cf7aa2"/>
      <path id="Trazado_651148" data-name="Trazado 651148" d="M1068.446,471.568c-.019-10.647-.06-21.293-.039-31.939a3.6,3.6,0,0,1,3.521-3.655c1.106-.087,2.222-.044,3.333-.056,2.344-.025,2.983-.508,3.6-2.727l6.88,0c.642,2.225,1.272,2.695,3.574,2.733,5.35.087,10.7-.192,16.049.146a20.321,20.321,0,0,1-.358,4.879c-.856,5.493-2.54,10.665-5.977,15.142-.116-1.047-.215-2.1-.349-3.14-.876-6.831-5.49-10.922-12.343-10.948-1.641-.006-3.282-.01-4.924,0-2.5.016-3.427.9-3.432,3.359-.016,7.033,0,14.066-.011,21.1a3.51,3.51,0,0,0,1.706,3.414,1.588,1.588,0,0,1-1.16.675A35.562,35.562,0,0,1,1068.446,471.568Z" transform="translate(-43.572 -24.954)" fill="#9ed5f3"/>
      <path id="Trazado_651149" data-name="Trazado 651149" d="M1056.238,583.236c-.322-1.12-.57-2.268-.979-3.354a46.078,46.078,0,0,1-3.139-17.437c.113-4.934-1.406-9.535-2.9-14.143-.323-1-.57-2.022-.937-3a2.832,2.832,0,0,1,1.5-3.937c2.248-.116,2.872.3,3.561,2.47,1.023,3.224,2,6.464,3.034,9.683a23.482,23.482,0,0,1,.913,7.808c-.163,6.852,1.66,13.27,3.813,19.645.13.387.256.776.362,1.17a2.692,2.692,0,0,1-1.647,3.54c-1.343.446-2.641-.247-3.342-1.793C1056.382,583.678,1056.317,583.453,1056.238,583.236Z" transform="translate(-37.555 -56.849)" fill="#040303"/>
      <path id="Trazado_651150" data-name="Trazado 651150" d="M1153.756,370.262c-3.041,0-6.083.019-9.124-.006-1.94-.017-3.076-.993-3.1-2.575s1.149-2.686,3.019-2.7q9.211-.048,18.424,0c1.891.011,3.039,1.113,3.013,2.7s-1.158,2.552-3.109,2.568C1159.839,370.28,1156.8,370.261,1153.756,370.262Z" transform="translate(-65.137 -4.835)" fill="#060606"/>
      <path id="Trazado_651151" data-name="Trazado 651151" d="M1013.48,370.263c-2.983,0-5.965.018-8.948-.006-2.022-.016-3.074-.892-3.124-2.519-.052-1.69,1.077-2.747,3.105-2.756q9.124-.039,18.246,0c1.935.009,3.042,1.033,3.047,2.644.006,1.632-1.074,2.607-3.029,2.625C1019.679,370.284,1016.579,370.262,1013.48,370.263Z" transform="translate(-23.816 -4.836)" fill="#060606"/>
      <path id="Trazado_651152" data-name="Trazado 651152" d="M1153.789,450.961c-3.041,0-6.083.015-9.124-.006-1.911-.012-3.088-1-3.131-2.569-.046-1.646,1.149-2.695,3.162-2.7q9.037-.022,18.073,0c2.015,0,3.235,1.032,3.223,2.647s-1.223,2.616-3.253,2.626C1159.755,450.973,1156.772,450.961,1153.789,450.961Z" transform="translate(-65.137 -28.637)" fill="#020302"/>
      <path id="Trazado_651153" data-name="Trazado 651153" d="M1013.617,450.961c-3.05,0-6.1.017-9.15-.006-1.92-.014-3.057-1.017-3.064-2.625-.007-1.623,1.113-2.636,3.034-2.642q9.15-.026,18.3,0c1.928,0,3.06,1,3.069,2.614s-1.139,2.637-3.039,2.653C1019.717,450.979,1016.667,450.961,1013.617,450.961Z" transform="translate(-23.815 -28.637)" fill="#020302"/>
      <path id="Trazado_651154" data-name="Trazado 651154" d="M1010.073,477.965c1.929,0,3.86-.039,5.788.008a2.63,2.63,0,1,1,.128,5.247q-5.961.1-11.926-.006a2.514,2.514,0,0,1-2.656-2.657,2.486,2.486,0,0,1,2.7-2.576C1006.1,477.922,1008.085,477.967,1010.073,477.965Z" transform="translate(-23.816 -38.154)" fill="#060606"/>
      <path id="Trazado_651155" data-name="Trazado 651155" d="M1150.2,477.964c1.929,0,3.859-.034,5.788.009a2.68,2.68,0,0,1,2.913,2.6,2.71,2.71,0,0,1-2.9,2.653q-5.787.082-11.575,0a2.65,2.65,0,0,1-2.89-2.641c-.01-1.536,1.082-2.572,2.877-2.615C1146.34,477.929,1148.27,477.964,1150.2,477.964Z" transform="translate(-65.137 -38.155)" fill="#060606"/>
      <path id="Trazado_651156" data-name="Trazado 651156" d="M1010.092,381.192c1.929,0,3.86-.03,5.788.008a2.629,2.629,0,1,1,.089,5.246c-3.917.075-7.836.071-11.753.008a2.581,2.581,0,0,1-2.811-2.7c.019-1.592,1.041-2.526,2.9-2.558C1006.232,381.165,1008.162,381.192,1010.092,381.192Z" transform="translate(-23.815 -9.619)" fill="#060606"/>
      <path id="Trazado_651157" data-name="Trazado 651157" d="M1150.28,381.193c1.929,0,3.86-.032,5.788.009a2.619,2.619,0,1,1,.2,5.229q-6.049.129-12.1,0a2.618,2.618,0,1,1,.147-5.231C1146.3,381.16,1148.291,381.194,1150.28,381.193Z" transform="translate(-65.137 -9.619)" fill="#060606"/>
      <path id="Trazado_651158" data-name="Trazado 651158" d="M1150.195,467.035c-1.872,0-3.744.02-5.615,0-1.915-.026-3.056-1.028-3.05-2.619a2.674,2.674,0,0,1,2.895-2.646q5.789-.073,11.58,0a2.71,2.71,0,0,1,2.9,2.661,2.676,2.676,0,0,1-2.916,2.6C1154.055,467.061,1152.125,467.034,1150.195,467.035Z" transform="translate(-65.136 -33.371)" fill="#060606"/>
      <path id="Trazado_651159" data-name="Trazado 651159" d="M1150.3,397.293c1.871,0,3.744-.022,5.615.006,1.766.026,2.928,1.044,2.981,2.544.055,1.553-1.159,2.7-3,2.719q-5.7.048-11.405,0c-1.854-.016-3.017-1.141-2.959-2.734.056-1.529,1.177-2.506,2.973-2.53C1146.443,397.273,1148.373,397.293,1150.3,397.293Z" transform="translate(-65.138 -14.367)" fill="#020302"/>
      <path id="Trazado_651160" data-name="Trazado 651160" d="M1009.93,467.032c-1.93,0-3.86.035-5.789-.012a2.5,2.5,0,0,1-2.733-2.545,2.535,2.535,0,0,1,2.623-2.694c3.975-.075,7.954-.07,11.929-.008a2.632,2.632,0,1,1-.066,5.252C1013.907,467.063,1011.918,467.033,1009.93,467.032Z" transform="translate(-23.816 -33.37)" fill="#060606"/>
      <path id="Trazado_651161" data-name="Trazado 651161" d="M1009.96,402.571c-1.871,0-3.742.028-5.613-.007s-2.985-1.108-2.937-2.733c.046-1.551,1.13-2.521,2.945-2.532q5.7-.035,11.4,0a2.67,2.67,0,0,1,2.968,2.54c.05,1.572-1.135,2.689-2.976,2.723C1013.82,402.6,1011.89,402.571,1009.96,402.571Z" transform="translate(-23.816 -14.366)" fill="#020302"/>
      <path id="Trazado_651162" data-name="Trazado 651162" d="M957.289,459.032a1.778,1.778,0,0,1-.217-.264,11.629,11.629,0,0,1-1.328-7.006,7.769,7.769,0,0,0-7.146-8.577c-2.4-.136-4.8-.079-7.2-.025a2.488,2.488,0,0,0-2.666,2.644c-.036,7.557,0,15.113-.037,22.67-.006,1.2,1,1.8,1.306,2.788a38.073,38.073,0,0,1-11.771,1.445c-.018-10.594-.062-21.187-.034-31.781.007-2.516,1.691-3.856,4.624-3.861q15.1-.023,30.21,0c.7,0,1.4.09,2.093.137A32.7,32.7,0,0,1,962,451.774C960.831,454.427,959.589,457.088,957.289,459.032Z" transform="translate(-2.223 -26.095)" fill="#f8de8a"/>
      <path id="Trazado_651163" data-name="Trazado 651163" d="M969.462,459.093c2.3-1.945,3.542-4.605,4.714-7.258a32.7,32.7,0,0,0,3.115-14.573c2.3.506,3.23,1.676,3.235,4.234q.024,13.093.007,26.185c0,1.816-.035,3.633.013,5.448.025.945-.2,1.505-1.262,1.656a10.394,10.394,0,0,0-4.841,2.451C972.729,471.1,970.331,465.316,969.462,459.093Z" transform="translate(-14.396 -26.156)" fill="#f6ce74"/>
      <path id="Trazado_651164" data-name="Trazado 651164" d="M928.242,487.012a38.073,38.073,0,0,0,11.771-1.445l1.911,5.989c-3.483,0-6.805.093-10.118-.032C929.454,491.436,928.184,489.679,928.242,487.012Z" transform="translate(-2.24 -40.4)" fill="#f6ce74"/>
      <path id="Trazado_651165" data-name="Trazado 651165" d="M950.593,455.652c0-.466.038-.936-.009-1.4-.083-.8.157-1.173,1.041-1.107.985.074,1.981-.019,2.969.039a2.411,2.411,0,0,1,2.495,2.411,2.317,2.317,0,0,1-2.027,2.639,28.9,28.9,0,0,1-3.828.145c-.578.017-.642-.366-.64-.809C950.6,456.932,950.594,456.292,950.593,455.652Z" transform="translate(-8.824 -30.838)" fill="#f8de8a"/>
      <path id="Trazado_651166" data-name="Trazado 651166" d="M1068.439,391.915c-.02-10.551-.063-21.1-.044-31.651.005-2.493,1.665-3.88,4.428-3.883q14.072-.015,28.145,0c1.462,0,2.923.072,4.385.111a31.956,31.956,0,0,1-.295,4.524,34.691,34.691,0,0,1-12.082,22.383c-.483.413-1.025.815-.984,1.568l-.451.08-.6.106a8.7,8.7,0,1,1,3.8-16.319,3.907,3.907,0,0,0,2.439.84,2.524,2.524,0,0,0,2.251-1.934,2.759,2.759,0,0,0-1.53-3.212,14.038,14.038,0,1,0-14.007,24.321,3.371,3.371,0,0,1-1.779,1.017A32.6,32.6,0,0,1,1068.439,391.915Z" transform="translate(-43.568 -2.303)" fill="#bbe0a5"/>
      <path id="Trazado_651167" data-name="Trazado 651167" d="M1092.009,385.018c-.041-.753.5-1.155.984-1.568a34.691,34.691,0,0,0,12.082-22.383,31.956,31.956,0,0,0,.295-4.524c2.3.69,3.191,1.8,3.194,4.151q.02,15.81,0,31.622c0,2.808-1.407,4.284-4.188,4.292q-15.9.047-31.8,0c-2.9-.009-4.24-1.6-4.116-4.641a32.6,32.6,0,0,0,13.673-2.048,3.371,3.371,0,0,0,1.779-1.017c.644.271,1.278.569,1.934.807,4.971,1.806,10.464.625,13.574-2.905,1.267-1.438,1.3-2.931.1-4.035-1.119-1.025-2.563-.915-3.883.352A5.446,5.446,0,0,1,1092.009,385.018Z" transform="translate(-43.585 -2.353)" fill="#a2d1a7"/>
      <path id="Trazado_651168" data-name="Trazado 651168" d="M928.237,391.956c3.8.068,7.582.054,11.2-1.354a4.487,4.487,0,0,0,2.089-1.142c.438.608.9.241,1.388.063a26.515,26.515,0,0,0,5.437-2.741c.744-.489,1.773-.693,2-1.775,2.92-.149,2.919-.149,3.944,2.524.1.272.209.544.319.815.723,1.785,2.049,2.562,3.494,2.046,1.565-.559,2.12-2.007,1.438-3.9-.907-2.524-1.853-5.033-2.782-7.548,1.1-.18,1.393-1.225,1.888-1.933a34.024,34.024,0,0,0,6.472-20.484c2.337.672,3.231,1.742,3.235,4.113q.03,15.906,0,31.813c-.006,2.675-1.455,4.138-4.146,4.146q-15.909.047-31.819,0C929.489,396.588,928.146,395.011,928.237,391.956Z" transform="translate(-2.238 -2.348)" fill="#cc608e"/>
      <path id="Trazado_651169" data-name="Trazado 651169" d="M1068.463,472.772a35.562,35.562,0,0,0,10.069-1.022,1.585,1.585,0,0,0,1.159-.675,44.392,44.392,0,0,0,7.505.077c4.792-.105,8.081-2.551,10.193-6.761a21.139,21.139,0,0,0,1.657-7.1c3.437-4.477,5.12-9.649,5.977-15.142a20.314,20.314,0,0,0,.357-4.879c2.1.515,3.172,1.688,3.177,3.764q.04,16.173,0,32.346a3.712,3.712,0,0,1-3.854,3.927q-16.176.069-32.353,0C1069.749,477.3,1068.369,475.574,1068.463,472.772Z" transform="translate(-43.588 -26.158)" fill="#88cbf3"/>
      <path id="Trazado_651170" data-name="Trazado 651170" d="M960.305,381.452c.929,2.515,1.875,5.025,2.782,7.548.681,1.9.126,3.344-1.438,3.9-1.445.516-2.771-.26-3.494-2.046-.109-.271-.214-.543-.319-.815-1.025-2.673-1.024-2.673-3.944-2.524-.694-.018-1.388-.058-2.081-.052-1.617.014-3.516-.466-4.772.221-1.283.7-1.282,2.835-1.974,4.285a4.486,4.486,0,0,1-2.089,1.142c-2.6-.623-3.278-1.853-2.337-4.335,2.668-7.042,5.366-14.072,8.028-21.116.564-1.491,1.459-2.6,3.136-2.624,1.75-.02,2.685,1.079,3.272,2.666C956.778,372.3,958.557,376.871,960.305,381.452Zm-5.485.642-2.943-7.9c-1.078,2.818-2.023,5.289-3.021,7.9Z" transform="translate(-5.778 -4.858)" fill="#030202"/>
      <path id="Trazado_651171" data-name="Trazado 651171" d="M1103.031,459.77a21.136,21.136,0,0,1-1.657,7.1c-2.111,4.21-5.4,6.656-10.193,6.761a44.4,44.4,0,0,1-7.505-.077,3.511,3.511,0,0,1-1.705-3.414c.013-7.032,0-14.065.011-21.1.006-2.461.931-3.343,3.432-3.359,1.641-.011,3.283-.008,4.924,0,6.853.027,11.467,4.117,12.343,10.948C1102.816,457.674,1102.915,458.723,1103.031,459.77Zm-15.763-.136h.029c0,2.518-.006,5.036.006,7.554,0,.491-.152,1.02.623,1.228,3.221.861,7-.493,8.4-3.279a11.9,11.9,0,0,0,.047-10.98,5.433,5.433,0,0,0-5.072-3.179c-.936-.026-1.876.028-2.811-.026-.847-.05-1.273.13-1.247,1.13C1087.312,454.6,1087.268,457.116,1087.268,459.634Z" transform="translate(-47.573 -28.637)" fill="#020303"/>
      <path id="Trazado_651172" data-name="Trazado 651172" d="M1095.406,387.512a5.446,5.446,0,0,0,3.624-1.9c1.32-1.267,2.764-1.377,3.883-.352,1.2,1.1,1.166,2.6-.1,4.035-3.11,3.531-8.6,4.711-13.574,2.905-.656-.238-1.29-.536-1.934-.807a14.037,14.037,0,1,1,14.007-24.321,2.759,2.759,0,0,1,1.53,3.212,2.524,2.524,0,0,1-2.251,1.934,3.908,3.908,0,0,1-2.439-.84,8.7,8.7,0,1,0-3.8,16.319l.6-.106Z" transform="translate(-46.982 -4.846)" fill="#040303"/>
      <path id="Trazado_651173" data-name="Trazado 651173" d="M1100.972,397.04l-.6.106Z" transform="translate(-52.998 -14.295)" fill="#a2d1a7"/>
      <path id="Trazado_651174" data-name="Trazado 651174" d="M947.085,401.288c.692-1.45.691-3.585,1.974-4.285,1.257-.687,3.155-.207,4.772-.221.693-.006,1.387.034,2.081.052-.229,1.082-1.258,1.286-2,1.775a26.515,26.515,0,0,1-5.437,2.741C947.988,401.529,947.523,401.9,947.085,401.288Z" transform="translate(-7.797 -14.175)" fill="#cf7aa2"/>
      <path id="Trazado_651175" data-name="Trazado 651175" d="M958.425,385.922h-5.964c1-2.613,1.943-5.084,3.021-7.9Z" transform="translate(-9.383 -8.686)" fill="#cf7aa2"/>
      <path id="Trazado_651176" data-name="Trazado 651176" d="M1089.473,461.837c0-2.518.044-5.037-.022-7.553-.026-1,.4-1.18,1.247-1.13.934.054,1.874,0,2.811.026a5.433,5.433,0,0,1,5.072,3.179,11.9,11.9,0,0,1-.047,10.98c-1.406,2.787-5.18,4.14-8.4,3.279-.775-.207-.62-.736-.623-1.228-.013-2.518-.006-5.036-.006-7.554Z" transform="translate(-49.778 -30.84)" fill="#9ed5f3"/>
    </g>
  </g>
</svg>
