<svg xmlns="http://www.w3.org/2000/svg" width="295" height="427" viewBox="0 0 295 427">
  <g id="Grupo_995460" data-name="Grupo 995460" transform="translate(6694 4060.802)">
    <rect id="Rectángulo_309019" data-name="Rectángulo 309019" width="295" height="427" rx="18" transform="translate(-6694 -4060.802)" fill="#00c1ab"/>
    <circle id="Elipse_8086" data-name="Elipse 8086" cx="147.5" cy="147.5" r="147.5" transform="translate(-6694 -4011)" fill="#00d0b8"/>
    <g id="Grupo_991933" data-name="Grupo 991933" transform="translate(-7975.777 -4046.087)">
      <path id="Trazado_651177" data-name="Trazado 651177" d="M1407.422,263.463q-30.569,0-61.137.038c-1.466,0-1.746-.4-1.721-1.775.09-4.893.021-9.788.038-14.683a27.823,27.823,0,0,1,26.359-27.993c6.469-.435,12.92-1.149,19.382-1.694.773-.065,1.089-.307,1.17-1.082.166-1.582.854-3.25.529-4.7-.339-1.515-2.387-1.611-3.649-2.375-10.041-6.082-16.287-14.807-18.495-26.353-.2-1.056-.58-1.316-1.618-1.394-6.213-.469-10.914-3.458-13.705-9.019-2.825-5.63-2.361-11.217,1.086-16.5a2.213,2.213,0,0,0,.322-2.423,38.726,38.726,0,0,1,29.845-53.527,39.863,39.863,0,0,1,6.3-.435c7.912.027,15.825.006,23.737.018a2.452,2.452,0,0,0,1.975-.686c3.989-3.993,8.919-5.332,14.386-4.653,13.565,1.686,22.926,8.891,27.9,21.657a2.093,2.093,0,0,0,1.714,1.339c18.23,4.9,29.87,16.482,34.527,34.737,2.79,10.94,1.186,21.56-3.956,31.6-.646,1.26-.647,1.96.406,2.992q8.78,8.605,17.4,17.372c6.751,6.9,4.065,17.99-5,20.729-4.858,1.468-9.1.179-12.658-3.358q-8.722-8.665-17.373-17.4a1.828,1.828,0,0,0-2.575-.421,45.216,45.216,0,0,1-38.714,1.947,2.162,2.162,0,0,0-2.572.376,30.17,30.17,0,0,1-7.466,4.72,1.56,1.56,0,0,0-1.057,1.933c.53,4.88.509,4.808,5.365,5.248,6.795.615,13.649.792,20.36,2.077,12.022,2.3,21.427,13.519,21.726,25.791.136,5.574-.023,11.155.083,16.73.028,1.477-.8,1.173-1.6,1.173Q1438.077,263.465,1407.422,263.463Zm.04-5.467c11.323,0,22.646-.025,33.969.034,1.308.007,1.6-.354,1.567-1.6-.088-3.639-.031-7.28-.031-10.921,0-3.934,0-3.887,3.983-3.93,1.171-.013,1.537.252,1.516,1.479-.079,4.549-.014,9.1-.046,13.652-.005.857.053,1.331,1.147,1.316,4.722-.064,9.446-.053,14.167-.005.949.01,1.117-.337,1.107-1.182-.046-3.754.08-7.513-.06-11.262a21.953,21.953,0,0,0-18.837-20.7c-7.161-.894-14.377-1.347-21.559-2.092a3.441,3.441,0,0,0-3.459,1.4c-4.112,5.085-8.372,10.052-12.507,15.119-.82,1-1.19.916-1.962-.027-4.291-5.234-8.66-10.4-12.968-15.623a2.2,2.2,0,0,0-2.162-.928c-6.906.662-13.821,1.219-20.728,1.866a22.149,22.149,0,0,0-20.042,17.639c-1.036,4.94-.314,9.984-.5,14.977-.041,1.1.753.777,1.3.779,4.608.018,9.218-.028,13.826.039,1.1.016,1.313-.334,1.3-1.347-.059-3.7-.023-7.4-.023-11.093,0-4.036,0-3.995,4.075-4.006,1.095,0,1.438.261,1.421,1.4-.067,4.493.028,8.988-.062,13.481-.026,1.3.348,1.575,1.6,1.569C1384.816,257.975,1396.139,258,1407.462,258Zm15.249-132.25c-.205-.476-.629-.544-.965-.728a16.218,16.218,0,0,1-8.269-18.6c.293-1.233-.053-1.419-1.167-1.413-6.887.037-13.775-.081-20.66.041-12.027.213-21.535,5.333-28.067,15.411-5.863,9.046-6.824,18.844-3.358,29.079.43,1.269.91,1.457,2.023.792a11.254,11.254,0,0,1,3.528-1.233c1.094-.227,2.7-.034,3.173-.686.576-.8.3-2.287.217-3.464-.1-1.309.274-1.75,1.664-1.716a64.8,64.8,0,0,0,14.28-.812,46.809,46.809,0,0,0,21.078-9.895,1.647,1.647,0,0,1,2.563.036c1.067.931,2.293,1.677,3.426,2.535.654.5,1.1.529,1.647-.222A45.62,45.62,0,0,1,1422.711,125.746Zm-13.89,55.762c-.251-.64-.453-1.155-.656-1.67a45.972,45.972,0,0,1,1.348-38c.257-.541,1.252-1.233.107-1.813-1.014-.515-1.66-1.942-3.332-.767a51.349,51.349,0,0,1-30.074,9.442c-1.257,0-1.6.276-1.589,1.57.066,8.591.043,17.182.027,25.774a29.524,29.524,0,0,0,.493,5.6c3.408,17.849,19.222,29.268,37.217,26.8a30.867,30.867,0,0,0,14.816-6.312,48.1,48.1,0,0,1-7.668-5.848c-.838-.834-1.254-.977-2.22.021-3.787,3.915-8.432,5.308-13.7,3.718-5.227-1.578-8.4-5.18-9.549-10.542-.424-1.975-.095-3.978-.285-5.951-.153-1.583.24-2.123,1.964-2.064C1400.032,181.607,1404.353,181.508,1408.82,181.508Zm42.2,21.854a40.977,40.977,0,1,0-40.837-41.21A41.06,41.06,0,0,0,1451.017,203.362Zm3.053-87.336c.025-.26.076-.386.04-.477a9.74,9.74,0,0,0-.489-1.088c-5.248-9.516-13.294-14.59-24.166-14.858a10.2,10.2,0,0,0-10.113,6.523c-1.887,4.271-1.083,8.251,1.945,11.738a8.544,8.544,0,0,0,10.656,2.263,34.882,34.882,0,0,1,3.8-1.5,4.656,4.656,0,0,0,2.5-1.934,12.05,12.05,0,0,0,1.962-5.217c.178-1.216-.568-2.925.389-3.535.94-.6,2.539-.1,3.839-.213,1.132-.1,1.276.413,1.3,1.385a20.886,20.886,0,0,1-1.1,7.243A57.209,57.209,0,0,1,1454.07,116.026Zm54.484,97.084a6.693,6.693,0,0,0-1.787-4.875c-5.843-5.9-11.731-11.751-17.579-17.644-.553-.557-.836-.511-1.293.083a44.78,44.78,0,0,1-8.419,8.417c-.571.435-.693.717-.113,1.292,5.937,5.885,11.79,11.855,17.8,17.668a6.211,6.211,0,0,0,7.305,1.046A6.762,6.762,0,0,0,1508.555,213.11Zm-111.843,5.262c-.141.4.24.915.7,1.468,3.072,3.653,6.156,7.3,9.141,11.018.827,1.032,1.184.718,1.839-.09,2.326-2.868,4.55-5.846,7.123-8.479,2.2-2.252,3.1-4.587,2.131-7.591a1.789,1.789,0,0,1-.079-.5c-.022-1.08-.494-1.215-1.5-.961a37.111,37.111,0,0,1-14.037.682c-1.5-.2-3.407-1.481-4.367-.478C1396.761,214.38,1397.022,216.44,1396.712,218.372Zm-27.519-53.157c0-3.293-.041-6.585.024-9.876.02-1.033-.325-1.215-1.264-1.11a10.964,10.964,0,0,0-.029,21.776c1.121.138,1.311-.238,1.291-1.255C1369.153,171.573,1369.193,168.394,1369.193,165.216Zm36.485,21.757c-1.814,0-3.63.042-5.443-.018-.883-.029-1.031.314-.942,1.095a8.328,8.328,0,0,0,6.084,6.823,8.18,8.18,0,0,0,8.6-3.029,1.4,1.4,0,0,0,.025-1.781c-1.273-2.333-2.93-3.713-5.779-3.116A12.687,12.687,0,0,1,1405.677,186.973Z" transform="translate(0)" fill="#030202"/>
      <path id="Trazado_651178" data-name="Trazado 651178" d="M1409.964,317.364c-11.323,0-22.646-.021-33.969.03-1.252.006-1.627-.264-1.6-1.569.09-4.493,0-8.988.062-13.481.017-1.137-.326-1.4-1.421-1.4-4.075.012-4.075-.029-4.075,4.006,0,3.7-.036,7.4.023,11.093.016,1.013-.2,1.363-1.3,1.347-4.608-.067-9.217-.021-13.826-.039-.543,0-1.336.324-1.3-.779.181-4.993-.541-10.037.5-14.977a22.149,22.149,0,0,1,20.042-17.639c6.907-.647,13.823-1.2,20.728-1.866a2.2,2.2,0,0,1,2.162.928c4.308,5.219,8.677,10.389,12.968,15.623.772.942,1.142,1.031,1.962.027,4.135-5.067,8.394-10.033,12.507-15.119a3.441,3.441,0,0,1,3.459-1.4c7.182.744,14.4,1.2,21.559,2.092a21.953,21.953,0,0,1,18.837,20.7c.14,3.749.014,7.508.06,11.262.01.845-.158,1.192-1.107,1.182-4.722-.048-9.445-.058-14.167.005-1.095.014-1.153-.46-1.147-1.316.031-4.55-.033-9.1.046-13.651.021-1.228-.346-1.492-1.516-1.479-3.983.043-3.983,0-3.983,3.93,0,3.641-.057,7.282.031,10.921.03,1.249-.259,1.61-1.567,1.6C1432.61,317.34,1421.287,317.364,1409.964,317.364Z" transform="translate(-2.502 -59.368)" fill="#bbda89"/>
      <path id="Trazado_651179" data-name="Trazado 651179" d="M1429.011,130.791a45.616,45.616,0,0,0-8.888,9.123c-.545.751-.994.718-1.647.222-1.133-.858-2.359-1.6-3.426-2.535a1.647,1.647,0,0,0-2.563-.036,46.809,46.809,0,0,1-21.078,9.895,64.8,64.8,0,0,1-14.28.812c-1.39-.034-1.762.407-1.664,1.716.088,1.177.359,2.667-.217,3.464-.471.651-2.079.458-3.173.686a11.254,11.254,0,0,0-3.528,1.233c-1.113.665-1.594.477-2.023-.792-3.466-10.236-2.5-20.033,3.358-29.079,6.532-10.078,16.04-15.2,28.067-15.411,6.885-.122,13.773,0,20.66-.041,1.115-.006,1.46.18,1.167,1.413a16.218,16.218,0,0,0,8.269,18.6C1428.382,130.247,1428.806,130.316,1429.011,130.791Z" transform="translate(-6.301 -5.045)" fill="#a97a4d"/>
      <path id="Trazado_651180" data-name="Trazado 651180" d="M1422.692,202.157c-4.468,0-8.788.1-13.1-.049-1.724-.059-2.117.48-1.964,2.064.19,1.973-.139,3.975.285,5.951,1.152,5.362,4.322,8.964,9.549,10.542,5.268,1.591,9.913.2,13.7-3.718.966-1,1.382-.855,2.22-.021a48.1,48.1,0,0,0,7.668,5.848,30.867,30.867,0,0,1-14.816,6.312c-18,2.471-33.809-8.947-37.217-26.8a29.544,29.544,0,0,1-.493-5.6c.016-8.591.038-17.183-.028-25.774-.01-1.295.332-1.568,1.59-1.57a51.349,51.349,0,0,0,30.074-9.442c1.672-1.175,2.318.252,3.332.767,1.144.58.149,1.273-.107,1.813a45.972,45.972,0,0,0-1.348,38C1422.24,201,1422.441,201.516,1422.692,202.157Zm-9.575-19.108a8.194,8.194,0,1,0-8.124,8.179A8.224,8.224,0,0,0,1413.118,183.049Z" transform="translate(-13.872 -20.649)" fill="#e9cfb5"/>
      <path id="Trazado_651181" data-name="Trazado 651181" d="M1481.3,215.986a40.977,40.977,0,1,1,41.134-40.746A41.051,41.051,0,0,1,1481.3,215.986Zm.173-5.464a35.512,35.512,0,1,0-35.545-35.445A35.584,35.584,0,0,0,1481.47,210.521Z" transform="translate(-30.279 -12.624)" fill="#f1d37d"/>
      <path id="Trazado_651182" data-name="Trazado 651182" d="M1488.11,118.586a57.207,57.207,0,0,0-9.446.33,20.889,20.889,0,0,0,1.1-7.243c-.02-.972-.164-1.482-1.3-1.385-1.3.112-2.9-.386-3.839.213-.957.61-.211,2.319-.389,3.535a12.051,12.051,0,0,1-1.962,5.217,4.655,4.655,0,0,1-2.5,1.934,34.861,34.861,0,0,0-3.8,1.5,8.544,8.544,0,0,1-10.657-2.264c-3.028-3.487-3.831-7.467-1.945-11.738a10.2,10.2,0,0,1,10.113-6.523c10.872.268,18.918,5.342,24.166,14.858a9.716,9.716,0,0,1,.488,1.088C1488.186,118.2,1488.136,118.326,1488.11,118.586Z" transform="translate(-34.04 -2.56)" fill="#a87a4d"/>
      <path id="Trazado_651183" data-name="Trazado 651183" d="M1570.584,257.478a6.762,6.762,0,0,1-4.09,5.987,6.211,6.211,0,0,1-7.305-1.046c-6.006-5.813-11.859-11.783-17.8-17.668-.58-.575-.458-.857.113-1.292a44.786,44.786,0,0,0,8.419-8.417c.456-.595.74-.64,1.293-.083,5.848,5.893,11.736,11.746,17.579,17.644A6.693,6.693,0,0,1,1570.584,257.478Z" transform="translate(-62.029 -44.367)" fill="#969ea7"/>
      <path id="Trazado_651184" data-name="Trazado 651184" d="M1420.762,273.287c.31-1.932.049-3.992.954-4.936.961-1,2.865.279,4.367.478a37.11,37.11,0,0,0,14.037-.682c1.009-.253,1.481-.119,1.5.961a1.794,1.794,0,0,0,.079.5c.965,3,.069,5.339-2.131,7.591-2.573,2.633-4.8,5.61-7.123,8.479-.656.808-1.012,1.121-1.839.09-2.985-3.722-6.069-7.365-9.141-11.018C1421,274.2,1420.621,273.687,1420.762,273.287Z" transform="translate(-24.051 -54.915)" fill="#e9cfb5"/>
      <path id="Trazado_651185" data-name="Trazado 651185" d="M1375.517,192.973c0,3.178-.04,6.357.023,9.535.02,1.017-.17,1.392-1.291,1.255a10.964,10.964,0,0,1,.029-21.776c.939-.105,1.284.077,1.264,1.11C1375.476,186.387,1375.517,189.68,1375.517,192.973Z" transform="translate(-6.325 -27.757)" fill="#e9cfb5"/>
      <path id="Trazado_651186" data-name="Trazado 651186" d="M1430.922,229.775a12.686,12.686,0,0,0,2.546-.027c2.849-.6,4.506.783,5.778,3.116a1.4,1.4,0,0,1-.025,1.781,8.18,8.18,0,0,1-8.6,3.029,8.328,8.328,0,0,1-6.084-6.823c-.09-.781.058-1.124.942-1.095C1427.292,229.817,1429.108,229.775,1430.922,229.775Z" transform="translate(-25.245 -42.802)" fill="#ec8672"/>
      <path id="Trazado_651187" data-name="Trazado 651187" d="M1416.917,190.151a8.194,8.194,0,1,1-8.093-8.206A8.232,8.232,0,0,1,1416.917,190.151Zm-8.119-2.74a2.727,2.727,0,1,0,2.651,2.758A2.751,2.751,0,0,0,1408.8,187.411Z" transform="translate(-17.672 -27.752)" fill="#030202"/>
      <path id="Trazado_651188" data-name="Trazado 651188" d="M1483.992,213.043a35.512,35.512,0,1,1,35.5-35.5A35.586,35.586,0,0,1,1483.992,213.043Zm27.609-24.151c-18.486,10.8-36.863,10.721-55.288.007,3.544,10.639,15.684,18.774,27.839,18.677C1498.306,207.464,1508.411,197.821,1511.6,188.892Zm-.082-22.766c-.918-7.991-14.07-17.812-25.434-18.58-15.165-1.026-26.543,9.228-29.668,18.556Q1484.066,150.046,1511.519,166.125Zm-27.479-2.25a13.657,13.657,0,1,0,13.585,13.771A13.692,13.692,0,0,0,1484.04,163.876Zm15.744,2.863c4.52,7.272,4.4,14.583-.251,22.036a36.923,36.923,0,0,0,13.02-8.195c1.973-1.978,1.982-4.136-.01-6.1a36.467,36.467,0,0,0-11.263-7.525C1500.822,166.754,1500.369,166.44,1499.783,166.739Zm-31.5,21.836c-4.585-7.384-4.538-14.62-.151-21.924a3.056,3.056,0,0,0-.76.007,36.057,36.057,0,0,0-12.276,8.122,3.736,3.736,0,0,0,.1,5.61,34.553,34.553,0,0,0,8.768,6.414A15.715,15.715,0,0,0,1468.287,188.575Z" transform="translate(-32.801 -15.146)" fill="#030302"/>
      <path id="Trazado_651189" data-name="Trazado 651189" d="M1411.32,189.934a2.728,2.728,0,1,1-2.8,2.609A2.747,2.747,0,0,1,1411.32,189.934Z" transform="translate(-20.194 -30.274)" fill="#7e8892"/>
      <path id="Trazado_651190" data-name="Trazado 651190" d="M1515.231,210.521c-3.19,8.929-13.3,18.573-27.449,18.684-12.155.1-24.3-8.039-27.84-18.677C1478.368,221.242,1496.745,221.316,1515.231,210.521Z" transform="translate(-36.431 -36.775)" fill="#e3e6e9"/>
      <path id="Trazado_651191" data-name="Trazado 651191" d="M1515.2,168.642q-27.421-16.1-55.1-.024c3.125-9.328,14.5-19.583,29.668-18.556C1501.126,150.831,1514.279,160.651,1515.2,168.642Z" transform="translate(-36.479 -17.662)" fill="#e3e6e9"/>
      <path id="Trazado_651192" data-name="Trazado 651192" d="M1494.128,173.961a13.656,13.656,0,1,1-13.732,13.623A13.69,13.69,0,0,1,1494.128,173.961Zm8.119,13.691a8.192,8.192,0,1,0-8.144,8.156A8.227,8.227,0,0,0,1502.246,187.652Z" transform="translate(-42.889 -25.231)" fill="#81d0eb"/>
      <path id="Trazado_651193" data-name="Trazado 651193" d="M1523.357,178.088c.585-.3,1.039.015,1.5.213a36.471,36.471,0,0,1,11.263,7.525c1.992,1.967,1.983,4.124.01,6.1a36.925,36.925,0,0,1-13.02,8.195C1527.76,192.671,1527.877,185.36,1523.357,178.088Z" transform="translate(-56.375 -26.495)" fill="#c9cdd4"/>
      <path id="Trazado_651194" data-name="Trazado 651194" d="M1470.8,199.932a15.718,15.718,0,0,1-4.316-1.771,34.56,34.56,0,0,1-8.768-6.414,3.736,3.736,0,0,1-.1-5.61,36.057,36.057,0,0,1,12.276-8.122,3.055,3.055,0,0,1,.76-.007C1466.257,185.313,1466.21,192.549,1470.8,199.932Z" transform="translate(-35.309 -26.503)" fill="#c9cdd4"/>
      <path id="Trazado_651195" data-name="Trazado 651195" d="M1504.768,190.173a8.192,8.192,0,1,1-8.069-8.227A8.232,8.232,0,0,1,1504.768,190.173Zm-8.147,2.691a2.727,2.727,0,1,0-2.771-2.641A2.754,2.754,0,0,0,1496.621,192.865Z" transform="translate(-45.412 -27.752)" fill="#010203"/>
      <path id="Trazado_651196" data-name="Trazado 651196" d="M1499.143,195.386a2.727,2.727,0,1,1,2.682-2.729A2.755,2.755,0,0,1,1499.143,195.386Z" transform="translate(-47.934 -30.274)" fill="#68b5d9"/>
    </g>
  </g>
</svg>
