<svg xmlns="http://www.w3.org/2000/svg" width="85" height="85" viewBox="0 0 85 85">
  <g id="Grupo_989410" data-name="Grupo 989410" transform="translate(-180 -6099)">
    <rect id="Rectángulo_34178" data-name="Rectángulo 34178" width="85" height="85" transform="translate(180 6099)" fill="none"/>
    <g id="Grupo_989522" data-name="Grupo 989522" transform="translate(-129.342 6552.317)">
      <path id="Trazado_647528" data-name="Trazado 647528" d="M344.423-356.878c0-3.078.014-6.059-.013-9.04,0-.527.086-.7.664-.695,2.387.039,4.774.033,7.161,0,.531-.007.695.092.692.666-.025,5.924-.008,11.848-.028,17.772,0,.533.094.722.668.69.992-.055,1.99-.043,2.983,0,.482.019.623-.091.62-.6-.025-3.824,0-7.648-.028-11.472,0-.541.111-.694.673-.685,2.409.036,4.819.03,7.228,0,.488-.006.618.1.615.607-.024,3.846,0,7.692-.026,11.538,0,.492.108.635.609.613,1.015-.044,2.034-.044,3.049,0,.5.022.611-.119.61-.612-.018-7.692,0-15.384-.027-23.077,0-.606.153-.752.749-.743,2.387.036,4.775.032,7.162,0,.505-.007.607.13.605.616-.016,8.068-.006,16.136-.025,24.2a.846.846,0,0,0,.671.975c1.273.427,2.522.925,3.776,1.407a2.645,2.645,0,0,1,1.929,2.561,2.656,2.656,0,0,1-1.945,2.484c-2.226.84-4.456,1.67-6.679,2.517a4.041,4.041,0,0,1-1.478.271c-7.272-.01-14.545,0-21.817-.02a.887.887,0,0,0-1.027.686,16.979,16.979,0,0,1-16.974,10.968,17.066,17.066,0,0,1-15.562-13.724,16.967,16.967,0,0,1,11.883-19.477c.464-.139.561-.324.559-.766-.017-4.023,0-8.046-.024-12.069,0-.542.163-.636.657-.631,2.409.025,4.819.031,7.228,0,.546-.008.631.17.629.659-.019,4,0,8-.026,12a.718.718,0,0,0,.645.847A15.423,15.423,0,0,1,344.423-356.878ZM323.268-341.14v.009h-1.193c-.963,0-.963,0-.847.941,0,.022.005.044.008.066A14.825,14.825,0,0,0,342.091-328.7a14.482,14.482,0,0,0,8.592-11.9c.061-.457-.075-.554-.5-.542-.994.028-1.989-.014-2.983.019-.485.016-.717-.07-.663-.629a8.555,8.555,0,0,0-.15-2.309A10.65,10.65,0,0,0,335.3-352.79a10.688,10.688,0,0,0-9.959,9.8c-.049.618.285,1.473-.192,1.791C324.7-340.908,323.908-341.14,323.268-341.14Zm52.988-6.047v-.5q0-10.836.009-21.673c0-.375-.139-.427-.46-.422-1.1.017-2.21.032-3.314-.006-.449-.015-.486.165-.485.534q.014,10.6-.005,21.209c0,.489.159.549.594.564C373.794-347.442,375.019-347.722,376.255-347.187Zm-25.465-3.449q0-6.749.007-13.5c0-.4-.23-.34-.468-.34-1.1,0-2.208.015-3.312-.008-.369-.008-.482.09-.48.471.016,2.738.01,5.476.006,8.214a.648.648,0,0,0,.233.573A20.417,20.417,0,0,1,350.79-350.636Zm-12.733-13.777c0-1.632-.011-3.265.008-4.9,0-.369-.092-.487-.471-.478-1.1.025-2.206.023-3.308,0-.366-.008-.483.086-.481.469q.023,4.9,0,9.793c0,.417.1.535.513.469a10.309,10.309,0,0,1,3.229,0c.4.062.53-.023.523-.458C338.04-361.148,338.057-362.78,338.057-364.412Zm25.465,11.663c0-1.612-.01-3.225.008-4.837,0-.371-.039-.548-.486-.533-1.1.037-2.209.03-3.312,0-.4-.01-.461.138-.46.491q.018,4.837,0,9.674c0,.393.13.47.488.462,1.082-.021,2.165-.034,3.246,0,.462.016.533-.153.527-.56C363.51-349.613,363.522-351.181,363.522-352.749Zm2.072,13.74h7.084c1.46,0,1.426,0,1.471-1.473.018-.592-.194-.662-.708-.659-4.921.019-9.843.011-14.764.011-1.535,0-1.505,0-1.537,1.539-.011.538.186.595.641.591C360.386-339.02,362.99-339.009,365.594-339.009Zm.081-6.365h-7.02c-1.505,0-1.478,0-1.513,1.493-.013.536.154.642.657.64,4.923-.019,9.845-.011,14.768-.011,1.581,0,1.56,0,1.578-1.559.006-.476-.136-.577-.589-.573C370.93-345.364,368.3-345.375,365.676-345.375Zm10.579,5.9c2.064-.773,4.019-1.5,5.971-2.238a.5.5,0,0,0,.386-.481.51.51,0,0,0-.4-.474c-1.873-.705-3.75-1.4-5.621-2.112-.284-.108-.342-.014-.341.25C376.258-342.882,376.255-341.229,376.255-339.479Zm-21.22-2.659c0-.926-.01-1.853.006-2.779.006-.317-.042-.49-.422-.467a15.337,15.337,0,0,1-1.587,0c-.322-.014-.436.075-.374.408a15.271,15.271,0,0,1,0,5.589c-.053.289.035.392.334.382.528-.019,1.06-.03,1.587,0,.4.025.474-.136.465-.492C355.02-340.374,355.035-341.256,355.035-342.138Zm-17.524-14.807c-.468-.17-.533.123-.525.609.022,1.418,0,1.437,1.377,1.653.49.077,1.06.514,1.431.215s.451-.923.66-1.4a.437.437,0,0,1,.023-.061c.164-.264.068-.376-.215-.458A16.3,16.3,0,0,0,337.511-356.945Zm-2.636.994a2.55,2.55,0,0,1,0-.4c.083-.523-.1-.666-.636-.59a18.207,18.207,0,0,0-2.642.554c-.171.051-.371.075-.256.338a5.122,5.122,0,0,0,.746,1.587c.281.284.848-.149,1.3-.2.174-.02.345-.069.518-.1C334.875-354.927,334.875-354.927,334.875-355.951Zm-12.7,12.7c1.025,0,1.025,0,1.2-.971.023-.13.059-.257.084-.387.3-1.548.295-1.539-1.182-2.1-.31-.119-.471-.14-.546.247-.138.711-.342,1.409-.472,2.121C321.051-343.255,321.067-343.252,322.171-343.252Zm27.5,0c1.14,0,1.142,0,.945-1.132-.06-.346-.13-.691-.206-1.034-.327-1.491-.322-1.473-1.758-.9-.449.178-.627.349-.441.855a5.028,5.028,0,0,1,.306,1.479c.027.584.224.848.823.739A1.867,1.867,0,0,1,349.671-343.252ZM349.137-349c-.291-.477-.592-1.016-.936-1.524-1.029-1.519-1.035-1.514-2.256-.171a.88.88,0,0,1-.091.1c-.176.143-.157.282-.019.447a11.4,11.4,0,0,1,1.283,1.914c.085.158.179.2.369.119.48-.216.975-.4,1.461-.6C349.038-348.76,349.159-348.794,349.137-349Zm-6.532-6.431c-.089.181-.185.352-.259.532-.185.446-.565.941-.478,1.329.073.322.684.548,1.085.765.446.242.776.912,1.28.742.45-.152.752-.712,1.148-1.059.268-.234.188-.358-.045-.544A14.955,14.955,0,0,0,342.605-355.434ZM322.7-348.862c.184.091.355.187.535.262.445.185.942.565,1.329.477.322-.074.539-.689.765-1.086.247-.432.881-.787.76-1.228s-.7-.755-1.039-1.156c-.27-.32-.417-.227-.634.053A15.163,15.163,0,0,0,322.7-348.862Zm7.351-4.782c-.189-.451-.394-.889-.555-1.344-.126-.355-.245-.514-.628-.244-.519.367-1.09.659-1.612,1.022-1.078.75-1.046.737-.141,1.712.431.464.73.621,1.255.115a9.4,9.4,0,0,1,1.422-.948C329.9-353.407,330.1-353.432,330.047-353.644Z" transform="translate(0 -52.719)" fill="#010101"/>
      <path id="Trazado_647529" data-name="Trazado 647529" d="M374.221-443.721a8.534,8.534,0,0,1,8.434,7.837,8.516,8.516,0,0,1-7.2,9.038,8.213,8.213,0,0,1-5.19-.883c-.376-.2-.574-.216-.856.146q-2.08,2.663-4.219,5.279a.665.665,0,0,0-.071.909,4.154,4.154,0,0,1-.649,5.061,4.224,4.224,0,0,1-5,.761,4.131,4.131,0,0,1-2.13-4.629.629.629,0,0,0-.307-.8c-1.113-.716-2.219-1.444-3.307-2.2-.3-.207-.454-.171-.713.063a6.251,6.251,0,0,1-7.01,1.078,6.3,6.3,0,0,1-3.618-6.174c.033-.5-.172-.6-.55-.769a1.405,1.405,0,0,0-1.988.5,5.091,5.091,0,0,1-7.291.465.563.563,0,0,0-.83-.045c-.638.435-1.286.857-1.955,1.24-.39.223-.468.43-.343.888a5.283,5.283,0,0,1-5.025,6.639,5.3,5.3,0,0,1-5.144-3.732,5.277,5.277,0,0,1,2.072-5.95,5.18,5.18,0,0,1,6.276.262.774.774,0,0,0,1.16.04,19.389,19.389,0,0,1,1.839-1.176.542.542,0,0,0,.311-.731,4.988,4.988,0,0,1,1.723-5.528,4.95,4.95,0,0,1,5.641-.676,5.068,5.068,0,0,1,2.993,4.966c-.006.37.113.5.432.589a4.536,4.536,0,0,0,1.256.371c.466-.024.547-.617.818-.943a6.379,6.379,0,0,1,8.025-1.545,6.315,6.315,0,0,1,2.9,7.676.542.542,0,0,0,.26.784c1.1.7,2.177,1.427,3.251,2.162a.563.563,0,0,0,.792.012,3.9,3.9,0,0,1,3.759-.592.544.544,0,0,0,.718-.205q2.155-2.731,4.348-5.43c.224-.276.215-.427-.015-.7a8.428,8.428,0,0,1,2.235-12.968A8.184,8.184,0,0,1,374.221-443.721Zm6.327,8.461a6.383,6.383,0,0,0-6.393-6.335,6.386,6.386,0,0,0-6.336,6.392,6.386,6.386,0,0,0,6.393,6.337A6.387,6.387,0,0,0,380.548-435.26Zm-27.588,7.449a4.257,4.257,0,0,0-4.266-4.236,4.257,4.257,0,0,0-4.219,4.216,4.26,4.26,0,0,0,4.232,4.27A4.257,4.257,0,0,0,352.961-427.811Zm-16.969-7.418a3.2,3.2,0,0,0-3.187,3.142,3.2,3.2,0,0,0,3.175,3.221,3.2,3.2,0,0,0,3.188-3.143A3.2,3.2,0,0,0,335.992-435.229Zm-8.5,10.639a3.2,3.2,0,0,0-3.117-3.212,3.2,3.2,0,0,0-3.245,3.15,3.2,3.2,0,0,0,3.183,3.213A3.2,3.2,0,0,0,327.5-424.59Zm33.943,3.153a2.134,2.134,0,0,0-2.109,2.1,2.139,2.139,0,0,0,2.132,2.143,2.142,2.142,0,0,0,2.11-2.1A2.138,2.138,0,0,0,361.439-421.437Z" transform="translate(-0.051)" fill="#040303"/>
      <path id="Trazado_647530" data-name="Trazado 647530" d="M329.433-288.346c.641,0,1.437.233,1.88-.063.477-.318.142-1.173.192-1.791a10.688,10.688,0,0,1,9.959-9.8,10.65,10.65,0,0,1,11.086,8.731,8.555,8.555,0,0,1,.15,2.309c-.054.559.178.645.663.629.993-.033,1.989.009,2.983-.019.428-.012.564.085.5.542a14.482,14.482,0,0,1-8.592,11.9A14.825,14.825,0,0,1,327.4-287.33c0-.022-.006-.044-.008-.066-.116-.941-.116-.941.847-.941h1.193Zm9.484-.175c0,1.642-.007,2.989.005,4.336a1.35,1.35,0,0,1-.268.849,4.168,4.168,0,0,0,.612,5.577,4.226,4.226,0,0,0,5.675,0,4.17,4.17,0,0,0,.6-5.58,1.371,1.371,0,0,1-.263-.85c.007-2.562.029-5.125-.005-7.686a8.4,8.4,0,0,0-2.935-6.222c-.193-.179-.3-.165-.482.007a8.58,8.58,0,0,0-2.823,5.038A41.587,41.587,0,0,0,338.917-288.521Z" transform="translate(-6.166 -105.514)" fill="#83d2ee"/>
      <path id="Trazado_647531" data-name="Trazado 647531" d="M522.814-341.318c-1.236-.535-2.461-.255-3.662-.3-.435-.015-.6-.075-.594-.564q.027-10.6.005-21.209c0-.369.036-.549.485-.534,1.1.037,2.209.023,3.314.006.321,0,.461.047.46.422q-.017,10.836-.008,21.673Z" transform="translate(-146.559 -58.589)" fill="#fbe9ae"/>
      <path id="Trazado_647532" data-name="Trazado 647532" d="M427.014-330.1A20.417,20.417,0,0,0,423-334.689a.648.648,0,0,1-.233-.573c0-2.738.01-5.476-.006-8.214,0-.38.111-.478.48-.471,1.1.023,2.208.009,3.312.008.239,0,.469-.059.468.34Q427-336.849,427.014-330.1Z" transform="translate(-76.225 -73.255)" fill="#fae9ae"/>
      <path id="Trazado_647533" data-name="Trazado 647533" d="M379.107-358.532c0,1.632-.017,3.265.011,4.9.007.435-.126.521-.523.458a10.309,10.309,0,0,0-3.229,0c-.415.066-.515-.052-.513-.469q.027-4.9,0-9.793c0-.382.115-.476.481-.469q1.653.034,3.308,0c.379-.008.476.109.472.478C379.1-361.8,379.107-360.165,379.107-358.532Z" transform="translate(-41.05 -58.599)" fill="#fbe9ae"/>
      <path id="Trazado_647534" data-name="Trazado 647534" d="M474.918-314.64c0,1.568-.012,3.136.009,4.7.006.406-.065.576-.527.56-1.081-.038-2.164-.026-3.246,0-.358.007-.49-.07-.488-.462q.024-4.837,0-9.674c0-.353.061-.5.46-.491,1.1.028,2.209.035,3.312,0,.448-.015.49.162.486.533C474.908-317.864,474.918-316.252,474.918-314.64Z" transform="translate(-111.395 -90.829)" fill="#fbe9ae"/>
      <path id="Trazado_647535" data-name="Trazado 647535" d="M471.109-254c-2.6,0-5.208-.01-7.812.01-.455,0-.652-.053-.641-.591.031-1.539,0-1.54,1.537-1.54,4.921,0,9.843.008,14.764-.011.514,0,.726.067.708.659-.045,1.472-.011,1.473-1.471,1.473Z" transform="translate(-105.515 -137.728)" fill="#ee8774"/>
      <path id="Trazado_647536" data-name="Trazado 647536" d="M471.193-272.088c2.627,0,5.254.011,7.881-.011.454,0,.595.1.589.573-.019,1.559,0,1.559-1.578,1.559-4.923,0-9.846-.007-14.768.011-.5,0-.669-.1-.657-.64.035-1.492.008-1.493,1.513-1.493Z" transform="translate(-105.518 -126.006)" fill="#bbda89"/>
      <path id="Trazado_647537" data-name="Trazado 647537" d="M534.563-264.653c0-1.75,0-3.4,0-5.054,0-.264.057-.358.341-.25,1.871.71,3.748,1.407,5.621,2.112a.51.51,0,0,1,.4.474.5.5,0,0,1-.386.481C538.581-266.155,536.627-265.426,534.563-264.653Z" transform="translate(-158.307 -127.546)" fill="#a8afb9"/>
      <path id="Trazado_647538" data-name="Trazado 647538" d="M448.122-268.851c0,.882-.015,1.765.007,2.646.009.356-.069.517-.465.492-.527-.033-1.059-.022-1.587,0-.3.011-.387-.093-.334-.382a15.271,15.271,0,0,0,0-5.589c-.062-.333.052-.422.374-.408a15.346,15.346,0,0,0,1.587,0c.38-.023.427.15.422.467C448.111-270.7,448.122-269.778,448.122-268.851Z" transform="translate(-93.087 -126.006)" fill="#a8afb9"/>
      <path id="Trazado_647539" data-name="Trazado 647539" d="M387.35-315.725a16.3,16.3,0,0,1,2.751.553c.283.082.378.194.214.458a.44.44,0,0,0-.023.061c-.209.482-.3,1.113-.66,1.405s-.941-.138-1.431-.215c-1.375-.216-1.355-.235-1.377-1.653C386.818-315.6,386.882-315.894,387.35-315.725Z" transform="translate(-49.839 -93.94)" fill="#b7d687"/>
      <path id="Trazado_647540" data-name="Trazado 647540" d="M369.038-314.625c0,1.024,0,1.024-.968,1.193-.173.03-.344.079-.518.1-.451.052-1.017.485-1.3.2a5.121,5.121,0,0,1-.746-1.587c-.115-.263.085-.287.256-.338a18.211,18.211,0,0,1,2.642-.554c.533-.076.719.067.636.59A2.554,2.554,0,0,0,369.038-314.625Z" transform="translate(-34.163 -94.045)" fill="#b7d687"/>
      <path id="Trazado_647541" data-name="Trazado 647541" d="M328.274-273.845c-1.1,0-1.12,0-.921-1.094.13-.712.333-1.41.471-2.121.076-.387.237-.365.547-.247,1.477.566,1.48.557,1.182,2.1-.025.129-.062.257-.084.387C329.3-273.845,329.3-273.845,328.274-273.845Z" transform="translate(-6.103 -122.127)" fill="#b7d687"/>
      <path id="Trazado_647542" data-name="Trazado 647542" d="M430.319-273.54a1.87,1.87,0,0,0-.33,0c-.6.11-.8-.154-.823-.739a5.028,5.028,0,0,0-.306-1.479c-.186-.506-.009-.678.441-.855,1.436-.568,1.43-.586,1.758.9.075.343.146.688.206,1.034C431.461-273.54,431.459-273.54,430.319-273.54Z" transform="translate(-80.648 -122.432)" fill="#b7d687"/>
      <path id="Trazado_647543" data-name="Trazado 647543" d="M423.124-293.124c.022.209-.1.244-.188.281-.486.2-.982.384-1.461.6-.19.085-.284.039-.369-.119a11.4,11.4,0,0,0-1.283-1.914c-.138-.165-.157-.3.019-.447a.888.888,0,0,0,.091-.1c1.221-1.343,1.227-1.348,2.256.171C422.533-294.139,422.833-293.6,423.124-293.124Z" transform="translate(-73.987 -108.599)" fill="#b7d687"/>
      <path id="Trazado_647544" data-name="Trazado 647544" d="M405.9-309.906a14.951,14.951,0,0,1,2.731,1.764c.233.186.313.31.045.544-.4.347-.7.907-1.148,1.059-.5.171-.834-.5-1.28-.742-.4-.217-1.012-.443-1.085-.765-.087-.388.292-.884.478-1.329C405.713-309.554,405.808-309.725,405.9-309.906Z" transform="translate(-63.292 -98.248)" fill="#b7d687"/>
      <path id="Trazado_647545" data-name="Trazado 647545" d="M333.064-293.281a15.164,15.164,0,0,1,1.716-2.678c.217-.28.364-.373.634-.053.339.4.917.711,1.039,1.156s-.514.8-.76,1.228c-.226.4-.443,1.013-.765,1.086-.387.088-.883-.292-1.329-.477C333.419-293.093,333.248-293.19,333.064-293.281Z" transform="translate(-10.368 -108.301)" fill="#b7d687"/>
      <path id="Trazado_647546" data-name="Trazado 647546" d="M350.75-307.93c.049.212-.142.237-.259.314a9.4,9.4,0,0,0-1.422.948c-.525.507-.824.35-1.255-.115-.905-.975-.938-.962.141-1.712.522-.363,1.093-.655,1.612-1.022.383-.27.5-.112.628.244C350.355-308.819,350.561-308.38,350.75-307.93Z" transform="translate(-20.703 -98.433)" fill="#b7d687"/>
      <path id="Trazado_647547" data-name="Trazado 647547" d="M515.369-429.388a6.387,6.387,0,0,1-6.336,6.394,6.386,6.386,0,0,1-6.393-6.337,6.386,6.386,0,0,1,6.336-6.392A6.383,6.383,0,0,1,515.369-429.388Zm-2.122.023a4.252,4.252,0,0,0-4.266-4.236,4.256,4.256,0,0,0-4.22,4.215,4.259,4.259,0,0,0,4.232,4.271A4.257,4.257,0,0,0,513.247-429.365Z" transform="translate(-134.872 -5.872)" fill="#f2c44d"/>
      <path id="Trazado_647548" data-name="Trazado 647548" d="M423.3-395.561a4.257,4.257,0,0,1-4.253,4.25,4.26,4.26,0,0,1-4.232-4.27,4.257,4.257,0,0,1,4.219-4.216A4.257,4.257,0,0,1,423.3-395.561Z" transform="translate(-70.391 -32.249)" fill="#f3d47d"/>
      <path id="Trazado_647549" data-name="Trazado 647549" d="M374.09-411.771a3.2,3.2,0,0,1,3.176,3.22,3.2,3.2,0,0,1-3.188,3.143,3.2,3.2,0,0,1-3.175-3.221A3.2,3.2,0,0,1,374.09-411.771Z" transform="translate(-38.149 -23.458)" fill="#f3d47d"/>
      <path id="Trazado_647550" data-name="Trazado 647550" d="M333.353-380.617a3.2,3.2,0,0,1-3.18,3.151,3.2,3.2,0,0,1-3.183-3.213,3.2,3.2,0,0,1,3.245-3.15A3.2,3.2,0,0,1,333.353-380.617Z" transform="translate(-5.909 -43.973)" fill="#f3d47d"/>
      <path id="Trazado_647551" data-name="Trazado 647551" d="M472.811-359.88a2.138,2.138,0,0,1,2.133,2.142,2.142,2.142,0,0,1-2.11,2.1,2.139,2.139,0,0,1-2.132-2.143A2.134,2.134,0,0,1,472.811-359.88Z" transform="translate(-111.422 -61.556)" fill="#f0d27c"/>
      <path id="Trazado_647552" data-name="Trazado 647552" d="M367.969-283.6a41.6,41.6,0,0,1,.118-4.534,8.58,8.58,0,0,1,2.823-5.038c.184-.172.288-.187.482-.007a8.4,8.4,0,0,1,2.935,6.222c.034,2.562.012,5.124.005,7.686a1.37,1.37,0,0,0,.263.85,4.17,4.17,0,0,1-.6,5.58,4.226,4.226,0,0,1-5.675,0,4.168,4.168,0,0,1-.612-5.577,1.35,1.35,0,0,0,.268-.849C367.962-280.611,367.969-281.958,367.969-283.6Zm3.178-6.62a5.942,5.942,0,0,0-1.05,3.318c-.015,2.1,0,4.191-.01,6.287,0,.359-.005.6.485.44a1.942,1.942,0,0,1,1.177,0c.423.135.471-.029.469-.394-.014-2.14.009-4.28-.017-6.419A5.724,5.724,0,0,0,371.147-290.22Zm.026,16.353a2.143,2.143,0,0,0,2.1-2.11,2.139,2.139,0,0,0-2.143-2.133,2.134,2.134,0,0,0-2.1,2.175A2.142,2.142,0,0,0,371.173-273.867Z" transform="translate(-35.217 -110.434)" fill="#010202"/>
      <path id="Trazado_647553" data-name="Trazado 647553" d="M519.109-423.5a4.257,4.257,0,0,1-4.254,4.25,4.259,4.259,0,0,1-4.232-4.271,4.256,4.256,0,0,1,4.22-4.215A4.252,4.252,0,0,1,519.109-423.5Zm-2.122.038a2.141,2.141,0,0,0-2.057-2.152,2.132,2.132,0,0,0-2.185,2.089,2.139,2.139,0,0,0,2.122,2.154A2.143,2.143,0,0,0,516.988-423.467Z" transform="translate(-140.733 -11.733)" fill="#030301"/>
      <path id="Trazado_647554" data-name="Trazado 647554" d="M379.926-281.691a5.725,5.725,0,0,1,1.054,3.235c.026,2.14,0,4.28.017,6.419,0,.365-.046.528-.469.394a1.942,1.942,0,0,0-1.177,0c-.49.161-.487-.081-.485-.44.01-2.1,0-4.192.01-6.287A5.942,5.942,0,0,1,379.926-281.691Z" transform="translate(-43.995 -118.963)" fill="#ee8774"/>
      <path id="Trazado_647555" data-name="Trazado 647555" d="M377.032-231.889a2.142,2.142,0,0,1-2.142-2.068,2.134,2.134,0,0,1,2.1-2.175A2.139,2.139,0,0,1,379.132-234,2.143,2.143,0,0,1,377.032-231.889Z" transform="translate(-41.076 -152.413)" fill="#e98571"/>
      <path id="Trazado_647556" data-name="Trazado 647556" d="M522.847-417.608a2.143,2.143,0,0,1-2.12,2.091,2.139,2.139,0,0,1-2.122-2.154,2.132,2.132,0,0,1,2.185-2.089A2.141,2.141,0,0,1,522.847-417.608Z" transform="translate(-146.593 -17.591)" fill="#f0d27c"/>
    </g>
  </g>
</svg>
