<svg xmlns="http://www.w3.org/2000/svg" width="71.193" height="71.175" viewBox="0 0 71.193 71.175">
  <g id="Grupo_991941" data-name="Grupo 991941" transform="translate(-958.868 -128.291)">
    <path id="Trazado_651295" data-name="Trazado 651295" d="M1033.738,145.481c.061-1.183.061-1.183,1.285-1.183q5.708,0,11.417,0a5.865,5.865,0,0,1,6.06,4.341c.147.441.395.4.709.4q4.93,0,9.86,0a5.94,5.94,0,0,1,6.28,6.262q.007,6.782,0,13.564a5.947,5.947,0,0,1-6.278,6.266c-1.746,0-3.492,0-5.432,0,.966,1.251,1.8,2.393,2.7,3.486a13.2,13.2,0,0,1,3.083,8.663q-.016,10.9,0,21.792c0,1.268-.367,1.64-1.618,1.64q-20.387,0-40.773,0a5.936,5.936,0,0,1-6.243-6.225c0-1.606.035-3.213-.018-4.818-.022-.67.157-.941.831-.821a1.612,1.612,0,0,0,.368-.019h8.157c.271.008.542.023.814.023,6.323,0,12.645-.023,18.968.025,1.027.008,1.759-.133,2-1.251a1.386,1.386,0,0,1,.283-.516c.263-.34.2-.58-.109-.879-1.361-1.328-2.7-2.682-4.04-4.027-.907-.909-1.846-1.789-2.711-2.736a5.352,5.352,0,0,1,2.282-8.768,5.222,5.222,0,0,1,5.518,1.374c1.049,1.027,2.07,2.082,3.21,3.232v-4.669c-.106.023-.188.017-.238.054a1.231,1.231,0,0,1-1.628.119,1.35,1.35,0,0,1-.379-1.542c.253-1.13.4-2.287.695-3.4.192-.717-.075-.746-.653-.74-2.568.025-5.138-.042-7.705.026a6.549,6.549,0,0,1-5.449-2.3,7.353,7.353,0,0,1-1.231-4.469c.047-4.118.029-8.237.007-12.355a9.889,9.889,0,0,1,.456-3.418,6.27,6.27,0,0,1,6.32-3.581c1.6.064,3.2,0,4.8-.013h4.722c-.435-1.591-1.88-2.423-3.981-2.322l-11.06-.023C1033.8,146.669,1033.8,146.671,1033.738,145.481Zm-10.8,55.772c-1.778-.008-3.557-.007-5.336-.032-.36-.005-.46.105-.453.458.023,1.111-.025,2.225.023,3.335a3.444,3.444,0,0,0,2.934,3.233,1.7,1.7,0,0,0,.871.094q12.113.006,24.227,0h.648a11.562,11.562,0,0,1-1.227-6.482c.052-.524-.042-.65-.573-.646-3.358.025-6.717.01-10.076.013Q1028.456,201.236,1022.937,201.253Zm41.96-49.491a3.556,3.556,0,0,0-1.72-.35q-11.629.006-23.258,0a3.564,3.564,0,0,0-3.783,3.813q-.006,5.406,0,10.813v.648a1.281,1.281,0,0,0,.7-.383q3.262-2.435,6.517-4.882c.95-.713,1.221-.716,2.16-.021l5.588,4.139c.8.617,1.618,1.21,2.389,1.86a.705.705,0,0,0,1.018.006c1.855-1.266,3.743-2.483,5.594-3.754a1.468,1.468,0,0,1,1.894,0c.9.644,1.844,1.237,2.769,1.851.709.471,1.419.94,2.2,1.46,0-4.173.041-8.221-.023-12.267A3.212,3.212,0,0,0,1064.9,151.762Zm-9.332,41.951c-.31-.025-.446-.291-.632-.476q-4.721-4.708-9.431-9.43a3.005,3.005,0,1,0-4.313,4.18c2.464,2.5,4.958,4.961,7.434,7.444a1.277,1.277,0,0,1,.2,1.958c-.2.31-.424.609-.6.931a9.151,9.151,0,0,0,.033,9.5.925.925,0,0,0,.934.531q5.631-.028,11.262,0c.483,0,.61-.123.609-.608-.017-6.914-.009-13.829-.014-20.743a10.187,10.187,0,0,0-1.087-4.639c-1.033-2.043-2.67-3.661-3.982-5.508-.207-.291-.366-.1-.537.026-.744.528-1.476,1.076-2.236,1.58a.944.944,0,0,0-.465.9q.027,3.889,0,7.779a1.213,1.213,0,0,0,.423.956c1.182,1.158,2.347,2.333,3.511,3.508.167.169.41.294.421.581Zm-4.593-16.689a1.235,1.235,0,0,0,.676-.364c1.611-1.142,3.225-2.279,4.818-3.445a2.263,2.263,0,0,1,1.439-.46q2.778.032,5.557,0a3.559,3.559,0,0,0,3.264-2.272.713.713,0,0,0-.313-1.036q-2.429-1.561-4.805-3.2a.821.821,0,0,0-1.1-.008c-1.851,1.27-3.73,2.5-5.6,3.74-.876.581-1.151.573-1.99-.056q-4-3-7.989-6.011a.647.647,0,0,0-.944-.01q-3.622,2.761-7.29,5.462a.808.808,0,0,0-.3,1.125,3.546,3.546,0,0,0,3.41,2.273c3.433.008,6.865,0,10.3,0,1.145,0,1.6.583,1.374,1.713C1051.3,175.32,1051.14,176.163,1050.973,177.023Z" transform="translate(-39.292 -11.251)" fill="#010101"/>
    <path id="Trazado_651296" data-name="Trazado 651296" d="M1037.82,240.428a6.549,6.549,0,0,0,5.449,2.3c2.567-.068,5.137,0,7.705-.026.578-.006.845.023.653.74-.3,1.117-.442,2.274-.695,3.4a1.35,1.35,0,0,0,.379,1.542,1.231,1.231,0,0,0,1.628-.119c.05-.037.132-.032.238-.054v4.669c-1.14-1.15-2.161-2.205-3.21-3.232a5.222,5.222,0,0,0-5.518-1.374,5.352,5.352,0,0,0-2.282,8.768c.865.947,1.8,1.827,2.711,2.736,1.343,1.346,2.679,2.7,4.04,4.027.307.3.372.539.109.879a1.388,1.388,0,0,0-.283.516c-.24,1.118-.972,1.259-2,1.251-6.322-.047-12.645-.023-18.967-.025-.271,0-.542-.015-.814-.023a1.352,1.352,0,0,1,.032-.291c.291-.869.293-.869-.65-.87l-7.511,0q-.015-.581-.03-1.161,3.408-.011,6.815-.022a5.948,5.948,0,0,0,6.238-6.235q.009-3.629.018-7.258c.446.067.523.476.705.778.108.178.082.49.364.482.238-.007.224-.287.3-.46,1.088-2.528,2.2-5.047,3.254-7.587A24.945,24.945,0,0,0,1037.82,240.428Z" transform="translate(-42.134 -78.826)" fill="#4785c6"/>
    <path id="Trazado_651297" data-name="Trazado 651297" d="M976.707,159.822q-3.659-2.64-7.315-5.283a1.255,1.255,0,0,0-.778-.143,34.535,34.535,0,0,1-4.953-.135,5.816,5.816,0,0,1-4.759-5.567q-.064-7.335,0-14.67a5.815,5.815,0,0,1,5.688-5.7q10.893-.067,21.787,0a5.91,5.91,0,0,1,5.745,5.91q0,3.558,0,7.116-.012,3.409-.023,6.818a5.948,5.948,0,0,1-6.246,6.232c-2.372,0-4.744.013-7.117-.009-.513-.005-.618.116-.5.626.275,1.176.446,2.376.725,3.552a1.557,1.557,0,0,1-.377,1.564C977.875,160.543,977.287,160.21,976.707,159.822Zm11.7-28.3a3.023,3.023,0,0,0-2.218-.845q-10.707-.013-21.415,0a3.5,3.5,0,0,0-3.508,3.484q-.036,7.186,0,14.373a3.07,3.07,0,0,0,1.13,2.469,3.178,3.178,0,0,0,2.448,1.01c1.209.015,2.422.055,3.628-.012a3.816,3.816,0,0,1,2.657.839c1.551,1.173,3.173,2.251,4.766,3.369l.143.069-.02-.181c-.138-.751-.269-1.5-.417-2.252-.257-1.309.171-1.827,1.529-1.828,2.987,0,5.974.01,8.961,0a3.512,3.512,0,0,0,3.62-3.445c.032-4.813.023-9.626,0-14.439A3.121,3.121,0,0,0,988.406,131.525Z" transform="translate(0)" fill="#010101"/>
    <path id="Trazado_651298" data-name="Trazado 651298" d="M989.78,250.352q-.009,3.629-.018,7.258a5.948,5.948,0,0,1-6.238,6.235q-3.408.009-6.815.022-5.706-.011-11.414-.022c-3.9-.005-6.374-2.485-6.375-6.391q0-3.113,0-6.225a5.951,5.951,0,0,1,6.328-6.361c2.57,0,5.14-.02,7.709.012a3.284,3.284,0,0,0,2.015-.54c.564-.39,1.174-.713,1.764-1.066q2.606-1.466,5.21-2.934a1.175,1.175,0,0,1,1.443.062,1.2,1.2,0,0,1,.375,1.336c-.228.856-.43,1.719-.657,2.575-.1.393-.044.595.431.556a5.05,5.05,0,0,1,1.968.251A5.99,5.99,0,0,1,989.78,250.352Zm-7.138-3.089c-.3-.008-.592-.019-.888-.023-1.184-.015-1.625-.6-1.375-1.766a5.016,5.016,0,0,0,.308-1.676c-1.755,1-3.453,1.951-5.129,2.938a3.5,3.5,0,0,1-1.886.515q-4.408-.042-8.818-.007a3.513,3.513,0,0,0-3.551,3.441q-.055,3.667,0,7.335a3.506,3.506,0,0,0,3.4,3.438c1.332.037,2.666-.007,4-.015,5.113.007,10.227.046,15.34,0a3.474,3.474,0,0,0,3.34-3.57q.028-3.52,0-7.04a3.526,3.526,0,0,0-3.042-3.553A12.61,12.61,0,0,0,982.643,247.263Z" transform="translate(-0.036 -78.612)" fill="#010101"/>
    <path id="Trazado_651299" data-name="Trazado 651299" d="M1031.944,202.663a5.99,5.99,0,0,0-4.275-5.232,5.05,5.05,0,0,0-1.968-.251c-.474.038-.535-.163-.431-.556.227-.856.43-1.719.657-2.575a1.2,1.2,0,0,0-.375-1.336,1.175,1.175,0,0,0-1.443-.062q-2.6,1.473-5.21,2.934,0-2.419.007-4.84c.58.388,1.168.722,1.879.305.337.624.967.856,1.649,1.288-.356-1.742-.683-3.341-1.011-4.94-.183-.893-.184-.894.706-.894q4.331,0,8.662,0a4.8,4.8,0,0,0,4.691-4.658q.005-4.774,0-9.549l1.635-.015a9.883,9.883,0,0,0-.456,3.418c.022,4.119.04,8.237-.007,12.355a7.352,7.352,0,0,0,1.231,4.469,24.992,24.992,0,0,1-1.319,3.351c-1.057,2.54-2.166,5.059-3.254,7.587-.074.173-.061.453-.3.46-.282.009-.256-.3-.364-.482C1032.466,203.139,1032.39,202.73,1031.944,202.663Z" transform="translate(-42.199 -30.923)" fill="#4b8ed2"/>
    <path id="Trazado_651300" data-name="Trazado 651300" d="M1073.612,155.411l-1.635.015-1.161-.029q0-3.558,0-7.116h2.324c.062,1.19.062,1.188,1.27,1.19l11.06.023c-.032.842-.7,1.481-.741,2.322-1.6.009-3.2.078-4.8.013A6.27,6.27,0,0,0,1073.612,155.411Z" transform="translate(-78.694 -14.052)" fill="#dfdfdd"/>
    <path id="Trazado_651301" data-name="Trazado 651301" d="M1018.838,323.967l7.511,0c.943,0,.941,0,.65.87a1.352,1.352,0,0,0-.032.291h-8.158Q1018.823,324.549,1018.838,323.967Z" transform="translate(-42.136 -137.55)" fill="#4b8ed2"/>
    <path id="Trazado_651302" data-name="Trazado 651302" d="M1117.406,268.881c-.01-.287-.254-.412-.421-.581-1.164-1.175-2.329-2.351-3.511-3.508a1.213,1.213,0,0,1-.423-.956q.032-3.889,0-7.779a.944.944,0,0,1,.465-.9c.761-.5,1.492-1.052,2.236-1.58.171-.121.33-.317.537-.026,1.312,1.848,2.949,3.465,3.982,5.508a10.189,10.189,0,0,1,1.087,4.639c.005,6.914,0,13.829.014,20.743,0,.485-.126.61-.609.608q-5.631-.031-11.262,0a.925.925,0,0,1-.934-.531,9.15,9.15,0,0,1-.033-9.5c.179-.323.4-.621.6-.931a1.278,1.278,0,0,0-.2-1.958c-2.477-2.483-4.97-4.949-7.434-7.444a3.005,3.005,0,1,1,4.313-4.18q4.7,4.725,9.431,9.43c.186.185.321.452.632.477a1.079,1.079,0,1,0,1.522-1.522Z" transform="translate(-99.611 -87.942)" fill="#f5c9a7"/>
    <path id="Trazado_651303" data-name="Trazado 651303" d="M1101.671,182.381l-5.588-4.139c-.939-.7-1.21-.692-2.16.021q-3.257,2.443-6.517,4.882a1.281,1.281,0,0,1-.7.383v-.648q0-5.407,0-10.813a3.564,3.564,0,0,1,3.783-3.813q11.628-.006,23.258,0a3.556,3.556,0,0,1,1.72.35c.036.278-.142.445-.3.635-1.1,1.28-2.134,2.614-3.289,3.838a11.971,11.971,0,0,1-2.609,2.442c-.01-.173-.018-.345-.032-.517a4.777,4.777,0,0,0-5.352-4.343,4.775,4.775,0,0,0,.025,9.459c-.043.39-.377.531-.62.765C1102.758,181.39,1101.925,181.576,1101.671,182.381Z" transform="translate(-89.865 -28.088)" fill="#68b5de"/>
    <path id="Trazado_651304" data-name="Trazado 651304" d="M1101.885,222.941c.168-.86.328-1.7.5-2.545.225-1.13-.229-1.711-1.374-1.713-3.433-.006-6.866,0-10.3,0a3.546,3.546,0,0,1-3.41-2.273.808.808,0,0,1,.3-1.125q3.67-2.7,7.29-5.462a.647.647,0,0,1,.945.01q3.982,3.022,7.989,6.011c.839.629,1.115.637,1.991.056,1.871-1.24,3.75-2.471,5.6-3.74a.821.821,0,0,1,1.1.008q2.376,1.64,4.805,3.2a.713.713,0,0,1,.313,1.036,3.559,3.559,0,0,1-3.264,2.272q-2.778.03-5.557,0a2.263,2.263,0,0,0-1.439.46c-1.594,1.166-3.208,2.3-4.818,3.445A1.235,1.235,0,0,1,1101.885,222.941Z" transform="translate(-90.204 -57.169)" fill="#82a95b"/>
    <path id="Trazado_651305" data-name="Trazado 651305" d="M1035.576,335.947q5.519-.012,11.037-.024c3.359,0,6.718.012,10.076-.013.531,0,.625.122.573.646a11.564,11.564,0,0,0,1.227,6.483h-.648q-12.113,0-24.227,0a1.7,1.7,0,0,1-.871-.094c.475-1.153.964-2.3,1.42-3.461A36.371,36.371,0,0,0,1035.576,335.947Zm9.639,3.474c0,1.246,0,1.246,1.2,1.246,1.172,0,1.172,0,1.172-1.2,0-1.171,0-1.171-1.2-1.171C1045.215,338.294,1045.215,338.294,1045.215,339.421Z" transform="translate(-51.931 -145.945)" fill="#d5d5d3"/>
    <path id="Trazado_651306" data-name="Trazado 651306" d="M1137.082,183.209c.254-.8,1.087-.991,1.617-1.5.243-.234.577-.375.62-.766a4.837,4.837,0,0,0,5.359-4.6,11.973,11.973,0,0,0,2.609-2.442c1.154-1.224,2.193-2.559,3.289-3.838.163-.19.341-.356.3-.635a3.212,3.212,0,0,1,2.047,2.937c.065,4.046.023,8.094.023,12.267-.786-.52-1.5-.989-2.2-1.46-.925-.614-1.865-1.207-2.769-1.851a1.468,1.468,0,0,0-1.894,0c-1.851,1.271-3.739,2.488-5.594,3.754a.705.705,0,0,1-1.018-.006C1138.7,184.419,1137.881,183.825,1137.082,183.209Z" transform="translate(-125.276 -28.916)" fill="#62abd3"/>
    <path id="Trazado_651307" data-name="Trazado 651307" d="M1028.58,335.959a36.314,36.314,0,0,1-1.412,3.533c-.456,1.161-.945,2.308-1.42,3.461a3.444,3.444,0,0,1-2.934-3.233c-.047-1.11,0-2.224-.023-3.335-.007-.353.093-.463.453-.458C1025.023,335.952,1026.8,335.95,1028.58,335.959Z" transform="translate(-44.935 -145.957)" fill="#dfdfdd"/>
    <path id="Trazado_651308" data-name="Trazado 651308" d="M1117.654,154.667c.038-.841.709-1.48.741-2.322,2.1-.1,3.546.731,3.981,2.322Z" transform="translate(-111.619 -16.902)" fill="#d5d5d3"/>
    <path id="Trazado_651309" data-name="Trazado 651309" d="M1153.643,305.526a1.079,1.079,0,1,1-1.522,1.522Z" transform="translate(-135.847 -124.587)" fill="#f3b64e"/>
    <path id="Trazado_651310" data-name="Trazado 651310" d="M984.245,163.868c-1.593-1.118-3.216-2.2-4.766-3.369a3.816,3.816,0,0,0-2.657-.839c-1.206.067-2.418.027-3.628.012a3.178,3.178,0,0,1-2.448-1.01,49.18,49.18,0,0,0,5.1-2.878,2.033,2.033,0,0,0,1.256.341c2.865-.013,5.73-.006,8.6-.007,1.291,0,1.6-.279,1.747-1.612.94.469,1.857.941,2.787,1.387,1.071.514,1.9.014,1.906-1.161q.02-3.371,0-6.742a1.2,1.2,0,0,0-1.859-1.163c-.714.331-1.421.678-2.131,1.018-.018-.205.127-.294.266-.4a63.824,63.824,0,0,0,6.627-6.185,7.981,7.981,0,0,0,1.714-2.079,3.121,3.121,0,0,1,1.306,2.61c.023,4.813.031,9.626,0,14.439a3.512,3.512,0,0,1-3.62,3.445c-2.987.015-5.974,0-8.961,0-1.359,0-1.787.519-1.529,1.828.147.749.278,1.5.416,2.252Z" transform="translate(-8.35 -7.653)" fill="#f1aa40"/>
    <path id="Trazado_651311" data-name="Trazado 651311" d="M973.138,153.764a49.164,49.164,0,0,1-5.1,2.878,3.07,3.07,0,0,1-1.13-2.469q-.026-7.186,0-14.373a3.5,3.5,0,0,1,3.508-3.484q10.708-.027,21.414,0a3.023,3.023,0,0,1,2.218.844,7.984,7.984,0,0,1-1.714,2.079,63.829,63.829,0,0,1-6.627,6.185c-.139.111-.284.2-.266.4a1.521,1.521,0,0,1-.7.345c-.18-.389.11-.6.295-.853a4.132,4.132,0,0,0-5.81-5.776c-.34.258-.526.322-.911.021a4.124,4.124,0,0,0-5.8,5.781,1.517,1.517,0,0,1,.316,1.012c-.01,2.073,0,4.147-.011,6.22A2.023,2.023,0,0,0,973.138,153.764Z" transform="translate(-5.638 -5.633)" fill="#f3b64e"/>
    <path id="Trazado_651312" data-name="Trazado 651312" d="M1037.854,172.236l1.161.029q0,4.775,0,9.549a4.8,4.8,0,0,1-4.691,4.658q-4.331,0-8.662,0c-.891,0-.889,0-.706.894.328,1.6.654,3.2,1.011,4.94-.682-.432-1.313-.665-1.649-1.288a1.557,1.557,0,0,0,.377-1.564c-.279-1.175-.449-2.375-.725-3.552-.119-.509-.014-.631.5-.626,2.372.022,4.744.012,7.117.009a5.948,5.948,0,0,0,6.246-6.232Q1037.841,175.645,1037.854,172.236Z" transform="translate(-45.733 -30.891)" fill="#4785c6"/>
    <path id="Trazado_651313" data-name="Trazado 651313" d="M1016.311,221.919l.02.181-.143-.069Z" transform="translate(-40.293 -65.816)" fill="#f1aa40"/>
    <path id="Trazado_651314" data-name="Trazado 651314" d="M974.284,270.145c-1.333.008-2.667.052-4,.015a3.506,3.506,0,0,1-3.4-3.438q-.053-3.667,0-7.335a3.513,3.513,0,0,1,3.551-3.441q4.409-.03,8.818.007a3.5,3.5,0,0,0,1.886-.515c1.676-.987,3.374-1.937,5.129-2.938a5.018,5.018,0,0,1-.308,1.676c-.251,1.163.191,1.751,1.375,1.766.3,0,.592.015.888.023a2.217,2.217,0,0,1-.515.862q-1,1.326-2.006,2.648c-1.02.054-1.019.054-1.038,1.064,0,.1-.017.2-.026.294a11.652,11.652,0,0,0-2.247,2.074,3.5,3.5,0,0,0-1.137,1.311q-5.146.013-10.293.026c-1.728,0-1.7,0-1.732,1.7-.01.561.143.689.692.684,2.739-.023,5.479,0,8.219.008a.565.565,0,0,1-.245.437c-.861.691-1.742,1.36-2.579,2.079C974.956,269.461,974.4,269.579,974.284,270.145Zm1.468-8.275h4.885c1.665,0,1.629,0,1.674-1.687.017-.632-.223-.7-.753-.7-3.528.02-7.056.01-10.585.01-1.752,0-1.726,0-1.745,1.762-.006.556.194.628.676.622C971.853,261.855,973.8,261.87,975.752,261.87Z" transform="translate(-5.616 -87.312)" fill="#7ccedc"/>
    <path id="Trazado_651315" data-name="Trazado 651315" d="M991.861,278.3c.114-.566.672-.684,1.031-.993.837-.719,1.718-1.388,2.579-2.079a.565.565,0,0,0,.245-.437q5.369-.011,10.739-.022c1.73,0,1.7,0,1.734-1.7.01-.565-.15-.687-.695-.683-2.888.02-5.776,0-8.664-.013a3.5,3.5,0,0,1,1.137-1.311,11.649,11.649,0,0,1,2.247-2.074c.06,1.04.06,1.04,1.142,1.04h3.033c1.845,0,1.829,0,1.8-1.855-.007-.427-.136-.531-.544-.527-1.454.015-2.908-.007-4.362-.016q1-1.323,2.006-2.648a2.217,2.217,0,0,0,.515-.862,12.615,12.615,0,0,1,1.7.022,3.526,3.526,0,0,1,3.042,3.553q.026,3.52,0,7.04a3.474,3.474,0,0,1-3.34,3.57C1002.088,278.343,996.974,278.3,991.861,278.3Z" transform="translate(-23.193 -95.464)" fill="#75c3d1"/>
    <path id="Trazado_651316" data-name="Trazado 651316" d="M1140.162,181.1a4.837,4.837,0,0,1-5.359,4.6,4.766,4.766,0,1,1,5.327-5.116C1140.145,180.752,1140.152,180.925,1140.162,181.1Zm-2.4-.184a2.369,2.369,0,1,0-2.314,2.4A2.382,2.382,0,0,0,1137.765,180.914Z" transform="translate(-120.76 -33.671)" fill="#010101"/>
    <path id="Trazado_651317" data-name="Trazado 651317" d="M1074.728,345.063c0-1.127,0-1.127,1.172-1.127,1.2,0,1.2,0,1.2,1.171,0,1.2,0,1.2-1.172,1.2C1074.728,346.309,1074.728,346.309,1074.728,345.063Z" transform="translate(-81.444 -151.587)" fill="#010101"/>
    <path id="Trazado_651318" data-name="Trazado 651318" d="M984.355,159.354a2.023,2.023,0,0,1-.319-1.187c.015-2.073,0-4.147.011-6.22a1.517,1.517,0,0,0-.316-1.012,4.124,4.124,0,0,1,5.8-5.781c.385.3.571.237.911-.021a4.132,4.132,0,0,1,5.81,5.776c-.185.251-.475.464-.295.853a1.522,1.522,0,0,0,.7-.345c.71-.34,1.417-.687,2.131-1.018a1.2,1.2,0,0,1,1.859,1.163q.023,3.371,0,6.742c-.008,1.175-.835,1.674-1.906,1.161-.93-.446-1.847-.918-2.787-1.388-.145,1.333-.456,1.612-1.747,1.612-2.865,0-5.73-.006-8.6.007A2.033,2.033,0,0,1,984.355,159.354Zm5.582-2.039c1.012,0,2.024-.014,3.036.007.384.008.58-.051.569-.51-.03-1.258-.02-2.517,0-3.776,0-.344-.091-.474-.455-.471q-3.11.021-6.22,0c-.365,0-.458.13-.454.472.016,1.258.026,2.518,0,3.776-.011.461.187.517.57.509C987.962,157.3,988.95,157.315,989.937,157.315Zm4.779-8.893a1.777,1.777,0,1,0-1.8,1.774A1.8,1.8,0,0,0,994.716,148.422Zm-7.671,1.775a1.777,1.777,0,1,0-1.813-1.758A1.8,1.8,0,0,0,987.044,150.2Zm11.233,3.12c-.717.355-1.323.675-1.946.957a.73.73,0,0,0,.006,1.342c.517.232,1.02.494,1.521.759.3.158.432.141.424-.25C998.265,155.239,998.277,154.351,998.277,153.317Z" transform="translate(-16.855 -11.223)" fill="#010101"/>
    <path id="Trazado_651319" data-name="Trazado 651319" d="M986.866,291.941c2.888.009,5.776.033,8.664.013.545,0,.7.118.695.683-.031,1.7,0,1.7-1.734,1.7q-5.369.008-10.739.022c-2.74-.007-5.48-.031-8.219-.008-.548,0-.7-.123-.692-.684.031-1.7,0-1.7,1.732-1.7Q981.719,291.957,986.866,291.941Z" transform="translate(-11.228 -115.038)" fill="#010101"/>
    <path id="Trazado_651320" data-name="Trazado 651320" d="M981.365,278.408c-1.949,0-3.9-.015-5.848.011-.482.006-.682-.066-.676-.622.02-1.762-.007-1.762,1.745-1.762,3.528,0,7.057.009,10.585-.01.53,0,.769.064.753.7-.045,1.686-.01,1.687-1.674,1.687Z" transform="translate(-11.229 -103.849)" fill="#010101"/>
    <path id="Trazado_651321" data-name="Trazado 651321" d="M1027.781,275.976c1.454.008,2.908.031,4.363.016.408,0,.537.1.544.527.033,1.855.048,1.855-1.8,1.855h-3.032c-1.082,0-1.082,0-1.142-1.04.009-.1.023-.2.026-.294C1026.762,276.03,1026.761,276.03,1027.781,275.976Z" transform="translate(-47.695 -103.815)" fill="#010101"/>
    <path id="Trazado_651322" data-name="Trazado 651322" d="M1143.369,186.568a2.369,2.369,0,1,1-2.386-2.333A2.379,2.379,0,0,1,1143.369,186.568Z" transform="translate(-126.365 -39.326)" fill="#e05d4d"/>
    <path id="Trazado_651323" data-name="Trazado 651323" d="M998.361,176.978c-.987,0-1.975-.014-2.962.007-.383.008-.581-.048-.57-.509.03-1.258.02-2.517,0-3.775,0-.342.088-.475.454-.472q3.11.022,6.22,0c.364,0,.459.127.455.471-.016,1.259-.026,2.518,0,3.775.011.46-.185.518-.569.51C1000.385,176.965,999.373,176.978,998.361,176.978Z" transform="translate(-25.279 -30.886)" fill="#e05d4d"/>
    <path id="Trazado_651324" data-name="Trazado 651324" d="M1014.4,154.072a1.777,1.777,0,1,1-1.793-1.778A1.8,1.8,0,0,1,1014.4,154.072Z" transform="translate(-36.537 -16.873)" fill="#c94b3b"/>
    <path id="Trazado_651325" data-name="Trazado 651325" d="M992.691,155.848a1.777,1.777,0,1,1,1.74-1.832A1.8,1.8,0,0,1,992.691,155.848Z" transform="translate(-22.502 -16.873)" fill="#c94b3b"/>
    <path id="Trazado_651326" data-name="Trazado 651326" d="M1029.151,174.759c0,1.033-.013,1.921.006,2.809.008.39-.125.408-.424.25-.5-.265-1-.527-1.521-.759a.73.73,0,0,1-.006-1.342C1027.828,175.434,1028.434,175.114,1029.151,174.759Z" transform="translate(-47.728 -32.664)" fill="#c94b3b"/>
  </g>
</svg>
