<svg xmlns="http://www.w3.org/2000/svg" width="58.994" height="63.063" viewBox="0 0 58.994 63.063">
  <g id="Grupo_991942" data-name="Grupo 991942" transform="translate(-1305.034 -130.609)">
    <path id="Trazado_651327" data-name="Trazado 651327" d="M1305.034,162.091q0-13.76,0-27.52c0-2.535,1.433-3.961,3.98-3.961h38.833a3.6,3.6,0,0,1,3.974,3.967c0,5.254.006,10.508-.01,15.762,0,.477.092.633.607.627,2.605-.03,5.211-.017,7.817-.013a3.559,3.559,0,0,1,3.79,3.768q0,17.605,0,35.211a3.554,3.554,0,0,1-3.756,3.739q-25.74,0-51.48,0a3.559,3.559,0,0,1-3.753-3.805Q1305.032,175.978,1305.034,162.091ZM1337.581,178c-.181.027-.326.035-.464.071a10.507,10.507,0,0,1-4.028.234,10.162,10.162,0,1,1,4.031-19.885c.353.083.478.05.469-.353-.025-1.144-.014-2.288-.007-3.432a3.555,3.555,0,0,1,3.685-3.683c1.631-.007,3.263-.022,4.893.011.478.01.59-.114.587-.588q-.033-5.5,0-11c0-.536-.135-.648-.656-.647q-17.669.024-35.338,0c-.534,0-.648.132-.648.655q.024,22.754,0,45.508c0,.529.125.652.652.651q13.093-.028,26.186-.013a2.865,2.865,0,0,1,.317,0c.25.028.324-.078.324-.324C1337.578,182.82,1337.581,180.428,1337.581,178Zm24.411-5.626q0-8.74,0-17.48c0-1.375-.541-1.908-1.931-1.91-.953,0-1.908.027-2.86-.012-.434-.018-.577.152-.662.537-.192.867-.418,1.726-.641,2.586a1.05,1.05,0,0,1-1.208.956q-3.877.008-7.755,0a1.049,1.049,0,0,1-1.223-.936c-.234-.9-.464-1.8-.675-2.708-.073-.315-.2-.441-.547-.432-1.059.027-2.119,0-3.178.011a1.545,1.545,0,0,0-1.7,1.7c-.009,1.4.015,2.8-.013,4.2a.872.872,0,0,0,.467.859,10.143,10.143,0,0,1,.005,17.007.882.882,0,0,0-.472.855c.017,4.026.01,8.051.011,12.077,0,1.431.524,1.959,1.945,1.959h18.433c1.479,0,2-.512,2-1.971Q1361.993,181.021,1361.992,172.377ZM1307.069,162.1q0,13.825,0,27.65c0,1.343.546,1.884,1.9,1.884h28.158c.127,0,.254,0,.381,0,.237,0,.373-.075.279-.342a8.2,8.2,0,0,1-.187-2.961c.011-.6-.141-.78-.766-.779q-13.666.032-27.332.015c-1.11,0-1.415-.294-1.415-1.369q0-24.059,0-48.118c0-1.058.306-1.37,1.35-1.37h38.01c1,0,1.323.323,1.323,1.333q0,6.007,0,12.014c0,.148.011.3,0,.445-.028.32.1.427.429.46.574.058.6-.246.6-.682q-.014-7.882-.006-15.764c0-1.331-.553-1.874-1.907-1.874h-38.9c-1.383,0-1.91.534-1.91,1.935Q1307.068,148.341,1307.069,162.1Zm27.476,14.276a8.136,8.136,0,1,0-8.151-8.151A8.146,8.146,0,0,0,1334.545,176.378Zm16.274-23.392h-2.282c-1.546,0-1.531,0-1.157,1.5.108.436.314.552.747.544,1.5-.028,3-.01,4.5-.01s1.471,0,1.818-1.426c.125-.51-.043-.628-.521-.616C1352.89,153,1351.854,152.987,1350.819,152.986Z" fill="#010101"/>
    <path id="Trazado_651328" data-name="Trazado 651328" d="M1352.422,201.77c0,2.425,0,4.817,0,7.21,0,.246-.074.352-.324.324a2.868,2.868,0,0,0-.318,0q-13.093,0-26.186.013c-.527,0-.652-.122-.652-.651q.024-22.754,0-45.508c0-.522.114-.656.648-.655q17.669.026,35.338,0c.521,0,.66.111.657.647q-.041,5.5,0,11c0,.474-.109.6-.587.588-1.631-.033-3.262-.019-4.894-.011a3.555,3.555,0,0,0-3.685,3.683c-.006,1.144-.017,2.289.007,3.432.009.4-.116.436-.469.353a10.162,10.162,0,1,0-4.031,19.885,10.507,10.507,0,0,0,4.028-.234C1352.1,201.8,1352.241,201.8,1352.422,201.77Zm-20.41-35.188c1.311,0,2.622,0,3.933,0,.751,0,1.2-.383,1.217-1s-.441-1.033-1.177-1.035q-3.9-.009-7.8,0c-.74,0-1.192.406-1.184,1.027s.457,1,1.208,1C1329.475,166.587,1330.744,166.582,1332.013,166.582Zm7.708-2.036c-1.05,0-1.516.3-1.535.99-.02.709.478,1.048,1.542,1.048,1.024,0,1.508-.329,1.5-1.023S1340.75,164.546,1339.721,164.546Z" transform="translate(-14.841 -23.767)" fill="#c1dafb"/>
    <path id="Trazado_651329" data-name="Trazado 651329" d="M1463.128,237.8q0,8.645,0,17.289c0,1.46-.519,1.971-2,1.971H1442.7c-1.421,0-1.945-.528-1.945-1.959,0-4.026.007-8.052-.011-12.077a.882.882,0,0,1,.472-.855,10.143,10.143,0,0,0-.005-17.007.873.873,0,0,1-.467-.859c.028-1.4,0-2.8.013-4.2a1.545,1.545,0,0,1,1.7-1.7c1.06-.009,2.119.015,3.178-.011.348-.009.474.117.548.432.21.906.44,1.808.675,2.708a1.049,1.049,0,0,0,1.223.936q3.877.006,7.755,0a1.05,1.05,0,0,0,1.208-.956c.223-.86.448-1.719.64-2.586.085-.385.228-.555.662-.537.952.039,1.906.011,2.86.012,1.39,0,1.931.534,1.931,1.91Q1463.13,229.061,1463.128,237.8Zm-4.069-8.71c0,1.438,0,2.876,0,4.313,0,.806.368,1.266,1,1.276s1.03-.457,1.031-1.247q.006-4.345,0-8.69c0-.788-.4-1.255-1.034-1.244s-1,.467-1,1.278C1459.057,226.216,1459.06,227.654,1459.06,229.092Zm-7.12,24.918c-.633,0-1.267-.008-1.9,0a1.028,1.028,0,0,0-1.147,1,1.018,1.018,0,0,0,1.115,1.03q1.932.019,3.864,0a1.019,1.019,0,0,0,1.116-1.03,1.031,1.031,0,0,0-1.148-1C1453.207,254,1452.573,254.01,1451.94,254.01Zm7.12-16.78c0,.147-.006.3,0,.443a1.018,1.018,0,1,0,2.033.027c.009-.147,0-.295,0-.443,0-1.071-.33-1.565-1.038-1.552C1459.369,235.718,1459.058,236.191,1459.06,237.23Z" transform="translate(-101.137 -65.425)" fill="#68a3f7"/>
    <path id="Trazado_651330" data-name="Trazado 651330" d="M1313.022,168.055q0-13.762,0-27.523c0-1.4.527-1.935,1.91-1.935h38.9c1.354,0,1.907.543,1.907,1.874q0,7.882.006,15.764c0,.436-.021.74-.6.682-.332-.033-.457-.14-.429-.46.013-.147,0-.3,0-.445q0-6.007,0-12.014c0-1.01-.32-1.333-1.323-1.333h-38.01c-1.044,0-1.35.311-1.35,1.37q0,24.059,0,48.118c0,1.075.3,1.369,1.415,1.369q13.666,0,27.332-.015c.625,0,.778.174.766.779a8.2,8.2,0,0,0,.187,2.961c.094.266-.042.344-.279.342-.127,0-.254,0-.381,0H1314.92c-1.352,0-1.9-.541-1.9-1.884Q1313.021,181.88,1313.022,168.055Zm21.326-26.407c1.313,0,2.626,0,3.939,0,.747,0,1.186-.4,1.177-1.031a1.007,1.007,0,0,0-1.144-1q-3.939-.01-7.878,0a1.007,1.007,0,0,0-1.145,1c-.01.634.429,1.028,1.175,1.032C1331.764,141.653,1333.056,141.648,1334.348,141.648Zm.008,52.892c-.339,0-.678-.016-1.016,0a.99.99,0,0,0-.992,1.021.969.969,0,0,0,.945,1c.719.031,1.44.029,2.159,0a.973.973,0,0,0,.961-.985.988.988,0,0,0-.977-1.035C1335.077,194.522,1334.716,194.54,1334.356,194.54Z" transform="translate(-5.953 -5.953)" fill="#3e3d42"/>
    <path id="Trazado_651331" data-name="Trazado 651331" d="M1397.034,262.671a8.136,8.136,0,1,1,8.122-8.119A8.143,8.143,0,0,1,1397.034,262.671Zm4.561-11.749a.99.99,0,0,0-.646-.882,1.031,1.031,0,0,0-1.2.324q-3.452,3.455-6.9,6.911a1.025,1.025,0,1,0,1.439,1.434q3.463-3.445,6.911-6.9A1.178,1.178,0,0,0,1401.595,250.921Zm-6.612.555a1.016,1.016,0,1,0-.992,1.024A1.022,1.022,0,0,0,1394.983,251.476Zm4.072,6.062a1.016,1.016,0,1,0,1.048-.966A1.027,1.027,0,0,0,1399.055,257.538Z" transform="translate(-62.489 -86.293)" fill="#f7d860"/>
    <path id="Trazado_651332" data-name="Trazado 651332" d="M1474.086,218.425c1.035,0,2.071.017,3.106-.008.478-.011.646.106.521.616-.348,1.421-.332,1.426-1.818,1.426s-3-.017-4.5.01c-.433.008-.639-.109-.747-.544-.374-1.5-.388-1.5,1.157-1.5Z" transform="translate(-123.267 -65.439)" fill="#3d3c41"/>
    <path id="Trazado_651333" data-name="Trazado 651333" d="M1338.012,172.565c-1.269,0-2.537,0-3.806,0-.751,0-1.2-.387-1.208-1s.444-1.025,1.184-1.027q3.9-.008,7.8,0c.736,0,1.19.414,1.177,1.035s-.466.993-1.217,1C1340.634,172.569,1339.323,172.565,1338.012,172.565Z" transform="translate(-20.84 -29.749)" fill="#020202"/>
    <path id="Trazado_651334" data-name="Trazado 651334" d="M1378.445,170.53c1.03,0,1.509.322,1.511,1.015s-.481,1.023-1.5,1.023c-1.064,0-1.562-.339-1.542-1.048C1376.929,170.83,1377.395,170.53,1378.445,170.53Z" transform="translate(-53.565 -29.751)" fill="#060607"/>
    <path id="Trazado_651335" data-name="Trazado 651335" d="M1512.646,244.018c0-1.438,0-2.876,0-4.313,0-.811.363-1.267,1-1.278s1.033.456,1.034,1.244q.006,4.345,0,8.69c0,.79-.4,1.257-1.031,1.247s-1-.47-1-1.276C1512.644,246.893,1512.646,245.456,1512.646,244.018Z" transform="translate(-154.723 -80.351)" fill="#010102"/>
    <path id="Trazado_651336" data-name="Trazado 651336" d="M1475.785,358.183c.634,0,1.267-.008,1.9,0a1.031,1.031,0,0,1,1.148,1,1.019,1.019,0,0,1-1.116,1.03q-1.932.019-3.864,0a1.017,1.017,0,0,1-1.115-1.03,1.028,1.028,0,0,1,1.147-1C1474.518,358.175,1475.152,358.183,1475.785,358.183Z" transform="translate(-124.982 -169.598)" fill="#010203"/>
    <path id="Trazado_651337" data-name="Trazado 651337" d="M1512.64,287.859c0-1.039.31-1.512,1-1.525.708-.013,1.038.481,1.038,1.552,0,.148.006.3,0,.443a1.018,1.018,0,1,1-2.033-.027C1512.635,288.154,1512.641,288.006,1512.64,287.859Z" transform="translate(-154.718 -116.053)" fill="#030507"/>
    <path id="Trazado_651338" data-name="Trazado 651338" d="M1381.96,144.616c-1.292,0-2.584.005-3.876,0-.746,0-1.185-.4-1.175-1.032a1.007,1.007,0,0,1,1.145-1q3.939-.009,7.878,0a1.007,1.007,0,0,1,1.144,1c.009.633-.43,1.027-1.177,1.031C1384.587,144.621,1383.273,144.616,1381.96,144.616Z" transform="translate(-53.566 -8.921)" fill="#000001"/>
    <path id="Trazado_651339" data-name="Trazado 651339" d="M1390.894,358.18c.36,0,.721-.018,1.08,0a.988.988,0,0,1,.977,1.035.973.973,0,0,1-.961.985c-.719.028-1.44.03-2.159,0a.97.97,0,0,1-.945-1,.99.99,0,0,1,.992-1.021C1390.216,358.164,1390.556,358.18,1390.894,358.18Z" transform="translate(-62.491 -169.593)" fill="#010101"/>
    <path id="Trazado_651340" data-name="Trazado 651340" d="M1412,261.332a1.178,1.178,0,0,1-.4.881q-3.455,3.453-6.911,6.9a1.025,1.025,0,1,1-1.439-1.434q3.446-3.462,6.9-6.911a1.031,1.031,0,0,1,1.2-.324A.99.99,0,0,1,1412,261.332Z" transform="translate(-72.896 -96.703)" fill="#060502"/>
    <path id="Trazado_651341" data-name="Trazado 651341" d="M1406.885,263.381a1.016,1.016,0,1,1-1.008-1.008A1.025,1.025,0,0,1,1406.885,263.381Z" transform="translate(-74.39 -98.198)" fill="#0c0a04"/>
    <path id="Trazado_651342" data-name="Trazado 651342" d="M1428.808,287.295a1.016,1.016,0,1,1,.95,1.064A1.022,1.022,0,0,1,1428.808,287.295Z" transform="translate(-92.242 -116.05)" fill="#0c0a04"/>
  </g>
</svg>
