<svg xmlns="http://www.w3.org/2000/svg" width="111.679" height="111.679" viewBox="0 0 111.679 111.679">
  <g id="Grupo_989446" data-name="Grupo 989446" transform="translate(-428.233 -1365.16)">
    <g id="Grupo_983517" data-name="Grupo 983517" transform="translate(-6.767 -2975.84)">
      <circle id="Elipse_7706" data-name="Elipse 7706" cx="55.839" cy="55.839" r="55.839" transform="translate(435 4341)" fill="#006475"/>
    </g>
    <g id="Grupo_991935" data-name="Grupo 991935" transform="translate(-763.065 1349.617)">
      <path id="Trazado_651212" data-name="Trazado 651212" d="M1247.11,122.148q-11.6,0-23.206,0c-5.409,0-8.9-3.507-8.9-8.939,0-3.867-.015-7.733.014-11.6,0-.644-.1-.834-.823-.914a4.64,4.64,0,0,0-4.537,1.861c-.937,1.184-2.142,2.154-3.193,3.252a2.169,2.169,0,0,1-2.557.757,2.086,2.086,0,0,1-1.21-2.276c.032-.957-.008-1.917.013-2.875.01-.45-.034-.669-.609-.711a5.96,5.96,0,0,1-5.742-6.221q-.018-7.634,0-15.268a6,6,0,0,1,6.238-6.243c3.8-.013,7.6-.029,11.4.018.814.01,1.023-.173,1.021-1.008q-.045-21.167-.021-42.334c0-5.567,3.454-9.032,9.005-9.032q23.156,0,46.312,0c5.477,0,8.949,3.488,8.951,8.986,0,3.6.022,7.2-.019,10.806-.008.717.2.853.877.847,3.8-.034,7.6-.022,11.4-.015a6.025,6.025,0,0,1,6.381,6.4q.009,7.485,0,14.97a5.977,5.977,0,0,1-5.8,6.364c-.533.048-.555.263-.548.668.018,1.057,0,2.115.009,3.172a1.949,1.949,0,0,1-1.173,2,1.977,1.977,0,0,1-2.346-.508c-1.423-1.429-2.888-2.817-4.261-4.291a2.925,2.925,0,0,0-2.48-1.041c-2.038.089-2.041.026-2.041,2.053q0,21.068,0,42.136c0,5.492-3.481,8.982-8.957,8.983Q1258.713,122.15,1247.11,122.148Zm-6.885-86.855a2.094,2.094,0,0,1-2.473,1.979c-5.95,0-11.9.019-17.85-.02-.8-.006-.948.235-.946.978q.035,16.9,0,33.808c0,.8.233.949.977.947q11.5-.041,23.007-.012A6,6,0,0,1,1249.1,79.1q.041,7.783,0,15.565a5.88,5.88,0,0,1-2.432,4.864,6.457,6.457,0,0,1-4.092,1.213c-7.57-.019-15.14,0-22.71-.027-.742,0-.965.169-.911.914a20.258,20.258,0,0,1,0,2.972c-.057.753.181.91.915.91q27.271-.035,54.543,0c.742,0,.913-.174.912-.913q-.039-17.35,0-34.7c0-.741-.173-.915-.913-.912-7.6.031-15.206.023-22.809.017a6.05,6.05,0,0,1-6.431-6.462q-.009-7.337,0-14.673c0-4.177,2.465-6.625,6.664-6.626,7.537,0,15.074-.01,22.611.015.669,0,.946-.12.875-.845a11.86,11.86,0,0,1,0-2.179c.066-.749-.141-.984-.944-.979-5.95.039-11.9.023-17.85.02-1.552,0-2.144-.482-2.473-1.979a2.085,2.085,0,0,1,2.464-1.985c5.979,0,11.958-.013,17.936.015.682,0,.918-.141.871-.855-.067-1.019-.016-2.046-.018-3.07-.007-3.03-1.773-4.814-4.78-4.816q-8.423,0-16.846,0-14.963,0-29.927,0c-3.008,0-4.775,1.786-4.78,4.815,0,.991.058,1.986-.019,2.971-.062.8.211.961.97.957,5.945-.032,11.891-.019,17.837-.017A2.088,2.088,0,0,1,1240.225,35.293Zm-33.552,64.744c.791-.813,1.4-1.374,1.933-2a3.6,3.6,0,0,1,3.038-1.293c10.309.044,20.617.026,30.926.024,1.843,0,2.568-.732,2.57-2.593q.005-7.234,0-14.468c0-2.121-.654-2.768-2.791-2.768h-36.973c-.991,0-1.983-.024-2.973.009a2,2,0,0,0-2.065,2.076q-.031,7.829,0,15.657a2.01,2.01,0,0,0,2.063,2.08c.693.029,1.388,0,2.081.011a2,2,0,0,1,2.191,2.135C1206.681,99.187,1206.673,99.472,1206.673,100.037ZM1287.5,68.158c.4-2.973.574-3.121,3.585-3.122h.3c1.863-.008,2.569-.713,2.57-2.583q0-7.283,0-14.566c0-2.009-.669-2.68-2.669-2.681h-39.447c-2,0-2.7.685-2.7,2.662q0,7.184,0,14.367c0,2.138.653,2.8,2.76,2.8q15.511,0,31.022-.016a3.124,3.124,0,0,1,2.534,1.065C1286.082,66.787,1286.776,67.432,1287.5,68.158Zm-40.347,41.3c-9.052,0-18.1.017-27.157-.026-.918,0-1.1.267-1.039,1.092.071.919.015,1.848.016,2.773,0,3.147,1.749,4.886,4.912,4.886q15.809,0,31.617,0,7.582,0,15.164,0a4.374,4.374,0,0,0,4.64-4.66c.006-1.024-.062-2.053.021-3.07.067-.836-.2-1.016-1.017-1.013C1265.256,109.469,1256.2,109.457,1247.151,109.457Z" fill="#010101"/>
      <path id="Trazado_651213" data-name="Trazado 651213" d="M1288.312,57.551c.329,1.5.921,1.978,2.473,1.979,5.95,0,11.9.019,17.85-.02.8-.005,1.01.229.944.979a11.86,11.86,0,0,0,0,2.179c.07.726-.206.848-.875.845-7.537-.025-15.074-.017-22.611-.016-4.2,0-6.662,2.449-6.664,6.626q0,7.337,0,14.673a6.05,6.05,0,0,0,6.431,6.462c7.6.006,15.206.014,22.809-.017.74,0,.915.171.913.912q-.04,17.35,0,34.7c0,.739-.169.914-.912.913q-27.271-.035-54.543,0c-.734,0-.972-.156-.915-.91a20.258,20.258,0,0,0,0-2.972c-.054-.745.169-.918.911-.914,7.57.031,15.14.009,22.71.027a6.457,6.457,0,0,0,4.092-1.213,5.88,5.88,0,0,0,2.432-4.864q.035-7.783,0-15.565a6,6,0,0,0-6.164-6.125q-11.5-.023-23.007.012c-.744,0-.979-.144-.977-.947q.045-16.9,0-33.808c0-.743.142-.984.946-.978,5.95.039,11.9.023,17.85.02a2.094,2.094,0,0,0,2.473-1.979h4.9c.287,1.3.931,1.951,1.965,1.977,1.071.027,1.768-.64,2.064-1.977Z" transform="translate(-34.26 -22.258)" fill="#fefefe"/>
      <path id="Trazado_651214" data-name="Trazado 651214" d="M1212.692,185.426c0-.565.008-.85,0-1.135a2,2,0,0,0-2.191-2.135c-.693-.014-1.388.019-2.081-.011a2.01,2.01,0,0,1-2.062-2.08q-.031-7.829,0-15.657a2,2,0,0,1,2.065-2.076c.99-.033,1.982-.009,2.973-.009h36.973c2.137,0,2.791.647,2.791,2.768q0,7.234,0,14.468c0,1.861-.727,2.593-2.57,2.593-10.309,0-20.618.02-30.926-.024a3.6,3.6,0,0,0-3.038,1.293C1214.094,184.052,1213.482,184.613,1212.692,185.426Zm5.912-11.208a1.979,1.979,0,1,0,.027-3.958,1.979,1.979,0,0,0-.027,3.958Zm22.251-1.9a1.982,1.982,0,1,0-2.109,1.9A2,2,0,0,0,1240.855,172.318Zm-12.069,1.9a1.979,1.979,0,1,0-.079-3.958,1.979,1.979,0,0,0,.079,3.958Z" transform="translate(-6.019 -85.389)" fill="#f6cb86"/>
      <path id="Trazado_651215" data-name="Trazado 651215" d="M1367.537,105.446c-.721-.726-1.416-1.371-2.044-2.074a3.123,3.123,0,0,0-2.534-1.065q-15.511.041-31.022.016c-2.107,0-2.76-.662-2.76-2.8q0-7.184,0-14.367c0-1.977.7-2.661,2.7-2.662h39.446c2,0,2.668.672,2.669,2.681q0,7.283,0,14.566c0,1.871-.707,2.576-2.57,2.583h-.3C1368.112,102.325,1367.936,102.473,1367.537,105.446ZM1351.689,86.46h-15.257a6.994,6.994,0,0,0-.891.02,1.974,1.974,0,0,0,0,3.924,7.744,7.744,0,0,0,.99.021h30.118a8.532,8.532,0,0,0,.891-.014,1.915,1.915,0,0,0,1.712-1.3c.522-1.381-.467-2.648-2.1-2.652C1361.993,86.453,1356.841,86.46,1351.689,86.46Zm10.2,7.932c-1.848,0-3.7-.012-5.546,0a1.989,1.989,0,1,0,.006,3.957q5.4.02,10.795,0a2,2,0,1,0-.006-3.96C1365.392,94.383,1363.643,94.392,1361.893,94.392Zm-20.851,3.966c1.716,0,3.431.013,5.147,0a1.99,1.99,0,1,0-.026-3.958q-5.1-.018-10.2,0a1.99,1.99,0,1,0,.026,3.958C1337.676,98.37,1339.359,98.358,1341.042,98.358Z" transform="translate(-80.04 -37.288)" fill="#e5888e"/>
      <path id="Trazado_651216" data-name="Trazado 651216" d="M1279.382,41.308h-4.9a2.088,2.088,0,0,0-2.465-1.985c-5.946,0-11.892-.015-17.837.017-.759,0-1.032-.161-.97-.957.076-.985.017-1.98.019-2.971.005-3.029,1.772-4.814,4.78-4.815q14.963,0,29.927,0,8.423,0,16.847,0c3.006,0,4.773,1.786,4.78,4.816,0,1.024-.05,2.051.018,3.07.047.713-.189.858-.871.855-5.979-.029-11.957-.019-17.936-.015a2.086,2.086,0,0,0-2.464,1.985h-4.9c-.291-1.338-.991-2.011-2.065-1.984C1280.31,39.35,1279.663,40,1279.382,41.308Z" transform="translate(-34.259 -6.014)" fill="#d4eff9"/>
      <path id="Trazado_651217" data-name="Trazado 651217" d="M1281.408,244.134c9.052,0,18.1.012,27.157-.021.819,0,1.084.177,1.017,1.013-.082,1.017-.015,2.046-.021,3.07a4.374,4.374,0,0,1-4.64,4.66q-7.582.012-15.164,0-15.808,0-31.617,0c-3.162,0-4.908-1.739-4.912-4.886,0-.925.055-1.854-.016-2.773-.064-.825.121-1.1,1.039-1.092C1263.3,244.151,1272.356,244.134,1281.408,244.134Zm-.046,2.382a1.981,1.981,0,0,0-.041,3.961,1.981,1.981,0,1,0,.041-3.961Z" transform="translate(-34.257 -134.677)" fill="#d4eff9"/>
      <path id="Trazado_651218" data-name="Trazado 651218" d="M1319.079,54.542c.281-1.3.928-1.957,1.965-1.984,1.074-.027,1.774.646,2.065,1.984-.3,1.337-.993,2-2.064,1.977C1320.01,56.492,1319.366,55.845,1319.079,54.542Z" transform="translate(-73.955 -19.248)" fill="#070707"/>
      <path id="Trazado_651219" data-name="Trazado 651219" d="M1234.235,186.264a1.979,1.979,0,0,1,.027-3.958,1.979,1.979,0,1,1-.027,3.958Z" transform="translate(-21.65 -97.435)" fill="#060503"/>
      <path id="Trazado_651220" data-name="Trazado 651220" d="M1287.186,184.361a1.982,1.982,0,1,1-1.852-2.056A2,2,0,0,1,1287.186,184.361Z" transform="translate(-52.349 -97.432)" fill="#070604"/>
      <path id="Trazado_651221" data-name="Trazado 651221" d="M1259.77,186.263a1.979,1.979,0,1,1,1.945-1.969A2.012,2.012,0,0,1,1259.77,186.263Z" transform="translate(-37.002 -97.435)" fill="#060503"/>
      <path id="Trazado_651222" data-name="Trazado 651222" d="M1358.673,92.469q7.728,0,15.456,0c1.638,0,2.627,1.271,2.1,2.652a1.915,1.915,0,0,1-1.712,1.3,8.537,8.537,0,0,1-.891.014h-30.118a7.743,7.743,0,0,1-.99-.021,1.974,1.974,0,0,1,0-3.924,7,7,0,0,1,.891-.02Z" transform="translate(-87.024 -43.297)" fill="#010000"/>
      <path id="Trazado_651223" data-name="Trazado 651223" d="M1399.779,112.428c1.75,0,3.5-.01,5.249,0a2,2,0,1,1,.006,3.96q-5.4.015-10.795,0a1.989,1.989,0,1,1-.006-3.957C1396.082,112.417,1397.931,112.428,1399.779,112.428Z" transform="translate(-117.926 -55.324)" fill="#010101"/>
      <path id="Trazado_651224" data-name="Trazado 651224" d="M1348.025,116.393c-1.683,0-3.366.012-5.048,0a1.99,1.99,0,1,1-.026-3.958q5.1-.02,10.2,0a1.99,1.99,0,1,1,.026,3.958C1351.456,116.406,1349.74,116.393,1348.025,116.393Z" transform="translate(-87.023 -55.323)" fill="#010101"/>
      <path id="Trazado_651225" data-name="Trazado 651225" d="M1321.062,250.169a1.981,1.981,0,1,1-.041,3.961,1.981,1.981,0,0,1,.041-3.961Z" transform="translate(-73.956 -138.33)" fill="#060607"/>
    </g>
  </g>
</svg>
