<svg xmlns="http://www.w3.org/2000/svg" width="111.679" height="111.679" viewBox="0 0 111.679 111.679">
  <g id="Grupo_989444" data-name="Grupo 989444" transform="translate(-1053.661 -1365.16)">
    <g id="Grupo_985927" data-name="Grupo 985927" transform="translate(618.661 -2975.84)">
      <circle id="Elipse_7706" data-name="Elipse 7706" cx="55.839" cy="55.839" r="55.839" transform="translate(435 4341)" fill="#006475"/>
    </g>
    <g id="Grupo_991937" data-name="Grupo 991937" transform="translate(203.734 1348.955)">
      <path id="Trazado_651234" data-name="Trazado 651234" d="M863.592,71.95q0-18.978,0-37.957c0-5.9,4.033-9.935,9.927-9.937q18.235,0,36.47,0a9.441,9.441,0,0,1,9.856,9.819c0,3,.029,6-.018,9-.013.808.139,1.081,1.032,1.077,8.781-.039,17.562-.024,26.344-.024,4.123,0,6.394,2.253,6.395,6.343q0,12.419,0,24.836c0,4.037-2.282,6.31-6.334,6.31q-10.172,0-20.344-.009a2.21,2.21,0,0,0-1.457.468q-2.484,1.917-5.02,3.763a1.341,1.341,0,0,0-.61,1.238q.028,11.621.012,23.243c0,5.888-4.042,9.912-9.951,9.913q-18.188,0-36.376,0c-5.894,0-9.926-4.037-9.927-9.937Q863.59,91.022,863.592,71.95Zm52.5,16.968c-1.526,1.144-2.876,2.148-4.217,3.163a1.958,1.958,0,0,1-2.254.358,2.052,2.052,0,0,1-1.036-2.042c.02-2.686-.031-5.373.03-8.058.018-.817-.236-.976-.986-.941-1.372.063-2.749.02-4.124.017-3.845-.009-6.162-2.334-6.163-6.2q-.005-12.556,0-25.112c0-3.853,2.327-6.173,6.185-6.177,3.937,0,7.874-.015,11.81.014.614,0,.78-.159.77-.77-.037-2.279-.061-4.561.009-6.839.027-.875-.24-1.047-1.069-1.046q-23.339.038-46.679,0c-.868,0-1.048.235-1.047,1.066q.035,31.953,0,63.9c0,.855.215,1.055,1.06,1.054q23.339-.041,46.679-.02a3.473,3.473,0,0,1,.468,0c.452.062.589-.123.577-.572-.029-1.092-.009-2.186-.009-3.279Zm-3.75-1.879c3.923-2.941,7.676-5.735,11.4-8.565a3.884,3.884,0,0,1,2.5-.821c7.062.026,14.124.016,21.186.013,1.727,0,2.408-.667,2.409-2.367q.006-12.6,0-25.209c0-1.732-.664-2.413-2.363-2.413q-22.03,0-44.06,0c-1.645,0-2.327.693-2.327,2.353q-.006,12.652,0,25.3c0,1.65.688,2.326,2.349,2.332,2.125.008,4.25,0,6.375,0,1.908,0,2.523.619,2.525,2.533C912.347,82.409,912.345,84.618,912.345,87.04Zm-20.54,18c-7.843,0-15.687.009-23.529-.015-.716,0-.987.156-.952.924.064,1.4.016,2.81.018,4.216.007,3.794,2.339,6.118,6.15,6.121q7.968.006,15.936,0,10.406,0,20.811,0a5.509,5.509,0,0,0,5.746-4.829,51.126,51.126,0,0,0,.126-5.236c.057-.91-.159-1.209-1.152-1.2C907.243,105.058,899.524,105.036,891.806,105.036Zm-.128-73.481h4.03c6.4,0,12.81-.01,19.214.014.776,0,.847-.2.486-.819a5.386,5.386,0,0,0-4.809-2.921q-18.887-.056-37.773,0a5.327,5.327,0,0,0-4.655,2.7c-.177.281-.5.609-.329.918.148.269.572.11.871.11Q880.2,31.559,891.678,31.554Z"/>
      <path id="Trazado_651235" data-name="Trazado 651235" d="M922.3,107.581v8.52c0,1.093-.02,2.187.009,3.279.012.449-.124.634-.577.572a3.471,3.471,0,0,0-.468,0q-23.34,0-46.679.02c-.845,0-1.06-.2-1.06-1.054q.04-31.952,0-63.9c0-.831.179-1.068,1.047-1.066q23.34.045,46.679,0c.829,0,1.1.171,1.069,1.046-.069,2.278-.046,4.56-.009,6.839.01.612-.156.775-.77.77-3.937-.028-7.873-.018-11.81-.014-3.858,0-6.183,2.324-6.185,6.177q-.006,12.556,0,25.112c0,3.865,2.318,6.191,6.163,6.2,1.375,0,2.751.045,4.123-.017.749-.035,1,.124.986.941-.06,2.685-.01,5.372-.03,8.058a2.052,2.052,0,0,0,1.036,2.042,1.958,1.958,0,0,0,2.254-.358C919.421,109.729,920.77,108.725,922.3,107.581Z" transform="translate(-6.201 -18.663)" fill="#fae280"/>
      <path id="Trazado_651236" data-name="Trazado 651236" d="M974.684,126.3c0-2.422,0-4.63,0-6.839,0-1.913-.617-2.531-2.525-2.533-2.125,0-4.25.005-6.375,0-1.661-.006-2.348-.682-2.349-2.332q-.007-12.651,0-25.3c0-1.661.682-2.353,2.327-2.353q22.03-.006,44.06,0c1.7,0,2.362.681,2.363,2.413q0,12.6,0,25.209c0,1.7-.682,2.366-2.409,2.367-7.062,0-14.124.014-21.186-.013a3.884,3.884,0,0,0-2.5.821C982.36,120.567,978.607,123.361,974.684,126.3Zm16.871-28.117q5.383,0,10.766,0c1.444,0,2.331-.707,2.352-1.845.022-1.167-.89-1.893-2.389-1.9h-.094q-10.626,0-21.252,0a5.4,5.4,0,0,0-.84.035,1.851,1.851,0,0,0,.036,3.685,5.969,5.969,0,0,0,.841.028Q986.266,98.187,991.556,98.185Zm0,11.247q5.383,0,10.766,0c1.444,0,2.331-.707,2.352-1.845.021-1.168-.89-1.893-2.389-1.9H980.939a5.975,5.975,0,0,0-.748.02,1.858,1.858,0,0,0,.037,3.71,7.761,7.761,0,0,0,.842.017ZM972.805,94.446a1.865,1.865,0,1,0,1.869,1.837A1.924,1.924,0,0,0,972.805,94.446Zm.041,14.977a1.865,1.865,0,1,0-1.9-1.805A1.926,1.926,0,0,0,972.846,109.423Z" transform="translate(-62.339 -39.263)" fill="#a3defa"/>
      <path id="Trazado_651237" data-name="Trazado 651237" d="M898.006,239.6c7.718,0,15.437.022,23.155-.027.993-.006,1.209.293,1.152,1.2a51.056,51.056,0,0,1-.126,5.236,5.509,5.509,0,0,1-5.746,4.829q-10.406.022-20.811,0-7.968,0-15.936,0c-3.811,0-6.143-2.327-6.15-6.121,0-1.406.046-2.814-.018-4.216-.035-.767.236-.926.952-.924C882.32,239.613,890.163,239.6,898.006,239.6Zm3.61,7.5c1.187,0,2.374.013,3.561,0a1.883,1.883,0,1,0,.013-3.74q-3.514-.024-7.028,0a1.883,1.883,0,1,0-.014,3.74C899.3,247.115,900.46,247.1,901.616,247.1Zm-11.2-3.739a1.865,1.865,0,1,0,1.867,1.863A1.959,1.959,0,0,0,890.417,243.362Z" transform="translate(-6.201 -134.568)" fill="#585858"/>
      <path id="Trazado_651238" data-name="Trazado 651238" d="M898.666,37.78q-11.482,0-22.963-.005c-.3,0-.723.159-.871-.11-.17-.309.153-.637.329-.918a5.327,5.327,0,0,1,4.655-2.7q18.886-.05,37.772,0a5.386,5.386,0,0,1,4.809,2.921c.361.619.29.822-.486.819-6.4-.024-12.81-.014-19.214-.014Z" transform="translate(-6.988 -6.226)" fill="#585858"/>
      <path id="Trazado_651239" data-name="Trazado 651239" d="M1016.513,110.65q-5.289,0-10.579,0a5.97,5.97,0,0,1-.841-.028,1.851,1.851,0,0,1-.036-3.685,5.393,5.393,0,0,1,.84-.035q10.626,0,21.252,0h.094c1.5.009,2.411.735,2.389,1.9-.021,1.138-.908,1.843-2.352,1.845Q1021.9,110.656,1016.513,110.65Z" transform="translate(-87.297 -51.727)" fill="#000101"/>
      <path id="Trazado_651240" data-name="Trazado 651240" d="M1016.514,140.591h-10.485a7.754,7.754,0,0,1-.842-.017,1.858,1.858,0,0,1-.038-3.71,5.976,5.976,0,0,1,.748-.02h21.346c1.5.009,2.411.735,2.389,1.9-.021,1.138-.908,1.843-2.352,1.845Q1021.9,140.6,1016.514,140.591Z" transform="translate(-87.297 -70.421)" fill="#000101"/>
      <path id="Trazado_651241" data-name="Trazado 651241" d="M985.291,106.927a1.865,1.865,0,1,1-1.861,1.846A1.925,1.925,0,0,1,985.291,106.927Z" transform="translate(-74.825 -51.744)" fill="#050707"/>
      <path id="Trazado_651242" data-name="Trazado 651242" d="M985.33,140.6a1.865,1.865,0,1,1,1.829-1.878A1.927,1.927,0,0,1,985.33,140.6Z" transform="translate(-74.823 -70.439)" fill="#050707"/>
      <path id="Trazado_651243" data-name="Trazado 651243" d="M939.072,253.366c-1.156,0-2.312.014-3.467,0a1.883,1.883,0,1,1,.014-3.74q3.514-.024,7.028,0a1.883,1.883,0,1,1-.014,3.74C941.446,253.379,940.259,253.366,939.072,253.366Z" transform="translate(-43.656 -140.833)" fill="#010101"/>
      <path id="Trazado_651244" data-name="Trazado 651244" d="M915.4,249.655a1.865,1.865,0,1,1-1.864,1.866A1.96,1.96,0,0,1,915.4,249.655Z" transform="translate(-31.187 -140.86)" fill="#020202"/>
    </g>
  </g>
</svg>
