<svg xmlns="http://www.w3.org/2000/svg" width="111.679" height="111.679" viewBox="0 0 111.679 111.679">
  <g id="Grupo_989449" data-name="Grupo 989449" transform="translate(-428.233 -1365.16)">
    <g id="Grupo_983517" data-name="Grupo 983517" transform="translate(-6.767 -2975.84)">
      <circle id="Elipse_7706" data-name="Elipse 7706" cx="55.839" cy="55.839" r="55.839" transform="translate(435 4341)" fill="#006475"/>
    </g>
    <g id="Grupo_991940" data-name="Grupo 991940" transform="translate(-1128.978 1207.42)">
      <path id="Trazado_651282" data-name="Trazado 651282" d="M1613,336.2h-43.83c-1.992,0-2.481-.479-2.481-2.438q0-24.043,0-48.087c0-1.927.492-2.427,2.388-2.427q14.206,0,28.412,0c1.778,0,2.321.537,2.326,2.3.005,1.648.027,3.3-.012,4.944-.015.617.131.751.756.646A6.295,6.295,0,0,1,1607,300.8a6.191,6.191,0,0,1-6.291,2.709c-.755-.147-.956.012-.905.771a25.738,25.738,0,0,1,0,3c-.031.622.137.82.788.808,2.326-.042,4.654-.021,6.981-.015,1.585,0,2.156.577,2.167,2.162.005.743-.007,1.487,0,2.23a3.363,3.363,0,0,0,3.3,3.353,3.312,3.312,0,0,0,3.3-3.344c.012-.776-.006-1.551,0-2.327.017-1.465.608-2.066,2.061-2.072,2.359-.009,4.72-.026,7.079.013.635.011.83-.162.8-.8-.054-1.031-.049-2.069,0-3.1.029-.64-.121-.825-.8-.7a6.283,6.283,0,0,1-5.635-10.591,5.994,5.994,0,0,1,5.572-1.774c.713.129.883,0,.864-.713-.046-1.679-.026-3.361-.011-5.041.013-1.514.616-2.115,2.121-2.115q14.448-.006,28.9,0c1.515,0,2.1.593,2.1,2.126q.006,24.334,0,48.669c0,1.6-.594,2.155-2.276,2.155Q1635.065,336.2,1613,336.2Zm-.014-3.3c4.137,0,8.274-.021,12.411.019.74.007.915-.192.892-.907-.055-1.743-.029-3.489-.015-5.234.014-1.656.749-2.283,2.375-2.052.767.109,1.532.23,2.3.354a2.916,2.916,0,0,0,3.108-1.309,2.777,2.777,0,0,0,.049-3.2,2.923,2.923,0,0,0-3.069-1.4c-.8.106-1.593.258-2.392.37-1.625.229-2.354-.4-2.367-2.051-.014-1.809-.024-3.619.009-5.428.01-.541-.132-.717-.691-.7-1.583.037-3.17.071-4.75-.009-.936-.047-1.227.159-1.222,1.175a6.584,6.584,0,1,1-13.165-.181c.005-.816-.2-1.025-1.006-.992-1.646.068-3.3.042-4.944.008-.546-.012-.708.143-.7.695.033,1.874.029,3.748.007,5.622a1.714,1.714,0,0,1-2.175,1.893c-.9-.115-1.783-.3-2.679-.408a2.88,2.88,0,0,0-2.976,1.4,2.787,2.787,0,0,0,.047,3.2,2.916,2.916,0,0,0,3.011,1.327c.8-.107,1.594-.25,2.392-.371,1.617-.244,2.363.385,2.378,2.033.015,1.712.067,3.428-.022,5.137-.048.91.274,1.03,1.076,1.023C1604.91,332.873,1608.951,332.9,1612.991,332.9Zm-29.761,0c4.071,0,8.142-.021,12.212.017.8.007,1.187-.126,1.1-1.039a16.826,16.826,0,0,1-.005-2.71c.052-.8-.188-.976-.99-.826a6.295,6.295,0,1,1,.141-12.4c.658.115.874,0,.846-.679-.042-1.032-.048-2.069,0-3.1.032-.663-.227-.807-.84-.8-2.358.031-4.717.02-7.075.01-1.394-.006-2.016-.589-2.079-1.978-.041-.9.014-1.81-.019-2.713a3.108,3.108,0,0,0-2.921-3.054,3.19,3.19,0,0,0-3.566,2.563,17.628,17.628,0,0,0-.114,3.187c-.043,1.41-.6,1.988-2.02,1.994-2.294.01-4.588.035-6.881-.015-.773-.017-1.047.149-1.042.989q.054,9.787,0,19.574c0,.842.267,1,1.042.992C1575.089,332.876,1579.159,332.9,1583.23,332.9Zm59.628,0c4.1,0,8.21-.015,12.315.015.688.005.949-.124.946-.89q-.048-9.889,0-19.777c0-.779-.274-.893-.952-.882-2.326.037-4.654.022-6.981.011-1.413-.007-1.983-.586-2-2.007-.012-.807.029-1.617-.012-2.423a3.422,3.422,0,0,0-3.373-3.315,3.258,3.258,0,0,0-3.229,3.4c-.01.711.009,1.422,0,2.133-.031,1.626-.624,2.213-2.239,2.216-2.327,0-4.655.017-6.982-.01-.581-.007-.807.153-.78.76.044.968.051,1.94,0,2.907-.042.785.087,1.05,1,.885a6.292,6.292,0,1,1-.093,12.407c-.674-.12-.951-.023-.912.725a27.984,27.984,0,0,1,0,3c-.039.7.225.86.884.856C1634.583,332.883,1638.721,332.9,1642.858,332.9Zm.068-46.345c-4.135,0-8.271.022-12.406-.019-.781-.008-.974.221-.952.971.052,1.84.038,3.682.007,5.523a1.627,1.627,0,0,1-2.026,1.742c-.928-.114-1.846-.312-2.774-.424a2.871,2.871,0,0,0-2.978,1.39,2.829,2.829,0,0,0,.034,3.2,2.9,2.9,0,0,0,3.007,1.332c.8-.106,1.594-.248,2.391-.37,1.637-.25,2.344.352,2.354,2.033.011,1.777.025,3.553-.01,5.33-.012.613.135.848.8.828,1.581-.049,3.168-.072,4.748.006.9.044,1.092-.236,1.114-1.109a6.618,6.618,0,1,1,13.231.227c.005.648.132.9.84.877,1.646-.054,3.3-.049,4.942,0,.671.019.869-.16.867-.851q-.04-9.933,0-19.866c0-.711-.232-.837-.878-.833C1651.133,286.565,1647.03,286.551,1642.926,286.551Zm-59.614,0c-4.169,0-8.337.005-12.506-.006-.5,0-.826-.007-.823.687q.041,10.08,0,20.16c0,.576.2.7.728.69,1.583-.029,3.17-.068,4.749.011.911.046,1.168-.175,1.181-1.136a6.589,6.589,0,0,1,10.009-5.736,6.368,6.368,0,0,1,3.219,6c-.008.665.16.89.853.87,1.679-.05,3.361-.042,5.04,0,.605.014.768-.184.758-.77-.033-1.873-.028-3.748-.007-5.621a1.682,1.682,0,0,1,2.119-1.839c.83.117,1.659.252,2.486.391a2.913,2.913,0,0,0,3.12-1.275,2.822,2.822,0,0,0,.028-3.283,2.918,2.918,0,0,0-3.1-1.325c-.8.118-1.593.256-2.392.37-1.531.22-2.247-.387-2.262-1.949-.017-1.777-.039-3.555.013-5.33.021-.716-.164-.927-.9-.92C1591.52,286.571,1587.416,286.551,1583.312,286.551Z" transform="translate(0 -72.959)" fill="#010102"/>
      <path id="Trazado_651283" data-name="Trazado 651283" d="M1659.932,193.823q7.128,0,14.257,0c1.809,0,2.3.49,2.3,2.292,0,2.424.009,4.849,0,7.272-.008,1.709-.779,2.332-2.462,2.038q-1.145-.2-2.3-.358a2.862,2.862,0,0,0-2.993,1.353,2.9,2.9,0,0,0-.012,3.291,2.93,2.93,0,0,0,3.079,1.382c.9-.122,1.782-.314,2.68-.408a1.619,1.619,0,0,1,2,1.768q.038,3.781,0,7.563c-.012,1.323-.636,1.926-1.992,1.939-2.133.021-4.267.005-6.4.006-1.519,0-1.521,0-1.531,1.492a6.375,6.375,0,0,1-3.528,6.012,6.591,6.591,0,0,1-9.688-5.6c-.077-1.9-.077-1.9-2-1.9-1.94,0-3.88.009-5.819,0-1.515-.009-2.109-.6-2.117-2.11q-.018-3.587,0-7.175c.01-1.565.7-2.159,2.258-1.958.736.1,1.469.217,2.2.347a3,3,0,0,0,3.231-1.245,3.044,3.044,0,0,0-3.087-4.731c-.763.131-1.529.249-2.295.368-1.507.232-2.3-.417-2.307-1.93q-.02-3.83,0-7.66c.008-1.48.573-2.036,2.066-2.038Q1652.707,193.814,1659.932,193.823Zm.071,3.315c-4.073,0-8.146.034-12.218-.025-.932-.014-1.142.287-1.074,1.129a13.823,13.823,0,0,1,0,2.518c-.1.971.2,1.171,1.156,1.023a6.347,6.347,0,1,1-.478,12.526c-.526-.083-.687.007-.67.543.032,1,.051,2.006-.006,3-.037.66.2.813.823.8,2.262-.033,4.525-.016,6.788-.012,1.8,0,2.322.52,2.327,2.288,0,.9-.019,1.81.005,2.715a3.3,3.3,0,0,0,6.6,0c.022-.872,0-1.745,0-2.617,0-1.9.5-2.383,2.425-2.384,2.263,0,4.525-.016,6.788.01.543.006.745-.143.721-.705-.04-.968-.052-1.941,0-2.907.04-.719-.16-.813-.866-.7a6.35,6.35,0,0,1-6.726-9.068,6.193,6.193,0,0,1,6.627-3.47c.752.11,1.026-.038.968-.844a22.214,22.214,0,0,1,0-3c.046-.715-.226-.838-.875-.833C1668.214,197.153,1664.109,197.139,1660,197.139Z" transform="translate(-46.903 -18.283)" fill="#030302"/>
      <path id="Trazado_651284" data-name="Trazado 651284" d="M1684.992,168.11c0,1.13-.027,2.261.011,3.39.021.6-.208.757-.785.77-2.635.06-2.635.077-2.635-2.591,0-1.647.025-3.294-.012-4.939-.014-.643.207-.811.835-.816,2.587-.022,2.586-.044,2.586,2.54Z" transform="translate(-70.239 0)" fill="#030302"/>
      <path id="Trazado_651285" data-name="Trazado 651285" d="M1617.633,231.149c-1.13,0-2.261-.023-3.39.01-.546.016-.707-.168-.725-.715-.086-2.6-.1-2.6,2.512-2.6,1.679,0,3.358.021,5.037-.011.581-.011.772.163.786.763.06,2.551.08,2.551-2.476,2.551Z" transform="translate(-28.615 -39.08)" fill="#030302"/>
      <path id="Trazado_651286" data-name="Trazado 651286" d="M1741.054,231.147c-1.13,0-2.261-.022-3.39.009-.537.015-.718-.157-.739-.711-.1-2.6-.118-2.6,2.424-2.6,1.711,0,3.423.022,5.134-.012.586-.011.767.16.778.761.047,2.554.068,2.553-2.463,2.553Z" transform="translate(-104.065 -39.078)" fill="#030302"/>
      <path id="Trazado_651287" data-name="Trazado 651287" d="M1739.938,176.338a4.129,4.129,0,0,1-.333.371c-1.583,1.374-3.181,2.73-4.746,4.124-.445.4-.728.384-1.086-.088-.485-.639-1.384-1.208-1.44-1.864-.061-.72,1.033-1.1,1.607-1.642,1.054-1,2.187-1.907,3.258-2.886.421-.385.724-.444,1.1.041.415.534.885,1.024,1.328,1.537C1739.729,176.048,1739.817,176.178,1739.938,176.338Z" transform="translate(-101.276 -6.192)" fill="#030302"/>
      <path id="Trazado_651288" data-name="Trazado 651288" d="M1625.172,180.353a.583.583,0,0,1-.549-.276q-2.13-2.432-4.257-4.866c-.231-.263-.3-.484.031-.713a3.9,3.9,0,0,0,.365-.316c1.814-1.627,1.806-1.62,3.388.279.926,1.112,1.859,2.221,2.842,3.282.457.493.363.791-.106,1.16C1626.284,179.379,1625.711,179.895,1625.172,180.353Z" transform="translate(-32.698 -5.55)" fill="#030302"/>
      <path id="Trazado_651289" data-name="Trazado 651289" d="M1652.041,377.113c-4.04,0-8.08-.022-12.12.019-.8.008-1.123-.112-1.075-1.023.09-1.708.037-3.424.022-5.137-.014-1.648-.761-2.277-2.378-2.033-.8.12-1.592.263-2.392.371a2.916,2.916,0,0,1-3.011-1.327,2.787,2.787,0,0,1-.047-3.2,2.88,2.88,0,0,1,2.976-1.4c.9.109,1.784.293,2.68.408a1.714,1.714,0,0,0,2.175-1.893c.023-1.874.027-3.749-.007-5.622-.01-.551.152-.706.7-.695,1.647.034,3.3.059,4.944-.008.8-.033,1.011.176,1.006.992a6.584,6.584,0,1,0,13.165.181c-.005-1.016.285-1.222,1.222-1.175,1.58.08,3.167.046,4.75.009.559-.013.7.162.691.7-.033,1.809-.023,3.619-.009,5.428.012,1.653.742,2.28,2.367,2.051.8-.112,1.592-.265,2.392-.37a2.923,2.923,0,0,1,3.069,1.4,2.777,2.777,0,0,1-.049,3.2,2.916,2.916,0,0,1-3.108,1.309c-.765-.124-1.53-.245-2.3-.354-1.626-.23-2.36.4-2.375,2.052-.015,1.745-.04,3.491.015,5.234.022.715-.153.914-.893.907C1660.315,377.092,1656.178,377.113,1652.041,377.113Z" transform="translate(-39.05 -117.178)" fill="#dbe4f9"/>
      <path id="Trazado_651290" data-name="Trazado 651290" d="M1588.4,364.949c-4.071,0-8.141-.02-12.212.017-.774.007-1.046-.151-1.041-.992q.055-9.787,0-19.574c0-.84.269-1.006,1.042-.989,2.293.049,4.588.025,6.881.015,1.417-.007,1.977-.584,2.02-1.994a17.617,17.617,0,0,1,.114-3.187,3.189,3.189,0,0,1,3.566-2.563,3.108,3.108,0,0,1,2.921,3.054c.034.9-.021,1.81.02,2.713.063,1.39.685,1.972,2.079,1.978,2.358.01,4.717.021,7.075-.01.613-.008.872.136.84.8-.05,1.031-.045,2.068,0,3.1.028.68-.189.794-.846.679a6.295,6.295,0,1,0-.141,12.4c.8-.15,1.042.021.99.826a16.84,16.84,0,0,0,.005,2.71c.089.913-.294,1.046-1.1,1.039C1596.539,364.928,1592.468,364.949,1588.4,364.949Z" transform="translate(-5.167 -105.012)" fill="#52599b"/>
      <path id="Trazado_651291" data-name="Trazado 651291" d="M1741.775,364.966c-4.137,0-8.275-.013-12.412.014-.659,0-.923-.155-.884-.856a27.984,27.984,0,0,0,0-3c-.039-.749.238-.845.911-.725a6.292,6.292,0,1,0,.093-12.407c-.917.165-1.046-.1-1-.885.052-.967.045-1.94,0-2.907-.028-.608.2-.767.78-.76,2.327.028,4.654.015,6.981.01,1.615,0,2.208-.591,2.239-2.216.013-.711-.006-1.422,0-2.133a3.258,3.258,0,0,1,3.229-3.4,3.421,3.421,0,0,1,3.373,3.315c.041.806,0,1.616.012,2.423.021,1.421.59,2,2,2.007,2.327.011,4.655.026,6.981-.011.677-.011.956.1.952.882q-.05,9.888,0,19.777c0,.766-.257.9-.945.89C1749.986,364.951,1745.88,364.966,1741.775,364.966Z" transform="translate(-98.918 -105.03)" fill="#52599b"/>
      <path id="Trazado_651292" data-name="Trazado 651292" d="M1728.878,291.721c4.1,0,8.207.014,12.31-.014.646,0,.881.122.879.833q-.043,9.932,0,19.866c0,.691-.2.87-.866.851-1.646-.047-3.3-.052-4.942,0-.708.023-.834-.228-.84-.877a6.618,6.618,0,1,0-13.23-.227c-.023.872-.218,1.153-1.115,1.109-1.579-.078-3.166-.055-4.748-.006-.664.021-.811-.215-.8-.828.035-1.776.021-3.553.01-5.33-.01-1.681-.717-2.283-2.354-2.033-.8.122-1.592.264-2.391.37a2.9,2.9,0,0,1-3.007-1.332,2.83,2.83,0,0,1-.034-3.2,2.871,2.871,0,0,1,2.978-1.39c.928.112,1.846.309,2.774.424a1.627,1.627,0,0,0,2.026-1.742c.031-1.841.045-3.683-.007-5.523-.021-.75.171-.978.952-.971C1720.607,291.743,1724.743,291.721,1728.878,291.721Z" transform="translate(-85.952 -78.13)" fill="#4eabd5"/>
      <path id="Trazado_651293" data-name="Trazado 651293" d="M1588.488,291.723c4.1,0,8.208.02,12.312-.018.741-.007.926.2.9.92-.051,1.775-.029,3.554-.013,5.33.015,1.561.731,2.169,2.262,1.949.8-.115,1.594-.252,2.392-.37a2.918,2.918,0,0,1,3.1,1.325,2.822,2.822,0,0,1-.028,3.283,2.913,2.913,0,0,1-3.12,1.275c-.827-.138-1.656-.274-2.486-.391a1.682,1.682,0,0,0-2.119,1.839c-.021,1.874-.027,3.748.007,5.621.01.586-.152.784-.758.77-1.679-.038-3.361-.047-5.04,0-.693.021-.861-.2-.853-.87a6.368,6.368,0,0,0-3.219-6,6.589,6.589,0,0,0-10.009,5.736c-.013.961-.27,1.182-1.181,1.136-1.58-.079-3.166-.04-4.749-.011-.527.009-.729-.114-.728-.69q.029-10.08,0-20.16c0-.694.323-.688.823-.687C1580.151,291.728,1584.32,291.723,1588.488,291.723Z" transform="translate(-5.176 -78.131)" fill="#4eabd5"/>
      <path id="Trazado_651294" data-name="Trazado 651294" d="M1665.172,202.318c4.105,0,8.211.014,12.316-.014.649,0,.922.118.875.833a22.175,22.175,0,0,0,0,3c.057.806-.216.954-.969.844a6.193,6.193,0,0,0-6.627,3.47,6.35,6.35,0,0,0,6.726,9.068c.706-.108.906-.015.866.7-.054.966-.043,1.939,0,2.907.023.562-.178.711-.721.705-2.263-.026-4.525-.012-6.788-.01-1.93,0-2.422.486-2.425,2.384,0,.872.017,1.745,0,2.617a3.3,3.3,0,0,1-6.6,0c-.025-.9,0-1.81-.006-2.715-.005-1.768-.528-2.285-2.327-2.288-2.263,0-4.526-.021-6.788.012-.621.009-.86-.143-.823-.8.056-1,.038-2,.006-3-.017-.537.144-.626.67-.543a6.347,6.347,0,1,0,.478-12.526c-.957.147-1.257-.052-1.156-1.023a13.845,13.845,0,0,0,0-2.518c-.068-.842.142-1.142,1.074-1.129C1657.026,202.351,1661.1,202.318,1665.172,202.318Z" transform="translate(-52.073 -23.462)" fill="#f3ca56"/>
    </g>
  </g>
</svg>
