<svg xmlns="http://www.w3.org/2000/svg" width="111.679" height="111.679" viewBox="0 0 111.679 111.679">
  <g id="Grupo_989447" data-name="Grupo 989447" transform="translate(-1053.661 -1365.16)">
    <g id="Grupo_985927" data-name="Grupo 985927" transform="translate(618.661 -2975.84)">
      <circle id="Elipse_7706" data-name="Elipse 7706" cx="55.839" cy="55.839" r="55.839" transform="translate(435 4341)" fill="#006475"/>
    </g>
    <g id="Grupo_991938" data-name="Grupo 991938" transform="translate(629.865 839.99)">
      <path id="Trazado_651245" data-name="Trazado 651245" d="M463.559,626.275q-10.7,0-21.4,0c-4.721,0-7.8-3.076-7.8-7.786q0-17.061,0-34.122c0-4.637,3.108-7.738,7.761-7.755,2.034-.007,4.069-.028,6.1.014.638.013.769-.193.765-.793q-.039-6.011-.009-12.022a7.258,7.258,0,0,1,5.845-7.467,10.267,10.267,0,0,1,2.023-.143c2.947-.015,5.9-.027,8.843.009.672.008.838-.191.833-.846-.03-3.948-.02-7.9-.013-11.845.008-4.732,3.064-7.773,7.8-7.774q21.4,0,42.8,0c4.733,0,7.806,3.064,7.807,7.782q0,17.061,0,34.122a7.349,7.349,0,0,1-7.759,7.758c-2.977.01-5.955.03-8.931-.018-.731-.012-.848.229-.843.884.029,3.948.019,7.9.013,11.845a7.3,7.3,0,0,1-7.621,7.7c-2.063.021-4.127.031-6.19-.012-.675-.015-.836.2-.831.848.029,3.948.02,7.9.013,11.845-.009,4.731-3.066,7.771-7.807,7.772Q474.259,626.277,463.559,626.275Zm14.63-23.355q10.7,0,21.393,0c3.108,0,4.867-1.757,4.868-4.873q.006-17.011,0-34.022c0-3.183-1.738-4.924-4.9-4.925q-21.394,0-42.786,0c-3.09,0-4.884,1.789-4.885,4.871q0,17.011,0,34.022c0,3.15,1.774,4.926,4.919,4.927Q467.492,602.922,478.189,602.92ZM463.547,623.34q10.744,0,21.489,0c3.055,0,4.831-1.778,4.835-4.827,0-3.89-.031-7.78.025-11.669.013-.9-.274-1.041-1.09-1.039q-15.917.041-31.835.016a10.028,10.028,0,0,1-2.2-.147,7.267,7.267,0,0,1-5.792-7.429q-.027-8.928.01-17.857c0-.658-.162-.854-.833-.838-1.974.046-3.955.111-5.923-.006a4.621,4.621,0,0,0-4.979,4.981c.078,11.285.029,22.571.032,33.857,0,3.255,1.7,4.957,4.95,4.958Q452.891,623.342,463.547,623.34Zm32.192-84.65q-10.832,0-21.665,0a4.364,4.364,0,0,0-4.672,4.625c-.013,4.007.011,8.015-.018,12.022,0,.659.177.85.842.848q10.832-.033,21.664,0c.7,0,.889-.2.884-.891-.029-4.272,0-8.545-.033-12.817-.006-.745.208-.919.931-.917q12.247.038,24.494,0c.718,0,.934.15.931.9-.032,6.806-.018,13.612-.019,20.419,0,2.21.04,4.421-.019,6.629a4.38,4.38,0,1,1-3.638-4.482c.563.1.72.007.718-.569q-.027-6.674,0-13.347c0-.57-.159-.756-.743-.754q-9.506.027-19.012,0c-.568,0-.691.2-.68.716.03,1.414.051,2.83-.007,4.242-.029.723.23.878.9.87a23.571,23.571,0,0,1,4.94.151,7.294,7.294,0,0,1,5.853,7.393q.017,8.927-.013,17.855c0,.692.173.889.873.879,2.977-.04,5.954-.012,8.931-.018,3.034-.006,4.784-1.735,4.786-4.757q.01-17.1,0-34.209c0-3.081-1.734-4.792-4.834-4.793Q506.439,538.686,495.739,538.69Zm10.163,8.729h8.312c1.924,0,1.885,0,1.936-1.93.021-.78-.193-.987-.977-.982-5.806.035-11.612.019-17.418.019-2.056,0-2.026,0-2.054,2.08-.009.662.166.838.83.831C499.654,547.4,502.778,547.419,505.9,547.419Zm10.216,21.921a1.387,1.387,0,0,0-1.443-1.442,1.434,1.434,0,1,0,1.443,1.442Z" fill="#1f1a17"/>
      <path id="Trazado_651246" data-name="Trazado 651246" d="M510.118,645.476q-10.7,0-21.393,0c-3.145,0-4.919-1.777-4.919-4.927q0-17.011,0-34.022c0-3.081,1.795-4.87,4.885-4.871q21.393,0,42.786,0c3.165,0,4.9,1.742,4.9,4.925q0,17.011,0,34.022c0,3.116-1.76,4.872-4.868,4.873Q520.814,645.478,510.118,645.476Zm16.405-21.911-28.042-14.013v28.029Zm-39.776-10.649v4.147c0,2.128,0,2.1,2.157,2.121.647.007.759-.2.754-.794-.028-3.382,0-6.765-.029-10.147-.006-.634.182-.8.79-.768.968.05,1.941.014,2.912.014,2.192,0,2.165,0,2.17-2.187,0-.608-.2-.721-.752-.71-1.618.032-3.236,0-4.854.013a2.864,2.864,0,0,0-3.145,3.105C486.734,609.445,486.747,611.181,486.747,612.916Zm43.784,13.559c0,1.491,0,1.491,1.451,1.491,1.507,0,1.507,0,1.507-1.513,0-1.449,0-1.449-1.484-1.449S530.531,625,530.531,626.475Zm2.958,5.852c0-1.483,0-1.483-1.452-1.483h-.088c-1.419,0-1.419,0-1.419,1.439,0,1.522,0,1.522,1.507,1.522C533.49,633.805,533.49,633.805,533.49,632.327Zm0,5.847c0-1.489,0-1.489-1.469-1.489-1.489,0-1.489,0-1.489,1.48s0,1.48,1.48,1.48S533.49,639.644,533.49,638.174Zm-43.845-14.543c0-1.51,0-1.51-1.512-1.51-1.385,0-1.385,0-1.385,1.379,0,1.51,0,1.51,1.519,1.51C489.644,625.01,489.644,625.01,489.644,623.631Zm-2.9,5.69c0,1.529,0,1.529,1.5,1.529,1.4,0,1.4,0,1.4-1.362,0-1.527,0-1.527-1.494-1.527C486.747,627.961,486.747,627.96,486.747,629.321Z" transform="translate(-31.929 -42.555)" fill="#e4e7ea"/>
      <path id="Trazado_651247" data-name="Trazado 651247" d="M468.834,703.127q-10.656,0-21.312,0c-3.248,0-4.949-1.7-4.95-4.958,0-11.286.047-22.572-.031-33.857a4.621,4.621,0,0,1,4.979-4.981c1.968.117,3.949.052,5.923.006.671-.016.836.18.833.838q-.038,8.928-.01,17.857a7.267,7.267,0,0,0,5.792,7.429,10.027,10.027,0,0,0,2.2.147q15.917,0,31.835-.016c.816,0,1.1.143,1.09,1.039-.056,3.889-.021,7.779-.025,11.669,0,3.049-1.78,4.825-4.835,4.827Q479.578,703.132,468.834,703.127Zm8.047-5.836h13.347c1.984,0,1.948,0,2-1.95.02-.749-.139-.98-.946-.977q-13.744.051-27.49.013c-.723,0-1.685.335-2.105-.159-.354-.416-.153-1.349-.109-2.048.038-.6-.186-.744-.75-.736-2.033.028-4.066.011-6.1.011-1.951,0-1.951,0-1.956,1.992a1.732,1.732,0,0,0,0,.265c.081.534-.121.711-.676.7-1.472-.039-2.946-.013-4.419-.013-2.262,0-2.238,0-2.214,2.243.006.571.2.682.713.672q2.165-.044,4.331,0c.729.013,1.658-.319,2.13.15.434.43.137,1.349.118,2.049-.016.574.149.753.739.742,1.973-.037,3.948,0,5.922-.023.695-.009,1.614.325,2.02-.155.34-.4.163-1.293.109-1.96-.055-.684.191-.829.839-.825C467.216,697.3,472.048,697.292,476.88,697.292Zm-29.938-29.208c1.477,0,1.477,0,1.477-1.388,0-1.506,0-1.506-1.531-1.506-1.411,0-1.411,0-1.411,1.429C445.477,668.084,445.477,668.084,446.942,668.084Zm-1.465,4.316c0,1.526,0,1.526,1.494,1.526h.088c1.36,0,1.36,0,1.36-1.332,0-1.564,0-1.564-1.56-1.564C445.477,671.03,445.477,671.03,445.477,672.4ZM447,676.869c-1.521,0-1.521,0-1.521,1.494,0,1.4,0,1.4,1.442,1.4,1.5,0,1.5,0,1.5-1.458C448.419,676.869,448.419,676.869,447,676.869Z" transform="translate(-5.286 -79.788)" fill="#f3d47e"/>
      <path id="Trazado_651248" data-name="Trazado 651248" d="M559.571,544.054q10.7,0,21.4,0c3.1,0,4.833,1.712,4.834,4.793q.008,17.1,0,34.209c0,3.022-1.753,4.751-4.786,4.757-2.977.006-5.954-.022-8.931.018-.7.01-.877-.188-.873-.879q.041-8.927.013-17.855a7.294,7.294,0,0,0-5.853-7.393,23.58,23.58,0,0,0-4.94-.151c-.67.008-.93-.147-.9-.87.058-1.412.037-2.828.007-4.242-.011-.519.112-.718.68-.716q9.506.029,19.012,0c.584,0,.746.184.743.754q-.03,6.673,0,13.348c0,.577-.155.673-.718.569a4.352,4.352,0,0,0-5.1,3.918,4.38,4.38,0,1,0,8.739.565c.058-2.208.018-4.419.019-6.629,0-6.806-.013-13.613.019-20.419,0-.755-.213-.907-.93-.9q-12.247.039-24.494,0c-.723,0-.938.172-.931.917.037,4.272,0,8.545.033,12.817,0,.689-.182.894-.884.891q-10.832-.037-21.664,0c-.665,0-.847-.189-.842-.848.029-4.007.005-8.014.018-12.022a4.364,4.364,0,0,1,4.672-4.625Q548.739,544.044,559.571,544.054Zm-14.689,5.84h6.72c2.123,0,2.088,0,2.127-2.1.013-.725-.227-.864-.9-.861-4.834.027-9.668.015-14.5.015-2.206,0-2.182,0-2.168,2.22,0,.6.2.746.76.741C539.576,549.881,542.229,549.894,544.882,549.894Zm.034,5.842h6.72c2.1,0,2.066,0,2.09-2.139.008-.669-.182-.833-.839-.83-4.863.028-9.726.015-14.59.015-2.154,0-2.131,0-2.132,2.169,0,.613.172.805.793.8C539.61,555.718,542.263,555.736,544.916,555.736Z" transform="translate(-63.832 -5.364)" fill="#6fcaae"/>
      <path id="Trazado_651249" data-name="Trazado 651249" d="M617.685,563.386c-3.124,0-6.248-.02-9.372.016-.665.008-.839-.169-.83-.831.028-2.079,0-2.08,2.054-2.08,5.806,0,11.612.016,17.418-.019.785,0,1,.2.977.982-.051,1.929-.011,1.93-1.936,1.93Z" transform="translate(-111.783 -15.966)" fill="#70cbae"/>
      <path id="Trazado_651250" data-name="Trazado 651250" d="M659.865,627.929a1.4,1.4,0,0,1-1.466,1.426,1.434,1.434,0,0,1,.023-2.868A1.387,1.387,0,0,1,659.865,627.929Z" transform="translate(-143.747 -58.589)" fill="#6ec7ab"/>
      <path id="Trazado_651251" data-name="Trazado 651251" d="M553.265,637.954,525.223,651.97V623.941Zm-6.66.068c-.108-.135-.133-.2-.178-.218q-8.874-4.441-17.748-8.884c-.59-.3-.62-.038-.617.444.013,2,.005,4.005.005,6.008q0,5.478,0,10.956c0,.951,0,.952.884.516q.949-.47,1.9-.943Z" transform="translate(-58.671 -56.945)" fill="#201a17"/>
      <path id="Trazado_651252" data-name="Trazado 651252" d="M492.1,618.266c0-1.736-.013-3.471,0-5.206a2.864,2.864,0,0,1,3.144-3.105c1.618-.01,3.237.019,4.854-.013.548-.011.753.1.752.71-.005,2.187.021,2.187-2.17,2.187-.971,0-1.944.036-2.912-.014-.608-.031-.8.133-.79.768.033,3.382,0,6.765.029,10.147,0,.591-.107.8-.754.794-2.156-.023-2.157.006-2.157-2.121Q492.1,620.34,492.1,618.266Z" transform="translate(-37.283 -47.906)" fill="#1d1714"/>
      <path id="Trazado_651253" data-name="Trazado 651253" d="M615.672,669.02c0-1.471,0-1.471,1.474-1.471s1.484,0,1.484,1.449c0,1.513,0,1.513-1.507,1.513C615.672,670.511,615.672,670.511,615.672,669.02Z" transform="translate(-117.07 -85.101)" fill="#28221f"/>
      <path id="Trazado_651254" data-name="Trazado 651254" d="M618.63,685.513c0,1.479,0,1.479-1.451,1.479-1.507,0-1.507,0-1.507-1.522,0-1.439,0-1.439,1.418-1.439h.088C618.63,684.03,618.63,684.03,618.63,685.513Z" transform="translate(-117.07 -95.742)" fill="#28221f"/>
      <path id="Trazado_651255" data-name="Trazado 651255" d="M618.63,702c0,1.471,0,1.471-1.478,1.471s-1.48,0-1.48-1.48,0-1.48,1.489-1.48C618.63,700.513,618.63,700.513,618.63,702Z" transform="translate(-117.07 -106.384)" fill="#28221f"/>
      <path id="Trazado_651256" data-name="Trazado 651256" d="M495.005,660.923c0,1.379,0,1.379-1.378,1.379-1.519,0-1.519,0-1.519-1.51,0-1.379,0-1.379,1.385-1.379C495.005,659.413,495.005,659.413,495.005,660.923Z" transform="translate(-37.29 -79.848)" fill="#1d1714"/>
      <path id="Trazado_651257" data-name="Trazado 651257" d="M492.108,677.253c0-1.361,0-1.36,1.4-1.361,1.494,0,1.494,0,1.494,1.527,0,1.362,0,1.362-1.4,1.362C492.108,678.782,492.108,678.782,492.108,677.253Z" transform="translate(-37.29 -90.487)" fill="#1d1714"/>
      <path id="Trazado_651258" data-name="Trazado 651258" d="M482.2,755.808c-4.832,0-9.664.012-14.5-.015-.648,0-.894.141-.839.825.054.666.231,1.558-.109,1.96-.406.48-1.325.146-2.02.155-1.974.026-3.948-.014-5.922.023-.59.011-.755-.168-.739-.742.019-.7.316-1.619-.118-2.049-.473-.469-1.4-.137-2.13-.15q-2.165-.039-4.331,0c-.514.01-.707-.1-.713-.672-.025-2.243-.048-2.243,2.214-2.243,1.473,0,2.947-.026,4.419.013.555.015.758-.162.676-.7a1.731,1.731,0,0,1,0-.265c0-1.992,0-1.992,1.956-1.992,2.033,0,4.066.017,6.1-.011.564-.008.788.132.75.736-.044.7-.245,1.631.109,2.048.42.494,1.382.158,2.105.159q13.745.019,27.49-.013c.807,0,.966.228.946.977-.051,1.949-.015,1.95-2,1.95Zm-18.268-1.394c0-1.51,0-1.51-1.494-1.51h-.088c-1.31,0-1.31,0-1.31,1.338,0,1.566,0,1.566,1.531,1.566C463.93,755.808,463.93,755.808,463.93,754.413Z" transform="translate(-10.603 -138.304)" fill="#1f1915"/>
      <path id="Trazado_651259" data-name="Trazado 651259" d="M452.3,678.78c-1.465,0-1.465,0-1.465-1.465,0-1.429,0-1.429,1.411-1.429,1.531,0,1.531,0,1.531,1.506C453.772,678.78,453.772,678.78,452.3,678.78Z" transform="translate(-10.639 -90.483)" fill="#231c17"/>
      <path id="Trazado_651260" data-name="Trazado 651260" d="M450.83,693.736c0-1.37,0-1.37,1.382-1.37,1.56,0,1.56,0,1.56,1.564,0,1.332,0,1.332-1.36,1.332h-.088C450.83,695.262,450.83,695.262,450.83,693.736Z" transform="translate(-10.639 -101.124)" fill="#231c17"/>
      <path id="Trazado_651261" data-name="Trazado 651261" d="M452.351,708.845c1.421,0,1.421,0,1.421,1.439,0,1.458,0,1.458-1.5,1.458-1.442,0-1.442,0-1.442-1.4C450.83,708.845,450.83,708.845,452.351,708.845Z" transform="translate(-10.639 -111.763)" fill="#231c17"/>
      <path id="Trazado_651262" data-name="Trazado 651262" d="M550.248,555.136c-2.653,0-5.305-.013-7.958.011-.564.005-.757-.143-.76-.741-.014-2.22-.038-2.22,2.168-2.22,4.834,0,9.668.012,14.5-.015.669,0,.909.136.9.861-.039,2.1,0,2.1-2.127,2.1Z" transform="translate(-69.198 -10.606)" fill="#1f1c18"/>
      <path id="Trazado_651263" data-name="Trazado 651263" d="M550.289,571.616c-2.653,0-5.306-.018-7.958.013-.621.008-.793-.185-.793-.8,0-2.169-.022-2.169,2.132-2.169,4.863,0,9.727.013,14.59-.015.657,0,.847.161.84.83-.024,2.138,0,2.139-2.09,2.139Z" transform="translate(-69.205 -21.244)" fill="#1f1c18"/>
      <path id="Trazado_651264" data-name="Trazado 651264" d="M551.78,646.864l-15.757,7.878q-.947.474-1.9.943c-.88.436-.884.436-.884-.516q0-5.478,0-10.956c0-2,.007-4.005-.005-6.008,0-.482.026-.741.617-.444q8.867,4.456,17.748,8.884C551.646,646.668,551.671,646.729,551.78,646.864Z" transform="translate(-63.845 -65.787)" fill="#ec8672"/>
      <path id="Trazado_651265" data-name="Trazado 651265" d="M482.631,759.793c0,1.394,0,1.394-1.36,1.394-1.531,0-1.531,0-1.531-1.566,0-1.338,0-1.338,1.31-1.338h.088C482.631,758.283,482.631,758.283,482.631,759.793Z" transform="translate(-29.305 -143.683)" fill="#e5e8eb"/>
    </g>
  </g>
</svg>
