<svg xmlns="http://www.w3.org/2000/svg" width="295" height="295" viewBox="0 0 295 295">
  <g id="Grupo_995461" data-name="Grupo 995461" transform="translate(-1125 -7689)">
    <circle id="Elipse_8085" data-name="Elipse 8085" cx="147.5" cy="147.5" r="147.5" transform="translate(1125 7689)" fill="#00d0b8"/>
    <g id="Grupo_991934" data-name="Grupo 991934" transform="translate(-125.785 7336.143)">
      <path id="Trazado_651197" data-name="Trazado 651197" d="M1328.581,534.066c-1.963-.011-4.466.7-5.732-.245-1.2-.9-.335-3.561-.351-5.443-.047-5.984-.034-11.968-.013-17.952a15.216,15.216,0,0,1,11.892-15.279c3.691-.938,7.4-1.8,11.083-2.77.514-.135,1.4.068,1.463-.875a2.15,2.15,0,0,0-.789-2.152,13.694,13.694,0,0,1-5.312-11.3c0-5.666-.031-11.332.005-17a18.366,18.366,0,0,1,18.43-18.613c10.157.041,18.15,8.191,18.247,18.609.01,1.077,0,2.155,0,3.452,3.956-.994,7.793-1.851,11.556-2.961,1.323-.391.973-1.789.2-2.387-4.79-3.71-5.885-8.742-5.681-14.432.176-4.9-.015-9.8.052-14.7a18.306,18.306,0,0,1,36.054-4.339,14.9,14.9,0,0,1,.561,3.565c.056,6.429.126,12.86-.005,19.287a13.09,13.09,0,0,1-5.021,10.092,2.3,2.3,0,0,0-1.04,2.224c.126,1.167,1.163.844,1.766,1.007,3.421.926,6.877,1.728,10.438,2.6.095-2.943-.081-5.734.685-8.481,2.423-8.687,10.976-14.576,19.677-13.45a18.333,18.333,0,0,1,16.316,17.754c.109,6.109.079,12.222.008,18.333a13.386,13.386,0,0,1-5.123,10.627,2.25,2.25,0,0,0-.956,2.26c.132,1.013,1.083.749,1.65.9,3.617.972,7.266,1.825,10.9,2.752a15.221,15.221,0,0,1,11.894,15.28c.023,7.385-.024,14.769.034,22.153.009,1.224-.272,1.678-1.551,1.57-1.518-.129-3.051-.064-4.578-.082q-.008-11.549-.018-23.1c-.006-5.512-2.578-8.75-7.958-10.081q-6.75-1.67-13.489-3.39c-2.364-.6-2.99-1.424-3.005-3.9-.009-1.463.072-2.932-.021-4.389a3.953,3.953,0,0,1,2.242-4.035,7.5,7.5,0,0,0,3.874-6.8c.047-5.981.09-11.963-.013-17.943a12.2,12.2,0,0,0-24.4.058c-.09,5.979-.042,11.961-.012,17.942.012,2.417.786,4.8,2.871,5.936,3.093,1.69,3.543,4.164,3.239,7.188-.07.693,0,1.4-.011,2.1-.026,2.419-.648,3.243-3.064,3.864-4.858,1.25-9.734,2.428-14.585,3.7a8.12,8.12,0,0,0-6.27,6.058c-.507,2.189-1.441,2.77-3.4,2.43a.657.657,0,0,0-.189.023c-.316-.025-.632-.065-.949-.074-2.275-.068-2.306-.073-1.824-2.354,1.352-6.4,5.257-10.434,11.534-12.137,3.614-.981,7.276-1.786,10.9-2.74.631-.166,1.633.082,1.739-1.06a2.147,2.147,0,0,0-.918-2.1,13.362,13.362,0,0,1-4.937-8.335,35.69,35.69,0,0,1-.208-7.8c.064-1.763-.4-2.52-2.2-2.909-4.53-.977-9-2.213-13.5-3.333a3.171,3.171,0,0,1-2.688-3.41c.013-1.592.077-3.188-.018-4.773a3.945,3.945,0,0,1,2.206-4.055,7.333,7.333,0,0,0,3.9-6.585c.074-6.174.148-12.352-.023-18.522a12.191,12.191,0,0,0-24.356.15c-.129,6.108-.066,12.221-.018,18.332a6.747,6.747,0,0,0,3.256,6.143c2.491,1.384,3.116,3.286,2.846,5.837a20.2,20.2,0,0,0-.011,2.1c0,3.746-.413,4.252-4.126,5.161-4.254,1.042-8.5,2.122-12.762,3.131a1.621,1.621,0,0,0-1.482,1.956c.106,1.84.018,3.691.03,5.536a13.888,13.888,0,0,1-5.331,11.5,2.1,2.1,0,0,0-.789,1.971c.031,1.1,1,.863,1.551,1.009,3.745.992,7.534,1.822,11.27,2.842A15.065,15.065,0,0,1,1395.281,506c1.044,3.481,1,3.5-2.492,3.732a16.2,16.2,0,0,0-1.714-.023c-.884.077-1.3-.135-1.5-1.149-.838-4.269-3.565-6.69-7.748-7.676-4.636-1.093-9.246-2.295-13.869-3.439a3.167,3.167,0,0,1-2.686-3.41c.013-1.591.076-3.186-.017-4.771a3.954,3.954,0,0,1,2.2-4.061,7.465,7.465,0,0,0,3.917-6.772c.054-6.044.109-12.091-.018-18.133a12.2,12.2,0,0,0-24.385.14c-.1,5.979-.042,11.962-.017,17.943.01,2.492.825,4.9,2.978,6.08,2.94,1.619,3.429,3.949,3.136,6.852-.076.756-.006,1.526-.012,2.289-.022,2.462-.637,3.3-3.01,3.909-4.491,1.148-8.99,2.263-13.49,3.376-5.405,1.336-7.949,4.545-7.954,10.078Q1328.588,522.517,1328.581,534.066Z" transform="translate(-3.666 0)" fill="#020202"/>
      <path id="Trazado_651198" data-name="Trazado 651198" d="M1330.53,545.3q.008-11.548.017-23.1c.005-5.533,2.549-8.742,7.954-10.078,4.5-1.113,9-2.228,13.49-3.376,2.373-.606,2.988-1.447,3.01-3.909.006-.763-.063-1.534.012-2.289.292-2.9-.2-5.234-3.136-6.852-2.152-1.185-2.968-3.588-2.978-6.08-.025-5.981-.081-11.963.017-17.943a12.2,12.2,0,0,1,24.385-.14c.127,6.042.073,12.089.018,18.133a7.465,7.465,0,0,1-3.917,6.772,3.954,3.954,0,0,0-2.2,4.061c.093,1.585.03,3.18.017,4.771a3.167,3.167,0,0,0,2.686,3.41c4.623,1.144,9.234,2.346,13.869,3.439,4.183.986,6.911,3.407,7.748,7.676.2,1.014.614,1.226,1.5,1.149a16.234,16.234,0,0,1,1.714.023q.014,2,.028,4c-1.8.585-3.648,1.074-5.407,1.772a40.149,40.149,0,0,0-20.774,18.646l-25.828-.087q.008-6.869.016-13.738c0-4.665,0-4.613-4.678-4.577-1.221.009-1.469.394-1.458,1.524.058,5.6.034,11.195.04,16.792Z" transform="translate(-5.615 -11.238)" fill="#4e8ec8"/>
      <path id="Trazado_651199" data-name="Trazado 651199" d="M1438.33,520.974a.656.656,0,0,1,.189-.023c1.963.34,2.9-.241,3.4-2.43a8.12,8.12,0,0,1,6.27-6.057c4.852-1.273,9.728-2.451,14.585-3.7,2.417-.621,3.038-1.445,3.064-3.864.008-.7-.058-1.406.011-2.1.3-3.024-.146-5.5-3.239-7.188-2.085-1.139-2.859-3.518-2.872-5.936-.031-5.981-.078-11.963.012-17.942a12.2,12.2,0,0,1,24.4-.058c.1,5.979.06,11.962.013,17.943a7.5,7.5,0,0,1-3.874,6.8,3.953,3.953,0,0,0-2.242,4.035c.093,1.457.011,2.926.021,4.389.015,2.472.642,3.3,3.006,3.9q6.741,1.71,13.489,3.39c5.38,1.331,7.952,4.569,7.958,10.081q.013,11.549.018,23.1h-6.146q.008-6.869.016-13.738c0-4.665,0-4.613-4.678-4.577-1.221.009-1.469.394-1.458,1.524.058,5.6.035,11.195.04,16.792l-25.754.085c-5.871-10.51-14.546-17.418-26.255-20.427Q1438.317,522.968,1438.33,520.974Z" transform="translate(-30.866 -11.238)" fill="#4e8ec8"/>
      <path id="Trazado_651200" data-name="Trazado 651200" d="M1407.438,544.6c11.708,3.009,20.384,9.917,26.254,20.427.809,2.123,1.747,4.192,2.535,6.329.633,1.714.3,2.447-1.5,2.568a3.572,3.572,0,0,0-.9.309c-2.865.624-2.865.624-3.868-2.214a33.6,33.6,0,0,0-64.981,15.589c1.935,15.675,14.35,27.563,30.552,29.255,14.657,1.53,29.4-7.986,34.433-22.232.994-2.809.994-2.809,3.866-2.2,3.011.963,3.011.963,1.97,3.98a39.685,39.685,0,0,1-76.542-5.931c-.055-.313-.15-.619-.206-.932-.556-3.152-.554-3.153-3.868-3.153-6.113,0-12.225.033-18.337-.026a5.163,5.163,0,0,0-3.31,1.095c-3.021,2.221-6.112,4.35-9.18,6.509-2.028,1.427-2.927,1.435-4.99-.015q-5.464-3.839-10.9-7.712c-2.545-1.818-2.545-4,0-5.816q5.433-3.88,10.9-7.712c2.068-1.453,2.956-1.447,4.989-.018,3.068,2.158,6.158,4.286,9.18,6.507a5.177,5.177,0,0,0,3.309,1.1c6.812-.057,13.625-.031,20.438-.021.792,0,1.486.086,1.569-1.065a38.945,38.945,0,0,1,24.885-32.834c1.76-.7,3.6-1.187,5.407-1.773A42.311,42.311,0,0,1,1407.438,544.6Zm-78.92,38.621a4.18,4.18,0,0,0-.379-.339q-2.862-2.035-5.73-4.062c-.528-.374-.934-.094-1.366.213-1.7,1.21-3.407,2.417-5.129,3.6-.685.469-.845.835-.049,1.375,1.78,1.208,3.534,2.456,5.277,3.717a1.141,1.141,0,0,0,1.534-.046c1.744-1.261,3.518-2.479,5.266-3.733C1328.175,583.776,1328.552,583.684,1328.518,583.22Z" transform="translate(0 -30.876)" fill="#030202"/>
      <path id="Trazado_651201" data-name="Trazado 651201" d="M1451.632,594.292c-2.872-.607-2.872-.607-3.866,2.2-5.037,14.245-19.776,23.761-34.433,22.232-16.2-1.691-28.617-13.58-30.552-29.255a33.6,33.6,0,0,1,64.981-15.589c1,2.838,1,2.838,3.868,2.214q.535,3,1.07,6l-12.46,0c0-2.1-.819-4.019-1.369-6,2.846-1.431,2.846-1.431,1.241-4.283a27.521,27.521,0,1,0,0,26.775c1.6-2.852,1.6-2.852-1.242-4.282.551-1.977,1.367-3.894,1.371-6l12.459,0Z" transform="translate(-17.795 -32.74)" fill="#da5c50"/>
      <path id="Trazado_651202" data-name="Trazado 651202" d="M1462.956,594.851l-12.46,0-12.337.007c-2.4-.02-4.807-.053-7.211-.057-4.777-.009-4.738,0-4.633-4.767.024-1.092.346-1.383,1.405-1.37,3.479.041,6.958-.017,10.438-.037l12.338.007,12.459,0c5.347.017,10.7.012,16.042.072a2.52,2.52,0,0,0,1.979-.876c2.274-2.316,4.6-4.585,6.862-6.911a4.392,4.392,0,0,1,3.383-1.422c7.7.039,15.409.01,23.114.024,2.61,0,3.7,1.1,3.708,3.719q.024,8.5,0,17c-.007,2.617-1.1,3.719-3.708,3.724-7.705.015-15.41-.015-23.114.024a4.394,4.394,0,0,1-3.384-1.421c-2.265-2.326-4.588-4.595-6.862-6.912a2.519,2.519,0,0,0-1.979-.875C1473.652,594.839,1468.3,594.834,1462.956,594.851Zm38.635,3c2.985,0,5.972-.038,8.956.021,1.029.021,1.442-.2,1.414-1.337-.076-3.174-.1-6.353.008-9.525.042-1.289-.482-1.411-1.546-1.4-5.78.043-11.561.024-17.342.017a2.269,2.269,0,0,0-1.891.609c-1.527,1.614-3.115,3.172-4.715,4.714-.567.547-.68.935-.047,1.539q2.479,2.368,4.851,4.847a2.1,2.1,0,0,0,1.738.52Q1497.3,597.851,1501.59,597.855Z" transform="translate(-28.051 -39.286)" fill="#010101"/>
      <path id="Trazado_651203" data-name="Trazado 651203" d="M1338.543,565.864c-.005-5.6.018-11.195-.04-16.792-.011-1.129.237-1.515,1.458-1.524,4.679-.036,4.681-.087,4.678,4.577q0,6.868-.016,13.738Z" transform="translate(-7.483 -31.798)"/>
      <path id="Trazado_651204" data-name="Trazado 651204" d="M1506.214,565.864c-.005-5.6.018-11.195-.04-16.792-.011-1.129.237-1.515,1.458-1.524,4.679-.036,4.681-.087,4.678,4.577q0,6.868-.016,13.738Z" transform="translate(-46.767 -31.798)"/>
      <path id="Trazado_651205" data-name="Trazado 651205" d="M1426.15,515.61a42.311,42.311,0,0,0-18.287.011q-.014-2-.028-4c3.489-.237,3.536-.251,2.492-3.732a15.065,15.065,0,0,0-11.071-10.795c-3.737-1.02-7.525-1.849-11.27-2.842-.553-.146-1.52.092-1.552-1.009a2.1,2.1,0,0,1,.789-1.971,13.888,13.888,0,0,0,5.331-11.5c-.011-1.845.076-3.7-.03-5.536a1.621,1.621,0,0,1,1.481-1.956c4.262-1.009,8.508-2.089,12.762-3.131,3.713-.909,4.125-1.415,4.125-5.161a20.2,20.2,0,0,1,.011-2.1c.27-2.551-.355-4.453-2.846-5.837a6.747,6.747,0,0,1-3.256-6.143c-.048-6.11-.112-12.224.018-18.332a12.191,12.191,0,0,1,24.356-.15c.171,6.169.1,12.348.023,18.522a7.333,7.333,0,0,1-3.9,6.585,3.945,3.945,0,0,0-2.206,4.055c.095,1.586.031,3.182.018,4.773a3.171,3.171,0,0,0,2.688,3.41c4.5,1.12,8.973,2.356,13.5,3.333,1.8.389,2.268,1.146,2.2,2.909a35.675,35.675,0,0,0,.208,7.8,13.362,13.362,0,0,0,4.937,8.335,2.147,2.147,0,0,1,.918,2.1c-.105,1.142-1.108.894-1.739,1.061-3.622.955-7.284,1.76-10.9,2.74-6.276,1.7-10.181,5.733-11.534,12.137-.481,2.281-.451,2.286,1.824,2.354.317.009.633.049.949.074Q1426.163,513.617,1426.15,515.61Z" transform="translate(-18.713 -1.886)" fill="#f4c147"/>
      <path id="Trazado_651206" data-name="Trazado 651206" d="M1331.2,593.94c.034.463-.343.555-.576.722-1.748,1.254-3.522,2.472-5.266,3.733a1.141,1.141,0,0,1-1.534.046c-1.744-1.261-3.5-2.508-5.277-3.717-.8-.541-.635-.907.049-1.375,1.723-1.18,3.427-2.387,5.129-3.6.432-.307.838-.587,1.366-.213q2.865,2.032,5.73,4.062A4.187,4.187,0,0,1,1331.2,593.94Z" transform="translate(-2.683 -41.596)" fill="#f0bd46"/>
      <path id="Trazado_651207" data-name="Trazado 651207" d="M1440.737,596.184c2.845,1.43,2.845,1.43,1.242,4.282a27.478,27.478,0,1,1,0-26.775c1.6,2.852,1.6,2.852-1.24,4.283a3.572,3.572,0,0,0-.72.21c-1.46.781-2.286.8-3.227-1.067a20.98,20.98,0,0,0-22.306-11.1,21.366,21.366,0,1,0,21.91,31.876C1437.912,595.279,1437.912,595.279,1440.737,596.184Z" transform="translate(-19.662 -34.62)" fill="#030202"/>
      <path id="Trazado_651208" data-name="Trazado 651208" d="M1442.594,598.066c-2.825-.905-2.825-.905-4.341,1.706a21.382,21.382,0,1,1-21.91-31.876,20.98,20.98,0,0,1,22.306,11.1c.941,1.868,1.766,1.848,3.227,1.067a3.572,3.572,0,0,1,.72-.21c.549,1.978,1.368,3.894,1.368,6l-12.337-.007a14.42,14.42,0,0,0-3.606-6.069c.146-.206.279-.424.441-.617,1.536-1.819,1.537-1.818-.451-3.1a15.279,15.279,0,1,0-1.161,26.444c3.237-1.662,3.237-1.662,1.168-4.365a14.384,14.384,0,0,0,3.609-6.065l12.337-.007C1443.961,594.171,1443.145,596.089,1442.594,598.066Z" transform="translate(-21.52 -36.502)" fill="#d6e1e6"/>
      <path id="Trazado_651209" data-name="Trazado 651209" d="M1519.86,599.726q-4.288,0-8.575,0a2.1,2.1,0,0,1-1.738-.52q-2.375-2.472-4.851-4.847c-.633-.6-.52-.992.047-1.539,1.6-1.542,3.188-3.1,4.715-4.714a2.269,2.269,0,0,1,1.891-.609c5.781.007,11.562.026,17.342-.017,1.064-.008,1.588.114,1.546,1.4-.1,3.172-.083,6.351-.008,9.525.028,1.132-.386,1.358-1.414,1.337C1525.833,599.687,1522.846,599.726,1519.86,599.726Z" transform="translate(-46.321 -41.156)" fill="#f5c148"/>
      <path id="Trazado_651210" data-name="Trazado 651210" d="M1435.372,595.793a14.4,14.4,0,0,1-3.608,6.066c-1.228-1.8-2.414-2.114-4.567-.914-3.73,2.079-8.434.619-11.016-2.853a9.077,9.077,0,0,1,.5-11.432,8.886,8.886,0,0,1,11.4-1.875c1.345.837,2.087.747,2.889-.488a5.516,5.516,0,0,1,.794-.8,14.42,14.42,0,0,1,3.606,6.069c-3.48.02-6.959.078-10.438.037-1.059-.013-1.381.278-1.405,1.37-.1,4.766-.144,4.758,4.633,4.767C1430.565,595.74,1432.968,595.773,1435.372,595.793Z" transform="translate(-25.263 -40.219)" fill="#db5c51"/>
      <path id="Trazado_651211" data-name="Trazado 651211" d="M1429.893,581.63a5.516,5.516,0,0,0-.794.8c-.8,1.235-1.544,1.325-2.889.488a8.887,8.887,0,0,0-11.4,1.875,9.077,9.077,0,0,0-.5,11.432c2.582,3.472,7.286,4.932,11.016,2.853,2.153-1.2,3.339-.885,4.567.913,2.068,2.7,2.068,2.7-1.169,4.364a15.273,15.273,0,1,1,1.161-26.445c1.989,1.279,1.987,1.278.451,3.1C1430.172,581.206,1430.039,581.425,1429.893,581.63Z" transform="translate(-23.391 -38.356)" fill="#030303"/>
    </g>
  </g>
</svg>
