<svg xmlns="http://www.w3.org/2000/svg" width="85" height="85" viewBox="0 0 85 85">
  <g id="Grupo_993075" data-name="Grupo 993075" transform="translate(-180 -6099)">
    <rect id="Rectángulo_34178" data-name="Rectángulo 34178" width="85" height="85" transform="translate(180 6099)" fill="none"/>
    <g id="Grupo_994145" data-name="Grupo 994145" transform="translate(-370.962 6076.412)">
      <path id="Trazado_653030" data-name="Trazado 653030" d="M611.772,49.534c.145,2.178.048,4.358.053,6.537,0,.509.125.693.64.635a10.3,10.3,0,0,1,1.177-.008,2.218,2.218,0,0,1,2.512,2.537c0,1.984.018,3.968-.011,5.952a.706.706,0,0,0,.593.811,11.746,11.746,0,0,1,8.015,10.508c.12,2.611.047,5.231.05,7.847a1.905,1.905,0,0,0,.251.991,13.985,13.985,0,0,1-8.3,20.5c-.474.136-.637.311-.6.79.042.564.015,1.133.009,1.7a2.168,2.168,0,0,1-2.392,2.387q-6.182,0-12.364,0H562.605c-1.851,0-2.633-.775-2.633-2.609q0-26.556,0-53.111c0-1.843.781-2.622,2.618-2.627,1.307,0,2.615-.015,3.923-.023.239.008.478.023.717.023,4.838,0,9.676.009,14.514,0a2.327,2.327,0,0,1,2.294,1.408c.407.841.844,1.668,1.242,2.513a.606.606,0,0,0,.638.41q11.637-.015,23.275,0c.413,0,.5-.118.5-.513-.022-1.743-.035-3.487,0-5.229.013-.587-.132-.752-.738-.752q-20.921.028-41.842.015c-.2,0-.391.013-.587.021a10.27,10.27,0,0,1-.07-1.93c-.018-.316.214-.258.4-.261.582-.009,1.164-.015,1.747-.022.239.007.478.02.718.02q19.937,0,39.874-.013A2.538,2.538,0,0,1,611.772,49.534Zm-8.026,20.129h-.726q-20.078,0-40.156-.015c-.617,0-.739.178-.738.757q.024,18.637.015,37.274c0,1.019-.13.876.85.876q24.689,0,49.378,0c1.685,0,1.674,0,1.645-1.719-.006-.365-.084-.491-.472-.455a11.2,11.2,0,0,1-2.737-.134,14.027,14.027,0,0,1-10.023-20.9,1.859,1.859,0,0,0,.268-.982c-.013-2.354,0-4.708-.008-7.062a12.162,12.162,0,0,1,.372-3.038A12.325,12.325,0,0,1,603.746,69.664Zm-31.67-15.1c-3.118,0-6.236.009-9.354-.01-.452,0-.591.115-.589.58q.027,5.886,0,11.772c0,.481.118.628.617.628q21.455-.02,42.909-.007a1.372,1.372,0,0,0,.793-.232,11.615,11.615,0,0,1,7.061-1.924c.439.02.5-.126.5-.505-.018-1.417,0-2.834-.013-4.251-.007-.56.248-1.293-.114-1.632s-1.081-.1-1.643-.1q-13.18-.008-26.36,0a2.449,2.449,0,0,1-2.49-1.528c-.348-.773-.779-1.509-1.122-2.284a.772.772,0,0,0-.84-.523C578.311,54.57,575.193,54.561,572.076,54.561Zm52.719,37.831a11.875,11.875,0,1,0-11.927,11.843A11.862,11.862,0,0,0,624.794,92.392Zm-2.139-10.179c-.074-2.172.146-4.237-.122-6.29a9.709,9.709,0,0,0-18.995-1.232c-.652,2.439-.23,4.928-.382,7.509.664-.513,1.209-.968,1.791-1.369a.836.836,0,0,0,.425-.8q-.036-1.535,0-3.073a7.554,7.554,0,0,1,14.793-1.879,14.5,14.5,0,0,1,.3,4.416,1.5,1.5,0,0,0,.791,1.6A10.2,10.2,0,0,1,622.656,82.213Zm-4.336-4.146c0-.379.007-.663,0-.946a5.4,5.4,0,0,0-5.061-5.263,5.335,5.335,0,0,0-5.688,4.782c-.077.689-.025,1.392-.07,2.087-.034.522.044.671.621.456a13.645,13.645,0,0,1,8.9-.254c.412.123,1,.478,1.193.327C618.53,79.007,618.266,78.415,618.32,78.067Z" transform="translate(0 -12.139)" fill="#040404"/>
      <path id="Trazado_653031" data-name="Trazado 653031" d="M584.942,56.376c.2-.007.391-.021.587-.021q20.921,0,41.842-.015c.607,0,.752.164.738.752-.04,1.742-.027,3.486-.005,5.229.005.395-.085.513-.5.513q-11.638-.02-23.275,0a.606.606,0,0,1-.638-.41c-.4-.845-.835-1.672-1.242-2.513a2.327,2.327,0,0,0-2.294-1.408c-4.838.013-9.676.006-14.514,0-.239,0-.478-.015-.717-.023Q584.934,57.429,584.942,56.376Z" transform="translate(-18.412 -18.264)" fill="#e5e8eb"/>
      <path id="Trazado_653032" data-name="Trazado 653032" d="M592.915,33.774c-.009-.566.013-1.134-.036-1.7-.039-.441.153-.484.522-.482,2.745.014,5.49.007,8.235.007q16.894,0,33.789-.015c.591,0,.761.155.691.714a9.362,9.362,0,0,1-.065,1.492c-.174-.007-.348-.02-.521-.02Z" transform="translate(-24.277 0)" fill="#070605"/>
      <path id="Trazado_653033" data-name="Trazado 653033" d="M592.938,39.927h42.615c.174,0,.348.013.521.02q0,1.8,0,3.6A2.538,2.538,0,0,0,633.5,42.06q-19.937.033-39.874.013c-.239,0-.479-.013-.718-.02Q592.921,40.99,592.938,39.927Z" transform="translate(-24.3 -6.153)" fill="#ead0b6"/>
      <path id="Trazado_653034" data-name="Trazado 653034" d="M609.807,130.491a12.325,12.325,0,0,0-2.335,4.608,12.168,12.168,0,0,0-.372,3.038c.007,2.354,0,4.708.008,7.062a1.858,1.858,0,0,1-.268.982,14.027,14.027,0,0,0,10.023,20.9,11.2,11.2,0,0,0,2.737.134c.387-.036.466.09.472.455.029,1.719.04,1.719-1.645,1.719q-24.689,0-49.378,0c-.98,0-.849.143-.85-.876q-.005-18.637-.014-37.274c0-.579.121-.758.739-.757q20.078.03,40.156.015Zm-17.8,33.491c2.768,0,5.536,0,8.3-.009.172,0,.582.189.478-.258a20.678,20.678,0,0,0-1.169-4.666c-.2-.405-.113-.573.187-.845a8.129,8.129,0,0,0,2.861-5.55,70.965,70.965,0,0,0-.012-10.512,10.784,10.784,0,0,0-21.486,1.545c-.009,2.441.037,4.882-.012,7.322a9.066,9.066,0,0,0,3.095,7.319c.146.131.307.228.169.481-.781,1.425-.83,3.049-1.233,4.578-.132.5.008.613.516.608C586.475,163.969,589.242,163.982,592.01,163.982Zm-16.294-3.243h-3.794c-1.58,0-1.556,0-1.584,1.59-.009.5.14.6.615.6,2.878-.023,5.757-.012,8.635-.012,1.621,0,1.6,0,1.6-1.645,0-.445-.144-.547-.562-.541C578.988,160.752,577.353,160.739,575.717,160.739Zm2.225-4.323h-1.635c-1.69,0-1.677,0-1.644,1.725.007.381.127.467.484.462,1.46-.018,2.921-.008,4.382-.008,1.719,0,1.706,0,1.655-1.715-.011-.382-.136-.48-.5-.472C579.773,156.43,578.858,156.416,577.942,156.416Zm1.048,10.82h.587c1.623,0,1.6,0,1.61-1.617,0-.483-.169-.583-.6-.564-.694.031-1.39.008-2.085.008-1.7,0-1.683,0-1.668,1.7,0,.434.157.5.529.482C577.9,167.215,578.447,167.236,578.99,167.236Zm-6.494,0h.523c1.742,0,1.731,0,1.667-1.747-.013-.353-.125-.441-.455-.432-.74.02-1.481.006-2.221.006-1.7,0-1.678,0-1.671,1.7,0,.431.149.5.524.485C571.407,167.215,571.952,167.236,572.5,167.236Zm.029-9.762c0-1.058,0-1.058-1.066-1.058-1.107,0-1.107,0-1.107,1.133,0,1.048,0,1.048,1.052,1.048C572.526,158.6,572.526,158.6,572.526,157.474Z" transform="translate(-6.061 -72.966)" fill="#e4e7ea"/>
      <path id="Trazado_653035" data-name="Trazado 653035" d="M578.156,72.891c3.118,0,6.236.009,9.354-.01a.772.772,0,0,1,.84.523c.343.775.775,1.511,1.122,2.284a2.449,2.449,0,0,0,2.49,1.528q13.18-.022,26.36,0c.562,0,1.288-.235,1.643.1s.107,1.073.114,1.632c.016,1.417-.006,2.834.013,4.251,0,.38-.06.525-.5.505a11.615,11.615,0,0,0-7.061,1.924,1.372,1.372,0,0,1-.793.232q-21.454-.007-42.909.007c-.5,0-.619-.147-.617-.628q.028-5.886,0-11.772c0-.465.137-.582.589-.58C571.92,72.9,575.038,72.891,578.156,72.891Zm-3.462,6.454v-.523c0-1.743,0-1.743-1.745-1.613a.42.42,0,0,1-.065,0c-.254-.021-.342.1-.341.348.006,1.2,0,2.4,0,3.6,0,.18.007.375.253.37.606-.012,1.292.2,1.788-.094.319-.191.074-.852.1-1.3C574.709,79.869,574.694,79.606,574.694,79.345Zm4.32,0V78.82c0-1.744,0-1.734-1.746-1.619-.316.021-.41.126-.4.426.014.806,0,1.612,0,2.418,0,1.495,0,1.476,1.5,1.5.489.008.717-.085.662-.633C578.974,80.393,579.015,79.866,579.015,79.343Zm4.321.051v-.588c0-1.64,0-1.628-1.63-1.606-.388.005-.541.093-.523.508.032.739.009,1.48.009,2.221,0,1.69,0,1.69,1.7,1.6a.422.422,0,0,1,.066,0c.282.032.385-.095.378-.375C583.325,80.57,583.335,79.981,583.335,79.394Z" transform="translate(-6.08 -30.469)" fill="#7cd1b3"/>
      <path id="Trazado_653036" data-name="Trazado 653036" d="M740.4,183.733a11.875,11.875,0,1,1-11.794-11.9A11.875,11.875,0,0,1,740.4,183.733Zm-2.151-.029a9.729,9.729,0,1,0-9.729,9.724A9.762,9.762,0,0,0,738.252,183.7Z" transform="translate(-115.609 -103.48)" fill="#f2d37d"/>
      <path id="Trazado_653037" data-name="Trazado 653037" d="M744.21,137.082a10.2,10.2,0,0,0-1.4-1.112,1.5,1.5,0,0,1-.791-1.6,14.5,14.5,0,0,0-.3-4.416,7.554,7.554,0,0,0-14.793,1.879q-.037,1.536,0,3.073a.836.836,0,0,1-.425.8c-.582.4-1.126.856-1.791,1.369.152-2.581-.27-5.07.382-7.509a9.709,9.709,0,0,1,18.995,1.232C744.356,132.845,744.136,134.91,744.21,137.082Z" transform="translate(-121.554 -67.007)" fill="#a7aeb8"/>
      <path id="Trazado_653038" data-name="Trazado 653038" d="M752.079,145.1c-.054.348.209.94-.106,1.19-.191.151-.781-.2-1.192-.327a13.646,13.646,0,0,0-8.9.254c-.576.215-.655.066-.621-.456.045-.695-.007-1.4.071-2.087a5.335,5.335,0,0,1,5.688-4.782,5.4,5.4,0,0,1,5.061,5.263C752.085,144.438,752.079,144.722,752.079,145.1Z" transform="translate(-133.758 -79.172)" fill="#f5f7f8"/>
      <path id="Trazado_653039" data-name="Trazado 653039" d="M628.521,170.056c-2.768,0-5.536-.014-8.3.012-.508,0-.647-.109-.516-.608.4-1.529.452-3.153,1.233-4.578.138-.252-.023-.35-.169-.481a9.066,9.066,0,0,1-3.095-7.319c.049-2.44,0-4.881.012-7.322a10.784,10.784,0,0,1,21.486-1.545,70.965,70.965,0,0,1,.012,10.512,8.13,8.13,0,0,1-2.861,5.55c-.3.272-.388.44-.187.845a20.678,20.678,0,0,1,1.169,4.666c.1.447-.305.257-.478.258C634.057,170.06,631.289,170.056,628.521,170.056Zm-2.7-22.192c-.117-.251-.2-.472-.319-.677-.209-.375-.223-.625.3-.722a5.547,5.547,0,0,0,1.05-.355c.335-.137.532-.112.689.277a3.259,3.259,0,0,0,1.315,1.5,4.736,4.736,0,0,0,2.7.573,3.256,3.256,0,0,1,3.413,3.411c.009,1,.015,2.005,0,3.008a6.105,6.105,0,0,1-2.135,4.8,1.213,1.213,0,0,0-.369,1.692c.148.336.417.411.665.568a7.165,7.165,0,0,1,1.025.694c.321.294.527.244.812-.036a6.655,6.655,0,0,0,2.133-4.89q.011-3.825,0-7.65a11.979,11.979,0,0,0-.121-2.018,8.638,8.638,0,0,0-17.143,1.2q-.084,4.314,0,8.63a6.578,6.578,0,0,0,2.16,4.749c.276.264.479.3.768.036a7.147,7.147,0,0,1,1.37-.88,1.255,1.255,0,0,0,.171-1.878,6.125,6.125,0,0,1-2.138-3.5,26.5,26.5,0,0,1-.149-5.15,3.105,3.105,0,0,1,2.446-3.073C624.906,148.062,625.346,147.973,625.825,147.864Zm6.964,5.809v-1.367c0-1.442-.233-1.686-1.654-1.683a6.141,6.141,0,0,1-3.138-.738.843.843,0,0,0-.622-.112q-1.15.239-2.3.477a1.075,1.075,0,0,0-.925,1.163c-.008,1.22-.033,2.442.009,3.66a4.317,4.317,0,0,0,8.524.818A11.808,11.808,0,0,0,632.789,153.673Zm-4.264,14.243q2.842,0,5.684,0c.3,0,.53.047.438-.438a5.112,5.112,0,0,0-2.172-3.429.564.564,0,0,0-.876.078c-.9.948-1.85,1.846-2.756,2.787-.276.287-.435.3-.721.007-.9-.942-1.859-1.837-2.757-2.785a.569.569,0,0,0-.877-.091,5.053,5.053,0,0,0-2.144,3.232c-.1.454-.063.66.5.65C624.736,167.895,626.631,167.916,628.525,167.916Zm-1.562-6.686c-.1-.037-.211.057-.247.269-.053.311-.395.6-.029.942.522.49,1.019,1.007,1.524,1.516.145.146.26.279.471.058.525-.549,1.067-1.082,1.608-1.616.326-.322,0-.6-.048-.9-.028-.192-.16-.283-.38-.235A6.314,6.314,0,0,1,626.963,161.229Z" transform="translate(-42.571 -79.04)" fill="#030202"/>
      <path id="Trazado_653040" data-name="Trazado 653040" d="M581.772,245.9c1.635,0,3.271.013,4.906-.009.418-.005.561.1.562.541.007,1.645.024,1.645-1.6,1.645-2.878,0-5.757-.012-8.635.012-.476,0-.625-.093-.615-.6.028-1.59,0-1.59,1.584-1.59Z" transform="translate(-12.117 -158.123)" fill="#070605"/>
      <path id="Trazado_653041" data-name="Trazado 653041" d="M596.146,229.41c.916,0,1.831.014,2.746-.007.36-.008.484.09.5.472.05,1.716.063,1.715-1.656,1.715-1.461,0-2.921-.01-4.382.008-.357,0-.477-.081-.484-.462-.033-1.726-.046-1.725,1.644-1.725Z" transform="translate(-24.266 -145.959)" fill="#070605"/>
      <path id="Trazado_653042" data-name="Trazado 653042" d="M603.314,264.56c-.543,0-1.087-.021-1.629.007-.373.02-.526-.048-.53-.482-.016-1.7-.034-1.7,1.668-1.7.7,0,1.391.023,2.085-.008.433-.019.6.08.6.564-.008,1.617.013,1.617-1.61,1.617Z" transform="translate(-30.385 -170.29)" fill="#070605"/>
      <path id="Trazado_653043" data-name="Trazado 653043" d="M578.553,264.57c-.544,0-1.09-.021-1.633.007-.375.02-.522-.053-.524-.485-.007-1.7-.026-1.7,1.671-1.7.741,0,1.481.014,2.221-.006.33-.009.442.079.455.432.064,1.748.076,1.747-1.667,1.747Z" transform="translate(-12.117 -170.3)" fill="#070605"/>
      <path id="Trazado_653044" data-name="Trazado 653044" d="M578.622,230.488c0,1.122,0,1.122-1.121,1.122-1.052,0-1.052,0-1.052-1.048,0-1.133,0-1.133,1.107-1.133C578.622,229.43,578.622,229.43,578.622,230.488Z" transform="translate(-12.157 -145.98)" fill="#070605"/>
      <path id="Trazado_653045" data-name="Trazado 653045" d="M586.883,91.387c0,.261.014.524,0,.784-.03.449.214,1.11-.1,1.3-.5.3-1.183.082-1.788.094-.246,0-.253-.19-.253-.37,0-1.2,0-2.4,0-3.6,0-.245.087-.369.341-.348a.418.418,0,0,0,.066,0c1.745-.131,1.745-.131,1.745,1.613Z" transform="translate(-18.269 -42.511)" fill="#030202"/>
      <path id="Trazado_653046" data-name="Trazado 653046" d="M603.364,91.38c0,.523-.04,1.05.011,1.567.055.548-.173.641-.662.633-1.5-.023-1.5,0-1.5-1.5,0-.806.009-1.612,0-2.418-.005-.3.088-.405.4-.426,1.747-.115,1.746-.125,1.746,1.619Z" transform="translate(-30.43 -42.506)" fill="#030202"/>
      <path id="Trazado_653047" data-name="Trazado 653047" d="M619.837,91.536c0,.588-.01,1.176,0,1.764.006.28-.1.407-.378.375a.421.421,0,0,0-.066,0c-1.7.086-1.7.086-1.7-1.6,0-.741.023-1.482-.009-2.221-.018-.416.135-.5.523-.508,1.63-.021,1.63-.034,1.63,1.606Q619.837,91.242,619.837,91.536Z" transform="translate(-42.582 -42.612)" fill="#030202"/>
      <path id="Trazado_653048" data-name="Trazado 653048" d="M744.276,189.716a9.729,9.729,0,1,1-9.721-9.737A9.751,9.751,0,0,1,744.276,189.716Zm-2.172-.01a7.552,7.552,0,1,0-7.565,7.557A7.549,7.549,0,0,0,742.1,189.706Z" transform="translate(-121.633 -109.492)" fill="#040402"/>
      <path id="Trazado_653049" data-name="Trazado 653049" d="M631.827,153.959c-.479.109-.919.2-1.355.309a3.105,3.105,0,0,0-2.446,3.073,26.513,26.513,0,0,0,.149,5.15,6.126,6.126,0,0,0,2.138,3.5,1.255,1.255,0,0,1-.171,1.878,7.15,7.15,0,0,0-1.37.88c-.288.262-.492.228-.768-.036a6.578,6.578,0,0,1-2.16-4.749q-.08-4.314,0-8.63a8.638,8.638,0,0,1,17.143-1.2,12,12,0,0,1,.121,2.018q.006,3.825,0,7.65a6.655,6.655,0,0,1-2.133,4.89c-.285.28-.491.33-.812.036a7.16,7.16,0,0,0-1.025-.694c-.248-.158-.516-.232-.665-.568a1.213,1.213,0,0,1,.369-1.692,6.105,6.105,0,0,0,2.135-4.8c.017-1,.01-2.005,0-3.008a3.256,3.256,0,0,0-3.413-3.411,4.736,4.736,0,0,1-2.7-.573,3.258,3.258,0,0,1-1.315-1.5c-.157-.389-.354-.413-.689-.277a5.549,5.549,0,0,1-1.05.355c-.521.1-.507.347-.3.722C631.622,153.487,631.709,153.708,631.827,153.959Z" transform="translate(-48.573 -85.135)" fill="#a8794d"/>
      <path id="Trazado_653050" data-name="Trazado 653050" d="M650.991,184.766a11.787,11.787,0,0,1-.106,2.218,4.317,4.317,0,0,1-8.524-.818c-.042-1.219-.017-2.44-.009-3.66a1.075,1.075,0,0,1,.925-1.163q1.15-.237,2.3-.477a.843.843,0,0,1,.622.112,6.141,6.141,0,0,0,3.138.738c1.421,0,1.654.241,1.654,1.683Zm-5.031,3.419a4.792,4.792,0,0,0,3.152-.957c.38-.275.554-.5.081-.867a11.206,11.206,0,0,1-.889-.866c-.1-.1-.19-.262-.373-.1a3.32,3.32,0,0,1-2.655.631c-.666-.054-.783.19-.762.795C644.56,188.185,644.528,188.186,645.961,188.186Z" transform="translate(-60.774 -110.133)" fill="#e7ceb4"/>
      <path id="Trazado_653051" data-name="Trazado 653051" d="M641.563,238.766c-1.895,0-3.79-.021-5.684.013-.561.01-.6-.2-.5-.65a5.053,5.053,0,0,1,2.144-3.232.569.569,0,0,1,.877.091c.9.948,1.853,1.843,2.758,2.785.285.3.445.28.721-.007.906-.941,1.857-1.839,2.756-2.787a.564.564,0,0,1,.876-.078,5.112,5.112,0,0,1,2.172,3.429c.092.485-.135.438-.438.438Q644.4,238.762,641.563,238.766Z" transform="translate(-55.609 -149.89)" fill="#e88471"/>
      <path id="Trazado_653052" data-name="Trazado 653052" d="M651.882,224.6a6.314,6.314,0,0,0,2.9.034c.22-.048.352.043.38.235.043.3.374.579.048.9-.541.533-1.084,1.066-1.608,1.616-.211.221-.326.088-.471-.058-.505-.509-1-1.026-1.524-1.516-.366-.344-.025-.631.029-.942C651.671,224.656,651.786,224.561,651.882,224.6Z" transform="translate(-67.489 -142.409)" fill="#e7ceb4"/>
      <path id="Trazado_653053" data-name="Trazado 653053" d="M748.244,195.851a7.552,7.552,0,1,1-7.576-7.544A7.55,7.55,0,0,1,748.244,195.851Zm-8.644,3.115v.653c0,1.7,0,1.678,1.706,1.663.442,0,.485-.174.478-.536-.019-1.044.021-2.091-.018-3.134a1.118,1.118,0,0,1,.643-1.221,3.108,3.108,0,0,0,1.425-3.491,3.235,3.235,0,0,0-6.127-.452,2.918,2.918,0,0,0,.891,3.631,2.069,2.069,0,0,1,1,2.3C739.585,198.573,739.6,198.771,739.6,198.966Z" transform="translate(-127.772 -115.637)" fill="#f9e8ad"/>
      <path id="Trazado_653054" data-name="Trazado 653054" d="M652.082,200.8c-1.433,0-1.4,0-1.447-1.362-.021-.6.1-.849.762-.795a3.32,3.32,0,0,0,2.656-.631c.183-.164.272,0,.373.1a11.192,11.192,0,0,0,.889.866c.473.364.3.592-.081.867A4.792,4.792,0,0,1,652.082,200.8Z" transform="translate(-66.894 -122.745)" fill="#040402"/>
      <path id="Trazado_653055" data-name="Trazado 653055" d="M751.7,204.989c0-.2-.015-.393,0-.587a2.069,2.069,0,0,0-1-2.3,2.918,2.918,0,0,1-.891-3.631,3.235,3.235,0,0,1,6.127.452,3.107,3.107,0,0,1-1.425,3.491,1.118,1.118,0,0,0-.643,1.221c.039,1.043,0,2.09.018,3.134.007.362-.036.532-.479.536-1.706.015-1.706.035-1.706-1.663Zm1.089-4.21a1.062,1.062,0,1,0-1.074-1.079A1.066,1.066,0,0,0,752.786,200.779Z" transform="translate(-139.87 -121.66)" fill="#040404"/>
      <path id="Trazado_653056" data-name="Trazado 653056" d="M758.915,206.93a1.062,1.062,0,0,1-1.074-1.079,1.078,1.078,0,1,1,1.074,1.079Z" transform="translate(-145.998 -127.81)" fill="#7cd1b3"/>
    </g>
  </g>
</svg>
