<svg xmlns="http://www.w3.org/2000/svg" xmlns:xlink="http://www.w3.org/1999/xlink" width="112" height="112" viewBox="0 0 112 112">
  <defs>
    <clipPath id="clip-path">
      <rect id="Rectángulo_309251" data-name="Rectángulo 309251" width="112" height="112" fill="none"/>
    </clipPath>
  </defs>
  <g id="Grupo_878526" data-name="Grupo 878526" clip-path="url(#clip-path)">
    <circle id="Elipse_8164" data-name="Elipse 8164" cx="48.5" cy="48.5" r="48.5" transform="translate(8 7)" fill="#faebcd"/>
    <g id="Grupo_994150" data-name="Grupo 994150" transform="translate(-602.835 -352.259)">
      <path id="Trazado_653139" data-name="Trazado 653139" d="M674.412,399.8l6.8.05a18.6,18.6,0,0,1,12.45,4.634,2.235,2.235,0,0,1,.938,1.988.874.874,0,0,0,.39.8,10.752,10.752,0,0,1,3.367,7.778c.039.786-.394,1.449-.389,2.241q.055,9.157,0,18.316a1.05,1.05,0,0,0,.927,1.231c1.441.4,2.857.887,4.274,1.363a3.554,3.554,0,0,1,2.645,3.572,4.956,4.956,0,0,1-.731,3.479c-.228.287.014.456.123.668a4.275,4.275,0,0,1-3.863,6.461q-10.252.04-20.5,0a4.256,4.256,0,0,1-4.5-4.51c-.01-5.562,0-11.124-.007-16.686a2.581,2.581,0,0,0-2.726-2.79c-.742-.042-1,.138-.9.93a20.326,20.326,0,0,1-.785,8.339,22.734,22.734,0,0,1-14.115,15.2c-1.176.461-1.592.31-2.341-.729a1.721,1.721,0,0,1,1.372-1.993,18.592,18.592,0,0,0,6.925-4.331,19.854,19.854,0,0,0,6.026-17.042,14.044,14.044,0,0,0-1.47-5.206c-2.21-6.379-9.554-11.813-16.595-12.26a19.794,19.794,0,0,0-17.466,7.457,1.782,1.782,0,0,1-2.309.738c-.794-1.078-.795-1.481.049-2.53a22.5,22.5,0,0,1,13.076-8.1c.61-.133.759-.343.754-.923-.025-2.973-.036-5.948.006-8.921.01-.706-.232-.839-.87-.826a12.577,12.577,0,0,1-2.96-.1,4.289,4.289,0,0,1,.752-8.494c2.491-.038,4.984-.016,7.475,0a11.808,11.808,0,0,1,1.33.156c.151-1.566-.112-3.139.184-4.69a8.918,8.918,0,0,1,5.168-6.694c.525-.252.738-.522.655-1.066a.759.759,0,0,1,0-.191,6.479,6.479,0,0,0-1.426-4.9,10.777,10.777,0,0,1-1.849-9.539,8.555,8.555,0,0,1,11.66-6.022,12.038,12.038,0,0,1,6.965,14.551,8.257,8.257,0,0,1-2.66,4.011c-.682.545-.323,1.226-.434,1.847-.133.74.194,1.078.867,1.421a8.733,8.733,0,0,1,5.08,7.957c.08,2.492.008,4.988.025,7.482a1.489,1.489,0,0,1-1.349,1.671c-1.148-.209-1.52-.627-1.526-1.79-.014-2.516.041-5.034-.03-7.548a6.131,6.131,0,0,0-6.13-5.83c-1.852-.012-3.7-.034-5.555-.035-4.114,0-6.723,2.585-6.727,6.674q-.009,9.351,0,18.7c0,.192,0,.384,0,.576s.03.4.29.4c1.183.005,2.366,0,3.769,0-2.328-2.943-2.835-6.118-2.733-9.5.087-2.874.023-5.754.015-8.631a6.111,6.111,0,0,1,.321-2.07,5.734,5.734,0,0,1,11.156,1.857c.05,3.1.013,6.2.013,9.3,0,2.256.007,2.262,2.329,2.073Q672.02,399.918,674.412,399.8Zm17.828,9.934c-.325.3-.636.619-.978.9-.392.321-.438.548.058.828.772.437,1.513.928,2.267,1.4l1.754,1.238a7.261,7.261,0,0,0-2.046-4.473C692.835,409.127,692.535,409.16,692.24,409.735Zm-27.4-48.869a6.958,6.958,0,0,0,2.578-.013,7.388,7.388,0,0,0-3.94-1.843,5.054,5.054,0,0,0-4.733,1.463c-2.005,2.043-2.3,4.52-1.651,7.2.138.569.413.554.816.291a2.938,2.938,0,0,0,1.411-2.466,4.585,4.585,0,0,1,2.445-4.068A6.754,6.754,0,0,1,664.841,360.867ZM649.87,392.53c-2.229-.015-4.458-.038-6.688-.041-1.107,0-1.758.556-1.744,1.446.013.856.638,1.379,1.7,1.417.255.009.51,0,.764,0,5.2.026,4.793-.614,4.791,4.846,0,2.678.021,5.355.033,8.033.009.121.076.164.191.144l1.138-.029c1.51.143,1.51.143,1.51-1.345v-3.82c0-2.961.011-5.922-.005-8.883C651.553,393.024,651.062,392.539,649.87,392.53Zm16.864-28.689c-.8-.022-1.591-.064-2.387-.061-1.533.006-2.039.492-2.158,2.05a5.51,5.51,0,0,1-2.843,4.6c-.75.43-.709.763-.144,1.189a3.262,3.262,0,0,1,1.241,3.206c-.067.7.012,1.406-.02,2.108-.021.448.106.613.58.6,1.532-.036,3.064-.028,4.6-.038,1.343.063,1.343.063,1.343-1.215,0-.415.011-.83,0-1.244a1.634,1.634,0,0,1,.676-1.4,7.279,7.279,0,0,0,2.558-8.5c-.306-1.01-.752-1.617-1.923-1.381A10.047,10.047,0,0,1,666.734,363.841Zm24.356,73.254c-1.847-.014-3.7-.023-5.542-.047-.382,0-.59.088-.585.529.019,1.563-.023,3.127.027,4.688a1.437,1.437,0,0,0,1.544,1.486c4.079.01,8.157-.013,12.236-.023.956.013,1.911.035,2.867.038.565,0,1.187.111,1.317-.727.2-1.279.009-1.858-.83-2.144-1.566-.534-3.139-1.052-4.72-1.541a2.962,2.962,0,0,1-2.091-1.794.7.7,0,0,0-.783-.522C693.383,437.075,692.237,437.078,691.09,437.095Zm10.169,12.372c1.047-.006,1.681-.526,1.681-1.38,0-.827-.658-1.365-1.691-1.382-.381-.021-.763-.059-1.145-.059q-8.1-.006-16.2,0c-1.268,0-1.635-.316-1.872-1.552.01-4.876.152-9.756-.017-14.626a7.438,7.438,0,0,0-4.32-6.721,8.765,8.765,0,0,0-4.969-1.075c-1.547-.017-1.454-.027-1.076,1.494.258,1.037.646,1.432,1.773,1.409,3.526-.073,5.778,2.248,5.781,5.808q.007,8.149,0,16.3c0,1.371.467,1.831,1.842,1.834q3.736.008,7.471,0Q694.891,449.494,701.259,449.466Zm-23.207-46.684-10.527-.056c-2.21-.635-3.095-1.793-3.1-4.076,0-3.347.018-6.694-.009-10.041a2.792,2.792,0,0,0-3.621-2.853,2.675,2.675,0,0,0-2.107,2.8q-.02,5.078,0,10.157a9.341,9.341,0,0,0,9.76,9.747c3.893.008,7.788.045,11.68-.014a12.157,12.157,0,0,1,6.933,1.749c.134.208.254.212.437.026,1.161-1.179,2.318-2.364,3.513-3.509.4-.387.07-.563-.142-.714a16.745,16.745,0,0,0-11.479-3.21h-.358A1.642,1.642,0,0,0,678.052,402.783Zm12.891,11.9c-.606-.412-1.219-.813-1.813-1.241a.776.776,0,0,0-.877-.065,2.106,2.106,0,0,1-2.319-.4,7.663,7.663,0,0,0-5.075-1.654c-4.343.017-8.686,0-13.029,0a9.93,9.93,0,0,1-4.805-1.1c-1.581-.86-3.184-.419-4.8-.435a.75.75,0,0,0,.363.294,22.8,22.8,0,0,1,10.82,9.231,1.012,1.012,0,0,0,1.045.458q5.8-.006,11.593,0c1.99,0,2.924.956,2.925,2.949,0,3.548.013,7.1-.011,10.643,0,.6.132.843.786.823,1.722-.055,3.447-.04,5.171-.052,1.181.011,2.362.007,3.542.041.491.014.669-.151.667-.657q-.021-7.815,0-15.63a.884.884,0,0,0-.462-.853C693.413,416.27,692.181,415.473,690.944,414.685Z" transform="translate(-7.052 0)" fill="#020203"/>
      <path id="Trazado_653140" data-name="Trazado 653140" d="M629.47,507.933a1.783,1.783,0,0,0,2.31-.738,19.794,19.794,0,0,1,17.466-7.457c7.041.447,14.385,5.881,16.595,12.26-.157.1-.157.235-.12.411a22.175,22.175,0,0,1-.067,9.541,20.752,20.752,0,0,1-7.415,11.834,21.152,21.152,0,0,1-17.154,4.517c-.376-.057-.772-.429-1.156,0a2.218,2.218,0,0,1-.369-.087,20.026,20.026,0,0,1-11.22-24.661,2.1,2.1,0,0,0-.49-2.49A10.724,10.724,0,0,1,629.47,507.933Zm17.865,29.026A17.2,17.2,0,1,0,630.181,519.7,17.254,17.254,0,0,0,647.335,536.959Z" transform="translate(-4.582 -88.422)" fill="#726c75"/>
      <path id="Trazado_653141" data-name="Trazado 653141" d="M623.267,529.261a2.1,2.1,0,0,1,.49,2.49,20.026,20.026,0,0,0,11.22,24.661,2.206,2.206,0,0,0,.369.087,17.344,17.344,0,0,0,6.972,1.524c1.337.062,1.59.21,1.973,1.444-.336,1.183-.68,1.446-1.888,1.44a23.023,23.023,0,0,1-22.237-19.372A23.381,23.381,0,0,1,621,530.853C621.459,529.4,621.75,529.209,623.267,529.261Z" transform="translate(0 -106.622)" fill="#030303"/>
      <path id="Trazado_653142" data-name="Trazado 653142" d="M669.032,560.981c-.383-1.234-.635-1.382-1.973-1.445a17.345,17.345,0,0,1-6.972-1.524c.384-.425.781-.054,1.156,0A21.151,21.151,0,0,0,678.4,553.5a20.752,20.752,0,0,0,7.415-11.834,22.175,22.175,0,0,0,.066-9.541c-.037-.177-.037-.308.12-.411a14.036,14.036,0,0,1,1.471,5.206,19.854,19.854,0,0,1-6.026,17.042,18.593,18.593,0,0,1-6.925,4.331,1.721,1.721,0,0,0-1.373,1.993A23.924,23.924,0,0,1,669.032,560.981Z" transform="translate(-24.742 -108.135)" fill="#635d64"/>
      <path id="Trazado_653143" data-name="Trazado 653143" d="M723.426,419.522a6.132,6.132,0,0,1,6.131,5.83c.07,2.514.016,5.032.03,7.548.007,1.163.378,1.581,1.526,1.79q-.012,2.095-.024,4.189-2.392.115-4.784,0,0-6.758,0-13.517a5.724,5.724,0,0,0-.1-1.136A9.386,9.386,0,0,0,723.426,419.522Z" transform="translate(-63.729 -39.078)" fill="#88bda4"/>
      <path id="Trazado_653144" data-name="Trazado 653144" d="M733.934,520.058c-1.724.012-3.448,0-5.171.052-.654.02-.79-.221-.785-.823.024-3.547.014-7.1.011-10.643,0-1.993-.936-2.944-2.925-2.949q-5.8-.015-11.593,0a1.012,1.012,0,0,1-1.045-.458,22.8,22.8,0,0,0-10.819-9.231.75.75,0,0,1-.363-.294c1.619.016,3.223-.425,4.8.435a9.928,9.928,0,0,0,4.805,1.1c4.343,0,8.686.018,13.029,0a7.662,7.662,0,0,1,5.075,1.654,2.106,2.106,0,0,0,2.319.4.776.776,0,0,1,.877.065c.594.428,1.207.829,1.813,1.241Q733.949,510.329,733.934,520.058Z" transform="translate(-50.074 -85.915)" fill="#5767c2"/>
      <path id="Trazado_653145" data-name="Trazado 653145" d="M711.285,450.308l10.527.057c.326.413.654.415.981,0h.357c0,.471.346.42.664.478a17.721,17.721,0,0,1,8.012,3.774c.83.67.858,1.113.144,1.887a6.43,6.43,0,0,0-1.149,1.268,12.157,12.157,0,0,0-6.933-1.749c-3.893.06-7.787.022-11.68.014a9.341,9.341,0,0,1-9.76-9.747q-.012-5.078,0-10.157a2.675,2.675,0,0,1,2.107-2.8,5.281,5.281,0,0,1,.591,2.57q-.023,6.076,0,12.152a2.169,2.169,0,0,0,1.832,2.426,15.566,15.566,0,0,0,4.082.095C711.135,450.578,711.209,450.4,711.285,450.308Z" transform="translate(-50.811 -47.582)" fill="#a2d1a7"/>
      <path id="Trazado_653146" data-name="Trazado 653146" d="M746.186,551.763c.237,1.236.6,1.551,1.872,1.552q8.1.007,16.2.005c.381,0,.763.038,1.145.058a5.059,5.059,0,0,1,.01,2.762q-6.368.022-12.737.043-3.736.009-7.471,0c-1.375,0-1.84-.462-1.842-1.833q-.007-8.149,0-16.3c0-3.56-2.255-5.881-5.781-5.808-1.128.023-1.516-.372-1.774-1.409-.378-1.521-.47-1.511,1.076-1.494a8.765,8.765,0,0,1,4.969,1.075c-.043.377.248.559.453.795a9.046,9.046,0,0,1,2.4,6.056c.005,4.173,0,8.347,0,12.52C744.712,551.009,745.1,551.511,746.186,551.763Z" transform="translate(-71.203 -106.675)" fill="#736d76"/>
      <path id="Trazado_653147" data-name="Trazado 653147" d="M703.757,419.467a9.386,9.386,0,0,1,2.773,4.7,5.729,5.729,0,0,1,.1,1.136q.005,6.758,0,13.517c-2.322.189-2.329.183-2.329-2.073,0-3.1.036-6.2-.013-9.3a5.734,5.734,0,0,0-11.156-1.857,6.113,6.113,0,0,0-.321,2.07c.009,2.877.072,5.757-.015,8.631-.1,3.377.405,6.552,2.733,9.5-1.4,0-2.586,0-3.769,0-.26,0-.286-.2-.29-.4s0-.384,0-.576q0-9.35,0-18.7c0-4.089,2.613-6.676,6.727-6.674C700.054,419.433,701.905,419.455,703.757,419.467Z" transform="translate(-44.06 -39.023)" fill="#a1d0a6"/>
      <path id="Trazado_653148" data-name="Trazado 653148" d="M784.607,573.431c-4.079.01-8.158.033-12.236.023a1.437,1.437,0,0,1-1.544-1.486c-.05-1.561-.008-3.125-.027-4.688-.005-.441.2-.534.585-.529,1.847.024,3.695.033,5.542.047.2.706.845.807,1.409.993,1.6.527,3.21,1.022,4.807,1.555a1.922,1.922,0,0,1,1.466,2.076C784.614,572.091,784.608,572.761,784.607,573.431Z" transform="translate(-92.889 -129.703)" fill="#a27b66"/>
      <path id="Trazado_653149" data-name="Trazado 653149" d="M786.274,528.042q.016-9.729.031-19.458c1.237.788,2.469,1.585,3.715,2.359a.884.884,0,0,1,.462.853q-.018,7.815,0,15.63c0,.506-.177.67-.667.657C788.636,528.05,787.455,528.053,786.274,528.042Z" transform="translate(-102.414 -93.899)" fill="#3f52ba"/>
      <path id="Trazado_653150" data-name="Trazado 653150" d="M709.515,389.9c-1.532.009-3.065,0-4.6.038-.474.012-.6-.153-.58-.6.032-.7-.047-1.411.02-2.108a3.262,3.262,0,0,0-1.241-3.206c-.565-.426-.605-.758.144-1.189a5.511,5.511,0,0,0,2.843-4.6c.119-1.557.625-2.043,2.158-2.05.8,0,1.591.039,2.387.061.172.742.391,1.476.506,2.227.515,3.357-.865,7.282-4.313,8.78-.233.1-.574.083-.7.463a4.361,4.361,0,0,0,2.212.473c1.033-.136,1.315.315,1.173,1.238A3.548,3.548,0,0,0,709.515,389.9Z" transform="translate(-50.968 -12.399)" fill="#f5cbbe"/>
      <path id="Trazado_653151" data-name="Trazado 653151" d="M714.673,450.1c-.076.095-.15.27-.227.272a15.561,15.561,0,0,1-4.082-.095,2.169,2.169,0,0,1-1.832-2.426q-.009-6.075,0-12.152a5.283,5.283,0,0,0-.591-2.57,2.792,2.792,0,0,1,3.621,2.853c.028,3.347.005,6.694.009,10.041C711.578,448.31,712.463,449.468,714.673,450.1Z" transform="translate(-54.2 -47.377)" fill="#88bda4"/>
      <path id="Trazado_653152" data-name="Trazado 653152" d="M715.029,389.785a3.528,3.528,0,0,1,.01-.479c.142-.923-.14-1.374-1.173-1.238a4.362,4.362,0,0,1-2.212-.473c.13-.379.471-.362.7-.463,3.448-1.5,4.828-5.423,4.313-8.78-.115-.751-.335-1.485-.506-2.227a10.045,10.045,0,0,0,1.518-.081c1.17-.236,1.616.371,1.923,1.381a7.279,7.279,0,0,1-2.558,8.5,1.634,1.634,0,0,0-.676,1.4c.013.414,0,.829,0,1.244C716.372,389.848,716.372,389.848,715.029,389.785Z" transform="translate(-56.482 -12.285)" fill="#ecad9d"/>
      <path id="Trazado_653153" data-name="Trazado 653153" d="M664.877,466.6c-.012-2.678-.034-5.355-.033-8.033,0-5.46.405-4.82-4.791-4.846-.255,0-.51.007-.764,0-1.061-.037-1.686-.561-1.7-1.417-.013-.89.637-1.448,1.744-1.446,2.23,0,4.459.026,6.688.041a11.851,11.851,0,0,1,.19,1.5c.01,4.772,0,9.544-.005,14.317l-1.138.03Z" transform="translate(-23.204 -58.364)" fill="#736d76"/>
      <path id="Trazado_653154" data-name="Trazado 653154" d="M756.232,553.49c-1.084-.252-1.474-.755-1.476-1.975-.007-4.173,0-8.347,0-12.52a9.046,9.046,0,0,0-2.4-6.056c-.2-.236-.5-.418-.453-.8a7.437,7.437,0,0,1,4.321,6.721C756.384,543.733,756.242,548.614,756.232,553.49Z" transform="translate(-81.249 -108.401)" fill="#635d64"/>
      <path id="Trazado_653155" data-name="Trazado 653155" d="M679.707,466.777c0-4.772.015-9.545.005-14.317a11.862,11.862,0,0,0-.19-1.5c1.192.008,1.682.494,1.689,1.77.016,2.961.005,5.922.005,8.883v3.82C681.217,466.92,681.217,466.92,679.707,466.777Z" transform="translate(-36.704 -58.429)" fill="#635d64"/>
      <path id="Trazado_653156" data-name="Trazado 653156" d="M763.977,484.93a6.429,6.429,0,0,1,1.149-1.268c.714-.773.686-1.217-.144-1.887A17.721,17.721,0,0,0,756.969,478c-.318-.058-.664-.007-.664-.478a16.745,16.745,0,0,1,11.479,3.21c.212.151.546.328.142.714-1.194,1.145-2.351,2.33-3.513,3.509C764.231,485.141,764.111,485.137,763.977,484.93Z" transform="translate(-83.967 -74.739)" fill="#88bda4"/>
      <path id="Trazado_653157" data-name="Trazado 653157" d="M794.417,573.415c0-.67.007-1.34,0-2.01a1.923,1.923,0,0,0-1.466-2.076c-1.6-.532-3.208-1.028-4.807-1.555-.564-.186-1.2-.286-1.409-.993,1.146-.016,2.293-.019,3.439-.056a.7.7,0,0,1,.784.522,2.962,2.962,0,0,0,2.091,1.794c1.581.488,3.153,1.006,4.72,1.541.839.286,1.028.864.83,2.144-.13.838-.752.729-1.317.727C796.328,573.45,795.373,573.428,794.417,573.415Z" transform="translate(-102.699 -129.687)" fill="#8c6855"/>
      <path id="Trazado_653158" data-name="Trazado 653158" d="M789.727,494.974c.3-.575.6-.608,1.056-.111a7.26,7.26,0,0,1,2.046,4.473l-1.754-1.238A8.675,8.675,0,0,0,789.727,494.974Z" transform="translate(-104.539 -85.239)" fill="#ecad9d"/>
      <path id="Trazado_653159" data-name="Trazado 653159" d="M787.674,495.71a8.674,8.674,0,0,1,1.348,3.123c-.754-.468-1.5-.96-2.268-1.4-.5-.28-.45-.506-.058-.828C787.038,496.329,787.349,496.011,787.674,495.71Z" transform="translate(-102.487 -85.975)" fill="#f5cbbe"/>
      <path id="Trazado_653160" data-name="Trazado 653160" d="M813.171,594.63a5.058,5.058,0,0,0-.01-2.762c1.033.017,1.691.555,1.691,1.382C814.853,594.1,814.219,594.624,813.171,594.63Z" transform="translate(-118.964 -145.164)" fill="#635d64"/>
      <path id="Trazado_653161" data-name="Trazado 653161" d="M753.806,477.508c-.327.414-.654.412-.981,0A1.641,1.641,0,0,1,753.806,477.508Z" transform="translate(-81.825 -74.724)" fill="#88bda4"/>
      <path id="Trazado_653162" data-name="Trazado 653162" d="M676.545,491.8l.191.145C676.621,491.967,676.554,491.924,676.545,491.8Z" transform="translate(-34.872 -83.57)" fill="#635d64"/>
      <path id="Trazado_653163" data-name="Trazado 653163" d="M651.888,541.57a17.2,17.2,0,1,1,17.3-17.114A17.268,17.268,0,0,1,651.888,541.57Zm1.706-27.24c.018-1.227.03-2.455.058-3.682.009-.4-.159-.579-.556-.566-.314.01-.629,0-.943.006-1.38-.062-1.38-.062-1.38,1.253,0,1.822-.007,3.644,0,5.466.007,1.328.445,1.76,1.8,1.763,2.938.008,5.876,0,8.814,0h3.6a8.768,8.768,0,0,0-.968-1.955,1.59,1.59,0,0,0-1.675-.943c-2.3.06-4.6,0-6.9.032C654.427,515.723,653.779,515.369,653.594,514.331Zm-5.7-3.655a2.968,2.968,0,0,0-.408.07c-5.689,2.119-9.012,6.16-9.761,12.209a14.328,14.328,0,1,0,28.436-.642c-.082-.676-.315-.884-1.012-.878-4.214.036-8.429.023-12.643.016a4.255,4.255,0,0,1-4.61-4.578C647.881,514.829,647.891,512.785,647.891,510.675Zm12.288,2.256a7.019,7.019,0,0,0-2.8-1.836c-.244-.1-.626-.411-.771-.153a2.587,2.587,0,0,0-.162,1.665c.059.382.417.322.7.323C658.152,512.933,659.165,512.931,660.178,512.931Z" transform="translate(-9.135 -93.033)" fill="#020203"/>
      <path id="Trazado_653164" data-name="Trazado 653164" d="M679.268,518.961c.185,1.038.833,1.393,1.847,1.377,2.3-.036,4.6.028,6.9-.032a1.59,1.59,0,0,1,1.675.944,8.773,8.773,0,0,1,.969,1.955h-3.6c-2.938,0-5.876.005-8.814,0-1.351,0-1.789-.435-1.8-1.763-.01-1.822,0-3.644,0-5.466,0-1.315,0-1.315,1.38-1.253,0,1.166.016,2.333-.008,3.5-.01.51.14.78.694.731A7,7,0,0,1,679.268,518.961Z" transform="translate(-34.809 -97.663)" fill="#726c75"/>
      <path id="Trazado_653165" data-name="Trazado 653165" d="M681.469,518.982a6.968,6.968,0,0,0-.755-.012c-.553.049-.7-.221-.693-.731.023-1.166.008-2.333.008-3.5.314,0,.629,0,.943-.006.4-.013.565.165.555.566C681.5,516.528,681.487,517.755,681.469,518.982Z" transform="translate(-37.01 -97.685)" fill="#635d64"/>
      <path id="Trazado_653166" data-name="Trazado 653166" d="M694.837,518.8c-1.013,0-2.026,0-3.039,0-.28,0-.638.058-.7-.323a2.587,2.587,0,0,1,.162-1.665c.145-.257.527.054.771.153A7.019,7.019,0,0,1,694.837,518.8Z" transform="translate(-43.794 -98.901)" fill="#5767c2"/>
    </g>
  </g>
</svg>
