<svg xmlns="http://www.w3.org/2000/svg" xmlns:xlink="http://www.w3.org/1999/xlink" width="112" height="112" viewBox="0 0 112 112">
  <defs>
    <clipPath id="clip-path">
      <rect id="Rectángulo_309253" data-name="Rectángulo 309253" width="112" height="112" transform="translate(-0.344)" fill="none"/>
    </clipPath>
  </defs>
  <g id="Enmascarar_grupo_878527" data-name="Enmascarar grupo 878527" transform="translate(0.344)" clip-path="url(#clip-path)">
    <circle id="Elipse_8166" data-name="Elipse 8166" cx="48.5" cy="48.5" r="48.5" transform="translate(7.656 7)" fill="#faebcd"/>
    <g id="Grupo_994152" data-name="Grupo 994152" transform="translate(-587.217 -32.835)">
      <path id="Trazado_653188" data-name="Trazado 653188" d="M626.5,114.088c-1.5-.329-1.459-1.487-1.377-2.74-2.017.719-3.944,1.445-5.9,2.095A53.733,53.733,0,0,1,607.3,116.23a13.606,13.606,0,0,1-4.821-.309,4.481,4.481,0,0,1-3.435-5.98c.8-2.886,2.628-5.151,4.544-7.344a75.8,75.8,0,0,1,10.169-9.422c.675-.534.9-.914.457-1.744a16.95,16.95,0,0,1-1.451-3.984,1.112,1.112,0,0,0-.942-.934,6.494,6.494,0,0,1-4.033-9.588.969.969,0,0,0-.195-1.4,37.364,37.364,0,0,1-6.211-8.3,12.137,12.137,0,0,1-.938-2.387c-.971-3.586.842-6.167,4.551-6.476a26.551,26.551,0,0,1,9.922,1.519c.883.267,1.768.537,2.622.88a.991.991,0,0,0,1.34-.337,28.044,28.044,0,0,1,3.615-3.525,1.673,1.673,0,0,1,2.4-.07c.535,1.236.443,1.593-.693,2.539a26.157,26.157,0,0,0-8.725,13.623c-.134.5-.237.844.447,1.142a6.443,6.443,0,0,1,3.787,7.973.789.789,0,0,0,.3.988c2.964,2.433,5.976,4.8,9.086,7.049l1.688,1.22c0-1.159-.035-2.14.013-3.117a1.069,1.069,0,0,0-.727-1.2,9.2,9.2,0,0,1-3.58-2.909,3.356,3.356,0,0,0-1.433-1.136c-4.885-2.12-6.747-8.34-3.549-12.547a11.877,11.877,0,0,0,2.4-5.206,8.229,8.229,0,0,1,8.205-6.461c.343-.005.822.245.93-.4q.292-1.758.641-3.507c.091-.461-.072-.535-.46-.393-.836.305-1.678.6-2.508.918-1.179.458-1.619.352-2.386-.626-.118-1.293.078-1.63,1.253-2.126a20.249,20.249,0,0,1,4.029-1.339c.807-.154,1.05-.564,1.231-1.263a35.3,35.3,0,0,1,2.955-7.955,12.285,12.285,0,0,1,2.061-2.9c2.215-2.228,4.867-2.228,7.051.027a17.189,17.189,0,0,1,3.406,5.869,51.068,51.068,0,0,1,2.133,7.1,1.213,1.213,0,0,0,.75.929A28.7,28.7,0,0,1,665.089,63.3c.358.535.669.534,1.2.351a54.928,54.928,0,0,1,13.338-3.216,13.457,13.457,0,0,1,4.626.307,4.509,4.509,0,0,1,3.467,5.972,12.47,12.47,0,0,1-1.721,3.653,1.074,1.074,0,0,0-.084,1.321,6.526,6.526,0,0,1-8.579,9.1.973.973,0,0,0-1.286.181c-.985.881-2,1.73-3.051,2.533a1.033,1.033,0,0,0-.426,1.465c.706,1.6,1.311,3.237,1.947,4.865,1.039,2.659.754,3.589-1.6,5.177a89.187,89.187,0,0,1,8.335,8.5,31.634,31.634,0,0,1,4.153,6.023,12.132,12.132,0,0,1,.889,2.3c.97,3.6-.826,6.163-4.541,6.484a25.126,25.126,0,0,1-9.167-1.3,86.566,86.566,0,0,1-11.45-4.358c-1.126-.506-1.126-.508-1.126.772,0,2.348.01,4.7,0,7.045a5.481,5.481,0,0,1-5.843,5.823c-2.1.013-2.1.015-2.72,2.011a30.54,30.54,0,0,1-3.081,7.264,10.254,10.254,0,0,1-1.736,2.156,4.436,4.436,0,0,1-6.55-.041,13.674,13.674,0,0,1-3.167-4.977,1.885,1.885,0,0,0-1.743-1.436,6.174,6.174,0,0,1-5.31-4.439,1.062,1.062,0,0,0-.78-.754c-3.33-1.034-4.282-3.8-3.938-6.778a1.445,1.445,0,0,1,1.375-1.226c1.2.246,1.574.663,1.558,1.87-.014,1.078,0,2.12.968,2.859.411.314.665.431.895-.239a6.074,6.074,0,0,1,2.689-3.3.739.739,0,0,0,.438-.863c-.288-1.685-.548-3.375-.819-5.064a20.111,20.111,0,0,0-.389-3.175c0-1.72,0-1.719-1.55-1.045-.271.118-.545.23-.816.348-1.467.64-1.467.64-1.374,2.284C628.019,113.5,627.849,113.745,626.5,114.088Zm9.2-10.839c.562-.256,1.109-.554,1.689-.757.658-.23.885-.6.614-1.255a1.688,1.688,0,0,0-1.077-2.093c-.98-.527-1.882-1.2-2.973-1.906l.12,1.813a25.852,25.852,0,0,0,.2,3.578c-.018,1.461-.005,1.469,1.288.751A.7.7,0,0,0,635.7,103.249Zm41.843-26.035a3.453,3.453,0,0,0,4,1.046,3.625,3.625,0,0,0,2.292-3.3,3.575,3.575,0,1,0-6.3,2.254Zm-35.71,25.8a3.48,3.48,0,0,0,3.981,1.159,3.558,3.558,0,0,0,2.347-3.445,3.4,3.4,0,0,0-2.4-3.258,3.518,3.518,0,0,0-3.924,5.544ZM610.678,82.378a3.471,3.471,0,0,0,4.046,1.146,3.534,3.534,0,0,0,2.286-3.362,3.4,3.4,0,0,0-2.417-3.324,3.519,3.519,0,0,0-3.915,5.539Zm22.677,44.7a3.478,3.478,0,0,0,3.989,1.1,3.56,3.56,0,0,0,2.3-3.464,3.383,3.383,0,0,0-2.419-3.229,3.517,3.517,0,0,0-3.869,5.592Zm-15.478-35.1-.041.04.016.055a25.611,25.611,0,0,0,7.478,8.591,6.626,6.626,0,0,1,2.7,4.549c.071.5.067,1.016.1,1.6,1.023-.449,1.948-.872,2.887-1.261a.631.631,0,0,0,.417-.767c-.141-1.445-.257-2.892-.383-4.338a20.3,20.3,0,0,0-.171-3.578c-.078-.71.355-1.534-.429-2.088q-6.3-4.45-12.265-9.346c-.172-.142-.356-.479-.628-.1a13.461,13.461,0,0,1-1.452.806c-.466.192-.54.389-.385.876a23.724,23.724,0,0,0,1.952,4.7ZM650.7,103.389l-.138.229c-.166.4.213.432.407.54,2.68,1.49,5.391,2.922,8.152,4.257a1.489,1.489,0,0,0,.852.17c1.279-.148,2.558-.284,3.838-.425.624-.043,1.249-.069,1.872-.132,2.262-.228,2.747-.915,2.4-3.195-.449-2.935-.856-5.876-1.26-8.817-.2-1.453.012-1.79,1.344-2.355,1.122-.475,2.24-.964,3.375-1.407.483-.189.572-.426.38-.9-.635-1.555-1.253-3.118-1.844-4.691-.183-.487-.336-.651-.813-.274-.983.776-2,1.506-3.008,2.255-4.689,3.257-9.434,6.43-14.389,9.27-.893.512-1.187,1.014-.73,1.923a9.586,9.586,0,0,1-.443,3.55Zm-1.167,3.438c-.491-.238-.825-.812-1.562-.42-3.057,1.626-5.632,1.242-8.208-1.2-.391-.371-.65-.333-.983-.015-1.038.486-2.049,1.047-3.121,1.439s-1.224,1.028-.848,1.967a17.068,17.068,0,0,0,.34,3.181c.149,1.975.486,3.925.817,5.875.055.322.048.61.539.652a6.384,6.384,0,0,1,5.836,4.591.559.559,0,0,0,.651.423q4.654-.029,9.308-.052c.526.017,1.051.049,1.576.049,2.291,0,3.15-.863,3.153-3.163,0-2.7-.1-5.409.051-8.1.066-1.17-.278-1.685-1.323-1.9Zm8.936-41.315a9.386,9.386,0,0,1,2.807,6.344,1.739,1.739,0,0,1-1.427,1.127,1.79,1.79,0,0,1-1.594-1.724,6.349,6.349,0,0,0-3.429-4.683,2.719,2.719,0,0,1-1.439-1.74,5.429,5.429,0,0,0-5.648-3.855,2.982,2.982,0,0,0-.774.093,2.784,2.784,0,0,1-3.2-.662,5.388,5.388,0,0,0-7.558.63,2.81,2.81,0,0,0-.823,1.726c-.161,1.837-.469,3.661-.647,5.5-.473,4.891-.85,9.79-.866,14.708a10.281,10.281,0,0,1-.062,1.284c-.133.788.224.94.93.918a7.5,7.5,0,0,0,4.961-1.945,1.831,1.831,0,0,1,1.788-.582,6.542,6.542,0,0,0,7.53-2.773,1.659,1.659,0,0,1,1.7-.755,6.508,6.508,0,0,0,5.63-1.843,1.669,1.669,0,0,1,2.308-.295c.688,1.1.628,1.619-.3,2.506a9.432,9.432,0,0,1-6.527,2.669,1.583,1.583,0,0,0-1.258.57,9.3,9.3,0,0,1-8.474,3.076,1.343,1.343,0,0,0-1.109.219,9.994,9.994,0,0,1-6.556,2.1c-.523-.017-.687.132-.669.656.049,1.387.069,2.776.054,4.163a1.016,1.016,0,0,0,.565.944c1.408.923,2.823,1.836,4.2,2.81.5.358.714.235,1.094-.185a6.449,6.449,0,0,1,9-.833.806.806,0,0,0,1.107.067c1.533-.969,3.112-1.868,4.648-2.834,3.686-2.317,7.362-4.651,10.82-7.307.964-.69,1.918-1.4,2.9-2.063a.744.744,0,0,0,.307-1.064,23.055,23.055,0,0,1-1.46-5.531,26.073,26.073,0,0,0-11.1-18.855,23.445,23.445,0,0,0-10.709-4.325,24.9,24.9,0,0,0-7-.322c-.9.037-1.351.37-1.42,1.316a15.728,15.728,0,0,1-.448,2.154,1.021,1.021,0,0,0,.8-.067,8.344,8.344,0,0,1,8.348,1.069,1.329,1.329,0,0,0,1.112.2,8.537,8.537,0,0,1,9.421,5.11,1.763,1.763,0,0,0,.655.946C657.279,64.57,657.863,65.06,658.47,65.512Zm-42.35,29.56a81.842,81.842,0,0,0-10.152,9.329,20.027,20.027,0,0,0-3.864,5.71c-.75,1.86-.24,2.719,1.715,3.067a14.958,14.958,0,0,0,4.928-.136,74.219,74.219,0,0,0,15.781-4.72c.214-.084.563-.074.567-.447.019-1.645.286-3.4-1.259-4.566A31.181,31.181,0,0,1,616.12,95.072Zm49.15,16.137a62.526,62.526,0,0,0,11.2,3.733,16.389,16.389,0,0,0,5.017.4c1.88-.184,2.455-.992,1.931-2.8a13.312,13.312,0,0,0-1.854-3.7c-3.174-4.7-7.253-8.556-11.436-12.317-.02-.018-.1.036-.212.076.394,2.734.769,5.481,1.189,8.22a5.05,5.05,0,0,1-4,6.078A6.33,6.33,0,0,0,665.27,111.208Zm1.737-44.663a28.628,28.628,0,0,1,2.7,8.506,30.3,30.3,0,0,0,1.19,5.5c.2.573.362.588.78.22.793-.7,1.609-1.37,2.43-2.035a.679.679,0,0,0,.253-.976,6.207,6.207,0,0,1,1.081-7.251,6.294,6.294,0,0,1,7.331-1.615c.287.107.506.259.733-.126a9.2,9.2,0,0,0,1.409-3.239,1.452,1.452,0,0,0-1.12-1.8,8.706,8.706,0,0,0-3.131-.362C675.934,63.625,671.471,65.014,667.007,66.545Zm-36.312,17.4c.09-.081.131-.1.131-.12a176.6,176.6,0,0,1,1.616-21.443c.086-.6-.186-.64-.661-.617a5.555,5.555,0,0,0-5.141,6.457,1.914,1.914,0,0,1-.979,2.238,5.534,5.534,0,0,0,1.2,10.037,2.691,2.691,0,0,1,1.58,1.233A5.979,5.979,0,0,0,630.695,83.946ZM603.133,63.064a8.49,8.49,0,0,0,1.253,3.452,39.774,39.774,0,0,0,5.633,7.248c.226.241.411.681.874.372.5-.335,1.326-.085,1.517-1.008a26.827,26.827,0,0,1,3.7-8.989c.3-.477.318-.661-.3-.864a46.587,46.587,0,0,0-6.288-1.692,11.8,11.8,0,0,0-5.1-.093A1.508,1.508,0,0,0,603.133,63.064Zm46.109-11.477c-.929-3.368-1.8-6.514-3.634-9.27-1.569-2.353-2.817-2.377-4.413-.073A26.911,26.911,0,0,0,637.8,50.5,30.456,30.456,0,0,1,649.242,51.586Zm-.328,74.711c-2.045,0-3.989,0-5.934,0a.552.552,0,0,0-.635.452,6.429,6.429,0,0,1-2.681,3.562c-.222.146-.434.265-.283.62a13.04,13.04,0,0,0,2.783,4.625,1.506,1.506,0,0,0,2.426.022,4.953,4.953,0,0,0,.73-.8A26.775,26.775,0,0,0,648.914,126.3Z" transform="translate(0 0)" fill="#030304"/>
      <path id="Trazado_653189" data-name="Trazado 653189" d="M653.417,80.339c.767.978,1.207,1.084,2.386.626.83-.322,1.672-.613,2.508-.918.389-.142.551-.067.46.393q-.347,1.748-.641,3.507c-.108.649-.587.4-.93.4a8.229,8.229,0,0,0-8.205,6.461,11.876,11.876,0,0,1-2.4,5.206c-3.2,4.207-1.336,10.427,3.549,12.547a3.356,3.356,0,0,1,1.433,1.136,9.2,9.2,0,0,0,3.58,2.909,1.069,1.069,0,0,1,.727,1.2c-.048.977-.013,1.958-.013,3.117l-1.688-1.22c-3.11-2.245-6.122-4.615-9.086-7.049a.789.789,0,0,1-.3-.988A6.443,6.443,0,0,0,641,99.7c-.684-.3-.581-.645-.447-1.142a26.158,26.158,0,0,1,8.725-13.623c1.136-.946,1.228-1.3.693-2.539Z" transform="translate(-25.081 -25.574)" fill="#96c5f2"/>
      <path id="Trazado_653190" data-name="Trazado 653190" d="M674.195,228.142c.271,1.689.53,3.379.819,5.064a.739.739,0,0,1-.438.863,6.073,6.073,0,0,0-2.689,3.3c-.23.67-.484.553-.9.239-.965-.739-.982-1.781-.968-2.859.016-1.207-.36-1.623-1.558-1.87q.02-1.283.04-2.566a2.043,2.043,0,0,0,1.133-.27C671.171,229.44,672.61,228.616,674.195,228.142Z" transform="translate(-41.948 -114.799)" fill="#98c7f5"/>
      <path id="Trazado_653191" data-name="Trazado 653191" d="M674.165,223.335c-1.585.474-3.024,1.3-4.557,1.9a2.043,2.043,0,0,1-1.133.27q-.029-.712-.059-1.424c1.351-.343,1.521-.588,1.621-2.333,1.313-.372,2.464-1.128,3.74-1.588A20.119,20.119,0,0,1,674.165,223.335Z" transform="translate(-41.918 -109.992)" fill="#76b6f3"/>
      <path id="Trazado_653192" data-name="Trazado 653192" d="M712.757,124.971a1.739,1.739,0,0,0,1.427-1.127c.506.13.449.6.549.953.728,2.557.821,5.241,1.584,7.8.509,1.707,1.35,3.286,1.826,5-3.458,2.656-7.134,4.99-10.82,7.307-1.536.966-3.115,1.864-4.648,2.834a.806.806,0,0,1-1.107-.067,6.45,6.45,0,0,0-9,.833c-.38.42-.59.543-1.094.185-1.372-.974-2.788-1.887-4.2-2.81a1.016,1.016,0,0,1-.565-.944c.016-1.387-.005-2.776-.054-4.163-.018-.524.146-.673.669-.656a9.994,9.994,0,0,0,6.556-2.1,1.343,1.343,0,0,1,1.109-.219,9.3,9.3,0,0,0,8.474-3.076,1.584,1.584,0,0,1,1.258-.57,9.432,9.432,0,0,0,6.527-2.669c.931-.887.99-1.408.3-2.506A7.892,7.892,0,0,0,712.757,124.971Z" transform="translate(-52.907 -51.988)" fill="#98c7f5"/>
      <path id="Trazado_653193" data-name="Trazado 653193" d="M686.946,115.719c.016-4.919.393-9.817.866-14.708.178-1.836.486-3.66.647-5.5a2.809,2.809,0,0,1,.823-1.726,5.388,5.388,0,0,1,7.558-.63,2.784,2.784,0,0,0,3.2.662,2.981,2.981,0,0,1,.774-.093,10.615,10.615,0,0,1,.842,1.986,1.016,1.016,0,0,0,.553.66,7.894,7.894,0,0,1,4.361,8.407,8.129,8.129,0,0,1-8.178,7.1,2.189,2.189,0,0,0-2.178,1.132,1.753,1.753,0,0,1-.323.371,8.208,8.208,0,0,1-7.183,2.108A2.636,2.636,0,0,0,686.946,115.719Zm7.984-4.13a5.126,5.126,0,0,0,4.341-2.323,1.48,1.48,0,0,0-.242-2.184,1.5,1.5,0,0,0-2.156.443c-1.226,1.5-2.613,1.49-3.862-.026a1.476,1.476,0,0,0-2.159-.392,1.5,1.5,0,0,0-.2,2.193A5.161,5.161,0,0,0,694.93,111.589Zm4.126-8.137a5.361,5.361,0,0,0,4.781-2.321,1.486,1.486,0,1,0-2.364-1.791q-1.977,2.354-3.925.025A1.462,1.462,0,0,0,695.388,99a1.485,1.485,0,0,0-.231,2.117A4.956,4.956,0,0,0,699.056,103.452Z" transform="translate(-53.078 -32.745)" fill="#eeecef"/>
      <path id="Trazado_653194" data-name="Trazado 653194" d="M707.325,231.9q-4.654.026-9.308.052a.559.559,0,0,1-.651-.423,6.384,6.384,0,0,0-5.837-4.591c-.491-.042-.484-.329-.539-.652-.331-1.95-.668-3.9-.817-5.875a44.192,44.192,0,0,0,4.815-2.3,1.035,1.035,0,0,1,1.393.136,4.523,4.523,0,0,0,5.064.837,2.561,2.561,0,0,1,2.642.177,2.446,2.446,0,0,0,.618.311c2.11.634,2.658,2.209,2.63,4.2C707.3,226.487,707.326,229.2,707.325,231.9Z" transform="translate(-55.022 -108.639)" fill="#98c7f5"/>
      <path id="Trazado_653195" data-name="Trazado 653195" d="M744.81,162.339c1-.749,2.025-1.478,3.008-2.255.477-.377.63-.213.813.274.591,1.573,1.209,3.135,1.844,4.691.192.469.1.707-.38.9-1.135.443-2.253.932-3.375,1.407-1.333.565-1.544.9-1.344,2.355.4,2.942.811,5.883,1.26,8.817.348,2.28-.137,2.967-2.4,3.195-.622.062-1.248.089-1.872.132.206-2.652-.407-5.241-.632-7.859a2.718,2.718,0,0,0-.56-1.561c-.953-1.135-2.093-1.21-3.716-.191-2.205,1.384-4.395,2.8-6.62,4.147-.484.294-.919.793-1.589.7a9.59,9.59,0,0,0,.443-3.55,32.728,32.728,0,0,0,3.315-1.961c3.969-2.412,7.773-5.071,11.554-7.764C745.126,163.4,745.749,163,744.81,162.339Z" transform="translate(-78.553 -73.688)" fill="#76b6f3"/>
      <path id="Trazado_653196" data-name="Trazado 653196" d="M735.42,110.212c-.477-1.714-1.317-3.292-1.826-5-.763-2.557-.856-5.241-1.584-7.8-.1-.35-.043-.824-.549-.953a9.386,9.386,0,0,0-2.807-6.344c.217-.171.107-.323-.006-.5a28.636,28.636,0,0,0-6.52-7.227,38.873,38.873,0,0,0-6.777-4.012A23.445,23.445,0,0,1,726.06,82.7a26.073,26.073,0,0,1,11.1,18.855,23.046,23.046,0,0,0,1.46,5.531.744.744,0,0,1-.307,1.064C737.338,108.816,736.384,109.521,735.42,110.212Z" transform="translate(-70.184 -24.604)" fill="#76b6f3"/>
      <path id="Trazado_653197" data-name="Trazado 653197" d="M706.809,225.341c0-2.708-.027-5.417.011-8.126.028-1.993-.52-3.568-2.63-4.2a2.448,2.448,0,0,1-.619-.311,2.56,2.56,0,0,0-2.641-.177,4.523,4.523,0,0,1-5.064-.837,1.035,1.035,0,0,0-1.393-.136,44.2,44.2,0,0,1-4.815,2.3,17.068,17.068,0,0,1-.341-3.181c1.452-.3,2.625-1.21,3.949-1.788.346-.151.79-.245.828-.749.044-.576-.451-.661-.808-.869.333-.318.592-.356.983.015,2.577,2.445,5.152,2.829,8.208,1.2.737-.392,1.071.182,1.562.42-.2.468-.107.763.409.983.82.349,1.571.881,2.41,1.159,1.141.379,2.078,1.361,3.408,1.177,1.045.218,1.389.733,1.323,1.9-.152,2.693-.048,5.4-.051,8.1,0,2.3-.861,3.163-3.153,3.163C707.86,225.39,707.334,225.358,706.809,225.341Z" transform="translate(-54.506 -102.076)" fill="#76b6f3"/>
      <path id="Trazado_653198" data-name="Trazado 653198" d="M667.249,120.65a5.98,5.98,0,0,1-2.259-2.214,2.691,2.691,0,0,0-1.58-1.233,5.534,5.534,0,0,1-1.2-10.037,1.914,1.914,0,0,0,.979-2.238,5.555,5.555,0,0,1,5.141-6.457c.475-.023.747.017.661.617a176.588,176.588,0,0,0-1.616,21.443C667.38,120.55,667.34,120.569,667.249,120.65Z" transform="translate(-36.555 -36.704)" fill="#eeecef"/>
      <path id="Trazado_653199" data-name="Trazado 653199" d="M686.811,118.482a2.636,2.636,0,0,1,1.765-.232,8.208,8.208,0,0,0,7.183-2.108,1.757,1.757,0,0,0,.323-.371,2.189,2.189,0,0,1,2.178-1.132,8.129,8.129,0,0,0,8.178-7.1,7.894,7.894,0,0,0-4.361-8.407,1.016,1.016,0,0,1-.553-.66,10.61,10.61,0,0,0-.842-1.986,5.429,5.429,0,0,1,5.648,3.855,2.718,2.718,0,0,0,1.439,1.74,6.349,6.349,0,0,1,3.429,4.683,1.79,1.79,0,0,0,1.594,1.724,7.89,7.89,0,0,1-1.2,4,1.669,1.669,0,0,0-2.308.295,6.508,6.508,0,0,1-5.63,1.843,1.659,1.659,0,0,0-1.7.755,6.542,6.542,0,0,1-7.53,2.773,1.831,1.831,0,0,0-1.788.582,7.5,7.5,0,0,1-4.961,1.945c-.706.022-1.062-.13-.93-.918A10.27,10.27,0,0,0,686.811,118.482Z" transform="translate(-52.943 -35.509)" fill="#dddade"/>
      <path id="Trazado_653200" data-name="Trazado 653200" d="M728.986,194.715c.671.1,1.105-.4,1.59-.7,2.225-1.352,4.414-2.763,6.62-4.147,1.623-1.019,2.764-.944,3.716.191a2.718,2.718,0,0,1,.56,1.561c.225,2.618.838,5.207.632,7.859-1.28.14-2.559.277-3.838.425a1.489,1.489,0,0,1-.852-.17c-2.761-1.335-5.472-2.767-8.152-4.257-.194-.108-.573-.136-.407-.54l.138-.229Z" transform="translate(-78.291 -91.321)" fill="#98c7f5"/>
      <path id="Trazado_653201" data-name="Trazado 653201" d="M656.379,169.281a20.3,20.3,0,0,1,.171,3.578,3.584,3.584,0,0,1-.642-.245c-3.864-2.4-7.621-4.95-11.3-7.625-.357-.26-.654-.82-1.264-.5l-.016-.055.042-.04c.026-.158-.072-.22-.2-.258a23.72,23.72,0,0,1-1.952-4.7c-.155-.487-.081-.684.385-.876a13.459,13.459,0,0,0,1.452-.806,2.6,2.6,0,0,1,0,.786c-.4,1.247.3,1.875,1.212,2.538,2.675,1.951,5.363,3.883,8.113,5.726A29.587,29.587,0,0,0,656.379,169.281Z" transform="translate(-25.496 -72.408)" fill="#76b6f3"/>
      <path id="Trazado_653202" data-name="Trazado 653202" d="M646.677,174.542c.61-.319.907.242,1.264.5,3.677,2.674,7.433,5.229,11.3,7.625a3.582,3.582,0,0,0,.642.245c.125,1.446.241,2.893.383,4.338a.631.631,0,0,1-.417.767c-.939.389-1.864.811-2.887,1.261-.035-.581-.03-1.094-.1-1.6a6.626,6.626,0,0,0-2.7-4.549A25.611,25.611,0,0,1,646.677,174.542Z" transform="translate(-28.826 -82.462)" fill="#96c5f2"/>
      <path id="Trazado_653203" data-name="Trazado 653203" d="M701.932,77.748a38.881,38.881,0,0,1,6.777,4.012,28.638,28.638,0,0,1,6.52,7.227c.114.181.223.333.006.5-.607-.452-1.191-.942-1.831-1.342a1.764,1.764,0,0,1-.655-.945,8.537,8.537,0,0,0-9.421-5.11,1.329,1.329,0,0,1-1.112-.2,8.344,8.344,0,0,0-8.348-1.069,1.021,1.021,0,0,1-.8.067,15.719,15.719,0,0,0,.448-2.154c.069-.946.523-1.279,1.42-1.316A24.9,24.9,0,0,1,701.932,77.748Z" transform="translate(-56.765 -23.979)" fill="#96c5f2"/>
      <path id="Trazado_653204" data-name="Trazado 653204" d="M659.091,169.014a29.594,29.594,0,0,1-4-2.479c-2.75-1.844-5.438-3.775-8.113-5.726-.91-.663-1.613-1.292-1.212-2.538a2.6,2.6,0,0,0,0-.786c.271-.382.455-.045.628.1q5.95,4.913,12.265,9.346C659.446,167.48,659.014,168.3,659.091,169.014Z" transform="translate(-28.208 -72.141)" fill="#96c5f2"/>
      <path id="Trazado_653205" data-name="Trazado 653205" d="M745.157,166.066c.939.663.316,1.065-.25,1.469-3.78,2.693-7.584,5.352-11.554,7.764a32.718,32.718,0,0,1-3.315,1.961c-.458-.909-.163-1.411.73-1.923C735.723,172.5,740.468,169.323,745.157,166.066Z" transform="translate(-78.901 -77.416)" fill="#96c5f2"/>
      <path id="Trazado_653206" data-name="Trazado 653206" d="M689.523,248.621a3.383,3.383,0,0,1,2.419,3.229,3.56,3.56,0,0,1-2.3,3.464,3.478,3.478,0,0,1-3.989-1.1,2.79,2.79,0,0,0,1.381-.494A4.978,4.978,0,0,0,689.523,248.621Z" transform="translate(-52.3 -127.132)" fill="#f2cf54"/>
      <path id="Trazado_653207" data-name="Trazado 653207" d="M632.56,136.372a3.4,3.4,0,0,1,2.417,3.324,3.534,3.534,0,0,1-2.286,3.362,3.471,3.471,0,0,1-4.046-1.146,1.865,1.865,0,0,0,.947-.194A4.979,4.979,0,0,0,632.56,136.372Z" transform="translate(-17.967 -59.533)" fill="#e14347"/>
      <path id="Trazado_653208" data-name="Trazado 653208" d="M710.893,188.244a3.394,3.394,0,0,1,2.4,3.258,3.558,3.558,0,0,1-2.347,3.445,3.48,3.48,0,0,1-3.981-1.159,1.858,1.858,0,0,0,1.124-.276A4.984,4.984,0,0,0,710.893,188.244Z" transform="translate(-65.136 -90.772)" fill="#54b09c"/>
      <path id="Trazado_653209" data-name="Trazado 653209" d="M800.692,123.317a3.463,3.463,0,0,1,2.349,3.314,3.625,3.625,0,0,1-2.292,3.3,3.453,3.453,0,0,1-4-1.046C799.425,128.118,800.676,126.353,800.692,123.317Z" transform="translate(-119.201 -51.671)" fill="#ea9853"/>
      <path id="Trazado_653210" data-name="Trazado 653210" d="M799.366,122.927c-.015,3.036-1.266,4.8-3.948,5.568a3.5,3.5,0,0,1-.219-4.35A3.442,3.442,0,0,1,799.366,122.927Z" transform="translate(-117.875 -51.281)" fill="#eca86d"/>
      <path id="Trazado_653211" data-name="Trazado 653211" d="M709.648,187.912a4.984,4.984,0,0,1-2.8,5.268,1.858,1.858,0,0,1-1.124.276,3.518,3.518,0,0,1,3.924-5.544Z" transform="translate(-63.891 -90.44)" fill="#62cab1"/>
      <path id="Trazado_653212" data-name="Trazado 653212" d="M631.32,136.046a4.979,4.979,0,0,1-2.969,5.345,1.865,1.865,0,0,1-.947.194,3.519,3.519,0,0,1,3.915-5.539Z" transform="translate(-16.726 -59.207)" fill="#e4565c"/>
      <path id="Trazado_653213" data-name="Trazado 653213" d="M688.212,248.291a4.978,4.978,0,0,1-2.488,5.1,2.79,2.79,0,0,1-1.382.494,3.517,3.517,0,0,1,3.869-5.592Z" transform="translate(-50.989 -126.802)" fill="#f6dd77"/>
      <path id="Trazado_653214" data-name="Trazado 653214" d="M687.639,195.791a25.842,25.842,0,0,1-.2-3.578c1.358.643,2.527,1.624,3.93,2.185.272.652.044,1.025-.614,1.255-.58.2-1.127.5-1.689.757C688.5,196.409,688.166,195.878,687.639,195.791Z" transform="translate(-53.362 -93.162)" fill="#76b6f3"/>
      <path id="Trazado_653215" data-name="Trazado 653215" d="M693.008,207.645c.357.208.852.293.808.869-.038.5-.482.6-.828.749-1.325.578-2.5,1.492-3.949,1.788-.376-.939-.214-1.58.848-1.967S691.97,208.132,693.008,207.645Z" transform="translate(-54.228 -102.456)" fill="#96c5f2"/>
      <path id="Trazado_653216" data-name="Trazado 653216" d="M676.179,217.943c-1.276.46-2.427,1.215-3.74,1.588-.093-1.644-.093-1.645,1.374-2.284.271-.118.545-.23.816-.348C676.176,216.224,676.176,216.223,676.179,217.943Z" transform="translate(-44.321 -107.775)" fill="#96c5f2"/>
      <path id="Trazado_653217" data-name="Trazado 653217" d="M691.21,191.653c-1.4-.561-2.572-1.542-3.93-2.185l-.12-1.813c1.09.708,1.993,1.379,2.973,1.906A1.688,1.688,0,0,1,691.21,191.653Z" transform="translate(-53.206 -90.416)" fill="#96c5f2"/>
      <path id="Trazado_653218" data-name="Trazado 653218" d="M732.408,215.081c-1.331.184-2.267-.8-3.408-1.177-.839-.278-1.59-.81-2.41-1.159-.516-.22-.61-.515-.409-.983Z" transform="translate(-76.647 -104.935)" fill="#96c5f2"/>
      <path id="Trazado_653219" data-name="Trazado 653219" d="M687.97,201.208c.527.087.859.618,1.423.619a.706.706,0,0,1-.135.132C687.965,202.677,687.952,202.669,687.97,201.208Z" transform="translate(-53.692 -98.579)" fill="#96c5f2"/>
      <path id="Trazado_653220" data-name="Trazado 653220" d="M729.055,203.12l-.138.229Z" transform="translate(-78.354 -99.731)" fill="#76b6f3"/>
      <path id="Trazado_653221" data-name="Trazado 653221" d="M646.239,173.8c.129.037.226.1.2.258Z" transform="translate(-28.563 -82.072)" fill="#96c5f2"/>
      <path id="Trazado_653222" data-name="Trazado 653222" d="M699.969,134.148a5.161,5.161,0,0,1-4.276-2.29,1.5,1.5,0,0,1,.2-2.193,1.476,1.476,0,0,1,2.159.392c1.249,1.516,2.636,1.525,3.862.026a1.5,1.5,0,0,1,2.156-.443,1.48,1.48,0,0,1,.242,2.184A5.126,5.126,0,0,1,699.969,134.148Z" transform="translate(-58.116 -55.304)" fill="#030304"/>
      <path id="Trazado_653223" data-name="Trazado 653223" d="M710.981,113.716a4.955,4.955,0,0,1-3.9-2.335,1.485,1.485,0,0,1,.231-2.117,1.461,1.461,0,0,1,2.159.366q1.95,2.329,3.925-.025a1.485,1.485,0,1,1,2.364,1.791A5.361,5.361,0,0,1,710.981,113.716Z" transform="translate(-65.002 -43.008)" fill="#030304"/>
    </g>
  </g>
</svg>
