<svg xmlns="http://www.w3.org/2000/svg" width="83" height="83" viewBox="0 0 83 83">
  <g id="Grupo_993078" data-name="Grupo 993078" transform="translate(-181 -503)">
    <circle id="Elipse_8159" data-name="Elipse 8159" cx="41.5" cy="41.5" r="41.5" transform="translate(181 503)" fill="#ffd76a"/>
    <g id="Grupo_994153" data-name="Grupo 994153" transform="translate(-829.891 203.997)">
      <path id="Trazado_653224" data-name="Trazado 653224" d="M1044.442,345.375c-.916,0-1.627.009-2.338,0a2.271,2.271,0,0,1-2.373-2.351,25.768,25.768,0,0,1,.117-4.527,5.716,5.716,0,0,1,5.481-4.64c1.056-.024,2.113-.018,3.17,0,.33.005.475-.064.453-.429-.036-.6.189-1.344-.094-1.751s-1.07-.1-1.635-.131a8.923,8.923,0,0,1-6.134-2.78,1.284,1.284,0,0,0-1.365-.431c-7.4,1.51-14.8,2.978-22.2,4.46-.861.172-.859.179-.859-.71q0-11.526-.015-23.052c0-.623.133-.741.746-.646,5.949.919,11.9,1.8,17.856,2.7,1.47.222,2.943.429,4.408.685a1.147,1.147,0,0,0,1.175-.421,8.528,8.528,0,0,1,6.379-2.843c.556-.006.608-.212.588-.665a5.658,5.658,0,0,1,2.409-5.174,5.449,5.449,0,0,1,5.853-.5,5.582,5.582,0,0,1,3.253,4.978c.026.406-.12.889.054,1.2s.728.2,1.1.329a3.451,3.451,0,0,1,2.2,4.033c-.078.341-.086.519.306.7a3.352,3.352,0,0,1,1.465,5.1.542.542,0,0,0,.029.732,3.257,3.257,0,0,1,0,3.841.583.583,0,0,0,.011.792,3.231,3.231,0,0,1,.172,3.538,3.341,3.341,0,0,1-3.055,1.82c-.984.017-1.97.018-2.954,0-.358-.008-.5.068-.49.467.028,1.224.032,2.45,0,3.673-.012.454.179.479.545.487a24.233,24.233,0,0,1,4.025.112,5.719,5.719,0,0,1,4.656,5.47c.028,1.176.018,2.353.007,3.53a2.3,2.3,0,0,1-2.4,2.4c-1.476.013-2.952,0-4.617,0a15.3,15.3,0,0,1,4.458,4.363c.188.288.431.247.687.247,2.234,0,4.467.011,6.7-.005a4.488,4.488,0,0,1,2.078.479q5.946,2.96,11.9,5.9a3.046,3.046,0,0,1,1.936,2.792,3.014,3.014,0,0,1-1.905,2.879q-6.053,2.986-12.094,6a3.938,3.938,0,0,1-1.8.4c-2.858-.006-5.716,0-8.574-.01a1.236,1.236,0,0,0-.948.371,14.842,14.842,0,0,1-20.829-.027,1.234,1.234,0,0,0-.961-.342c-5.02.006-10.04.016-15.059,0a9.216,9.216,0,0,1-.343-18.428c4.515-.048,9.03-.019,13.545,0a1.028,1.028,0,0,0,.99-.5A14.926,14.926,0,0,1,1044.442,345.375Zm-25.473-24.851q0,4.5,0,9c0,.344-.075.64.505.522q9.863-2.008,19.739-3.951c.515-.1.514-.354.513-.738-.007-3.48-.025-6.961.015-10.44.008-.673-.183-.885-.839-.97-2.116-.271-4.222-.616-6.332-.932-4.291-.644-8.584-1.277-12.872-1.943-.616-.1-.75.056-.743.667C1018.987,314.668,1018.968,317.6,1018.968,320.524Zm20.753,37.512a12.682,12.682,0,1,0,12.7-12.661A12.705,12.705,0,0,0,1039.721,358.037Zm13.331-47.243c-1.945,0-3.891-.025-5.836.007a6.47,6.47,0,0,0-4.875,2.269,1.163,1.163,0,0,0-.32.836q.017,6.051.006,12.1a.88.88,0,0,0,.2.654,7.325,7.325,0,0,0,6.349,2.581c.273-.019.372-.085.371-.369q-.012-4.322,0-8.645c0-.269-.065-.447-.355-.334-.583.227-.689-.083-.729-.562a8.639,8.639,0,0,0-.2-1.133c-.078-.352.019-.5.4-.557,1.021-.145,2.036-.325,3.051-.511a2.906,2.906,0,0,0,2.437-2.877,4.325,4.325,0,0,0,0-.648c-.052-.409.106-.523.513-.518,1.657.022,3.314.013,4.972.008.908,0,1.434-.433,1.432-1.154s-.526-1.147-1.436-1.149Q1056.042,310.787,1053.052,310.794Zm.443,32.275c3.647,0,7.294-.013,10.942.014.553,0,.687-.152.662-.68-.044-.91,0-1.823-.014-2.734a3.44,3.44,0,0,0-3.51-3.511q-8.026-.02-16.053,0a3.441,3.441,0,0,0-3.491,3.53c-.01.911.037,1.826-.016,2.734-.033.564.165.661.683.658C1046.3,343.058,1049.9,343.069,1053.495,343.069Zm-25.3,16.212c0-2.135-.014-4.27.011-6.4.006-.469-.119-.625-.594-.594-.645.042-1.295,0-1.942.018a6.908,6.908,0,0,0-2.771,13.136,10.5,10.5,0,0,0,4.713.7c.471,0,.6-.125.594-.6C1028.177,363.455,1028.191,361.368,1028.191,359.281Zm23.06-32.683c0,2.232.012,4.463-.01,6.694,0,.445.122.576.566.565,1.175-.029,2.352-.024,3.527,0,.4.008.545-.1.536-.519-.025-1.3-.018-2.591,0-3.887a.6.6,0,0,0-.375-.606,3.352,3.352,0,0,1-1.276-5.065c.122-.2.206-.326.041-.562a3.291,3.291,0,0,1,.024-4.134c.214-.3-.024-.43-.137-.618-.168-.281-.321-.075-.464.027a4.6,4.6,0,0,1-1.888.847c-.447.075-.558.277-.554.709C1051.263,322.231,1051.251,324.414,1051.251,326.6Zm23.085,38.63c.213.094.347-.042.49-.113,1.2-.59,2.4-1.2,3.609-1.773a.765.765,0,0,0,.5-.824c-.022-1.967-.072-3.937.016-5.9a1.639,1.639,0,0,0-1.155-1.872c-1.163-.471-2.267-1.091-3.456-1.677Zm-9.307.9c2.245,0,4.355-.01,6.465.009.405,0,.524-.109.519-.517q-.031-2.949,0-5.9c0-.406-.109-.529-.517-.519-1.1.027-2.21.062-3.308-.01-.726-.047-.981.181-.961.894a5.356,5.356,0,0,1-.21,1.2A15.443,15.443,0,0,1,1065.029,366.125Zm-32.226-6.92V353.95c0-1.668,0-1.64-1.659-1.674-.551-.011-.662.146-.659.672.024,3.815.013,7.63.013,11.445,0,1.754,0,1.734,1.732,1.743.481,0,.589-.139.584-.6C1032.789,363.429,1032.8,361.317,1032.8,359.205Zm20.734-50.72c.984,0,1.968,0,2.952,0,.214,0,.459.093.532-.291a3.551,3.551,0,1,0-6.928.033c.079.335.3.257.491.258C1051.569,308.49,1052.553,308.485,1053.537,308.485Zm12.724,43.807a15.657,15.657,0,0,1,1.031,4.285c.021.293.2.329.442.328q1.945-.01,3.891,0c.263,0,.387-.057.384-.355q-.019-1.945,0-3.89c0-.274-.079-.376-.365-.374C1069.869,352.3,1068.094,352.292,1066.261,352.292Zm-26.473,13.832a14.99,14.99,0,0,1-2.079-5.225c-.332-1.819-.317-1.812-2.2-1.7-.31.018-.408.1-.406.41q.018,3.056,0,6.112c0,.311.087.413.4.409C1036.893,366.116,1038.279,366.125,1039.788,366.125Zm19.512-48.417c.742,0,1.484.013,2.226,0a1.152,1.152,0,1,0,.008-2.3q-2.19-.023-4.38,0a1.157,1.157,0,1,0-.008,2.3C1057.863,317.719,1058.582,317.708,1059.3,317.708Zm.015,2.305c-.718,0-1.436-.01-2.154,0a1.157,1.157,0,1,0-.022,2.3q2.19.02,4.379,0a1.153,1.153,0,1,0,.022-2.3C1060.8,320,1060.056,320.014,1059.314,320.014Zm-.03,6.917c.718,0,1.436.008,2.154,0,.832-.011,1.349-.47,1.337-1.169a1.164,1.164,0,0,0-1.3-1.132q-2.154-.016-4.308,0a1.164,1.164,0,0,0-1.3,1.131c-.012.7.5,1.159,1.335,1.17C1057.9,326.938,1058.591,326.931,1059.285,326.931Zm21.944,32.3c0,.743.008,1.486,0,2.23-.005.315.056.461.4.288,1.26-.635,2.538-1.239,3.783-1.9a.68.68,0,0,0-.032-1.29c-1.228-.646-2.485-1.236-3.722-1.866-.4-.2-.434-.024-.429.312C1081.237,357.741,1081.228,358.485,1081.228,359.228Zm-42.68-6.936c-1.059,0-2.062.013-3.064-.007-.348-.007-.383.155-.379.435.012.792,0,1.585,0,2.377,0,1.938,0,1.931,1.949,1.814.289-.017.442-.079.464-.39A15.263,15.263,0,0,1,1038.548,352.292Z" transform="translate(0)" fill="#020202"/>
      <path id="Trazado_653225" data-name="Trazado 653225" d="M1063.8,402.894c.087.08.194.173.295.273,1.3,1.3,2.6,2.614,3.915,3.9.3.295.259.452-.015.732-1.257,1.288-1.248,1.3-2.5.045-1-1-1.978-2.014-3-2.985-.36-.341-.324-.539.019-.83.327-.277.61-.607.92-.905C1063.53,403.03,1063.6,402.883,1063.8,402.894Z" transform="translate(-32.428 -72.092)" fill="#070707"/>
      <path id="Trazado_653226" data-name="Trazado 653226" d="M1207.771,409.168l-.231-.172c-1.519-1.131-1.533-1.31-.2-2.642.981-.981,1.974-1.951,2.936-2.951.321-.333.553-.47.882-.029s1.1.75,1.057,1.25c-.039.427-.681.8-1.067,1.194q-1.493,1.5-2.995,2.994C1208.035,408.927,1207.911,409.037,1207.771,409.168Z" transform="translate(-134.944 -72.234)" fill="#070707"/>
      <path id="Trazado_653227" data-name="Trazado 653227" d="M1068.637,444.512c-.1.118-.178.235-.277.334-1.323,1.326-2.651,2.647-3.97,3.978-.218.22-.347.294-.629.035-1.4-1.286-1.413-1.274-.075-2.612.968-.968,1.959-1.915,2.892-2.915.387-.415.616-.378.942.025.255.316.572.582.859.872C1068.463,444.313,1068.54,444.4,1068.637,444.512Z" transform="translate(-32.754 -100.644)" fill="#070707"/>
      <path id="Trazado_653228" data-name="Trazado 653228" d="M1207.457,442.681c.107.091.2.163.286.246,1.343,1.34,2.679,2.687,4.032,4.017.252.248.219.383-.01.629-1.276,1.37-1.268,1.377-2.559.088-1-1-1.989-2.02-3.013-3-.331-.316-.322-.5.013-.78s.65-.639.974-.96C1207.262,442.841,1207.354,442.77,1207.457,442.681Z" transform="translate(-134.645 -100.391)" fill="#070707"/>
      <path id="Trazado_653229" data-name="Trazado 653229" d="M1066.846,431.7c-.624,0-1.249-.014-1.872.006-.306.01-.458-.072-.4-.4a.375.375,0,0,0,0-.072c-.066-1.843-.066-1.843,1.76-1.843.816,0,1.632.012,2.448-.006.306-.007.458.072.4.4a.372.372,0,0,0,0,.072c.066,1.843.066,1.843-1.76,1.843Z" transform="translate(-34.073 -90.936)"/>
      <path id="Trazado_653230" data-name="Trazado 653230" d="M1210.681,429.382c.6,0,1.2.027,1.8-.009.4-.024.461.133.468.489.038,1.826.048,1.826-1.786,1.826-.768,0-1.537-.017-2.3.007-.372.012-.538-.041-.544-.487-.026-1.826-.044-1.826,1.79-1.826Z" transform="translate(-136.324 -90.924)"/>
      <path id="Trazado_653231" data-name="Trazado 653231" d="M1024.649,343.949c0-2.928.019-5.857-.015-8.785-.007-.611.127-.763.743-.667,4.288.666,8.581,1.3,12.872,1.943,2.11.316,4.216.661,6.332.932.655.084.847.3.839.97-.039,3.48-.021,6.96-.014,10.44,0,.384,0,.637-.513.738q-9.877,1.94-19.739,3.951c-.58.118-.505-.178-.5-.522Q1024.652,348.449,1024.649,343.949Z" transform="translate(-5.681 -23.424)" fill="#df7985"/>
      <path id="Trazado_653232" data-name="Trazado 653232" d="M1096.564,466.028a12.682,12.682,0,1,1,12.664,12.7A12.7,12.7,0,0,1,1096.564,466.028Zm17.238-1.134c.984,0,1.969-.018,2.953.009.41.011.608-.05.574-.533-.047-.669-.035-1.338-.14-2.007a8.051,8.051,0,0,0-15.872.008,32.744,32.744,0,0,0-.1,6.612,8.028,8.028,0,0,0,9.917,7.2,8.164,8.164,0,0,0,6.191-8.579c-.022-.387-.175-.409-.478-.407-1.656.01-3.313,0-4.969.009-.474,0-1.039-.185-1.395.088-.278.213-.043.767-.1,1.166a1.14,1.14,0,0,1-1.175,1.039,1.049,1.049,0,0,1-1.1-1.026c-.048-1.607-.039-3.216-.006-4.824a1.086,1.086,0,0,1,1.153-1.049,1.114,1.114,0,0,1,1.12,1.016,1.9,1.9,0,0,1,.008.646c-.1.573.164.67.673.647C1111.976,464.865,1112.89,464.895,1113.8,464.894Z" transform="translate(-56.843 -107.992)" fill="#e3e6e9"/>
      <path id="Trazado_653233" data-name="Trazado 653233" d="M1115.558,333.571q2.99,0,5.98,0c.91,0,1.435.428,1.436,1.149s-.524,1.151-1.432,1.154c-1.657,0-3.315.014-4.972-.008-.407-.005-.565.109-.513.518a4.309,4.309,0,0,1,0,.648,2.906,2.906,0,0,1-2.437,2.877c-1.014.186-2.03.367-3.051.511-.382.054-.479.206-.4.557a8.639,8.639,0,0,1,.2,1.133c.04.479.146.79.729.562.29-.113.356.065.355.334q-.01,4.323,0,8.645c0,.284-.1.35-.371.369a7.325,7.325,0,0,1-6.349-2.581.88.88,0,0,1-.2-.654q0-6.052-.006-12.1a1.163,1.163,0,0,1,.32-.836,6.47,6.47,0,0,1,4.876-2.269C1111.667,333.547,1113.613,333.572,1115.558,333.571Z" transform="translate(-62.506 -22.778)" fill="#e9d0b6"/>
      <path id="Trazado_653234" data-name="Trazado 653234" d="M1115.975,428.33c-3.6,0-7.2-.011-10.8.012-.518,0-.716-.094-.683-.658.053-.909.006-1.823.016-2.734a3.441,3.441,0,0,1,3.491-3.53q8.026-.022,16.053,0a3.44,3.44,0,0,1,3.51,3.511c.012.911-.03,1.825.015,2.734.026.527-.109.684-.662.68C1123.27,428.317,1119.623,428.33,1115.975,428.33Z" transform="translate(-62.481 -85.261)" fill="#c79e7b"/>
      <path id="Trazado_653235" data-name="Trazado 653235" d="M1033.922,484.279c0,2.087-.015,4.174.011,6.26.006.47-.123.6-.594.6a10.494,10.494,0,0,1-4.713-.7A6.908,6.908,0,0,1,1031.4,477.3c.647-.018,1.3.024,1.942-.018.475-.031.6.125.594.594C1033.908,480.009,1033.922,482.144,1033.922,484.279Z" transform="translate(-5.731 -124.998)" fill="#aab1bb"/>
      <path id="Trazado_653236" data-name="Trazado 653236" d="M1136.474,367.948c0-2.183.011-4.367-.01-6.55,0-.432.107-.634.554-.709a4.6,4.6,0,0,0,1.888-.847c.144-.1.3-.308.464-.027.113.188.351.32.137.618a3.291,3.291,0,0,0-.024,4.134c.165.236.081.363-.041.562a3.352,3.352,0,0,0,1.276,5.065.6.6,0,0,1,.375.606c-.016,1.3-.023,2.592,0,3.887.008.42-.139.526-.536.519-1.176-.022-2.352-.027-3.527,0-.444.011-.57-.12-.566-.565C1136.485,372.411,1136.474,370.179,1136.474,367.948Z" transform="translate(-85.222 -41.35)" fill="#a97a4d"/>
      <path id="Trazado_653237" data-name="Trazado 653237" d="M1216.453,492.173V480.014c1.19.586,2.293,1.206,3.457,1.677a1.639,1.639,0,0,1,1.155,1.872c-.088,1.963-.038,3.933-.016,5.9a.765.765,0,0,1-.5.824c-1.213.571-2.406,1.183-3.609,1.773C1216.8,492.13,1216.666,492.267,1216.453,492.173Z" transform="translate(-142.116 -126.945)" fill="#aab1bb"/>
      <path id="Trazado_653238" data-name="Trazado 653238" d="M1184.217,508.134a15.446,15.446,0,0,0,1.988-4.843,5.363,5.363,0,0,0,.21-1.2c-.02-.713.234-.941.961-.894,1.1.072,2.206.037,3.308.01.409-.01.521.113.517.519q-.03,2.949,0,5.9c0,.408-.114.521-.519.517C1188.572,508.124,1186.462,508.134,1184.217,508.134Z" transform="translate(-119.188 -142.009)" fill="#83d2ee"/>
      <path id="Trazado_653239" data-name="Trazado 653239" d="M1066.893,484.2c0,2.111-.014,4.223.011,6.334.005.459-.1.6-.584.6-1.732-.01-1.732.011-1.732-1.743,0-3.815.011-7.631-.013-11.445,0-.527.107-.683.658-.672,1.659.034,1.659.006,1.659,1.674Z" transform="translate(-34.09 -124.992)" fill="#fbe9ae"/>
      <path id="Trazado_653240" data-name="Trazado 653240" d="M1135.724,314.246c-.984,0-1.968,0-2.953,0-.195,0-.412.077-.491-.258a3.551,3.551,0,1,1,6.928-.033c-.073.384-.318.289-.532.291C1137.693,314.252,1136.708,314.247,1135.724,314.246Z" transform="translate(-82.187 -5.761)" fill="#a97a4d"/>
      <path id="Trazado_653241" data-name="Trazado 653241" d="M1188.482,477.312c1.833,0,3.608.005,5.383,0,.286,0,.367.1.365.374q-.016,1.945,0,3.89c0,.3-.121.357-.385.355q-1.945-.014-3.891,0c-.244,0-.421-.035-.442-.328A15.652,15.652,0,0,0,1188.482,477.312Z" transform="translate(-122.221 -125.02)" fill="#f4d57e"/>
      <path id="Trazado_653242" data-name="Trazado 653242" d="M1085.255,508.072c-1.509,0-2.894-.009-4.28.007-.318,0-.406-.1-.4-.409q.018-3.056,0-6.112c0-.314.1-.391.406-.41,1.882-.112,1.867-.119,2.2,1.7A14.988,14.988,0,0,0,1085.255,508.072Z" transform="translate(-45.467 -141.947)" fill="#83d2ee"/>
      <path id="Trazado_653243" data-name="Trazado 653243" d="M1155.917,351.849c-.718,0-1.436.011-2.154,0a1.157,1.157,0,1,1,.008-2.3q2.189-.018,4.379,0a1.152,1.152,0,1,1-.007,2.3C1157.4,351.861,1156.658,351.848,1155.917,351.849Z" transform="translate(-96.617 -34.14)" fill="#e7cdb4"/>
      <path id="Trazado_653244" data-name="Trazado 653244" d="M1155.931,365.518c.742,0,1.484-.013,2.226,0a1.152,1.152,0,1,1-.022,2.3q-2.19.022-4.38,0a1.157,1.157,0,1,1,.022-2.3C1154.495,365.507,1155.213,365.517,1155.931,365.518Z" transform="translate(-96.617 -45.504)" fill="#e7cdb4"/>
      <path id="Trazado_653245" data-name="Trazado 653245" d="M1155.9,383.792c-.694,0-1.388.008-2.082,0-.832-.011-1.347-.47-1.335-1.17a1.164,1.164,0,0,1,1.3-1.131q2.154-.016,4.308,0a1.164,1.164,0,0,1,1.3,1.132c.012.7-.5,1.158-1.337,1.169C1157.337,383.8,1156.619,383.792,1155.9,383.792Z" transform="translate(-96.617 -56.861)" fill="#e7cdb4"/>
      <path id="Trazado_653246" data-name="Trazado 653246" d="M1240.311,494.873c0-.743.009-1.487,0-2.23-.005-.336.032-.514.429-.312,1.237.63,2.494,1.22,3.722,1.866a.68.68,0,0,1,.032,1.29c-1.245.664-2.523,1.268-3.783,1.9-.344.173-.4.027-.4-.288C1240.319,496.36,1240.311,495.617,1240.311,494.873Z" transform="translate(-159.083 -135.646)" fill="#aab1bb"/>
      <path id="Trazado_653247" data-name="Trazado 653247" d="M1084.019,477.306a15.264,15.264,0,0,0-1.025,4.228c-.022.311-.175.373-.464.39-1.95.117-1.949.124-1.949-1.814,0-.792.008-1.585,0-2.377,0-.279.031-.442.379-.435C1081.958,477.319,1082.96,477.306,1084.019,477.306Z" transform="translate(-45.471 -125.013)" fill="#f4d57e"/>
      <path id="Trazado_653248" data-name="Trazado 653248" d="M1124.982,470.578c-.912,0-1.826-.029-2.736.012-.509.023-.774-.074-.673-.647a1.9,1.9,0,0,0-.008-.646,1.114,1.114,0,0,0-1.12-1.016,1.086,1.086,0,0,0-1.153,1.049c-.033,1.607-.042,3.217.006,4.824a1.049,1.049,0,0,0,1.1,1.026,1.14,1.14,0,0,0,1.175-1.039c.053-.4-.182-.953.1-1.166.356-.273.921-.085,1.395-.088,1.656-.011,3.313,0,4.969-.009.3,0,.455.021.478.407a8.164,8.164,0,0,1-6.191,8.579,8.028,8.028,0,0,1-9.916-7.2,32.752,32.752,0,0,1,.1-6.612,8.051,8.051,0,0,1,15.872-.008c.1.669.093,1.338.14,2.007.034.483-.164.544-.574.533C1126.951,470.56,1125.966,470.578,1124.982,470.578Zm1.058-2.305a5.73,5.73,0,0,0-11.229-.049,31.914,31.914,0,0,0-.128,6.034,5.725,5.725,0,0,0,5.047,5.5,5.853,5.853,0,0,0,6.159-3.854c.215-.612.093-.808-.553-.728a5.659,5.659,0,0,1-1.151,0,.655.655,0,0,0-.709.436,3.375,3.375,0,0,1-3.873,1.764,3.433,3.433,0,0,1-2.633-3.429c-.01-1.416,0-2.832,0-4.248a3.465,3.465,0,0,1,2.583-3.614,3.4,3.4,0,0,1,3.971,1.831c.133.235.25.366.538.357C1124.7,468.259,1125.352,468.272,1126.041,468.272Z" transform="translate(-68.023 -113.675)" fill="#020202"/>
      <path id="Trazado_653249" data-name="Trazado 653249" d="M1131.759,473.949c-.689,0-1.336-.013-1.981.006-.287.009-.4-.122-.538-.357a3.4,3.4,0,0,0-3.971-1.831,3.465,3.465,0,0,0-2.583,3.614c0,1.416-.009,2.832,0,4.248a3.433,3.433,0,0,0,2.633,3.429,3.376,3.376,0,0,0,3.873-1.764.655.655,0,0,1,.709-.436,5.658,5.658,0,0,0,1.151,0c.646-.08.769.116.554.728a5.853,5.853,0,0,1-6.159,3.854,5.725,5.725,0,0,1-5.047-5.5,31.9,31.9,0,0,1,.128-6.034,5.73,5.73,0,0,1,11.229.049Z" transform="translate(-73.741 -119.352)" fill="#dc7884"/>
    </g>
  </g>
</svg>
