<svg xmlns="http://www.w3.org/2000/svg" width="99" height="99" viewBox="0 0 99 99">
  <g id="Grupo_994696" data-name="Grupo 994696" transform="translate(-279 -6697.417)">
    <g id="Grupo_993080" data-name="Grupo 993080" transform="translate(14 53.643)">
      <g id="Grupo_993079" data-name="Grupo 993079" transform="translate(276.153 6651.185)">
        <path id="Trazado_652679" data-name="Trazado 652679" d="M38.249,0A38.249,38.249,0,1,1,0,38.249,38.249,38.249,0,0,1,38.249,0Z" transform="translate(0 4.609)" fill="#006475"/>
      </g>
      <rect id="Rectángulo_309264" data-name="Rectángulo 309264" width="99" height="99" transform="translate(265 6643.775)" fill="none"/>
    </g>
    <g id="Grupo_994692" data-name="Grupo 994692" transform="translate(285 6705.913)">
      <path id="Trazado_653414" data-name="Trazado 653414" d="M-145.513,1595.14c-1,.348-1.363.237-1.957-.637a27.921,27.921,0,0,1-4.78-16.1c0-.885-.019-1.771.007-2.655.013-.427-.115-.614-.559-.569a5.138,5.138,0,0,1-.829,0,2.341,2.341,0,0,0-2.594,1.123,3.417,3.417,0,0,1-4.168,1.09,3.789,3.789,0,0,1-2.36-3.66,3.82,3.82,0,0,1,2.794-3.433,3.634,3.634,0,0,1,4.082,1.659,1.229,1.229,0,0,0,1.366.732c.712-.056,1.655.222,2.084-.138.5-.423.151-1.4.167-2.134.03-1.41-.015-2.822.021-4.231.013-.522-.155-.652-.658-.645q-2.945.04-5.892,0a.811.811,0,0,0-.816.514,3.715,3.715,0,0,1-4.224,1.856,3.772,3.772,0,0,1-2.778-3.607,3.771,3.771,0,0,1,2.754-3.624,3.709,3.709,0,0,1,4.236,1.827.866.866,0,0,0,.876.559q2.9-.045,5.809,0c.552.009.7-.167.692-.7-.027-2.157-.018-4.315-.009-6.472.006-1.379.425-1.985,1.682-2.283a49.6,49.6,0,0,0,13.383-5.594c8.844-5.12,17.672-5.017,26.463.165a35.5,35.5,0,0,0,3.791,2.014c0-2.465-.01-4.811.009-7.156,0-.465-.354-.5-.619-.662a3.767,3.767,0,0,1-1.754-4.206,3.778,3.778,0,0,1,3.537-2.76,3.756,3.756,0,0,1,3.667,2.692,3.686,3.686,0,0,1-1.75,4.263.983.983,0,0,0-.6,1.016q.038,3.651,0,7.3a.862.862,0,0,0,.655.962,45.326,45.326,0,0,0,5.823,1.869c1.584.374,2,.909,2,2.546q0,5.394,0,10.787c0,1.1-.231,1.379-1.242,1.636-1.009-.249-1.253-.542-1.255-1.622-.008-3.4,0-6.791,0-10.186,0-.356.063-.708-.442-.834-1.094-.274-2.176-.594-3.264-.9a69.253,69.253,0,0,1-10.373-4.921c-7.728-4.429-15.506-4.4-23.217.047a52.265,52.265,0,0,1-13.421,5.74c-.572.143-.572.462-.572.9q.009,10.909.006,21.818a25.184,25.184,0,0,0,4.376,14.6A1.4,1.4,0,0,1-145.513,1595.14Zm39.8-57.23a1.215,1.215,0,0,0-1.182,1.31,1.217,1.217,0,0,0,1.243,1.168,1.22,1.22,0,0,0,1.183-1.31A1.217,1.217,0,0,0-105.71,1537.91Zm-57.168,25.171a1.219,1.219,0,0,0-1.233,1.18,1.22,1.22,0,0,0,1.244,1.253,1.224,1.224,0,0,0,1.233-1.181A1.221,1.221,0,0,0-162.878,1563.08Zm5.084,10.91a1.181,1.181,0,0,0-1.113-1.277,1.248,1.248,0,0,0-1.353,1.143,1.238,1.238,0,0,0,1.137,1.274A1.185,1.185,0,0,0-157.793,1573.991Z" transform="translate(166.607 -1535.414)" fill="#070605"/>
      <path id="Trazado_653415" data-name="Trazado 653415" d="M-52.515,1643.189c1.062.349,1.3.594,1.225,1.742-.058.867.229,1.059,1.051,1.028,1.8-.066,3.6-.035,5.394-.01a.918.918,0,0,0,.955-.568,3.683,3.683,0,0,1,4.239-1.81,3.766,3.766,0,0,1,2.739,3.636,3.758,3.758,0,0,1-2.718,3.567,3.7,3.7,0,0,1-4.254-1.781.863.863,0,0,0-.867-.571c-1.964.031-3.929.023-5.893.005-.437,0-.641.075-.635.581a31.894,31.894,0,0,1-.365,6.118c-.06.33.047.448.381.443.94-.013,1.882-.032,2.821.007.513.021.552-.382.725-.665a3.757,3.757,0,0,1,4.144-1.732,3.816,3.816,0,0,1,2.81,3.507,3.761,3.761,0,0,1-2.592,3.66,3.66,3.66,0,0,1-4.4-1.744.916.916,0,0,0-.967-.548c-1,.028-1.992.013-2.988.006-.327,0-.557.026-.665.432-1.816,6.806-6.245,11.765-11.473,16.146a53.242,53.242,0,0,1-14.493,8.543,2.735,2.735,0,0,1-2.163-.011A54.922,54.922,0,0,1-90.74,1677.8c-.132-.089-.274-.163-.408-.243-.21.262-.124.517-.125.75-.009,1.66.021,3.32-.014,4.98a2.327,2.327,0,0,0,1.126,2.506,3.432,3.432,0,0,1,1.112,4.164,3.747,3.747,0,0,1-3.645,2.373,3.775,3.775,0,0,1-3.423-2.687,3.565,3.565,0,0,1,1.478-4.069,1.618,1.618,0,0,0,.878-1.708c-.041-2.517-.027-5.035-.006-7.552a1.247,1.247,0,0,0-.519-1.12,50.488,50.488,0,0,1-4.792-4.342,1.35,1.35,0,0,1-.216-1.982c.933-.542,1.309-.481,2.155.389a49.542,49.542,0,0,0,17.011,11.363c.316.129.62.373,1.015.183.668-.321,1.347-.617,2.022-.924a5.031,5.031,0,0,0,.543-.181,49.755,49.755,0,0,0,16.156-11.809,24.835,24.835,0,0,0,6.586-16.483c.065-2.184.043-4.37.028-6.556A1.452,1.452,0,0,1-52.515,1643.189Zm13.108,4.01a1.214,1.214,0,0,0-1.176-1.235,1.211,1.211,0,0,0-1.3,1.19,1.214,1.214,0,0,0,1.175,1.237A1.216,1.216,0,0,0-39.408,1647.2Zm-51.9,41.431a1.218,1.218,0,0,0-1.221-1.276,1.21,1.21,0,0,0-1.211,1.2,1.218,1.218,0,0,0,1.219,1.278A1.221,1.221,0,0,0-91.311,1688.63Zm46.7-30.612a1.253,1.253,0,0,0,1.349-1.151A1.241,1.241,0,0,0-44.4,1655.6a1.183,1.183,0,0,0-1.324,1.147A1.182,1.182,0,0,0-44.608,1658.017Z" transform="translate(121.912 -1607.339)" fill="#050504"/>
      <path id="Trazado_653416" data-name="Trazado 653416" d="M-87.972,1630.644c-.675.307-1.355.6-2.022.924-.395.19-.7-.054-1.015-.183a49.543,49.543,0,0,1-17.011-11.363c-.847-.87-1.222-.931-2.155-.388l-1.525-1.8a1.4,1.4,0,0,0,.141-2,25.186,25.186,0,0,1-4.376-14.6q0-10.909-.006-21.819c0-.438,0-.757.572-.9a52.261,52.261,0,0,0,13.421-5.741c7.711-4.443,15.489-4.477,23.217-.047a69.265,69.265,0,0,0,10.373,4.921q-.011,1.265-.022,2.529a3.033,3.033,0,0,1-.32-.068,72.115,72.115,0,0,1-11.969-5.6c-6.65-3.6-13.328-3.381-19.9.336-.854.483-.98.877-.707,1.859l-2.126,1.147a1.45,1.45,0,0,0-2.044-.377,47.863,47.863,0,0,1-6.351,2.6,2.021,2.021,0,0,0-1.662,2.332c-.005,6.278-.021,12.556,0,18.834a22.681,22.681,0,0,0,5.966,15.733,47.643,47.643,0,0,0,16.331,11.669,2.021,2.021,0,0,0,1.761-.016c1.17-.558,2.349-1.1,3.5-1.7a48.647,48.647,0,0,0,10.711-7.743c0,.795-.68,1.192-1.114,1.658a50.185,50.185,0,0,1-11.065,9.186C-87.607,1630.169-87.935,1630.277-87.972,1630.644Z" transform="translate(132.795 -1558.107)" fill="#f5d26c"/>
      <path id="Trazado_653417" data-name="Trazado 653417" d="M-12.268,1596.671l.022-2.529c1.087.3,2.17.622,3.264.9.505.126.442.478.442.834,0,3.4,0,6.791,0,10.186,0,1.08.247,1.374,1.255,1.623q0,1.388,0,2.776a1.452,1.452,0,0,0-1.262,1.659c.015,2.185.037,4.372-.028,6.555a24.835,24.835,0,0,1-6.586,16.483,49.754,49.754,0,0,1-16.156,11.808,5.086,5.086,0,0,1-.543.181c.037-.367.366-.475.608-.619a50.188,50.188,0,0,0,11.065-9.186c.434-.466,1.113-.864,1.114-1.659q.879-.931,1.758-1.863a21.732,21.732,0,0,0,6.206-14.521c.256-6.85.05-13.707.1-20.561A2.134,2.134,0,0,0-12.268,1596.671Z" transform="translate(76.681 -1574.607)" fill="#f2bb66"/>
      <path id="Trazado_653418" data-name="Trazado 653418" d="M14.092,1542.917a1.239,1.239,0,1,1-1.182,1.309A1.216,1.216,0,0,1,14.092,1542.917Z" transform="translate(46.806 -1540.421)" fill="#e3425d"/>
      <path id="Trazado_653419" data-name="Trazado 653419" d="M-157.87,1618.588a1.221,1.221,0,0,1,1.244,1.251,1.223,1.223,0,0,1-1.233,1.181,1.22,1.22,0,0,1-1.244-1.253A1.219,1.219,0,0,1-157.87,1618.588Z" transform="translate(161.6 -1590.921)" fill="#e3425d"/>
      <path id="Trazado_653420" data-name="Trazado 653420" d="M-145.063,1648.818a1.185,1.185,0,0,1-1.329,1.141,1.238,1.238,0,0,1-1.137-1.274,1.247,1.247,0,0,1,1.353-1.143A1.18,1.18,0,0,1-145.063,1648.818Z" transform="translate(153.876 -1610.241)" fill="#e4425d"/>
      <path id="Trazado_653421" data-name="Trazado 653421" d="M76.451,1652.764a1.24,1.24,0,1,1-1.176-1.235A1.216,1.216,0,0,1,76.451,1652.764Z" transform="translate(6.053 -1612.903)" fill="#e3425d"/>
      <path id="Trazado_653422" data-name="Trazado 653422" d="M-79.494,1777.236a1.221,1.221,0,0,1-1.213,1.2,1.218,1.218,0,0,1-1.219-1.278,1.21,1.21,0,0,1,1.211-1.2A1.218,1.218,0,0,1-79.494,1777.236Z" transform="translate(110.094 -1695.945)" fill="#e3425d"/>
      <path id="Trazado_653423" data-name="Trazado 653423" d="M63.543,1682.9a1.215,1.215,0,1,1,.206-2.421,1.215,1.215,0,1,1-.206,2.421Z" transform="translate(13.76 -1632.223)" fill="#e4425d"/>
      <path id="Trazado_653424" data-name="Trazado 653424" d="M-93.419,1587.905l2.126-1.147c.807.743,1.088.763,2.128.188a17.081,17.081,0,0,1,17.392-.149c2.765,1.505,5.505,3.046,8.39,4.313,0,4.09.043,8.18-.008,12.269-.045,3.579.252,7.167-.309,10.737a26.573,26.573,0,0,1-2.5,7.912,32.374,32.374,0,0,1-6.027,7.818,43.74,43.74,0,0,1-5.185,4.466c-.594.445-1.4.675-1.728,1.442a1.873,1.873,0,0,1-2.192.155,46.907,46.907,0,0,1-13.536-9.686,19.984,19.984,0,0,1-6.061-14.01c-.1-6.384-.029-12.77-.056-19.155,0-.5.229-.66.631-.794a50.233,50.233,0,0,0,6.031-2.509C-93.4,1589.3-93.222,1588.928-93.419,1587.905Zm13.058,33.482c2.073,0,4.146.008,6.219,0,2.24-.011,3.375-1.142,3.383-3.363.008-2.1,0-4.2,0-6.3,0-1.05.017-2.1-.008-3.15-.03-1.274-.57-2.491-1.8-2.673-1.671-.247-1.6-1.208-1.518-2.37a3.614,3.614,0,0,0-.043-.578,6.176,6.176,0,0,0-5.683-5.618,6.2,6.2,0,0,0-6.519,4.631,11.8,11.8,0,0,0-.216,3.047c0,.335-.037.534-.464.606-2.067.347-2.855,1.291-2.858,3.358q-.008,4.519,0,9.038c.005,2.229,1.134,3.361,3.371,3.373C-84.452,1621.4-82.407,1621.387-80.361,1621.387Z" transform="translate(122.814 -1568.166)" fill="#67afee"/>
      <path id="Trazado_653425" data-name="Trazado 653425" d="M-98.434,1582.87c.2,1.023.019,1.4-.9,1.849a50.193,50.193,0,0,1-6.031,2.508c-.4.135-.633.29-.631.794.027,6.385-.045,12.772.056,19.155a19.983,19.983,0,0,0,6.061,14.01,46.908,46.908,0,0,0,13.536,9.686,1.873,1.873,0,0,0,2.192-.155c.2-.077.418-.137.614-.233a44.893,44.893,0,0,0,13.511-10.115,19.459,19.459,0,0,0,5.31-13.131c.111-6.408.037-12.819.059-19.228a.7.7,0,0,0-.557-.769c-1.066-.37-2.121-.776-3.179-1.167-2.885-1.267-5.625-2.807-8.39-4.313a17.082,17.082,0,0,0-17.392.149c-1.039.575-1.321.555-2.128-.188-.273-.982-.147-1.376.707-1.859,6.569-3.717,13.248-3.938,19.9-.336a72.113,72.113,0,0,0,11.969,5.6,3,3,0,0,0,.32.068,2.134,2.134,0,0,1,1.256,2.064c-.045,6.854.161,13.712-.1,20.562a21.731,21.731,0,0,1-6.206,14.521q-.882.929-1.758,1.863a48.647,48.647,0,0,1-10.711,7.743c-1.149.6-2.328,1.14-3.5,1.7a2.021,2.021,0,0,1-1.761.016,47.639,47.639,0,0,1-16.331-11.669,22.681,22.681,0,0,1-5.966-15.733c-.026-6.278-.01-12.556,0-18.834a2.021,2.021,0,0,1,1.662-2.332,47.849,47.849,0,0,0,6.351-2.6A1.45,1.45,0,0,1-98.434,1582.87Z" transform="translate(127.829 -1563.132)" fill="#050505"/>
      <path id="Trazado_653426" data-name="Trazado 653426" d="M-58.066,1647.1c-2.046,0-4.091.009-6.137,0-2.236-.012-3.366-1.145-3.371-3.374q-.01-4.519,0-9.038c0-2.067.791-3.011,2.858-3.358.427-.071.462-.271.464-.605a11.8,11.8,0,0,1,.216-3.048,6.2,6.2,0,0,1,6.519-4.631,6.176,6.176,0,0,1,5.683,5.618,3.611,3.611,0,0,1,.043.578c-.08,1.162-.152,2.123,1.518,2.37,1.233.182,1.773,1.4,1.8,2.673.025,1.049.008,2.1.008,3.15,0,2.1.006,4.2,0,6.3-.008,2.221-1.144,3.351-3.383,3.363C-53.92,1647.106-55.993,1647.1-58.066,1647.1Zm3.351-2.556a24.134,24.134,0,0,0,3.059.066c.477.013.709-.231.708-.709q0-4.685,0-9.369c0-.461-.166-.722-.683-.706-1.021.031-2.043.029-3.065.041-3.147-.013-6.294-.006-9.439-.055-.739-.011-.948.235-.937.952.037,2.484.014,4.969.014,7.454,0,2.391,0,2.407,2.4,2.386C-60.011,1644.58-57.362,1644.69-54.715,1644.542Zm-3.315-13.219h1.66c2.2,0,2.2,0,2.069-2.212a3.692,3.692,0,0,0-3.706-3.593,3.689,3.689,0,0,0-3.731,3.652c-.023.5.021,1-.015,1.493s.134.687.653.67C-60.078,1631.3-59.054,1631.323-58.03,1631.323Z" transform="translate(100.519 -1593.878)" fill="#050506"/>
      <path id="Trazado_653427" data-name="Trazado 653427" d="M-19.556,1604.388c1.059.391,2.113.8,3.179,1.167a.7.7,0,0,1,.557.769c-.022,6.409.052,12.82-.059,19.228a19.459,19.459,0,0,1-5.31,13.131A44.887,44.887,0,0,1-34.7,1648.8c-.2.1-.409.156-.614.233.332-.767,1.134-1,1.728-1.442a43.727,43.727,0,0,0,5.185-4.466,32.371,32.371,0,0,0,6.027-7.818,26.571,26.571,0,0,0,2.5-7.912c.56-3.569.264-7.157.309-10.737C-19.513,1612.568-19.555,1608.478-19.556,1604.388Z" transform="translate(78.986 -1581.444)" fill="#5da2de"/>
      <path id="Trazado_653428" data-name="Trazado 653428" d="M-49.686,1666.192c-2.647.148-5.3.037-7.944.059-2.4.02-2.4,0-2.4-2.386,0-2.485.022-4.97-.014-7.454-.01-.717.2-.963.937-.952,3.146.048,6.293.041,9.439.054-.094.668.186,1.369-.176,2.013-.164-.184-.322-.375-.495-.551a3.723,3.723,0,0,0-5.28-.027,3.6,3.6,0,0,0,.02,5.245,2.966,2.966,0,0,1,1.44,2.64c-.039.605.513.964,1.132.977a1.122,1.122,0,0,0,1.225-1,7.1,7.1,0,0,0,.065-1.234.593.593,0,0,1,.389-.642,4.206,4.206,0,0,0,1.5-1.267c.211.154.177.382.176.6Q-49.675,1664.23-49.686,1666.192Z" transform="translate(95.49 -1615.527)" fill="#e8435f"/>
      <path id="Trazado_653429" data-name="Trazado 653429" d="M-29.384,1657.553c.363-.644.082-1.345.176-2.013,1.022-.012,2.044-.01,3.065-.041.517-.016.683.245.683.706q0,4.685,0,9.37c0,.479-.231.722-.708.709a24.111,24.111,0,0,1-3.059-.066q.009-1.962.017-3.925c0-.214.035-.443-.176-.6A4.074,4.074,0,0,0-29.384,1657.553Z" transform="translate(75.032 -1615.554)" fill="#ce3b53"/>
      <path id="Trazado_653430" data-name="Trazado 653430" d="M-46.353,1636.339c-1.024,0-2.048-.024-3.07.01-.518.017-.689-.168-.653-.67s-.008-1,.015-1.492a3.688,3.688,0,0,1,3.731-3.652,3.691,3.691,0,0,1,3.706,3.593c.134,2.212.134,2.212-2.069,2.212Z" transform="translate(88.841 -1598.894)" fill="#66ace9"/>
      <path id="Trazado_653431" data-name="Trazado 653431" d="M-43.217,1658.339a4.074,4.074,0,0,1,0,4.143,4.206,4.206,0,0,1-1.5,1.268.592.592,0,0,0-.389.642,7.1,7.1,0,0,1-.065,1.234,1.122,1.122,0,0,1-1.225,1c-.619-.013-1.172-.372-1.132-.977a2.966,2.966,0,0,0-1.44-2.64,3.6,3.6,0,0,1-.02-5.245,3.723,3.723,0,0,1,5.28.028C-43.539,1657.963-43.381,1658.155-43.217,1658.339Zm-3.156,3.313a1.191,1.191,0,0,0,1.207-1.193,1.193,1.193,0,0,0-1.193-1.289,1.19,1.19,0,0,0-1.207,1.193A1.193,1.193,0,0,0-46.373,1661.651Z" transform="translate(88.865 -1616.339)" fill="#040102"/>
      <path id="Trazado_653432" data-name="Trazado 653432" d="M-41.256,1666.655a1.193,1.193,0,0,1-1.192-1.289,1.19,1.19,0,0,1,1.207-1.193,1.193,1.193,0,0,1,1.193,1.289A1.191,1.191,0,0,1-41.256,1666.655Z" transform="translate(83.749 -1621.343)" fill="#635a73"/>
    </g>
  </g>
</svg>
