<svg xmlns="http://www.w3.org/2000/svg" width="99" height="99" viewBox="0 0 99 99">
  <g id="Grupo_994697" data-name="Grupo 994697" transform="translate(-593 -6667.417)">
    <g id="Grupo_993081" data-name="Grupo 993081" transform="translate(328 23.643)">
      <g id="Grupo_993079" data-name="Grupo 993079" transform="translate(276.153 6651.185)">
        <path id="Trazado_652679" data-name="Trazado 652679" d="M38.249,0A38.249,38.249,0,1,1,0,38.249,38.249,38.249,0,0,1,38.249,0Z" transform="translate(0 4.609)" fill="#ffd76a"/>
      </g>
      <rect id="Rectángulo_309264" data-name="Rectángulo 309264" width="99" height="99" transform="translate(265 6643.775)" fill="none"/>
    </g>
    <g id="Grupo_994693" data-name="Grupo 994693" transform="translate(606.309 6682.861)">
      <path id="Trazado_653433" data-name="Trazado 653433" d="M227.966,1639.6a1.234,1.234,0,0,1-1.408,1.08c-1.06-.022-2.12,0-3.18-.008-.95-.011-1.314-.387-1.318-1.342-.006-1.248-.014-2.5,0-3.745a3.86,3.86,0,0,1,2.946-3.76c.479-.118.5-.2.249-.606a5.582,5.582,0,0,1,4.509-8.639c.433-.026.6-.059.49-.577a7.017,7.017,0,0,1,8.973-8.34,2.547,2.547,0,0,0,.274.046c-1.126-5.482-.928-6.589-.013-11.042-3.569.906-6.558.045-8.465-3.187-1.718-2.912-1.205-5.765.9-8.362a1.076,1.076,0,0,0-.7-.086c-2.568-.006-5.135,0-7.7-.005-1.148,0-1.468-.324-1.469-1.463q0-1.66,0-3.321a3.915,3.915,0,0,1,3.149-4.105c.089-.024.175-.061.315-.11a5.683,5.683,0,0,1-1.035-4.744,5.529,5.529,0,0,1,2.064-3.194,5.61,5.61,0,0,1,7.1.205c2.221,1.908,2.512,4.649.815,7.725a10.608,10.608,0,0,1,1.243.46,3.785,3.785,0,0,1,2.172,3.385c.041.893.007,1.79.013,2.685,0,.2-.049.366.27.458,3.61,1.037,4.783,2.172,5.952,5.744a19.541,19.541,0,0,1,28.205-.047c.263-.1.173-.327.223-.491a7.024,7.024,0,0,1,5.584-5.178c.381-.082.5-.193.478-.57-.032-.587-.008-1.177-.008-1.766,0-2.694.84-3.847,3.451-4.671a5.733,5.733,0,0,1-.915-5.12,5.536,5.536,0,0,1,2.218-3.009,5.646,5.646,0,0,1,7.66,8.088c.025.031.046.083.079.093,2.437.735,3.336,1.936,3.337,4.462,0,1.084.008,2.167,0,3.25-.008.831-.375,1.21-1.2,1.232-.706.018-1.414-.012-2.12.008a1.182,1.182,0,0,1-1.342-1.058c.3-.895.524-1.061,1.475-1.075a5.888,5.888,0,0,1,.633,0c.336.031.45-.1.442-.439-.021-.844.017-1.69-.016-2.533a1.762,1.762,0,0,0-1.762-1.742c-.491-.02-.984.009-1.476.016-2.187-.007-4.374-.032-6.561-.013a1.756,1.756,0,0,0-1.772,1.811c-.023.775.023,1.554-.017,2.328-.025.478.146.588.6.58,1.458-.026,2.917-.02,4.375-.005.843.009,1.107.246,1.308,1.076a1.1,1.1,0,0,1-1.258,1.048c-.374-.006-.749,0-1.217,0,2.339,3,2.733,6.1.471,9.17-1.981,2.688-4.771,3.307-8.032,2.442a21.814,21.814,0,0,1,.778,5.5,19.87,19.87,0,0,1-.806,5.555c.53-.1,1.021-.221,1.519-.292a7.014,7.014,0,0,1,7.816,8.471c-.124.547-.037.681.545.714a5.575,5.575,0,0,1,4.458,8.577c-.309.495-.2.546.3.673a3.843,3.843,0,0,1,2.861,3.61c.032,1.341.019,2.684.005,4.026a1.066,1.066,0,0,1-1.182,1.188q-6.711.02-13.423,0c-.848,0-1.213-.418-1.22-1.3-.008-1.06,0-2.119,0-3.179,0-2.549.929-3.79,3.443-4.528a6.476,6.476,0,0,1-1.1-2.759c-.011-.117-.044-.233-.048-.349-.015-.411-.022-.821-.032-1.232-.395.033-.789.087-1.184.1-3.553.09-6.192-2-7.284-5.847a19.524,19.524,0,0,1-28.3-.014c-.1.36-.176.645-.263.927a7.046,7.046,0,0,1-7.733,4.865c-.431-.068-.555-.051-.511.448a5.247,5.247,0,0,1-.925,3.474c-.221.326-.217.426.2.536a3.863,3.863,0,0,1,3.028,3.906c.009,1.2.006,2.4,0,3.6,0,.981-.376,1.348-1.381,1.353q-2.19.011-4.38,0c-.88,0-1.145-.216-1.4-1.073a1.165,1.165,0,0,1,1.38-1.051c.322.019.648-.017.971-.028a7.608,7.608,0,0,0,.768.032c.623-.034,1.449.275,1.81-.134.308-.348.076-1.156.118-1.758.191-2.719-1.095-3.027-3.12-2.827-2.23-.009-4.46-.041-6.689-.016a1.724,1.724,0,0,0-1.767,1.663c-.046.89-.005,1.784-.021,2.676-.006.309.11.409.411.4.657-.016,1.316.023,1.972-.012A1.19,1.19,0,0,1,227.966,1639.6Zm-.249-8.783a3.464,3.464,0,0,0,4.95-4.818,3.47,3.47,0,1,0-4.95,4.818Zm.068-49.575a3.462,3.462,0,0,0,4.889-4.862,3.218,3.218,0,0,0-3.5-1.227,3.275,3.275,0,0,0-2.611,2.653A3.234,3.234,0,0,0,227.784,1581.246Zm61.426-4.865a3.226,3.226,0,0,0-3.5-1.225,3.472,3.472,0,0,0-1.389,6.089,3.462,3.462,0,0,0,4.887-4.864Zm-4.7,54.633A3.46,3.46,0,0,0,289.2,1626a3.229,3.229,0,0,0-3.576-1.192,3.268,3.268,0,0,0-2.568,2.858A3.222,3.222,0,0,0,284.509,1631.014Zm-51.424-42.148c.749.013,1.5.013,2.247.043.336.013.451-.1.442-.441-.021-.843.018-1.689-.018-2.531a1.761,1.761,0,0,0-1.76-1.743c-.491-.021-.983.009-1.475.016-2.187-.007-4.374-.031-6.561-.013a1.741,1.741,0,0,0-1.769,1.738c-.032.846,0,1.693-.013,2.54,0,.272.033.438.373.435C227.4,1588.887,230.24,1588.879,233.085,1588.865Zm56.1,44.971c-2.234-.008-4.467-.043-6.7-.013a1.751,1.751,0,0,0-1.765,1.822c-.023.822.007,1.646-.012,2.469-.008.332.093.452.437.449,2.821-.021,5.642-.027,8.463-.037a7.521,7.521,0,0,0,.769.033c.624-.034,1.451.276,1.812-.134.308-.349.075-1.158.118-1.76C292.505,1633.923,291.2,1633.638,289.188,1633.837Zm-30.953-8.3a17.357,17.357,0,1,0-17.358-17.406A17.424,17.424,0,0,0,258.234,1625.541Zm-21.15-24.65a4.92,4.92,0,1,0-4.909-4.95A4.887,4.887,0,0,0,237.084,1600.891Zm42.294,0a4.921,4.921,0,1,0-4.91-4.943A4.9,4.9,0,0,0,279.378,1600.891ZM242.016,1620.4a4.921,4.921,0,1,0-4.954,4.911A4.936,4.936,0,0,0,242.016,1620.4Zm32.452-.04a4.92,4.92,0,1,0,4.958-4.918A4.911,4.911,0,0,0,274.468,1620.36Z" transform="translate(-222.053 -1572.93)" fill="#030303"/>
      <path id="Trazado_653434" data-name="Trazado 653434" d="M233.336,1793.737a1.19,1.19,0,0,0-1.408-1.054c-.656.035-1.315,0-1.972.012-.3.007-.416-.093-.411-.4.016-.892-.025-1.786.021-2.676a1.724,1.724,0,0,1,1.767-1.663c2.229-.025,4.459.007,6.689.016.063.579.467,1.056.442,1.674-.04,1-.015,2.008-.018,3.013-.324.011-.65.047-.972.028a1.165,1.165,0,0,0-1.38,1.051Z" transform="translate(-227.423 -1727.063)" fill="#6fa2f2"/>
      <path id="Trazado_653435" data-name="Trazado 653435" d="M435.466,1618.491c-.2-.83-.465-1.067-1.308-1.076-1.458-.015-2.917-.021-4.375.005-.449.008-.62-.1-.6-.58.04-.774-.007-1.552.017-2.328a1.756,1.756,0,0,1,1.772-1.811c2.187-.02,4.374.006,6.561.013a2.594,2.594,0,0,1,.57,1.752c-.019,1.331,0,2.662,0,3.993Z" transform="translate(-370.535 -1601.435)" fill="#6fa3f2"/>
      <path id="Trazado_653436" data-name="Trazado 653436" d="M459.25,1618.451c0-1.331-.016-2.662,0-3.993a2.594,2.594,0,0,0-.57-1.752c.492-.007.985-.036,1.476-.016a1.762,1.762,0,0,1,1.762,1.742c.033.843,0,1.689.016,2.533.008.339-.105.47-.442.439a5.887,5.887,0,0,0-.633,0c-.951.014-1.178.18-1.475,1.074A.4.4,0,0,1,459.25,1618.451Z" transform="translate(-391.68 -1601.427)" fill="#5f92ef"/>
      <path id="Trazado_653437" data-name="Trazado 653437" d="M305.889,1670.853a17.357,17.357,0,1,1,17.373-17.321A17.421,17.421,0,0,1,305.889,1670.853Zm-2.533-7.708c.309.957.52,1.116,1.511,1.117q4.8,0,9.608,0c.957,0,1.322-.368,1.325-1.321,0-1.484.018-2.967-.007-4.45a5.63,5.63,0,0,0-4.4-5.364c-.239-.053-.522.039-.717-.187,2-3.228,1.823-6.244-.478-8.472a6.186,6.186,0,0,0-7.67-.732,6,6,0,0,0-2.5,3.223,6.3,6.3,0,0,0,1.159,6.046c-.2.038-.283.059-.373.073A5.577,5.577,0,0,0,296,1658.5c-.024,1.507-.013,3.014,0,4.521,0,.857.388,1.224,1.266,1.236.636.009,1.272,0,1.908,0,.939,0,1.192-.2,1.45-1.093Z" transform="translate(-269.707 -1618.242)" fill="#f6f8f9"/>
      <path id="Trazado_653438" data-name="Trazado 653438" d="M262.711,1646.766a4.92,4.92,0,1,1,4.931-4.922A4.9,4.9,0,0,1,262.711,1646.766Zm-.842-6.964a1.034,1.034,0,0,0-1.061.52.96.96,0,0,0,.1,1.178c.231.26.248.412.01.691a.956.956,0,0,0,.054,1.394.945.945,0,0,0,1.39.081c.3-.252.455-.223.74.015a1.034,1.034,0,0,0,1.452-1.448c-.3-.34-.2-.513.031-.8a.926.926,0,0,0,.053-1.12c-.21-.347-.551-.632-.926-.5C263.03,1640.065,262.392,1640.361,261.869,1639.8Z" transform="translate(-247.679 -1618.804)" fill="#d07aa0"/>
      <path id="Trazado_653439" data-name="Trazado 653439" d="M412.076,1646.765a4.921,4.921,0,1,1,4.931-4.93A4.888,4.888,0,0,1,412.076,1646.765Zm-.84-6.959a1.033,1.033,0,0,0-1.1.563.918.918,0,0,0,.12,1.114c.26.283.242.444,0,.737a.945.945,0,0,0,.1,1.389.922.922,0,0,0,1.335.073c.329-.292.5-.219.8.017a1.034,1.034,0,0,0,1.443-1.444c-.257-.319-.281-.5,0-.812a.918.918,0,0,0,.071-1.118c-.2-.352-.541-.645-.916-.51C412.4,1640.064,411.764,1640.337,411.236,1639.806Z" transform="translate(-354.75 -1618.803)" fill="#d07aa0"/>
      <path id="Trazado_653440" data-name="Trazado 653440" d="M267.642,1728.025a4.921,4.921,0,1,1-4.918-4.959A4.909,4.909,0,0,1,267.642,1728.025Zm-2.842-.9a1.1,1.1,0,0,0-.555-1.04.949.949,0,0,0-1.068.038c-.308.239-.507.348-.874.033a.931.931,0,0,0-1.338.116.96.96,0,0,0-.082,1.347c.222.287.268.452.014.761a.956.956,0,0,0,.1,1.395.917.917,0,0,0,1.338.063c.333-.3.509-.221.8.03a.916.916,0,0,0,1.122.059c.35-.206.639-.565.5-.927C264.5,1728.311,264.22,1727.672,264.8,1727.127Z" transform="translate(-247.679 -1680.554)" fill="#d07aa0"/>
      <path id="Trazado_653441" data-name="Trazado 653441" d="M407.163,1727.984a4.92,4.92,0,1,1,4.912,4.952A4.933,4.933,0,0,1,407.163,1727.984Zm6.964.914c-.014-.054-.005-.23-.089-.318a.761.761,0,0,1-.03-1.127.9.9,0,0,0-.253-1.258.959.959,0,0,0-1.3-.016c-.3.253-.46.233-.753,0a.967.967,0,0,0-1.351.063.953.953,0,0,0-.105,1.395c.234.291.255.46,0,.757a1.033,1.033,0,0,0,1.4,1.488c.327-.257.525-.321.857-.011a.89.89,0,0,0,1.118.055A1.025,1.025,0,0,0,414.127,1728.9Z" transform="translate(-354.748 -1680.554)" fill="#d07aa0"/>
      <path id="Trazado_653442" data-name="Trazado 653442" d="M438.111,1792.656c-2.821.01-5.642.016-8.463.038-.344,0-.445-.118-.437-.45.019-.823-.011-1.646.012-2.468a1.751,1.751,0,0,1,1.765-1.822c2.233-.029,4.466.005,6.7.013.019.545.477.944.447,1.529C438.082,1790.548,438.115,1791.6,438.111,1792.656Z" transform="translate(-370.553 -1727.061)" fill="#6fa3f3"/>
      <path id="Trazado_653443" data-name="Trazado 653443" d="M238.457,1617.372c-2.845.013-5.69.022-8.535.044-.34,0-.377-.163-.373-.435.011-.847-.019-1.694.013-2.54a1.741,1.741,0,0,1,1.769-1.738c2.187-.019,4.374.006,6.561.013a3.55,3.55,0,0,1,.575,2.265C238.415,1615.774,238.457,1616.575,238.457,1617.372Z" transform="translate(-227.424 -1601.436)" fill="#6fa3f3"/>
      <path id="Trazado_653444" data-name="Trazado 653444" d="M438.832,1762.022a3.221,3.221,0,0,1-1.451-3.347,3.268,3.268,0,0,1,2.568-2.858,3.229,3.229,0,0,1,3.576,1.192,4.529,4.529,0,0,1-4.34,4.826A.374.374,0,0,0,438.832,1762.022Z" transform="translate(-376.375 -1703.938)" fill="#f4d1a8"/>
      <path id="Trazado_653445" data-name="Trazado 653445" d="M438.63,1586.612a3.469,3.469,0,1,1,4.887-4.864,6.893,6.893,0,0,1-.079,1.116A4.578,4.578,0,0,1,438.63,1586.612Z" transform="translate(-376.36 -1578.296)" fill="#f4d1a8"/>
      <path id="Trazado_653446" data-name="Trazado 653446" d="M238.963,1586.612a3.234,3.234,0,0,1-1.219-3.436,3.275,3.275,0,0,1,2.611-2.653,3.218,3.218,0,0,1,3.5,1.227,5.035,5.035,0,0,1-.348,1.982A4.545,4.545,0,0,1,238.963,1586.612Z" transform="translate(-233.232 -1578.296)" fill="#f4d1a8"/>
      <path id="Trazado_653447" data-name="Trazado 653447" d="M238.877,1761.838a3.471,3.471,0,1,1,4.95-4.818A4.551,4.551,0,0,1,238.877,1761.838Z" transform="translate(-233.213 -1703.947)" fill="#f4d1a8"/>
      <path id="Trazado_653448" data-name="Trazado 653448" d="M259.913,1792.6c0-1-.023-2.01.018-3.013.025-.618-.379-1.1-.442-1.674,2.026-.2,3.311.108,3.12,2.827-.042.6.19,1.41-.118,1.758-.361.409-1.187.1-1.81.134A7.607,7.607,0,0,1,259.913,1792.6Z" transform="translate(-248.889 -1727.001)" fill="#5d8ee8"/>
      <path id="Trazado_653449" data-name="Trazado 653449" d="M459.573,1792.593c0-1.054-.029-2.109.024-3.16.029-.585-.429-.984-.447-1.529,2.011-.2,3.318.087,3.123,2.828-.043.6.19,1.411-.118,1.76-.361.41-1.189.1-1.812.134A7.521,7.521,0,0,1,459.573,1792.593Z" transform="translate(-392.014 -1726.997)" fill="#5c8ce3"/>
      <path id="Trazado_653450" data-name="Trazado 653450" d="M259.585,1617.363c0-.8-.042-1.6.01-2.391a3.551,3.551,0,0,0-.575-2.265c.492-.007.985-.037,1.475-.016a1.761,1.761,0,0,1,1.76,1.743c.036.842,0,1.688.018,2.531.008.338-.106.454-.442.441C261.083,1617.376,260.334,1617.375,259.585,1617.363Z" transform="translate(-248.553 -1601.426)" fill="#5f92ef"/>
      <path id="Trazado_653451" data-name="Trazado 653451" d="M242.054,1765.184a4.551,4.551,0,0,0,4.95-4.818,3.464,3.464,0,0,1-4.95,4.818Z" transform="translate(-236.391 -1707.293)" fill="#f0ba8b"/>
      <path id="Trazado_653452" data-name="Trazado 653452" d="M242.293,1589.993a4.545,4.545,0,0,0,4.54-2.88,5.032,5.032,0,0,0,.348-1.981,3.462,3.462,0,0,1-4.889,4.862Z" transform="translate(-236.562 -1581.676)" fill="#f0ba8b"/>
      <path id="Trazado_653453" data-name="Trazado 653453" d="M441.967,1589.984a4.578,4.578,0,0,0,4.809-3.748,6.9,6.9,0,0,0,.079-1.116,3.462,3.462,0,0,1-4.887,4.864Z" transform="translate(-379.697 -1581.668)" fill="#f0ba8b"/>
      <path id="Trazado_653454" data-name="Trazado 653454" d="M442.627,1765.37a.373.373,0,0,1,.353-.187,4.529,4.529,0,0,0,4.34-4.826,3.46,3.46,0,0,1-4.693,5.014Z" transform="translate(-380.17 -1707.285)" fill="#f0ba8b"/>
      <path id="Trazado_653455" data-name="Trazado 653455" d="M319.49,1679.858c-.258.9-.511,1.088-1.45,1.092-.636,0-1.272.008-1.908,0-.878-.012-1.261-.379-1.266-1.236-.009-1.507-.02-3.014,0-4.521a5.578,5.578,0,0,1,4.809-5.43c.089-.013.178-.034.373-.072a6.3,6.3,0,0,1-1.159-6.046,6,6,0,0,1,2.5-3.223,6.186,6.186,0,0,1,7.67.733c2.3,2.228,2.474,5.244.478,8.472.195.226.479.135.717.187a5.63,5.63,0,0,1,4.4,5.364c.026,1.483.012,2.967.007,4.45,0,.953-.367,1.32-1.325,1.321q-4.8.008-9.608,0c-.991,0-1.2-.16-1.511-1.117a1.33,1.33,0,0,1,1.522-1.017c1.8.035,3.6,0,5.4-.01.962.008,1.926-.009,2.887.036.469.022.538-.17.528-.571-.024-.962,0-1.926-.01-2.888a3.481,3.481,0,0,0-3.28-3.562,15.593,15.593,0,0,0-1.684.023c-2.44-.008-4.883-.094-7.32,0a3.39,3.39,0,0,0-3.279,3.539c-.01.869.057,1.743-.02,2.6-.067.743.2.895.885.86C318.988,1678.788,319.177,1678.948,319.49,1679.858Zm8.244-16.99a4.037,4.037,0,1,0-.046,5.585A4.03,4.03,0,0,0,327.734,1662.869Z" transform="translate(-288.578 -1634.931)" fill="#030202"/>
      <path id="Trazado_653456" data-name="Trazado 653456" d="M334.463,1710.145c-1.8.008-3.6.046-5.4.01a1.33,1.33,0,0,0-1.522,1.017l-2.736.024c-.313-.91-.5-1.07-1.638-1.012-.685.035-.952-.116-.885-.86.077-.862.01-1.736.02-2.6a3.389,3.389,0,0,1,3.279-3.539c2.436-.094,4.879-.008,7.32,0,.054.25.27.376.425.547a4.066,4.066,0,0,1,.99,2.134A27.639,27.639,0,0,1,334.463,1710.145Z" transform="translate(-293.896 -1666.269)" fill="#a482d6"/>
      <path id="Trazado_653457" data-name="Trazado 653457" d="M269.067,1647.038c.523.559,1.161.263,1.845.016.374-.135.716.149.926.5a.925.925,0,0,1-.053,1.12c-.232.286-.332.459-.031.8a1.034,1.034,0,0,1-1.452,1.448c-.285-.237-.442-.267-.74-.015a.945.945,0,0,1-1.39-.081.956.956,0,0,1-.054-1.394c.238-.279.221-.43-.01-.691a.959.959,0,0,1-.1-1.178A1.034,1.034,0,0,1,269.067,1647.038Z" transform="translate(-254.877 -1626.04)" fill="#030202"/>
      <path id="Trazado_653458" data-name="Trazado 653458" d="M418.4,1647.047c.529.531,1.166.258,1.851.01.374-.135.716.157.916.51a.918.918,0,0,1-.071,1.118c-.28.311-.255.493,0,.812a1.034,1.034,0,0,1-1.443,1.444c-.3-.236-.47-.309-.8-.017a.922.922,0,0,1-1.335-.073.945.945,0,0,1-.1-1.389c.246-.293.264-.455,0-.738a.918.918,0,0,1-.12-1.114A1.033,1.033,0,0,1,418.4,1647.047Z" transform="translate(-361.916 -1626.043)" fill="#030202"/>
      <path id="Trazado_653459" data-name="Trazado 653459" d="M271.992,1734.365c-.58.545-.3,1.184-.037,1.875.136.362-.153.722-.5.927a.916.916,0,0,1-1.122-.059c-.29-.251-.466-.332-.8-.03a.917.917,0,0,1-1.338-.063.956.956,0,0,1-.1-1.395c.253-.309.208-.474-.014-.761a.96.96,0,0,1,.082-1.347.931.931,0,0,1,1.338-.116c.367.314.567.2.874-.033a.949.949,0,0,1,1.068-.038A1.1,1.1,0,0,1,271.992,1734.365Z" transform="translate(-254.871 -1687.792)" fill="#040203"/>
      <path id="Trazado_653460" data-name="Trazado 653460" d="M421.29,1736.155a1.025,1.025,0,0,1-.507,1.026.89.89,0,0,1-1.118-.055c-.332-.31-.53-.246-.857.011a1.033,1.033,0,0,1-1.4-1.488c.258-.3.236-.466,0-.757a.953.953,0,0,1,.105-1.395.967.967,0,0,1,1.351-.063c.293.234.456.254.753,0a.959.959,0,0,1,1.3.016.9.9,0,0,1,.253,1.258.761.761,0,0,0,.03,1.127C421.285,1735.926,421.277,1736.1,421.29,1736.155Z" transform="translate(-361.911 -1687.811)" fill="#040203"/>
      <path id="Trazado_653461" data-name="Trazado 653461" d="M336.859,1674.012a4.041,4.041,0,1,1,5.629-5.779A5.188,5.188,0,0,1,336.859,1674.012Z" transform="translate(-303.332 -1640.295)" fill="#f4d1a8"/>
      <path id="Trazado_653462" data-name="Trazado 653462" d="M361.371,1710.149a27.64,27.64,0,0,0-.145-4.281,4.066,4.066,0,0,0-.99-2.134c-.155-.172-.371-.3-.425-.547a15.6,15.6,0,0,1,1.685-.023,3.481,3.481,0,0,1,3.279,3.562c.011.963-.014,1.926.01,2.888.01.4-.059.593-.528.571C363.3,1710.14,362.333,1710.157,361.371,1710.149Z" transform="translate(-320.804 -1666.273)" fill="#926acb"/>
      <path id="Trazado_653463" data-name="Trazado 653463" d="M340.458,1677.376a5.188,5.188,0,0,0,5.629-5.779,4.037,4.037,0,0,1-5.629,5.779Z" transform="translate(-306.931 -1643.659)" fill="#f0ba8b"/>
    </g>
  </g>
</svg>
