<svg xmlns="http://www.w3.org/2000/svg" width="99" height="99" viewBox="0 0 99 99">
  <g id="Grupo_994698" data-name="Grupo 994698" transform="translate(-908 -6697.417)">
    <g id="Grupo_993082" data-name="Grupo 993082" transform="translate(643 53.643)">
      <g id="Grupo_993079" data-name="Grupo 993079" transform="translate(276.153 6651.185)">
        <path id="Trazado_652679" data-name="Trazado 652679" d="M38.249,0A38.249,38.249,0,1,1,0,38.249,38.249,38.249,0,0,1,38.249,0Z" transform="translate(0 4.609)" fill="#006475"/>
      </g>
      <rect id="Rectángulo_309264" data-name="Rectángulo 309264" width="99" height="99" transform="translate(265 6643.775)" fill="none"/>
    </g>
    <g id="Grupo_994694" data-name="Grupo 994694" transform="translate(921.318 6714.345)">
      <path id="Trazado_653464" data-name="Trazado 653464" d="M278.765,1266.989a7.076,7.076,0,0,1-4.334,2.633,10.282,10.282,0,0,1-1.757.132q-18.053.011-36.105.008a7.009,7.009,0,0,1-6.619-3.758,6.911,6.911,0,0,1,2.093-8.968,1.194,1.194,0,0,0,.576-1.142q-.019-24.586-.01-49.172c0-.259-.008-.519.016-.776a1.312,1.312,0,0,1,1.2-1.267,5.879,5.879,0,0,1,.844-.047q21.727,0,43.454,0c1.722,0,2.122.4,2.122,2.115q0,23.6-.018,47.193c0,.731.2.889.857.725a2.279,2.279,0,0,1,.911-.042c.827.141,1.221-.3,1.543-.972a7.749,7.749,0,0,0,.325-5.376,22.634,22.634,0,0,0-1.655-4.409,7.4,7.4,0,0,1,9.175-10.193,7.427,7.427,0,0,1,4.115,10.215,16.943,16.943,0,0,0-1.969,6.565,6.28,6.28,0,0,0,.929,3.7.837.837,0,0,0,.84.467,6.545,6.545,0,0,1,3.174.481,5.022,5.022,0,0,1,2.977,4.6c.035.8.023,1.6,0,2.4a2.864,2.864,0,0,1-1.844,2.755.625.625,0,0,0-.437.669,4.192,4.192,0,0,1-4.374,4.222c-3.979.05-7.96.025-11.941.006A4.281,4.281,0,0,1,278.765,1266.989Zm-1.35-34.92q0-11.937.013-23.874c0-.563-.1-.752-.714-.751q-20.309.029-40.618,0c-.5,0-.674.077-.673.638q.027,23.52.006,47.041c0,.441.082.581.567.58q18.261-.027,36.521-.015a4.769,4.769,0,0,1,.845.041,1.358,1.358,0,0,1,1.116,1.279,1.32,1.32,0,0,1-.955,1.393,3.807,3.807,0,0,1-.762.13,4.2,4.2,0,0,0-.947,8.183,4.318,4.318,0,0,0,5.042-1.966.705.705,0,0,0-.062-.934,2.409,2.409,0,0,1-.53-1.576c0-.942-.013-1.884.008-2.825a4.492,4.492,0,0,1,.833-2.506,1.8,1.8,0,0,0,.316-1.11Q277.41,1243.935,277.415,1232.069Zm-10.011,26.46c-10.591,0-21.091-.029-31.591.02a4.143,4.143,0,0,0-3.708,5.351,4.269,4.269,0,0,0,4.483,3.025q15.01,0,30.021,0a1.019,1.019,0,0,0,.712-.109A7.23,7.23,0,0,1,267.4,1258.529Zm21.437-3.928c.706,0,1.414-.014,2.119.005.4.011.49-.1.337-.487a8.449,8.449,0,0,1-.592-2.744,17.891,17.891,0,0,1,2.209-8.655,4.566,4.566,0,0,0-1.18-5.615,4.559,4.559,0,0,0-6.964,5.57,25.6,25.6,0,0,1,1.211,2.856c.985,2.825,1.559,5.679.412,8.608-.136.349-.032.469.328.464C287.428,1254.592,288.134,1254.6,288.841,1254.6Zm-.039,7.664c2.589,0,5.179.007,7.768,0,.655,0,1.51.28,1.913-.111.439-.426.129-1.293.136-1.966.02-1.9-.835-2.742-2.757-2.744q-4.449,0-8.9,0c-1.789,0-3.578-.011-5.367,0a2.293,2.293,0,0,0-2.51,2.5c-.012.541.031,1.085-.012,1.623s.111.722.688.716C282.775,1262.248,285.788,1262.264,288.8,1262.264Zm.035,2.808q-3.387,0-6.774,0c-.708,0-.865.223-.614.9a1.3,1.3,0,0,0,1.007.892,5.064,5.064,0,0,0,.909.092q5.5.009,11.008,0a5.675,5.675,0,0,0,.769-.074,1.278,1.278,0,0,0,1.12-1.02c.195-.693.138-.786-.581-.788Q292.259,1265.068,288.837,1265.073Z" transform="translate(-229.103 -1204.629)" fill="#030303"/>
      <path id="Trazado_653465" data-name="Trazado 653465" d="M293.413,1239.195q0,11.867,0,23.733a1.8,1.8,0,0,1-.316,1.111,4.492,4.492,0,0,0-.833,2.506c-.021.941-.011,1.883-.008,2.825a2.409,2.409,0,0,0,.53,1.576.705.705,0,0,1,.062.934,4.318,4.318,0,0,1-5.042,1.966,4.2,4.2,0,0,1,.947-8.183,3.807,3.807,0,0,0,.762-.13,1.32,1.32,0,0,0,.955-1.393,1.358,1.358,0,0,0-1.116-1.279,4.77,4.77,0,0,0-.845-.041q-18.261,0-36.521.015c-.485,0-.567-.139-.567-.581q.016-23.521-.006-47.041c0-.561.175-.638.673-.638q20.309.02,40.618,0c.614,0,.716.188.714.751Q293.4,1227.258,293.413,1239.195Zm-20.991-10.971q8.09,0,16.181,0c1.341,0,1.845-.5,1.848-1.817q.006-3.462,0-6.924c0-1.322-.522-1.854-1.829-1.855q-16.216,0-32.433,0c-1.275,0-1.79.52-1.793,1.8q-.008,3.426,0,6.853c0,1.517.421,1.943,1.917,1.944Zm8.464,14.67a3.033,3.033,0,0,0-2.078.947,3.36,3.36,0,0,1-2.264.942,2.921,2.921,0,0,0-3.05,3.1,3.37,3.37,0,0,1-.873,2.147c-1.393,1.565-1.393,2.954-.008,4.509a3.354,3.354,0,0,1,.881,2.142c.12,1.933.966,2.9,2.9,3.074a4.542,4.542,0,0,1,2.629,1.138,2.778,2.778,0,0,0,3.961-.012,4.5,4.5,0,0,1,2.634-1.126c1.9-.184,2.745-1.128,2.877-3.02a3.479,3.479,0,0,1,.9-2.209,2.944,2.944,0,0,0,.021-4.455,3.5,3.5,0,0,1-.918-2.2,2.933,2.933,0,0,0-3.127-3.093,3.025,3.025,0,0,1-2.082-.851A3.328,3.328,0,0,0,280.885,1242.894Zm-6.114-.919q6.78,0,13.56,0c1.285,0,1.969-.5,1.964-1.414s-.685-1.416-1.97-1.416H261.275c-1.3,0-1.963.463-1.991,1.388-.029.941.662,1.443,2,1.443Zm-4.89-6.57h13.555c1.271,0,1.948-.5,1.944-1.43s-.646-1.4-1.96-1.4H256.382a5.556,5.556,0,0,0-.775.027,1.384,1.384,0,0,0-.187,2.7,2.942,2.942,0,0,0,.907.095Zm-7.364,19.749c2.163,0,4.326.014,6.489-.006,1.021-.01,1.675-.615,1.654-1.444s-.645-1.345-1.641-1.379c-.094,0-.188,0-.282,0q-6.207,0-12.415,0a3.689,3.689,0,0,0-.841.06,1.3,1.3,0,0,0-1.067,1.236,1.331,1.331,0,0,0,.921,1.418,3.807,3.807,0,0,0,.975.109C258.379,1255.159,260.448,1255.155,262.518,1255.154Zm.03-9.419c-2.19,0-4.381-.011-6.571,0a1.407,1.407,0,0,0-1.569,1.365,1.379,1.379,0,0,0,1.483,1.447q6.641.024,13.283,0a1.369,1.369,0,0,0,1.374-.918c.379-.985-.316-1.885-1.5-1.9C266.881,1245.722,264.714,1245.735,262.548,1245.735Zm26.366-13.143a1.364,1.364,0,0,0-1.432,1.395,1.426,1.426,0,0,0,1.372,1.414,1.458,1.458,0,0,0,1.447-1.424A1.4,1.4,0,0,0,288.914,1232.592Zm-33.122,9.366a1.411,1.411,0,0,0,1.422-1.369,1.38,1.38,0,0,0-1.445-1.4,1.347,1.347,0,0,0-1.369,1.393A1.363,1.363,0,0,0,255.792,1241.958Z" transform="translate(-245.101 -1211.755)" fill="#faf3e0"/>
      <path id="Trazado_653466" data-name="Trazado 653466" d="M274.569,1394.963a7.23,7.23,0,0,0-.083,8.285,1.02,1.02,0,0,1-.712.109q-15.01.006-30.021,0a4.269,4.269,0,0,1-4.483-3.025,4.143,4.143,0,0,1,3.708-5.351C253.478,1394.934,263.978,1394.963,274.569,1394.963Z" transform="translate(-236.268 -1341.063)" fill="#f8d882"/>
      <path id="Trazado_653467" data-name="Trazado 653467" d="M428.548,1334.173c-.706,0-1.413-.008-2.12,0-.36.006-.464-.115-.328-.464,1.148-2.929.573-5.783-.412-8.608a25.579,25.579,0,0,0-1.211-2.856,4.561,4.561,0,1,1,8.144.045,17.891,17.891,0,0,0-2.209,8.655,8.45,8.45,0,0,0,.591,2.744c.154.383.066.5-.337.487C429.962,1334.159,429.255,1334.174,428.548,1334.173Z" transform="translate(-368.81 -1284.202)" fill="#557a8e"/>
      <path id="Trazado_653468" data-name="Trazado 653468" d="M415.292,1395.948c-3.013,0-6.026-.016-9.039.014-.577.006-.732-.176-.688-.716s0-1.082.012-1.623a2.293,2.293,0,0,1,2.51-2.5c1.789-.015,3.578,0,5.367,0q4.449,0,8.9,0c1.922,0,2.777.84,2.757,2.744-.007.673.3,1.541-.136,1.966-.4.391-1.258.108-1.913.111C420.471,1395.955,417.882,1395.948,415.292,1395.948Z" transform="translate(-355.593 -1338.312)" fill="#f6d681"/>
      <path id="Trazado_653469" data-name="Trazado 653469" d="M421.074,1418.093q3.422,0,6.845,0c.719,0,.776.094.581.788a1.278,1.278,0,0,1-1.12,1.02,5.715,5.715,0,0,1-.769.074q-5.5.007-11.008,0a5.042,5.042,0,0,1-.909-.092,1.3,1.3,0,0,1-1.007-.892c-.251-.675-.094-.9.614-.9Q417.687,1418.09,421.074,1418.093Z" transform="translate(-361.34 -1357.649)" fill="#527689"/>
      <path id="Trazado_653470" data-name="Trazado 653470" d="M279.947,1235.96h-16.11c-1.5,0-1.916-.427-1.917-1.943q0-3.427,0-6.853c0-1.279.518-1.8,1.793-1.8q16.216,0,32.433,0c1.307,0,1.827.533,1.829,1.855q.005,3.462,0,6.924c0,1.322-.507,1.817-1.848,1.817Q288.037,1235.962,279.947,1235.96Zm.019-7.773c-4.852,0-9.7.008-14.555-.012-.529,0-.689.139-.672.671.039,1.176.054,2.357,0,3.531-.033.65.187.77.791.768,6.029-.022,12.058-.013,18.088-.013,3.627,0,7.254-.011,10.881.012.53,0,.686-.138.668-.669-.039-1.2-.044-2.4,0-3.6.022-.574-.17-.7-.714-.7C289.622,1228.2,284.794,1228.187,279.965,1228.187Z" transform="translate(-252.625 -1219.491)" fill="#010201"/>
      <path id="Trazado_653471" data-name="Trazado 653471" d="M331.909,1314.6a3.327,3.327,0,0,1,2.395,1.028,3.028,3.028,0,0,0,2.082.851,2.933,2.933,0,0,1,3.127,3.093,3.5,3.5,0,0,0,.918,2.2,2.944,2.944,0,0,1-.021,4.455,3.479,3.479,0,0,0-.9,2.209c-.132,1.893-.972,2.837-2.877,3.021a4.5,4.5,0,0,0-2.634,1.126,2.778,2.778,0,0,1-3.961.012,4.54,4.54,0,0,0-2.629-1.138c-1.932-.179-2.778-1.141-2.9-3.075a3.353,3.353,0,0,0-.881-2.142c-1.385-1.554-1.385-2.944.008-4.509a3.37,3.37,0,0,0,.873-2.147,2.921,2.921,0,0,1,3.05-3.1,3.36,3.36,0,0,0,2.264-.942A3.033,3.033,0,0,1,331.909,1314.6Zm6.647,9.4a1.93,1.93,0,0,0-.2-.3,5.4,5.4,0,0,1-1.66-3.983c0-.368-.23-.427-.507-.422a5.039,5.039,0,0,1-3.791-1.579.455.455,0,0,0-.76.009,5.018,5.018,0,0,1-3.794,1.568c-.346-.007-.5.144-.505.506a5.13,5.13,0,0,1-1.575,3.795c-.315.3-.266.545.021.823a5.036,5.036,0,0,1,1.548,3.732c0,.41.2.547.549.542a5.054,5.054,0,0,1,3.784,1.593.441.441,0,0,0,.722-.006,5.08,5.08,0,0,1,3.787-1.588c.363,0,.53-.16.536-.553a5.135,5.135,0,0,1,1.552-3.734A3.2,3.2,0,0,0,338.556,1324Z" transform="translate(-296.125 -1283.46)" fill="#030202"/>
      <path id="Trazado_653472" data-name="Trazado 653472" d="M294.68,1304.188H281.191c-1.335,0-2.026-.5-2-1.443.028-.925.688-1.387,1.991-1.387h27.049c1.285,0,1.966.493,1.97,1.416s-.678,1.414-1.964,1.414Q301.46,1304.19,294.68,1304.188Z" transform="translate(-265.01 -1273.968)" fill="#050505"/>
      <path id="Trazado_653473" data-name="Trazado 653473" d="M277.445,1281H263.891a2.946,2.946,0,0,1-.907-.094,1.384,1.384,0,0,1,.187-2.705,5.574,5.574,0,0,1,.775-.027h27.038c1.314,0,1.955.458,1.96,1.4S292.271,1281,291,1281Z" transform="translate(-252.664 -1257.346)" fill="#020202"/>
      <path id="Trazado_653474" data-name="Trazado 653474" d="M270.084,1350.731c-2.069,0-4.138,0-6.207,0a3.79,3.79,0,0,1-.975-.109,1.331,1.331,0,0,1-.921-1.418,1.3,1.3,0,0,1,1.067-1.236,3.681,3.681,0,0,1,.841-.06q6.208-.005,12.415,0c.094,0,.188,0,.282,0,1,.034,1.62.558,1.641,1.379s-.633,1.434-1.654,1.444C274.41,1350.746,272.247,1350.731,270.084,1350.731Z" transform="translate(-252.667 -1307.332)" fill="#050505"/>
      <path id="Trazado_653475" data-name="Trazado 653475" d="M270.11,1324.624c2.167,0,4.334-.013,6.5.005,1.183.01,1.878.911,1.5,1.9a1.369,1.369,0,0,1-1.374.918q-6.641.014-13.283,0a1.379,1.379,0,0,1-1.483-1.447,1.408,1.408,0,0,1,1.569-1.365C265.73,1324.613,267.92,1324.624,270.11,1324.624Z" transform="translate(-252.663 -1290.643)" fill="#010101"/>
      <path id="Trazado_653476" data-name="Trazado 653476" d="M380.209,1278.218a1.4,1.4,0,0,1,1.387,1.385,1.458,1.458,0,0,1-1.447,1.424,1.426,1.426,0,0,1-1.372-1.414A1.364,1.364,0,0,1,380.209,1278.218Z" transform="translate(-336.396 -1257.38)" fill="#070707"/>
      <path id="Trazado_653477" data-name="Trazado 653477" d="M263.337,1304.285a1.362,1.362,0,0,1-1.392-1.376,1.347,1.347,0,0,1,1.369-1.393,1.38,1.38,0,0,1,1.445,1.4A1.411,1.411,0,0,1,263.337,1304.285Z" transform="translate(-252.645 -1274.082)" fill="#050505"/>
      <path id="Trazado_653478" data-name="Trazado 653478" d="M287.09,1235.311c4.828,0,9.656.008,14.484-.012.544,0,.736.123.714.7-.046,1.2-.041,2.4,0,3.6.018.531-.138.672-.668.669-3.627-.023-7.254-.012-10.881-.012-6.029,0-12.058-.009-18.088.013-.6,0-.823-.117-.791-.767.059-1.175.044-2.355,0-3.531-.018-.532.143-.673.672-.671C277.387,1235.319,282.239,1235.311,287.09,1235.311Z" transform="translate(-259.75 -1226.614)" fill="#557a8e"/>
      <path id="Trazado_653479" data-name="Trazado 653479" d="M346.012,1331.377a3.19,3.19,0,0,1-.3.4,5.135,5.135,0,0,0-1.552,3.734c-.005.393-.173.557-.536.553a5.079,5.079,0,0,0-3.787,1.588.441.441,0,0,1-.722.006,5.054,5.054,0,0,0-3.784-1.593c-.347,0-.546-.132-.549-.542a5.036,5.036,0,0,0-1.548-3.732c-.287-.278-.336-.518-.021-.823a5.13,5.13,0,0,0,1.575-3.795c0-.362.159-.514.505-.506a5.019,5.019,0,0,0,3.794-1.568.455.455,0,0,1,.76-.009,5.039,5.039,0,0,0,3.791,1.579c.277-.006.507.053.507.422a5.4,5.4,0,0,0,1.66,3.982A1.93,1.93,0,0,1,346.012,1331.377Z" transform="translate(-303.58 -1290.84)" fill="#e94e65"/>
    </g>
  </g>
</svg>
