<svg xmlns="http://www.w3.org/2000/svg" width="99" height="99" viewBox="0 0 99 99">
  <g id="Grupo_994699" data-name="Grupo 994699" transform="translate(-1223 -6697.417)">
    <g id="Grupo_993083" data-name="Grupo 993083" transform="translate(958 53.643)">
      <g id="Grupo_993079" data-name="Grupo 993079" transform="translate(276.153 6651.185)">
        <path id="Trazado_652679" data-name="Trazado 652679" d="M38.249,0A38.249,38.249,0,1,1,0,38.249,38.249,38.249,0,0,1,38.249,0Z" transform="translate(0 4.609)" fill="#006475"/>
      </g>
      <rect id="Rectángulo_309264" data-name="Rectángulo 309264" width="99" height="99" transform="translate(265 6643.775)" fill="none"/>
    </g>
    <g id="Grupo_994695" data-name="Grupo 994695" transform="translate(1237.416 6711.854)">
      <path id="Trazado_653480" data-name="Trazado 653480" d="M-89.8,1981.8a23.635,23.635,0,0,1,1.841,4.571,18.192,18.192,0,0,1,.639,4.812.557.557,0,0,1-.46.641c-.809.244-1.6.55-2.412.779-.406.114-.523.317-.587.723a4.782,4.782,0,0,1-2.942,3.854.537.537,0,0,0-.4.625,2.983,2.983,0,0,1,0,.705c-.071.491.156.719.574.968a9.79,9.79,0,0,1,5.065,8.511c.082,2.376.015,4.757.025,7.136,0,.192-.125.48.108.564a.677.677,0,0,0,.769-.183c.4-.434.817-.848,1.256-1.24a3.01,3.01,0,0,1,1.918-.792c.343-.014.483-.072.476-.462-.026-1.389-.03-2.779,0-4.168.009-.391-.215-.52-.465-.694a9.534,9.534,0,0,1-.282-15.47,9.1,9.1,0,0,1,4.752-1.794c.366-.032.538-.088.513-.511a5.7,5.7,0,0,1,2.081-5c.2-.169.171-.369.171-.575,0-2.238-.014-4.475.015-6.712.006-.426-.221-.543-.508-.718a7.638,7.638,0,0,1-3.992-7.341,7.593,7.593,0,0,1,4.567-6.705,7.02,7.02,0,0,1,4.463-.631,1.192,1.192,0,0,0,.966-.29c2.824-1.952,5.6-3.974,8.488-5.834a12.233,12.233,0,0,1,18.658,8.761,75.636,75.636,0,0,1,.117,8.117,1.368,1.368,0,0,0,.552,1.178,7.813,7.813,0,0,1,.946,11.156,1.428,1.428,0,0,0-.362,1.013c.012,4.9.019,9.8-.007,14.7,0,.573.167.686.7.675,1.578-.032,1.579-.009,1.579,1.591q0,10.14.012,20.279c0,.546-.067.748-.7.748q-29.993-.03-59.986-.018a6.9,6.9,0,0,1-7.165-7.158q-.007-6.43,0-12.86a7.882,7.882,0,0,1,5.148-7.685c.214-.089.531-.079.508-.464-.02-.347.032-.666-.347-.916q-1.325-.873-2.585-1.843A12.185,12.185,0,0,1-111.06,1984c-.056-2.825-.129-5.659.016-8.478a9.845,9.845,0,0,1,7.588-9.181c3.329-.766,6.746-.82,9.875,1a9.919,9.919,0,0,1,4.97,7.171c.065.371.184.477.547.547A2.232,2.232,0,0,1-86.2,1977.3q.022,1.095,0,2.191a2.262,2.262,0,0,1-2.337,2.3C-88.915,1981.805-89.291,1981.8-89.8,1981.8Zm36.386-11.5c0-1.012-.017-2.025,0-3.037a3.226,3.226,0,0,0-1.723-3.158,3.2,3.2,0,0,0-3.576.333c-2.238,1.559-4.476,3.118-6.73,4.653a.9.9,0,0,0-.438.915,7.746,7.746,0,0,1-4.046,7.378.8.8,0,0,0-.457.82c.017,1.742.034,3.485,0,5.227-.022,1.045-.078,2.065.97,2.712.018.011.025.039.04.057a5.718,5.718,0,0,1,1.254,4.078c-.025.429.074.6.551.624a7.06,7.06,0,0,1,1.727.322,8.954,8.954,0,0,1,6.594,7.273,9.143,9.143,0,0,1-3.8,9.594c-.275.2-.568.328-.554.789.04,1.364.032,2.731,0,4.1-.008.419.137.5.518.492q1.871-.033,3.743,0c.386.007.5-.117.577-.5.592-3.068,1.218-6.13,1.824-9.2.312-1.577.3-1.6,1.9-1.611.41,0,.5-.129.5-.515q-.018-7.522,0-15.045a1.018,1.018,0,0,0-.253-.7,7.812,7.812,0,0,1,1.03-11.447.874.874,0,0,0,.356-.771C-53.423,1972.557-53.411,1971.427-53.411,1970.3Zm-12.437,40.891c0-2.072-.009-4.144.008-6.216,0-.4-.057-.586-.527-.572-1.176.037-2.354.025-3.531,0-.368-.006-.487.1-.479.474.023,1.13-.015,2.261.019,3.39.015.492-.065.7-.635.682-1.859-.042-3.72-.03-5.58-.006-.451.006-.607-.1-.592-.578.035-1.153,0-2.307.017-3.461,0-.335-.043-.511-.449-.5-1.224.026-2.448.017-3.673,0-.3,0-.412.079-.411.4.01,3.155,0,6.31.012,9.465a1.624,1.624,0,0,0,1.423,1.464,3.282,3.282,0,0,1,2.677,1.827.665.665,0,0,0,.693.429q5.227-.021,10.454,0c.464,0,.589-.126.584-.586C-65.862,2015.333-65.848,2013.26-65.848,2011.188ZM-60.3,2022.5q8.2,0,16.391,0c.4,0,.7.047.689-.552-.042-1.907-.025-3.815-.007-5.723,0-.39-.091-.522-.5-.521q-9.679.019-19.358,0c-.415,0-.511.134-.5.523.023,1.106-.021,2.215.02,3.32.02.542-.118.707-.687.7-3.815-.028-7.63-.014-11.445-.014-1.365,0-1.365,0-1.454,1.327a.869.869,0,0,1-.031.279c-.269.622.06.663.569.661Q-68.461,2022.491-60.3,2022.5Zm-46.248-11.327c0,2.238-.013,4.475,0,6.712a4.612,4.612,0,0,0,4.508,4.6c4.357.038,8.714.008,13.071.021.391,0,.526-.1.516-.5-.027-1.13-.043-2.262.005-3.391.023-.546-.151-.65-.665-.647-4.051.022-8.1,0-12.152.025-.584,0-.795-.088-.784-.746.045-2.684.06-5.37,0-8.054a9.287,9.287,0,0,0-3.368-7.038c-.372-.325-.551-.295-.721.175a6.361,6.361,0,0,0-.42,2.2C-106.545,2006.747-106.549,2008.961-106.548,2011.175Zm10.3-29.375c-1.06,0-2.119,0-3.179,0s-1.459.381-1.465,1.427c0,.683,0,1.366,0,2.049,0,1.01,0,1.019-1.009,1.043a1.138,1.138,0,0,0-1.136.677,1.272,1.272,0,0,0,.219,1.444c.219.245.456.477.7.7a3.723,3.723,0,0,1,1.238,2.957c-.033,1.53,0,3.061-.016,4.592a1,1,0,0,0,.33.8c.828.8,1.678,1.59,2.439,2.454.509.579.838.526,1.283-.031.338-.422.742-1.8.451-2.134-.321-.369-.835-.079-1.259-.146a1.854,1.854,0,0,0-.493,0c-.345.039-.482-.052-.494-.448-.053-1.817-.069-1.817,1.736-1.817h.071c3.053,0,3.79-.7,3.847-3.739a.564.564,0,0,1,.473-.633c.765-.228,1.511-.52,2.28-.73.5-.136.642-.34.577-.884a18.855,18.855,0,0,0-2.457-7.075.908.908,0,0,0-.951-.517C-94.131,1981.823-95.191,1981.8-96.251,1981.8Zm1.014,33.919c1.342,0,2.685-.009,4.027.006.337,0,.5-.044.5-.449-.023-2.519.078-5.044-.048-7.557a7.54,7.54,0,0,0-3.767-6.2.584.584,0,0,0-.885.129c-.56.6-1.175,1.157-1.734,1.761-.278.3-.443.279-.72-.005-1.133-1.164-2.291-2.3-3.44-3.454s-1.139-1.138-2.521-.3a.621.621,0,0,1-.06.038c-.466.216-.5.4-.07.765a11.562,11.562,0,0,1,4.192,9.184c0,1.86.012,3.72-.009,5.581,0,.4.109.517.511.51C-97.922,2015.7-96.579,2015.719-95.237,2015.719Zm45.286-2.261c2.07,0,4.14-.01,6.21.009.4,0,.516-.1.514-.507q-.027-4.022,0-8.045c0-.4-.11-.511-.511-.51q-5.257.023-10.515,0c-.371,0-.519.094-.594.486-.493,2.583-1.024,5.16-1.536,7.739-.164.824-.156.826.716.826Zm-13.636-7.833a7.4,7.4,0,0,0,1.792-7.994,7,7,0,0,0-6.35-4.507c-3.555-.044-7.111-.018-10.667-.015a7.086,7.086,0,0,0-7.361,7.918,6.785,6.785,0,0,0,2.236,4.61c0-.863.014-1.584,0-2.3a6.792,6.792,0,0,1,.186-1.732,7.863,7.863,0,0,1,6.538-6.114,40.073,40.073,0,0,1,5.713-.111,7.934,7.934,0,0,1,7.918,8.022C-63.59,2004.094-63.586,2004.792-63.586,2005.624Zm11.307-17.8c0,4.708.005,9.3-.009,13.891,0,.407.161.448.5.445,1.884-.012,3.768-.027,5.651.007.522.01.661-.114.658-.65-.025-4.357-.014-8.713-.014-13.07v-.62A8.01,8.01,0,0,1-52.28,1987.821Zm-38.593-12.805c-.184-3.426-3.99-6.883-7.39-6.784-.336.01-.382.126-.377.408.014.8,0,1.6,0,2.4,0,1.756,0,1.733-1.752,1.729-.476,0-.525-.177-.517-.571.022-1.129-.011-2.26.018-3.389.011-.442-.079-.6-.567-.573a8.063,8.063,0,0,0-7.189,6.28c-.079.423.034.523.442.508.776-.029,1.554-.03,2.33,0,.389.016.471-.125.46-.482-.025-.776-.008-1.553-.008-2.33,0-1.8,0-1.783,1.817-1.732.394.011.457.146.452.491-.018,1.2,0,2.4-.013,3.6,0,.317.055.454.417.451q2.965-.026,5.931,0c.4,0,.457-.152.448-.493-.021-.776-.007-1.553-.007-2.33,0-1.754,0-1.731,1.756-1.725.482,0,.519.188.512.575-.02,1.177,0,2.354-.01,3.531,0,.255-.007.447.354.439C-92.8,1975-91.837,1975.015-90.873,1975.015Zm22.763-4.5a5.669,5.669,0,0,0-5.646-5.677,5.669,5.669,0,0,0-5.659,5.592,5.674,5.674,0,0,0,5.61,5.713A5.673,5.673,0,0,0-68.109,1970.517Zm13.568,10.148a5.67,5.67,0,0,0,5.667,5.656,5.673,5.673,0,0,0,5.638-5.615,5.67,5.67,0,0,0-5.632-5.69A5.668,5.668,0,0,0-54.541,1980.665Zm-11.479,21.486a5.317,5.317,0,0,0-4.278-4.359,22.652,22.652,0,0,0-6.885,0,5.293,5.293,0,0,0-4.237,3.8c-.179.506-.029.568.437.566,3.035-.018,6.07-.009,9.1-.009Zm-32.616-24.874h-8.613c-1.565,0-1.533,0-1.578,1.554-.017.6.153.722.732.721,6-.023,12-.014,18-.014,1.642,0,1.615,0,1.647-1.625.01-.539-.142-.653-.66-.648C-92.282,1977.29-95.459,1977.277-98.636,1977.277Zm-4.589,15.8a2.472,2.472,0,0,0-.963-2.8,2.558,2.558,0,0,1-.439-.458c-1.116-1.361-1.193-3.556.157-4.607a3.356,3.356,0,0,0,1.415-2.954c0-.41-.071-.469-.422-.466-1.153.012-2.307-.01-3.46.01-.6.01-1.392-.267-1.761.123s-.109,1.166-.107,1.772C-108.792,1987.9-106.782,1990.919-103.225,1993.076Zm20.042,29.426c.824,0,1.648.009,2.472,0a1.157,1.157,0,0,0,1.294-1.312c.009-.565,0-1.13,0-1.7,0-1.151-.364-1.508-1.523-1.512a3.5,3.5,0,0,0-.564,0,1.026,1.026,0,0,1-1.267-.765c-.687-1.829-1.6-1.978-2.865-.458-.23.275-.583.44-.574.909.029,1.459.024,2.919,0,4.378-.006.387.125.471.482.461C-84.878,2022.486-84.03,2022.5-83.183,2022.5Zm9.409-31.658c.987,0,1.974,0,2.961,0,.2,0,.39.061.451-.273a3.552,3.552,0,0,0-3.776-4.228,3.485,3.485,0,0,0-3.029,3.921c.025.435.089.615.573.594C-75.655,1990.815-74.713,1990.844-73.773,1990.844Zm4.153-27.1a8.245,8.245,0,0,1,2.856,3.083c.093.179.159.333.409.158,1.528-1.069,3.063-2.126,4.65-3.225-1.03-1.017-2-1.975-2.969-2.932-.144-.141-.257-.338-.523-.151C-66.652,1961.7-68.116,1962.708-69.62,1963.749Zm22.992,9.322c0-1.529-.01-3.006.007-4.484,0-.356-.179-.359-.437-.357q-1.836.01-3.672,0c-.272,0-.431.028-.426.37.017,1.365.012,2.73,0,4.1,0,.266.047.4.353.311A7.9,7.9,0,0,1-46.628,1973.071Zm-2.2-12.374c-.836.847-1.573,1.674-2.4,2.4-.616.546-.913,1.043-.351,1.789a1.342,1.342,0,0,1,.227.659c.035.378.236.432.56.427,1.2-.014,2.394-.021,3.591,0,.4.008.52-.079.456-.5A10.1,10.1,0,0,0-48.83,1960.7Zm-1.584-1.578a9.708,9.708,0,0,0-4.829-2.075c-.191-.024-.432-.139-.431.234a28.649,28.649,0,0,0,.058,4.006c.1.687,1.212.444,1.72.913.184.17.33.069.479-.08C-52.426,1961.122-51.43,1960.132-50.413,1959.119Zm-7.52.22c0-.588-.029-1.179.01-1.765.03-.45-.1-.574-.546-.482a10.918,10.918,0,0,0-4.283,1.894c-.25.182-.3.284-.054.519q1.367,1.329,2.7,2.7c.2.2.336.151.593.093,1.494-.341,1.82-1.329,1.587-2.673A1.675,1.675,0,0,1-57.933,1959.338Zm-14.7,24.829c0-1.849,0-3.675,0-5.5,0-.306-.13-.319-.384-.3a10.876,10.876,0,0,1-1.474,0c-.3-.023-.415.018-.412.346.013,1.689.01,3.378,0,5.066,0,.289.039.412.387.342A5.033,5.033,0,0,1-72.632,1984.168Zm-1.193,22.506c1.194,0,1.194,0,1.194-1.225a2.823,2.823,0,0,1,0-.421c.075-.49-.116-.694-.614-.619a3.363,3.363,0,0,1-.491,0c-1.159,0-1.159,0-1.159,1.19C-74.892,2006.674-74.892,2006.674-73.825,2006.674Z" transform="translate(111.129 -1954.653)" fill="#020101"/>
      <path id="Trazado_653481" data-name="Trazado 653481" d="M8.7,2137.13c0,2.072-.014,4.144.01,6.215.005.46-.12.589-.584.586q-5.227-.029-10.454,0a.665.665,0,0,1-.693-.429,3.281,3.281,0,0,0-2.677-1.827,1.624,1.624,0,0,1-1.423-1.464c-.014-3.155,0-6.31-.012-9.465,0-.317.114-.4.411-.4,1.224.012,2.449.022,3.673,0,.406-.009.453.167.449.5-.015,1.154.018,2.308-.017,3.46-.014.475.141.584.592.578,1.86-.024,3.72-.036,5.58.006.569.013.65-.19.635-.682-.034-1.129,0-2.26-.019-3.39-.008-.376.112-.48.479-.474,1.177.021,2.355.032,3.531,0,.471-.014.53.17.527.572C8.695,2132.985,8.7,2135.057,8.7,2137.13Z" transform="translate(36.577 -2080.594)" fill="#caa072"/>
      <path id="Trazado_653482" data-name="Trazado 653482" d="M25.378,2177.078q-8.16,0-16.32.008c-.509,0-.838-.039-.569-.661a.869.869,0,0,0,.031-.279c.089-1.327.089-1.327,1.454-1.327,3.815,0,7.63-.013,11.445.014.569,0,.707-.161.687-.7-.041-1.105,0-2.214-.02-3.32-.008-.388.088-.523.5-.522q9.679.019,19.358,0c.413,0,.508.131.5.521-.018,1.908-.034,3.816.007,5.723.013.6-.29.552-.689.552Q33.573,2177.072,25.378,2177.078Z" transform="translate(25.451 -2109.229)" fill="#969ea8"/>
      <path id="Trazado_653483" data-name="Trazado 653483" d="M-94.965,2130.886c0-2.214,0-4.428,0-6.642a6.361,6.361,0,0,1,.42-2.2c.17-.47.349-.5.721-.175a9.287,9.287,0,0,1,3.368,7.038c.055,2.684.041,5.37,0,8.054-.011.659.2.75.784.746,4.051-.025,8.1,0,12.152-.026.514,0,.688.1.665.648-.048,1.128-.032,2.261-.005,3.391.01.408-.125.5-.516.5-4.357-.014-8.714.017-13.071-.021a4.612,4.612,0,0,1-4.508-4.6C-94.977,2135.361-94.964,2133.124-94.965,2130.886Z" transform="translate(99.545 -2074.364)" fill="#bbd989"/>
      <path id="Trazado_653484" data-name="Trazado 653484" d="M-76.107,2050.494c1.06,0,2.12.023,3.178-.011a.908.908,0,0,1,.951.517,18.852,18.852,0,0,1,2.457,7.074c.066.544-.079.748-.576.884-.769.21-1.515.5-2.28.73a.563.563,0,0,0-.473.633c-.057,3.034-.794,3.739-3.847,3.739h-.071c-1.8,0-1.789,0-1.736,1.817.012.4.149.488.494.448a1.854,1.854,0,0,1,.493,0c.424.068.938-.222,1.259.147.291.334-.113,1.712-.451,2.134-.445.557-.774.609-1.283.031-.76-.865-1.611-1.651-2.439-2.455a1,1,0,0,1-.33-.8c.017-1.531-.017-3.062.016-4.592a3.722,3.722,0,0,0-1.238-2.957c-.242-.224-.478-.455-.7-.7a1.272,1.272,0,0,1-.219-1.444,1.138,1.138,0,0,1,1.136-.677c1.01-.024,1.009-.033,1.009-1.043,0-.683,0-1.366,0-2.049.007-1.045.394-1.423,1.465-1.427S-77.167,2050.494-76.107,2050.494Zm3.264,4.555a1.138,1.138,0,0,0-1.076-1.16,1.136,1.136,0,0,0-1.176,1.058,1.137,1.137,0,0,0,1.109,1.2A1.14,1.14,0,0,0-72.843,2055.05Z" transform="translate(90.986 -2023.348)" fill="#e9cfb6"/>
      <path id="Trazado_653485" data-name="Trazado 653485" d="M-77.843,2128.129c-1.342,0-2.685-.015-4.026.01-.4.008-.515-.107-.511-.51.021-1.861.008-3.721.009-5.581a11.56,11.56,0,0,0-4.192-9.184c-.427-.366-.4-.55.07-.765a.623.623,0,0,0,.06-.038c1.382-.837,1.383-.837,2.521.3s2.307,2.289,3.44,3.454c.277.285.442.305.72.005.559-.6,1.175-1.157,1.734-1.761a.584.584,0,0,1,.885-.129,7.539,7.539,0,0,1,3.767,6.2c.127,2.513.025,5.038.048,7.558,0,.4-.162.452-.5.448C-75.158,2128.121-76.5,2128.129-77.843,2128.129Z" transform="translate(93.735 -2067.064)" fill="#bbd989"/>
      <path id="Trazado_653486" data-name="Trazado 653486" d="M88.438,2139.408H82.722c-.872,0-.88,0-.716-.826.513-2.58,1.043-5.156,1.536-7.74.075-.392.223-.488.594-.486q5.257.018,10.515,0c.4,0,.513.108.511.51q-.026,4.022,0,8.045c0,.406-.117.51-.514.507C92.578,2139.4,90.508,2139.408,88.438,2139.408Z" transform="translate(-27.26 -2080.604)" fill="#aab1bb"/>
      <path id="Trazado_653487" data-name="Trazado 653487" d="M-.47,2102.949c0-.832,0-1.529,0-2.227a7.934,7.934,0,0,0-7.918-8.022,40.108,40.108,0,0,0-5.713.111,7.863,7.863,0,0,0-6.538,6.114,6.793,6.793,0,0,0-.186,1.732c.018.72,0,1.44,0,2.3a6.786,6.786,0,0,1-2.236-4.61,7.087,7.087,0,0,1,7.361-7.919c3.556,0,7.112-.028,10.667.015a7,7,0,0,1,6.35,4.507A7.4,7.4,0,0,1-.47,2102.949Z" transform="translate(48.012 -2051.979)" fill="#caced5"/>
      <path id="Trazado_653488" data-name="Trazado 653488" d="M96.681,2071.788a8.01,8.01,0,0,0,6.783,0v.62c0,4.356-.011,8.713.014,13.07,0,.536-.136.659-.658.65-1.883-.034-3.768-.02-5.651-.008-.335,0-.5-.038-.5-.445C96.687,2081.088,96.681,2076.5,96.681,2071.788Z" transform="translate(-37.832 -2038.621)" fill="#ccd0d7"/>
      <path id="Trazado_653489" data-name="Trazado 653489" d="M-84.638,2009.385c-.964,0-1.927-.014-2.888.007-.361.008-.355-.184-.354-.439.006-1.177-.01-2.354.01-3.53.007-.387-.03-.574-.512-.575-1.756-.006-1.756-.029-1.756,1.725,0,.777-.014,1.554.007,2.33.009.341-.046.5-.448.493q-2.965-.032-5.931,0c-.362,0-.421-.134-.417-.451.015-1.2-.005-2.4.013-3.6.005-.346-.057-.48-.452-.491-1.817-.051-1.817-.066-1.817,1.732,0,.777-.017,1.554.008,2.33.011.357-.071.5-.46.482-.776-.031-1.554-.029-2.33,0-.408.015-.522-.085-.442-.508a8.063,8.063,0,0,1,7.189-6.28c.488-.027.578.131.567.573-.029,1.129,0,2.259-.018,3.389-.008.394.041.57.517.571,1.752,0,1.752.027,1.752-1.729,0-.8.009-1.6,0-2.4,0-.282.041-.4.377-.408C-88.628,2002.5-84.822,2005.96-84.638,2009.385Z" transform="translate(104.894 -1989.023)" fill="#fae8ad"/>
      <path id="Trazado_653490" data-name="Trazado 653490" d="M12.18,1996.307a5.653,5.653,0,1,1-5.646-5.677A5.673,5.673,0,0,1,12.18,1996.307Zm-2.262-.046a3.39,3.39,0,1,0-3.4,3.413A3.407,3.407,0,0,0,9.918,1996.261Z" transform="translate(30.839 -1980.443)" fill="#ea8572"/>
      <path id="Trazado_653491" data-name="Trazado 653491" d="M88.719,2032.216a5.652,5.652,0,1,1,5.667,5.656A5.668,5.668,0,0,1,88.719,2032.216Zm2.262-.058a3.391,3.391,0,1,0,3.486-3.328A3.411,3.411,0,0,0,90.981,2032.158Z" transform="translate(-32.131 -2006.204)" fill="#ea8572"/>
      <path id="Trazado_653492" data-name="Trazado 653492" d="M-92.808,2034.521c3.177,0,6.354.013,9.53-.013.519,0,.671.11.66.649-.032,1.624-.005,1.625-1.647,1.625-6,0-12-.009-18,.015-.578,0-.749-.122-.732-.72.045-1.553.013-1.554,1.578-1.554Z" transform="translate(105.302 -2011.896)" fill="#f5d67f"/>
      <path id="Trazado_653493" data-name="Trazado 653493" d="M-97.566,2061.6c-3.558-2.157-5.567-5.177-5.58-9.377,0-.606-.257-1.388.107-1.771s1.158-.112,1.761-.123c1.153-.02,2.307,0,3.46-.01.351,0,.423.055.422.466a3.356,3.356,0,0,1-1.415,2.954c-1.35,1.052-1.273,3.247-.157,4.607a2.569,2.569,0,0,0,.439.458A2.471,2.471,0,0,1-97.566,2061.6Z" transform="translate(105.47 -2023.175)" fill="#a8794d"/>
      <path id="Trazado_653494" data-name="Trazado 653494" d="M-20.094,2177.114c-.847,0-1.7-.016-2.542.007-.357.01-.488-.074-.482-.461.023-1.459.028-2.919,0-4.378-.009-.468.344-.634.574-.909,1.269-1.52,2.178-1.37,2.865.458a1.026,1.026,0,0,0,1.267.765,3.5,3.5,0,0,1,.564,0c1.159,0,1.519.361,1.523,1.512,0,.565.008,1.13,0,1.7a1.157,1.157,0,0,1-1.294,1.313C-18.446,2177.123-19.27,2177.114-20.094,2177.114Z" transform="translate(48.04 -2109.264)" fill="#e9cfb6"/>
      <path id="Trazado_653495" data-name="Trazado 653495" d="M12.184,2071.008c-.94,0-1.881-.029-2.82.012-.484.021-.548-.159-.573-.594a3.485,3.485,0,0,1,3.029-3.921,3.552,3.552,0,0,1,3.776,4.229c-.061.334-.255.272-.451.273C14.159,2071.011,13.172,2071.008,12.184,2071.008Z" transform="translate(25.171 -2034.818)" fill="#aab1bb"/>
      <path id="Trazado_653496" data-name="Trazado 653496" d="M35.465,1978.815c1.5-1.041,2.968-2.048,4.423-3.067.267-.187.379.01.523.152.971.957,1.94,1.915,2.969,2.932-1.587,1.1-3.122,2.156-4.65,3.225-.25.175-.316.021-.409-.158A8.248,8.248,0,0,0,35.465,1978.815Z" transform="translate(6.044 -1969.72)" fill="#caced5"/>
      <path id="Trazado_653497" data-name="Trazado 653497" d="M105.2,2007.437a7.9,7.9,0,0,0-4.172-.066c-.306.085-.355-.044-.353-.311.008-1.365.014-2.73,0-4.1,0-.342.154-.372.426-.37q1.836.014,3.672,0c.258,0,.442,0,.437.357C105.191,2004.431,105.2,2005.909,105.2,2007.437Z" transform="translate(-40.7 -1989.02)" fill="#ccd0d7"/>
      <path id="Trazado_653498" data-name="Trazado 653498" d="M101.18,1976a10.094,10.094,0,0,1,2.088,4.78c.064.423-.058.51-.456.5-1.2-.024-2.394-.017-3.591,0-.324,0-.525-.05-.56-.428a1.34,1.34,0,0,0-.227-.659c-.563-.745-.265-1.242.351-1.789C99.607,1977.671,100.345,1976.844,101.18,1976Z" transform="translate(-38.881 -1969.953)" fill="#caced5"/>
      <path id="Trazado_653499" data-name="Trazado 653499" d="M89.868,1965.081c-1.017,1.014-2.012,2-3,3-.148.149-.295.25-.479.08-.508-.47-1.619-.227-1.72-.914a28.645,28.645,0,0,1-.058-4.006c0-.372.24-.258.431-.234A9.707,9.707,0,0,1,89.868,1965.081Z" transform="translate(-29.153 -1960.615)" fill="#caced5"/>
      <path id="Trazado_653500" data-name="Trazado 653500" d="M64,1965.44a1.672,1.672,0,0,0,0,.282c.233,1.344-.093,2.332-1.587,2.673-.257.059-.394.111-.593-.093q-1.332-1.365-2.7-2.7c-.241-.234-.2-.336.054-.518a10.916,10.916,0,0,1,4.283-1.894c.447-.092.576.032.546.482C63.969,1964.261,64,1964.852,64,1965.44Z" transform="translate(-10.802 -1960.755)" fill="#caced5"/>
      <path id="Trazado_653501" data-name="Trazado 653501" d="M19.092,2044.185a5.03,5.03,0,0,0-1.876-.048c-.348.07-.388-.052-.387-.342.008-1.688.011-3.377,0-5.066,0-.329.114-.369.412-.347a10.856,10.856,0,0,0,1.474,0c.254-.015.386,0,.384.3C19.088,2040.51,19.092,2042.335,19.092,2044.185Z" transform="translate(19.404 -2014.67)" fill="#ccd0d7"/>
      <path id="Trazado_653502" data-name="Trazado 653502" d="M17.913,2132.6c-1.067,0-1.067,0-1.067-1.071,0-1.19,0-1.19,1.159-1.19a3.363,3.363,0,0,0,.491,0c.5-.075.689.128.614.618a2.823,2.823,0,0,0,0,.421C19.107,2132.6,19.107,2132.6,17.913,2132.6Z" transform="translate(19.391 -2080.578)" fill="#a8794d"/>
      <path id="Trazado_653503" data-name="Trazado 653503" d="M-52.762,2063.673a1.14,1.14,0,0,1-1.143,1.094,1.137,1.137,0,0,1-1.109-1.2,1.137,1.137,0,0,1,1.176-1.058A1.138,1.138,0,0,1-52.762,2063.673Z" transform="translate(70.904 -2031.971)" fill="#030201"/>
      <path id="Trazado_653504" data-name="Trazado 653504" d="M15.645,2001.988a3.39,3.39,0,1,1-3.376-3.369A3.411,3.411,0,0,1,15.645,2001.988Zm-2.262-.006a1.128,1.128,0,1,0-1.083,1.156A1.138,1.138,0,0,0,13.383,2001.982Z" transform="translate(25.112 -1986.17)" fill="#030201"/>
      <path id="Trazado_653505" data-name="Trazado 653505" d="M96.707,2037.886a3.391,3.391,0,1,1,3.294,3.451A3.409,3.409,0,0,1,96.707,2037.886Zm4.518.052a1.128,1.128,0,1,0-1.1,1.137A1.138,1.138,0,0,0,101.225,2037.938Z" transform="translate(-37.857 -2011.931)" fill="#030201"/>
      <path id="Trazado_653506" data-name="Trazado 653506" d="M19.11,2007.708a1.128,1.128,0,1,1-1.138-1.1A1.14,1.14,0,0,1,19.11,2007.708Z" transform="translate(19.385 -1991.896)" fill="#df7055"/>
      <path id="Trazado_653507" data-name="Trazado 653507" d="M106.952,2043.664a1.128,1.128,0,1,1-1.12-1.12A1.139,1.139,0,0,1,106.952,2043.664Z" transform="translate(-43.584 -2017.657)" fill="#df7055"/>
    </g>
  </g>
</svg>
