<svg xmlns="http://www.w3.org/2000/svg" width="83" height="83" viewBox="0 0 83 83">
  <g id="Grupo_993057" data-name="Grupo 993057" transform="translate(-181 -503)">
    <circle id="Elipse_8159" data-name="Elipse 8159" cx="41.5" cy="41.5" r="41.5" transform="translate(181 503)" fill="#ffd76a"/>
    <g id="Grupo_993096" data-name="Grupo 993096" transform="translate(647.399 315.317)">
      <path id="Trazado_652680" data-name="Trazado 652680" d="M-399.621,313.746h-20.468a15.079,15.079,0,0,0-3.663-10.066c-1.066-1.257-2.313-2.358-3.435-3.57a1.815,1.815,0,0,0-1.95-.566,37.753,37.753,0,0,1-8.4.99,1.626,1.626,0,0,1-1.568-.829,1.57,1.57,0,0,1,.168-1.761c.591-.868,1.162-1.75,1.751-2.62a1.247,1.247,0,0,0-.164-1.756c-.318-.319-.614-.666-.96-.951-.415-.341-.5-.61-.025-.982a8.729,8.729,0,0,0,1.013-1,1.2,1.2,0,0,0-.011-1.855,11.727,11.727,0,0,0-1.065-1.058c-.36-.3-.312-.486-.021-.831a3.724,3.724,0,0,0-1.19-5.888c-.686-.359-1.382-.7-2.074-1.043-1.452-.728-1.59-1.385-.577-2.685,2.185-2.8,4.381-5.6,6.543-8.417a5.283,5.283,0,0,0-1.037-7.745,5.3,5.3,0,0,1-.762-.715c-.155-.178-.4-.4-.284-.642.107-.219.406-.092.616-.092q6.16-.01,12.32,0c.18,0,.394-.1.587.14-.98.966-1.993,1.9-2.924,2.906-.567.613-1.094,1.061-1.951.594a.587.587,0,0,0-.222-.029,3.608,3.608,0,0,0-3.64,2.241,3.552,3.552,0,0,0,1.052,4.137,3.567,3.567,0,0,0,4.2.259,3.482,3.482,0,0,0,1.526-3.97.966.966,0,0,1,.323-1.151c1.1-1.06,2.161-2.16,3.254-3.226.185-.18.316-.6.709-.35.337.215.724.337.7.924-.059,1.6-.015,3.2-.022,4.807,0,.973.267,2.094-.126,2.878s-1.475,1.213-2.224,1.835a1.078,1.078,0,0,1-1.387.211,2.271,2.271,0,0,0-1.173-.189,3.633,3.633,0,0,0-3.492,3.9,3.639,3.639,0,0,0,4.087,3.277,3.586,3.586,0,0,0,3.013-4.326.741.741,0,0,1,.325-.933c.866-.594,1.67-1.277,2.533-1.874a1.835,1.835,0,0,0,.865-1.7c-.039-1.9-.013-3.806-.013-5.709v-1.55c.69.133,1.273.292,1.866.344.48.042.548.254.546.674q-.022,5.6,0,11.193a.7.7,0,0,1-.445.736,3.422,3.422,0,0,0-1.957,2.99,3.6,3.6,0,0,0,2.909,3.748,3.609,3.609,0,0,0,4.045-2.253,3.533,3.533,0,0,0-1.63-4.435.841.841,0,0,1-.535-.91c.035-.975.011-1.953.011-2.929,0-2.7,0-5.409.006-8.113,0-.241-.149-.581.283-.656.687-.119,1.372-.244,2.114-.377v.761c0,2.2.013,4.408-.008,6.611a1.628,1.628,0,0,0,.721,1.468c.855.61,1.671,1.277,2.535,1.873a.921.921,0,0,1,.438,1.166,3.5,3.5,0,0,0,1.809,3.789,3.57,3.57,0,0,0,4.229-.584,3.556,3.556,0,0,0,.688-4.212c-.7-1.381-2.343-2.368-3.725-1.877a2.418,2.418,0,0,1-2.688-.69c-.4-.342-.838-.633-1.256-.951-.177-.134-.344-.254-.343-.533q.016-3.831,0-7.663c0-.511.462-.536.734-.746.254-.2.395.1.541.248,1.138,1.129,2.256,2.277,3.41,3.388a.928.928,0,0,1,.286,1.09,3.559,3.559,0,0,0,3.194,4.543,3.434,3.434,0,0,0,3.443-1.954,3.35,3.35,0,0,0-.384-3.867,3.44,3.44,0,0,0-3.757-1.241c-.261.064-.51.325-.819.009-1.2-1.224-2.417-2.425-3.686-3.693a2.54,2.54,0,0,1,.316-.055c4.858,0,9.715.006,14.573-.014.482,0,.567.222.654.6a26.668,26.668,0,0,1-1.745,17.646A78.039,78.039,0,0,0-399.621,313.746Z" transform="translate(-9.654 -47.354)" fill="#f5e0cc"/>
      <path id="Trazado_652681" data-name="Trazado 652681" d="M-405.2,266.393a78.039,78.039,0,0,1,7.124-35.855,26.668,26.668,0,0,0,1.745-17.646c-.086-.379-.171-.6-.654-.6-4.858.02-9.715.013-14.573.014a2.54,2.54,0,0,0-.316.055c1.27,1.268,2.49,2.469,3.686,3.693.309.315.558.055.819-.009a3.44,3.44,0,0,1,3.757,1.241,3.35,3.35,0,0,1,.384,3.867,3.434,3.434,0,0,1-3.443,1.954,3.559,3.559,0,0,1-3.194-4.543.928.928,0,0,0-.286-1.09c-1.154-1.111-2.272-2.26-3.41-3.388-.147-.145-.288-.444-.541-.247-.272.21-.736.235-.734.745q.014,3.831,0,7.663c0,.279.166.4.343.533.418.318.859.609,1.256.951a2.418,2.418,0,0,0,2.688.69c1.382-.491,3.021.5,3.725,1.877a3.556,3.556,0,0,1-.688,4.212,3.57,3.57,0,0,1-4.229.584,3.5,3.5,0,0,1-1.809-3.789.921.921,0,0,0-.438-1.166c-.865-.6-1.68-1.263-2.535-1.873a1.628,1.628,0,0,1-.721-1.468c.022-2.2.008-4.407.008-6.611v-.761c-.742.133-1.428.258-2.114.377-.432.075-.282.414-.283.656-.009,2.7-.006,5.409-.006,8.113,0,.976.024,1.954-.011,2.929a.841.841,0,0,0,.535.91,3.533,3.533,0,0,1,1.63,4.435,3.609,3.609,0,0,1-4.045,2.253,3.6,3.6,0,0,1-2.909-3.748,3.422,3.422,0,0,1,1.957-2.99.7.7,0,0,0,.445-.736q-.022-5.6,0-11.193c0-.42-.066-.632-.546-.674-.592-.051-1.175-.211-1.866-.344v1.55c0,1.9-.026,3.807.013,5.709a1.835,1.835,0,0,1-.865,1.7c-.863.6-1.667,1.281-2.533,1.874a.741.741,0,0,0-.325.933,3.586,3.586,0,0,1-3.013,4.326,3.639,3.639,0,0,1-4.087-3.277,3.633,3.633,0,0,1,3.492-3.9,2.271,2.271,0,0,1,1.173.189,1.078,1.078,0,0,0,1.387-.211c.749-.622,1.831-1.05,2.224-1.835s.121-1.9.126-2.878c.007-1.6-.037-3.207.022-4.807.021-.587-.365-.709-.7-.924-.392-.251-.524.17-.709.35-1.093,1.066-2.154,2.166-3.254,3.226a.966.966,0,0,0-.323,1.151,3.482,3.482,0,0,1-1.526,3.97,3.567,3.567,0,0,1-4.2-.259,3.552,3.552,0,0,1-1.052-4.137,3.608,3.608,0,0,1,3.64-2.241.588.588,0,0,1,.222.029c.857.467,1.384.019,1.951-.594.931-1.007,1.944-1.94,2.924-2.906-.193-.241-.408-.14-.587-.14q-6.16-.01-12.32,0c-.21,0-.509-.126-.616.092-.119.244.129.465.284.642a5.305,5.305,0,0,0,.762.715A5.283,5.283,0,0,1-441.3,221.5c-2.162,2.82-4.358,5.614-6.543,8.417-1.013,1.3-.874,1.956.577,2.685.692.347,1.388.685,2.074,1.043a3.724,3.724,0,0,1,1.19,5.888c-.291.346-.339.531.021.831a11.724,11.724,0,0,1,1.065,1.058,1.2,1.2,0,0,1,.011,1.855,8.729,8.729,0,0,1-1.013,1c-.477.372-.39.641.025.982.347.285.642.631.96.951a1.247,1.247,0,0,1,.164,1.756c-.589.87-1.16,1.751-1.751,2.62a1.57,1.57,0,0,0-.168,1.761,1.625,1.625,0,0,0,1.568.829,37.751,37.751,0,0,0,8.4-.99,1.815,1.815,0,0,1,1.95.566c1.122,1.212,2.369,2.314,3.435,3.57a15.079,15.079,0,0,1,3.663,10.066c-.751,0-1.688.276-2.2-.073s-.224-1.377-.355-2.1a13.225,13.225,0,0,0-3.261-6.719c-.777-.849-1.637-1.621-2.415-2.469a1.037,1.037,0,0,0-1.126-.318,39.922,39.922,0,0,1-7.968.871,3.943,3.943,0,0,1-3.8-2.074,3.927,3.927,0,0,1,.3-4.318c.409-.618,1.2-1.23,1.092-1.876-.1-.589-.918-1.056-1.415-1.581a1.226,1.226,0,0,1,.01-1.961c.443-.469,1.2-.914,1.242-1.416.042-.529-.8-.93-1.236-1.4a1.248,1.248,0,0,1,.02-2.018c.3-.307.613-.592.9-.907a1.326,1.326,0,0,0-.345-2.2c-.807-.447-1.65-.829-2.471-1.252a3.687,3.687,0,0,1-1.3-5.8c2.216-2.872,4.455-5.726,6.677-8.594,1.323-1.708,1.114-3.281-.607-4.6a5.185,5.185,0,0,1-2.156-4.174c-.026-1.064.416-1.557,1.478-1.5.761.043,1.081-.152,1.285-.952a6.5,6.5,0,0,1,2.768-3.8,1.013,1.013,0,0,0,.518-.814,7.08,7.08,0,0,1,8.239-6.358.619.619,0,0,0,.714-.36,11.978,11.978,0,0,1,20.49.015.614.614,0,0,0,.722.339,7.05,7.05,0,0,1,8.122,5.8.836.836,0,0,0,.562.694,7.022,7.022,0,0,1,4.157,4.9c.111.435.282.525.693.524,1.605,0,1.706.064,2.114,1.605a28.623,28.623,0,0,1-1.588,19.836,76.367,76.367,0,0,0-6.019,19.474,80.389,80.389,0,0,0-.967,14.812c.012.6-.094.861-.752.781A14.488,14.488,0,0,0-405.2,266.393Zm-15.67-72.123a9.646,9.646,0,0,0-9.59,9.53,9.624,9.624,0,0,0,9.568,9.7,9.622,9.622,0,0,0,9.662-9.6A9.623,9.623,0,0,0-420.868,194.27ZM-410.43,209.9c3.628,0,7.123-.006,10.618.006.51,0,.368-.278.268-.524a4.789,4.789,0,0,0-3.207-2.919c-1.069-.32-1.213-.49-1.269-1.617a4.852,4.852,0,0,0-4.545-4.562c-.543-.024-.848,0-.623.714a9.21,9.21,0,0,1,.365,2.59A12.444,12.444,0,0,1-410.43,209.9Zm-20.928,0a.93.93,0,0,0-.02-.241,11.777,11.777,0,0,1-1.067-8.856c.141-.525-.141-.517-.5-.521a4.755,4.755,0,0,0-4.691,4.617,1.916,1.916,0,0,1-1.2,2.056,4.268,4.268,0,0,0-2.134,2.51c-.1.276-.135.445.277.443C-437.6,209.891-434.5,209.9-431.358,209.9Zm-3.922,8.416a1.211,1.211,0,0,0-1.189,1.194,1.209,1.209,0,0,0,1.174,1.208,1.212,1.212,0,0,0,1.227-1.231A1.211,1.211,0,0,0-435.28,218.313Zm28.874,2.4a1.209,1.209,0,0,0,1.19-1.192,1.207,1.207,0,0,0-1.172-1.209,1.207,1.207,0,0,0-1.228,1.229A1.207,1.207,0,0,0-406.406,220.716Zm-25.259,6.012a1.211,1.211,0,0,0-1.2,1.186,1.209,1.209,0,0,0,1.166,1.216,1.212,1.212,0,0,0,1.235-1.223A1.211,1.211,0,0,0-431.666,226.728Zm21.638,2.4a1.209,1.209,0,0,0,1.2-1.177,1.207,1.207,0,0,0-1.157-1.224,1.208,1.208,0,0,0-1.243,1.214A1.207,1.207,0,0,0-410.028,229.132Zm-10.82,3.606a1.212,1.212,0,0,0,1.206-1.178,1.21,1.21,0,0,0-1.233-1.224,1.212,1.212,0,0,0-1.167,1.215A1.208,1.208,0,0,0-420.848,232.738Z" transform="translate(-4.077 0)" fill="#030302"/>
      <path id="Trazado_652682" data-name="Trazado 652682" d="M-448.346,222c-.4.587-.8,1.193-1.223,1.776-.117.16-.264-.016-.378-.092q-3.275-2.18-6.551-4.359c-.26-.172-.308-.286-.134-.582,1.024-1.744,1.014-1.75,2.7-.622q2.554,1.707,5.106,3.416C-448.65,221.65-448.41,221.713-448.346,222Z" transform="translate(0 -17.799)" fill="#050403"/>
      <path id="Trazado_652683" data-name="Trazado 652683" d="M-264.389,218.6c0,.223-.162.272-.278.35-2.16,1.446-4.325,2.883-6.481,4.335-.287.193-.426.179-.644-.118-1.175-1.6-1.185-1.589.454-2.681,1.727-1.15,3.461-2.29,5.173-3.462.39-.267.606-.276.849.158C-265.035,217.678-264.69,218.141-264.389,218.6Z" transform="translate(-128.674 -17.447)" fill="#050403"/>
      <path id="Trazado_652684" data-name="Trazado 652684" d="M-429.677,199.449a7.871,7.871,0,0,0-.725.566c-1.053,1.036-1.049,1.04-2.073.016-1.519-1.518-3.031-3.043-4.562-4.549-.311-.306-.47-.518-.04-.865.463-.374.846-1.114,1.307-1.152.482-.039.872.724,1.3,1.141,1.439,1.421,2.865,2.856,4.294,4.288C-430.043,199.033-429.917,199.184-429.677,199.449Z" transform="translate(-13.555 -1.113)" fill="#070705"/>
      <path id="Trazado_652685" data-name="Trazado 652685" d="M-287.881,201.095c-.221-.266-.412-.532-.639-.763-.98-.994-.984-.99-.014-1.96,1.536-1.537,3.078-3.066,4.6-4.615.308-.314.522-.468.867-.039.372.462,1.128.869,1.132,1.3s-.711.88-1.13,1.3q-2.137,2.154-4.288,4.294C-287.49,200.756-287.643,200.881-287.881,201.095Z" transform="translate(-117.049 -1.107)" fill="#060604"/>
      <path id="Trazado_652686" data-name="Trazado 652686" d="M-373.416,199.838a9.623,9.623,0,0,1,9.64,9.629,9.622,9.622,0,0,1-9.662,9.6,9.624,9.624,0,0,1-9.568-9.7A9.646,9.646,0,0,1-373.416,199.838Zm-1.176,14.436a1.273,1.273,0,0,1-1.2-1.174c-.052-.408.209-.969-.149-1.188-.311-.191-.827-.048-1.253-.051-.2,0-.4.011-.6,0-.267-.018-.381.049-.413.36a3.765,3.765,0,0,0,3.262,4.426c.294.058.4.153.351.417-.142.73.219.894.857.816a4.223,4.223,0,0,1,.975,0c.456.051.655-.093.577-.57-.069-.424.034-.62.554-.7a3.517,3.517,0,0,0,3-2.949,9.735,9.735,0,0,0,.051-1.573,3.586,3.586,0,0,0-3.187-3.808c-.3-.051-.432-.1-.425-.433.021-1.049.008-2.1.008-3.154.8.119,1.117.436,1.2,1.117.051.408-.209.969.149,1.188.311.191.827.048,1.252.051.2,0,.4-.011.6,0,.267.018.38-.05.413-.36a3.764,3.764,0,0,0-3.261-4.426c-.294-.057-.4-.151-.352-.416.142-.73-.218-.894-.857-.817a4.221,4.221,0,0,1-.975,0c-.455-.051-.655.093-.578.569.069.423-.032.62-.554.7a3.52,3.52,0,0,0-3,2.948,9.806,9.806,0,0,0-.05,1.573,3.585,3.585,0,0,0,3.186,3.81c.294.051.433.1.426.432C-374.6,212.11-374.592,213.16-374.592,214.274Z" transform="translate(-51.529 -5.568)" fill="#efcf75"/>
      <path id="Trazado_652687" data-name="Trazado 652687" d="M-316.488,229.41a12.444,12.444,0,0,0,1.608-6.31,9.211,9.211,0,0,0-.365-2.59c-.225-.71.08-.738.623-.714a4.852,4.852,0,0,1,4.545,4.562c.056,1.127.2,1.3,1.269,1.617a4.789,4.789,0,0,1,3.207,2.919c.1.245.242.525-.268.524C-309.365,229.4-312.86,229.41-316.488,229.41Z" transform="translate(-98.019 -19.512)" fill="#e6b9a3"/>
      <path id="Trazado_652688" data-name="Trazado 652688" d="M-408.475,229.413c-3.14,0-6.241-.006-9.343.008-.412,0-.379-.167-.277-.443a4.269,4.269,0,0,1,2.134-2.51,1.916,1.916,0,0,0,1.2-2.056,4.755,4.755,0,0,1,4.691-4.617c.361,0,.643,0,.5.521a11.777,11.777,0,0,0,1.067,8.856A.93.93,0,0,1-408.475,229.413Z" transform="translate(-26.96 -19.516)" fill="#e6b9a3"/>
      <path id="Trazado_652689" data-name="Trazado 652689" d="M-401.779,279.689a1.211,1.211,0,0,1,1.212,1.171,1.212,1.212,0,0,1-1.227,1.231,1.209,1.209,0,0,1-1.174-1.208A1.211,1.211,0,0,1-401.779,279.689Z" transform="translate(-37.578 -61.376)" fill="#dca753"/>
      <path id="Trazado_652690" data-name="Trazado 652690" d="M-305.935,282.1a1.207,1.207,0,0,1-1.21-1.172,1.207,1.207,0,0,1,1.228-1.229,1.207,1.207,0,0,1,1.172,1.209A1.209,1.209,0,0,1-305.935,282.1Z" transform="translate(-104.548 -61.38)" fill="#dca653"/>
      <path id="Trazado_652691" data-name="Trazado 652691" d="M-389.794,307.638a1.211,1.211,0,0,1,1.2,1.179,1.212,1.212,0,0,1-1.235,1.223,1.209,1.209,0,0,1-1.166-1.216A1.211,1.211,0,0,1-389.794,307.638Z" transform="translate(-45.949 -80.91)" fill="#dca753"/>
      <path id="Trazado_652692" data-name="Trazado 652692" d="M-317.927,310.045a1.207,1.207,0,0,1-1.195-1.187,1.208,1.208,0,0,1,1.243-1.214,1.207,1.207,0,0,1,1.157,1.224A1.209,1.209,0,0,1-317.927,310.045Z" transform="translate(-96.178 -80.913)" fill="#dca653"/>
      <path id="Trazado_652693" data-name="Trazado 652693" d="M-353.863,322.018a1.208,1.208,0,0,1-1.2-1.187,1.212,1.212,0,0,1,1.167-1.215,1.21,1.21,0,0,1,1.233,1.224A1.212,1.212,0,0,1-353.863,322.018Z" transform="translate(-71.062 -89.281)" fill="#dca753"/>
      <path id="Trazado_652694" data-name="Trazado 652694" d="M-363.528,217.007c0-1.113-.013-2.163.008-3.212.007-.337-.132-.381-.426-.432a3.585,3.585,0,0,1-3.186-3.81,9.806,9.806,0,0,1,.05-1.573,3.52,3.52,0,0,1,3-2.948c.522-.076.623-.272.554-.7-.077-.477.123-.621.578-.569a4.223,4.223,0,0,0,.975,0c.639-.078,1,.087.857.817-.051.265.058.359.352.416a3.764,3.764,0,0,1,3.261,4.426c-.033.311-.146.378-.413.36-.2-.014-.4,0-.6,0-.425,0-.941.139-1.252-.051-.358-.219-.1-.78-.149-1.188-.084-.68-.4-1-1.2-1.117,0,1.055.013,2.1-.008,3.154-.007.336.129.381.425.433a3.586,3.586,0,0,1,3.187,3.808,9.735,9.735,0,0,1-.051,1.573,3.517,3.517,0,0,1-3,2.949c-.52.076-.623.273-.554.7.078.476-.122.621-.577.57a4.223,4.223,0,0,0-.975,0c-.638.077-1-.086-.857-.816.051-.264-.056-.359-.351-.417a3.765,3.765,0,0,1-3.262-4.426c.033-.311.147-.378.413-.36.2.014.4,0,.6,0,.425,0,.942-.14,1.253.051.357.219.1.78.149,1.188A1.273,1.273,0,0,0-363.528,217.007Zm0-7.812c0-.4.018-.8-.007-1.2-.013-.2.146-.492-.14-.578-.213-.063-.429.1-.606.24a2.6,2.6,0,0,0-.019,3.034,1.484,1.484,0,0,0,.252.16c.337.181.558.191.528-.305C-363.548,210.1-363.526,209.645-363.526,209.2Zm2.4,5.93c0,.475.022.952-.006,1.425s.169.5.523.316c.83-.421.669-1.192.692-1.905a1.347,1.347,0,0,0-.705-1.445c-.045-.022-.092-.04-.138-.06-.243-.1-.374-.051-.368.243C-361.118,214.175-361.125,214.65-361.125,215.125Z" transform="translate(-62.593 -8.301)" fill="#010101"/>
      <path id="Trazado_652695" data-name="Trazado 652695" d="M-357.959,217.677c0,.45-.022.9.006,1.35.03.5-.19.486-.528.305a1.485,1.485,0,0,1-.252-.16,2.6,2.6,0,0,1,.019-3.034c.177-.142.394-.3.606-.24.287.085.128.38.14.578C-357.941,216.875-357.959,217.277-357.959,217.677Z" transform="translate(-68.16 -16.783)" fill="#ebcb72"/>
      <path id="Trazado_652696" data-name="Trazado 652696" d="M-347.1,237.548c0-.475.008-.95,0-1.425-.006-.294.125-.344.368-.243.046.019.092.038.138.06a1.347,1.347,0,0,1,.705,1.445c-.023.713.139,1.484-.692,1.905-.355.18-.551.166-.523-.316S-347.1,238.023-347.1,237.548Z" transform="translate(-76.616 -30.724)" fill="#ebca72"/>
    </g>
  </g>
</svg>
