<svg xmlns="http://www.w3.org/2000/svg" width="295" height="295" viewBox="0 0 295 295">
  <g id="Grupo_995460" data-name="Grupo 995460" transform="translate(-1975.5 7124.63)">
    <circle id="Elipse_8171" data-name="Elipse 8171" cx="147.5" cy="147.5" r="147.5" transform="translate(1975.5 -7124.63)" fill="#016d80"/>
    <g id="Grupo_994149" data-name="Grupo 994149" transform="translate(1032.89 -7133.5)">
      <path id="Trazado_653116" data-name="Trazado 653116" d="M1113.439,236.308c-18.065,0-36.13.022-54.195-.039-1.54-.005-1.932.342-1.912,1.9.084,6.544-3.519,10.055-10.118,10.058-1.552,0-3.1.028-4.656-.006a8.574,8.574,0,0,1-7.858-4.73,2,2,0,0,0-2.117-1.243c-5.152.045-10.305-.025-15.457.052-1.25.019-1.52-.359-1.5-1.543.066-4.965.074-9.931,0-14.9-.02-1.254.361-1.57,1.546-1.5,1.411.081,3.31.5,4.126-.214.966-.85.146-2.8.337-4.254.168-1.286-.384-1.548-1.543-1.488-1.411.072-3.317.495-4.121-.225-.953-.854-.281-2.794-.3-4.26-.046-3.847.081-7.7-.061-11.543-.06-1.63.472-1.9,1.952-1.864,4.653.1,9.314-.063,13.965.087,1.791.057,2.131-.546,2.043-2.148-.13-2.352-.034-4.715-.034-7.074,0-2.718,0-2.742-2.66-2.737a8.97,8.97,0,0,1-4.635-1.147,8.661,8.661,0,0,1-4.6-7.582c-.083-2.729-.064-5.462,0-8.192a2.227,2.227,0,0,0-1.192-2.217q-18.611-11.863-22.2-33.666c-2.955-17.872,5.953-37.264,21.641-46.942a3.252,3.252,0,0,0,1.784-3.2c.131-9.376,4.434-16.36,12.946-20.217,8.383-3.8,16.328-2.374,23.439,3.49a9.35,9.35,0,0,0,1.821,1.256c6.213,3.061,9.413,8.1,9.369,15a3.824,3.824,0,0,0,2.188,3.921,33.405,33.405,0,0,1,7.546,6.012,3.457,3.457,0,0,0,2.76,1.122c27-.031,54.009,0,81.014-.071,1.715,0,1.976.495,1.96,2.042-.081,7.633.029,15.269-.088,22.9-.027,1.725.507,1.969,2.049,1.957,8.4-.063,14.417,4.875,15.722,12.81a18.386,18.386,0,0,1,.155,2.968q.011,40.778,0,81.557c0,9.556-6.3,15.854-15.841,15.857Q1140.071,236.315,1113.439,236.308Zm-.1-5.962q26.914,0,53.826,0c5.4,0,9.395-3.732,9.4-8.932.036-22.408.01-44.816.04-67.223,0-1.05-.281-1.334-1.332-1.333q-43.675.043-87.351,0a1.951,1.951,0,0,0-1.914,1.067,46.586,46.586,0,0,1-15.637,15.637,2.042,2.042,0,0,0-1.1,2.087c.059,2.295.021,4.593.019,6.889,0,6.56-3.533,10.12-10.123,10.064-1.408-.012-1.844.286-1.836,1.787q.1,19.086.005,38.173c-.007,1.427.317,1.829,1.8,1.824C1077.2,230.327,1095.27,230.347,1113.336,230.346Zm-28.411-128.125c.407.654.661,1.057.91,1.463a46.2,46.2,0,0,1,6.981,29.829c-.141,1.295.26,1.514,1.441,1.508,8.877-.045,17.756-.143,26.629.051,2.5.054,3.691-.728,4.7-2.939,2.793-6.151,7.735-9.106,14.5-9.063,5.71.037,11.422-.031,17.132.039,1.243.015,1.526-.354,1.514-1.546-.06-5.833-.1-11.669.017-17.5.031-1.611-.459-1.879-1.95-1.876q-34.917.075-69.834.035Zm-39.4,56.61a29.9,29.9,0,0,0,27.612-18.887,3.089,3.089,0,0,0,.027-2.641,23.963,23.963,0,0,0-16.033-13.6,1.565,1.565,0,0,0-1.887.578c-5.607,6.364-14.026,6.378-19.565.039a1.549,1.549,0,0,0-1.872-.613,23.989,23.989,0,0,0-16.063,13.567,3.1,3.1,0,0,0,0,2.642A29.918,29.918,0,0,0,1045.528,158.832Zm-22.2-65.024a41.606,41.606,0,0,0-17.4,48.553c6.413,18.974,25.033,30.487,45.4,27.989,19.069-2.339,34.413-18.847,35.78-38.577,1.236-17.846-9.585-32.658-19.319-37.556,1.113,1.925,1.911,3.956,1.386,6.069-.371,1.493.188,2.214,1.123,3.147,8.837,8.805,12.543,19.461,10.326,31.721-3.488,19.293-20.332,31.5-39.829,29.3-16.843-1.9-30.635-16.955-31.074-33.963a35.235,35.235,0,0,1,11.32-27.5c.469-.449,1.177-.787.9-1.658C1021.138,98.787,1021.879,96.471,1023.324,93.808Zm66.412,53.107h49.3c11.975,0,23.951-.021,35.926.03,1.278.005,1.715-.272,1.65-1.614-.116-2.414-.005-4.838-.04-7.257a8.888,8.888,0,0,0-8.94-9.021q-14.146-.074-28.293,0a8.663,8.663,0,0,0-8.014,4.822,49.758,49.758,0,0,0-2.646,5.318c-.581,1.455-1.446,1.808-2.935,1.8-10.858-.063-21.716-.037-32.574-.027-.753,0-1.609-.285-1.9.91C1090.873,143.487,1090.311,145.058,1089.736,146.915Zm-50.243,67.495q0,12.1,0,24.2c0,2.563,1.066,3.625,3.6,3.653,1.614.017,3.228.023,4.841,0,2.323-.036,3.465-1.117,3.467-3.4.016-16.32,0-32.639.035-48.959,0-1.131-.412-1.3-1.394-1.284-2.978.055-5.959.087-8.936-.011-1.281-.043-1.66.272-1.649,1.608C1039.526,198.276,1039.493,206.343,1039.493,214.41Zm23.84-128.672c.007-5.206-2.153-8.468-6.82-10.423a5.994,5.994,0,0,1-1.791-1.293,15.889,15.889,0,0,0-19.067-2.469,16.211,16.211,0,0,0-7.745,17.5c.142.674.158,1.456,1.153,1.325.781-.1,1.7.229,2.059-1.024,1.123-3.937,3.94-6.31,7.538-7.976a1.893,1.893,0,0,1,2.582.447,17.259,17.259,0,0,0,7.654,4.756c3.214,1.017,6.514.737,9.79.711,1.254-.01,1.877.263,1.678,1.626-.119.812.016,1.388,1.1,1.473,1.106.087,1.4-.391,1.541-1.334A15.7,15.7,0,0,0,1063.333,85.738Zm-26.82,11.888c0,1.549-.027,3.1.005,4.647a8.931,8.931,0,0,0,17.86.105c.06-2.6-.04-5.206.041-7.806.033-1.083-.344-1.3-1.355-1.334a22.717,22.717,0,0,1-12.346-4.038c-1.967-1.343-2.422-1.222-3.527.923a6,6,0,0,0-.682,2.856C1036.523,94.527,1036.512,96.077,1036.513,97.625Zm-8.943,75.6v3.872c0,5.21.371,5.58,5.589,5.58q13.222,0,26.445,0c2.288,0,3.587-.916,3.686-2.785.113-2.14.026-4.292.026-6.641A47.8,47.8,0,0,1,1027.57,173.221Zm5.959,48.194c0-4.53-.014-9.061.013-13.591.005-.847-.037-1.364-1.147-1.338-3.226.075-6.456.06-9.683.005-.934-.016-1.166.321-1.115,1.179.09,1.534-.451,3.485.3,4.494.717.962,2.782.3,4.246.27,1.123-.022,1.474.245,1.457,1.428-.073,4.964-.081,9.93,0,14.894.022,1.314-.329,1.643-1.633,1.628-4.41-.054-4.373,0-4.388,4.379,0,1.143.191,1.623,1.489,1.576,2.976-.106,5.959-.089,8.937-.006,1.19.033,1.573-.264,1.551-1.514C1033.481,230.353,1033.53,225.884,1033.53,221.415Zm-17.914-92.279a30.9,30.9,0,0,1,17.69-11.537c1.018-.239,2.75-3.823,2.02-4.386-2.167-1.672-2.355-5.727-6.351-5.245a5.161,5.161,0,0,1-2.43-.811,1.144,1.144,0,0,0-1.48.2C1018.979,113.144,1015.911,120.241,1015.616,129.136Zm59.671,0c-.286-8.822-3.326-15.881-9.329-21.652-.405-.39-.792-.765-1.446-.387-1.606.929-3.639.578-5.127,1.275-1.44.675-1.966,2.847-3.226,4.132-1.173,1.2-.179,4.723,1.453,5.112A31.152,31.152,0,0,1,1075.286,129.134Zm-30.606-6.061c4.725.005,6.9-2.588,5.659-5.773-.284-.731-.513-.939-1.317-.7a12.788,12.788,0,0,1-7.127.025c-.406-.11-.761-.355-1.14.131a3.319,3.319,0,0,0,.592,4.85A6.327,6.327,0,0,0,1044.68,123.073Zm-14.122-20.814c0-1.753-.05-3.349.016-4.939.052-1.239-.49-1.167-1.313-.74a2.793,2.793,0,0,0-1.653,3.011C1027.811,101.095,1028.765,101.949,1030.558,102.259Zm29.788-3.161a5.859,5.859,0,0,0,.012,1.1c.129.66-.45,1.726.395,1.9.9.189,1.707-.558,2.182-1.417a2.807,2.807,0,0,0-.369-3.414c-.485-.571-1.17-1.131-1.893-.9s-.219,1.064-.316,1.622A6.633,6.633,0,0,0,1060.346,99.1Z" transform="translate(0)" fill="#020101"/>
      <path id="Trazado_653117" data-name="Trazado 653117" d="M1133.614,260.761c-18.066,0-36.132-.02-54.2.037-1.481,0-1.8-.4-1.8-1.824q.086-19.087-.005-38.173c-.008-1.5.428-1.8,1.836-1.787,6.59.057,10.12-3.5,10.123-10.064,0-2.3.04-4.594-.019-6.889a2.042,2.042,0,0,1,1.1-2.087,46.586,46.586,0,0,0,15.637-15.637,1.951,1.951,0,0,1,1.914-1.067q43.675.037,87.351,0c1.052,0,1.334.283,1.332,1.333-.031,22.407,0,44.815-.04,67.223-.009,5.2-4,8.928-9.4,8.932Q1160.528,260.775,1133.614,260.761Zm39.406-23.837c-5.462,0-10.923.038-16.384-.029-1.213-.015-1.545.3-1.528,1.523q.109,7.445,0,14.891c-.017,1.221.318,1.527,1.528,1.522q16.383-.073,32.768,0c1.211.005,1.545-.3,1.527-1.523q-.108-7.444,0-14.891c.018-1.22-.316-1.537-1.528-1.523C1183.943,236.962,1178.482,236.924,1173.021,236.924Z" transform="translate(-20.278 -30.414)" fill="#e5e8eb"/>
      <path id="Trazado_653118" data-name="Trazado 653118" d="M1114.581,115.415h2.037q34.917,0,69.834-.035c1.491,0,1.982.265,1.95,1.876-.114,5.832-.078,11.667-.017,17.5.012,1.191-.272,1.561-1.514,1.546-5.71-.07-11.422,0-17.132-.039-6.767-.043-11.709,2.912-14.5,9.063-1,2.211-2.2,2.994-4.7,2.939-8.872-.195-17.752-.1-26.629-.051-1.181.006-1.582-.213-1.441-1.508a46.2,46.2,0,0,0-6.981-29.829C1115.242,116.472,1114.988,116.069,1114.581,115.415Z" transform="translate(-29.656 -13.193)" fill="#ead0b6"/>
      <path id="Trazado_653119" data-name="Trazado 653119" d="M1052.251,179.3a29.918,29.918,0,0,1-27.781-18.914,3.1,3.1,0,0,1,0-2.642,23.989,23.989,0,0,1,16.063-13.567,1.549,1.549,0,0,1,1.872.613c5.539,6.339,13.959,6.325,19.565-.039a1.564,1.564,0,0,1,1.887-.578,23.964,23.964,0,0,1,16.033,13.6,3.089,3.089,0,0,1-.027,2.641A29.9,29.9,0,0,1,1052.251,179.3Zm.073-23.834c-3.128,0-3.128,0-3.128,3.015,0,2.943,0,2.943,3.015,2.943,2.944,0,2.944,0,2.944-3.015C1055.154,155.47,1055.154,155.47,1052.323,155.47Zm2.831,14.912c0-2.994,0-2.994-2.965-2.994-2.994,0-2.994,0-2.994,2.964,0,2.994,0,2.994,2.964,2.994C1055.154,173.347,1055.154,173.347,1055.154,170.382Z" transform="translate(-6.722 -20.472)" fill="#ed8773"/>
      <path id="Trazado_653120" data-name="Trazado 653120" d="M1025.385,104.154c-1.446,2.662-2.187,4.979-1.387,7.525.273.871-.434,1.21-.9,1.658a35.235,35.235,0,0,0-11.32,27.5c.438,17.008,14.23,32.068,31.074,33.963,19.5,2.194,36.34-10.008,39.829-29.3,2.217-12.26-1.49-22.915-10.326-31.721-.935-.933-1.494-1.654-1.123-3.147.525-2.114-.273-4.144-1.386-6.069,9.734,4.9,20.556,19.711,19.32,37.556-1.367,19.73-16.711,36.238-35.78,38.577-20.364,2.5-38.985-9.015-45.4-27.989A41.606,41.606,0,0,1,1025.385,104.154Z" transform="translate(-2.061 -10.346)" fill="#f3c44e"/>
      <path id="Trazado_653121" data-name="Trazado 653121" d="M1121.027,169.229c.575-1.858,1.137-3.429,1.534-5.041.295-1.195,1.151-.91,1.9-.91,10.858-.01,21.717-.037,32.574.027,1.49.009,2.355-.344,2.935-1.8a49.758,49.758,0,0,1,2.646-5.318,8.663,8.663,0,0,1,8.014-4.822q14.147-.056,28.293,0a8.889,8.889,0,0,1,8.94,9.021c.034,2.419-.077,4.843.04,7.257.065,1.341-.372,1.619-1.65,1.614-11.975-.051-23.951-.03-35.925-.03h-49.3Zm53.917-5.959c3.129,0,3.129,0,3.129-3.017,0-2.942,0-2.942-3.017-2.942-2.943,0-2.943,0-2.943,3.016C1172.112,163.27,1172.112,163.27,1174.944,163.27Zm15.05-2.891c0-3.068,0-3.068-3.076-3.068-2.885,0-2.885,0-2.885,2.89,0,3.069,0,3.069,3.076,3.069C1189.993,163.27,1189.993,163.27,1189.993,160.38Zm11.921.009c0-3.077,0-3.077-3.067-3.077-2.893,0-2.893,0-2.893,2.881,0,3.078,0,3.078,3.067,3.078C1201.915,163.27,1201.915,163.27,1201.915,160.389Z" transform="translate(-31.291 -22.314)" fill="#bbda89"/>
      <path id="Trazado_653122" data-name="Trazado 653122" d="M1053.7,256.973c0-8.067.033-16.134-.034-24.2-.011-1.335.367-1.65,1.649-1.608,2.976.1,5.958.066,8.936.011.982-.018,1.4.153,1.394,1.284-.037,16.32-.019,32.639-.035,48.959,0,2.288-1.145,3.369-3.468,3.4-1.614.025-3.228.019-4.841,0-2.53-.028-3.592-1.09-3.6-3.653Q1053.681,269.073,1053.7,256.973Z" transform="translate(-14.202 -42.563)" fill="#f5d67e"/>
      <path id="Trazado_653123" data-name="Trazado 653123" d="M1073.488,87.8a15.685,15.685,0,0,1-.328,3.317c-.143.943-.434,1.421-1.54,1.334-1.086-.084-1.22-.661-1.1-1.473.2-1.362-.424-1.635-1.678-1.626-3.276.026-6.577.307-9.79-.711a17.259,17.259,0,0,1-7.654-4.756,1.893,1.893,0,0,0-2.582-.447c-3.6,1.666-6.415,4.039-7.538,7.976-.358,1.253-1.278.921-2.059,1.024-.995.131-1.011-.652-1.153-1.325a16.211,16.211,0,0,1,7.745-17.5,15.889,15.889,0,0,1,19.067,2.469,6,6,0,0,0,1.791,1.293C1071.335,79.332,1073.5,82.594,1073.488,87.8Z" transform="translate(-10.155 -2.062)" fill="#656c76"/>
      <path id="Trazado_653124" data-name="Trazado 653124" d="M1049.71,106.106c0-1.549.01-3.1,0-4.647a6,6,0,0,1,.682-2.856c1.105-2.145,1.561-2.267,3.527-.923a22.717,22.717,0,0,0,12.346,4.038c1.011.031,1.389.252,1.355,1.334-.081,2.6.019,5.2-.041,7.806a8.931,8.931,0,0,1-17.86-.105C1049.683,109.2,1049.71,107.655,1049.71,106.106Z" transform="translate(-13.198 -8.481)" fill="#e9cfb5"/>
      <path id="Trazado_653125" data-name="Trazado 653125" d="M1037.732,210.557a47.8,47.8,0,0,0,35.746.022c0,2.349.087,4.5-.026,6.641-.1,1.87-1.4,2.784-3.686,2.785q-13.222.013-26.445,0c-5.218,0-5.589-.37-5.589-5.58Z" transform="translate(-10.162 -37.337)" fill="#f4c54e"/>
      <path id="Trazado_653126" data-name="Trazado 653126" d="M1041.626,270.057c0,4.469-.048,8.938.031,13.4.022,1.249-.361,1.546-1.551,1.514-2.977-.083-5.961-.1-8.937.006-1.3.047-1.493-.434-1.489-1.576.015-4.377-.022-4.434,4.388-4.38,1.3.016,1.655-.313,1.633-1.628q-.125-7.446,0-14.894c.017-1.183-.334-1.45-1.457-1.428-1.464.029-3.529.692-4.246-.27-.752-1.01-.211-2.96-.3-4.494-.051-.858.181-1.195,1.115-1.179,3.227.054,6.457.069,9.683-.005,1.111-.026,1.152.491,1.147,1.338C1041.612,261,1041.626,265.527,1041.626,270.057Z" transform="translate(-8.096 -48.642)" fill="#f5d67e"/>
      <path id="Trazado_653127" data-name="Trazado 653127" d="M1021.714,143.958c.3-8.9,3.363-15.992,9.45-21.776a1.144,1.144,0,0,1,1.48-.2,5.161,5.161,0,0,0,2.43.811c4-.481,4.184,3.573,6.351,5.245.73.563-1,4.147-2.02,4.386A30.9,30.9,0,0,0,1021.714,143.958Z" transform="translate(-6.098 -14.822)" fill="#82d0ec"/>
      <path id="Trazado_653128" data-name="Trazado 653128" d="M1094.991,143.942a31.152,31.152,0,0,0-17.675-11.519c-1.632-.389-2.626-3.915-1.453-5.112,1.261-1.286,1.786-3.458,3.226-4.132,1.487-.7,3.521-.346,5.127-1.275.654-.378,1.04,0,1.446.387C1091.665,128.061,1094.7,135.12,1094.991,143.942Z" transform="translate(-19.704 -14.808)" fill="#82d0ec"/>
      <path id="Trazado_653129" data-name="Trazado 653129" d="M1059.053,141.12a6.328,6.328,0,0,1-3.334-1.465,3.319,3.319,0,0,1-.592-4.85c.379-.485.734-.241,1.14-.131a12.788,12.788,0,0,0,7.127-.025c.8-.241,1.033-.034,1.317.7C1065.951,138.532,1063.778,141.125,1059.053,141.12Z" transform="translate(-14.373 -18.047)" fill="#e5ccb3"/>
      <path id="Trazado_653130" data-name="Trazado 653130" d="M1040.722,113.451c-1.793-.31-2.747-1.164-2.949-2.668a2.793,2.793,0,0,1,1.653-3.011c.822-.428,1.364-.5,1.313.74C1040.672,110.1,1040.722,111.7,1040.722,113.451Z" transform="translate(-10.164 -11.192)" fill="#dfc6ae"/>
      <path id="Trazado_653131" data-name="Trazado 653131" d="M1081.626,110.3a6.646,6.646,0,0,1,.011-1.1c.1-.558-.394-1.4.316-1.622s1.407.331,1.893.9a2.807,2.807,0,0,1,.369,3.414c-.475.86-1.284,1.606-2.182,1.417-.845-.178-.266-1.245-.395-1.9A5.859,5.859,0,0,1,1081.626,110.3Z" transform="translate(-21.28 -11.199)" fill="#dfc6ae"/>
      <path id="Trazado_653132" data-name="Trazado 653132" d="M1199.36,255.151c5.461,0,10.923.038,16.384-.029,1.212-.015,1.546.3,1.528,1.523q-.107,7.445,0,14.891c.018,1.22-.316,1.528-1.527,1.522q-16.384-.073-32.768,0c-1.211.005-1.546-.3-1.529-1.522q.109-7.445,0-14.891c-.017-1.22.315-1.538,1.528-1.523C1188.437,255.189,1193.9,255.151,1199.36,255.151Zm-.2,11.919h7.8c4.385,0,4.338,0,4.347-4.455,0-1.218-.331-1.545-1.542-1.532-5.942.061-11.886.028-17.83.028-4.647,0-4.61,0-4.53,4.641.018,1.055.3,1.361,1.353,1.342C1192.229,267.03,1195.7,267.07,1199.164,267.07Z" transform="translate(-46.618 -48.641)"/>
      <path id="Trazado_653133" data-name="Trazado 653133" d="M1060.828,159.343c2.831,0,2.831,0,2.831,2.943,0,3.015,0,3.015-2.943,3.015-3.015,0-3.015,0-3.015-2.943C1057.7,159.343,1057.7,159.343,1060.828,159.343Z" transform="translate(-15.227 -24.345)"/>
      <path id="Trazado_653134" data-name="Trazado 653134" d="M1063.659,178.307c0,2.964,0,2.964-2.994,2.964-2.964,0-2.964,0-2.964-2.994,0-2.964,0-2.964,2.994-2.964C1063.659,175.313,1063.659,175.313,1063.659,178.307Z" transform="translate(-15.227 -28.396)"/>
      <path id="Trazado_653135" data-name="Trazado 653135" d="M1192.307,165.3c-2.832,0-2.832,0-2.832-2.943,0-3.016,0-3.016,2.943-3.016,3.017,0,3.017,0,3.017,2.942C1195.435,165.3,1195.435,165.3,1192.307,165.3Z" transform="translate(-48.654 -24.345)"/>
      <path id="Trazado_653136" data-name="Trazado 653136" d="M1211.408,162.411c0,2.891,0,2.891-2.884,2.891-3.076,0-3.076,0-3.076-3.069,0-2.89,0-2.89,2.885-2.89C1211.408,159.343,1211.408,159.343,1211.408,162.411Z" transform="translate(-52.706 -24.345)"/>
      <path id="Trazado_653137" data-name="Trazado 653137" d="M1227.381,162.42c0,2.882,0,2.882-2.894,2.882-3.067,0-3.067,0-3.067-3.078,0-2.881,0-2.881,2.893-2.881C1227.381,159.343,1227.381,159.343,1227.381,162.42Z" transform="translate(-56.758 -24.345)"/>
      <path id="Trazado_653138" data-name="Trazado 653138" d="M1201.184,269.1c-3.467,0-6.934-.04-10.4.024-1.054.019-1.335-.287-1.353-1.342-.08-4.642-.117-4.641,4.53-4.641,5.944,0,11.888.034,17.83-.028,1.21-.013,1.545.314,1.542,1.532-.01,4.455.038,4.455-4.347,4.455Z" transform="translate(-48.638 -50.667)" fill="#ee8774"/>
    </g>
  </g>
</svg>
