<svg xmlns="http://www.w3.org/2000/svg" width="85" height="85" viewBox="0 0 85 85">
  <g id="Grupo_992177" data-name="Grupo 992177" transform="translate(-180 -6099)">
    <rect id="Rectángulo_34178" data-name="Rectángulo 34178" width="85" height="85" transform="translate(180 6099)" fill="none"/>
    <g id="Grupo_995179" data-name="Grupo 995179" transform="translate(-267.373 5647.227)">
      <path id="Trazado_653832" data-name="Trazado 653832" d="M476.4,457.491c.3-1.149.718-1.492,1.881-1.492q19.057,0,38.114,0c1.328,0,1.88.541,1.88,1.85q0,36.44,0,72.879c0,1.26-.566,1.822-1.833,1.822q-26.568,0-53.135,0c-1.342,0-1.836-.562-1.836-2.044q0-31.095,0-62.19,0-5.158,0-10.315c0-1.513.5-2,2.029-2,1.246,0,2.491,0,3.737,0,1.167.005,1.594.35,1.879,1.492-.282,1.144-.71,1.488-1.875,1.5-.672,0-1.348.043-2.016-.012-.6-.05-.783.1-.781.749.026,7.845.017,15.691.017,23.537v.436l24.7-24.709c-3.493,0-7.153,0-10.813,0C477.113,458.986,476.7,458.665,476.4,457.491Zm38.887,17.9-.191-.1c-.194.228-.373.47-.584.681q-18.172,18.184-36.351,36.362a10.252,10.252,0,0,1-1,.9,4.477,4.477,0,0,1-5.648-6.936c2.258-2.286,4.542-4.547,6.81-6.823a3.756,3.756,0,0,0,.617-.742,1.459,1.459,0,0,0-1.913-2.029,2.9,2.9,0,0,0-.7.555q-5.739,5.729-11.474,11.46a1.254,1.254,0,0,0-.406.977q.017,9.6-.008,19.208c0,.6.2.679.721.674q4.259-.035,8.519,0a1.736,1.736,0,0,0,1.369-.557q12.954-12.992,25.936-25.956a9.542,9.542,0,0,1,.934-.858,4.261,4.261,0,0,1,4.638-.52,4.457,4.457,0,0,1,1.1,7.368c-2.252,2.292-4.541,4.548-6.811,6.822-.95.952-1.086,1.847-.392,2.527s1.573.524,2.527-.429q5.892-5.892,11.792-11.777a1.578,1.578,0,0,0,.515-1.234q-.022-14.461-.011-28.922Zm-50.826,20.87.162.068c.184-.2.36-.415.553-.609q12.021-12.029,24.047-24.053a9.831,9.831,0,0,1,1-.9,4.478,4.478,0,0,1,5.6,6.975c-2.242,2.268-4.508,4.513-6.76,6.771a4.808,4.808,0,0,0-.59.67,1.446,1.446,0,0,0,.165,1.85,1.475,1.475,0,0,0,1.847.184,4.944,4.944,0,0,0,.728-.636c7.366-7.364,14.68-14.78,22.134-22.053a5.486,5.486,0,0,0,1.961-4.994c-.061-.47-.174-.555-.6-.554q-10.24.019-20.48,0a1.01,1.01,0,0,0-.787.319q-14.315,14.333-28.641,28.656a.837.837,0,0,0-.343.625C464.465,491.14,464.461,493.7,464.461,496.257Zm0,8.595c.294-.278.473-.439.643-.609q3.541-3.539,7.083-7.079c.9-.9,1.763-1.84,2.742-2.642a4.135,4.135,0,0,1,4.623-.548,4.463,4.463,0,0,1,1.131,7.365c-2.251,2.293-4.54,4.549-6.81,6.823a4.873,4.873,0,0,0-.546.611,1.462,1.462,0,0,0,2.029,2.061,5.178,5.178,0,0,0,.667-.6q10.015-10.012,20.027-20.028,9.378-9.38,18.753-18.763c.2-.2.491-.35.489-.71-.007-1.281,0-2.563,0-3.844l-.217-.133a5.039,5.039,0,0,1-.474.652q-10.64,10.656-21.291,21.3a10.427,10.427,0,0,1-.823.759,4.265,4.265,0,0,1-3.931.832,4.423,4.423,0,0,1-2.241-7.2c.821-.965,1.761-1.828,2.657-2.729,1.581-1.59,3.177-3.164,4.751-4.761.868-.881.826-1.907-.065-2.482a1.527,1.527,0,0,0-2.071.4q-13.4,13.392-26.794,26.789a.908.908,0,0,0-.336.7C464.471,502.238,464.46,503.456,464.46,504.852Zm50.827,5.2a1.525,1.525,0,0,0-.68.536q-4.869,4.856-9.726,9.722a4.487,4.487,0,1,1-6.454-6.226c1.448-1.51,2.953-2.966,4.431-4.446.916-.916,1.847-1.818,2.742-2.754a1.489,1.489,0,0,0-.371-2.527,1.686,1.686,0,0,0-1.877.56Q491.287,517,479.212,529.076c-.123.123-.358.2-.284.465.081.007.155.018.229.018q17.748,0,35.5.013c.549,0,.645-.184.643-.681q-.023-9.193-.01-18.387Z" fill="#010101"/>
      <path id="Trazado_653833" data-name="Trazado 653833" d="M483.353,460.984c.3,1.174.713,1.5,1.952,1.5,3.66,0,7.321,0,10.813,0l-24.7,24.709v-.436c0-7.846.009-15.691-.017-23.537,0-.646.18-.8.781-.749.668.055,1.344.016,2.016.012,1.164-.009,1.592-.353,1.875-1.5h1.281c.2.959.711,1.471,1.485,1.494s1.328-.494,1.571-1.493Zm-8.941,5.977a1.49,1.49,0,1,0,.017-2.98,1.49,1.49,0,1,0-.017,2.98Z" transform="translate(-6.952 -3.494)" fill="#fae6c6"/>
      <path id="Trazado_653834" data-name="Trazado 653834" d="M494.323,457.5c-.243,1-.787,1.516-1.571,1.493s-1.283-.535-1.485-1.494c.2-.956.713-1.466,1.486-1.488S494.077,456.506,494.323,457.5Z" transform="translate(-20.87 -0.013)" fill="#070706"/>
      <path id="Trazado_653835" data-name="Trazado 653835" d="M522.243,520.489v.65q0,14.461.011,28.922a1.578,1.578,0,0,1-.515,1.234q-5.911,5.873-11.792,11.777c-.954.954-1.84,1.1-2.527.429s-.558-1.575.392-2.527c2.271-2.274,4.559-4.53,6.811-6.822a4.457,4.457,0,0,0-1.1-7.368,4.261,4.261,0,0,0-4.638.52,9.535,9.535,0,0,0-.934.858q-12.975,12.971-25.936,25.956a1.737,1.737,0,0,1-1.369.557q-4.259-.038-8.518,0c-.522,0-.724-.076-.721-.674q.037-9.6.007-19.208a1.254,1.254,0,0,1,.406-.977q5.745-5.722,11.474-11.461a2.9,2.9,0,0,1,.7-.555,1.459,1.459,0,0,1,1.913,2.029,3.753,3.753,0,0,1-.617.742c-2.268,2.277-4.552,4.537-6.81,6.823a4.477,4.477,0,0,0,5.648,6.936,10.26,10.26,0,0,0,1-.9q18.179-18.177,36.351-36.362c.211-.211.39-.453.584-.681Zm-47.828,52.672a1.489,1.489,0,1,0,.017-2.978,1.489,1.489,0,1,0-.017,2.978Z" transform="translate(-6.956 -45.102)" fill="#e8564f"/>
      <path id="Trazado_653836" data-name="Trazado 653836" d="M471.439,503.233c0-2.558,0-5.117-.007-7.675a.837.837,0,0,1,.343-.625q14.323-14.325,28.641-28.656a1.01,1.01,0,0,1,.787-.319q10.24.012,20.48,0c.431,0,.543.083.6.554a5.486,5.486,0,0,1-1.961,4.994c-7.454,7.273-14.768,14.689-22.134,22.053a4.944,4.944,0,0,1-.728.636,1.475,1.475,0,0,1-1.847-.184,1.446,1.446,0,0,1-.165-1.85,4.808,4.808,0,0,1,.59-.67c2.253-2.258,4.518-4.5,6.761-6.771a4.478,4.478,0,0,0-5.6-6.975,9.834,9.834,0,0,0-1,.9q-12.027,12.023-24.047,24.053c-.194.194-.369.405-.553.609Zm47.791-32.789a1.49,1.49,0,1,0,.055-2.979,1.49,1.49,0,1,0-.055,2.979Z" transform="translate(-6.978 -6.976)" fill="#a2e8ec"/>
      <path id="Trazado_653837" data-name="Trazado 653837" d="M471.432,530.02c0-1.4.011-2.614-.008-3.831a.908.908,0,0,1,.336-.7q13.4-13.393,26.794-26.789a1.527,1.527,0,0,1,2.071-.4c.891.575.933,1.6.065,2.482-1.574,1.6-3.17,3.171-4.751,4.761-.9.9-1.836,1.764-2.657,2.729a4.423,4.423,0,0,0,2.241,7.2,4.265,4.265,0,0,0,3.931-.832,10.422,10.422,0,0,0,.823-.759q10.65-10.646,21.291-21.3a5.034,5.034,0,0,0,.474-.652l.217.133c0,1.281,0,2.563,0,3.844,0,.36-.287.507-.489.71Q512.4,506,503.02,515.378q-10.013,10.015-20.027,20.028a5.177,5.177,0,0,1-.667.6,1.462,1.462,0,0,1-2.029-2.061,4.869,4.869,0,0,1,.546-.611c2.27-2.275,4.559-4.53,6.81-6.823a4.463,4.463,0,0,0-1.131-7.365,4.135,4.135,0,0,0-4.623.548c-.978.8-1.842,1.746-2.742,2.642q-3.548,3.533-7.083,7.079C471.9,529.581,471.725,529.742,471.432,530.02Z" transform="translate(-6.972 -25.169)" fill="#f4d383"/>
      <path id="Trazado_653838" data-name="Trazado 653838" d="M556.068,622.868v.454q0,9.193.01,18.387c0,.5-.095.682-.643.681q-17.748-.025-35.5-.013c-.074,0-.148-.012-.229-.018-.074-.26.161-.342.284-.465q12.068-12.083,24.141-24.162a1.686,1.686,0,0,1,1.877-.56,1.489,1.489,0,0,1,.371,2.527c-.895.936-1.826,1.838-2.742,2.754-1.479,1.481-2.983,2.937-4.432,4.446a4.487,4.487,0,1,0,6.454,6.226q4.852-4.872,9.726-9.722A1.525,1.525,0,0,1,556.068,622.868Zm-10.323,15.025c-.969,0-1.938-.011-2.907,0a1.5,1.5,0,1,0-.012,2.983q2.869.02,5.739,0a1.5,1.5,0,1,0,.012-2.981C547.634,637.878,546.69,637.893,545.746,637.893Zm7.32.007a1.489,1.489,0,1,0,0,2.977,1.489,1.489,0,1,0,0-2.977Z" transform="translate(-40.782 -112.818)" fill="#7f7f7f"/>
      <path id="Trazado_653839" data-name="Trazado 653839" d="M477.963,473.971a1.49,1.49,0,1,1,.017-2.98,1.49,1.49,0,1,1-.017,2.98Z" transform="translate(-10.504 -10.503)" fill="#070706"/>
      <path id="Trazado_653840" data-name="Trazado 653840" d="M477.965,689.576a1.489,1.489,0,1,1,.017-2.978,1.489,1.489,0,1,1-.017,2.978Z" transform="translate(-10.506 -161.517)" fill="#070202"/>
      <path id="Trazado_653841" data-name="Trazado 653841" d="M627.554,473.974a1.49,1.49,0,1,1,.055-2.979,1.49,1.49,0,1,1-.055,2.979Z" transform="translate(-115.302 -10.505)" fill="#050707"/>
      <path id="Trazado_653842" data-name="Trazado 653842" d="M595.858,686.566c.944,0,1.888-.014,2.832,0a1.5,1.5,0,1,1-.012,2.981q-2.869.025-5.739,0a1.5,1.5,0,1,1,.012-2.983C593.92,686.555,594.889,686.566,595.858,686.566Z" transform="translate(-90.895 -161.491)" fill="#010101"/>
      <path id="Trazado_653843" data-name="Trazado 653843" d="M627.592,686.6a1.489,1.489,0,1,1,0,2.977,1.489,1.489,0,1,1,0-2.977Z" transform="translate(-115.309 -161.518)" fill="#040404"/>
    </g>
  </g>
</svg>
