<svg xmlns="http://www.w3.org/2000/svg" width="83" height="91.547" viewBox="0 0 83 91.547">
  <g id="Grupo_992160" data-name="Grupo 992160" transform="translate(-181 -498)">
    <circle id="Elipse_8159" data-name="Elipse 8159" cx="41.5" cy="41.5" r="41.5" transform="translate(181 503)" fill="#ffd76a"/>
    <g id="Grupo_992159" data-name="Grupo 992159" transform="translate(193.449 498)">
      <path id="Trazado_652103" data-name="Trazado 652103" d="M791.648,308.436a1.511,1.511,0,0,1,2.072.619,24.764,24.764,0,0,1-11.39,38.1,1.19,1.19,0,0,0-.984,1.352c.035,7.358.028,14.718.018,22.076a6.794,6.794,0,0,1-5.817,7.117,8.658,8.658,0,0,1-1.425.075q-19.257.006-38.514,0c-4.309,0-7.191-2.838-7.193-7.141q-.015-38.611,0-77.223c0-4.36,2.867-7.179,7.243-7.18q19.212,0,38.425,0c4.422,0,7.268,2.832,7.284,7.242.007,1.906.047,3.815-.02,5.719a1.267,1.267,0,0,0,1.028,1.509,21.518,21.518,0,0,1,6.123,3.231c.9.658,1.007,1.065.6,2.135-.963.7-1.252.684-2.372-.113a21.88,21.88,0,0,0-29.99,4.323c-5.643,7.324-6.319,15.3-2.372,23.658a6.11,6.11,0,0,1,.665,3.261c-.138,1.54-.151,3.092-.217,4.638-.19,2.036.011,2.239,2.023,2.218,2.233-.023,4.467,0,6.7-.019a7.118,7.118,0,0,1,2.61.477,21.953,21.953,0,0,0,26.121-8.364,20.436,20.436,0,0,0,3.608-10.583l.014-.353.014-.36c.024-.413.073-.827.068-1.24a21.515,21.515,0,0,0-4.329-12.834C790.865,309.725,790.872,309.361,791.648,308.436ZM774.8,375.056c2.372-.164,3.885-1.874,3.888-4.448q.014-10.084,0-20.167c0-.707.323-1.671-.142-2.055-.506-.418-1.4.1-2.138.148-1.277.091-1.277.091-1.277,1.326q0,9.339,0,18.678a3.5,3.5,0,0,1-3.665,3.826q-16.575.017-33.15,0a3.429,3.429,0,0,1-3.66-3.552c-.031-7.626-.017-15.253-.008-22.879,0-1.047.337-1.4,1.384-1.631,1.072.293,1.29.583,1.291,1.789q0,11.026,0,22.052c0,1.43.127,1.553,1.593,1.553q14.594,0,29.188,0c.683,0,1.366-.023,2.05-.036.177.014.355.038.532.04,1.681.019,1.769-.069,1.769-1.74q0-8.579,0-17.159c0-.712.229-1.645-.129-2.077-.413-.5-1.4-.251-2.132-.344a25.761,25.761,0,0,1-4.636-1.23,6.4,6.4,0,0,0-2.519-.433q-3.528.031-7.056,0a3.724,3.724,0,0,1-3.907-4.106c.068-1.874.155-3.748.288-5.619a3.2,3.2,0,0,0-.368-1.791,22.875,22.875,0,0,1-2.7-9.988c-.279-9.472,3.6-16.862,11.451-22.143a25,25,0,0,1,9.414-3.622c2.3-.062,2.3-.062,2.3-2.262v-.712c0-2.24-.058-2.294-2.3-2.128-2.956-.194-2.956-.194-4.455,2.334-.061.1-.121.2-.18.308a3.5,3.5,0,0,1-3.222,1.886q-7.417.021-14.834,0a3.487,3.487,0,0,1-3.172-1.818c-.392-.666-.8-1.322-1.166-2a1.27,1.27,0,0,0-1.288-.752c-.952.033-1.906.009-2.859.009-1.572,0-1.657.085-1.657,1.67q0,21.406,0,42.812c0,1.391-.145,1.606-1.3,1.985-1.139-.318-1.38-.646-1.38-1.931q0-21.665,0-43.331a6.051,6.051,0,0,1,.02-.624,3.463,3.463,0,0,1,3.506-3.247c1.339-.029,2.68-.026,4.019,0a3.447,3.447,0,0,1,3.04,1.727c.434.711.866,1.423,1.267,2.153a1.184,1.184,0,0,0,1.146.682q7.235-.014,14.471,0a1.185,1.185,0,0,0,1.158-.662c.371-.678.786-1.331,1.169-2a3.564,3.564,0,0,1,3.3-1.9c1.251,0,2.5-.014,3.752,0a3.491,3.491,0,0,1,3.636,3.583c.024.923,0,1.847,0,2.77,0,1.289,0,1.289,1.284,1.279.555.088,1.119.138,1.662.275.478.121.631.012.626-.488-.02-2.015.04-4.031-.024-6.044a4.012,4.012,0,0,0-3.876-4.066c-.327-.012-.654-.034-.98-.034q-19.08,0-38.16,0c-2.908,0-4.559,1.62-4.559,4.518q-.007,38.57,0,77.139c0,2.9,1.655,4.519,4.559,4.519q19.08,0,38.16,0C774.147,375.091,774.474,375.068,774.8,375.056Z" transform="translate(-728.407 -286.23)" fill="#040404"/>
      <path id="Trazado_652104" data-name="Trazado 652104" d="M833.658,336.446c-.776.924-.784,1.288-.007,2.339a21.516,21.516,0,0,1,4.329,12.834c0,.413-.044.827-.068,1.24-.181.114-.187.234-.014.36l-.014.353c-.474.075-.359.515-.43.785a22.8,22.8,0,0,1-7.48,11.853,22.227,22.227,0,0,1-12.213,5.272,22.924,22.924,0,0,1-11.153-1.438,3.449,3.449,0,0,0-1.309-.2c-2.826.009-5.651,0-8.477,0,.066-1.546.078-3.1.217-4.638a6.109,6.109,0,0,0-.665-3.261c-3.947-8.353-3.27-16.333,2.373-23.658a21.88,21.88,0,0,1,29.99-4.323c1.12.8,1.409.811,2.372.113Zm-34.55,28.042c-.052.8-.119,1.6-.152,2.408-.075,1.871.706,2.686,2.59,2.7,2.2.01,4.408,0,6.613,0a3.192,3.192,0,0,1,1.221.2,17.986,17.986,0,0,0,11.046.7,19.091,19.091,0,1,0-22.24-11.749A10.1,10.1,0,0,1,799.108,364.488Z" transform="translate(-770.417 -314.24)" fill="#b7e1c7"/>
      <path id="Trazado_652105" data-name="Trazado 652105" d="M783.789,313.857a25,25,0,0,0-9.414,3.622c-7.852,5.281-11.73,12.671-11.451,22.143a22.876,22.876,0,0,0,2.7,9.988,3.2,3.2,0,0,1,.368,1.791c-.133,1.871-.22,3.745-.288,5.619a3.724,3.724,0,0,0,3.907,4.106q3.528.034,7.056,0a6.4,6.4,0,0,1,2.519.433,25.752,25.752,0,0,0,4.636,1.23c-.009.415-.025.831-.025,1.246q-.007,10.017-.011,20.033c-.683.013-1.367.035-2.05.036q-14.595,0-29.188,0c-1.465,0-1.593-.124-1.593-1.553q0-11.026,0-22.052c0-1.206-.219-1.5-1.291-1.789l-.009-3.525c1.155-.378,1.3-.594,1.3-1.985q0-21.406,0-42.812c0-1.585.085-1.67,1.657-1.67.953,0,1.907.024,2.859-.009a1.269,1.269,0,0,1,1.288.752c.363.682.774,1.337,1.166,2a3.486,3.486,0,0,0,3.172,1.818q7.417.022,14.834,0a3.5,3.5,0,0,0,3.222-1.886c.058-.1.119-.206.18-.308,1.5-2.528,1.5-2.528,4.455-2.334Q783.787,311.306,783.789,313.857Zm-15.295,54.25c4.076,0,8.152.006,12.228,0,.986,0,1.542-.521,1.529-1.348-.013-.787-.557-1.27-1.488-1.315-.178-.009-.357,0-.536,0q-11.737,0-23.474,0a4.5,4.5,0,0,0-.888.046,1.23,1.23,0,0,0-1.073,1.407c.044.809.588,1.212,1.653,1.214Q762.47,368.113,768.495,368.106Zm.107,2.873q-6.07,0-12.139,0c-1.088,0-1.654.461-1.677,1.3-.025.887.548,1.358,1.683,1.384.119,0,.238,0,.357,0q11.693,0,23.386,0a5.112,5.112,0,0,0,1.065-.073,1.17,1.17,0,0,0,.952-1.049,1.262,1.262,0,0,0-.553-1.318,2.133,2.133,0,0,0-1.291-.247Zm-.094,8.226q5.9,0,11.794,0a4.156,4.156,0,0,0,.976-.067,1.2,1.2,0,0,0,.961-1.321,1.176,1.176,0,0,0-.99-1.207,4.8,4.8,0,0,0-.977-.056q-11.75,0-23.5,0a5.157,5.157,0,0,0-.891.035,1.212,1.212,0,0,0-1.086,1.392c.038.812.582,1.221,1.649,1.223Q762.476,379.213,768.508,379.205Z" transform="translate(-742.04 -300.636)" fill="#d8e7f8"/>
      <path id="Trazado_652106" data-name="Trazado 652106" d="M740.838,345.587l.009,3.525c-1.047.228-1.383.584-1.384,1.631-.01,7.626-.024,15.253.008,22.879a3.429,3.429,0,0,0,3.66,3.552q16.575.016,33.15,0a3.5,3.5,0,0,0,3.665-3.826q.011-9.339,0-18.678c0-1.235,0-1.235,1.277-1.326q0,11.478,0,22.957a4.456,4.456,0,0,1-1.178,2.91c-.172.2-.412.354-.429.655-.327.012-.653.035-.98.035q-19.08,0-38.16,0c-2.9,0-4.559-1.624-4.559-4.519q-.007-38.569,0-77.139c0-2.9,1.651-4.518,4.559-4.518q19.08,0,38.16,0c.327,0,.654.023.98.034a1.231,1.231,0,0,0,.185.392,4.987,4.987,0,0,1,1.438,3.961c-.034,1.99-.01,3.98-.012,5.97-1.284.01-1.284.01-1.284-1.279,0-.923.019-1.847,0-2.77a3.491,3.491,0,0,0-3.636-3.583c-1.25-.017-2.5-.005-3.752,0a3.564,3.564,0,0,0-3.3,1.9c-.383.672-.8,1.325-1.169,2a1.185,1.185,0,0,1-1.158.662q-7.235-.014-14.471,0a1.184,1.184,0,0,1-1.146-.682c-.4-.729-.833-1.442-1.267-2.153a3.447,3.447,0,0,0-3.04-1.727c-1.339-.027-2.68-.03-4.019,0a3.463,3.463,0,0,0-3.506,3.248,6.05,6.05,0,0,0-.02.624q0,21.665,0,43.331C739.458,344.941,739.7,345.268,740.838,345.587Zm18.842-46.468c1.4,0,2.793.014,4.189-.005a1.331,1.331,0,1,0,.042-2.655q-4.189-.041-8.378,0a1.337,1.337,0,1,0,.047,2.659C756.946,299.13,758.313,299.119,759.679,299.118Z" transform="translate(-733.226 -291.039)" fill="#a9a9a9"/>
      <path id="Trazado_652107" data-name="Trazado 652107" d="M802,412.283c2.826,0,5.651.007,8.477,0a3.449,3.449,0,0,1,1.309.2,22.924,22.924,0,0,0,11.153,1.438,22.227,22.227,0,0,0,12.213-5.272,22.8,22.8,0,0,0,7.48-11.853c.071-.271-.044-.711.43-.785a20.436,20.436,0,0,1-3.608,10.583,21.952,21.952,0,0,1-26.121,8.364,7.117,7.117,0,0,0-2.61-.477c-2.233.024-4.466,0-6.7.019C802.016,414.521,801.814,414.319,802,412.283Z" transform="translate(-775.6 -356.679)" fill="#a0d8b7"/>
      <path id="Trazado_652108" data-name="Trazado 652108" d="M857.894,486.092c.017-.3.257-.454.429-.655a4.456,4.456,0,0,0,1.178-2.91q.019-11.478,0-22.957c.734-.045,1.632-.566,2.138-.148.465.384.141,1.349.142,2.055q.017,10.084,0,20.167C861.779,484.218,860.266,485.928,857.894,486.092Z" transform="translate(-811.501 -397.266)" fill="#979797"/>
      <path id="Trazado_652109" data-name="Trazado 652109" d="M844.917,480.975q0-10.017.011-20.033c0-.415.016-.831.025-1.246.734.092,1.72-.153,2.132.344.358.431.129,1.365.129,2.077q.008,8.579,0,17.159c0,1.671-.088,1.759-1.769,1.74C845.272,481.013,845.094,480.989,844.917,480.975Z" transform="translate(-803.173 -397.546)" fill="#c0d6ef"/>
      <path id="Trazado_652110" data-name="Trazado 652110" d="M859.506,304.147c0-1.99-.023-3.981.012-5.97a4.987,4.987,0,0,0-1.439-3.961,1.231,1.231,0,0,1-.185-.392,4.012,4.012,0,0,1,3.875,4.066c.065,2.013,0,4.029.024,6.044.005.5-.148.609-.626.488C860.625,304.284,860.061,304.235,859.506,304.147Z" transform="translate(-811.501 -291.103)" fill="#979797"/>
      <path id="Trazado_652111" data-name="Trazado 652111" d="M844.922,313.888q0-2.551-.005-5.1c2.242-.166,2.3-.112,2.3,2.128v.712C847.218,313.827,847.218,313.827,844.922,313.888Z" transform="translate(-803.173 -300.668)" fill="#c0d6ef"/>
      <path id="Trazado_652112" data-name="Trazado 652112" d="M916.527,394.382c-.173-.127-.167-.247.014-.36Z" transform="translate(-849.046 -355.402)" fill="#a0d8b7"/>
      <path id="Trazado_652113" data-name="Trazado 652113" d="M804.5,369.749a10.1,10.1,0,0,0-.921-5.751,19.071,19.071,0,1,1,22.24,11.749,17.986,17.986,0,0,1-11.046-.7,3.19,3.19,0,0,0-1.221-.2c-2.2,0-4.408.009-6.612,0-1.884-.009-2.665-.824-2.59-2.7C804.38,371.354,804.448,370.552,804.5,369.749ZM837.653,355.6a16.372,16.372,0,1,0-31.631,7.278c.808,2.158,1.556,4.2,1.2,6.51-.052.681-.071,1.368-.167,2.043-.085.594.109.766.7.755,1.932-.034,3.866-.006,5.8-.016a5.3,5.3,0,0,1,1.915.335,16.213,16.213,0,0,0,18.065-4.356A15.685,15.685,0,0,0,837.653,355.6Z" transform="translate(-775.809 -319.501)" fill="#040404"/>
      <path id="Trazado_652114" data-name="Trazado 652114" d="M777.7,469.759q-6.025,0-12.049,0c-1.066,0-1.609-.4-1.653-1.213a1.23,1.23,0,0,1,1.073-1.407,4.5,4.5,0,0,1,.888-.046q11.737,0,23.474,0c.178,0,.358-.006.536,0,.931.045,1.475.528,1.488,1.315.013.827-.543,1.345-1.529,1.348C785.849,469.766,781.773,469.759,777.7,469.759Z" transform="translate(-751.242 -402.289)" fill="#070708"/>
      <path id="Trazado_652115" data-name="Trazado 652115" d="M777.8,482.561h11.782a2.133,2.133,0,0,1,1.291.247,1.262,1.262,0,0,1,.553,1.318,1.17,1.17,0,0,1-.952,1.049,5.11,5.11,0,0,1-1.065.073q-11.693.005-23.386,0c-.119,0-.238,0-.357,0-1.134-.026-1.707-.5-1.683-1.384.023-.84.589-1.3,1.677-1.3Q771.725,482.551,777.8,482.561Z" transform="translate(-751.233 -412.218)" fill="#070708"/>
      <path id="Trazado_652116" data-name="Trazado 652116" d="M777.717,500.765q-6.031,0-12.062,0c-1.067,0-1.612-.411-1.649-1.223a1.212,1.212,0,0,1,1.086-1.392,5.151,5.151,0,0,1,.891-.035q11.75,0,23.5,0a4.8,4.8,0,0,1,.977.056,1.176,1.176,0,0,1,.99,1.207,1.2,1.2,0,0,1-.961,1.321,4.157,4.157,0,0,1-.976.067Q783.615,500.769,777.717,500.765Z" transform="translate(-751.25 -422.196)" fill="#000101"/>
      <path id="Trazado_652117" data-name="Trazado 652117" d="M792.21,303.981c-1.367,0-2.734.012-4.1,0a1.337,1.337,0,1,1-.047-2.659q4.189-.033,8.378,0a1.331,1.331,0,1,1-.042,2.655C795,303.995,793.606,303.981,792.21,303.981Z" transform="translate(-765.756 -295.902)" fill="#040404"/>
      <path id="Trazado_652118" data-name="Trazado 652118" d="M812.027,374.2c.358-2.313-.389-4.352-1.2-6.51a16.372,16.372,0,1,1,31.631-7.278c-.264.133-.219.384-.254.617a16.939,16.939,0,0,1-4.917,9.556,16.377,16.377,0,0,1-5.212,3.5,15.778,15.778,0,0,1-9.69,1.191c-2.839-.61-5.629-1.388-8.577-1.085A17.3,17.3,0,0,1,812.027,374.2Zm2.553-15.872a11.655,11.655,0,0,0,.405,2.908c1.743,5.576,5.572,9.262,10.8,11.5,3.906,1.675,7.646.7,10.567-2.381,2.132-2.252,1.827-4.958-.75-6.641q-.336-.219-.682-.422c-2.674-1.573-4.715-1.279-6.38,1.072a1.345,1.345,0,0,1-2.01.39,7.554,7.554,0,0,1-2.958-3.249c-.6-1.179-.512-1.567.536-2.336a3.387,3.387,0,0,0,1.362-3.768,7.017,7.017,0,0,0-2.579-3.858,3.9,3.9,0,0,0-5.3-.066A8.241,8.241,0,0,0,814.58,358.33Z" transform="translate(-780.616 -324.319)" fill="#f6f1ef"/>
      <path id="Trazado_652119" data-name="Trazado 652119" d="M815.744,400.762a17.3,17.3,0,0,0,1.783-.005c2.948-.3,5.739.475,8.577,1.085a15.778,15.778,0,0,0,9.69-1.191,16.378,16.378,0,0,0,5.212-3.5,16.938,16.938,0,0,0,4.917-9.556c.035-.233-.01-.484.254-.617a15.684,15.684,0,0,1-4.119,12.549,16.213,16.213,0,0,1-18.065,4.356,5.3,5.3,0,0,0-1.915-.335c-1.933.01-3.866-.018-5.8.016-.594.01-.787-.161-.7-.755C815.673,402.13,815.692,401.444,815.744,400.762Z" transform="translate(-784.333 -350.879)" fill="#e9deda"/>
      <path id="Trazado_652120" data-name="Trazado 652120" d="M823.2,367.1a8.241,8.241,0,0,1,3.015-6.848,3.9,3.9,0,0,1,5.3.066,7.017,7.017,0,0,1,2.579,3.858,3.387,3.387,0,0,1-1.362,3.768c-1.048.769-1.139,1.157-.536,2.336a7.553,7.553,0,0,0,2.958,3.249,1.345,1.345,0,0,0,2.01-.39c1.665-2.351,3.705-2.645,6.38-1.072q.346.2.682.422c2.577,1.683,2.882,4.389.75,6.641-2.92,3.084-6.661,4.056-10.567,2.381-5.226-2.241-9.054-5.928-10.8-11.5A11.652,11.652,0,0,1,823.2,367.1Zm2.76-.038.006.181.009.355a5.693,5.693,0,0,0,.09,1.145,15.057,15.057,0,0,0,10.462,10.623,6,6,0,0,0,6.947-2.832,1.021,1.021,0,0,0-.4-1.58c-.427-.268-.847-.55-1.293-.784-1.158-.608-1.593-.559-2.363.456a4.06,4.06,0,0,1-4.5,1.735,10.731,10.731,0,0,1-2.86-1.782,11.393,11.393,0,0,1-2.7-4.154,3.707,3.707,0,0,1,1.2-4.179c1.177-.975,1.246-1.391.358-2.65a6.723,6.723,0,0,0-1.006-1.131,1.377,1.377,0,0,0-2.136-.035A5.349,5.349,0,0,0,825.963,367.058Z" transform="translate(-789.239 -333.085)" fill="#040404"/>
      <path id="Trazado_652121" data-name="Trazado 652121" d="M848.447,391.482a6,6,0,0,1-6.947,2.832,15.057,15.057,0,0,1-10.462-10.623,5.688,5.688,0,0,1-.09-1.145c.5.061.539.521.682.843a16.025,16.025,0,0,0,3.893,5.2c.413.384.746,1.054,1.508.933a10.733,10.733,0,0,0,2.86,1.783c0,.25.174.36.367.451a8.2,8.2,0,0,0,6,.634A23.6,23.6,0,0,1,848.447,391.482Z" transform="translate(-794.209 -348.037)" fill="#9fd6b5"/>
      <path id="Trazado_652122" data-name="Trazado 652122" d="M836.984,379.391c-.762.12-1.095-.55-1.508-.933a16.024,16.024,0,0,1-3.893-5.2c-.143-.322-.186-.782-.682-.843l-.009-.355c.136-.065.129-.125-.006-.181a5.349,5.349,0,0,1,1.815-4.633,1.377,1.377,0,0,1,2.136.035,6.722,6.722,0,0,1,1.006,1.131c.888,1.26.819,1.675-.358,2.65a3.707,3.707,0,0,0-1.2,4.179A11.392,11.392,0,0,0,836.984,379.391Z" transform="translate(-794.162 -337.902)" fill="#b8e1c7"/>
      <path id="Trazado_652123" data-name="Trazado 652123" d="M864.464,402.546a23.6,23.6,0,0,0-2.187.911,8.2,8.2,0,0,1-6-.634c-.193-.091-.368-.2-.367-.451a4.06,4.06,0,0,0,4.5-1.735c.769-1.014,1.2-1.064,2.362-.456.445.234.866.516,1.293.784A1.021,1.021,0,0,1,864.464,402.546Z" transform="translate(-810.227 -359.101)" fill="#b8e1c7"/>
      <path id="Trazado_652124" data-name="Trazado 652124" d="M830.906,381.051c.134.056.142.116.006.181Z" transform="translate(-794.182 -347.078)" fill="#9fd6b5"/>
    </g>
  </g>
</svg>
