<svg xmlns="http://www.w3.org/2000/svg" xmlns:xlink="http://www.w3.org/1999/xlink" width="112" height="112" viewBox="0 0 112 112">
  <defs>
    <clipPath id="clip-path">
      <rect id="Rectángulo_309077" data-name="Rectángulo 309077" width="112" height="112" transform="translate(-0.344)" fill="none"/>
    </clipPath>
  </defs>
  <g id="Enmascarar_grupo_878509" data-name="Enmascarar grupo 878509" transform="translate(0.344)" clip-path="url(#clip-path)">
    <circle id="Elipse_8059" data-name="Elipse 8059" cx="48.5" cy="48.5" r="48.5" transform="translate(7.656 7)" fill="#faebcd"/>
    <g id="_5ijJAX.tif" data-name="5ijJAX.tif" transform="translate(14.124 16.3)">
      <g id="Grupo_991148" data-name="Grupo 991148" transform="translate(0 0)">
        <path id="Trazado_650154" data-name="Trazado 650154" d="M488.86-272.066c.012-.967.022-1.934.037-2.9a2.933,2.933,0,0,1,3.071-3.081q15.94-.008,31.881,0a2.923,2.923,0,0,1,3.061,3.019q.029,9.171,0,18.343a2.964,2.964,0,0,1-3.187,2.981c-1.1.03-1.1.03-1.1,1.092q0,17.554,0,35.109a5.6,5.6,0,0,1-4.341,5.8,7.244,7.244,0,0,1-1.733.132c-6.67,0-13.339.013-20.008-.017-.7,0-.885.178-.856.864.057,1.326.036,2.656.006,3.983-.011.469.124.608.6.6,1.328-.029,2.658-.041,3.984,0a5.911,5.911,0,0,1,5.558,5.657c.013,1.007-.433,1.483-1.445,1.483q-19.967.006-39.934,0c-1.055,0-1.495-.478-1.469-1.541a5.909,5.909,0,0,1,5.614-5.6c1.244-.036,2.493-.057,3.735.005.69.035.813-.213.791-.829-.045-1.271-.057-2.547,0-3.817.033-.684-.2-.8-.832-.8q-12.246.031-24.492.012a5.591,5.591,0,0,1-5.637-3.9,6.017,6.017,0,0,1-.276-1.877q0-25.273,0-50.547a5.1,5.1,0,0,1,5.338-5.315q18.224-.009,36.447-.009c.846,0,1.46.236,1.622,1.153-.13,1.1-.451,1.361-1.724,1.361H448.142c-2.574,0-3.746,1.172-3.746,3.743q0,19.412,0,38.824c0,1.178,0,1.178,1.18,1.178h36.595c1.2,0,1.46.182,1.749,1.2-.215,1.056-.56,1.326-1.732,1.326q-17.848,0-35.7,0c-.5,0-1,.024-1.494-.006-.478-.029-.617.169-.613.628.017,2.213-.019,4.426.017,6.639a3.054,3.054,0,0,0,3.15,3.064c1.162.013,2.324,0,3.487,0l48.148-.012a.638.638,0,0,0,.691.116,14.875,14.875,0,0,1,2.7-.112c.364-.024.729.354,1.087-.009,4.453,0,8.907.021,13.36.01a2.965,2.965,0,0,0,3.067-2.862c.047-2.294.006-4.59.022-6.885,0-.429-.14-.594-.574-.578-.856.033-1.713.031-2.57.043-.5-.009-1,.019-1.491-.035a1.334,1.334,0,0,0-1.409.736,11.472,11.472,0,0,1-1.6,1.991,15.112,15.112,0,0,1-11.4,4.606,14.835,14.835,0,0,1-10.089-4.122,18.431,18.431,0,0,1-3.427-4.527c-.085-.229-.167-.46-.256-.688a15.181,15.181,0,0,1,1.609-14.861,16.88,16.88,0,0,1,5.154-4.685l-.014.01c.141-.009.279-.023.341-.182l-.013.008c.143,0,.28-.019.344-.176l-.013.008c.142,0,.282-.009.354-.164l-.016.01a.371.371,0,0,0,.361-.158l-.015.011c.178-.034.377-.018.493-.2l-.015.007a.445.445,0,0,0,.411-.162l.043.013.026-.036a.434.434,0,0,0,.426-.141,16.816,16.816,0,0,1,8.813-.166.723.723,0,0,0,.566.167l-.018-.007a.6.6,0,0,0,.513.177l-.017-.008a.343.343,0,0,0,.377.136l.031.035.046-.009a.413.413,0,0,0,.4.168l-.015-.007c.073.154.209.165.353.157l-.008,0c.1.175.285.193.455.235l.058-.036-.059.033c.234.142.463.291.7.424a15.431,15.431,0,0,1,7.438,17.089c-.143.575-.753,1.3-.287,1.7.376.329,1.212.133,1.842.037a12.464,12.464,0,0,1,1.321.057c.714.1.853-.193.848-.865-.031-4.648-.012-9.3-.017-13.944,0-3.015-.019-6.03-.03-9.044.01-.69-.03-1.386.044-2.069.078-.717-.194-.849-.866-.847q-13.355.035-26.711.014a8.026,8.026,0,0,1-.993-.042,2.942,2.942,0,0,1-2.656-2.9c-.025-.8,0-1.6-.007-2.405q-.017-6.425-.037-12.851Zm-13.238,61.61c0,1.217.01,2.435-.025,3.651-.014.513.169.663.67.662q8.136-.02,16.272,0c.5,0,.684-.149.67-.662-.034-1.216-.019-2.434-.024-3.651.041-1.164.041-1.164-1.125-1.164H476.747C475.582-211.62,475.582-211.62,475.622-210.456Zm47.021-65.091h-.653q-14.812,0-29.624-.015c-.8,0-.972.311-.97,1.033.021,5.724.01,11.448.018,17.172,0,.2-.116.434.136.625.13-.149.257-.29.378-.436q2.135-2.594,4.267-5.189a4.043,4.043,0,0,1,4.792-1.443c1.071.361,2.187.6,3.243,1a2.431,2.431,0,0,0,2.839-.644c1.446-1.407,2.983-2.72,4.487-4.067a3.971,3.971,0,0,1,3.733-1.088,1.585,1.585,0,0,0,1.641-.542C518.787-271.23,520.648-273.311,522.643-275.547Zm1.768,2.028c-.4.092-.514.367-.689.561q-2.445,2.71-4.871,5.437a3.968,3.968,0,0,1-3.862,1.407,2.025,2.025,0,0,0-1.875.584c-1.592,1.455-3.209,2.883-4.809,4.329a4.11,4.11,0,0,1-4.3.944c-1.339-.432-2.7-.8-4.043-1.218a1.289,1.289,0,0,0-1.45.323c-1.344,1.562-2.643,3.162-4.085,4.9h5.8q11.575,0,23.15,0c.552,0,1.04.045,1.037-.774C524.4-262.5,524.411-267.972,524.411-273.519Zm-24.219,36.064c0-2.847-.034-4.9.018-6.941.019-.759-.241-.845-.9-.724A12.941,12.941,0,0,0,488.6-233.063a12.939,12.939,0,0,0,9.084,12.925c1.417.45,1.417.45,1.522-.986.01-.138.026-.275.037-.413C499.69-227.1,500.462-232.649,500.191-237.455Zm2.51-2.173c0,1.686.013,3.373-.008,5.059-.006.454.127.59.576.494,3.291-.71,6.582-1.419,9.879-2.1.534-.11.528-.31.359-.73a12.819,12.819,0,0,0-10.106-8.243c-.535-.1-.726.049-.713.625C502.725-242.89,502.7-241.258,502.7-239.628ZM484.309-201.5h1.41q8.255,0,16.511,0c.233,0,.568.129.68-.114.125-.271-.157-.5-.323-.71a3.4,3.4,0,0,0-2.74-1.319c-1.244-.014-2.489,0-3.734,0q-13.441,0-26.882,0a3.617,3.617,0,0,0-3,1.309c-.171.21-.454.449-.344.707.125.291.492.134.747.135Q475.473-201.5,484.309-201.5ZM503.4-231.541c1.763,3.142,3.483,6.192,5.185,9.252.338.608.6.125.812-.05a12.776,12.776,0,0,0,4.905-10.9c-.019-.5-.171-.593-.637-.489-1.7.38-3.4.726-5.1,1.086Zm-.905,3.534-.159.021c-.223,2.587-.434,5.174-.677,7.759-.048.508.063.685.6.64a14.613,14.613,0,0,0,3.87-.857c.355-.13.469-.267.251-.65C505.074-223.39,503.789-225.7,502.5-228.007Z" transform="translate(-441.887 278.052)" fill="#010202"/>
        <path id="Trazado_650155" data-name="Trazado 650155" d="M512.117-234.794l-.046.009-.031-.035a.317.317,0,0,0-.376-.136l.017.008c-.114-.225-.31-.211-.513-.177l.018.007c-.138-.228-.352-.2-.566-.167a16.817,16.817,0,0,0-8.814.166.379.379,0,0,0-.425.141l-.026.036-.043-.012a.338.338,0,0,0-.411.161l.015-.007c-.2-.023-.405-.052-.493.2l.015-.011c-.161-.039-.3-.022-.361.158l.016-.01a.271.271,0,0,0-.354.164l.013-.008a.269.269,0,0,0-.344.176l.013-.008c-.161-.028-.289.006-.341.182l.014-.01a1.8,1.8,0,0,0-1.214.443,16.81,16.81,0,0,0-4.171,3.5,16.619,16.619,0,0,0-4.108,10.067,22.665,22.665,0,0,0,.677,6.216l-1.325-.005c-.29-1.018-.548-1.2-1.749-1.2H450.61c-1.18,0-1.18,0-1.18-1.178q0-19.412,0-38.824c0-2.571,1.172-3.743,3.746-3.743h35.433c1.273,0,1.595-.258,1.724-1.361h3.561v.163c-.747,0-1.5.052-2.24-.016-.767-.07-.913.242-.909.945.028,5.145.078,10.291-.011,15.434a4.774,4.774,0,0,0,4.752,4.759c9.877-.064,19.755-.024,29.633-.022.01,3.015.026,6.03.03,9.044.005,4.648-.013,9.3.017,13.944,0,.672-.134.967-.848.865a12.462,12.462,0,0,0-1.321-.057c.024-.19.034-.383.073-.57a16.443,16.443,0,0,0-.345-8.148,16.923,16.923,0,0,0-8.346-10.24c-.323-.18-.645-.465-1.076-.3l.059-.033-.058.036c-.04-.294-.26-.24-.455-.235l.008,0a.283.283,0,0,0-.353-.157l.015.007A.325.325,0,0,0,512.117-234.794Zm-23.174-1.684q0-7.178,0-14.355a3.241,3.241,0,0,0-3.595-3.584q-14.318-.005-28.635,0c-2.345,0-3.621,1.292-3.621,3.654q0,14.272,0,28.545a3.3,3.3,0,0,0,3.65,3.643q14.276,0,28.552,0a3.284,3.284,0,0,0,3.649-3.63Q488.946-229.342,488.943-236.478Z" transform="translate(-446.921 266.042)" fill="#cce4f3"/>
        <path id="Trazado_650156" data-name="Trazado 650156" d="M488.93-120.839l1.325.005.17.051a18.6,18.6,0,0,0,3.434,5.6,16.232,16.232,0,0,0,8.529,5.518c.605.146,1.205.311,1.808.467l-48.148.012c-1.162,0-2.325.009-3.486,0a3.054,3.054,0,0,1-3.15-3.064c-.036-2.213,0-4.426-.017-6.639,0-.459.135-.657.613-.628.5.03,1,.006,1.494.006q17.848,0,35.7,0C488.37-119.513,488.716-119.783,488.93-120.839Z" transform="translate(-446.897 173.135)" fill="#57555b"/>
        <path id="Trazado_650157" data-name="Trazado 650157" d="M621.952-270.551c-2,2.236-3.856,4.317-5.713,6.4a1.585,1.585,0,0,1-1.641.542,3.971,3.971,0,0,0-3.733,1.088c-1.5,1.347-3.041,2.66-4.487,4.067a2.431,2.431,0,0,1-2.839.644c-1.056-.4-2.171-.636-3.243-1a4.043,4.043,0,0,0-4.792,1.443q-2.132,2.6-4.267,5.189c-.12.146-.248.287-.378.436-.252-.191-.136-.429-.136-.625-.008-5.724,0-11.448-.018-17.172,0-.721.167-1.035.97-1.033q14.812.034,29.624.015Z" transform="translate(-541.196 273.056)" fill="#45a4f6"/>
        <path id="Trazado_650158" data-name="Trazado 650158" d="M629.825-264.424c0,5.548-.01,11.022.011,16.5,0,.819-.485.774-1.037.774q-11.575-.006-23.15,0h-5.8c1.442-1.738,2.742-3.338,4.085-4.9a1.289,1.289,0,0,1,1.45-.323c1.342.422,2.7.786,4.043,1.218a4.11,4.11,0,0,0,4.3-.944c1.6-1.446,3.217-2.874,4.809-4.329a2.025,2.025,0,0,1,1.875-.584,3.968,3.968,0,0,0,3.862-1.407q2.424-2.728,4.871-5.437C629.311-264.057,629.428-264.332,629.825-264.424Z" transform="translate(-547.301 268.957)" fill="#4b5edb"/>
        <path id="Trazado_650159" data-name="Trazado 650159" d="M593.85-171.476c.271,4.806-.5,10.352-.949,15.917-.011.138-.027.275-.037.413-.1,1.436-.1,1.436-1.522.986a12.939,12.939,0,0,1-9.084-12.925,12.941,12.941,0,0,1,10.712-12.057c.656-.121.917-.035.9.724C593.816-176.371,593.85-174.323,593.85-171.476Z" transform="translate(-535.546 212.073)" fill="#ec7bab"/>
        <path id="Trazado_650160" data-name="Trazado 650160" d="M607.978-238.514c-9.878,0-19.755-.042-29.633.022a4.774,4.774,0,0,1-4.752-4.759c.089-5.143.039-10.289.011-15.434,0-.7.142-1.015.909-.945.741.067,1.493.015,2.24.016q.018,6.425.037,12.85c0,.8-.018,1.6.007,2.405a2.942,2.942,0,0,0,2.656,2.9,8.028,8.028,0,0,0,.993.042q13.355,0,26.711-.014c.672,0,.943.129.866.847C607.948-239.9,607.988-239.2,607.978-238.514Z" transform="translate(-529.782 265.764)" fill="#91c8f9"/>
        <path id="Trazado_650161" data-name="Trazado 650161" d="M586.513-109.167c-.6-.156-1.2-.321-1.808-.467a16.232,16.232,0,0,1-8.529-5.518,18.6,18.6,0,0,1-3.434-5.6l2.139-.041a18.43,18.43,0,0,0,3.427,4.527,14.835,14.835,0,0,0,10.089,4.122,15.113,15.113,0,0,0,11.4-4.606,11.479,11.479,0,0,0,1.6-1.991,1.333,1.333,0,0,1,1.409-.736c.493.054.994.027,1.491.035a4.573,4.573,0,0,1-.225.7A17.064,17.064,0,0,1,594.253-110c-1.065.378-2.191.481-3.259.828-.358.362-.724-.016-1.087.009a14.876,14.876,0,0,0-2.7.112A.638.638,0,0,1,586.513-109.167Z" transform="translate(-529.214 173.106)" fill="#28282a"/>
        <path id="Trazado_650162" data-name="Trazado 650162" d="M624.681-173.667c0-1.631.024-3.262-.013-4.892-.013-.577.178-.727.713-.625a12.819,12.819,0,0,1,10.106,8.243c.169.42.175.62-.359.73-3.3.677-6.589,1.387-9.88,2.1-.449.1-.582-.04-.576-.494C624.693-170.295,624.681-171.981,624.681-173.667Z" transform="translate(-563.866 212.092)" fill="#79d384"/>
        <path id="Trazado_650163" data-name="Trazado 650163" d="M532.414-52.253q-8.836,0-17.672-.006c-.255,0-.622.156-.747-.135-.11-.257.173-.5.344-.707a3.617,3.617,0,0,1,3-1.309q13.441.013,26.882,0c1.244,0,2.489-.01,3.734,0a3.4,3.4,0,0,1,2.74,1.319c.167.209.448.439.323.71-.112.243-.447.114-.68.114q-8.255.009-16.511,0Z" transform="translate(-489.992 128.803)" fill="#57555b"/>
        <path id="Trazado_650164" data-name="Trazado 650164" d="M560.815-74.844c.005,1.217-.01,2.435.024,3.651.014.513-.169.663-.67.662q-8.136-.02-16.272,0c-.5,0-.684-.149-.67-.662.034-1.216.02-2.434.025-3.651Z" transform="translate(-509.517 142.44)" fill="#3c3b40"/>
        <path id="Trazado_650165" data-name="Trazado 650165" d="M626.809-142.685l5.165-1.1c1.7-.36,3.4-.706,5.1-1.086.466-.1.619-.01.637.489a12.776,12.776,0,0,1-4.905,10.9c-.213.175-.474.658-.812.05C630.292-136.492,628.572-139.542,626.809-142.685Z" transform="translate(-565.296 189.196)" fill="#ec7bab"/>
        <path id="Trazado_650166" data-name="Trazado 650166" d="M627.613-106.552c1.068-.347,2.194-.449,3.259-.828a17.064,17.064,0,0,0,9.821-8.742,4.591,4.591,0,0,0,.225-.7c.857-.012,1.714-.01,2.57-.043.434-.017.577.149.574.578-.016,2.3.026,4.591-.022,6.885a2.965,2.965,0,0,1-3.067,2.862C636.52-106.531,632.066-106.547,627.613-106.552Z" transform="translate(-565.832 170.485)" fill="#57555b"/>
        <path id="Trazado_650167" data-name="Trazado 650167" d="M573.121-161.415l-2.139.041-.17-.051a22.663,22.663,0,0,1-.677-6.216,16.618,16.618,0,0,1,4.108-10.067,16.81,16.81,0,0,1,4.171-3.5,1.8,1.8,0,0,1,1.214-.443,16.882,16.882,0,0,0-5.154,4.685,15.182,15.182,0,0,0-1.609,14.861C572.954-161.875,573.035-161.645,573.121-161.415Z" transform="translate(-527.454 213.726)" fill="#90c5f5"/>
        <path id="Trazado_650168" data-name="Trazado 650168" d="M641.439-182.578c.431-.169.752.116,1.076.3a16.923,16.923,0,0,1,8.346,10.24,16.444,16.444,0,0,1,.345,8.148c-.038.187-.049.38-.073.569-.63.1-1.466.292-1.842-.037-.466-.407.145-1.128.287-1.7a15.431,15.431,0,0,0-7.438-17.089C641.9-182.288,641.672-182.437,641.439-182.578Z" transform="translate(-575.059 214.372)" fill="#8fc3f1"/>
        <path id="Trazado_650169" data-name="Trazado 650169" d="M622.392-127.606c1.294,2.306,2.579,4.617,3.889,6.914.219.383.1.52-.251.65a14.614,14.614,0,0,1-3.87.857c-.541.045-.651-.132-.6-.64.243-2.585.454-5.173.677-7.759Z" transform="translate(-561.784 177.651)" fill="#f2c17d"/>
        <path id="Trazado_650170" data-name="Trazado 650170" d="M560.842-77.179H543.279c-.041-1.163-.041-1.164,1.125-1.164h15.313C560.883-78.343,560.883-78.342,560.842-77.179Z" transform="translate(-509.544 144.775)" fill="#28282a"/>
        <path id="Trazado_650171" data-name="Trazado 650171" d="M602.723-183.963c.087-.254.292-.225.493-.2C603.1-183.981,602.9-184,602.723-183.963Z" transform="translate(-549.222 215.406)" fill="#90c5f5"/>
        <path id="Trazado_650172" data-name="Trazado 650172" d="M635.027-185.151c.2-.034.4-.048.513.177A.6.6,0,0,1,635.027-185.151Z" transform="translate(-570.78 216.067)" fill="#8fc3f1"/>
        <path id="Trazado_650173" data-name="Trazado 650173" d="M640.074-183.188c.195-.006.415-.059.455.235C640.359-182.995,640.176-183.013,640.074-183.188Z" transform="translate(-574.148 214.749)" fill="#8fc3f1"/>
        <path id="Trazado_650174" data-name="Trazado 650174" d="M633.378-185.636c.214-.032.428-.062.566.167A.723.723,0,0,1,633.378-185.636Z" transform="translate(-569.68 216.392)" fill="#8fc3f1"/>
        <path id="Trazado_650175" data-name="Trazado 650175" d="M604.159-184.463a.338.338,0,0,1,.411-.161A.445.445,0,0,1,604.159-184.463Z" transform="translate(-550.18 215.71)" fill="#90c5f5"/>
        <path id="Trazado_650176" data-name="Trazado 650176" d="M636.518-184.635a.317.317,0,0,1,.376.136A.342.342,0,0,1,636.518-184.635Z" transform="translate(-571.775 215.72)" fill="#8fc3f1"/>
        <path id="Trazado_650177" data-name="Trazado 650177" d="M637.882-184.136a.325.325,0,0,1,.4.168A.413.413,0,0,1,637.882-184.136Z" transform="translate(-572.685 215.383)" fill="#8fc3f1"/>
        <path id="Trazado_650178" data-name="Trazado 650178" d="M639.037-183.655a.283.283,0,0,1,.353.157C639.245-183.491,639.109-183.5,639.037-183.655Z" transform="translate(-573.456 215.063)" fill="#8fc3f1"/>
        <path id="Trazado_650179" data-name="Trazado 650179" d="M600.667-182.974a.271.271,0,0,1,.354-.164C600.949-182.984,600.809-182.977,600.667-182.974Z" transform="translate(-547.85 214.719)" fill="#90c5f5"/>
        <path id="Trazado_650180" data-name="Trazado 650180" d="M599.672-182.484a.269.269,0,0,1,.344-.176C599.952-182.5,599.815-182.486,599.672-182.484Z" transform="translate(-547.186 214.397)" fill="#90c5f5"/>
        <path id="Trazado_650181" data-name="Trazado 650181" d="M598.688-181.975c.052-.176.18-.21.341-.182C598.967-182,598.829-181.984,598.688-181.975Z" transform="translate(-546.529 214.062)" fill="#90c5f5"/>
        <path id="Trazado_650182" data-name="Trazado 650182" d="M605.6-184.98a.379.379,0,0,1,.425-.141A.433.433,0,0,1,605.6-184.98Z" transform="translate(-551.144 216.043)" fill="#90c5f5"/>
        <path id="Trazado_650183" data-name="Trazado 650183" d="M601.683-183.438c.065-.181.2-.2.361-.158A.371.371,0,0,1,601.683-183.438Z" transform="translate(-548.528 215.028)" fill="#90c5f5"/>
        <path id="Trazado_650184" data-name="Trazado 650184" d="M496.285-225.172q0,7.136,0,14.272a3.284,3.284,0,0,1-3.649,3.63q-14.276,0-28.552,0a3.3,3.3,0,0,1-3.65-3.643q0-14.272,0-28.545c0-2.362,1.276-3.653,3.622-3.654q14.317,0,28.635,0a3.241,3.241,0,0,1,3.595,3.584Q496.289-232.349,496.285-225.172ZM478.424-240.6H464.311c-1.244,0-1.363.119-1.363,1.377q0,14.027,0,28.054a3.1,3.1,0,0,0,.029.743c.215.85.925.618,1.5.641.644.026.4-.486.4-.778.015-4.012.007-8.023.013-12.035,0-1.059.451-1.523,1.509-1.537q2.241-.028,4.483,0c1.107.012,1.531.456,1.546,1.585.012.968,0,1.937,0,2.9,0,3.043,0,6.086.007,9.13,0,.247-.141.565.225.719a1.046,1.046,0,0,0,1.59-1.014q0-9.13,0-18.26c0-1.422.361-1.787,1.75-1.792q2.034-.007,4.068,0c1.385,0,1.753.38,1.753,1.783q0,9.047,0,18.094c0,1.208,0,1.15,1.231,1.228.844.053,1.052-.2,1.047-1.04-.035-7.912-.022-15.825-.02-23.738,0-1.515.334-1.844,1.865-1.848,1.3,0,2.6-.006,3.9,0,1.4.008,1.778.384,1.779,1.767q0,7.511,0,15.023,0,4.565.006,9.13c0,.225-.131.511.172.665a1.333,1.333,0,0,0,1.969-1.174q0-14.193,0-28.386c0-1.1-.142-1.242-1.241-1.242Q485.481-240.6,478.424-240.6Zm8.188,18.755v10.459c0,1.614,0,1.563,1.6,1.629.81.034.933-.267.931-.984-.024-7.139-.015-14.278-.015-21.417,0-1.69,0-1.65-1.681-1.7-.721-.021-.854.223-.849.888C486.629-229.264,486.612-225.556,486.612-221.849Zm-7.294,2.81v-7.554c0-1.768,0-1.735-1.771-1.768-.64-.012-.771.185-.768.79.024,5.34.014,10.681.014,16.021,0,1.82,0,1.8,1.854,1.783.564,0,.686-.2.682-.722C479.306-213.339,479.318-216.189,479.319-219.039ZM467.4-215.7v4.227c0,1.713,0,1.683,1.744,1.711.626.01.789-.167.783-.787-.032-3.066-.015-6.133-.015-9.2,0-1.939,0-1.923-1.916-1.872-.468.013-.612.147-.606.616C467.41-219.241,467.4-217.472,467.4-215.7Z" transform="translate(-454.262 254.736)" fill="#030302"/>
        <path id="Trazado_650185" data-name="Trazado 650185" d="M483.457-235.568q7.057,0,14.114,0c1.1,0,1.241.142,1.241,1.242q0,14.193,0,28.386a1.333,1.333,0,0,1-1.969,1.174c-.3-.154-.171-.44-.172-.665q-.013-4.565-.006-9.13,0-7.511,0-15.023c0-1.384-.376-1.76-1.779-1.767-1.3-.007-2.6,0-3.9,0-1.531,0-1.865.333-1.865,1.847,0,7.913-.015,15.825.02,23.738,0,.845-.2,1.094-1.047,1.041-1.228-.078-1.232-.02-1.232-1.228q0-9.047,0-18.094c0-1.4-.368-1.778-1.753-1.783q-2.034-.007-4.068,0c-1.389,0-1.749.37-1.75,1.792q0,9.13,0,18.26a1.046,1.046,0,0,1-1.59,1.014c-.367-.154-.224-.471-.225-.719-.01-3.043-.007-6.087-.007-9.13,0-.968.01-1.937,0-2.9-.014-1.129-.439-1.573-1.546-1.585q-2.241-.024-4.483,0c-1.057.014-1.507.478-1.509,1.537-.006,4.012,0,8.023-.013,12.035,0,.292.243.8-.4.778-.576-.023-1.287.209-1.5-.641a3.1,3.1,0,0,1-.029-.743q0-14.027,0-28.054c0-1.258.119-1.377,1.363-1.377Z" transform="translate(-459.296 249.7)" fill="#f2c17d"/>
        <path id="Trazado_650186" data-name="Trazado 650186" d="M539.107-203.286c0-3.708.017-7.416-.015-11.123-.006-.665.128-.909.849-.888,1.68.049,1.681.009,1.681,1.7,0,7.139-.009,14.278.015,21.417,0,.717-.121,1.018-.931.984-1.6-.066-1.6-.016-1.6-1.629Z" transform="translate(-506.757 236.173)" fill="#79d384"/>
        <path id="Trazado_650187" data-name="Trazado 650187" d="M512.117-189.445c0,2.85-.012,5.7.011,8.55,0,.526-.118.718-.682.722-1.855.013-1.855.037-1.855-1.783,0-5.34.01-10.681-.014-16.021,0-.605.128-.8.768-.79,1.77.033,1.771,0,1.771,1.768Z" transform="translate(-487.061 225.141)" fill="#e979a9"/>
        <path id="Trazado_650188" data-name="Trazado 650188" d="M481.347-172.622c0-1.768.015-3.536-.01-5.3-.006-.469.138-.6.606-.616,1.917-.051,1.916-.067,1.916,1.872,0,3.066-.017,6.133.015,9.2.006.62-.157.8-.783.787-1.744-.029-1.744,0-1.744-1.711Z" transform="translate(-468.214 211.653)" fill="#45a4f6"/>
      </g>
    </g>
  </g>
</svg>
