<svg xmlns="http://www.w3.org/2000/svg" xmlns:xlink="http://www.w3.org/1999/xlink" width="112" height="112" viewBox="0 0 112 112">
  <defs>
    <clipPath id="clip-path">
      <rect id="Rectángulo_309081" data-name="Rectángulo 309081" width="112" height="112" transform="translate(-0.344)" fill="none"/>
    </clipPath>
  </defs>
  <g id="Enmascarar_grupo_878511" data-name="Enmascarar grupo 878511" transform="translate(0.344)" clip-path="url(#clip-path)">
    <circle id="Elipse_8061" data-name="Elipse 8061" cx="48.5" cy="48.5" r="48.5" transform="translate(7.656 7)" fill="#faebcd"/>
    <g id="Grupo_991156" data-name="Grupo 991156" transform="translate(264.987 398.233)">
      <path id="Trazado_650259" data-name="Trazado 650259" d="M-248.143-356.188a1.409,1.409,0,0,1-1.209-1.6q.016-12.594.01-25.189A3.2,3.2,0,0,1-246-386.339q24.935-.01,49.871-.014a1.5,1.5,0,0,1,1.656,1.269c-.328,1.1-.615,1.324-1.769,1.324q-14.155,0-28.309-.015c-.679,0-.864.174-.849.851.046,2.035.059,4.073,0,6.107-.025.821.181,1.048,1.025,1.046q19.446-.043,38.893-.022c.285,0,.571-.029.856-.043,1.255.014,2.51.018,3.763.048.391.01.559-.092.555-.522-.018-2.2-.013-4.4-.005-6.592,0-.621-.3-.871-.9-.859-1.141.021-2.282.024-3.423.034l-5.139-.032c-1.15-.007-1.441-.229-1.745-1.334a1.511,1.511,0,0,1,1.75-1.261c2.868.032,5.736.005,8.6.014a3.211,3.211,0,0,1,3.431,3.446q.009,12.9-.011,25.807a1.69,1.69,0,0,0,.612,1.411,7.36,7.36,0,0,0,2.525,1.416,8.652,8.652,0,0,1,6.243,7.635,7.7,7.7,0,0,1-.876,4.657,6.753,6.753,0,0,0-.029,6.635,8.722,8.722,0,0,1-5.212,12.293,8.131,8.131,0,0,0-2.425,1.251c-.477.363-.529.647-.21,1.192,2.758,4.717,5.474,9.457,8.21,14.187a3.125,3.125,0,0,1,.563,2.024,2.665,2.665,0,0,1-3.723,2.13c-.554-.228-1.079-.524-1.62-.785-.9-.431-.893-.429-.948.6-.027.515-.047,1.032-.11,1.543a2.651,2.651,0,0,1-2.1,2.5,2.647,2.647,0,0,1-2.992-1.5q-2.156-3.71-4.294-7.431c-.873-1.511-1.754-3.017-2.611-4.537a1.013,1.013,0,0,0-.994-.626,7.83,7.83,0,0,1-3.694-.99,6.256,6.256,0,0,0-6.088-.037,8.293,8.293,0,0,1-3.77,1.034,1.031,1.031,0,0,0-.979.654q-3.459,6.03-6.952,12.039a2.626,2.626,0,0,1-3.239,1.4,2.451,2.451,0,0,1-1.792-2.094c-.105-.765-.141-1.54-.185-2.313-.026-.444-.165-.561-.581-.328-.473.264-.973.481-1.462.717a2.788,2.788,0,0,1-3.542-.408c-.878-.962-.929-2.108-.136-3.482q3.966-6.876,7.939-13.749c.153-.265.294-.536.517-.943h-33.8c-2.607,0-3.84-1.232-3.841-3.836q0-13.29-.009-26.581c0-.91.223-1.581,1.212-1.772,1.073.192,1.379.556,1.379,1.685q0,13.283,0,26.567c0,1.29.064,1.355,1.36,1.355h29.185a12.217,12.217,0,0,1-2.7-2.554,8.544,8.544,0,0,1-.815-9.307,6.073,6.073,0,0,0,.337-5.605,9.709,9.709,0,0,1-.864-7.594c-1.6,0-3.113-.031-4.627.011a1.492,1.492,0,0,1-1.751-1.252c.31-1.092.625-1.338,1.762-1.341q2.667-.008,5.335,0a1.1,1.1,0,0,0,.98-.371,8.4,8.4,0,0,1,4.038-2.649,6.388,6.388,0,0,0,4.436-4.509,8,8,0,0,1,2.895-4.172,8.491,8.491,0,0,1,9.449-.928,6.55,6.55,0,0,0,6.407,0,5.879,5.879,0,0,1,2.008-.733c.76-.1.61-.588.614-1.055,0-.614-.433-.566-.842-.566q-23.32,0-46.641-.011c-.684,0-.9.238-.893.9q.029,6.625,0,13.25c0,.618.187.865.84.85,1.634-.038,3.27-.017,4.9-.011,1.125,0,1.445.259,1.746,1.357a1.464,1.464,0,0,1-1.677,1.236c-1.633-.038-3.269-.009-4.9-.011-2.363,0-3.482-1.114-3.484-3.465q0-6.536,0-13.073c0-2.5,1.109-3.607,3.62-3.607h46.365c.23,0,.46-.009.688.006a2.846,2.846,0,0,1,2.823,2.876c-.016.946.278,1.358,1.183,1.394a3.362,3.362,0,0,1,.34.048,10,10,0,0,1,4.326,3.081c0-3.95,0-7.692,0-11.434,0-.358-.179-.425-.482-.42-1.287.025-2.574.038-3.861.056a4.215,4.215,0,0,0-.425-.042q-30.5,0-60.994-.014c-.575,0-.707.166-.705.721.021,4.874.014,9.748.011,14.622C-246.764-356.745-247.069-356.381-248.143-356.188Zm64.15,43.86L-177.524-301l.219-.053c.035-.617.064-1.235.1-1.851.148-2.26,1.179-3.18,3.414-3.051l2.652,1.265.143-.16-7.92-13.719A9.026,9.026,0,0,1-184-313.093C-184.613-312.831-184.142-312.582-183.993-312.327Zm-26.586-5.332-7.527,12.945a7.913,7.913,0,0,0,1.965-.733q2.888-1.391,4.17,1.531c.083.977.167,1.955.255,2.992.156-.1.221-.122.246-.164q3.3-5.686,6.594-11.372c.232-.4.1-.54-.264-.685a8.4,8.4,0,0,1-2.583-1.672,9.365,9.365,0,0,1-2.335-3.557A1.261,1.261,0,0,0-210.579-317.66Zm-5.707-20.908a9.016,9.016,0,0,1-1.059,4.146,6.172,6.172,0,0,0,3.744,8.973,8.826,8.826,0,0,1,5.9,5.884,6.2,6.2,0,0,0,9.045,3.733,8.747,8.747,0,0,1,8.176-.055c4,1.95,7.746.4,9.192-3.814a8.724,8.724,0,0,1,5.743-5.714c4.135-1.395,5.736-5.228,3.8-9.138a8.714,8.714,0,0,1,.008-8.171,6.184,6.184,0,0,0-3.742-9.1,8.858,8.858,0,0,1-5.845-5.837c-1.375-4.053-5.185-5.666-9.009-3.778a8.822,8.822,0,0,1-8.409-.034,6.389,6.389,0,0,0-2.794-.763,6.192,6.192,0,0,0-6.139,4.463,8.494,8.494,0,0,1-5.777,5.882,6.321,6.321,0,0,0-3.789,9.3A7.882,7.882,0,0,1-216.286-338.568ZM-237.372-375.8c2.9,0,5.793-.014,8.69.012.566,0,.73-.168.723-.727q-.043-3.268,0-6.537c.008-.556-.143-.726-.714-.724q-8.517.03-17.035,0c-.778,0-1.076.285-1.065,1.065.031,2.035.035,4.072,0,6.107-.012.633.144.827.8.818C-243.108-375.817-240.24-375.8-237.372-375.8Z" transform="translate(0)" fill="#030303"/>
      <path id="Trazado_650260" data-name="Trazado 650260" d="M-224.329-324.9a1.492,1.492,0,0,0,1.751,1.252c1.515-.042,3.032-.011,4.627-.011a9.709,9.709,0,0,0,.864,7.594,6.073,6.073,0,0,1-.337,5.605,8.544,8.544,0,0,0,.815,9.308,12.218,12.218,0,0,0,2.7,2.554H-243.1c-1.3,0-1.36-.065-1.36-1.355q0-13.283,0-26.567c0-1.129-.306-1.493-1.379-1.685v-3.017c1.074-.194,1.378-.558,1.379-1.687,0-4.874.01-9.748-.011-14.622,0-.555.13-.721.705-.721q30.5.023,60.994.014a4.217,4.217,0,0,1,.425.042q.006,4.358.012,8.717a3.351,3.351,0,0,0-.34-.048c-.9-.037-1.2-.448-1.183-1.394a2.846,2.846,0,0,0-2.823-2.876c-.229-.014-.459-.005-.688-.005h-46.365c-2.511,0-3.62,1.1-3.62,3.607q0,6.536,0,13.073c0,2.351,1.12,3.461,3.484,3.465,1.634,0,3.269-.027,4.9.011a1.464,1.464,0,0,0,1.677-1.235Zm-1.958,18.153c1.258,0,2.517.011,3.775,0,1-.011,1.6-.5,1.606-1.279s-.6-1.3-1.58-1.3q-3.775-.017-7.551,0c-1.014,0-1.583.479-1.591,1.279s.552,1.289,1.566,1.3C-228.8-306.733-227.545-306.746-226.286-306.745Zm0-3.977c1.287,0,2.574.012,3.861,0,.926-.012,1.511-.521,1.516-1.273a1.343,1.343,0,0,0-1.5-1.3q-3.861-.025-7.723,0c-.939.006-1.5.513-1.5,1.288s.538,1.276,1.484,1.289C-228.857-310.709-227.569-310.722-226.282-310.722Zm-.032-3.974c1.316,0,2.632.012,3.948,0a1.313,1.313,0,0,0,1.461-1.235,1.334,1.334,0,0,0-1.465-1.338q-3.9-.029-7.81,0a1.3,1.3,0,0,0-1.447,1.344c.025.75.557,1.22,1.451,1.231C-228.89-314.684-227.6-314.7-226.315-314.7Zm-7.147-1.243a1.336,1.336,0,0,0-1.286-1.334,1.291,1.291,0,0,0-1.3,1.217,1.244,1.244,0,0,0,1.223,1.35A1.287,1.287,0,0,0-233.461-315.939Zm0,3.921a1.324,1.324,0,0,0-1.334-1.28,1.273,1.273,0,0,0-1.25,1.342,1.242,1.242,0,0,0,1.27,1.221A1.286,1.286,0,0,0-233.461-312.018Zm-1.341,2.695a1.261,1.261,0,0,0-1.243,1.342,1.248,1.248,0,0,0,1.362,1.212,1.29,1.29,0,0,0,1.222-1.288A1.311,1.311,0,0,0-234.8-309.323Z" transform="translate(-2.304 -24.967)" fill="#eeebeb"/>
      <path id="Trazado_650261" data-name="Trazado 650261" d="M-139.113-373.441c-.285.015-.571.043-.856.043q-19.447,0-38.893.022c-.844,0-1.05-.225-1.025-1.046.062-2.034.05-4.072,0-6.107-.015-.677.17-.853.849-.851q14.155.035,28.309.015c1.154,0,1.441-.221,1.769-1.324l2.951-.01c.3,1.106.594,1.328,1.745,1.335l5.139.032Q-139.116-377.387-139.113-373.441Z" transform="translate(-45.517 -2.395)" fill="#5abbee"/>
      <path id="Trazado_650262" data-name="Trazado 650262" d="M-156.909-292.731a7.882,7.882,0,0,0-.957-4.025,6.321,6.321,0,0,1,3.789-9.3,8.494,8.494,0,0,0,5.777-5.882,6.192,6.192,0,0,1,6.139-4.463,6.39,6.39,0,0,1,2.794.763,8.822,8.822,0,0,0,8.409.034c3.824-1.888,7.634-.275,9.009,3.778a8.858,8.858,0,0,0,5.845,5.838,6.184,6.184,0,0,1,3.742,9.1,8.714,8.714,0,0,0-.008,8.171c1.94,3.91.338,7.743-3.8,9.138a8.724,8.724,0,0,0-5.743,5.714c-1.446,4.215-5.191,5.764-9.192,3.814a8.747,8.747,0,0,0-8.176.055,6.2,6.2,0,0,1-9.045-3.733,8.826,8.826,0,0,0-5.9-5.884,6.172,6.172,0,0,1-3.744-8.973A9.016,9.016,0,0,0-156.909-292.731Zm21.744-19.048a19.025,19.025,0,0,0-18.985,18.986,19.081,19.081,0,0,0,18.989,19.01,19.071,19.071,0,0,0,19.023-19.058A19.011,19.011,0,0,0-135.166-311.779Z" transform="translate(-59.377 -45.838)" fill="#e76d91"/>
      <path id="Trazado_650263" data-name="Trazado 650263" d="M-203.313-311.555l-2.96.016c-.3-1.1-.621-1.354-1.746-1.358-1.635-.006-3.271-.027-4.9.011-.653.015-.842-.232-.839-.85q.024-6.625,0-13.25c0-.664.209-.9.893-.9q23.32.022,46.641.011c.408,0,.846-.048.842.566,0,.466.146.958-.614,1.055a5.879,5.879,0,0,0-2.008.733,6.55,6.55,0,0,1-6.407,0,8.491,8.491,0,0,0-9.449.928,8,8,0,0,0-2.895,4.172,6.388,6.388,0,0,1-4.436,4.509,8.4,8.4,0,0,0-4.038,2.649,1.1,1.1,0,0,1-.98.371q-2.667-.011-5.335,0C-202.688-312.893-203-312.647-203.313-311.555Z" transform="translate(-23.32 -38.31)" fill="#65dbc5"/>
      <path id="Trazado_650264" data-name="Trazado 650264" d="M-232.474-370.887c-2.868,0-5.736-.021-8.6.017-.658.009-.814-.186-.8-.818.04-2.035.035-4.072,0-6.107-.012-.779.286-1.067,1.065-1.065q8.518.028,17.035,0c.571,0,.721.167.714.724q-.045,3.268,0,6.537c.007.559-.157.732-.723.727C-226.681-370.9-229.577-370.887-232.474-370.887Zm-4.025-2.677a1.351,1.351,0,0,0,1.3-1.325,1.287,1.287,0,0,0-1.354-1.237,1.227,1.227,0,0,0-1.235,1.25A1.311,1.311,0,0,0-236.5-373.564Zm7.944,0a1.335,1.335,0,0,0,1.3-1.334,1.289,1.289,0,0,0-1.291-1.231,1.232,1.232,0,0,0-1.282,1.219A1.3,1.3,0,0,0-228.554-373.566Zm-2.672-1.308a1.289,1.289,0,0,0-1.356-1.252,1.218,1.218,0,0,0-1.216,1.278,1.289,1.289,0,0,0,1.244,1.282A1.347,1.347,0,0,0-231.226-374.874Z" transform="translate(-4.898 -4.909)" fill="#367adc"/>
      <path id="Trazado_650265" data-name="Trazado 650265" d="M-152.579-173.358q-1.279-2.921-4.17-1.531a7.915,7.915,0,0,1-1.965.733l7.527-12.945a9.589,9.589,0,0,0,3.34,4.127c.492.336.583.63.26,1.167-.955,1.587-1.828,3.223-2.783,4.81A35.2,35.2,0,0,1-152.579-173.358Z" transform="translate(-59.392 -130.559)" fill="#e76d91"/>
      <path id="Trazado_650266" data-name="Trazado 650266" d="M-49.561-171.519c-2.234-.129-3.266.791-3.414,3.051-.04.617-.07,1.234-.1,1.851l-.219.053L-59.767-177.9a8.881,8.881,0,0,0,4.049-2.934c.525-.629.708-.335.98.136,1.043,1.808,2.117,3.6,3.125,5.425A36.848,36.848,0,0,1-49.561-171.519Z" transform="translate(-124.226 -134.433)" fill="#e76d91"/>
      <path id="Trazado_650267" data-name="Trazado 650267" d="M-61.663-339.478q-.006-4.358-.012-8.717c1.287-.018,2.574-.032,3.861-.056.3-.006.482.062.482.42-.007,3.742,0,7.484,0,11.434A10,10,0,0,0-61.663-339.478Z" transform="translate(-122.975 -24.967)" fill="#c7c1be"/>
      <path id="Trazado_650268" data-name="Trazado 650268" d="M-61.629-370.91q0-3.946-.008-7.891c1.141-.01,2.282-.013,3.423-.034.6-.011.9.238.9.859-.008,2.2-.012,4.4.005,6.593,0,.43-.165.532-.555.522C-59.12-370.892-60.375-370.9-61.629-370.91Z" transform="translate(-123 -4.927)" fill="#489be5"/>
      <path id="Trazado_650269" data-name="Trazado 650269" d="M-50.156-177.114a36.845,36.845,0,0,0-2.052-3.749c-1.008-1.827-2.083-3.617-3.125-5.425-.272-.471-.454-.765-.98-.136a8.881,8.881,0,0,1-4.049,2.934c-.15-.254-.621-.5,0-.765a9.026,9.026,0,0,0,5.085-5.472l7.92,13.719-.143.16Z" transform="translate(-123.631 -128.838)" fill="#da3e6e"/>
      <path id="Trazado_650270" data-name="Trazado 650270" d="M-140.92-174.717a35.2,35.2,0,0,0,2.209-3.638c.955-1.587,1.828-3.224,2.783-4.81.323-.537.232-.831-.26-1.167a9.589,9.589,0,0,1-3.34-4.127,1.26,1.26,0,0,1,.521-.715,9.366,9.366,0,0,0,2.335,3.557,8.4,8.4,0,0,0,2.583,1.672c.361.144.5.286.264.685q-3.31,5.678-6.594,11.372c-.025.042-.09.062-.246.164C-140.753-172.762-140.837-173.74-140.92-174.717Z" transform="translate(-71.051 -129.199)" fill="#da3e6e"/>
      <path id="Trazado_650271" data-name="Trazado 650271" d="M-199.277-232.79c-1.259,0-2.517.013-3.775,0-1.014-.013-1.574-.5-1.566-1.3s.577-1.275,1.591-1.279q3.776-.015,7.551,0c.983,0,1.589.523,1.58,1.3s-.607,1.267-1.606,1.279C-196.76-232.779-198.019-232.789-199.277-232.79Z" transform="translate(-29.313 -98.923)" fill="#060606"/>
      <path id="Trazado_650272" data-name="Trazado 650272" d="M-199.274-244.325c-1.287,0-2.574.013-3.861,0-.946-.013-1.491-.506-1.484-1.289s.562-1.282,1.5-1.288q3.862-.023,7.723,0a1.343,1.343,0,0,1,1.5,1.3c-.006.753-.59,1.261-1.516,1.273C-196.7-244.314-197.986-244.325-199.274-244.325Z" transform="translate(-29.313 -91.364)" fill="#060606"/>
      <path id="Trazado_650273" data-name="Trazado 650273" d="M-199.306-255.85c-1.287,0-2.575.012-3.862,0-.894-.011-1.426-.481-1.451-1.231a1.3,1.3,0,0,1,1.447-1.344q3.9-.029,7.81,0a1.334,1.334,0,0,1,1.465,1.338,1.313,1.313,0,0,1-1.461,1.235C-196.674-255.838-197.99-255.85-199.306-255.85Z" transform="translate(-29.312 -83.813)" fill="#060606"/>
      <path id="Trazado_650274" data-name="Trazado 650274" d="M-214.849-257.064a1.287,1.287,0,0,1-1.36,1.233,1.244,1.244,0,0,1-1.223-1.35,1.291,1.291,0,0,1,1.3-1.217A1.336,1.336,0,0,1-214.849-257.064Z" transform="translate(-20.916 -83.843)" fill="#060606"/>
      <path id="Trazado_650275" data-name="Trazado 650275" d="M-214.847-245.589a1.286,1.286,0,0,1-1.314,1.283,1.242,1.242,0,0,1-1.27-1.221,1.273,1.273,0,0,1,1.25-1.342A1.324,1.324,0,0,1-214.847-245.589Z" transform="translate(-20.918 -91.396)" fill="#060606"/>
      <path id="Trazado_650276" data-name="Trazado 650276" d="M-216.19-235.339a1.311,1.311,0,0,1,1.341,1.266,1.29,1.29,0,0,1-1.222,1.288A1.248,1.248,0,0,1-217.433-234,1.261,1.261,0,0,1-216.19-235.339Z" transform="translate(-20.916 -98.951)" fill="#060606"/>
      <path id="Trazado_650277" data-name="Trazado 650277" d="M-126.448-303a19.01,19.01,0,0,1,19.027,18.939A19.071,19.071,0,0,1-126.444-265a19.081,19.081,0,0,1-18.989-19.01A19.025,19.025,0,0,1-126.448-303ZM-110-283.976a16.429,16.429,0,0,0-16.364-16.441,16.442,16.442,0,0,0-16.484,16.325,16.492,16.492,0,0,0,16.412,16.509A16.482,16.482,0,0,0-110-283.976Z" transform="translate(-68.094 -54.619)" fill="#040302"/>
      <path id="Trazado_650278" data-name="Trazado 650278" d="M-228.723-368.363a1.311,1.311,0,0,1-1.29-1.312,1.227,1.227,0,0,1,1.235-1.25,1.287,1.287,0,0,1,1.354,1.237A1.351,1.351,0,0,1-228.723-368.363Z" transform="translate(-12.674 -10.11)" fill="#030303"/>
      <path id="Trazado_650279" data-name="Trazado 650279" d="M-205.649-368.374a1.3,1.3,0,0,1-1.273-1.346,1.232,1.232,0,0,1,1.282-1.219,1.289,1.289,0,0,1,1.291,1.231A1.335,1.335,0,0,1-205.649-368.374Z" transform="translate(-27.803 -10.101)" fill="#030303"/>
      <path id="Trazado_650280" data-name="Trazado 650280" d="M-215.864-369.675a1.347,1.347,0,0,1-1.328,1.307,1.289,1.289,0,0,1-1.244-1.282,1.218,1.218,0,0,1,1.216-1.278A1.289,1.289,0,0,1-215.864-369.675Z" transform="translate(-20.26 -10.108)" fill="#030303"/>
      <path id="Trazado_650281" data-name="Trazado 650281" d="M-105.1-279.071a16.482,16.482,0,0,1-16.436,16.393,16.492,16.492,0,0,1-16.412-16.509,16.442,16.442,0,0,1,16.484-16.325A16.429,16.429,0,0,1-105.1-279.071Zm-16.357-14.819a14.785,14.785,0,0,0-14.822,14.61A14.753,14.753,0,0,0-121.8-264.347a14.746,14.746,0,0,0,15.039-14.633A14.784,14.784,0,0,0-121.453-293.891Z" transform="translate(-73.001 -59.524)" fill="#eee195"/>
      <path id="Trazado_650282" data-name="Trazado 650282" d="M-118.282-290.81a14.784,14.784,0,0,1,14.7,14.911,14.747,14.747,0,0,1-15.039,14.633A14.753,14.753,0,0,1-133.1-276.2,14.785,14.785,0,0,1-118.282-290.81Zm12.113,14.834a12.2,12.2,0,0,0-12.126-12.253,12.194,12.194,0,0,0-12.228,12.149,12.167,12.167,0,0,0,12.037,12.234A12.16,12.16,0,0,0-106.169-275.976Z" transform="translate(-76.171 -62.604)" fill="#040302"/>
      <path id="Trazado_650283" data-name="Trazado 650283" d="M-101.261-271.071a12.16,12.16,0,0,1-12.316,12.13,12.167,12.167,0,0,1-12.037-12.234,12.194,12.194,0,0,1,12.228-12.149A12.2,12.2,0,0,1-101.261-271.071Zm-9.392-1.732c0-1.662.016-3.323-.006-4.985a2.708,2.708,0,0,0-1.547-2.581,2.712,2.712,0,0,0-2.92.268c-.608.429-1.222.852-1.814,1.3a2.715,2.715,0,0,0,.175,4.609,1.009,1.009,0,0,1,.553,1.019q-.029,2.664,0,5.329c0,.465-.05.752-.583.952a2.665,2.665,0,0,0-1.731,3.013,2.709,2.709,0,0,0,2.541,2.288c1.688.071,3.382.068,5.07,0a2.712,2.712,0,0,0,2.555-2.271,2.652,2.652,0,0,0-1.7-3.026.808.808,0,0,1-.6-.937C-110.636-269.479-110.651-271.141-110.653-272.8Z" transform="translate(-81.08 -67.509)" fill="#eeb053"/>
      <path id="Trazado_650284" data-name="Trazado 650284" d="M-97.246-267.767c0,1.662.016,3.324-.008,4.985a.808.808,0,0,0,.6.937,2.652,2.652,0,0,1,1.7,3.026,2.712,2.712,0,0,1-2.555,2.271c-1.688.063-3.383.067-5.07,0a2.709,2.709,0,0,1-2.541-2.288,2.665,2.665,0,0,1,1.731-3.014c.533-.2.587-.488.583-.952q-.026-2.664,0-5.329a1.009,1.009,0,0,0-.553-1.019,2.715,2.715,0,0,1-.175-4.609c.592-.451,1.205-.874,1.814-1.3a2.712,2.712,0,0,1,2.92-.268,2.708,2.708,0,0,1,1.547,2.581C-97.23-271.09-97.246-269.428-97.246-267.767Zm-2.563,1.118c0-1.919.007-3.839-.008-5.758,0-.276.149-.869-.489-.5a18.921,18.921,0,0,0-1.613,1.136c-.11.08-.239.181-.147.354.065.121.183.094.3.109,1.347.174,1.515.363,1.517,1.734q.006,4,0,7.993c0,1.76-.092,1.86-1.838,2.057-.181.02-.473-.041-.431.255.038.263.321.176.505.177,1.289.007,2.579.009,3.868,0,.209,0,.568.114.586-.17.023-.372-.36-.247-.585-.26-1.362-.079-1.658-.373-1.661-1.712C-99.812-263.039-99.809-264.843-99.809-266.648Z" transform="translate(-94.486 -72.545)" fill="#050302"/>
      <path id="Trazado_650285" data-name="Trazado 650285" d="M-94.811-261.677c0,1.805,0,3.61,0,5.415,0,1.339.3,1.634,1.661,1.712.225.013.608-.112.585.26-.018.283-.376.168-.586.17-1.289.011-2.579.009-3.868,0-.184,0-.468.087-.505-.177-.042-.3.251-.235.431-.255,1.746-.2,1.838-.3,1.838-2.057q0-4,0-7.993c0-1.371-.17-1.56-1.517-1.734-.113-.014-.231.012-.3-.109-.092-.173.037-.274.147-.354a18.917,18.917,0,0,1,1.613-1.136c.639-.371.487.222.489.5C-94.8-265.516-94.811-263.6-94.811-261.677Z" transform="translate(-99.484 -77.516)" fill="#c7c1be"/>
    </g>
  </g>
</svg>
