<svg xmlns="http://www.w3.org/2000/svg" xmlns:xlink="http://www.w3.org/1999/xlink" width="112" height="112" viewBox="0 0 112 112">
  <defs>
    <clipPath id="clip-path">
      <rect id="Rectángulo_309080" data-name="Rectángulo 309080" width="112" height="112" transform="translate(-0.344)" fill="none"/>
    </clipPath>
  </defs>
  <g id="Enmascarar_grupo_878510" data-name="Enmascarar grupo 878510" transform="translate(0.344)" clip-path="url(#clip-path)">
    <circle id="Elipse_8060" data-name="Elipse 8060" cx="48.5" cy="48.5" r="48.5" transform="translate(7.656 7)" fill="#faebcd"/>
    <g id="Grupo_991157" data-name="Grupo 991157" transform="translate(156.64 789.642)">
      <path id="Trazado_650286" data-name="Trazado 650286" d="M30.447-662.386a14.79,14.79,0,0,0-3.288-.167,1.49,1.49,0,0,0-1.71-1.2c-5.906.024-11.813.012-17.719.012-2.193,0-2.763-.566-2.763-2.741q0-26.532,0-53.064c0-.25-.006-.5.008-.748a1.931,1.931,0,0,1,1.938-1.973c.663-.041,1.334.028,1.995-.025.55-.044.634.184.626.665-.027,1.58-.011,3.16-.01,4.741,0,3.267,1.749,5,5.045,5.007,4.686,0,9.373-.022,14.059.013A5.234,5.234,0,0,0,32.8-713.5c.272.2.189.5.189.763q0,3.882-.005,7.765a4.131,4.131,0,0,0-1.8-.541c-1.55.018-3.1-.018-4.652.013a3.023,3.023,0,0,0-3.017,3.019q-.04,6.893,0,13.786a3.017,3.017,0,0,0,3.007,3.024c1.356.037,2.713,0,4.07.021a4.819,4.819,0,0,0,2.175-.4c.317.207.222.534.224.822.008,1.23,0,2.461,0,3.691-.3.011-.608.031-.911.031q-10.722,0-21.444,0c-1.034,0-1.616.461-1.618,1.255s.578,1.24,1.616,1.241q6.525,0,13.049,0c3.1,0,6.2.018,9.307.028v3.086c-.3.009-.608.024-.912.024q-10.763,0-21.527,0c-.958,0-1.534.483-1.533,1.25s.573,1.243,1.533,1.244c3.269,0,6.538,0,9.808,0q6.316.008,12.631.026c0,2.258-.023,4.516.013,6.773a5.715,5.715,0,0,1-.515,2.8C30.823-663.658,30.63-663.527,30.447-662.386ZM20.006-695.5c0-2.245.009-4.491,0-6.736a3.093,3.093,0,0,0-3.291-3.27q-2.2-.014-4.408,0a3.082,3.082,0,0,0-3.281,3.274q-.012,6.653,0,13.306a3.067,3.067,0,0,0,3.2,3.265c1.5.022,2.995.018,4.492,0a3.1,3.1,0,0,0,3.288-3.354C20.012-691.18,20.007-693.343,20.006-695.5Zm1.714,25.281c-1.217,0-2.434-.007-3.65,0-.918.007-1.455.457-1.471,1.208a1.268,1.268,0,0,0,1.415,1.283q3.733.021,7.467,0a1.236,1.236,0,0,0,1.377-1.308c-.027-.736-.531-1.173-1.4-1.182C24.21-670.233,22.965-670.224,21.721-670.224Z" transform="translate(-98.685 -35.799)" fill="#eaf4fc"/>
      <path id="Trazado_650287" data-name="Trazado 650287" d="M-134.793-755.744a1.306,1.306,0,0,1-1.252-1.471c.007-.887-.029-1.779.06-2.659a4.26,4.26,0,0,1,4.169-3.885q7.906-.06,15.812,0a4.31,4.31,0,0,1,4.186,4.327q.047,3.161,0,6.323c-.008.538.13.7.68.688a12.9,12.9,0,0,1,2.738.084,4.394,4.394,0,0,1,3.63,4.08c.017.248.021.5.021.748q0,26.834.008,53.668a4.856,4.856,0,0,1-1.092,3.393,4.343,4.343,0,0,1-3.369,1.544q-14.73.017-29.46,0a4.406,4.406,0,0,1-4.436-4.451q-.017-27.292,0-54.583a4.446,4.446,0,0,1,4.492-4.491c1.274-.033,2.55-.027,3.825-.039,1.072.369,1.236.59,1.24,1.752.006,2.131-.007,4.261.005,6.392.009,1.583.693,2.275,2.283,2.288,2.1.018,4.207.012,6.31,0,1.824-.008,3.649-.035,5.473-.053a19.535,19.535,0,0,0,3.314.024,1.838,1.838,0,0,0,1.845-1.951q.024-7.641,0-15.283a1.862,1.862,0,0,0-1.912-1.972c-1.078-.028-2.158.01-3.237.019-4.061-.009-8.122-.031-12.183-.017a1.825,1.825,0,0,0-1.874,1.823c-.051.715-.011,1.436-.026,2.153C-133.568-756.273-133.8-756-134.793-755.744Zm22.11,14.473a4.629,4.629,0,0,1-3.626,1.732c-5.075.008-10.151.042-15.226-.013a4.356,4.356,0,0,1-4.511-4.612c-.018-1.22,0-2.44,0-3.66,0-2.118,0-2.118-2.088-2.11-1.761.007-2.473.712-2.473,2.463q0,26.786,0,53.572c0,1.821.685,2.5,2.508,2.5q12.106,0,24.212,0c.248,0,.5-.021.746-.032,1.3.011,2.606.053,3.907.024a1.917,1.917,0,0,0,1.974-1.933c.015-.221.011-.444.011-.665q0-26.664,0-53.327c0-.194,0-.389-.006-.582a1.954,1.954,0,0,0-1.987-2.016c-.581-.032-1.168.03-1.746-.019-.621-.053-.866.1-.839.794.06,1.523-.015,3.051.029,4.575A5.509,5.509,0,0,1-112.682-741.271Z" transform="translate(0 -8.145)" fill="#030404"/>
      <path id="Trazado_650288" data-name="Trazado 650288" d="M25.447-690.018c.183-1.141.376-1.272,2.045-1.391,1.08.012,2.16.032,3.24.035,1.934,0,2.59-.654,2.59-2.588q0-24.738,0-49.477c0-1.441.011-2.883,0-4.324a1.988,1.988,0,0,0-2.117-2.146c-.582-.019-1.167.028-1.746-.013-.534-.038-.724.117-.709.685.04,1.523-.015,3.049.022,4.573a5.627,5.627,0,0,1-.966,3.53,5.234,5.234,0,0,1-4.177,1.636c-4.686-.036-9.372-.011-14.059-.013-3.3,0-5.044-1.74-5.045-5.007,0-1.58-.017-3.161.01-4.741.008-.481-.076-.709-.626-.665-.661.053-1.332-.017-1.995.025a1.931,1.931,0,0,0-1.938,1.973c-.014.249-.008.5-.008.748q0,26.532,0,53.064c0,2.176.571,2.741,2.763,2.741,5.906,0,11.813.012,17.719-.012a1.49,1.49,0,0,1,1.71,1.2c-.327,1.106-.6,1.312-1.777,1.312q-9.072,0-18.145,0a4.443,4.443,0,0,1-4.767-4.708q-.016-27.045,0-54.091a4.461,4.461,0,0,1,4.744-4.741c.743-.007,1.754.252,2.159-.127.475-.444.133-1.462.144-2.23.021-1.47,0-2.94.008-4.41a4.4,4.4,0,0,1,4.631-4.572q7.491-.011,14.982,0a4.39,4.39,0,0,1,4.617,4.59q.044,3.037-.006,6.075c-.008.54.135.705.684.692a13.062,13.062,0,0,1,2.656.073,4.4,4.4,0,0,1,3.725,4.347c.025,2.746.007,5.492.007,8.239q0,22.885,0,45.769c0,3.354-1.757,5.1-5.138,5.1-1.221,0-2.442-.015-3.662.005A1.381,1.381,0,0,1,25.447-690.018Zm-4.282-71.21q-5.94-.015-11.881-.027c-1.554,0-2.26.721-2.261,2.3q0,7.311,0,14.622c0,1.624.686,2.3,2.343,2.3q4.9.01,9.805,0c.662,0,1.325-.037,1.987-.056.857.021,1.713.057,2.57.06,1.909.006,2.536-.626,2.537-2.541q0-7.069,0-14.138c0-.222.007-.445-.013-.665a1.892,1.892,0,0,0-2.012-1.883C23.216-761.267,22.19-761.238,21.165-761.228Z" transform="translate(-93.686 -8.167)" fill="#040404"/>
      <path id="Trazado_650289" data-name="Trazado 650289" d="M-102.855-737.051c-1.824.018-3.649.045-5.473.053-2.1.009-4.207.015-6.31,0-1.59-.014-2.274-.705-2.283-2.288-.012-2.13,0-4.261-.005-6.392,0-1.162-.168-1.383-1.24-1.752l-.007-3.276c.994-.251,1.224-.529,1.246-1.547.015-.718-.025-1.439.026-2.153a1.825,1.825,0,0,1,1.874-1.823c4.061-.014,8.122.008,12.183.017a2.973,2.973,0,0,1,.5,1.293q-.023,5.373-.037,10.746c-1.113-2.912-2.231-5.822-3.335-8.738-.276-.73-.7-1.29-1.533-1.3-.866-.014-1.318.536-1.6,1.313-.713,1.944-1.462,3.875-2.2,5.811-.787,2.064-1.586,4.123-2.361,6.192a1.271,1.271,0,0,0,.6,1.761,1.271,1.271,0,0,0,1.714-.849c.223-.535.438-1.076.614-1.627a.675.675,0,0,1,.785-.525c1.162.03,2.326.01,3.489.01,1.875,0,1.886,0,2.548,1.794.242.656.535,1.221,1.316,1.32A3.093,3.093,0,0,1-102.855-737.051Z" transform="translate(-16.62 -13.18)" fill="#95c5f6"/>
      <path id="Trazado_650290" data-name="Trazado 650290" d="M-19.1-604.01c0-.857-.019-1.715.006-2.572A1.293,1.293,0,0,1-17.8-608a1.286,1.286,0,0,1,1.208,1.414q.033,2.572,0,5.145a1.262,1.262,0,0,1-1.292,1.406,1.271,1.271,0,0,1-1.208-1.408C-19.118-602.295-19.1-603.153-19.1-604.01Z" transform="translate(-82.643 -111.975)" fill="#0d0d0d"/>
      <path id="Trazado_650291" data-name="Trazado 650291" d="M-16.593-745.181c0,.857.02,1.715-.005,2.572-.027.908-.522,1.423-1.287,1.4A1.236,1.236,0,0,1-19.1-742.6q-.034-2.572,0-5.144a1.286,1.286,0,0,1,1.285-1.419,1.293,1.293,0,0,1,1.214,1.409C-16.574-746.9-16.594-746.038-16.593-745.181Z" transform="translate(-82.636 -17.895)" fill="#0d0d0d"/>
      <path id="Trazado_650292" data-name="Trazado 650292" d="M-19.1-709.883c0-.858-.019-1.716.006-2.572a1.265,1.265,0,0,1,1.222-1.392c.751-.017,1.267.519,1.278,1.42q.033,2.572,0,5.145a1.28,1.28,0,0,1-1.221,1.4,1.3,1.3,0,0,1-1.279-1.428C-19.118-708.167-19.1-709.025-19.1-709.883Z" transform="translate(-82.643 -41.43)" fill="#0d0d0d"/>
      <path id="Trazado_650293" data-name="Trazado 650293" d="M-16.594-568.656c0,.857.02,1.715-.006,2.572a1.29,1.29,0,0,1-1.231,1.393,1.267,1.267,0,0,1-1.264-1.356q-.042-2.613,0-5.227a1.223,1.223,0,0,1,1.23-1.373c.768-.011,1.245.5,1.27,1.419C-16.575-570.372-16.594-569.514-16.594-568.656Z" transform="translate(-82.636 -135.534)" fill="#0d0d0d"/>
      <path id="Trazado_650294" data-name="Trazado 650294" d="M-19.1-674.521c0-.829-.013-1.659,0-2.488.019-1,.466-1.506,1.273-1.495.772.01,1.222.508,1.233,1.45q.029,2.53,0,5.059c-.011.9-.523,1.439-1.27,1.427s-1.213-.552-1.234-1.465C-19.114-672.861-19.1-673.691-19.1-674.521Z" transform="translate(-82.644 -64.986)" fill="#0d0d0d"/>
      <path id="Trazado_650295" data-name="Trazado 650295" d="M-19.1-639.336c0-.829-.018-1.659,0-2.488.024-.9.523-1.439,1.27-1.427a1.25,1.25,0,0,1,1.229,1.381c.024,1.741.028,3.484,0,5.225a1.2,1.2,0,0,1-1.264,1.33c-.742-.01-1.2-.5-1.232-1.367S-19.1-638.451-19.1-639.336Z" transform="translate(-82.641 -88.48)" fill="#0d0d0d"/>
      <path id="Trazado_650296" data-name="Trazado 650296" d="M-19.033-773.457a13.369,13.369,0,0,1,.01-1.486,1.133,1.133,0,0,1,1.247-1.07A1.1,1.1,0,0,1-16.6-774.96a26.224,26.224,0,0,1,.009,2.973,1.1,1.1,0,0,1-1.208,1.1,1.121,1.121,0,0,1-1.226-1.084,13.622,13.622,0,0,1-.01-1.486Z" transform="translate(-82.678)" fill="#0d0d0d"/>
      <path id="Trazado_650297" data-name="Trazado 650297" d="M-16.608-534.775a14.242,14.242,0,0,1-.01,1.486A1.135,1.135,0,0,1-17.85-532.2a1.123,1.123,0,0,1-1.207-1.116,27.317,27.317,0,0,1,0-2.891,1.119,1.119,0,0,1,1.194-1.122,1.163,1.163,0,0,1,1.257,1.149c.045.464.008.936.008,1.4Z" transform="translate(-82.65 -159.071)" fill="#0d0d0d"/>
      <path id="Trazado_650298" data-name="Trazado 650298" d="M87.807-713.5a5.627,5.627,0,0,0,.966-3.53c-.037-1.524.018-3.05-.022-4.573-.015-.568.175-.724.709-.685.579.042,1.164-.006,1.746.013a1.988,1.988,0,0,1,2.117,2.146c.014,1.441,0,2.883,0,4.324q0,24.738,0,49.477c0,1.934-.656,2.593-2.59,2.588-1.08,0-2.16-.023-3.24-.035a5.715,5.715,0,0,0,.515-2.8c-.036-2.257-.012-4.515-.013-6.773a1.246,1.246,0,0,0,1.249-1.273c0-.773-.509-1.166-1.249-1.277v-3.086a1.241,1.241,0,0,0,1.25-1.27c0-.785-.533-1.15-1.25-1.291,0-1.23.005-2.461,0-3.691,0-.288.093-.615-.224-.822a3.711,3.711,0,0,0,1.518-3.3q-.054-6.225,0-12.45a3.822,3.822,0,0,0-1.3-3.167q0-3.882.005-7.765C88-713,88.079-713.3,87.807-713.5Z" transform="translate(-153.688 -35.803)" fill="#d9e9fa"/>
      <path id="Trazado_650299" data-name="Trazado 650299" d="M28.1-661.978c0,2.162.006,4.325,0,6.487a3.1,3.1,0,0,1-3.288,3.354c-1.5.016-2.995.019-4.492,0a3.067,3.067,0,0,1-3.2-3.265q-.012-6.653,0-13.306a3.082,3.082,0,0,1,3.281-3.274q2.2-.016,4.408,0a3.093,3.093,0,0,1,3.291,3.27C28.113-666.468,28.1-664.223,28.1-661.978Zm-8.488-.084c0,2.162.013,4.323-.008,6.485-.006.663.229.966.92.953q2.078-.039,4.158,0c.683.012.93-.278.928-.947q-.022-6.485,0-12.97c0-.739-.315-.97-1.007-.955-1.33.028-2.662.036-3.991,0-.767-.022-1.023.289-1.012,1.035C19.636-666.33,19.616-664.2,19.616-662.062Z" transform="translate(-106.782 -69.326)" fill="#020202"/>
      <path id="Trazado_650300" data-name="Trazado 650300" d="M70.017-671.444a3.822,3.822,0,0,1,1.3,3.167q-.047,6.225,0,12.45a3.711,3.711,0,0,1-1.518,3.3,4.818,4.818,0,0,1-2.175.4c-1.357-.026-2.714.016-4.07-.021a3.017,3.017,0,0,1-3.007-3.024q-.038-6.893,0-13.786a3.024,3.024,0,0,1,3.017-3.019c1.55-.03,3.1.006,4.652-.013A4.133,4.133,0,0,1,70.017-671.444Zm-6.984,9.379c0,2.164.013,4.328-.008,6.491-.006.664.231.968.922.954,1.3-.026,2.608-.028,3.911,0,.681.015.95-.268.948-.935q-.015-6.491,0-12.983c0-.726-.312-.976-1.013-.957-1.247.034-2.5.037-3.745,0-.755-.023-1.039.264-1.028,1.022C63.053-666.337,63.033-664.2,63.033-662.065Z" transform="translate(-135.714 -69.33)" fill="#030404"/>
      <path id="Trazado_650301" data-name="Trazado 650301" d="M41.1-600.11c.717.141,1.254.506,1.25,1.291a1.241,1.241,0,0,1-1.25,1.27c-3.1-.01-6.2-.025-9.307-.028q-6.525-.008-13.049,0c-1.038,0-1.618-.454-1.616-1.241s.583-1.255,1.618-1.255q10.722,0,21.444,0C40.494-600.079,40.8-600.1,41.1-600.11Z" transform="translate(-106.792 -117.231)" fill="#040404"/>
      <path id="Trazado_650302" data-name="Trazado 650302" d="M41.1-583.18c.74.111,1.25.5,1.249,1.277A1.246,1.246,0,0,1,41.1-580.63q-6.316-.014-12.631-.026c-3.269,0-6.538,0-9.808,0-.96,0-1.533-.476-1.533-1.244s.575-1.249,1.533-1.249q10.763-.006,21.527,0C40.493-583.156,40.8-583.171,41.1-583.18Z" transform="translate(-106.792 -128.514)" fill="#020202"/>
      <path id="Trazado_650303" data-name="Trazado 650303" d="M44.968-566.181c1.244,0,2.489-.009,3.733,0,.873.008,1.377.446,1.4,1.182a1.236,1.236,0,0,1-1.377,1.308q-3.733.025-7.467,0a1.268,1.268,0,0,1-1.415-1.283c.016-.751.553-1.2,1.471-1.208C42.534-566.188,43.751-566.181,44.968-566.181Z" transform="translate(-121.932 -139.841)" fill="#030404"/>
      <path id="Trazado_650304" data-name="Trazado 650304" d="M-108.145-663.741c-.248.011-.5.032-.746.032q-12.106,0-24.212,0c-1.824,0-2.508-.684-2.508-2.5q0-26.786,0-53.572c0-1.751.711-2.456,2.473-2.463,2.088-.008,2.088-.008,2.088,2.11,0,1.22-.014,2.441,0,3.66a4.356,4.356,0,0,0,4.511,4.612c5.075.054,10.15.021,15.226.013a4.629,4.629,0,0,0,3.626-1.732c.015.3.042.607.042.911q0,7.3,0,14.61l-21.786.029c-.277,0-.555-.01-.831.008a1.243,1.243,0,0,0-1.288,1.236,1.265,1.265,0,0,0,1.21,1.245,6.494,6.494,0,0,0,.748.015q10.52,0,21.04,0c.3,0,.607.026.91.04v3.029c-.3.015-.606.044-.91.044q-10.522,0-21.044,0c-1.345,0-1.956.393-1.956,1.255s.608,1.251,1.958,1.251q10.522,0,21.044,0c.3,0,.606.031.909.048,0,2.568.016,5.136-.021,7.7-.006.389.289.79-.016,1.172a5.071,5.071,0,0,0-2.4-.5c-5.988.017-11.976.007-17.963.01a3.175,3.175,0,0,0-3.518,3.486c-.008,2.189,0,4.379,0,6.569,0,2.541,1.177,3.729,3.693,3.729,5.932,0,11.865-.008,17.8.009a5.023,5.023,0,0,0,2.4-.508c.226.717-.069,1.438.023,2.159A3.416,3.416,0,0,1-108.145-663.741Zm-10.8-37.418c1.3,0,2.608.01,3.912,0,.956-.009,1.544-.5,1.547-1.262s-.577-1.231-1.545-1.233q-3.87-.007-7.741,0c-1.027,0-1.543.4-1.567,1.189-.024.815.542,1.3,1.565,1.306C-121.5-701.151-120.225-701.159-118.948-701.159Z" transform="translate(-4.998 -35.831)" fill="#ebf5fd"/>
      <path id="Trazado_650305" data-name="Trazado 650305" d="M-53.265-663.782a3.416,3.416,0,0,0,.5-2.291c-.092-.721.2-1.443-.023-2.159a3.713,3.713,0,0,0,1.375-3.2q-.089-3.191,0-6.386a3.7,3.7,0,0,0-1.381-3.2c.3-.382.01-.783.016-1.172.037-2.567.02-5.135.021-7.7.72-.151,1.317-.458,1.317-1.3s-.591-1.157-1.318-1.3q0-1.514,0-3.029c.76-.156,1.368-.5,1.316-1.382-.046-.785-.594-1.109-1.319-1.192q0-7.3,0-14.61c0-.3-.027-.607-.042-.911a5.509,5.509,0,0,0,.882-3.306c-.044-1.524.031-3.052-.029-4.575-.027-.694.218-.847.839-.794.578.049,1.165-.013,1.746.019a1.954,1.954,0,0,1,1.987,2.016c.011.194.006.388.006.582q0,26.663,0,53.327c0,.221,0,.444-.011.665a1.917,1.917,0,0,1-1.974,1.933C-50.659-663.729-51.963-663.771-53.265-663.782Z" transform="translate(-59.878 -35.79)" fill="#d7e7f7"/>
      <path id="Trazado_650306" data-name="Trazado 650306" d="M-72.249-737.066a3.093,3.093,0,0,0,.507-1.966c1.182-.269,1.524-.864,1.124-1.974-.382-1.063-.772-2.123-1.158-3.184q.018-5.373.037-10.746a2.973,2.973,0,0,0-.5-1.293c1.079-.009,2.159-.047,3.237-.019a1.862,1.862,0,0,1,1.912,1.971q.022,7.641,0,15.283a1.838,1.838,0,0,1-1.845,1.951A19.535,19.535,0,0,1-72.249-737.066Z" transform="translate(-47.226 -13.166)" fill="#72b3f4"/>
      <path id="Trazado_650307" data-name="Trazado 650307" d="M40.257-737.082c-.662.019-1.325.055-1.987.056q-4.9.008-9.805,0c-1.657,0-2.342-.679-2.343-2.3q-.005-7.311,0-14.622c0-1.579.707-2.3,2.261-2.3q5.94.005,11.881.027a7.641,7.641,0,0,1,.68,3.772c-.034,2.321-.006,4.644-.014,6.966,0,.294.1.613-.134.875a4.669,4.669,0,0,0-1.6-2.653c-.375-.291-.159-.492-.02-.758a4.166,4.166,0,0,0-3.665-6.216c-1.137-.025-2.274-.016-3.412,0-1.016.014-1.48.47-1.482,1.479q-.013,6.114,0,12.229c0,1.02.447,1.458,1.475,1.467,1.192.011,2.385-.006,3.578-.01,2.786-.01,4.209-1.038,5.121-3.7C41-740.84,41.231-738.9,40.257-737.082Z" transform="translate(-112.783 -13.171)" fill="#d0b2e7"/>
      <path id="Trazado_650308" data-name="Trazado 650308" d="M68.5-737.086c.974-1.823.745-3.758.534-5.691l0-1.837c.23-.263.133-.581.134-.875.008-2.323-.02-4.645.014-6.966a7.64,7.64,0,0,0-.68-3.772c1.025-.01,2.051-.04,3.075-.025a1.892,1.892,0,0,1,2.012,1.883c.02.22.013.443.013.665q0,7.069,0,14.138c0,1.915-.628,2.547-2.537,2.541C70.218-737.028,69.362-737.065,68.5-737.086Z" transform="translate(-141.032 -13.167)" fill="#bb96db"/>
      <path id="Trazado_650309" data-name="Trazado 650309" d="M-93.125-740.141c.386,1.061.776,2.121,1.158,3.184.4,1.111.058,1.7-1.124,1.974-.781-.1-1.074-.664-1.316-1.32-.662-1.8-.673-1.794-2.548-1.794-1.163,0-2.327.02-3.489-.01a.675.675,0,0,0-.785.525c-.176.551-.391,1.092-.614,1.627a1.271,1.271,0,0,1-1.714.849,1.271,1.271,0,0,1-.6-1.761c.774-2.069,1.574-4.128,2.361-6.192.738-1.935,1.487-3.866,2.2-5.811.285-.777.737-1.327,1.6-1.313.829.013,1.256.573,1.533,1.3C-95.356-745.963-94.238-743.053-93.125-740.141Zm-6.937-.454c1.262,0,2.416-.012,3.569.006.456.007.413-.179.289-.5-.6-1.555-1.178-3.117-1.827-4.84Z" transform="translate(-25.876 -17.215)" fill="#030404"/>
      <path id="Trazado_650310" data-name="Trazado 650310" d="M24.592-657.083c0-2.134.02-4.268-.011-6.4-.011-.745.244-1.057,1.012-1.035,1.33.038,2.661.031,3.991,0,.692-.015,1.01.216,1.007.955q-.029,6.485,0,12.97c0,.669-.245.959-.928.947q-2.078-.037-4.158,0c-.691.013-.926-.289-.92-.953C24.605-652.76,24.592-654.922,24.592-657.083Z" transform="translate(-111.759 -74.304)" fill="#fae78b"/>
      <path id="Trazado_650311" data-name="Trazado 650311" d="M68.019-657.091c0-2.136.02-4.272-.011-6.408-.011-.758.273-1.045,1.028-1.022,1.247.038,2.5.035,3.745,0,.7-.019,1.016.23,1.013.957q-.021,6.491,0,12.983c0,.667-.267.95-.948.935-1.3-.029-2.608-.027-3.911,0-.691.014-.929-.29-.922-.954C68.032-652.763,68.019-654.927,68.019-657.091Z" transform="translate(-140.701 -74.304)" fill="#f8e58a"/>
      <path id="Trazado_650312" data-name="Trazado 650312" d="M-99.589-599.536a3.7,3.7,0,0,1,1.381,3.2q-.088,3.191,0,6.386a3.713,3.713,0,0,1-1.375,3.2,5.023,5.023,0,0,1-2.4.508c-5.932-.017-11.865-.008-17.8-.009-2.516,0-3.692-1.188-3.693-3.729,0-2.19-.007-4.379,0-6.569a3.175,3.175,0,0,1,3.518-3.486c5.988,0,11.976.007,17.963-.01A5.071,5.071,0,0,1-99.589-599.536Zm-11.219,10.792c3.022,0,6.044-.013,9.066.009.746.006,1.042-.263,1.031-1.025-.031-2.245-.036-4.491,0-6.736.014-.827-.341-1.047-1.1-1.045-6.016.017-12.033.008-18.049.01-.967,0-1.115.143-1.118,1.1q-.01,3.285,0,6.57c0,.972.146,1.114,1.1,1.115Q-115.342-588.74-110.808-588.744Z" transform="translate(-13.084 -117.279)" fill="#030404"/>
      <path id="Trazado_650313" data-name="Trazado 650313" d="M-99.522-632.943c.726.144,1.317.456,1.318,1.3s-.6,1.151-1.317,1.3c-.3-.017-.606-.048-.909-.048q-10.522,0-21.044,0c-1.35,0-1.957-.39-1.958-1.251s.611-1.254,1.956-1.255q10.522,0,21.044,0C-100.128-632.9-99.825-632.928-99.522-632.943Z" transform="translate(-13.115 -95.35)" fill="#060707"/>
      <path id="Trazado_650314" data-name="Trazado 650314" d="M-99.526-649.742c.725.083,1.273.408,1.319,1.192.052.886-.556,1.226-1.316,1.382-.3-.014-.607-.04-.91-.04q-10.52,0-21.04,0a6.494,6.494,0,0,1-.748-.015,1.265,1.265,0,0,1-1.21-1.245,1.243,1.243,0,0,1,1.288-1.236c.276-.018.554-.007.831-.008Z" transform="translate(-13.115 -84.154)" fill="#060707"/>
      <path id="Trazado_650315" data-name="Trazado 650315" d="M-96.433-664.016c-1.276,0-2.553.008-3.829,0-1.023-.008-1.589-.492-1.565-1.306.024-.791.539-1.188,1.567-1.189q3.871-.005,7.741,0c.968,0,1.547.473,1.545,1.233s-.591,1.252-1.547,1.262C-93.825-664.006-95.13-664.016-96.433-664.016Z" transform="translate(-27.513 -72.974)" fill="#040404"/>
      <path id="Trazado_650316" data-name="Trazado 650316" d="M49.769-740.618l0,1.837c-.913,2.662-2.335,3.69-5.121,3.7-1.193,0-2.385.021-3.578.01-1.029-.009-1.473-.447-1.475-1.467q-.012-6.115,0-12.229c0-1.009.465-1.466,1.482-1.479,1.137-.015,2.275-.024,3.412,0a4.165,4.165,0,0,1,3.665,6.216c-.139.266-.355.467.02.758A4.669,4.669,0,0,1,49.769-740.618Zm-7.626.867h-.058c0,.58.01,1.161,0,1.741-.007.3.063.459.407.449.994-.027,1.992.014,2.983-.057a2.045,2.045,0,0,0,1.839-1.928,2.134,2.134,0,0,0-1.477-2.235,4.435,4.435,0,0,0-1.563-.12c-.709.03-1.653-.314-2.057.151C41.873-741.358,42.143-740.437,42.143-739.751Zm-.058-6.387c0,.359.028.72-.007,1.076-.046.477.064.708.616.661.658-.056,1.326.009,1.985-.033a1.631,1.631,0,0,0,1.513-1.5,1.692,1.692,0,0,0-1.158-1.716,3.8,3.8,0,0,0-1.312-.1C42.085-747.756,42.085-747.752,42.085-746.138Z" transform="translate(-121.758 -17.163)" fill="#020202"/>
      <path id="Trazado_650317" data-name="Trazado 650317" d="M-91.628-732.1l2.031-5.337c.648,1.723,1.229,3.285,1.827,4.84.124.323.167.51-.289.5C-89.212-732.114-90.366-732.1-91.628-732.1Z" transform="translate(-34.311 -25.708)" fill="#95c5f6"/>
      <path id="Trazado_650318" data-name="Trazado 650318" d="M-105.814-583.751q-4.533,0-9.066,0c-.954,0-1.1-.144-1.1-1.115q-.009-3.285,0-6.57c0-.957.151-1.1,1.118-1.1,6.017,0,12.033.006,18.049-.01.758,0,1.113.218,1.1,1.045-.039,2.245-.033,4.491,0,6.736.011.761-.285,1.03-1.031,1.025C-99.77-583.764-102.792-583.751-105.814-583.751Z" transform="translate(-18.078 -122.272)" fill="#f8e58a"/>
      <path id="Trazado_650319" data-name="Trazado 650319" d="M47.052-723.235c0-.686-.27-1.607.07-2,.4-.466,1.349-.121,2.057-.151a4.434,4.434,0,0,1,1.563.119,2.135,2.135,0,0,1,1.477,2.235,2.045,2.045,0,0,1-1.839,1.928c-.991.071-1.989.029-2.983.057-.344.009-.414-.151-.407-.449.014-.58,0-1.16,0-1.741Z" transform="translate(-126.666 -33.679)" fill="#d0b2e7"/>
      <path id="Trazado_650320" data-name="Trazado 650320" d="M47.048-741.135c0-1.614,0-1.619,1.638-1.611a3.806,3.806,0,0,1,1.312.1,1.692,1.692,0,0,1,1.158,1.715,1.631,1.631,0,0,1-1.513,1.5c-.66.042-1.328-.023-1.985.033-.552.047-.662-.184-.616-.661C47.076-740.415,47.048-740.776,47.048-741.135Z" transform="translate(-126.721 -22.166)" fill="#d0b2e7"/>
    </g>
  </g>
</svg>
