<svg xmlns="http://www.w3.org/2000/svg" xmlns:xlink="http://www.w3.org/1999/xlink" width="112" height="112" viewBox="0 0 112 112">
  <defs>
    <clipPath id="clip-path">
      <rect id="Rectángulo_309252" data-name="Rectángulo 309252" width="112" height="112" transform="translate(-0.152)" fill="none"/>
    </clipPath>
  </defs>
  <g id="Grupo_993073" data-name="Grupo 993073" transform="translate(0.152)" clip-path="url(#clip-path)">
    <circle id="Elipse_8165" data-name="Elipse 8165" cx="48.5" cy="48.5" r="48.5" transform="translate(7.848 7)" fill="#00c1ab"/>
    <g id="Grupo_994151" data-name="Grupo 994151" transform="translate(-950.585 -371.84)">
      <path id="Trazado_653167" data-name="Trazado 653167" d="M1032.018,424.771a1.5,1.5,0,0,1-1.726,1.235q-5.641-.047-11.282,0a2.074,2.074,0,0,1-1.994-1.154c-.913-1.622-1.861-3.225-2.778-4.845a1.737,1.737,0,0,1,.9-2.746,1.21,1.21,0,0,0,.626-.627q5.944-11.3,11.9-22.6a5.318,5.318,0,0,0,.249-2.574c.01-.456-.435-.244-.665-.245-2.347-.017-4.694-.011-7.041-.011-2.375,0-4.751.014-7.126-.011-.513-.005-.766.084-.952.647a5.648,5.648,0,0,1-3.733,3.757.844.844,0,0,0-.691,1.02,22.369,22.369,0,0,1,0,2.628c-.047.686.135.986.867.9a2.329,2.329,0,0,1,1.4.23,2.162,2.162,0,0,1,1.144,2.031c.011.99,0,1.979,0,2.969a1.354,1.354,0,0,1-1.249,1.531c-1.1-.268-1.247-.5-1.286-1.728-.025-.8.37-1.886-.189-2.341s-1.624-.139-2.467-.112c-1.649-.083-1.649-.083-1.649,1.535V430.55c0,1.594,0,1.594,1.658,1.512a16.856,16.856,0,0,1,1.691.036c.771.089.987-.177.983-.964-.033-6.378-.02-12.756-.017-19.134,0-1.228.179-1.46,1.277-1.729,1.042.291,1.247.574,1.247,1.785q0,9.585-.01,19.171c0,.583.09.847.758.976a4.529,4.529,0,0,1,3.762,4.559c.013.65.034,1.3-.006,1.95-.032.5.093.72.644.674a15.479,15.479,0,0,1,1.78,0,4.124,4.124,0,0,1,4.031,4c.036.9.052,1.811,0,2.713-.036.651.137.871.831.861,2.771-.042,5.542-.017,8.313-.017h15.608c.255,0,.511-.013.763.01a1.276,1.276,0,0,1,1.248,1.244,1.259,1.259,0,0,1-1.224,1.267,16.171,16.171,0,0,1-2.034.02c-.487-.023-.619.146-.617.625q.024,6.955,0,13.911c0,.5.161.635.631.611.648-.033,1.3-.025,1.95,0a1.26,1.26,0,0,1,1.293,1.191,1.3,1.3,0,0,1-1.258,1.335,8.1,8.1,0,0,1-.848.011q-26.338,0-52.677-.021c-.844,0-1.107.233-.982,1.027a3.936,3.936,0,0,1,0,.847,1.74,1.74,0,0,1-2.748,1.434c-.909-.567-1.78-1.2-2.647-1.83a.686.686,0,0,0-.96-.008c-.813.609-1.667,1.162-2.5,1.744a1.772,1.772,0,0,1-1.989.2,1.832,1.832,0,0,1-.944-1.762c0-1.626-.023-1.609-1.62-1.63-2.2-.03-4.414.145-6.611-.091a10.093,10.093,0,0,1-1.1-19.9,10.923,10.923,0,0,1,2.441-.235c5.174,0,10.349-.016,15.523.016.72,0,.922-.2.877-.9a25.686,25.686,0,0,1,0-2.713,4.158,4.158,0,0,1,3.983-3.97c.807-.041,1.909.374,2.336-.181.4-.518.111-1.569.126-2.386a4.557,4.557,0,0,1,3.8-4.619c.621-.121.726-.346.725-.916q-.027-14.208-.013-28.417a2.941,2.941,0,0,1,.423-1.863,2.345,2.345,0,0,1,2.267-.857c.547.043.752-.123.726-.7-.045-.988-.037-1.98,0-2.968a.711.711,0,0,0-.581-.842,5.793,5.793,0,0,1-3.893-3.924.607.607,0,0,0-.7-.516q-7.253.017-14.505,0c-.463,0-.541.153-.561.574a5.7,5.7,0,0,0,.688,3.07c3.846,7.216,7.641,14.459,11.444,21.7a1.513,1.513,0,0,0,.8.785,1.672,1.672,0,0,1,.9,2.442c-1.006,1.828-2.067,3.627-3.13,5.423a1.639,1.639,0,0,1-1.49.816q-10.476,0-20.952,0a1.689,1.689,0,0,1-1.534-.893c-1.024-1.754-2.057-3.5-3.042-5.279a1.7,1.7,0,0,1,.89-2.513,1.5,1.5,0,0,0,.8-.8q5.843-11.118,11.715-22.222a6.059,6.059,0,0,0,.362-2.8c.022-.434-.348-.277-.561-.28-1.187-.014-2.375-.006-3.562-.007-1.3,0-1.887-.4-1.875-1.295.012-.872.593-1.252,1.915-1.252,7.125,0,14.251-.01,21.376.017a.965.965,0,0,0,1.123-.779,5.98,5.98,0,0,1,11.3.072.857.857,0,0,0,1,.7q10.688-.032,21.376-.014c.2,0,.4-.005.594,0a1.277,1.277,0,0,1,1.41,1.247c.013.779-.536,1.285-1.447,1.295-1.3.014-2.6.026-3.9-.007-.5-.013-.658.087-.679.634a5.955,5.955,0,0,0,.744,3.141c3.806,7.141,7.564,14.307,11.328,21.471a1.678,1.678,0,0,0,.91.907,1.648,1.648,0,0,1,.842,2.4c-1,1.831-2.057,3.632-3.116,5.43a1.642,1.642,0,0,1-1.487.824c-.877,0-1.755-.034-2.629.013a1.465,1.465,0,0,1-1.728-1.231c.31-1.088.611-1.32,1.729-1.328.564,0,1.129,0,1.693,0,.259,0,.491-.009.647-.285.634-1.12,1.284-2.231,1.981-3.437h-17.624c-2.034-.008-4.068-.007-6.1-.032-.519-.006-.589.142-.332.57q.827,1.38,1.615,2.784a.683.683,0,0,0,.669.4c2.005-.022,4.01-.029,6.016-.04q2.348.018,4.7.036C1031.4,423.453,1031.712,423.7,1032.018,424.771Zm-24.9-31.529a3.381,3.381,0,0,0,0-6.641,1.253,1.253,0,0,0-.38-.143,3.477,3.477,0,0,0-3.378,5.009A3.2,3.2,0,0,0,1007.117,393.243Zm-2.876,46.109c2.117.009,4.234.022,6.351.025,2.618,0,2.618,0,2.473-2.666a2.084,2.084,0,0,0-2.049-2.064c-2.088-.025-4.177.013-6.265.024-.932-.012-1.864-.047-2.8-.031a2.108,2.108,0,0,0-2.141,2.149c-.017.65.016,1.3-.011,1.95-.02.465.131.661.623.648C1001.7,439.354,1002.969,439.361,1004.24,439.351ZM986.757,465.5a2.076,2.076,0,0,1,1.569.478c.669.5,1.372.945,2.069,1.42.071-.132.117-.177.117-.223.007-3.839.006-7.679.022-11.518,0-.426-.179-.522-.558-.513-1.072.026-2.144.027-3.216.038-.761-.011-1.524,0-2.284-.039-.467-.023-.639.119-.637.612.018,3.754.01,7.508.013,11.263a3.272,3.272,0,0,0,.074.427Zm-5.494-6.1c.01-1.15-.019-2.3.047-3.45.039-.677-.177-.922-.831-.785-.562-.254-1.024-.591-1.021-1.29a1.337,1.337,0,0,1,1.022-1.283l22.552.01c.282,0,.567-.015.847.011a1.2,1.2,0,0,1,1.2,1.182,1.24,1.24,0,0,1-1.134,1.34,5.8,5.8,0,0,1-.762.015q-4.706,0-9.411,0c-.368,0-.719-.081-.705.523.046,1.976.041,3.953.056,5.929-.016.677.021,1.36-.06,2.029-.1.836.207,1.014,1.018,1.012q23.027-.039,46.053-.024c.729,0,1.683.312,2.129-.12.489-.474.074-1.447.174-2.192s-.217-.859-.892-.858q-13.485.035-26.97.015a1.271,1.271,0,0,1-.832-1.634c.221-.747.844-.92,1.547-.9.17,0,.339,0,.509,0q11.874,0,23.749,0c.928,0,2.183.327,2.7-.143.588-.536.074-1.814.195-2.755.1-.806-.243-.89-.933-.889q-12.977.034-25.954.015a4,4,0,0,1-.762-.018,1.2,1.2,0,0,1-1.1-1.282,1.173,1.173,0,0,1,1.144-1.232,7.038,7.038,0,0,1,.848-.015q12.256,0,24.512-.007c.725,0,1.686.321,2.106-.146.357-.4.052-1.347.142-2.04.108-.83-.26-.936-.98-.934-7.888.024-15.776.015-23.664.015q-5.131,0-10.263,0c-1.123,0-1.416-.232-1.706-1.245.253-1.057.578-1.325,1.717-1.327,3.728-.008,7.456-.017,11.183.01.623,0,.86-.156.817-.8-.053-.787,0-1.581-.016-2.371a1.622,1.622,0,0,0-1.83-1.824c-1.553-.012-3.106-.006-4.66,0q-6.777.015-13.554.035c-1.521-.011-3.043-.047-4.564-.024a1.521,1.521,0,0,0-1.568,1.55c-.034.929.007,1.861-.02,2.79-.014.479.166.641.639.634,1.719-.027,3.438-.025,5.157-.034a6.69,6.69,0,0,0,1.736.083c1.091.027,1.343.221,1.593,1.285-.3,1.054-.578,1.245-1.868,1.246q-9.555,0-19.111,0c-.336,0-.671.036-1.007.055a3.116,3.116,0,0,0-3.016,3.135q-.066,4.36,0,8.721a3.264,3.264,0,0,0,3.182,3.22c.429.021.681-.029.667-.569C981.266,462.5,981.274,460.953,981.263,459.4Zm-1.97-35.988,13.906.031c.255,0,.507.021.665-.255.637-1.119,1.281-2.233,1.991-3.468H971.508c.7,1.213,1.348,2.324,1.982,3.442.155.273.391.283.65.281Zm-5.939,26.168a6.028,6.028,0,0,0-.75.074,7.55,7.55,0,0,0-5.852,8.982,7.455,7.455,0,0,0,6.6,5.861,9.507,9.507,0,0,0,1.851.135c.582.022.6-.182.36-.636a6.281,6.281,0,0,1-.673-3.1c.018-2.4.024-4.795,0-7.192a7.224,7.224,0,0,1,.7-3.69c.2-.371.108-.516-.3-.5Zm21.162-32.431-9.408-17.88c-.118.084-.156.1-.156.112q-.006,8.609-.018,17.218c0,.464.165.56.589.558C988.463,417.143,991.4,417.151,994.516,417.151Zm23.841,0c3,0,5.851-.023,8.7.017.684.01.9-.132.9-.864-.035-5.428-.019-10.855-.019-16.283v-.7l-.176-.03Zm-45.506,0c3.149,0,6.134-.009,9.119.008.6,0,.421-.408.422-.7q.012-8.3,0-16.6c0-.16.129-.4-.18-.492ZM1030.63,399.3c-.1.112-.124.13-.124.147q-.016,8.64-.033,17.28c0,.335.119.432.443.431,2.983-.009,5.967-.005,9.108-.005Z" transform="translate(0)" fill="#040403"/>
      <path id="Trazado_653168" data-name="Trazado 653168" d="M1091.213,446.548c-1.1.269-1.277.5-1.277,1.729,0,6.378-.016,12.756.018,19.134,0,.786-.212,1.053-.983.964a16.863,16.863,0,0,0-1.691-.036q0-14.67-.009-29.34c.843-.027,1.9-.354,2.467.112s.163,1.537.189,2.341c.039,1.226.19,1.46,1.286,1.728Q1091.213,444.864,1091.213,446.548Z" transform="translate(-81.346 -36.276)" fill="#aa5f4f"/>
      <path id="Trazado_653169" data-name="Trazado 653169" d="M1147.964,494.319c-.306-1.076-.617-1.318-1.708-1.327q-2.348-.019-4.7-.036c-.129-.3-.241-.618-.39-.912a15.743,15.743,0,0,1-1.477-2.773h17.624c-.7,1.206-1.347,2.317-1.981,3.437-.156.276-.388.286-.647.285-.564,0-1.129,0-1.693,0-1.118.007-1.419.24-1.729,1.328Z" transform="translate(-115.946 -69.547)" fill="#bd715d"/>
      <path id="Trazado_653170" data-name="Trazado 653170" d="M1037.768,573.162c.29,1.013.583,1.243,1.706,1.245q5.131.011,10.263,0c7.888,0,15.776.009,23.664-.015.72,0,1.088.1.98.934-.09.693.215,1.643-.142,2.04-.42.467-1.382.145-2.106.146q-12.256.016-24.512.007a7.038,7.038,0,0,0-.848.015,1.173,1.173,0,0,0-1.144,1.232,1.2,1.2,0,0,0,1.1,1.282,4,4,0,0,0,.762.018q12.977,0,25.954-.015c.69,0,1.037.083.934.889-.12.942.393,2.219-.195,2.755-.515.469-1.77.142-2.7.143q-11.874.006-23.749,0c-.17,0-.339,0-.509,0-.7-.015-1.326.157-1.547.9a1.271,1.271,0,0,0,.832,1.634c-.206.214-.473.147-.719.147q-10.366,0-20.732-.008c-.015-1.977-.01-3.953-.056-5.929-.014-.6.337-.523.705-.523q4.705,0,9.411,0a5.793,5.793,0,0,0,.762-.015,1.24,1.24,0,0,0,1.134-1.34,1.2,1.2,0,0,0-1.2-1.182c-.281-.025-.565-.011-.847-.011l-22.552-.01q0-1.523,0-3.045c.336-.019.671-.055,1.007-.055q9.556-.005,19.111,0c1.29,0,1.567-.191,1.868-1.246Z" transform="translate(-31.938 -124.918)" fill="#fbf1de"/>
      <path id="Trazado_653171" data-name="Trazado 653171" d="M1049.47,612.156q10.366.005,20.732.008c.246,0,.514.068.719-.147q13.485,0,26.97-.015c.675,0,.991.115.892.858s.315,1.718-.174,2.192c-.446.432-1.4.12-2.129.12q-23.027.01-46.053.024c-.81,0-1.12-.177-1.018-1.012C1049.491,613.516,1049.454,612.833,1049.47,612.156Z" transform="translate(-56.344 -150.554)" fill="#f3dec0"/>
      <path id="Trazado_653172" data-name="Trazado 653172" d="M1073.988,560.887h-3.368c-.25-1.064-.5-1.258-1.593-1.285a6.69,6.69,0,0,1-1.736-.083,17.576,17.576,0,0,1,.356-4.917q6.777-.018,13.554-.035c1.553,0,3.107-.009,4.66,0a1.622,1.622,0,0,1,1.83,1.824c.012.79-.037,1.584.016,2.371.043.647-.193.807-.817.8-3.728-.027-7.456-.018-11.183-.01C1074.567,559.562,1074.241,559.83,1073.988,560.887Z" transform="translate(-68.158 -112.643)" fill="#ac6150"/>
      <path id="Trazado_653173" data-name="Trazado 653173" d="M984.2,576.958l1.941-.07c.406-.015.5.13.3.5a7.225,7.225,0,0,0-.7,3.69c.026,2.4.02,4.795,0,7.192a6.28,6.28,0,0,0,.673,3.1c.244.454.222.658-.36.636a9.512,9.512,0,0,1-1.851-.135c0-.3-.233-.407-.431-.573a8.8,8.8,0,0,1,.2-13.915A.575.575,0,0,0,984.2,576.958Z" transform="translate(-10.844 -127.377)" fill="#4474b5"/>
      <path id="Trazado_653174" data-name="Trazado 653174" d="M1003.443,489.264h18.429c-.71,1.235-1.354,2.349-1.991,3.468-.157.276-.41.256-.665.255l-13.906-.031c-.069-.149-.142-.3-.206-.447C1004.627,491.388,1003.66,490.518,1003.443,489.264Z" transform="translate(-26.017 -69.543)" fill="#bd715d"/>
      <path id="Trazado_653175" data-name="Trazado 653175" d="M1084.07,439.21q0,14.67.009,29.34c-1.658.082-1.658.082-1.658-1.512V440.745C1082.421,439.128,1082.421,439.128,1084.07,439.21Z" transform="translate(-78.145 -36.488)" fill="#924f40"/>
      <path id="Trazado_653176" data-name="Trazado 653176" d="M1006.492,577q0,1.522,0,3.045a1.337,1.337,0,0,0-1.022,1.283c0,.7.459,1.035,1.021,1.289a16.555,16.555,0,0,0,.017,2.112c.1.748.051,1.585.767,2.124.012,1.551,0,3.1.046,4.653.015.541-.237.591-.667.569a3.264,3.264,0,0,1-3.182-3.22q-.068-4.36,0-8.721A3.116,3.116,0,0,1,1006.492,577Z" transform="translate(-26.017 -127.453)" fill="#f3dec0"/>
      <path id="Trazado_653177" data-name="Trazado 653177" d="M1030.891,593.507c1.072-.011,2.145-.012,3.216-.038.379-.009.56.087.558.513-.016,3.839-.015,7.679-.022,11.518,0,.046-.046.091-.117.223-.7-.475-1.4-.925-2.069-1.42a2.077,2.077,0,0,0-1.569-.478Q1030.89,598.665,1030.891,593.507Z" transform="translate(-44.132 -138.321)" fill="#e54142"/>
      <path id="Trazado_653178" data-name="Trazado 653178" d="M1082.777,533.176c2.088-.012,4.177-.049,6.265-.024a2.084,2.084,0,0,1,2.049,2.064c.145,2.667.145,2.67-2.473,2.666-2.117,0-4.234-.016-6.351-.025A10.706,10.706,0,0,1,1082.777,533.176Z" transform="translate(-78.026 -98.505)" fill="#7e4233"/>
      <path id="Trazado_653179" data-name="Trazado 653179" d="M978.344,577.1a.575.575,0,0,1-.234.429,8.8,8.8,0,0,0-.2,13.915c.2.166.432.272.431.573a7.455,7.455,0,0,1-6.6-5.861,7.55,7.55,0,0,1,5.852-8.982A6.028,6.028,0,0,1,978.344,577.1Z" transform="translate(-4.99 -127.515)" fill="#3867ad"/>
      <path id="Trazado_653180" data-name="Trazado 653180" d="M1025.225,593.5q0,5.159,0,10.318l-2.831,1.945a3.26,3.26,0,0,1-.074-.427c0-3.754,0-7.509-.013-11.263,0-.493.17-.635.637-.612C1023.7,593.5,1024.464,593.49,1025.225,593.5Z" transform="translate(-38.466 -138.315)" fill="#d13737"/>
      <path id="Trazado_653181" data-name="Trazado 653181" d="M1056.392,554.618a17.572,17.572,0,0,0-.356,4.917c-1.719.009-3.438.006-5.157.034-.473.007-.653-.155-.639-.634.027-.929-.014-1.861.02-2.791a1.521,1.521,0,0,1,1.568-1.55C1053.349,554.571,1054.871,554.607,1056.392,554.618Z" transform="translate(-56.904 -112.658)" fill="#924f40"/>
      <path id="Trazado_653182" data-name="Trazado 653182" d="M1126.922,489.208a15.751,15.751,0,0,0,1.477,2.773c.15.294.261.608.39.912-2.005.012-4.011.018-6.016.04a.683.683,0,0,1-.669-.4q-.79-1.4-1.615-2.784c-.257-.428-.188-.577.332-.57C1122.855,489.2,1124.889,489.2,1126.922,489.208Z" transform="translate(-103.175 -69.485)" fill="#ac6150"/>
      <path id="Trazado_653183" data-name="Trazado 653183" d="M991.953,489.264c.217,1.254,1.184,2.124,1.661,3.246.064.151.137.3.206.447l-5.153.031c-.259,0-.495-.008-.65-.281-.634-1.118-1.282-2.229-1.982-3.442Z" transform="translate(-14.527 -69.543)" fill="#ac6150"/>
      <path id="Trazado_653184" data-name="Trazado 653184" d="M1074.209,533.172a10.7,10.7,0,0,0-.511,4.68c-1.271.009-2.543,0-3.813.035-.492.013-.643-.182-.623-.648.027-.649-.006-1.3.011-1.95a2.108,2.108,0,0,1,2.141-2.149C1072.345,533.125,1073.277,533.16,1074.209,533.172Z" transform="translate(-69.458 -98.501)" fill="#653629"/>
      <path id="Trazado_653185" data-name="Trazado 653185" d="M1088.459,391.847a3.381,3.381,0,0,1,0,6.641,2.309,2.309,0,0,0-.2-.449,4.588,4.588,0,0,1-.716-4.427C1087.772,392.964,1088.263,392.488,1088.459,391.847Z" transform="translate(-81.342 -5.245)" fill="#7e4233"/>
      <path id="Trazado_653186" data-name="Trazado 653186" d="M1082.753,391.567c-.2.641-.687,1.117-.911,1.765a4.588,4.588,0,0,0,.716,4.427,2.309,2.309,0,0,1,.2.449,3.2,3.2,0,0,1-3.758-1.774,3.477,3.477,0,0,1,3.378-5.009A1.256,1.256,0,0,1,1082.753,391.567Z" transform="translate(-75.636 -4.965)" fill="#653629"/>
      <path id="Trazado_653187" data-name="Trazado 653187" d="M1013.152,597.69c-.716-.539-.671-1.375-.767-2.124a16.566,16.566,0,0,1-.017-2.112c.654-.136.87.109.831.785C1013.133,595.387,1013.163,596.539,1013.152,597.69Z" transform="translate(-31.89 -138.288)" fill="#fbf1de"/>
    </g>
  </g>
</svg>
