<svg xmlns="http://www.w3.org/2000/svg" width="102" height="102" viewBox="0 0 102 102">
  <g id="Grupo_995461" data-name="Grupo 995461" transform="translate(-999 -5881)">
    <g id="Grupo_991212" data-name="Grupo 991212" transform="translate(762)">
      <circle id="Elipse_8068" data-name="Elipse 8068" cx="51" cy="51" r="51" transform="translate(237 5881)" fill="#00c1ab"/>
      <circle id="Elipse_8069" data-name="Elipse 8069" cx="40" cy="40" r="40" transform="translate(248 5892)" fill="#fff"/>
    </g>
    <path id="Trazado_654102" data-name="Trazado 654102" d="M22.3,27.59H17.635V38H11.775V9.563H22.342q5.039,0,7.773,2.246a7.752,7.752,0,0,1,2.734,6.348,8.749,8.749,0,0,1-1.26,4.854,8.592,8.592,0,0,1-3.818,3.1l6.152,11.621V38H27.635Zm-4.668-4.746h4.727a4.839,4.839,0,0,0,3.418-1.123,4.014,4.014,0,0,0,1.211-3.1,4.3,4.3,0,0,0-1.143-3.164,4.748,4.748,0,0,0-3.506-1.152H17.635Z" transform="translate(1028 5903)" fill="#12263f"/>
  </g>
</svg>
