<svg xmlns="http://www.w3.org/2000/svg" width="85" height="85" viewBox="0 0 85 85">
  <g id="Grupo_991220" data-name="Grupo 991220" transform="translate(-1335 -6589)">
    <g id="Grupo_991219" data-name="Grupo 991219" transform="translate(760.979 6602.967)">
      <path id="Trazado_650559" data-name="Trazado 650559" d="M580.992,30.819q0-16.267-.014-32.534c0-.574.129-.712.708-.711q16.753.03,33.507.014c.866,0,.927-.016.721-.824-.153-.6.059-.794.572-.993,1.525-.592,3.042-1.207,4.531-1.882a.765.765,0,0,1,1.163.348c.261.433.6.818.895,1.233a.543.543,0,0,0,.625.3.609.609,0,0,0,.539-.519c.129-.609.328-1.2.436-1.815.064-.364.23-.431.557-.429,1.827.012,3.654.019,5.48,0,.391-.005.5.144.575.488.119.587.312,1.159.427,1.746a.593.593,0,0,0,.525.53.543.543,0,0,0,.631-.283c.358-.51.754-.994,1.1-1.51a.466.466,0,0,1,.686-.183q2.543,1.084,5.11,2.114a.436.436,0,0,1,.312.576c-.1.615-.164,1.238-.288,1.848a.569.569,0,0,0,.284.684.542.542,0,0,0,.687-.019c.526-.334,1.078-.627,1.6-.972.292-.2.462-.152.7.093q1.917,1.957,3.875,3.875c.242.238.293.407.1.7-.346.517-.64,1.069-.972,1.6a.541.541,0,0,0-.026.688.574.574,0,0,0,.685.285c.5-.1,1.026-.079,1.5-.228.651-.2.867.064,1.084.632.6,1.571,1.26,3.119,1.928,4.663.158.367.129.574-.21.8-.5.329-.965.715-1.456,1.061a.549.549,0,0,0-.285.632.573.573,0,0,0,.533.517c.453.075.889.275,1.342.326.693.079.934.359.9,1.1-.071,1.662-.034,3.329-.013,4.993,0,.393-.087.574-.5.642-.589.1-1.161.293-1.747.417a.6.6,0,0,0-.52.538.547.547,0,0,0,.3.626c.247.17.485.354.726.533,1.126.832,1.128.833.606,2.093-.573,1.384-1.159,2.763-1.718,4.152-.14.348-.27.521-.7.416-.58-.143-1.189-.168-1.778-.28a.518.518,0,0,0-.64.227.581.581,0,0,0-.023.746c.333.5.6,1.04.939,1.534a.528.528,0,0,1-.1.814c-1.179,1.142-2.315,2.328-3.5,3.469a1.586,1.586,0,0,0-.534,1.257c.017,8.81.006,17.62.027,26.43,0,.584-.147.707-.716.706q-30.246-.024-60.492,0c-.585,0-.705-.148-.7-.715Q581.007,47.086,580.992,30.819Zm25.34,13.476a8.845,8.845,0,0,0-.863.241c-7.606,2.956-11.882,8.508-12.936,16.581-.072.549.109.645.617.643,4.134-.02,8.269-.009,12.4-.016.188,0,.413.094.563-.1,0-.037,0-.065-.006-.079-.069-.091-.139-.182-.214-.27a8.083,8.083,0,0,1-1.956-6.224,34.34,34.34,0,0,1,.742-4.432c.472-2.116,1.176-4.166,1.732-6.258.024-.031.073-.078.066-.089C606.436,44.216,606.381,44.241,606.332,44.295Zm-23.045,6.55a40.933,40.933,0,0,1,3.932-6.47,30.712,30.712,0,0,1,20.715-12.126c.43-.061.827-.009.978-.674a5.712,5.712,0,0,1,.991-1.729.57.57,0,0,0-.033-.736c-.174-.274-.363-.275-.641-.222-.544.1-1.109.112-1.642.251-.477.124-.682.012-.864-.451q-.947-2.413-1.989-4.789a.63.63,0,0,1,.294-.942c.469-.293.882-.673,1.344-.978a.615.615,0,0,0,.283-.7c-.044-.325-.251-.4-.508-.466-.605-.149-1.2-.323-1.815-.449-.294-.061-.441-.149-.439-.483.013-1.873.01-3.746,0-5.619,0-.274.07-.405.366-.465.632-.127,1.252-.314,1.88-.464.263-.063.463-.145.51-.464a.594.594,0,0,0-.278-.7c-.315-.191-.6-.436-.894-.654-.955-.7-.982-.712-.506-1.762.264-.583.155-.71-.482-.708q-10.2.03-20.394,0c-.667,0-.83.155-.829.827q.033,20.116.016,40.232ZM618.4,36.331c-.1.25.061.372.309.466.345.131.681.284,1.022.424,1.205.5,1.248.524,1.966-.567.461-.7.923-1.085,1.765-.66a1.434,1.434,0,0,0,.672.149,1.932,1.932,0,0,1,2.289,2.1c.018.494.295.644.778.6.709-.069,1.593.266,2.087-.133.418-.339.406-1.219.565-1.865a.529.529,0,0,1,.5-.46,23.971,23.971,0,0,0,2.578-.515.791.791,0,0,1,1.013.39c.339.489.6,1.249,1.113,1.346.495.094,1.084-.419,1.655-.58.686-.193,1.035-.506.754-1.256-.439-1.171.119-1.736,1.077-2.449,1.283-.955,2.3-1.194,3.5-.073a.336.336,0,0,0,.539.007c.555-.587,1.347-1.073,1.617-1.766.2-.517-.568-1.129-.872-1.716a.344.344,0,0,0-.033-.061.469.469,0,0,1,.017-.676,19.084,19.084,0,0,0,1.583-2.357.5.5,0,0,1,.6-.3c.679.1,1.509.519,2,.184s.56-1.219.882-1.827c.265-.5.156-.818-.318-1.042-1.192-.564-1.35-1.351-1.11-2.678.274-1.512.765-2.376,2.34-2.435.045,0,.089-.028.135-.031.231-.019.318-.157.315-.372a6.532,6.532,0,0,0-.105-2.392c-.224-.507-1.2-.4-1.832-.593a.522.522,0,0,0-.068-.016c-.281-.047-.4-.186-.451-.5-.149-.934-.335-1.863-.552-2.784a.531.531,0,0,1,.213-.633c.535-.454,1.485-.681,1.548-1.352.059-.63-.5-1.306-.733-1.98-.145-.415-.346-.506-.765-.4-.467.119-.967.107-1.437.217-.372.087-.53-.066-.709-.351-.466-.743-.938-1.486-1.467-2.184a.674.674,0,0,1-.014-.914c.336-.522.879-1.088.855-1.613s-.82-.874-1.194-1.366c-.435-.575-.875-.672-1.411-.171a1.606,1.606,0,0,1-2.581-.076A.947.947,0,0,0,638.7.842a1.8,1.8,0,0,1-1.215-2.6c.224-.583-.009-.868-.571-1.044-.633-.2-1.289-.727-1.853-.632-.543.092-.824.926-1.2,1.446a.626.626,0,0,1-.793.294,12.785,12.785,0,0,0-2.169-.434c-.733-.066-1.1-.371-1.177-1.1-.036-.363-.187-.714-.252-1.077A.392.392,0,0,0,629-4.694q-1.006.022-2.012,0c-.3-.006-.492.069-.509.4-.081,1.571-.9,2.139-2.47,2.4-1.3.213-2.069.07-2.63-1.08-.265-.544-.623-.609-1.155-.316-.581.32-1.481.394-1.746.859s.052,1.285.177,1.937a.544.544,0,0,1-.308.663c-.761.481-1.52.969-2.243,1.5a.651.651,0,0,1-.858.038c-.547-.337-1.115-.989-1.663-.878s-.918.854-1.423,1.249c-.537.418-.575.815-.138,1.3.835.93.615,1.675-.032,2.737-.838,1.374-1.7,1.947-3.221,1.386-.279-.1-.416.015-.518.276-.283.73-.848,1.47-.8,2.173.038.578,1,.848,1.522,1.293a.994.994,0,0,0,.112.082.364.364,0,0,1,.16.47,19.554,19.554,0,0,0-.589,2.916c-.044.324-.217.409-.479.478-.64.17-1.552.091-1.849.571-.313.507-.1,1.341-.113,2.031a1.605,1.605,0,0,1,0,.208c-.057.375.1.556.481.576,1.53.079,2.012.909,2.3,2.4.27,1.382.039,2.148-1.137,2.736-.492.246-.542.56-.273,1.048.32.582.38,1.442.845,1.773.513.366,1.322-.07,2-.158a.507.507,0,0,1,.612.278,18.95,18.95,0,0,0,1.578,2.359.538.538,0,0,1,.047.681c-.323.621-1.115,1.206-.908,1.836s.987,1.06,1.489,1.6a.457.457,0,0,0,.7.092c.439-.3.914-.542,1.359-.829a.5.5,0,0,1,.682-.006,19.194,19.194,0,0,0,2.415,1.619.449.449,0,0,1,.258.558C618.556,35.14,618.493,35.715,618.4,36.331ZM611.006.046a.669.669,0,0,0-.6-.15Q597.163-.11,583.916-.121c-.553,0-.64.192-.634.678.025,1.826.033,3.653,0,5.479-.011.564.117.732.711.73,6.959-.023,13.917-.015,20.876-.015,1.327,0,1.347.008,1.832-1.239.182-.468.4-.652.913-.519s1.049.157,1.572.25a.6.6,0,0,0,.714-.234c.23-.321.11-.544-.054-.809-.3-.49-.575-1-.9-1.478a.488.488,0,0,1,.094-.755C609.7,1.346,610.346.694,611.006.046Zm1.017,36.261a96.815,96.815,0,0,0-4.533,12.627,25.733,25.733,0,0,0-1.26,7.275A5.71,5.71,0,0,0,617.5,57.333a9.626,9.626,0,0,0-.077-3.787,69.137,69.137,0,0,0-3.332-11.694C613.43,39.994,612.714,38.155,612.023,36.307Zm5.314,7.887a64.406,64.406,0,0,1,2.308,8.746,10.749,10.749,0,0,1-.241,6.007,9.463,9.463,0,0,1-1.738,2.709c.1.047.135.083.174.083,4.368,0,8.736,0,13.1.016.513,0,.407-.3.379-.592a19.476,19.476,0,0,0-13.985-16.97Zm-14.849-1.1c-.026-.058-.054-.121-.081-.184-.774-1.873-1.556-3.743-2.317-5.621-.139-.342-.29-.308-.569-.173a29.519,29.519,0,0,0-6.65,4.451c-.267.235-.3.378-.027.645q2.126,2.087,4.215,4.21c.209.211.346.293.614.052a20.91,20.91,0,0,1,4.514-3.055C602.324,43.351,602.51,43.325,602.487,43.1Zm30.476.383c-1.55,1.557-3.065,3.082-4.585,4.6-.163.164-.264.283-.062.511a20.771,20.771,0,0,1,3.122,4.643c.122.247.238.261.48.159q2.837-1.2,5.686-2.36c.241-.1.318-.189.19-.456A28.233,28.233,0,0,0,632.963,43.479Zm-37.244,4.868c-.08-.093-.135-.165-.2-.228-1.454-1.454-2.916-2.9-4.358-4.366-.25-.254-.361-.127-.528.061a29.416,29.416,0,0,0-4.505,6.7c-.145.3-.109.419.214.549q2.788,1.128,5.555,2.307c.3.127.435.074.577-.218a20.621,20.621,0,0,1,2.991-4.478C595.554,48.574,595.631,48.462,595.719,48.347Zm41.357,13.4c.969,0,1.938-.016,2.907.008.4.01.574-.06.544-.522a30.006,30.006,0,0,0-1.561-7.836c-.108-.314-.239-.361-.551-.23-1.843.781-3.695,1.541-5.548,2.3-.3.124-.4.237-.281.6a18.678,18.678,0,0,1,1.007,5.136c.022.476.226.565.645.554C635.184,61.734,636.13,61.75,637.076,61.75Zm-50.369,0c.97,0,1.941-.016,2.911.007.416.01.628-.075.651-.553a19.171,19.171,0,0,1,1.006-5.145c.093-.282.113-.442-.218-.575q-2.821-1.137-5.624-2.319c-.286-.12-.408-.072-.506.21a28.682,28.682,0,0,0-1.588,7.911c-.021.37.092.479.456.471C584.766,61.736,585.737,61.75,586.708,61.75Zm53.745-10.9c.063-.088.105-.119.105-.151q.01-7.664.015-15.327c0-.457-.177-.449-.5-.233a.513.513,0,0,0-.292.611c.131.632.189,1.279.3,1.915a.44.44,0,0,1-.317.576c-1.709.69-3.415,1.389-5.111,2.111-.318.135-.488.109-.682-.18-.348-.517-.734-1.007-1.109-1.506-.107-.142-.183-.344-.418-.3s-.529-.021-.658.276c-.14.322-.02.537.245.762a30.806,30.806,0,0,1,6.255,7.276A34.42,34.42,0,0,1,640.452,50.854Zm-30.3-16.516c-.346.016-.64.013-.931.045a30.266,30.266,0,0,0-6.608,1.446c-.464.16-.557.3-.36.751.749,1.734,1.483,3.476,2.172,5.235.195.5.411.555.862.373a5.528,5.528,0,0,1,1.265-.346,1.165,1.165,0,0,0,1.158-1.043,1.947,1.947,0,0,1,.137-.391ZM623.7,38.4c-.357-.123-.43.131-.53.375-.544,1.322-1.076,2.65-1.655,3.957-.187.423-.1.588.3.779a18.373,18.373,0,0,1,4.242,2.853c.379.338.559.267.873-.056C628.2,45,629.5,43.716,630.8,42.424c.556-.557.516-.834-.165-1.206a1.187,1.187,0,0,0-.609-.069c-1.573,0-3.145-.015-4.718.006-.4.005-.574-.1-.644-.51-.1-.59-.288-1.164-.425-1.748C624.166,38.6,624.049,38.375,623.7,38.4Zm-7.529-2.689a.361.361,0,0,0-.139-.475.665.665,0,0,0-.858-.086c-.93.581-.943.55-.564,1.549.514,1.356,1.051,2.7,1.513,4.078a1.31,1.31,0,0,0,1.222,1.072c.635.052,1.361.674,1.81.366.465-.319.54-1.174.848-1.761.245-.466.074-.629-.347-.793-1.094-.425-2.168-.9-3.262-1.327-.419-.163-.636-.32-.493-.843A13.969,13.969,0,0,0,616.17,35.709Z" transform="translate(0 0)" fill="#030403"/>
      <path id="Trazado_650560" data-name="Trazado 650560" d="M589.255,92.6v-.743q0-20.116-.016-40.232c0-.671.161-.829.829-.827q10.2.041,20.394,0c.636,0,.746.125.482.708-.475,1.05-.448,1.062.506,1.762.3.218.579.464.894.654a.594.594,0,0,1,.278.7c-.047.319-.247.4-.51.464-.628.149-1.248.336-1.881.464-.3.06-.367.191-.366.465.008,1.873.011,3.746,0,5.619,0,.334.144.422.438.483.61.125,1.209.3,1.815.449.257.064.464.142.508.466a.615.615,0,0,1-.283.7c-.462.3-.875.685-1.344.978a.63.63,0,0,0-.294.942q1.039,2.375,1.989,4.789c.182.463.386.575.864.451.533-.139,1.1-.148,1.642-.251.278-.053.466-.052.64.222a.57.57,0,0,1,.033.736,5.711,5.711,0,0,0-.991,1.729c-.151.665-.548.613-.978.674a30.712,30.712,0,0,0-20.715,12.126A40.937,40.937,0,0,0,589.255,92.6ZM607.6,60.029q-.007-2.325-.013-4.649c0-.577-.02-1.156.021-1.73.034-.467-.138-.572-.585-.57q-7.447.024-14.894,0c-.5,0-.6.145-.6.617.023,2.632.027,5.265,0,7.9-.006.541.132.68.675.677,4.411-.024,8.821-.007,13.232-.02.7,0,1.67.318,2.044-.143C607.832,61.667,607.583,60.74,607.6,60.029Zm-5.714,6.807h4.152c1.567,0,1.535,0,1.577-1.58.016-.608-.194-.706-.741-.7-3,.026-6,.012-9,.012-1.808,0-1.793,0-1.764,1.79.007.408.137.491.513.487C598.378,66.826,600.132,66.836,601.885,66.836Zm-.016,2.315h-4.083c-1.676,0-1.657,0-1.674,1.672-.005.482.117.612.6.608,3.068-.024,6.136-.012,9.2-.012,1.723,0,1.707,0,1.69-1.741,0-.436-.135-.541-.551-.536C605.329,69.163,603.6,69.151,601.869,69.151Zm-2.3,4.583h-1.8c-1.662,0-1.647,0-1.651,1.7,0,.438.094.591.563.581,1.548-.031,3.1-.012,4.646-.012,1.776,0,1.765,0,1.7-1.805-.013-.362-.113-.478-.475-.47C601.555,73.747,600.561,73.733,599.567,73.733Zm-8.026,1.07c0,1.2,0,1.2,1.233,1.2,1.07,0,1.07,0,1.07-1.038,0-1.233,0-1.233-1.218-1.233C591.541,73.732,591.541,73.732,591.541,74.8Zm0-4.583c0,1.2,0,1.2,1.233,1.2,1.07,0,1.07,0,1.07-1.036,0-1.235,0-1.235-1.217-1.235C591.541,69.149,591.541,69.149,591.541,70.22Zm2.3-4.566c0-1.088,0-1.088-1.089-1.088h-.069c-1.145,0-1.145,0-1.145,1.15,0,1.121,0,1.121,1.1,1.121C593.844,66.837,593.844,66.837,593.844,65.654Z" transform="translate(-5.968 -41.754)" fill="#e3e6e9"/>
      <path id="Trazado_650561" data-name="Trazado 650561" d="M683.928,42.336c.089-.616.152-1.192.263-1.757a.449.449,0,0,0-.258-.558,19.2,19.2,0,0,1-2.415-1.619.5.5,0,0,0-.682.006c-.446.288-.92.533-1.359.829a.457.457,0,0,1-.7-.092c-.5-.543-1.281-.975-1.489-1.6s.585-1.216.907-1.836a.538.538,0,0,0-.047-.681,18.937,18.937,0,0,1-1.578-2.359.507.507,0,0,0-.612-.278c-.678.088-1.488.524-2,.158-.464-.332-.524-1.191-.845-1.773-.269-.488-.219-.8.273-1.048,1.176-.588,1.407-1.354,1.137-2.736-.291-1.493-.773-2.323-2.3-2.4-.376-.019-.538-.2-.481-.576a1.616,1.616,0,0,0,0-.208c.015-.691-.2-1.525.113-2.031.3-.48,1.209-.4,1.849-.571.262-.069.436-.154.479-.478a19.546,19.546,0,0,1,.588-2.916.364.364,0,0,0-.16-.47,1.011,1.011,0,0,1-.112-.082c-.522-.445-1.484-.715-1.522-1.293-.046-.7.519-1.443.8-2.173.1-.261.239-.379.518-.276,1.52.561,2.383-.012,3.221-1.386.648-1.062.867-1.807.032-2.737-.437-.486-.4-.883.138-1.3.506-.394.888-1.14,1.423-1.249s1.117.541,1.664.878a.651.651,0,0,0,.858-.038c.724-.534,1.482-1.022,2.243-1.5a.544.544,0,0,0,.309-.663c-.125-.652-.442-1.473-.177-1.937s1.165-.539,1.746-.859c.532-.293.89-.228,1.155.316.561,1.15,1.33,1.293,2.63,1.08,1.573-.258,2.389-.826,2.47-2.4.017-.335.21-.41.509-.4q1.006.02,2.012,0a.392.392,0,0,1,.462.379c.065.363.216.713.252,1.077.072.734.444,1.038,1.177,1.1a12.791,12.791,0,0,1,2.169.434.626.626,0,0,0,.793-.294c.376-.521.656-1.354,1.2-1.446.564-.1,1.22.433,1.853.632.562.176.795.461.57,1.044a1.8,1.8,0,0,0,1.215,2.6.949.949,0,0,1,.342.233,1.606,1.606,0,0,0,2.581.076c.536-.5.975-.4,1.411.171.373.493,1.169.827,1.194,1.366s-.519,1.092-.855,1.613a.674.674,0,0,0,.014.914c.529.7,1,1.441,1.467,2.184.179.285.336.438.709.351.47-.11.97-.1,1.437-.217.419-.107.62-.016.765.4.235.674.792,1.35.733,1.98-.063.671-1.013.9-1.548,1.352a.531.531,0,0,0-.213.633c.217.921.4,1.85.552,2.784.049.31.17.449.451.5a.521.521,0,0,1,.068.016c.631.2,1.608.086,1.832.593a6.533,6.533,0,0,1,.106,2.392c0,.215-.083.353-.315.372-.046,0-.09.03-.135.031-1.575.058-2.067.923-2.341,2.435-.24,1.327-.081,2.114,1.11,2.678.474.224.583.543.318,1.042-.322.608-.4,1.5-.882,1.827s-1.321-.085-2-.184a.5.5,0,0,0-.6.3,19.091,19.091,0,0,1-1.583,2.357.468.468,0,0,0-.017.676.332.332,0,0,1,.033.061c.3.587,1.074,1.2.872,1.716-.27.693-1.062,1.179-1.617,1.766a.336.336,0,0,1-.539-.007c-1.2-1.122-2.219-.882-3.5.073-.958.713-1.516,1.278-1.077,2.449.281.75-.068,1.063-.754,1.256-.572.161-1.16.674-1.655.58-.511-.1-.774-.857-1.113-1.346a.791.791,0,0,0-1.013-.39,23.974,23.974,0,0,1-2.578.515.529.529,0,0,0-.5.46c-.159.645-.146,1.526-.565,1.865-.494.4-1.378.064-2.087.133-.484.047-.76-.1-.778-.6a1.932,1.932,0,0,0-2.289-2.1,1.434,1.434,0,0,1-.672-.149c-.843-.425-1.3-.041-1.765.66-.718,1.091-.761,1.063-1.966.567-.341-.14-.677-.294-1.022-.424C683.989,42.709,683.827,42.586,683.928,42.336ZM693.484,5.9a17.176,17.176,0,1,0,17.191,17.182A17.172,17.172,0,0,0,693.484,5.9Z" transform="translate(-65.524 -6.005)" fill="#f2d47d"/>
      <path id="Trazado_650562" data-name="Trazado 650562" d="M616.99,17.952c-.66.648-1.3,1.3-1.971,1.922a.488.488,0,0,0-.094.755c.326.475.6.987.9,1.478.165.265.285.489.054.809a.6.6,0,0,1-.714.234c-.523-.093-1.06-.119-1.572-.25s-.731.051-.913.519c-.485,1.247-.505,1.239-1.832,1.239-6.958,0-13.917-.008-20.876.015-.594,0-.722-.165-.711-.73.037-1.826.029-3.653,0-5.479-.006-.485.081-.679.634-.678q13.247.028,26.494.017A.669.669,0,0,1,616.99,17.952Zm-20.854,3.277c0,1.163,0,1.163,1.155,1.163s1.162,0,1.163-1.166c0-1.151,0-1.151-1.167-1.151C596.137,20.075,596.137,20.075,596.137,21.229Zm-2.269.033c0-1.187,0-1.187-1.2-1.187-1.115,0-1.115,0-1.115,1.118,0,1.2,0,1.2,1.184,1.2C593.868,22.392,593.868,22.392,593.868,21.262Zm6.85-.041c0,1.171,0,1.171,1.149,1.171,1.171,0,1.171,0,1.171-1.158s0-1.158-1.159-1.158S600.718,20.075,600.718,21.222Z" transform="translate(-5.985 -17.907)" fill="#bbda89"/>
      <path id="Trazado_650563" data-name="Trazado 650563" d="M677.732,149.012c.691,1.848,1.407,3.686,2.068,5.545a69.126,69.126,0,0,1,3.332,11.694,9.627,9.627,0,0,1,.077,3.787,5.71,5.71,0,0,1-11.269-1.123,25.735,25.735,0,0,1,1.26-7.275A96.8,96.8,0,0,1,677.732,149.012Zm-.075,23.161a3.439,3.439,0,1,0-3.461-3.422A3.472,3.472,0,0,0,677.657,172.173Z" transform="translate(-65.709 -112.705)" fill="#caced5"/>
      <path id="Trazado_650564" data-name="Trazado 650564" d="M711.955,177.423a19.476,19.476,0,0,1,13.985,16.97c.029.292.134.593-.379.592-4.368-.015-8.735-.011-13.1-.016-.038,0-.077-.036-.174-.083a9.46,9.46,0,0,0,1.738-2.709,10.749,10.749,0,0,0,.241-6.007A64.4,64.4,0,0,0,711.955,177.423Z" transform="translate(-94.618 -133.229)" fill="#6dbde3"/>
      <path id="Trazado_650565" data-name="Trazado 650565" d="M636.45,177.871c-.556,2.092-1.261,4.141-1.733,6.257a34.308,34.308,0,0,0-.742,4.432,8.083,8.083,0,0,0,1.956,6.224c.075.087.145.178.214.27.011.014,0,.041.005.079-.15.2-.374.1-.563.1-4.135.006-8.269,0-12.4.016-.508,0-.689-.094-.617-.643,1.054-8.073,5.33-13.625,12.936-16.581a8.852,8.852,0,0,1,.863-.241Z" transform="translate(-30.033 -133.492)" fill="#6dbde3"/>
      <path id="Trazado_650566" data-name="Trazado 650566" d="M632.876,157.659c.022.229-.163.256-.3.325a20.908,20.908,0,0,0-4.514,3.055c-.268.241-.4.159-.613-.052q-2.1-2.117-4.216-4.21c-.272-.267-.239-.409.027-.645a29.52,29.52,0,0,1,6.65-4.451c.279-.135.43-.169.569.173.761,1.878,1.543,3.748,2.317,5.621C632.822,157.538,632.85,157.6,632.876,157.659Z" transform="translate(-30.389 -114.563)" fill="#82d1ec"/>
      <path id="Trazado_650567" data-name="Trazado 650567" d="M755.861,174.846a28.238,28.238,0,0,1,4.831,7.1c.128.267.051.357-.19.456q-2.848,1.168-5.686,2.36c-.243.1-.358.088-.48-.159a20.781,20.781,0,0,0-3.122-4.643c-.2-.227-.1-.347.062-.511C752.8,177.928,754.311,176.4,755.861,174.846Z" transform="translate(-122.897 -131.367)" fill="#82d1ed"/>
      <path id="Trazado_650568" data-name="Trazado 650568" d="M608.912,180.056c-.088.115-.165.227-.253.329a20.629,20.629,0,0,0-2.991,4.478c-.142.292-.278.345-.577.218q-2.769-1.173-5.555-2.307c-.323-.131-.359-.253-.214-.549a29.415,29.415,0,0,1,4.505-6.7c.167-.188.278-.315.528-.061,1.442,1.465,2.9,2.912,4.358,4.366C608.777,179.891,608.832,179.963,608.912,180.056Z" transform="translate(-13.193 -131.709)" fill="#82d1ed"/>
      <path id="Trazado_650569" data-name="Trazado 650569" d="M771.247,218.162c-.946,0-1.892-.017-2.838.008-.419.011-.623-.079-.645-.554a18.68,18.68,0,0,0-1.007-5.136c-.122-.363-.022-.476.281-.6,1.853-.756,3.7-1.517,5.548-2.3.312-.132.443-.084.551.23a30,30,0,0,1,1.561,7.836c.03.462-.146.532-.544.522C773.186,218.146,772.216,218.162,771.247,218.162Z" transform="translate(-134.171 -156.412)" fill="#82d1ed"/>
      <path id="Trazado_650570" data-name="Trazado 650570" d="M592.849,218.166c-.97,0-1.941-.014-2.911.007-.364.008-.477-.1-.456-.471a28.685,28.685,0,0,1,1.588-7.911c.1-.282.22-.331.506-.21q2.8,1.18,5.624,2.319c.331.134.311.294.218.575a19.177,19.177,0,0,0-1.006,5.145c-.022.478-.235.563-.651.553C594.79,218.151,593.82,218.166,592.849,218.166Z" transform="translate(-6.142 -156.416)" fill="#82d1ed"/>
      <path id="Trazado_650571" data-name="Trazado 650571" d="M772.522,160.156a34.458,34.458,0,0,0-2.166-4.169,30.806,30.806,0,0,0-6.255-7.276c-.265-.225-.384-.44-.245-.762.129-.3.421-.232.658-.276s.312.157.418.3c.374.5.761.989,1.109,1.506.194.288.364.315.682.18,1.7-.722,3.4-1.421,5.111-2.111a.441.441,0,0,0,.317-.576c-.114-.636-.172-1.283-.3-1.915a.513.513,0,0,1,.292-.611c.324-.216.5-.224.5.233q-.008,7.664-.015,15.327C772.627,160.037,772.584,160.068,772.522,160.156Z" transform="translate(-132.069 -109.302)" fill="#e3e6e9"/>
      <path id="Trazado_650572" data-name="Trazado 650572" d="M665.254,141.92l-2.3,6.071a1.951,1.951,0,0,0-.137.391,1.165,1.165,0,0,1-1.158,1.043,5.527,5.527,0,0,0-1.265.346c-.451.182-.667.124-.862-.373-.689-1.759-1.422-3.5-2.172-5.235-.2-.456-.1-.592.36-.751a30.263,30.263,0,0,1,6.608-1.446C664.613,141.933,664.907,141.936,665.254,141.92Z" transform="translate(-55.105 -107.582)" fill="#82d1ec"/>
      <path id="Trazado_650573" data-name="Trazado 650573" d="M728.946,156.462c.35-.023.467.2.537.5.137.584.323,1.158.425,1.748.07.409.249.515.644.51,1.572-.021,3.145-.011,4.717-.006a1.186,1.186,0,0,1,.609.069c.68.371.721.649.165,1.206-1.291,1.292-2.594,2.574-3.868,3.883-.314.323-.494.394-.873.056a18.37,18.37,0,0,0-4.242-2.853c-.4-.192-.487-.357-.3-.779.579-1.307,1.111-2.635,1.655-3.957C728.516,156.593,728.589,156.339,728.946,156.462Z" transform="translate(-105.247 -118.064)" fill="#82d1ec"/>
      <path id="Trazado_650574" data-name="Trazado 650574" d="M703.083,145.08a13.981,13.981,0,0,1-.269,1.78c-.143.522.074.68.493.842,1.094.425,2.168.9,3.262,1.327.421.164.592.326.347.793-.309.588-.384,1.442-.848,1.761-.449.309-1.175-.314-1.81-.366a1.311,1.311,0,0,1-1.222-1.072c-.462-1.374-1-2.722-1.513-4.078-.379-1-.366-.968.564-1.549a.665.665,0,0,1,.858.086A.361.361,0,0,1,703.083,145.08Z" transform="translate(-86.913 -109.371)" fill="#82d1ec"/>
      <path id="Trazado_650575" data-name="Trazado 650575" d="M672.313,177.654c.049-.054.1-.079.151-.005.007.011-.043.058-.066.089Z" transform="translate(-65.981 -133.359)" fill="#6dbde3"/>
      <path id="Trazado_650576" data-name="Trazado 650576" d="M613.555,65.962c-.016.711.233,1.638-.122,2.076-.373.461-1.339.141-2.043.143-4.41.013-8.821,0-13.232.02-.543,0-.681-.136-.675-.677.03-2.632.026-5.265,0-7.9,0-.472.1-.619.6-.617q7.447.03,14.894,0c.447,0,.619.1.585.57-.041.574-.017,1.153-.021,1.73-.207.008-.415.023-.622.023-4.155,0-8.31.009-12.465-.01-.5,0-.688.105-.665.643.044,1.06.045,2.124,0,3.184-.025.588.111.789.751.781,3.162-.037,6.325-.021,9.487-.015C611.2,65.921,612.379,65.947,613.555,65.962Z" transform="translate(-11.923 -47.687)" fill="#040303"/>
      <path id="Trazado_650577" data-name="Trazado 650577" d="M619.549,71.953c-1.176-.015-2.352-.041-3.528-.043-3.162-.006-6.325-.022-9.487.015-.64.008-.776-.193-.751-.781.045-1.06.044-2.124,0-3.184-.022-.538.165-.645.665-.643,4.155.019,8.31.011,12.465.01.207,0,.415-.015.622-.023Q619.543,69.629,619.549,71.953Z" transform="translate(-17.918 -53.679)" fill="#ec8673"/>
      <path id="Trazado_650578" data-name="Trazado 650578" d="M619.754,102.64c-1.753,0-3.507-.01-5.26.008-.376,0-.506-.079-.513-.487-.029-1.79-.044-1.79,1.764-1.79,3,0,6,.014,9-.012.547,0,.758.094.741.7-.042,1.579-.01,1.58-1.577,1.58Z" transform="translate(-23.837 -77.557)" fill="#020202"/>
      <path id="Trazado_650579" data-name="Trazado 650579" d="M619.752,116.89c1.73,0,3.46.012,5.19-.009.416-.005.547.1.551.536.017,1.741.033,1.741-1.69,1.741-3.068,0-6.136-.012-9.2.012-.488,0-.61-.126-.6-.608.018-1.671,0-1.672,1.674-1.672Z" transform="translate(-23.851 -89.493)" fill="#020202"/>
      <path id="Trazado_650580" data-name="Trazado 650580" d="M617.456,133.4c.994,0,1.988.014,2.981-.007.361-.008.462.108.475.47.063,1.806.075,1.805-1.7,1.805-1.549,0-3.1-.019-4.646.012-.469.009-.564-.143-.563-.581,0-1.7-.011-1.7,1.651-1.7Z" transform="translate(-23.857 -101.424)" fill="#020202"/>
      <path id="Trazado_650581" data-name="Trazado 650581" d="M597.531,134.489c0-1.071,0-1.071,1.085-1.071,1.218,0,1.218,0,1.218,1.233,0,1.038,0,1.038-1.069,1.038C597.531,135.689,597.531,135.689,597.531,134.489Z" transform="translate(-11.958 -101.44)" fill="#060604"/>
      <path id="Trazado_650582" data-name="Trazado 650582" d="M597.531,117.979c0-1.07,0-1.07,1.086-1.07,1.217,0,1.217,0,1.217,1.235,0,1.036,0,1.036-1.07,1.036C597.531,119.18,597.531,119.18,597.531,117.979Z" transform="translate(-11.958 -89.513)" fill="#060604"/>
      <path id="Trazado_650583" data-name="Trazado 650583" d="M599.834,101.487c0,1.183,0,1.183-1.2,1.183-1.1,0-1.1,0-1.1-1.121,0-1.15,0-1.15,1.145-1.15h.069C599.834,100.4,599.834,100.4,599.834,101.487Z" transform="translate(-11.958 -77.587)" fill="#060604"/>
      <path id="Trazado_650584" data-name="Trazado 650584" d="M705.569,17.832A17.176,17.176,0,1,1,688.41,35.043,17.18,17.18,0,0,1,705.569,17.832ZM720.482,35a14.9,14.9,0,1,0-14.9,14.922A14.933,14.933,0,0,0,720.482,35Z" transform="translate(-77.609 -17.94)" fill="#030302"/>
      <path id="Trazado_650585" data-name="Trazado 650585" d="M614.026,27.187c0-1.154,0-1.154,1.151-1.154,1.166,0,1.166,0,1.166,1.151,0,1.166,0,1.166-1.163,1.166S614.026,28.35,614.026,27.187Z" transform="translate(-23.874 -23.864)" fill="#0a0c07"/>
      <path id="Trazado_650586" data-name="Trazado 650586" d="M599.832,27.22c0,1.13,0,1.13-1.129,1.13-1.184,0-1.184,0-1.184-1.2,0-1.118,0-1.118,1.116-1.118C599.832,26.033,599.832,26.033,599.832,27.22Z" transform="translate(-11.949 -23.864)" fill="#0a0c07"/>
      <path id="Trazado_650587" data-name="Trazado 650587" d="M630.53,27.179c0-1.146,0-1.146,1.161-1.146s1.159,0,1.159,1.158,0,1.158-1.171,1.158C630.53,28.35,630.53,28.35,630.53,27.179Z" transform="translate(-35.797 -23.864)" fill="#0a0c07"/>
      <path id="Trazado_650588" data-name="Trazado 650588" d="M683.535,214.547a3.439,3.439,0,1,1,3.43-3.453A3.468,3.468,0,0,1,683.535,214.547Zm1.111-3.443a1.126,1.126,0,1,0-2.251.04,1.126,1.126,0,0,0,2.251-.04Z" transform="translate(-71.587 -155.079)" fill="#030403"/>
      <path id="Trazado_650589" data-name="Trazado 650589" d="M726.386,40.933a14.9,14.9,0,1,1-14.933-14.882A14.949,14.949,0,0,1,726.386,40.933Zm-22.934.024a5.786,5.786,0,0,0,2.286-4.351c.055-1.392.051-1.392-1.321-1.392-.931,0-.935,0-.939.949a3.488,3.488,0,0,1-1.812,3.206c-.355.208-.529.193-.51-.293.028-.738.007-1.478.007-2.217,0-1.654,0-1.631-1.631-1.658-.513-.008-.656.115-.651.642.027,3.049.013,6.1.013,9.147,0,1.771,0,1.755,1.786,1.717.415-.009.5-.152.49-.525-.02-1.085.019-2.172-.018-3.256-.021-.621.2-.6.618-.336a3.585,3.585,0,0,1,1.7,2.643c.075.484-.265,1.148.192,1.408.385.219.994.017,1.5.064s.584-.169.6-.627A5.916,5.916,0,0,0,703.452,40.956Zm17.183-5.745c-.994,0-1.988.012-2.981-.007-.326-.006-.423.088-.44.423-.094,1.86-.1,1.872,1.743,1.887.411,0,.556.087.55.531q-.038,2.911,0,5.823c.007.467-.175.51-.562.517-.565.01-1.341-.275-1.64.132-.278.378-.051,1.113-.09,1.688-.027.412.137.5.516.494,1.941-.017,3.883-.021,5.824,0,.436.006.577-.127.536-.547-.055-.571.233-1.3-.116-1.676-.321-.344-1.051-.107-1.6-.094-.435.011-.59-.088-.583-.561q.044-2.877,0-5.754c-.007-.481.16-.557.588-.557,1.8,0,1.788-.011,1.713-1.854-.015-.367-.123-.467-.481-.459C722.623,35.227,721.629,35.211,720.635,35.211Zm-12.575,5.7V45c0,1.734,0,1.711,1.725,1.711.5,0,.565-.189.554-.606-.024-.924-.007-1.849-.007-2.773,0-1.173,0-1.173,1.165-1.226a3.445,3.445,0,1,0-.1-6.888c-.924-.012-1.85.023-2.773-.013-.457-.018-.581.121-.574.574C708.075,37.487,708.06,39.2,708.06,40.907Z" transform="translate(-83.513 -23.877)" fill="#f9e7ad"/>
      <path id="Trazado_650590" data-name="Trazado 650590" d="M690.684,217.1a1.126,1.126,0,0,1-2.252.04,1.126,1.126,0,1,1,2.252-.04Z" transform="translate(-77.625 -161.078)" fill="#ec8673"/>
      <path id="Trazado_650591" data-name="Trazado 650591" d="M709.433,64.764a5.916,5.916,0,0,1,2.307,5.121c-.017.458-.091.674-.6.627s-1.113.155-1.5-.064c-.457-.26-.117-.925-.192-1.408a3.585,3.585,0,0,0-1.7-2.643c-.421-.261-.639-.285-.618.336.037,1.084,0,2.171.018,3.256.007.372-.076.516-.49.525-1.786.038-1.786.053-1.786-1.717,0-3.049.014-6.1-.013-9.147,0-.527.138-.65.651-.642,1.631.026,1.631,0,1.631,1.658,0,.739.021,1.479-.007,2.217-.019.486.155.5.51.293a3.488,3.488,0,0,0,1.812-3.206c0-.949.008-.949.939-.949,1.373,0,1.377,0,1.321,1.392A5.786,5.786,0,0,1,709.433,64.764Z" transform="translate(-89.494 -47.685)" fill="#020202"/>
      <path id="Trazado_650592" data-name="Trazado 650592" d="M774.2,59.028c.993,0,1.988.015,2.981-.008.358-.008.466.092.481.459.075,1.843.087,1.856-1.713,1.854-.428,0-.6.076-.588.557q.045,2.876,0,5.754c-.007.473.148.572.583.561.547-.013,1.276-.25,1.6.094.349.374.061,1.1.116,1.676.04.42-.1.552-.536.547-1.941-.024-3.883-.019-5.824,0-.38,0-.544-.082-.516-.494.038-.575-.188-1.31.09-1.688.3-.407,1.075-.121,1.64-.132.388-.007.569-.051.562-.517q-.044-2.911,0-5.823c.006-.444-.139-.528-.55-.531-1.847-.015-1.837-.028-1.743-1.887.017-.335.114-.429.44-.423C772.209,59.039,773.2,59.028,774.2,59.028Z" transform="translate(-137.075 -47.694)" fill="#060604"/>
      <path id="Trazado_650593" data-name="Trazado 650593" d="M737.9,64.719c0-1.71.016-3.421-.011-5.13-.007-.454.117-.592.574-.574.923.036,1.849,0,2.773.013a3.445,3.445,0,1,1,.1,6.888c-1.165.053-1.165.053-1.165,1.226,0,.924-.016,1.849.007,2.773.011.417-.057.606-.554.606-1.725,0-1.725.022-1.725-1.711Zm2.265-2.246c.137.418-.4,1.232.731,1.148,1.029-.077,1.573-.4,1.58-1.143s-.539-1.07-1.564-1.157C739.857,61.231,740.232,61.944,740.163,62.472Z" transform="translate(-113.352 -47.689)" fill="#020202"/>
      <path id="Trazado_650594" data-name="Trazado 650594" d="M746.058,68.457c.068-.528-.306-1.242.746-1.153,1.025.087,1.571.412,1.564,1.157s-.551,1.066-1.579,1.143C745.658,69.689,746.195,68.875,746.058,68.457Z" transform="translate(-119.246 -53.673)" fill="#f9e7ad"/>
    </g>
    <rect id="Rectángulo_309092" data-name="Rectángulo 309092" width="85" height="85" transform="translate(1335 6589)" fill="none"/>
  </g>
</svg>
