<svg xmlns="http://www.w3.org/2000/svg" width="85" height="85" viewBox="0 0 85 85">
  <g id="Grupo_992178" data-name="Grupo 992178" transform="translate(-1335 -6589)">
    <rect id="Rectángulo_309092" data-name="Rectángulo 309092" width="85" height="85" transform="translate(1335 6589)" fill="none"/>
    <g id="Grupo_995180" data-name="Grupo 995180" transform="translate(528.498 6196.446)">
      <path id="Trazado_653844" data-name="Trazado 653844" d="M819.436,406.38c.007-2.274.031-4.548.009-6.822-.005-.5.143-.6.618-.6,3.552.021,7.1.028,10.656-.006.574-.006.619.2.616.67-.013,2.251.007,4.5.016,6.752-.009.254-.026.508-.026.763q0,9.747,0,19.5c0,4.8.007,9.608-.011,14.413,0,.506.1.71.646.672a12.841,12.841,0,0,1,2.087,0c.678.065.783-.211.782-.816q-.026-14.656-.019-29.313a2.256,2.256,0,0,1,.34-1.24c.8-1.3,1.562-2.628,2.339-3.943l2.579-4.207,2.552,4.183c.754,1.274,1.49,2.56,2.273,3.816a2.683,2.683,0,0,1,.407,1.5c-.011,9.724,0,19.449-.023,29.173,0,.662.152.849.833.848q17.411-.033,34.822-.016c1.74,0,1.74,0,1.644-1.771.007-.255.021-.51.021-.765q0-13.965,0-27.93c0-2.557-1.2-3.762-3.735-3.762H846.6c-1.056,0-1.056,0-1.117-1.006.065-1.088.065-1.088,1.171-1.088q16.2,0,32.4,0a5.287,5.287,0,0,1,5.435,3.9,5.954,5.954,0,0,1,.193,1.655q0,19.228,0,38.456a5.29,5.29,0,0,1-5.608,5.573q-9.268.013-18.536-.012c-.581,0-.727.137-.717.717.038,2.136.029,4.273,0,6.409-.005.459.121.594.578.574.811-.037,1.625-.02,2.438-.008a3.86,3.86,0,0,1,3.974,4.02c.02,1.021-.027,2.045.016,3.065.021.512-.161.6-.627.6-3.391-.019-6.783-.01-10.174-.01q-12.056,0-24.111.015c-.608,0-.8-.129-.755-.753.087-1.225-.081-2.461.1-3.686a3.77,3.77,0,0,1,3.558-3.232c.927-.039,1.859-.043,2.786-.006.478.02.569-.148.564-.587-.021-2.159-.031-4.319.005-6.479.009-.544-.159-.634-.658-.633q-9.3.026-18.606.009a5.281,5.281,0,0,1-5.391-3.864,6,6,0,0,1-.207-1.722q0-19.228,0-38.456a5.377,5.377,0,0,1,2.625-4.837c.479-.305.876-.419,1,.331a.865.865,0,0,0,.127.239c.079.24.144.486.242.718a.3.3,0,0,1-.149.449,3.494,3.494,0,0,0-1.764,3.431c.025,8.4.011,16.8.013,25.2,0,1.16.014,2.319.022,3.479-.008.417.013.838-.031,1.251-.05.464.165.535.564.525.905-.024,1.814-.053,2.716.008.655.044.791-.179.79-.8q-.028-16.957-.015-33.915C819.458,406.8,819.444,406.588,819.436,406.38ZM838.2,409.4c-.96,1.4-.892,1.3.454,2.284a2.129,2.129,0,0,0,2.867-.039c1.313-.918,1.362-.848.45-2.193-.012-.018-.039-.025-.058-.037l-1.856-3.191Zm4.955,30.541c.011-.369,0-.741.041-1.107.054-.479-.107-.638-.6-.625-1.365.034-2.732.012-4.1.012-1.682,0-1.682,0-1.55,1.719-.012.391,0,.785-.044,1.172-.058.5.158.619.628.61,1.361-.028,2.724-.01,4.085-.01C843.336,441.71,843.336,441.71,843.159,439.939Zm21.531,26.47a1.719,1.719,0,0,0-1.857-1.663q-13.831-.007-27.661,0a1.719,1.719,0,0,0-1.857,1.663,7.952,7.952,0,0,1-.043.968c-.114.705.154.87.857.868q14.455-.039,28.91-.018C864.835,468.228,864.835,468.228,864.69,466.409Zm-6.994-9.725a8.4,8.4,0,0,1,.054-.9c.111-.679-.161-.835-.827-.831-5.049.03-10.1.016-15.147.016-1.658,0-1.658,0-1.467,1.712-.084,1.381-.056,2.762-.014,4.144a9.37,9.37,0,0,1-.039,1.038c-.092.641.155.8.79.8,5-.027,10.007-.015,15.011-.015,1.785,0,1.785,0,1.653-1.819C857.752,459.447,857.781,458.065,857.7,456.684Zm-14.535-22.319c.008-.092.024-.185.024-.277q0-10.173,0-20.345c0-.046,0-.093,0-.139.031-.407-.1-.507-.467-.277-.609.382-1.256.709-1.84,1.126a1.167,1.167,0,0,1-1.605.017,13.167,13.167,0,0,0-1.666-1.008c-.19-.108-.379-.38-.6-.238-.207.13-.092.428-.092.648q-.008,8.6,0,17.21c0,1.091.019,2.181.03,3.272-.014.368,0,.74-.049,1.1-.073.57.179.706.709.694,1.363-.031,2.727-.01,4.09-.01,1.712,0,1.712,0,1.5-1.713A.241.241,0,0,0,843.161,434.365ZM829.2,439.94c.009-.208.026-.416.026-.625q0-18.778,0-37.555a2.1,2.1,0,0,1,0-.278c.047-.344-.113-.425-.436-.424q-3.415.017-6.83,0c-.356,0-.426.14-.415.452.02.534.027,1.069,0,1.6-.02.369.1.478.469.471,1.045-.022,2.091-.008,3.136-.008,1.565,0,1.544,0,1.532,1.575,0,.455-.163.533-.567.527-1.347-.021-2.695,0-4.042-.015-.366,0-.524.059-.533.483-.034,1.616-.052,1.616,1.552,1.616a4.3,4.3,0,0,0,.627-.005c.575-.086.747.132.73.716-.04,1.382-.009,1.383-1.378,1.383-1.559,0-1.539,0-1.531,1.573,0,.452.155.537.56.527,1.022-.025,2.044-.008,3.066-.008,1.561,0,1.546,0,1.514,1.6-.008.4-.13.514-.519.506-1.022-.023-2.044-.008-3.067-.008-1.608,0-1.6,0-1.551,1.622.01.357.1.5.468.477.556-.027,1.119.038,1.671-.019.62-.063.79.142.768.762-.049,1.344-.013,1.346-1.352,1.346-1.579,0-1.563,0-1.557,1.55,0,.421.1.566.539.552,1.021-.031,2.044-.01,3.066-.01,1.577,0,1.564,0,1.532,1.585-.008.387-.1.531-.509.521-1.021-.025-2.044-.008-3.066-.008-1.619,0-1.607,0-1.56,1.616.01.352.088.5.465.483.556-.027,1.119.037,1.671-.018.621-.063.792.147.77.765-.047,1.338-.012,1.339-1.363,1.339-1.617,0-1.6,0-1.545,1.634.013.373.132.472.485.466,1.045-.018,2.091-.006,3.136-.006,1.542,0,1.52,0,1.519,1.533,0,.48-.165.582-.6.574-1.324-.024-2.648-.013-3.973,0-.187,0-.5-.11-.525.175a13.367,13.367,0,0,0-.009,1.739c.01.216.241.171.394.173.581.006,1.165.04,1.742-.008s.758.128.741.722c-.04,1.394-.009,1.395-1.379,1.395-1.542,0-1.524,0-1.529,1.511,0,.451.113.607.577.593,1.021-.031,2.044-.01,3.066-.01,1.528,0,1.512,0,1.5,1.556,0,.425-.123.561-.552.553-1.3-.025-2.6.024-3.9-.023-.626-.023-.781.208-.65.759-.009.392.011.787-.033,1.174-.057.5.153.614.624.607,1.8-.025,3.6-.01,5.4-.01C829.319,441.71,829.319,441.71,829.2,439.94Zm53.357,9.885c.012-1.74-.013-3.481.054-5.219.026-.687-.176-.818-.833-.818q-32.775.028-65.55.016a4.163,4.163,0,0,1-.418,0c-.293-.03-.407.075-.4.386.023,1.879.03,3.758.042,5.638a2.563,2.563,0,0,0,.014.414c.327,1.695,1.6,2.638,3.559,2.639q29.981,0,59.961,0a5.658,5.658,0,0,0,.695-.029A3.069,3.069,0,0,0,882.557,449.826Z" transform="translate(0 0)" fill="#030302"/>
      <path id="Trazado_653845" data-name="Trazado 653845" d="M926.795,425.893c.061,1.006.061,1.006,1.117,1.006h32.256c2.539,0,3.734,1.2,3.734,3.762q0,13.965,0,27.93c0,.255-.014.51-.021.765l-34.615.005c-.906,0-.907,0-.907-.9q0-14,0-27.992a2.157,2.157,0,0,0-.286-1.113,28.606,28.606,0,0,1-1.953-3.431Zm22.749,3.1c-3.832,0-7.663.012-11.495-.013-.55,0-.693.143-.689.689q.037,5.258,0,10.516c0,.548.142.686.687.685q11.565-.028,23.129,0c.524,0,.651-.13.647-.65q-.037-5.293,0-10.586c0-.513-.114-.659-.645-.655C957.3,429,953.421,428.992,949.543,428.992Zm-17.6,0c-.882,0-1.765.015-2.647-.007-.365-.009-.522.058-.53.481-.033,1.6-.051,1.616,1.536,1.609.453,0,.579.116.578.576q-.021,12.359,0,24.719c0,.481-.156.569-.59.569-1.59,0-1.577.015-1.525,1.627.012.365.115.474.477.47,1.788-.016,3.575-.012,5.363,0,.308,0,.44-.062.46-.415.1-1.657.11-1.675-1.543-1.677-.466,0-.571-.142-.57-.59q.02-12.325,0-24.65c0-.466.088-.635.6-.629,1.578.018,1.565-.005,1.516-1.626-.011-.371-.119-.472-.479-.462C933.706,429.008,932.823,428.992,931.941,428.992Zm24.368,13.959c-1.695,0-3.389.013-5.084-.009-.439-.006-.6.092-.594.571.027,2.181.023,4.363,0,6.544,0,.439.1.591.567.588q5.014-.031,10.028,0c.432,0,.6-.082.593-.563q-.042-3.272,0-6.544c.007-.521-.18-.6-.639-.594C959.559,442.966,957.934,442.951,956.309,442.951Zm-13.389,7.683c1.694,0,3.387-.011,5.081.008.414,0,.563-.1.559-.54q-.033-3.305,0-6.61c0-.426-.118-.552-.547-.55q-5.046.024-10.092,0c-.421,0-.559.114-.555.545q.029,3.305,0,6.61c0,.429.116.552.546.546C939.578,450.619,941.249,450.634,942.919,450.634Zm-2.056,4.947h.835c1.675,0,1.675,0,1.586-1.68a.549.549,0,0,1,0-.069c.029-.329-.127-.453-.45-.451-1.322.008-2.654-.095-3.964.035-1.008.1-.277,1-.455,1.514-.118.34-.04.687.5.659C939.563,455.554,940.214,455.58,940.863,455.581Zm13.235,0h.834c1.683,0,1.666,0,1.612-1.664-.015-.447-.191-.547-.588-.539-.926.018-1.854-.006-2.781.008-1.749.027-1.5-.324-1.533,1.627-.006.422.167.583.579.572C952.847,455.568,953.473,455.58,954.1,455.581Zm5.6-2.2c-1.073,0-1.073,0-1.073.968,0,1.229,0,1.229,1.02,1.229,1.178,0,1.178,0,1.178-1.072C960.818,453.383,960.818,453.383,959.694,453.383Zm-12.226,1.11c-.016-1.163.162-1.107-.9-1.11-1.2,0-1.2,0-1.2.983,0,1.214,0,1.219,1.037,1.213C947.62,455.572,947.454,455.708,947.468,454.493Z" transform="translate(-81.308 -19.417)" fill="#92d3f8"/>
      <path id="Trazado_653846" data-name="Trazado 653846" d="M920.451,425.662a28.632,28.632,0,0,0,1.953,3.431,2.155,2.155,0,0,1,.286,1.113q-.009,14,0,27.991c0,.9,0,.9.907.9l34.615-.005c.1,1.771.1,1.771-1.644,1.771q-17.411,0-34.822.016c-.681,0-.834-.186-.833-.848.022-9.724.012-19.448.024-29.173a2.686,2.686,0,0,0-.406-1.5c-.784-1.256-1.519-2.542-2.274-3.816A8.524,8.524,0,0,1,920.451,425.662Z" transform="translate(-75.637 -19.154)" fill="#63bbf0"/>
      <path id="Trazado_653847" data-name="Trazado 653847" d="M883.941,425.554c-.777,1.316-1.542,2.64-2.339,3.943a2.253,2.253,0,0,0-.34,1.24q.014,14.656.019,29.313c0,.6-.1.88-.782.816a12.834,12.834,0,0,0-2.087,0c-.543.037-.648-.167-.646-.672.019-4.8.011-9.608.011-14.413q0-9.748,0-19.5c0-.254.017-.509.026-.763a6.9,6.9,0,0,1,1.767.114v3.625a30.192,30.192,0,0,0,2.227-3.614A6.971,6.971,0,0,1,883.941,425.554Z" transform="translate(-46.454 -19.144)" fill="#65bff5"/>
      <path id="Trazado_653848" data-name="Trazado 653848" d="M820.815,459.461c-.007-1.16-.021-2.319-.022-3.479,0-8.4.012-16.8-.013-25.2a3.494,3.494,0,0,1,1.764-3.431.3.3,0,0,0,.149-.449c-.1-.232-.163-.478-.242-.718l.718-.146c0,.3-.012.6-.012.9q0,15.727,0,31.455c0,.185-.014.372,0,.556.036.4-.152.529-.534.515C822.022,459.449,821.418,459.462,820.815,459.461Z" transform="translate(-5.38 -19.522)" fill="#92d3f8"/>
      <path id="Trazado_653849" data-name="Trazado 653849" d="M820.807,459.107c.6,0,1.207-.012,1.81.009.381.013.569-.114.534-.515-.016-.184,0-.371,0-.556q0-15.727,0-31.455c0-.3.008-.6.012-.9l1.648-.137c.007.208.021.417.021.625q0,16.958.015,33.915c0,.624-.135.847-.79.8-.9-.061-1.811-.032-2.715-.008-.4.011-.614-.06-.564-.525C820.82,459.945,820.8,459.525,820.807,459.107Z" transform="translate(-5.372 -19.168)" fill="#65bff5"/>
      <path id="Trazado_653850" data-name="Trazado 653850" d="M886.458,425.95a30.173,30.173,0,0,1-2.227,3.614v-3.625Z" transform="translate(-51.114 -19.45)" fill="#92d3f8"/>
      <path id="Trazado_653851" data-name="Trazado 653851" d="M820.849,565.555c-.012-1.879-.018-3.759-.042-5.638,0-.311.109-.416.4-.386.138.014.278,0,.418,0q32.776,0,65.551-.016c.658,0,.86.131.833.818-.067,1.738-.042,3.479-.054,5.219a5.423,5.423,0,0,1-3.273,1.287q-30.282-.038-60.563-.007a4.675,4.675,0,0,1-2.5-.713C821.347,565.955,821.194,565.624,820.849,565.555Zm29.438-2.5c-1.246.017-1.173-.167-1.177.906,0,1.188,0,1.188,1.007,1.188,1.213,0,1.216,0,1.212-1.053C851.325,562.927,851.446,563.061,850.287,563.051Zm4.116,0c-1.163.015-1.108-.156-1.11.9,0,1.19,0,1.19,1.005,1.191,1.215,0,1.219,0,1.214-1.051C855.506,562.9,855.633,563.065,854.4,563.051Zm4.17,0c-1.157.013-1.1-.15-1.1.917,0,1.177,0,1.177,1.019,1.178,1.2,0,1.205,0,1.2-1.064C859.689,562.9,859.813,563.065,858.573,563.051Z" transform="translate(-5.4 -115.73)" fill="#d7d6d9"/>
      <path id="Trazado_653852" data-name="Trazado 653852" d="M842.77,445.368c-.131-.551.024-.782.65-.759,1.3.048,2.6,0,3.9.023.429.008.547-.128.552-.553.016-1.556.032-1.555-1.5-1.556-1.022,0-2.045-.021-3.066.01-.464.014-.579-.142-.577-.593.006-1.511-.013-1.511,1.529-1.511,1.37,0,1.338,0,1.379-1.395.017-.594-.169-.77-.741-.722s-1.161.013-1.741.008c-.153,0-.385.044-.394-.173a13.387,13.387,0,0,1,.009-1.738c.025-.285.338-.174.525-.175,1.324-.01,2.649-.021,3.972,0,.439.008.6-.095.6-.574,0-1.533.023-1.533-1.519-1.533-1.045,0-2.091-.011-3.136.006-.352.006-.472-.093-.485-.466-.058-1.635-.072-1.634,1.545-1.634,1.351,0,1.316,0,1.363-1.339.022-.619-.149-.828-.77-.765-.552.056-1.115-.009-1.671.018-.377.018-.455-.132-.466-.483-.047-1.617-.058-1.617,1.56-1.617,1.022,0,2.045-.016,3.066.008.405.01.5-.134.509-.521.031-1.585.045-1.585-1.532-1.585-1.022,0-2.045-.021-3.066.01-.439.013-.538-.132-.539-.552-.006-1.55-.022-1.55,1.557-1.55,1.339,0,1.3,0,1.352-1.346.022-.62-.148-.825-.768-.762-.552.056-1.115-.009-1.671.019-.373.018-.458-.12-.468-.477-.044-1.623-.057-1.622,1.551-1.622,1.022,0,2.045-.016,3.067.008.389.009.511-.1.519-.506.032-1.6.047-1.6-1.514-1.6-1.022,0-2.045-.017-3.066.008-.406.01-.558-.075-.56-.527-.007-1.573-.028-1.573,1.531-1.573,1.369,0,1.338,0,1.378-1.383.017-.584-.154-.8-.73-.716a4.308,4.308,0,0,1-.627.005c-1.6,0-1.586,0-1.552-1.616.009-.424.167-.488.533-.483,1.347.017,2.695-.006,4.042.015.4.006.563-.072.567-.527.013-1.576.033-1.575-1.532-1.575-1.046,0-2.091-.015-3.136.008-.365.008-.49-.1-.469-.471.03-.532.022-1.068,0-1.6-.011-.312.059-.454.415-.452q3.415.021,6.83,0c.323,0,.483.079.436.424a2.118,2.118,0,0,0,0,.278q0,18.778,0,37.556c0,.208-.017.417-.026.625Z" transform="translate(-21.192 -5.43)" fill="#f5d558"/>
      <path id="Trazado_653853" data-name="Trazado 653853" d="M820.954,581.138c.346.068.5.4.776.567a4.678,4.678,0,0,0,2.5.713q30.282-.021,60.563.007a5.423,5.423,0,0,0,3.273-1.287,3.069,3.069,0,0,1-2.879,3.023,5.644,5.644,0,0,1-.695.029q-29.981,0-59.961,0c-1.963,0-3.233-.944-3.559-2.639A2.605,2.605,0,0,1,820.954,581.138Z" transform="translate(-5.505 -131.312)" fill="#a9a8ad"/>
      <path id="Trazado_653854" data-name="Trazado 653854" d="M897.776,471.081c-.011-1.091-.03-2.181-.03-3.272q0-8.605,0-17.21c0-.221-.115-.518.092-.648.224-.141.413.13.6.239a13.172,13.172,0,0,1,1.666,1.008,1.167,1.167,0,0,0,1.605-.017c.584-.417,1.231-.744,1.84-1.126.365-.229.5-.13.467.277,0,.046,0,.093,0,.139q0,10.173,0,20.345c0,.092-.016.185-.024.277Zm2.06-13.71v2.089c0,1.487,0,1.468,1.518,1.463.461,0,.591-.141.584-.594-.025-1.625-.01-3.25-.01-4.875,0-1.591,0-1.576-1.585-1.531-.4.011-.523.132-.515.524C899.851,455.421,899.836,456.4,899.836,457.371Zm0,11.5c0,.462.02.925-.005,1.385-.031.558.394.492.651.406.476-.16,1.275.513,1.415-.383a18.311,18.311,0,0,0,.032-2.7c0-.239-.053-.361-.337-.4-1.63-.218-1.756-.121-1.756,1.479C899.836,468.73,899.836,468.8,899.836,468.869Zm1.054-3.771c1.169-.018,1.026.156,1.035-.882.011-1.213,0-1.213-.91-1.213-1.18,0-1.18,0-1.18.95C899.835,465.1,899.835,465.1,900.89,465.1Z" transform="translate(-60.834 -36.728)" fill="#db6347"/>
      <path id="Trazado_653855" data-name="Trazado 653855" d="M909.834,609.845c-.042-1.382-.07-2.763.014-4.144h17.387c.084,1.381.056,2.763.015,4.144Z" transform="translate(-69.538 -149.016)" fill="#d7d6d9"/>
      <path id="Trazado_653856" data-name="Trazado 653856" d="M916.141,640.527c.146,1.819.146,1.819-1.65,1.819q-14.455,0-28.91.018c-.7,0-.971-.162-.857-.868a7.979,7.979,0,0,0,.043-.969q10.157.009,20.313.017Q910.611,640.545,916.141,640.527Z" transform="translate(-51.452 -174.118)" fill="#acabb0"/>
      <path id="Trazado_653857" data-name="Trazado 653857" d="M916.317,636.226q-5.53.009-11.061.017-10.157,0-20.313-.017a1.719,1.719,0,0,1,1.857-1.663q13.83-.007,27.661,0A1.719,1.719,0,0,1,916.317,636.226Z" transform="translate(-51.627 -169.817)" fill="#d7d6d9"/>
      <path id="Trazado_653858" data-name="Trazado 653858" d="M909.789,620.543H927.2c.132,1.82.132,1.82-1.653,1.82-5,0-10.008-.012-15.011.015-.634,0-.881-.155-.79-.8A9.339,9.339,0,0,0,909.789,620.543Z" transform="translate(-69.494 -159.714)" fill="#acabb0"/>
      <path id="Trazado_653859" data-name="Trazado 653859" d="M927.157,601.242H909.77c-.191-1.712-.191-1.712,1.467-1.712,5.049,0,10.1.014,15.147-.016.665,0,.938.152.826.831A8.4,8.4,0,0,0,927.157,601.242Z" transform="translate(-69.461 -144.558)" fill="#a9a8ad"/>
      <path id="Trazado_653860" data-name="Trazado 653860" d="M842.795,545.728l7.623,0c.118,1.769.118,1.769-1.629,1.769-1.8,0-3.6-.015-5.4.01-.471.007-.681-.1-.624-.607C842.805,546.515,842.786,546.12,842.795,545.728Z" transform="translate(-21.217 -105.79)" fill="#e9ba4c"/>
      <path id="Trazado_653861" data-name="Trazado 653861" d="M904.021,545.726c.177,1.771.177,1.771-1.543,1.771-1.362,0-2.724-.018-4.085.01-.47.009-.685-.106-.628-.61.045-.387.031-.781.044-1.173Z" transform="translate(-60.862 -105.788)" fill="#e9ba4c"/>
      <path id="Trazado_653862" data-name="Trazado 653862" d="M897.772,525.726l6.219.012a.237.237,0,0,1,.029.063c.215,1.713.215,1.713-1.5,1.713-1.363,0-2.727-.021-4.09.01-.531.012-.782-.124-.709-.694C897.77,526.466,897.758,526.094,897.772,525.726Z" transform="translate(-60.83 -91.373)" fill="#bc412e"/>
      <path id="Trazado_653863" data-name="Trazado 653863" d="M904.024,541.257h-6.212c-.132-1.719-.132-1.719,1.55-1.719,1.366,0,2.733.022,4.1-.012.5-.013.659.146.6.625C904.023,540.516,904.036,540.888,904.024,541.257Z" transform="translate(-60.866 -101.319)" fill="#f5d558"/>
      <path id="Trazado_653864" data-name="Trazado 653864" d="M904.485,436.369c.02.012.046.019.058.037.912,1.345.863,1.276-.45,2.193a2.129,2.129,0,0,1-2.867.039c-1.346-.98-1.414-.887-.454-2.284a2.878,2.878,0,0,1,.675.347,1.556,1.556,0,0,0,2.312.047A1.285,1.285,0,0,1,904.485,436.369Z" transform="translate(-62.569 -26.957)" fill="#f0c07f"/>
      <path id="Trazado_653865" data-name="Trazado 653865" d="M906.16,428.169a1.286,1.286,0,0,0-.726.379,1.556,1.556,0,0,1-2.312-.047,2.879,2.879,0,0,0-.676-.347l1.858-3.177Z" transform="translate(-64.243 -18.758)" fill="#f2d5aa"/>
      <path id="Trazado_653866" data-name="Trazado 653866" d="M978.547,436.955c3.878,0,7.756.011,11.634-.013.531,0,.648.142.645.655q-.035,5.293,0,10.586c0,.52-.124.651-.647.65q-11.564-.028-23.129,0c-.545,0-.691-.136-.687-.685q.039-5.258,0-10.516c0-.546.139-.693.689-.689C970.883,436.967,974.715,436.955,978.547,436.955Zm10.145,8.059c.009-1.834.015-3.668.031-5.5,0-.3-.032-.469-.4-.469q-9.722.014-19.444,0c-.3,0-.405.111-.4.405.02,1.857.03,3.713.043,5.57-.012.254-.036.508-.034.762.011,1.084-.13.935.905.936q8.869.008,17.739,0C988.794,446.721,988.794,446.721,988.691,445.014Z" transform="translate(-110.312 -27.381)" fill="#030302"/>
      <path id="Trazado_653867" data-name="Trazado 653867" d="M938.721,436.968c.882,0,1.765.016,2.646-.008.36-.01.467.091.479.462.049,1.621.062,1.645-1.516,1.626-.509-.006-.6.163-.6.629q.021,12.325,0,24.65c0,.447.1.589.57.589,1.653,0,1.64.02,1.543,1.677-.021.354-.152.417-.461.415-1.787-.01-3.575-.013-5.363,0-.362,0-.465-.106-.477-.47-.053-1.611-.066-1.626,1.525-1.627.434,0,.591-.088.59-.569q-.025-12.359,0-24.719c0-.459-.126-.577-.579-.576-1.587.006-1.569-.011-1.536-1.609.009-.423.166-.49.531-.481C936.956,436.983,937.839,436.968,938.721,436.968Z" transform="translate(-88.089 -27.394)" fill="#030302"/>
      <path id="Trazado_653868" data-name="Trazado 653868" d="M1019.568,486.954c1.625,0,3.25.015,4.875-.01.458-.007.646.073.639.594q-.046,3.272,0,6.544c.006.481-.16.565-.593.563q-5.014-.023-10.028,0c-.471,0-.571-.15-.567-.588.02-2.181.024-4.363,0-6.544-.006-.479.156-.577.594-.571C1016.179,486.967,1017.874,486.954,1019.568,486.954Zm-3.544,3.865c-.01.37.007.744-.035,1.112-.053.479.1.638.6.627,1.579-.033,3.159-.012,4.739-.012,1.72,0,1.72,0,1.619-1.729.008-.392-.014-.787.031-1.174.059-.507-.155-.611-.624-.6-1.569.028-3.139.011-4.708.011C1015.917,489.05,1015.917,489.05,1016.025,490.819Z" transform="translate(-144.568 -63.42)" fill="#030302"/>
      <path id="Trazado_653869" data-name="Trazado 653869" d="M971.932,494.64c-1.67,0-3.341-.014-5.011.01-.429.006-.55-.118-.546-.546q.031-3.3,0-6.61c0-.431.134-.547.555-.545q5.046.023,10.092,0c.429,0,.551.125.547.55q-.029,3.305,0,6.61c0,.443-.145.545-.559.54C975.319,494.629,973.625,494.64,971.932,494.64Zm-3.415-3.816c-.012.37,0,.743-.042,1.109-.055.482.111.637.609.627,1.6-.031,3.2-.011,4.8-.011,1.677,0,1.677,0,1.547-1.732.01-.394,0-.79.037-1.18.048-.457-.112-.6-.576-.593-1.6.026-3.2.01-4.8.01C968.382,489.053,968.382,489.053,968.517,490.824Z" transform="translate(-110.32 -63.423)" fill="#030302"/>
      <path id="Trazado_653870" data-name="Trazado 653870" d="M972.354,526.453c-.649,0-1.3-.026-1.948.008-.54.029-.618-.319-.5-.659.177-.51-.554-1.415.454-1.514,1.309-.129,2.641-.027,3.964-.035.323,0,.479.121.45.451a.549.549,0,0,0,0,.069c.09,1.68.09,1.68-1.586,1.68Z" transform="translate(-112.8 -90.29)" fill="#f7f9fa"/>
      <path id="Trazado_653871" data-name="Trazado 653871" d="M1019.969,526.523c-.626,0-1.252-.012-1.877,0-.412.011-.585-.15-.579-.572.029-1.95-.216-1.6,1.533-1.627.927-.015,1.854.01,2.781-.008.4-.008.574.092.588.539.054,1.665.07,1.665-1.612,1.665Z" transform="translate(-147.18 -90.36)" fill="#f7f9fa"/>
      <path id="Trazado_653872" data-name="Trazado 653872" d="M1043.577,524.342c1.125,0,1.125,0,1.125,1.125,0,1.073,0,1.073-1.178,1.072-1.021,0-1.021,0-1.02-1.229C1042.5,524.342,1042.5,524.342,1043.577,524.342Z" transform="translate(-165.192 -90.376)" fill="#f7f9fa"/>
      <path id="Trazado_653873" data-name="Trazado 653873" d="M997.15,525.452c-.014,1.214.152,1.079-1.061,1.086-1.038.006-1.038,0-1.037-1.213,0-.985,0-.986,1.2-.983C997.312,524.345,997.134,524.289,997.15,525.452Z" transform="translate(-130.99 -90.376)" fill="#f7f9fa"/>
      <path id="Trazado_653874" data-name="Trazado 653874" d="M923.345,572.164c1.159.01,1.038-.123,1.042,1.041,0,1.054,0,1.054-1.212,1.053-1.01,0-1.012,0-1.007-1.188C922.172,572,922.1,572.18,923.345,572.164Z" transform="translate(-78.457 -124.842)" fill="#f7f9fa"/>
      <path id="Trazado_653875" data-name="Trazado 653875" d="M938.257,572.164c1.229.014,1.1-.146,1.109,1.043.005,1.052,0,1.052-1.214,1.051-1.007,0-1.008,0-1.005-1.191C937.148,572.009,937.093,572.179,938.257,572.164Z" transform="translate(-89.253 -124.843)" fill="#f7f9fa"/>
      <path id="Trazado_653876" data-name="Trazado 653876" d="M953.222,572.165c1.241.014,1.116-.148,1.122,1.03,0,1.065,0,1.065-1.2,1.064-1.02,0-1.021,0-1.019-1.178C952.127,572.015,952.065,572.178,953.222,572.165Z" transform="translate(-100.049 -124.843)" fill="#f7f9fa"/>
      <path id="Trazado_653877" data-name="Trazado 653877" d="M905.286,467.7c0-.975.015-1.95-.007-2.924-.009-.391.117-.512.515-.523,1.585-.045,1.584-.06,1.584,1.531,0,1.625-.015,3.25.01,4.875.007.453-.123.593-.584.594-1.518.005-1.518.024-1.518-1.463Q905.286,468.74,905.286,467.7Z" transform="translate(-66.284 -47.052)" fill="#f7f9fa"/>
      <path id="Trazado_653878" data-name="Trazado 653878" d="M905.29,513.227c0-.069,0-.139,0-.208,0-1.6.126-1.7,1.756-1.479.284.038.338.16.337.4a18.326,18.326,0,0,1-.032,2.7c-.139.9-.939.223-1.415.383-.257.086-.682.152-.651-.406C905.31,514.151,905.29,513.688,905.29,513.227Z" transform="translate(-66.288 -81.086)" fill="#f7f9fa"/>
      <path id="Trazado_653879" data-name="Trazado 653879" d="M906.36,498.891c-1.055,0-1.055,0-1.055-1.145,0-.951,0-.951,1.18-.95.913,0,.921,0,.91,1.213C907.386,499.047,907.529,498.873,906.36,498.891Z" transform="translate(-66.303 -70.521)" fill="#f7f9fa"/>
      <path id="Trazado_653880" data-name="Trazado 653880" d="M973.959,450.446c-.013-1.857-.023-3.713-.043-5.57,0-.294.1-.406.4-.405q9.722.009,19.444,0c.372,0,.407.173.4.469-.016,1.834-.022,3.668-.031,5.5Z" transform="translate(-115.756 -32.805)" fill="#bce973"/>
      <path id="Trazado_653881" data-name="Trazado 653881" d="M973.981,465.858l20.176-.007c.1,1.707.1,1.707-1.566,1.707q-8.87,0-17.739,0c-1.035,0-.894.148-.905-.936C973.945,466.366,973.969,466.112,973.981,465.858Z" transform="translate(-115.778 -48.217)" fill="#84d847"/>
      <path id="Trazado_653882" data-name="Trazado 653882" d="M1021.433,496.228c-.107-1.768-.107-1.768,1.626-1.768,1.569,0,3.139.017,4.708-.011.469-.008.682.1.624.6-.045.387-.023.782-.031,1.174Z" transform="translate(-149.977 -68.83)" fill="#f5d558"/>
      <path id="Trazado_653883" data-name="Trazado 653883" d="M1021.418,500.816l6.927,0c.1,1.729.1,1.729-1.619,1.729-1.58,0-3.159-.021-4.738.012-.5.01-.658-.149-.6-.627C1021.425,501.56,1021.408,501.187,1021.418,500.816Z" transform="translate(-149.961 -73.418)" fill="#e9ba4c"/>
      <path id="Trazado_653884" data-name="Trazado 653884" d="M973.91,496.232c-.135-1.77-.135-1.77,1.574-1.77,1.6,0,3.2.016,4.8-.01.464-.008.624.137.576.593-.041.39-.026.787-.037,1.18Z" transform="translate(-115.713 -68.831)" fill="#f5d558"/>
      <path id="Trazado_653885" data-name="Trazado 653885" d="M973.912,500.811l6.918-.007c.129,1.732.129,1.732-1.547,1.732-1.6,0-3.2-.02-4.8.011-.5.01-.664-.145-.609-.627C973.912,501.554,973.9,501.181,973.912,500.811Z" transform="translate(-115.716 -73.41)" fill="#e9ba4c"/>
    </g>
  </g>
</svg>
