<svg xmlns="http://www.w3.org/2000/svg" width="293.317" height="285.708" viewBox="0 0 293.317 285.708">
  <g id="Grupo_992170" data-name="Grupo 992170" transform="translate(-1346.277 -220.172)">
    <path id="Trazado_652125" data-name="Trazado 652125" d="M1346.277,570.995h76.8l6.371-17.153a24.262,24.262,0,0,1,12.78-13.633,61.076,61.076,0,0,0,20.306-15.231,141.088,141.088,0,0,0,21.615-32.855l-47.6-.233s4.284-26.624-19.373-61.986a20.016,20.016,0,0,1-3.289-12.864l2.242-25.79s16.076-17.965,6.213-40.253c0,0-9.431-13.059-13.173-8.278,0,0-28.489,67.841-31.083,77.928s-6.052,16.428-2.594,48.13a192.1,192.1,0,0,1,1.233,21.147,75.047,75.047,0,0,1-7.214,31.94Z" transform="translate(0 -65.114)" fill="#eec2a2"/>
    <path id="Trazado_652126" data-name="Trazado 652126" d="M1417.91,694.913c-7.129-7.914-17.032-6.665-27.446-10.275S1376.709,655,1376.709,655v0c.017.982.025,1.937.023,2.855a75.047,75.047,0,0,1-7.214,31.94l-23.24,49.13h76.8l6.371-17.153a24.262,24.262,0,0,1,12.78-13.633,59.776,59.776,0,0,0,17.055-11.826C1438.132,705.2,1425.039,702.828,1417.91,694.913Z" transform="translate(0 -233.04)" fill="#eec2a2" opacity="0.2" style="mix-blend-mode: multiply;isolation: isolate"/>
    <g id="Grupo_992162" data-name="Grupo 992162" transform="translate(1525.94 226.212)">
      <path id="Trazado_652127" data-name="Trazado 652127" d="M1734.587,239.348s16.267-10.888,19.982-3.714-21.135,32.556-21.135,32.556Z" transform="translate(-1733.434 -233.188)" fill="#e49e6b"/>
      <path id="Trazado_652128" data-name="Trazado 652128" d="M1734.587,341.575s16.267-10.888,19.982-3.714-21.135,32.556-21.135,32.556Z" transform="translate(-1733.434 -287.976)" fill="#e49e6b"/>
      <path id="Trazado_652129" data-name="Trazado 652129" d="M1734.587,411.224s16.267-10.888,19.982-3.715-21.135,32.556-21.135,32.556Z" transform="translate(-1733.434 -325.303)" fill="#e49e6b"/>
    </g>
    <path id="Trazado_652130" data-name="Trazado 652130" d="M1594.659,220.172h-89.306a12.043,12.043,0,0,0-12.043,12.042V414.732a12.045,12.045,0,0,0,12.043,12.042h89.306a12.043,12.043,0,0,0,12.043-12.042V232.214A12.045,12.045,0,0,0,1594.659,220.172Z" transform="translate(-78.801)" fill="#292929"/>
    <path id="Trazado_652131" data-name="Trazado 652131" d="M1493.873,522.445s-16.153,39.542-14.586,47.019,11.369,17.475,35.419,14.142a369.446,369.446,0,0,0,40.674-7.788s1.005-53.365,0-56.072-44.247-21.915-45.949-21.915S1493.873,522.445,1493.873,522.445Z" transform="translate(-71.228 -148.809)" fill="#eec2a2" opacity="0.2" style="mix-blend-mode: multiply;isolation: isolate"/>
    <rect id="Rectángulo_309159" data-name="Rectángulo 309159" width="101.716" height="173.777" transform="translate(1420.347 236.585)" fill="#fff"/>
    <path id="Trazado_652132" data-name="Trazado 652132" d="M1563.4,473.956h-88.337a5.525,5.525,0,0,0-5.525,5.525v36.455a5.525,5.525,0,0,0,5.525,5.525h69.548c2.815,3.928,7.918,10.962,8.368,10.962.422,0-.39-6.643-.963-10.962H1563.4a5.525,5.525,0,0,0,5.525-5.525V479.481A5.525,5.525,0,0,0,1563.4,473.956Z" transform="translate(-66.062 -136.014)" fill="#4e82d0" opacity="0.3" style="mix-blend-mode: multiply;isolation: isolate"/>
    <path id="Trazado_652133" data-name="Trazado 652133" d="M1624.955,295.976h-94.041a5.525,5.525,0,0,0-5.525,5.525v39.181a5.525,5.525,0,0,0,5.525,5.525h9.766c-.567,4.313-1.309,10.5-.9,10.5.433,0,5.172-6.509,8.037-10.5h77.14a5.525,5.525,0,0,0,5.525-5.525V301.5A5.525,5.525,0,0,0,1624.955,295.976Z" transform="translate(-95.994 -40.627)" fill="#4e82d0" opacity="0.3" style="mix-blend-mode: multiply;isolation: isolate"/>
    <rect id="Rectángulo_309160" data-name="Rectángulo 309160" width="43.525" height="2.178" rx="1.089" transform="translate(1449.525 228.946)" fill="#fff"/>
    <path id="Trazado_652134" data-name="Trazado 652134" d="M1458.963,406.813a7.594,7.594,0,0,0,2,3.4l1.649-18.967s11.826-13.216,8.969-31.039a26.631,26.631,0,0,0-8.654-15.8c-2.649-2.329-5.559-3.885-7.275-1.694,0,0-13.4,31.9-22.653,55.206Z" transform="translate(-46.478 -65.114)" fill="#eec2a2"/>
    <path id="Trazado_652135" data-name="Trazado 652135" d="M1555.543,453.579h-88.338a5.525,5.525,0,0,0-5.525,5.525v36.455a5.525,5.525,0,0,0,5.525,5.525h69.548c2.815,3.928,7.918,10.962,8.368,10.962.422,0-.39-6.643-.963-10.962h11.384a5.525,5.525,0,0,0,5.525-5.525V459.1A5.525,5.525,0,0,0,1555.543,453.579Z" transform="translate(-61.85 -125.093)" fill="#00c1ab"/>
    <g id="Grupo_992164" data-name="Grupo 992164" transform="translate(1466.151 413.739)">
      <path id="Trazado_652136" data-name="Trazado 652136" d="M1614.584,642.286a5,5,0,1,1-5-5A5,5,0,0,1,1614.584,642.286Z" transform="translate(-1604.593 -637.29)" fill="#4e82d0" opacity="0.3"/>
      <g id="Grupo_992163" data-name="Grupo 992163" transform="translate(2.914 2.914)">
        <path id="Trazado_652137" data-name="Trazado 652137" d="M1614.443,647.732h-2.979a.592.592,0,0,1-.592-.591v-2.979a.592.592,0,0,1,.592-.592h2.979a.592.592,0,0,1,.592.592v2.979A.592.592,0,0,1,1614.443,647.732Zm-2.979-4a.431.431,0,0,0-.431.431v2.979a.431.431,0,0,0,.431.431h2.979a.432.432,0,0,0,.431-.431v-2.979a.432.432,0,0,0-.431-.431Z" transform="translate(-1610.873 -643.57)" fill="#4e82d0"/>
      </g>
    </g>
    <rect id="Rectángulo_309161" data-name="Rectángulo 309161" width="101.716" height="10.279" transform="translate(1420.347 400.083)" fill="#92baf4"/>
    <rect id="Rectángulo_309162" data-name="Rectángulo 309162" width="101.716" height="9.222" transform="translate(1420.347 236.585)" fill="#92baf4"/>
    <path id="Trazado_652138" data-name="Trazado 652138" d="M1476.1,361.457c3.7-1.7,5.635-11.335,6.326-15.664-2.971-2.989-6.7-5.678-8.735-3.074,0,0-2.95,7.025-7.038,16.889C1469.444,361.165,1473.328,362.73,1476.1,361.457Z" transform="translate(-64.512 -65.115)" fill="#eab690"/>
    <path id="Trazado_652139" data-name="Trazado 652139" d="M1671.48,502.172s-13.738,1.153-14.218,4.8.576,10.087,13.545,11.336h13.434s-4.019-11.144-3.827-11.529S1671.48,502.172,1671.48,502.172Z" transform="translate(-166.622 -151.136)" fill="#e8ab80"/>
    <path id="Trazado_652140" data-name="Trazado 652140" d="M1638.242,509.235a3.727,3.727,0,0,0-1.452,5.161c6.322,10.9,31.459,54.233,33.725,57.758,2.594,4.035,8.934,13.546,29.973,18.445s29.685,19.022,29.685,19.022h64.846s-15.275-24.209-27.956-87.038c0,0-9.8-52.165-28.245-50.436,0,0-11.24-11.816-22.192-9.511,0,0-20.751-12.393-32.567-12.393L1655.678,416.7a8.213,8.213,0,0,0-11.214-1.328,5.378,5.378,0,0,0-2.193,3.457c-.865,5.476,6.341,19.31,17.869,36.026s40.061,69.746,27.668,93.091a125.367,125.367,0,0,1-23.633-24.786C1655,510.367,1644.215,506.065,1638.242,509.235Z" transform="translate(-155.427 -103.74)" fill="#eec2a2"/>
    <path id="Trazado_652141" data-name="Trazado 652141" d="M1739.4,492.429a118.232,118.232,0,0,1,10.629,10.4,122.664,122.664,0,0,1,13.525,17.773c4.209,6.937,6.986,13.02,8.3,20.658l-.085.018c-1.512-7.176-5.462-14.9-8.9-20.243a149.8,149.8,0,0,0-13.35-17.758c-3.018-3.481-6.846-7.594-10.174-10.78Z" transform="translate(-210.659 -145.914)" fill="#e49e6b"/>
    <path id="Trazado_652142" data-name="Trazado 652142" d="M1808.97,518.913a32.031,32.031,0,0,1,8.212,6.228,39.731,39.731,0,0,1,6.222,8.3,40.548,40.548,0,0,1,3.9,9.614,39.214,39.214,0,0,1,1.3,10.222l-.086.006a50.331,50.331,0,0,0-1.869-10.036,45.552,45.552,0,0,0-4-9.382,44.5,44.5,0,0,0-5.972-8.266,38.369,38.369,0,0,0-7.753-6.613Z" transform="translate(-247.954 -160.108)" fill="#e49e6b"/>
    <path id="Trazado_652143" data-name="Trazado 652143" d="M1856.682,539.08a28.567,28.567,0,0,1,6.785,8.129,36.628,36.628,0,0,1,3.874,9.881,30.725,30.725,0,0,1,.9,6.994l-.085.012a52.2,52.2,0,0,0-1.472-6.82,47.7,47.7,0,0,0-3.936-9.677,38.709,38.709,0,0,0-6.107-8.456Z" transform="translate(-273.527 -170.916)" fill="#e49e6b"/>
    <path id="Trazado_652144" data-name="Trazado 652144" d="M1651.333,632.86c.575-2.917-2.825-7.545-5.911-11.036a7.174,7.174,0,0,0-7.642-2.083,3.732,3.732,0,0,0-.988,4.863c1.7,2.93,4.757,8.2,8.364,14.413C1647.856,637.642,1650.8,635.56,1651.333,632.86Z" transform="translate(-155.428 -213.949)" fill="#eab690"/>
    <path id="Trazado_652145" data-name="Trazado 652145" d="M1664.526,430.276c1.64-.329,9.078-2.8,8.623-4.158h0l-7.337-8.671a8.356,8.356,0,0,0-5.592-2.922h0l-.035,0c-.059-.005-.194-.015-.382-.015a3.716,3.716,0,0,0-3.939,2.944c-.526,2.631,3.828,9.025,5.748,11.683A2.893,2.893,0,0,0,1664.526,430.276Z" transform="translate(-165.898 -104.152)" fill="#eab690"/>
    <path id="Trazado_652146" data-name="Trazado 652146" d="M1384.25,737.693c8.127,4.993,34.29,19.922,61.343,23.1,1.584.187,2.7,1.639,2.231,2.894l-4.726,12.659a2.1,2.1,0,0,1-2.312,1.2c-7.973-.968-40.868-5.919-64.013-23.825a2.072,2.072,0,0,1-.826-2.323l4.823-12.918C1381.225,737.266,1382.927,736.88,1384.25,737.693Z" transform="translate(-15.845 -277.132)" fill="#292929"/>
    <path id="Rectángulo_309163" data-name="Rectángulo 309163" d="M.965,0H5.03a.964.964,0,0,1,.964.964v0a.965.965,0,0,1-.965.965H.965A.965.965,0,0,1,0,.965v0A.965.965,0,0,1,.965,0Z" transform="translate(1365.084 472.313) rotate(-69.549)" fill="#141414"/>
    <path id="Rectángulo_309164" data-name="Rectángulo 309164" d="M.965,0H5.03a.964.964,0,0,1,.964.964v0a.965.965,0,0,1-.965.965H.964A.964.964,0,0,1,0,.965v0A.965.965,0,0,1,.965,0Z" transform="matrix(0.349, -0.937, 0.937, 0.349, 1369.95, 475.312)" fill="#141414"/>
    <path id="Rectángulo_309165" data-name="Rectángulo 309165" d="M.965,0h0A.964.964,0,0,1,1.93.964V5.029a.965.965,0,0,1-.965.965h0A.964.964,0,0,1,0,5.029V.965A.965.965,0,0,1,.965,0Z" transform="matrix(0.937, 0.349, -0.349, 0.937, 1376.918, 472.674)" fill="#141414"/>
    <path id="Rectángulo_309166" data-name="Rectángulo 309166" d="M.965,0H5.029a.965.965,0,0,1,.965.965v0a.965.965,0,0,1-.965.965H.964A.964.964,0,0,1,0,.965v0A.965.965,0,0,1,.965,0Z" transform="translate(1379.84 480.713) rotate(-69.553)" fill="#141414"/>
    <path id="Rectángulo_309167" data-name="Rectángulo 309167" d="M.965,0H5.03a.964.964,0,0,1,.964.964v0a.965.965,0,0,1-.965.965H.965A.965.965,0,0,1,0,.965v0A.965.965,0,0,1,.965,0Z" transform="translate(1384.775 483.529) rotate(-69.559)" fill="#141414"/>
    <path id="Rectángulo_309168" data-name="Rectángulo 309168" d="M.965,0H5.03a.964.964,0,0,1,.964.964v0a.965.965,0,0,1-.965.965H.965A.965.965,0,0,1,0,.965v0A.965.965,0,0,1,.965,0Z" transform="translate(1389.927 485.762) rotate(-69.559)" fill="#141414"/>
    <path id="Rectángulo_309169" data-name="Rectángulo 309169" d="M.964,0H5.029a.965.965,0,0,1,.965.965v0a.965.965,0,0,1-.965.965H.964A.964.964,0,0,1,0,.966v0A.964.964,0,0,1,.964,0Z" transform="translate(1395.179 487.722) rotate(-69.528)" fill="#141414"/>
    <path id="Rectángulo_309170" data-name="Rectángulo 309170" d="M.965,0h0A.964.964,0,0,1,1.93.964V5.029a.965.965,0,0,1-.965.965h0A.965.965,0,0,1,0,5.029V.965A.965.965,0,0,1,.965,0Z" transform="translate(1402.629 483.797) rotate(20.441)" fill="#141414"/>
    <path id="Rectángulo_309171" data-name="Rectángulo 309171" d="M.965,0H5.03a.964.964,0,0,1,.964.964v0a.965.965,0,0,1-.965.965H.965A.965.965,0,0,1,0,.965v0A.965.965,0,0,1,.965,0Z" transform="matrix(0.349, -0.937, 0.937, 0.349, 1406.108, 490.52)" fill="#141414"/>
    <path id="Rectángulo_309172" data-name="Rectángulo 309172" d="M.965,0H5.029a.964.964,0,0,1,.964.964v0a.965.965,0,0,1-.965.965H.964A.964.964,0,0,1,0,.966v0A.965.965,0,0,1,.965,0Z" transform="translate(1411.533 492.02) rotate(-69.533)" fill="#141414"/>
    <path id="Trazado_652147" data-name="Trazado 652147" d="M1500.287,802.183l-.089-.033a.917.917,0,0,1-.538-1.18l1.455-3.9a.917.917,0,0,1,1.18-.538l.089.033a.917.917,0,0,1,.538,1.18l-1.455,3.9A.917.917,0,0,1,1500.287,802.183Z" transform="translate(-82.173 -308.866)" fill="#141414"/>
    <path id="Trazado_652148" data-name="Trazado 652148" d="M1512.443,804.174l-.089-.033a.917.917,0,0,1-.539-1.18l1.455-3.9a.916.916,0,0,1,1.18-.538l.09.033a.917.917,0,0,1,.538,1.18l-1.455,3.9A.917.917,0,0,1,1512.443,804.174Z" transform="translate(-88.688 -309.933)" fill="#141414"/>
    <path id="Trazado_652149" data-name="Trazado 652149" d="M1418.268,775.8l.022-.059a1.176,1.176,0,0,1-.256-.062l-6.4-2.39a1.278,1.278,0,0,1-.684-1.666l5.773-15.462a1.277,1.277,0,0,1,1.609-.811l6.4,2.39a1.192,1.192,0,0,1,.73.84q.754.329,1.521.657a2.769,2.769,0,0,0-1.688-3.008l-6.4-2.39a2.834,2.834,0,0,0-3.571,1.8L1409.55,771.1a2.835,2.835,0,0,0,1.518,3.7l6.4,2.39a2.7,2.7,0,0,0,2.764-.6Q1419.253,776.209,1418.268,775.8Z" transform="translate(-33.804 -285.93)" fill="#8cbb56"/>
    <path id="Trazado_652150" data-name="Trazado 652150" d="M1420.775,773.644l-2.785-1.04a1.046,1.046,0,0,0-.729,1.953l2.785,1.039Z" transform="translate(-37.716 -296.041)" fill="#fff"/>
    <path id="Trazado_652151" data-name="Trazado 652151" d="M1770.144,772.016h64.846s-10.014-15.874-20.558-55.268c-4.627,29.007-30.154,27.334-40.284,28.944-11.664,1.853-56.943-7.587-63.286-10.562,2.822,4.306,9.51,13.187,29.6,17.865C1761.5,757.894,1770.144,772.016,1770.144,772.016Z" transform="translate(-195.396 -266.136)" fill="#eec2a2" opacity="0.2" style="mix-blend-mode: multiply;isolation: isolate"/>
    <path id="Trazado_652152" data-name="Trazado 652152" d="M1695.08,513.671c12.714,20.43,35.526,67.357,24.24,87.832l7.49,7.394s18.927-20.967-11.191-67.206A308.262,308.262,0,0,0,1695.08,513.671Z" transform="translate(-186.938 -157.298)" fill="#eec2a2" opacity="0.2" style="mix-blend-mode: multiply;isolation: isolate"/>
    <path id="Trazado_652153" data-name="Trazado 652153" d="M1500.391,488.768a13.851,13.851,0,1,1-13.851-13.851A13.851,13.851,0,0,1,1500.391,488.768Z" transform="translate(-67.75 -136.529)" fill="#fff"/>
    <path id="Trazado_652154" data-name="Trazado 652154" d="M1486.67,494.252s-1.374-5.636,1.9-7.747,6.766-2.594,9.153-1.377c3.309,1.685,4.669,6.241,3.61,8.76l-8.784-2.207Z" transform="translate(-75.089 -141.649)"/>
    <g id="Grupo_992165" data-name="Grupo 992165" transform="translate(1409.363 344.765)">
      <rect id="Rectángulo_309173" data-name="Rectángulo 309173" width="4.067" height="4.06" transform="translate(7.552 14.453)" fill="#eec2a2"/>
      <path id="Trazado_652155" data-name="Trazado 652155" d="M1502.562,522.237V519.8h-4.067v2.071A5.962,5.962,0,0,0,1502.562,522.237Z" transform="translate(-1490.943 -505.35)" fill="#e49c69"/>
      <path id="Trazado_652156" data-name="Trazado 652156" d="M1500.252,495.843a1.51,1.51,0,0,0-1.363.054,7.242,7.242,0,0,0-14.483,0,1.51,1.51,0,0,0-1.363-.054,2.1,2.1,0,0,0,1.818,3.68,1.323,1.323,0,0,0,.3-.209,6.528,6.528,0,0,0,12.963,0,1.331,1.331,0,0,0,.3.209,2.1,2.1,0,0,0,1.818-3.68Z" transform="translate(-1482.221 -488.659)" fill="#eec2a2"/>
      <path id="Trazado_652157" data-name="Trazado 652157" d="M1503.032,514.34a2.539,2.539,0,0,1-4.537.138Z" transform="translate(-1490.943 -502.422)" fill="#fff"/>
    </g>
    <path id="Trazado_652158" data-name="Trazado 652158" d="M1486.637,494.542s5.323-1.613,7.652-4.3c0,0-.659,3.243-1.151,3.761.156.1,5.316-2.406,6.017-4.721s-5.276-3.147-5.276-3.147-2.048.871-2.152.923-2.025.276-2.245.766c-.287.638-1.643.694-1.643.694l-.856,1.782-.6,1.875Z" transform="translate(-75.089 -142.538)"/>
    <path id="Trazado_652159" data-name="Trazado 652159" d="M1477.536,481.879a5.827,5.827,0,0,0,3.941.259c3.105-.954,4.336-.584,4.749-.349a1.012,1.012,0,0,0,.815.106c.306-.1.591-.379.5-1.079a5.643,5.643,0,0,0-2.407-4.633A13.878,13.878,0,0,0,1477.536,481.879Z" transform="translate(-70.347 -137.207)"/>
    <g id="Grupo_992167" data-name="Grupo 992167" transform="translate(1413.817 342.907)">
      <g id="Grupo_992166" data-name="Grupo 992166" transform="translate(0 0)">
        <path id="Trazado_652160" data-name="Trazado 652160" d="M1491.874,486.225h0a.263.263,0,0,1,.065-.378,7.293,7.293,0,0,1,3.456-1.191.264.264,0,0,1,.276.264h0a.263.263,0,0,1-.25.263,6.86,6.86,0,0,0-3.194,1.106A.262.262,0,0,1,1491.874,486.225Z" transform="translate(-1491.82 -484.654)" fill="#8cbb56"/>
      </g>
    </g>
    <g id="Grupo_992169" data-name="Grupo 992169" transform="translate(1433.42 244.935)">
      <path id="Trazado_652161" data-name="Trazado 652161" d="M1634.643,273.533H1540.6a5.525,5.525,0,0,0-5.525,5.525v39.181a5.525,5.525,0,0,0,5.525,5.525h9.765c-.567,4.313-1.309,10.5-.9,10.5.433,0,5.172-6.509,8.038-10.5h77.139a5.525,5.525,0,0,0,5.525-5.525V279.058A5.525,5.525,0,0,0,1634.643,273.533Z" transform="translate(-1534.606 -273.533)" fill="#00d843"/>
      <circle id="Elipse_8160" data-name="Elipse 8160" cx="13.851" cy="13.851" r="13.851" transform="translate(0 31.154) rotate(-62.53)" fill="#fff"/>
      <g id="Grupo_992168" data-name="Grupo 992168" transform="translate(9.251 14.215)">
        <rect id="Rectángulo_309174" data-name="Rectángulo 309174" width="4.067" height="4.06" transform="translate(7.552 18.019)" fill="#eec2a2"/>
        <path id="Trazado_652162" data-name="Trazado 652162" d="M1574.338,345.427v-2.434h-4.067v2.071A5.961,5.961,0,0,0,1574.338,345.427Z" transform="translate(-1562.719 -324.974)" fill="#e49c69"/>
        <path id="Trazado_652163" data-name="Trazado 652163" d="M1572.028,319.033a1.512,1.512,0,0,0-1.363.054,7.241,7.241,0,0,0-14.483,0,1.512,1.512,0,0,0-1.363-.054,2.1,2.1,0,0,0,1.818,3.68,1.342,1.342,0,0,0,.3-.209,6.528,6.528,0,0,0,12.963,0,1.342,1.342,0,0,0,.3.209,2.1,2.1,0,0,0,1.818-3.68Z" transform="translate(-1553.997 -308.283)" fill="#eec2a2"/>
        <path id="Trazado_652164" data-name="Trazado 652164" d="M1559.637,306.147s2.041-1.728,6.68-1.448,5.522,2.7,5.785,6.157l-.271,4.113a17.96,17.96,0,0,1-2.773-4.672s-2.6,2.915-3.729,2.57.428-2.444.428-2.444-5.292,4.553-8.409,4.546c0,0-1.65-5.329.666-7.284,0,0-1.744.083-1.836-.26s.832-.856,2.508-.663c0,0-1.195-2.336-.528-2.579S1559.637,306.147,1559.637,306.147Z" transform="translate(-1555.162 -304.165)" fill="#050505"/>
        <path id="Trazado_652165" data-name="Trazado 652165" d="M1574.807,337.53a2.539,2.539,0,0,1-4.536.139Z" transform="translate(-1562.719 -322.047)" fill="#fff"/>
      </g>
      <rect id="Rectángulo_309175" data-name="Rectángulo 309175" width="55.126" height="2.407" rx="1.203" transform="translate(37.295 11.291)" fill="#fff"/>
      <rect id="Rectángulo_309176" data-name="Rectángulo 309176" width="13.019" height="2.407" rx="1.203" transform="translate(37.295 17.642)" fill="#fff"/>
      <rect id="Rectángulo_309177" data-name="Rectángulo 309177" width="37.194" height="2.407" rx="1.203" transform="translate(55.227 17.642)" fill="#fff"/>
      <rect id="Rectángulo_309178" data-name="Rectángulo 309178" width="28.478" height="2.407" rx="1.203" transform="translate(37.295 23.993)" fill="#fff"/>
      <rect id="Rectángulo_309179" data-name="Rectángulo 309179" width="22.482" height="2.407" rx="1.203" transform="translate(69.939 23.993)" fill="#fff"/>
      <rect id="Rectángulo_309180" data-name="Rectángulo 309180" width="55.126" height="2.407" rx="1.203" transform="translate(37.295 30.344)" fill="#fff"/>
    </g>
    <rect id="Rectángulo_309181" data-name="Rectángulo 309181" width="18.555" height="2.407" rx="1.203" transform="translate(1435.342 340.306)" fill="#fff"/>
    <path id="Rectángulo_309182" data-name="Rectángulo 309182" d="M1.2,0H11.33a1.2,1.2,0,0,1,1.2,1.2v0a1.2,1.2,0,0,1-1.2,1.2H1.2A1.2,1.2,0,0,1,0,1.2v0A1.2,1.2,0,0,1,1.2,0Z" transform="translate(1435.342 346.657)" fill="#fff"/>
    <rect id="Rectángulo_309183" data-name="Rectángulo 309183" width="15.424" height="2.407" rx="1.203" transform="translate(1450.036 346.657)" fill="#fff"/>
    <rect id="Rectángulo_309184" data-name="Rectángulo 309184" width="20.792" height="2.407" rx="1.203" transform="translate(1467.621 346.657)" fill="#fff"/>
    <rect id="Rectángulo_309185" data-name="Rectángulo 309185" width="31.442" height="2.407" rx="1.203" transform="translate(1456.971 340.306)" fill="#fff"/>
    <rect id="Rectángulo_309186" data-name="Rectángulo 309186" width="53.071" height="2.407" rx="1.203" transform="translate(1435.342 359.106)" fill="#fff"/>
    <rect id="Rectángulo_309187" data-name="Rectángulo 309187" width="27.417" height="2.407" rx="1.203" transform="translate(1435.342 353.008)" fill="#fff"/>
    <rect id="Rectángulo_309188" data-name="Rectángulo 309188" width="21.644" height="2.407" rx="1.203" transform="translate(1466.769 353.008)" fill="#fff"/>
  </g>
</svg>
