<svg xmlns="http://www.w3.org/2000/svg" width="295" height="295" viewBox="0 0 295 295">
  <g id="Grupo_995458" data-name="Grupo 995458" transform="translate(-232.5 -4578.37)">
    <circle id="Elipse_8167" data-name="Elipse 8167" cx="147.5" cy="147.5" r="147.5" transform="translate(232.5 4578.37)" fill="#016d80"/>
    <g id="Grupo_994146" data-name="Grupo 994146" transform="translate(-607.542 4564.581)">
      <path id="Trazado_653057" data-name="Trazado 653057" d="M913.835,131.69a18.137,18.137,0,0,1-7.683-8.9c-.368-.946-1.188-.636-1.847-.7-6.883-.63-11.642-5.8-11.408-12.439a10.218,10.218,0,0,1,1.675-5.436,2.6,2.6,0,0,0,.241-2.659c-2.441-6.43-2.862-12.9.184-19.24,4.229-8.8,11.31-13.6,21.083-13.8,10.88-.226,21.767-.058,32.652-.052,5.309,0,8.408,2.547,9.6,7.847a3.106,3.106,0,0,0,.291.574,25.728,25.728,0,0,1,11.747-7.428,18.81,18.81,0,0,1,4.588-.88c6.852-.207,13.743-.565,20.552.067,10.095.936,16.945,6.655,21.014,16.027a35.125,35.125,0,0,1,7.515-8.7c9.923-7.8,20.959-9.807,32.674-5.2,11.825,4.651,18.671,13.655,20.61,26.292a36.6,36.6,0,0,1,.289,5.574c0,7.395.075,14.791-.017,22.184-.1,8.337-3.913,14.544-11.149,18.663-.591.337-1.313.427-1.154,1.49.843,5.619.288,11.281.369,16.923.02,1.421.228,1.975,1.814,1.894,2.939-.15,5.892,0,8.837-.065,1-.022,1.328.236,1.326,1.287q-.053,19.659,0,39.318c0,.952-.28,1.212-1.216,1.2-3.125-.056-6.255.04-9.379-.052-1.163-.035-1.375.34-1.362,1.412.058,4.929-.026,9.86.059,14.789.023,1.326-.277,1.707-1.655,1.691-6.854-.079-13.71.005-20.564-.072-1.353-.014-1.9.321-1.643,1.671a.994.994,0,0,1,0,.18c.024,1.317-.414,2.943.2,3.864s2.343.222,3.578.327a9.112,9.112,0,0,1,8,10.82c-1.287,7.926-7.274,12.984-15.448,12.987q-52.948.014-105.9,0c-.421,0-.841,0-1.262-.017a14.984,14.984,0,0,1-14.317-14.027,8.964,8.964,0,0,1,9.164-9.78c2.722-.029,2.722-.029,2.722-2.709,0-3.284,0-3.284-3.239-3.284-6.374,0-12.749-.027-19.122.025-1.154.01-1.516-.265-1.5-1.474.076-4.808-.061-9.621.08-14.426.051-1.735-.531-2.048-2.083-1.983-2.821.119-5.652-.013-8.477.058-1.058.027-1.435-.181-1.43-1.354q.069-19.569.008-39.137c0-1.012.265-1.334,1.3-1.313,3.125.064,6.254-.022,9.38.048,1.047.024,1.292-.317,1.276-1.311-.054-3.727.106-7.459-.048-11.18C904.434,143.225,907.164,136.622,913.835,131.69Zm71.3,97.641c16.292,0,32.583-.02,48.875.035,1.451,0,1.907-.278,1.9-1.829-.058-19.954-.032-39.908-.042-59.862,0-6.279-3.547-9.81-9.835-9.811q-40.76-.01-81.519,0c-6.385,0-9.884,3.519-9.886,9.941-.006,19.894.015,39.788-.038,59.682,0,1.473.312,1.891,1.848,1.884C952.672,229.307,968.9,229.331,985.135,229.331Zm.17,5.97v-.042q-26.321,0-52.642,0c-2.223,0-4.447-.009-6.669.058-2.334.07-3.334,1.221-3.247,3.56a7.759,7.759,0,0,0,1.023,3.6,8.887,8.887,0,0,0,8.329,4.684q53.182-.022,106.366-.012a14.94,14.94,0,0,0,1.618-.087,8.869,8.869,0,0,0,7.576-7.173c.518-3.183-.562-4.575-3.763-4.579Q1014.6,235.277,985.305,235.3Zm71.446-103.614a22.711,22.711,0,0,1,5.394,5.652c.658,1.105,1.232,1.172,2.254.509,4.633-3.006,7.14-7.2,7.17-12.753.04-7.213.023-14.426.006-21.639a42.041,42.041,0,0,0-.178-5.761,26.782,26.782,0,0,0-31.775-22.735c-11.694,2.173-21.23,12.916-21.5,24.575-.2,8.77-.18,17.553,0,26.324.108,5.318,2.906,9.27,7.348,12.114.95.608,1.444.369,1.993-.536a16.377,16.377,0,0,1,4.2-4.665c1.109-.828,1.274-1.154-.013-2.048a16.337,16.337,0,0,1-7.459-12.4c-.669-8.332-.132-16.7-.274-25.043-.014-.81.381-1.011,1.107-1.013a38.166,38.166,0,0,0,4.14-.135c5.167-.58,9.153-3.274,12.637-6.986,2.946-3.14,3.135-3.164,5.99-.051,4.49,4.9,9.864,7.568,16.582,7.159,1.436-.087,1.345.725,1.344,1.675-.013,7.454.005,14.907-.017,22.36a17.453,17.453,0,0,1-3.172,9.973A20.406,20.406,0,0,1,1056.751,131.687Zm2.909-23.352h.061c0-2.943-.039-5.887.022-8.829.02-.993-.179-1.477-1.279-1.659a23.442,23.442,0,0,1-12.651-6.382c-.677-.65-1.1-.813-1.874-.066a23.8,23.8,0,0,1-12.8,6.48c-.82.14-1.209.351-1.2,1.319.061,5.886-.043,11.774.074,17.658a11.685,11.685,0,0,0,8.852,10.774c3.021.75,6.1.362,9.154.35a11.628,11.628,0,0,0,11.613-11C1059.794,114.108,1059.661,111.218,1059.661,108.335ZM986.287,74.5c-3.81,0-6.636-.07-9.458.012A18.755,18.755,0,0,0,958.88,97.283c.328,1.615.829,2.179,2.459,1.441a6.877,6.877,0,0,1,2.47-.38,1.606,1.606,0,0,0,1.548-.969c1.86-3.663,4.924-5.2,8.97-5.111,3.6.077,7.211.048,10.815,0a2.835,2.835,0,0,0,3.026-2.885A2.911,2.911,0,0,0,985.6,86.41c-1.073-.2-2.557.615-3.138-.517-.468-.91-.139-2.231-.158-3.369-.007-.421.014-.841,0-1.262-.018-.571.2-.808.812-.909a9.459,9.459,0,0,1,10.186,5.184,3.054,3.054,0,0,0,2.192,1.816c3.852,1.16,7.042,3.425,8.63,7.112,1.139,2.647,2.4,4.24,5.466,4.431,1.265.079,1.643-.038,1.926-1.159a18.888,18.888,0,0,0-14.178-22.81C993.357,74.073,989.313,74.691,986.287,74.5Zm-54.334,0v.022c-5.41,0-10.823-.1-16.23.022a17.324,17.324,0,0,0-16.41,21.167c.252,1.105.265,2.463,1.115,3.133.45.355,1.666-.263,2.537-.437a1.462,1.462,0,0,1,.359-.027,2.186,2.186,0,0,0,2.442-1.8,14.169,14.169,0,0,1,9.8-9.279,2.962,2.962,0,0,0,2.046-1.745,8.593,8.593,0,0,1,7.656-5.164c3.351-.21,3.354-.163,3.354,3.215,0,2.69,0,2.69-2.74,2.807-2,.085-3.143,1.164-3.115,2.947s1.19,2.9,3.182,2.908c5.049.029,10.1.069,15.148-.024a11.026,11.026,0,0,0,7.486-3.109,11.927,11.927,0,0,0,3.868-9.168c-.017-5.124-.309-5.462-5.351-5.462Zm8.573,33.783h.009c0-2.882-.059-5.764.028-8.643.035-1.152-.354-1.39-1.425-1.375-4.142.058-8.286-.007-12.429.032-3.761.035-6.835-1.235-8.768-4.585-.5-.866-.966-.661-1.6-.379-3.365,1.5-5.4,4.052-5.5,7.757-.134,5.278-.16,10.567.025,15.842a11.473,11.473,0,0,0,9.057,10.739c2.962.7,5.983.327,8.972.3a11.752,11.752,0,0,0,11.614-11.589C940.572,113.688,940.526,110.986,940.526,108.285Zm59.556.9c0-2.763.132-5.533-.033-8.285a8.472,8.472,0,0,0-5.5-7.575c-.671-.3-1.112-.408-1.586.412-1.9,3.289-4.915,4.575-8.606,4.558-3.544-.016-7.089-.028-10.632.007-2.278.023-3.317,1.048-3.329,3.3-.025,4.984-.071,9.971.027,14.953a11.62,11.62,0,0,0,9.086,11.115c3.021.705,6.106.335,9.156.3a11.687,11.687,0,0,0,11.405-11.223C1000.162,114.231,1000.086,111.706,1000.082,109.184Zm-26.657,22.5a18.2,18.2,0,0,1-7.731-9.008c-.259-.674-.854-.545-1.376-.57a11.753,11.753,0,0,1-8.1-3.4c-.636-.641-.971-.561-1.557.02a9.926,9.926,0,0,1-6.671,3.167,3.638,3.638,0,0,0-3.653,2.573,16.808,16.808,0,0,1-6.863,7.211,21.254,21.254,0,0,1,9.045,18.79c-.036,1.125.288,1.4,1.394,1.386,4.984-.062,9.972-.08,14.955.008,1.338.024,1.552-.434,1.517-1.626A21.138,21.138,0,0,1,973.425,131.689Zm-41.764,26.173h-16.4c-4.591,0-4.539,0-4.518,4.57.005,1.19.413,1.368,1.451,1.347,3.065-.061,6.133.018,9.2-.043,1.026-.021,1.335.291,1.332,1.318q-.044,19.567.008,39.133c0,1.2-.445,1.367-1.474,1.347-3.065-.059-6.133.019-9.2-.043-1.013-.021-1.328.259-1.305,1.293.068,3.064.085,6.133-.006,9.2-.035,1.214.355,1.488,1.508,1.473,4.81-.062,9.621-.09,14.429.011,1.517.032,1.989-.257,1.981-1.91-.078-15.448,0-30.9-.076-46.346C928.572,165.22,929.043,161.447,931.662,157.862Zm107.108,0c3.179,3.986,3.146,8.408,3.131,12.88-.053,15.028-.007,30.056-.046,45.084,0,1.174.158,1.66,1.512,1.636,4.989-.09,9.981-.069,14.971-.009,1.1.013,1.441-.256,1.412-1.386-.079-3.124-.064-6.251-.006-9.376.018-.96-.281-1.214-1.215-1.2-3.126.053-6.254-.01-9.38.038-.951.014-1.379-.159-1.376-1.258q.054-19.657.006-39.314c0-.953.307-1.248,1.244-1.221,2.043.059,4.088.018,6.132.018,4.885,0,4.869,0,4.585-4.847-.042-.723-.156-1.068-.987-1.064C1052.222,157.875,1045.689,157.862,1038.769,157.862Zm-139.915,26.6c0,4.445.045,8.891-.029,13.335-.021,1.27.2,1.764,1.634,1.734,4.924-.1,9.853-.076,14.779-.013,1.157.015,1.5-.267,1.5-1.468q-.079-13.426-.009-26.851c0-1.018-.123-1.465-1.331-1.446q-7.569.116-15.14,0c-1.293-.022-1.434.483-1.422,1.556C898.882,175.692,898.854,180.078,898.854,184.463Zm154.94.16c0,4.505.041,9.011-.029,13.515-.017,1.133.311,1.394,1.4,1.381,5.047-.059,10.095-.046,15.141-.009.95.007,1.365-.173,1.36-1.258q-.061-13.606,0-27.211c0-1.059-.354-1.283-1.333-1.274-5.047.043-10.095.068-15.141-.014-1.272-.021-1.438.447-1.425,1.536C1053.825,175.732,1053.794,180.177,1053.794,184.623Zm-68.53-32.79h11.167c3.8,0,3.8,0,3.647-3.748a14.835,14.835,0,0,0-17.967-13.721,15.175,15.175,0,0,0-11.749,16.632c.137,1.118.811.826,1.393.828C976.258,151.841,980.761,151.833,985.264,151.833Zm-59.725,0h11.7c3.37,0,3.37,0,3.277-3.425a14.86,14.86,0,0,0-18.027-14.035A15.144,15.144,0,0,0,910.76,150.84c.1,1.165.759.99,1.456.99Q918.877,151.836,925.539,151.832Zm119.184,0h11.7c3.422,0,3.422,0,3.252-3.455a14.8,14.8,0,0,0-18.209-13.954c-7.1,1.641-11.473,7.6-11.536,15.544-.012,1.445.269,1.949,1.829,1.906C1036.079,151.755,1040.4,151.832,1044.723,151.832Zm-47.669-20.158a21.255,21.255,0,0,1,9.065,18.746c-.032,1.018.117,1.465,1.323,1.447,5.1-.077,10.207-.053,15.31-.014.914.007,1.231-.215,1.231-1.183a26.8,26.8,0,0,1,.339-5.195c.233-1.176-.174-1.519-1.071-2a20.576,20.576,0,0,1-10.683-13.959c-.682-2.883-.47-5.822-.56-9.018a13.532,13.532,0,0,1-6.371,1.632c-.51,0-.721.3-.894.726A18.184,18.184,0,0,1,997.054,131.674Zm-92.261-21.365c0-1.737-.021-3.475.01-5.212.012-.7-.181-.932-.926-.838a5.988,5.988,0,0,0-.129,11.79c.742.1,1.1-.022,1.063-.887C904.751,113.546,904.794,111.927,904.794,110.308Zm59.57,0c0-1.733-.018-3.467.009-5.2.011-.692-.183-.935-.93-.841a5.992,5.992,0,0,0-.121,11.783c.762.107,1.086-.059,1.057-.9C964.326,113.534,964.365,111.918,964.363,110.3Zm41.773-.121c0,1.563.074,3.13-.023,4.687-.082,1.326.521,1.335,1.509,1.062a5.973,5.973,0,0,0-.233-11.583c-.93-.223-1.321-.1-1.272.965C1006.191,106.934,1006.136,108.56,1006.136,110.183Zm-59.587.009c0,1.621.045,3.242-.017,4.861-.036.944.343,1.119,1.175.971a5.987,5.987,0,0,0-.076-11.725c-.768-.14-1.114-.007-1.093.85C946.578,106.83,946.55,108.512,946.549,110.193Zm5.186-15.836a20.128,20.128,0,0,1-4.5,2.58c-.366.144-.615.348-.611.765,0,.348.218.486.526.608,2.914,1.141,3.729.705,4.359-2.372C951.589,95.541,951.625,95.135,951.735,94.357Z" fill="#040404"/>
      <path id="Trazado_653058" data-name="Trazado 653058" d="M1001.145,263.681c-16.232,0-32.463-.024-48.7.039-1.536.007-1.851-.411-1.848-1.884.052-19.894.031-39.788.038-59.682,0-6.421,3.5-9.94,9.886-9.941q40.759-.009,81.519,0c6.288,0,9.831,3.532,9.835,9.811.01,19.954-.016,39.907.042,59.862.005,1.552-.45,1.834-1.9,1.829C1033.728,263.662,1017.437,263.681,1001.145,263.681Zm.051-6q18.852,0,37.7,0c4.85,0,7.075-2.208,7.076-7.02q0-22.634,0-45.268c0-5.051-2.215-7.287-7.221-7.287q-37.522,0-75.045,0c-4.911,0-7.163,2.251-7.164,7.162q0,22.634,0,45.268c0,4.966,2.172,7.144,7.128,7.146Q982.434,257.689,1001.2,257.685Z" transform="translate(-16.01 -34.35)" fill="#caced5"/>
      <path id="Trazado_653059" data-name="Trazado 653059" d="M996.77,299.335q29.3,0,58.59.012c3.2,0,4.281,1.4,3.763,4.579a8.869,8.869,0,0,1-7.576,7.173,14.94,14.94,0,0,1-1.618.087q-53.182.006-106.365.012a8.887,8.887,0,0,1-8.329-4.684,7.76,7.76,0,0,1-1.024-3.6c-.087-2.339.913-3.49,3.247-3.56,2.222-.066,4.446-.057,6.669-.058q26.321-.005,52.642,0Z" transform="translate(-11.464 -64.034)" fill="#959ca6"/>
      <path id="Trazado_653060" data-name="Trazado 653060" d="M1104.742,134.06a20.4,20.4,0,0,0,5.78-5.422,17.452,17.452,0,0,0,3.172-9.973c.022-7.453,0-14.906.017-22.36,0-.95.093-1.763-1.344-1.675-6.718.41-12.092-2.262-16.582-7.159-2.854-3.114-3.044-3.089-5.99.051-3.484,3.712-7.471,6.405-12.638,6.986a38.162,38.162,0,0,1-4.14.135c-.726,0-1.121.2-1.107,1.013.142,8.348-.395,16.71.274,25.043a16.337,16.337,0,0,0,7.459,12.4c1.287.894,1.123,1.221.013,2.048a16.378,16.378,0,0,0-4.2,4.665c-.549.9-1.043,1.143-1.993.536-4.442-2.844-7.24-6.8-7.348-12.114-.179-8.772-.2-17.554,0-26.324.267-11.659,9.8-22.4,21.5-24.575a26.781,26.781,0,0,1,31.775,22.735,42.021,42.021,0,0,1,.178,5.761c.017,7.213.033,14.426-.006,21.639-.03,5.555-2.537,9.747-7.17,12.753-1.023.664-1.6.6-2.254-.509A22.709,22.709,0,0,0,1104.742,134.06Z" transform="translate(-47.991 -2.373)" fill="#656c76"/>
      <path id="Trazado_653061" data-name="Trazado 653061" d="M1112.236,117.008c0,2.883.134,5.773-.028,8.646a11.628,11.628,0,0,1-11.612,11c-3.051.012-6.134.4-9.154-.35a11.685,11.685,0,0,1-8.852-10.774c-.116-5.884-.013-11.772-.074-17.658-.009-.968.38-1.179,1.2-1.319a23.8,23.8,0,0,0,12.8-6.48c.771-.747,1.2-.583,1.874.066a23.442,23.442,0,0,0,12.651,6.382c1.1.182,1.3.666,1.279,1.659-.061,2.942-.022,5.886-.022,8.829Zm-20.8,4.83a8.677,8.677,0,0,1-1.257-.009c-1.445-.215-1.836.274-1.538,1.748a8.935,8.935,0,0,0,17.469.281c.373-1.452.388-2.3-1.507-2.046a21.816,21.816,0,0,1-3.232.022c-.578-.009-.965.053-1.149.777a2.915,2.915,0,0,1-5.587.124c-.246-.865-.7-.944-1.4-.9C1092.638,121.865,1092.037,121.838,1091.438,121.838Z" transform="translate(-52.576 -8.673)" fill="#e9cfb6"/>
      <path id="Trazado_653062" data-name="Trazado 653062" d="M1011.456,76.87c3.026.188,7.07-.43,11.056.424a18.888,18.888,0,0,1,14.178,22.81c-.283,1.121-.661,1.238-1.926,1.159-3.061-.191-4.327-1.784-5.466-4.431-1.587-3.687-4.778-5.952-8.63-7.112a3.054,3.054,0,0,1-2.192-1.816,9.459,9.459,0,0,0-10.186-5.184c-.615.1-.831.338-.812.909.013.421-.009.841,0,1.262.019,1.138-.309,2.459.158,3.369.582,1.132,2.066.319,3.138.517a2.911,2.911,0,0,1,2.564,2.966,2.835,2.835,0,0,1-3.026,2.885c-3.6.051-7.211.08-10.815,0-4.046-.085-7.11,1.448-8.97,5.111a1.606,1.606,0,0,1-1.548.969,6.877,6.877,0,0,0-2.47.38c-1.63.738-2.131.173-2.459-1.441A18.755,18.755,0,0,1,1002,76.882C1004.819,76.8,1007.646,76.87,1011.456,76.87Z" transform="translate(-25.169 -2.367)" fill="#a87a4e"/>
      <path id="Trazado_653063" data-name="Trazado 653063" d="M934.264,76.878h15.148c5.042,0,5.334.338,5.351,5.462a11.927,11.927,0,0,1-3.868,9.168,11.026,11.026,0,0,1-7.486,3.109c-5.048.093-10.1.053-15.148.024-1.991-.012-3.154-1.133-3.182-2.908s1.112-2.862,3.115-2.947c2.74-.117,2.74-.117,2.74-2.807,0-3.378,0-3.425-3.354-3.215a8.593,8.593,0,0,0-7.656,5.164,2.962,2.962,0,0,1-2.046,1.745,14.169,14.169,0,0,0-9.8,9.279,2.186,2.186,0,0,1-2.442,1.8,1.462,1.462,0,0,0-.359.027c-.871.174-2.087.792-2.537.437-.849-.671-.862-2.028-1.115-3.133a17.324,17.324,0,0,1,16.41-21.167c5.407-.124,10.82-.022,16.23-.022Z" transform="translate(-2.311 -2.376)" fill="#656c76"/>
      <path id="Trazado_653064" data-name="Trazado 653064" d="M947.389,117.8c0,2.7.046,5.4-.009,8.1a11.752,11.752,0,0,1-11.614,11.589c-2.99.022-6.01.392-8.972-.3a11.473,11.473,0,0,1-9.057-10.739c-.186-5.275-.159-10.564-.025-15.842.094-3.705,2.131-6.255,5.5-7.757.63-.282,1.1-.487,1.6.379,1.933,3.35,5.008,4.621,8.768,4.585,4.142-.038,8.286.026,12.429-.032,1.07-.015,1.459.223,1.425,1.375-.087,2.879-.028,5.761-.028,8.643Zm-20.744,4.88c-.659,0-1.322.044-1.976-.011-.849-.071-1.158.168-1.056,1.1a9.147,9.147,0,0,0,8.724,7.847A9.048,9.048,0,0,0,941.3,124.3c.215-1.191.1-1.8-1.309-1.639a18.97,18.97,0,0,1-2.874.012c-.931-.039-1.537.01-1.974,1.166-.812,2.145-4.041,2.585-4.845.586C929.454,122.315,928.1,122.72,926.645,122.677Z" transform="translate(-6.863 -9.512)" fill="#e9cfb6"/>
      <path id="Trazado_653065" data-name="Trazado 653065" d="M1029.813,118.7c0,2.522.078,5.047-.013,7.566a11.687,11.687,0,0,1-11.405,11.223c-3.05.034-6.134.4-9.156-.3a11.621,11.621,0,0,1-9.086-11.115c-.1-4.982-.052-9.969-.027-14.953.012-2.254,1.051-3.279,3.329-3.3,3.544-.035,7.089-.023,10.632-.007,3.691.017,6.7-1.269,8.606-4.558.474-.82.915-.711,1.586-.412a8.472,8.472,0,0,1,5.5,7.575C1029.943,113.168,1029.811,115.938,1029.813,118.7Zm-20.785,3.98c-.66,0-1.323.043-1.978-.01-.939-.077-1.068.327-.951,1.17a8.952,8.952,0,0,0,17.491,1.242c.651-2.382.638-2.4-1.751-2.4-.9,0-1.8.02-2.7-.007-.7-.021-1.148.043-1.392.922a2.671,2.671,0,0,1-2.854,2.007,2.644,2.644,0,0,1-2.682-2c-.236-.873-.674-.968-1.385-.932C1010.228,122.7,1009.627,122.681,1009.028,122.681Z" transform="translate(-29.728 -9.516)" fill="#e9cfb6"/>
      <path id="Trazado_653066" data-name="Trazado 653066" d="M901.146,223.374c0-4.385.027-8.77-.02-13.155-.012-1.073.129-1.578,1.422-1.556q7.569.126,15.14,0c1.208-.019,1.335.429,1.331,1.446q-.052,13.426.009,26.851c.007,1.2-.34,1.483-1.5,1.468-4.926-.063-9.855-.09-14.779.013-1.438.03-1.655-.464-1.634-1.734C901.191,232.265,901.146,227.819,901.146,223.374Zm8.943-2.763c3,0,3,0,3-3,0-3.042,0-3.042-2.963-3.042-3.045,0-3.045,0-3.045,3.1C907.078,220.611,907.078,220.611,910.089,220.611Zm-3.011,8.839c0,3.073,0,3.073,3.055,3.073,2.953,0,2.953,0,2.953-3.036,0-3,0-3-3.005-3S907.078,226.485,907.078,229.45Z" transform="translate(-2.292 -38.911)" fill="#e5e8ec"/>
      <path id="Trazado_653067" data-name="Trazado 653067" d="M1115.507,223.534c0-4.445.031-8.89-.021-13.335-.013-1.089.152-1.557,1.425-1.536,5.046.082,10.094.057,15.141.014.979-.009,1.337.215,1.333,1.274q-.062,13.6,0,27.211c.005,1.084-.41,1.265-1.359,1.258-5.047-.037-10.095-.05-15.141.009-1.093.013-1.421-.248-1.4-1.381C1115.548,232.545,1115.507,228.039,1115.507,223.534Zm11.921-5.92c0-3.044,0-3.044-3.1-3.044-2.91,0-2.91,0-2.91,2.917,0,3.125,0,3.125,3.05,3.125C1127.428,220.611,1127.428,220.611,1127.428,217.614Zm0,12.038c0-3.167,0-3.167-2.979-3.167-3.029,0-3.029,0-3.029,2.979,0,3.06,0,3.06,3.108,3.06C1127.428,232.523,1127.428,232.523,1127.428,229.652Z" transform="translate(-61.712 -38.911)" fill="#e5e8ec"/>
      <path id="Trazado_653068" data-name="Trazado 653068" d="M1014.947,177.034c-4.5,0-9.006.008-13.509-.009-.582,0-1.256.29-1.393-.828a15.175,15.175,0,0,1,11.749-16.632,14.835,14.835,0,0,1,17.967,13.721c.153,3.748.153,3.748-3.647,3.748Z" transform="translate(-29.683 -25.202)" fill="#f5d57e"/>
      <path id="Trazado_653069" data-name="Trazado 653069" d="M932.382,177.034q-6.661,0-13.323,0c-.7,0-1.352.175-1.456-.99a15.144,15.144,0,0,1,11.731-16.468,14.86,14.86,0,0,1,18.027,14.035c.093,3.425.093,3.425-3.277,3.425Z" transform="translate(-6.843 -25.202)" fill="#ed8773"/>
      <path id="Trazado_653070" data-name="Trazado 653070" d="M1097.3,177.042c-4.321,0-8.644-.077-12.961.041-1.561.043-1.841-.461-1.829-1.906.063-7.946,4.432-13.9,11.536-15.544a14.8,14.8,0,0,1,18.209,13.954c.171,3.455.171,3.455-3.252,3.455Z" transform="translate(-52.573 -25.21)" fill="#ed8773"/>
      <path id="Trazado_653071" data-name="Trazado 653071" d="M907.105,124.1c0,1.618-.043,3.237.018,4.853.032.865-.322.991-1.063.887a5.988,5.988,0,0,1,.129-11.79c.745-.094.938.142.926.838C907.084,120.62,907.105,122.358,907.105,124.1Z" transform="translate(-2.312 -13.787)" fill="#e9cfb6"/>
      <path id="Trazado_653072" data-name="Trazado 653072" d="M989.535,124.093c0,1.614-.038,3.229.016,4.841.028.841-.3,1.008-1.057.9a5.992,5.992,0,0,1,.121-11.783c.747-.093.941.15.93.841C989.516,120.626,989.534,122.36,989.535,124.093Z" transform="translate(-25.171 -13.789)" fill="#e9cfb6"/>
      <path id="Trazado_653073" data-name="Trazado 653073" d="M1049.571,123.977c0-1.623.055-3.249-.02-4.869-.049-1.068.342-1.188,1.272-.965a5.973,5.973,0,0,1,.233,11.583c-.988.273-1.592.265-1.509-1.062C1049.646,127.107,1049.571,125.539,1049.571,123.977Z" transform="translate(-43.435 -13.793)" fill="#e9cfb6"/>
      <path id="Trazado_653074" data-name="Trazado 653074" d="M967.137,123.985c0-1.681.028-3.362-.012-5.042-.021-.857.325-.99,1.093-.85a5.987,5.987,0,0,1,.076,11.725c-.832.147-1.211-.027-1.175-.971C967.181,127.227,967.136,125.605,967.137,123.985Z" transform="translate(-20.587 -13.792)" fill="#e9cfb6"/>
      <path id="Trazado_653075" data-name="Trazado 653075" d="M972.358,104.354c-.111.778-.147,1.184-.228,1.581-.63,3.077-1.445,3.513-4.359,2.372-.308-.121-.523-.26-.526-.608,0-.417.245-.621.611-.765A20.128,20.128,0,0,0,972.358,104.354Z" transform="translate(-20.623 -9.997)" fill="#656c76"/>
      <path id="Trazado_653076" data-name="Trazado 653076" d="M1003.474,259.948q-18.761,0-37.522,0c-4.955,0-7.127-2.18-7.127-7.146q0-22.635,0-45.268c0-4.911,2.252-7.161,7.164-7.162q37.522,0,75.045,0c5.005,0,7.22,2.236,7.221,7.287q0,22.635,0,45.268c0,4.812-2.226,7.018-7.076,7.02Q1022.326,259.952,1003.474,259.948Zm.246-53.55c-12.387,0-24.775.027-37.161-.036-1.452-.007-1.756.42-1.751,1.8.05,13.826.03,27.653.03,41.48,0,4.483,0,4.424,4.491,4.439,1.282,0,1.464-.47,1.428-1.558-.07-2.162-.021-4.327-.021-6.492,0-3.084-.009-3.112,3-4.074a3.146,3.146,0,0,0,2.173-1.832,3.945,3.945,0,0,0-.252-4.468c-1.125-1.488-.765-2.492.575-3.722,2.921-2.682,5.723-5.5,8.418-8.413,1.126-1.216,2.03-1.341,3.337-.475a3.952,3.952,0,0,0,4.478.446,3.6,3.6,0,0,0,2.011-2.249c.936-2.957.969-2.947,4.1-2.947,3.488,0,6.988.179,10.459-.064,2.2-.155,3.189.638,3.495,2.645a3.348,3.348,0,0,0,2.423,2.737,3.688,3.688,0,0,0,3.519-.19c2.487-1.336,2.517-1.282,4.561.759l7.144,7.141c2.269,2.267,2.288,2.277.836,5.117a3.655,3.655,0,0,0-.2,2.83c.569,2.287,2.32,2.693,4.079,3.165,1.106.3,1.558.776,1.483,1.972-.112,1.8-.029,3.6-.029,5.409,0,4.258,0,4.184,4.3,4.264,1.44.027,1.639-.467,1.636-1.735q-.066-22.093,0-44.186c0-1.37-.291-1.806-1.748-1.8C1028.255,206.426,1015.987,206.4,1003.721,206.4Zm-22.67,47.643c1.234,0,2.2-.078,3.156.02,1.305.134,1.85-.177,1.587-1.641a12.743,12.743,0,0,1,.26-5.013,17.86,17.86,0,0,1,35.342,3.036c.068,1.177-.765,2.783.135,3.393.873.591,2.43.236,3.683.192,1.663-.059,3.873.733,4.83-.333.82-.913.15-3.09.309-4.691.138-1.391-.314-2.18-1.707-2.356a2.558,2.558,0,0,1-2.293-2.325,19.414,19.414,0,0,0-2.231-5.287c-.343-.6-.652-1.18-.12-1.811,1.587-1.884.786-3.261-.871-4.556a13.53,13.53,0,0,1-2.164-2.165c-.779-.967-1.536-1.2-2.565-.4a2.746,2.746,0,0,1-3.576,0,11.689,11.689,0,0,0-4.132-1.728c-1.634-.335-2.691-1.1-2.909-2.861-.116-.942-.629-1.41-1.719-1.342-1.736.11-3.485.037-5.229.025-.628,0-1.255-.016-1.347.81-.265,2.369-1.883,3.123-3.945,3.651a24.334,24.334,0,0,0-4.081,1.853c-.472.221-.917.666-1.474.2-2.277-1.892-3.817-.648-5.26,1.192a8,8,0,0,1-1.532,1.523c-1.172.857-1.406,1.793-.511,2.98a2.421,2.421,0,0,1,.035,3.1,17.247,17.247,0,0,0-2.162,5.311,1.857,1.857,0,0,1-1.6,1.657c-1.759.286-2.541,1.171-2.241,3.063.222,1.4-.431,3.334.3,4.17C977.879,254.711,979.844,253.874,981.051,254.041Zm22.336,0h8.1c3.9,0,4.5-.721,3.862-4.653-.076-.473-.18-.943-.3-1.407a11.914,11.914,0,0,0-23.394,3.983c.119,1.365.39,2.248,2.2,2.133C997.02,253.895,1000.208,254.04,1003.387,254.04Z" transform="translate(-18.288 -36.613)" fill="#030404"/>
      <path id="Trazado_653077" data-name="Trazado 653077" d="M1093.751,130.347c.6,0,1.2.027,1.8-.007.7-.04,1.156.039,1.4.9a2.915,2.915,0,0,0,5.587-.124c.184-.724.57-.786,1.149-.777a21.812,21.812,0,0,0,3.232-.022c1.9-.258,1.88.593,1.507,2.046a8.935,8.935,0,0,1-17.469-.281c-.3-1.474.093-1.962,1.538-1.748A8.677,8.677,0,0,0,1093.751,130.347Z" transform="translate(-54.89 -17.183)" fill="#040404"/>
      <path id="Trazado_653078" data-name="Trazado 653078" d="M928.942,130.358c1.459.043,2.809-.361,3.655,1.743.8,2,4.033,1.559,4.845-.586.437-1.156,1.043-1.2,1.974-1.166a18.972,18.972,0,0,0,2.874-.012c1.411-.159,1.524.447,1.309,1.639a9.048,9.048,0,0,1-8.965,7.315,9.147,9.147,0,0,1-8.724-7.847c-.1-.928.207-1.167,1.056-1.1C927.62,130.4,928.283,130.358,928.942,130.358Z" transform="translate(-9.16 -17.193)" fill="#040404"/>
      <path id="Trazado_653079" data-name="Trazado 653079" d="M1011.317,130.368c.6,0,1.2.024,1.8-.007.71-.035,1.148.059,1.385.932a2.644,2.644,0,0,0,2.682,2,2.671,2.671,0,0,0,2.854-2.007c.244-.879.692-.943,1.392-.922.9.027,1.8.006,2.7.007,2.389,0,2.4.02,1.751,2.4a8.952,8.952,0,0,1-17.491-1.242c-.116-.844.012-1.247.951-1.17C1009.993,130.411,1010.657,130.368,1011.317,130.368Z" transform="translate(-32.017 -17.203)" fill="#040404"/>
      <path id="Trazado_653080" data-name="Trazado 653080" d="M912.375,222.876c-3.011,0-3.011,0-3.011-2.944,0-3.1,0-3.1,3.045-3.1,2.963,0,2.963,0,2.963,3.042C915.372,222.876,915.372,222.876,912.375,222.876Z" transform="translate(-4.579 -41.177)" fill="#0c0c0c"/>
      <path id="Trazado_653081" data-name="Trazado 653081" d="M909.364,236.285c0-2.965,0-2.965,3-2.965s3.005,0,3.005,3c0,3.036,0,3.036-2.953,3.036C909.364,239.358,909.364,239.358,909.364,236.285Z" transform="translate(-4.579 -45.746)" fill="#0c0c0c"/>
      <path id="Trazado_653082" data-name="Trazado 653082" d="M1129.707,219.879c0,3,0,3-2.958,3-3.05,0-3.05,0-3.05-3.125,0-2.917,0-2.917,2.91-2.917C1129.707,216.835,1129.707,216.835,1129.707,219.879Z" transform="translate(-63.992 -41.177)" fill="#0c0c0c"/>
      <path id="Trazado_653083" data-name="Trazado 653083" d="M1129.707,236.487c0,2.871,0,2.871-2.9,2.871-3.108,0-3.108,0-3.108-3.06,0-2.979,0-2.979,3.029-2.979C1129.707,233.32,1129.707,233.32,1129.707,236.487Z" transform="translate(-63.992 -45.746)" fill="#0c0c0c"/>
      <path id="Trazado_653084" data-name="Trazado 653084" d="M1006.016,208.7c12.267,0,24.534.027,36.8-.036,1.457-.008,1.752.428,1.748,1.8q-.068,22.093,0,44.186c0,1.269-.2,1.762-1.636,1.735-4.294-.079-4.3-.006-4.3-4.264,0-1.8-.083-3.613.029-5.409.074-1.2-.377-1.675-1.483-1.972-1.759-.472-3.51-.878-4.079-3.165a3.655,3.655,0,0,1,.2-2.83c1.451-2.841,1.432-2.85-.836-5.117l-7.144-7.141c-2.044-2.041-2.074-2.1-4.561-.759a3.688,3.688,0,0,1-3.519.19,3.348,3.348,0,0,1-2.423-2.737c-.306-2.007-1.3-2.8-3.495-2.645-3.471.244-6.971.064-10.459.064-3.128,0-3.162-.01-4.1,2.947a3.6,3.6,0,0,1-2.011,2.249,3.952,3.952,0,0,1-4.478-.446c-1.307-.866-2.211-.742-3.337.475-2.695,2.909-5.5,5.731-8.418,8.413-1.341,1.231-1.7,2.235-.575,3.722a3.945,3.945,0,0,1,.252,4.468,3.146,3.146,0,0,1-2.173,1.832c-3.008.962-3,.99-3,4.074,0,2.164-.049,4.33.021,6.492.035,1.088-.147,1.561-1.428,1.558-4.491-.014-4.491.044-4.491-4.439,0-13.827.019-27.654-.03-41.48-.005-1.375.3-1.8,1.751-1.8C981.241,208.723,993.628,208.7,1006.016,208.7Z" transform="translate(-20.584 -38.91)" fill="#83d3ee"/>
      <path id="Trazado_653085" data-name="Trazado 653085" d="M987.889,263.168c-1.207-.167-3.172.67-4.036-.325-.727-.836-.074-2.766-.3-4.17-.3-1.892.482-2.777,2.241-3.063a1.857,1.857,0,0,0,1.6-1.657,17.247,17.247,0,0,1,2.162-5.311,2.421,2.421,0,0,0-.035-3.1c-.895-1.188-.661-2.123.511-2.98a8,8,0,0,0,1.532-1.523c1.443-1.84,2.984-3.083,5.26-1.192.558.464,1,.019,1.475-.2a24.333,24.333,0,0,1,4.081-1.853c2.062-.528,3.68-1.282,3.945-3.651.093-.826.719-.815,1.347-.81,1.743.012,3.493.085,5.229-.025,1.09-.069,1.6.4,1.719,1.342.218,1.758,1.274,2.526,2.909,2.861a11.689,11.689,0,0,1,4.132,1.728,2.746,2.746,0,0,0,3.576,0c1.029-.8,1.785-.572,2.565.4a13.53,13.53,0,0,0,2.164,2.165c1.657,1.295,2.458,2.672.871,4.556-.532.632-.223,1.211.12,1.811a19.41,19.41,0,0,1,2.231,5.287,2.558,2.558,0,0,0,2.293,2.325c1.393.176,1.845.966,1.707,2.356-.159,1.6.511,3.778-.309,4.691-.957,1.065-3.167.274-4.83.333-1.253.044-2.81.4-3.683-.192-.9-.609-.067-2.216-.135-3.393a17.86,17.86,0,0,0-35.342-3.036,12.742,12.742,0,0,0-.26,5.013c.264,1.464-.281,1.774-1.587,1.641C990.093,263.09,989.123,263.168,987.889,263.168Z" transform="translate(-25.127 -45.74)" fill="#f3d37d"/>
      <path id="Trazado_653086" data-name="Trazado 653086" d="M1015.962,268.905c-3.179,0-6.366-.145-9.533.056-1.809.115-2.081-.768-2.2-2.133a11.914,11.914,0,0,1,23.394-3.983c.118.465.222.935.3,1.407.634,3.932.033,4.653-3.862,4.653Z" transform="translate(-30.863 -51.478)" fill="#83d3ee"/>
    </g>
  </g>
</svg>
