<svg xmlns="http://www.w3.org/2000/svg" width="295" height="295" viewBox="0 0 295 295">
  <g id="Grupo_995459" data-name="Grupo 995459" transform="translate(-652.5 -4578.37)">
    <circle id="Elipse_8168" data-name="Elipse 8168" cx="147.5" cy="147.5" r="147.5" transform="translate(652.5 4578.37)" fill="#016d80"/>
    <g id="Grupo_994147" data-name="Grupo 994147" transform="translate(111.403 4601.055)">
      <path id="Trazado_653087" data-name="Trazado 653087" d="M766.487,112.387a50.713,50.713,0,1,1-74.882,3H671.445a34.979,34.979,0,0,1,1.973,6.042c1.011,4.927-.414,9.611-1.332,14.342a6.043,6.043,0,0,0,.448,4.215,11.811,11.811,0,0,1-9.567,16.949c-1.024.114-1.4.322-1.644,1.408-1.684,7.341-6.155,12.378-13.078,15.259.17.642.743.695,1.143.932a24.617,24.617,0,0,1,12.015,16.9c.31,1.5,1.5,1.885,2.688.816.876-.788,1.642-1.7,2.54-2.462,3.638-3.074,7.743-3.91,12.135-1.99a10.97,10.97,0,0,1,6.906,10.372c.083,2.42.055,4.845,0,7.266a11.319,11.319,0,0,1-11.183,11.177c-11.369.073-22.74.131-34.107-.018a20.735,20.735,0,0,1-20.276-20.244c-.11-5.214-.038-10.434-.027-15.651a11.949,11.949,0,0,1,2.282-6.817c-.99-.446-1.915-.8-2.782-1.264a20.753,20.753,0,0,1-10.947-14.28c-.208-.916-.417-1.282-1.451-1.393-8.982-.961-13.634-10.045-9.224-17.953a2.937,2.937,0,0,0,.356-2.1c-.641-3.665-1.259-7.334-1.827-11.011a17.388,17.388,0,0,1,5.773-16.266c.889-.818,1.09-1.192.2-2.229-6.742-7.871-8.347-16.766-3.883-26.116,4.445-9.31,12.277-13.793,22.662-13.7,1.238.012,2.691.9,3.6.19.854-.671,1.04-2.173,1.554-3.295a35.621,35.621,0,0,1,52.585-14.416c1.14.792,1.545.71,2.383-.423C691.436,36,705.04,29.876,721.745,32.354,738.232,34.8,749.3,44.525,755.023,60.215a1.951,1.951,0,0,0,1.875,1.531c14.659,1.9,24.822,13.508,24.155,27.9-.438,9.459-5.008,16.7-12.985,21.786C767.556,111.759,767.028,112.061,766.487,112.387ZM713.577,37.757c-10.581.344-20.635,5.53-27.865,15.994-.494.715-.9,1.242-.055,2.189a35.379,35.379,0,0,1,8.851,20.279c.352,3.28.4,3.275-2.94,3.275-.621,0-1.247-.048-1.863.011-.81.078-1.041-.219-1.075-1.032a29.817,29.817,0,0,0-.467-4.437c-2.658-13.641-14.3-23.812-27.788-24.333a29.685,29.685,0,0,0-30.271,22.1c-.331,1.186-.328,2.874-1.113,3.422-1,.695-2.375-.522-3.591-.889A17.888,17.888,0,0,0,606.99,103.6c.96,1.033,1.712,1.569,3,.361a24.04,24.04,0,0,1,3.782-2.7c7.955-4.972,16.309-5.537,24.26-.65a17.949,17.949,0,0,0,11.108,2.74c.805-.048,1.615-.009,2.423-.006a21.623,21.623,0,0,1,14.217,5.127,3.354,3.354,0,0,0,2.339.856q14.165-.052,28.331,0a3.768,3.768,0,0,0,2.523-.9,48.592,48.592,0,0,1,21.541-9.978,2.056,2.056,0,0,0,1.689-1.417,8.844,8.844,0,0,1,16.454.034,2.06,2.06,0,0,0,1.709,1.4,48.064,48.064,0,0,1,19.919,8.722,2.115,2.115,0,0,0,2.524.23c7.794-3.9,12.158-10.139,12.3-18.885a20.777,20.777,0,0,0-21.263-20.96c-2.965.049-2.965.049-3.673-2.784C746.2,48.894,731.961,37.744,713.577,37.757ZM614.115,145.749h.012c0,2.916-.06,5.834.012,8.749A14.658,14.658,0,0,0,626.2,168.589c4.915.836,9.91.329,14.865.309a14.8,14.8,0,0,0,14.783-14.827c.064-5.77.026-11.541.01-17.312-.008-2.525-1.058-3.553-3.65-3.6a22.95,22.95,0,0,1-12.925-4.055,1.4,1.4,0,0,0-2.051.049,16.435,16.435,0,0,1-8.551,3.774c-3.584.484-7.188.146-10.782.225-2.775.06-3.774,1.035-3.783,3.849C614.107,139.917,614.115,142.833,614.115,145.749Zm26.772-30.481a6.316,6.316,0,0,0,1.116-.01c1.783-.326,2.173.536,1.855,2.081a16.843,16.843,0,0,1-1.411,4.988c-.609,1.09-.249,1.671.707,2.236a17.691,17.691,0,0,0,9.189,2.619,9.07,9.07,0,0,1,8.511,4.986c.229.411.333.848.959,1,4.439,1.078,4.434,1.1,5.357-3.335.038-.181.111-.356.148-.538,2-9.8-3.579-18.211-13.4-19.778-4.1-.655-8.305-.165-12.462-.182a3.93,3.93,0,0,1-2.956-1.156,17.038,17.038,0,0,0-21.415-1.951c-3.512,2.334-6.977,4.763-10.286,7.375a11.49,11.49,0,0,0-4.39,11.557c.3,1.834.615,3.666.885,5.5.435,2.969.411,2.838,3.358,2.615a3.314,3.314,0,0,0,2.975-1.866,8.377,8.377,0,0,1,7.422-4.209c2.732-.048,5.464-.007,8.2-.012,6.882-.011,11.493-3.854,12.631-10.674.18-1.078.559-1.352,1.516-1.258C639.889,115.307,640.39,115.268,640.887,115.268Zm89.366,29.814c6.52,0,13.04-.023,19.56.022,1.1.008,1.517-.193,1.419-1.421a103.113,103.113,0,0,0-2.1-15.091c-.237-1.028-.564-1.425-1.677-1.421q-17.045.063-34.09,0c-1.152-.005-1.417.465-1.648,1.455a101.76,101.76,0,0,0-2.081,14.717c-.114,1.352.139,1.8,1.618,1.78C717.585,145.029,723.919,145.082,730.253,145.082Zm.268,5.966q-9.686,0-19.373-.009c-.926,0-1.641-.091-1.527,1.305a104.544,104.544,0,0,0,2.069,15.1c.252,1.088.565,1.53,1.782,1.524q16.952-.078,33.9,0c1.213.005,1.533-.426,1.783-1.521a108.1,108.1,0,0,0,2.054-14.722c.133-1.5-.357-1.716-1.691-1.7C743.189,151.084,736.854,151.047,730.521,151.048Zm-81.144,59.624c4.193,0,7.67-.04,11.144.025,1.064.02,1.356-.3,1.332-1.348-.066-3.039-.09-6.082.009-9.119.04-1.261-.38-1.521-1.557-1.507-5.151.061-10.3.111-15.453-.018a5.434,5.434,0,0,0-4.523,1.849c-3.255,3.455-3.3,3.366-6.587-.046-.664-.689-.762-1.092-.028-1.762,1.19-1.086,2.276-2.286,3.449-3.393a2.412,2.412,0,0,0,.826-1.943c-.042-4.157.018-8.314-.031-12.471a5.95,5.95,0,1,0-11.9-.072c-.05,5.149-.088,10.3.019,15.449a14.741,14.741,0,0,0,11.941,14.022C642.019,211.1,646.072,210.453,649.376,210.672Zm97.541-35.682H713.929c2.088,5.582,4.555,10.746,9.025,14.663,4.781,4.19,10.166,4.185,14.941,0C742.365,185.729,744.826,180.564,746.918,174.99Zm.023-53.758c-2.027-5.505-4.5-10.486-8.728-14.443-.721-.676-1.117-.5-1.788.085-3.709,3.255-8.314,3.3-11.926.05-.895-.806-1.325-.643-2.067.063-3.818,3.636-6.148,8.172-8.085,12.98-.485,1.2-.083,1.284.96,1.281,8.065-.031,16.129-.016,24.193-.016Zm-41.04,47.7a90.686,90.686,0,0,1-2.2-16.875c-.045-1.01-.551-1.022-1.3-1.019-5.083.017-10.166.025-15.249-.005-.9-.005-1.3.114-1.2,1.2a44.127,44.127,0,0,0,4.481,15.789c.261.526.5.93,1.2.926C696.345,168.92,701.049,168.932,705.9,168.932Zm60.229-17.885c-2.479,0-4.963.075-7.437-.031-1.238-.053-1.536.382-1.585,1.536a82.368,82.368,0,0,1-1.95,15.266c-.23.988.093,1.137.972,1.13q6.415-.049,12.831.005a1.48,1.48,0,0,0,1.513-1.043,44.287,44.287,0,0,0,4.407-15.62c.087-.973-.108-1.292-1.127-1.265C771.214,151.093,768.671,151.047,766.13,151.047Zm-71.389-5.965c2.48,0,4.962-.052,7.439.024,1.081.034,1.469-.2,1.529-1.386a83.78,83.78,0,0,1,1.975-15.268c.231-.97.1-1.295-.99-1.28-4.215.058-8.432.049-12.647,0a1.6,1.6,0,0,0-1.676,1.085,45.205,45.205,0,0,0-4.414,15.433c-.124,1.231.232,1.447,1.345,1.413C689.779,145.03,692.261,145.082,694.741,145.082Zm71.319,0c2.542,0,5.084-.018,7.626.01.839.01,1.333-.018,1.226-1.163a45.042,45.042,0,0,0-4.493-15.793,1.483,1.483,0,0,0-1.567-.956q-6.324.052-12.649,0c-.968-.01-1.316.17-1.06,1.229a84.515,84.515,0,0,1,2.013,15.451c.049.942.291,1.275,1.276,1.248C760.974,145.037,763.518,145.082,766.06,145.082ZM667.8,203.6c0,.311-.019.623,0,.931.143,2.019-.906,4.994.385,5.824,1.586,1.019,4.31.391,6.531.27a5.3,5.3,0,0,0,4.978-5.121c.1-2.541.112-5.094-.012-7.634a5.1,5.1,0,0,0-3.257-4.613,5.2,5.2,0,0,0-5.589.788c-2.075,1.62-3.682,3.432-3.072,6.4A15.919,15.919,0,0,1,667.8,203.6Zm78.33-97.175a55.934,55.934,0,0,1,6.726,13.824c.3.922.862,1,1.662,1,3.344-.028,6.688,0,10.032-.028.429,0,.994.295,1.333-.378A42.8,42.8,0,0,0,746.127,106.424Zm-51.461,14.808c4.315,0,8.2-.033,12.078.024.971.014,1.077-.607,1.292-1.234a52.774,52.774,0,0,1,5.087-10.887c.555-.889,1.14-1.76,1.984-3.059A45.5,45.5,0,0,0,694.666,121.233Zm20.313,68.556a51.1,51.1,0,0,1-7.075-13.92c-.14-.417-.164-.981-.9-.977-3.98.024-7.962.011-12.1.011C698.807,180.938,708.247,187.945,714.979,189.789Zm30.86.052c7.312-2.225,18.191-10.487,19.861-14.945-3.8,0-7.571.03-11.345-.024a1.272,1.272,0,0,0-1.45,1.029A50.1,50.1,0,0,1,745.839,189.841Zm-101.9-11.369c0,4.54.022,8.86-.019,13.18-.008.885.243,1.172,1.143,1.152,2.416-.057,4.834-.019,7.251-.019,3.687,0,3.73-.017,2.334-3.54A18.453,18.453,0,0,0,643.938,178.472Zm-35.787-33.388c0-1.673-.047-3.347.018-5.017.036-.927-.372-1-1.113-.874a6,6,0,0,0,0,11.778c.741.127,1.151.058,1.116-.87C608.105,148.43,608.151,146.756,608.151,145.084Zm53.679,0c0,1.672.045,3.346-.018,5.016-.034.92.361,1,1.111.875a6,6,0,0,0,0-11.777c-.739-.125-1.15-.058-1.114.872C661.876,141.734,661.83,143.408,661.83,145.08Zm68.606-47.694a2.977,2.977,0,1,0,2.965,2.942A3,3,0,0,0,730.436,97.386Z" transform="translate(0 0)" fill="#020202"/>
      <path id="Trazado_653088" data-name="Trazado 653088" d="M715.654,39.772c18.384-.013,32.625,11.136,36.6,27.038.708,2.833.708,2.833,3.673,2.784a20.777,20.777,0,0,1,21.263,20.96c-.144,8.747-4.508,14.987-12.3,18.885a2.115,2.115,0,0,1-2.524-.23,48.064,48.064,0,0,0-19.919-8.722,2.06,2.06,0,0,1-1.71-1.4,8.844,8.844,0,0,0-16.454-.034,2.056,2.056,0,0,1-1.689,1.417,48.592,48.592,0,0,0-21.541,9.978,3.768,3.768,0,0,1-2.523.9q-14.165-.054-28.331,0a3.354,3.354,0,0,1-2.339-.856,21.623,21.623,0,0,0-14.217-5.127c-.807,0-1.618-.042-2.423.006a17.948,17.948,0,0,1-11.108-2.74c-7.951-4.886-16.306-4.322-24.261.65a24.033,24.033,0,0,0-3.782,2.7c-1.288,1.208-2.039.671-3-.361a17.888,17.888,0,0,1,18.411-29.26c1.216.367,2.6,1.584,3.591.889.785-.548.782-2.236,1.113-3.422a29.684,29.684,0,0,1,30.271-22.1c13.492.521,25.131,10.692,27.789,24.333a29.825,29.825,0,0,1,.467,4.437c.034.813.266,1.11,1.075,1.032.615-.059,1.241-.011,1.862-.011,3.335,0,3.292,0,2.94-3.275a35.379,35.379,0,0,0-8.851-20.279c-.844-.947-.439-1.474.055-2.189C695.019,45.3,705.073,40.116,715.654,39.772Zm40.082,39.29c-.438-.361-.831-.659-1.193-.989a32.884,32.884,0,0,0-42.4-1.4c-2.98,2.373-2.98,2.373-.262,5.1a4.533,4.533,0,0,1,.523.529c.748,1.056,1.331.935,2.3.064a26.831,26.831,0,0,1,33.812-1.543c1.057.783,1.948,2.479,3.146,2.2,1.136-.268,1.985-1.762,2.951-2.727C754.956,79.94,755.273,79.567,755.736,79.062ZM661.042,57.656A23.989,23.989,0,0,0,638.89,72.407c-.937,2.235-.937,2.236,1.3,2.9a15.4,15.4,0,0,1,2.125.65c1.112.52,1.515.193,1.966-.942a18.079,18.079,0,0,1,17.87-11.406c1.339.065,2.924,1.311,3.909.205.857-.963.908-2.641,1.317-4a1.307,1.307,0,0,1,.072-.171c.351-.751.123-1.094-.706-1.274A25.9,25.9,0,0,0,661.042,57.656ZM716.8,45.719a29.379,29.379,0,0,0-17.075,5.954c-2.1,1.558-2.1,1.561-.417,3.448a19.468,19.468,0,0,1,1.361,1.529c.659.919,1.158,1.006,2.16.244,6.62-5.032,13.979-6.3,21.981-4.078,1.29.358,2.7,1.742,3.7,1.148,1.045-.624,1.352-2.412,2.116-3.6.723-1.127.3-1.569-.76-2.022A32.4,32.4,0,0,0,716.8,45.719Zm15.811,35.776a20.832,20.832,0,0,0-12.224,3.918c-2.826,2.038-2.825,2.04-.333,4.52a6.287,6.287,0,0,1,.658.657c.753,1.011,1.35,1.141,2.477.223a14.868,14.868,0,0,1,16.894-1.32c1.118.639,1.917,2.4,3.275,1.867,1.166-.456,1.919-1.891,2.963-2.762.971-.812.7-1.268-.126-1.976A21.065,21.065,0,0,0,732.612,81.495Z" transform="translate(-2.077 -2.015)" fill="#e4e7ea"/>
      <path id="Trazado_653089" data-name="Trazado 653089" d="M620.228,178.591c0-2.916-.007-5.833,0-8.749.01-2.814,1.008-3.789,3.783-3.849,3.594-.079,7.2.259,10.782-.225a16.434,16.434,0,0,0,8.551-3.774,1.4,1.4,0,0,1,2.051-.049A22.95,22.95,0,0,0,658.323,166c2.592.049,3.643,1.076,3.65,3.6.016,5.771.054,11.542-.01,17.312a14.8,14.8,0,0,1-14.783,14.827c-4.955.019-9.95.527-14.865-.309a14.658,14.658,0,0,1-12.064-14.091c-.072-2.915-.012-5.833-.012-8.749Zm20.716,17.253a12.661,12.661,0,0,0,10.326-5.177c1.735-2.317,1.72-2.329-.795-3.589a11.526,11.526,0,0,1-1.485-.76c-1.067-.747-1.648-.63-2.43.585a6.626,6.626,0,0,1-10.192,1.017c-.715-.685-.736-2.257-2.022-2.067a10.587,10.587,0,0,0-2.83,1.35,6.77,6.77,0,0,1-1.008.47c-1.058.321-.895.905-.451,1.655A12.657,12.657,0,0,0,640.944,195.843Zm-11.8-23.878a2.978,2.978,0,1,0,3.006,2.9A2.988,2.988,0,0,0,629.146,171.965Zm24.032,0a2.98,2.98,0,1,0,2.833,3.077A3,3,0,0,0,653.178,171.965Z" transform="translate(-6.113 -32.841)" fill="#e9cfb5"/>
      <path id="Trazado_653090" data-name="Trazado 653090" d="M642.969,139.513c-.5,0-1,.04-1.49-.008-.957-.094-1.336.181-1.516,1.258-1.137,6.82-5.749,10.663-12.631,10.674-2.732,0-5.465-.036-8.2.012a8.377,8.377,0,0,0-7.422,4.209,3.314,3.314,0,0,1-2.975,1.866c-2.946.223-2.922.354-3.358-2.615-.27-1.838-.584-3.67-.885-5.5a11.49,11.49,0,0,1,4.39-11.557c3.308-2.612,6.774-5.042,10.286-7.375a17.038,17.038,0,0,1,21.415,1.951,3.93,3.93,0,0,0,2.956,1.156c4.157.017,8.36-.473,12.462.182,9.818,1.567,15.4,9.975,13.4,19.778-.037.181-.11.356-.148.538-.923,4.433-.918,4.413-5.357,3.335-.626-.152-.73-.59-.959-1a9.07,9.07,0,0,0-8.511-4.986,17.691,17.691,0,0,1-9.189-2.619c-.956-.565-1.317-1.146-.707-2.236a16.849,16.849,0,0,0,1.411-4.988c.318-1.544-.072-2.407-1.855-2.081A6.318,6.318,0,0,1,642.969,139.513Z" transform="translate(-2.082 -24.245)" fill="#656c76"/>
      <path id="Trazado_653091" data-name="Trazado 653091" d="M768.747,177.411c-6.334,0-12.667-.052-19,.04-1.479.021-1.732-.428-1.618-1.78a101.768,101.768,0,0,1,2.081-14.717c.232-.99.5-1.46,1.648-1.455q17.045.069,34.09,0c1.113,0,1.439.393,1.677,1.421a103.121,103.121,0,0,1,2.1,15.091c.1,1.228-.319,1.429-1.419,1.421C781.787,177.388,775.268,177.411,768.747,177.411Z" transform="translate(-38.495 -32.329)" fill="#83d3ee"/>
      <path id="Trazado_653092" data-name="Trazado 653092" d="M769.015,191.463c6.334,0,12.668.036,19-.03,1.334-.013,1.824.2,1.691,1.7a108.094,108.094,0,0,1-2.054,14.722c-.251,1.094-.571,1.526-1.783,1.52q-16.952-.078-33.9,0c-1.217.006-1.53-.436-1.782-1.524a104.536,104.536,0,0,1-2.069-15.1c-.114-1.4.6-1.308,1.527-1.305Q759.328,191.477,769.015,191.463Z" transform="translate(-38.494 -40.415)" fill="#83d3ee"/>
      <path id="Trazado_653093" data-name="Trazado 653093" d="M659.527,259.185c-3.3-.219-7.357.424-11.357-.333a14.741,14.741,0,0,1-11.941-14.022c-.107-5.148-.069-10.3-.019-15.449a5.95,5.95,0,1,1,11.9.072c.049,4.157-.011,8.314.031,12.471a2.412,2.412,0,0,1-.826,1.943c-1.172,1.107-2.258,2.307-3.449,3.393-.734.67-.636,1.072.028,1.762,3.284,3.411,3.331,3.5,6.587.046A5.434,5.434,0,0,1,655,247.218c5.148.129,10.3.079,15.453.018,1.177-.014,1.6.246,1.557,1.507-.1,3.037-.075,6.08-.009,9.119.023,1.043-.268,1.368-1.332,1.348C667.2,259.145,663.72,259.185,659.527,259.185Z" transform="translate(-10.15 -48.514)" fill="#f4d57e"/>
      <path id="Trazado_653094" data-name="Trazado 653094" d="M786.876,223.532c-2.091,5.575-4.552,10.74-9.022,14.66-4.775,4.189-10.16,4.193-14.941,0-4.47-3.918-6.937-9.081-9.025-14.663Z" transform="translate(-39.959 -48.542)" fill="#83d2ee"/>
      <path id="Trazado_653095" data-name="Trazado 653095" d="M786.972,146.5H779.53c-8.064,0-16.128-.014-24.193.016-1.043,0-1.444-.077-.96-1.281,1.937-4.808,4.266-9.344,8.085-12.98.742-.706,1.172-.869,2.067-.063,3.612,3.253,8.217,3.2,11.926-.05.671-.588,1.067-.761,1.788-.085C782.469,136.017,784.945,141,786.972,146.5Z" transform="translate(-40.031 -25.271)" fill="#83d2ee"/>
      <path id="Trazado_653096" data-name="Trazado 653096" d="M736.371,209.352c-4.852,0-9.556-.012-14.259.013-.708,0-.943-.4-1.2-.926a44.127,44.127,0,0,1-4.481-15.789c-.1-1.083.3-1.2,1.2-1.2,5.083.03,10.166.022,15.249.005.748,0,1.254.009,1.3,1.019A90.681,90.681,0,0,0,736.371,209.352Z" transform="translate(-30.47 -40.42)" fill="#83d2ee"/>
      <path id="Trazado_653097" data-name="Trazado 653097" d="M820.042,191.46c2.541,0,5.084.046,7.623-.022,1.019-.027,1.214.292,1.127,1.265a44.287,44.287,0,0,1-4.407,15.62,1.48,1.48,0,0,1-1.513,1.043q-6.415-.065-12.831-.005c-.88.007-1.2-.142-.972-1.13a82.364,82.364,0,0,0,1.95-15.266c.049-1.154.347-1.589,1.586-1.536C815.08,191.535,817.563,191.46,820.042,191.46Z" transform="translate(-53.913 -40.413)" fill="#83d2ee"/>
      <path id="Trazado_653098" data-name="Trazado 653098" d="M725.208,177.413c-2.48,0-4.962-.052-7.44.024-1.113.034-1.469-.181-1.345-1.413a45.205,45.205,0,0,1,4.414-15.433,1.6,1.6,0,0,1,1.676-1.085c4.215.047,8.432.056,12.647,0,1.086-.015,1.221.31.99,1.28a83.775,83.775,0,0,0-1.974,15.268c-.06,1.188-.448,1.42-1.529,1.386C730.169,177.36,727.688,177.413,725.208,177.413Z" transform="translate(-30.467 -32.33)" fill="#83d2ee"/>
      <path id="Trazado_653099" data-name="Trazado 653099" d="M819.966,177.414c-2.542,0-5.086-.046-7.626.022-.985.027-1.227-.305-1.276-1.248a84.515,84.515,0,0,0-2.013-15.451c-.255-1.059.093-1.238,1.06-1.229q6.324.064,12.649,0a1.483,1.483,0,0,1,1.567.956,45.045,45.045,0,0,1,4.493,15.793c.107,1.145-.387,1.172-1.226,1.163C825.05,177.4,822.508,177.414,819.966,177.414Z" transform="translate(-53.905 -32.332)" fill="#83d2ee"/>
      <path id="Trazado_653100" data-name="Trazado 653100" d="M692.025,258.171a15.918,15.918,0,0,0-.034-3.159c-.61-2.965,1-4.777,3.072-6.4a5.2,5.2,0,0,1,5.589-.788,5.1,5.1,0,0,1,3.257,4.613c.124,2.54.111,5.092.012,7.634a5.3,5.3,0,0,1-4.978,5.121c-2.221.121-4.945.75-6.531-.27-1.29-.83-.242-3.8-.385-5.824C692.006,258.794,692.025,258.482,692.025,258.171Z" transform="translate(-24.228 -54.572)" fill="#e9cfb5"/>
      <path id="Trazado_653101" data-name="Trazado 653101" d="M797,131.72a42.8,42.8,0,0,1,19.754,14.415c-.339.673-.9.374-1.333.378-3.343.028-6.688,0-10.032.028-.8.007-1.365-.075-1.662-1A55.939,55.939,0,0,0,797,131.72Z" transform="translate(-50.876 -25.296)" fill="#81d0eb"/>
      <path id="Trazado_653102" data-name="Trazado 653102" d="M728.094,146.411a45.5,45.5,0,0,1,20.441-15.156c-.843,1.3-1.429,2.169-1.984,3.059a52.774,52.774,0,0,0-5.087,10.887c-.215.627-.321,1.248-1.292,1.234C736.291,146.378,732.409,146.411,728.094,146.411Z" transform="translate(-33.428 -25.178)" fill="#81d0eb"/>
      <path id="Trazado_653103" data-name="Trazado 653103" d="M748.488,238.3c-6.732-1.844-16.172-8.851-20.074-14.886,4.142,0,8.123.013,12.1-.011.732,0,.755.56.9.977A51.1,51.1,0,0,0,748.488,238.3Z" transform="translate(-33.509 -48.509)" fill="#81d0eb"/>
      <path id="Trazado_653104" data-name="Trazado 653104" d="M796.617,238.344a50.1,50.1,0,0,0,7.065-13.94,1.272,1.272,0,0,1,1.45-1.029c3.774.054,7.549.024,11.345.024C814.808,227.857,803.929,236.118,796.617,238.344Z" transform="translate(-50.778 -48.503)" fill="#81d0eb"/>
      <path id="Trazado_653105" data-name="Trazado 653105" d="M660.161,228.195a18.454,18.454,0,0,1,10.708,10.772c1.4,3.523,1.353,3.54-2.334,3.54-2.417,0-4.835-.037-7.251.019-.9.021-1.151-.267-1.143-1.152C660.183,237.055,660.161,232.735,660.161,228.195Z" transform="translate(-16.222 -49.723)" fill="#f4d57e"/>
      <path id="Trazado_653106" data-name="Trazado 653106" d="M610.224,181.474c0,1.672-.046,3.346.018,5.016.035.928-.375,1-1.116.87a6,6,0,0,1,0-11.778c.742-.125,1.149-.052,1.114.874C610.177,178.126,610.224,179.8,610.224,181.474Z" transform="translate(-2.073 -36.39)" fill="#e5ccb3"/>
      <path id="Trazado_653107" data-name="Trazado 653107" d="M684.118,181.47c0-1.672.046-3.346-.018-5.015-.036-.929.375-1,1.114-.872a6,6,0,0,1,0,11.777c-.75.128-1.146.045-1.111-.875C684.163,184.816,684.118,183.142,684.118,181.47Z" transform="translate(-22.288 -36.39)" fill="#e5ccb3"/>
      <path id="Trazado_653108" data-name="Trazado 653108" d="M774.978,119.618a2.977,2.977,0,1,1-2.986,2.918A3,3,0,0,1,774.978,119.618Z" transform="translate(-44.543 -22.232)" fill="#e3816e"/>
      <path id="Trazado_653109" data-name="Trazado 653109" d="M791.54,89.176c-.464.506-.78.878-1.125,1.223-.966.965-1.815,2.459-2.951,2.727-1.2.283-2.088-1.413-3.146-2.2a26.831,26.831,0,0,0-33.812,1.543c-.967.871-1.55.992-2.3-.064a4.534,4.534,0,0,0-.523-.529c-2.718-2.724-2.718-2.724.262-5.1a32.884,32.884,0,0,1,42.4,1.4C790.709,88.517,791.1,88.814,791.54,89.176Z" transform="translate(-37.88 -12.128)" fill="#040404"/>
      <path id="Trazado_653110" data-name="Trazado 653110" d="M672.578,63.722a25.8,25.8,0,0,1,5.7.714c.83.18,1.058.523.707,1.274a1.316,1.316,0,0,0-.073.171c-.409,1.361-.46,3.039-1.317,4-.984,1.105-2.57-.14-3.909-.205a18.078,18.078,0,0,0-17.87,11.406c-.45,1.135-.854,1.461-1.966.942a15.394,15.394,0,0,0-2.125-.65c-2.237-.668-2.237-.669-1.3-2.9A23.986,23.986,0,0,1,672.578,63.722Z" transform="translate(-13.613 -8.078)" fill="#040404"/>
      <path id="Trazado_653111" data-name="Trazado 653111" d="M748.61,47.735a32.4,32.4,0,0,1,13.066,2.62c1.061.453,1.482.895.76,2.022-.765,1.193-1.071,2.98-2.116,3.6-1,.594-2.409-.789-3.7-1.148-8-2.224-15.36-.954-21.981,4.078-1,.762-1.5.675-2.161-.244a19.443,19.443,0,0,0-1.361-1.529c-1.684-1.887-1.686-1.89.417-3.448A29.379,29.379,0,0,1,748.61,47.735Z" transform="translate(-33.886 -4.031)" fill="#040404"/>
      <path id="Trazado_653112" data-name="Trazado 653112" d="M771.247,95.641a21.065,21.065,0,0,1,13.585,5.128c.83.708,1.1,1.164.126,1.976-1.044.872-1.8,2.306-2.963,2.762-1.358.532-2.158-1.228-3.275-1.867a14.868,14.868,0,0,0-16.894,1.32c-1.127.918-1.724.788-2.477-.223a6.275,6.275,0,0,0-.658-.657c-2.492-2.481-2.493-2.482.333-4.52A20.832,20.832,0,0,1,771.247,95.641Z" transform="translate(-40.712 -16.161)" fill="#040404"/>
      <path id="Trazado_653113" data-name="Trazado 653113" d="M644.164,204.087a12.657,12.657,0,0,1-10.887-6.516c-.444-.75-.607-1.334.451-1.655a6.771,6.771,0,0,0,1.008-.47,10.586,10.586,0,0,1,2.83-1.35c1.285-.19,1.306,1.382,2.022,2.067a6.626,6.626,0,0,0,10.192-1.017c.783-1.215,1.364-1.332,2.43-.585a11.529,11.529,0,0,0,1.485.76c2.514,1.261,2.529,1.272.795,3.589A12.661,12.661,0,0,1,644.164,204.087Z" transform="translate(-9.333 -41.085)" fill="#040403"/>
      <path id="Trazado_653114" data-name="Trazado 653114" d="M631.173,175.506a2.978,2.978,0,1,1-2.95,2.957A3,3,0,0,1,631.173,175.506Z" transform="translate(-8.141 -36.382)" fill="#0b0a09"/>
      <path id="Trazado_653115" data-name="Trazado 653115" d="M663.293,175.5a2.98,2.98,0,1,1-3.119,2.783A3,3,0,0,1,663.293,175.5Z" transform="translate(-16.229 -36.381)" fill="#0b0a09"/>
    </g>
  </g>
</svg>
