<svg xmlns="http://www.w3.org/2000/svg" width="76.136" height="71.944" viewBox="0 0 76.136 71.944">
  <g id="Grupo_991943" data-name="Grupo 991943" transform="translate(-844.638 -447.57)">
    <rect id="Rectángulo_309148" data-name="Rectángulo 309148" width="60.862" height="50.962" rx="7" transform="translate(845.444 461.809)" fill="#f7f8f9"/>
    <path id="Trazado_651343" data-name="Trazado 651343" d="M928.774,538.779a22.378,22.378,0,0,1,6.129,6.374,20.562,20.562,0,1,1-36.948,17.453.813.813,0,0,0-.943-.648q-12.337.022-24.674.01c-2.141,0-3.149-1-3.149-3.12,0-8.99.021-17.98-.019-26.969a2.888,2.888,0,0,1,3.117-3.1c15.359.046,30.719.026,46.078.024.3,0,.593-.018.889-.028.1.01.2.028.293.03,2.024.04,2.98,1.007,2.982,3.023,0,1.235,0,2.471,0,3.706,0,.25-.085.5.328.608A22.125,22.125,0,0,1,928.774,538.779Zm-10.8-1.135a18.342,18.342,0,1,0,17.765,19.194A18.4,18.4,0,0,0,917.978,537.644Zm-32.314-6.608c-1.165,0-2.329.01-3.493-.006-.349,0-.538.038-.53.469.026,1.535.016,3.071.005,4.607,0,.311.084.437.417.435q3.568-.017,7.136,0c.366,0,.46-.132.456-.476-.014-1.511-.018-3.022,0-4.533.005-.389-.108-.513-.5-.505C887.993,531.05,886.828,531.036,885.664,531.036Zm-.038,7.737c-1.164,0-2.328.007-3.492,0-.315,0-.5.027-.492.428.023,1.535.018,3.07,0,4.6,0,.348.1.473.458.471q3.529-.021,7.058,0c.4,0,.5-.137.5-.515-.018-1.485-.022-2.971,0-4.456.007-.423-.12-.548-.54-.539C887.954,538.79,886.789,538.773,885.625,538.773ZM875.394,546.5c-1.139,0-2.278.015-3.417-.008-.405-.008-.564.089-.556.529q.039,2.227,0,4.455c-.007.435.146.536.556.532q3.454-.026,6.908,0c.418,0,.545-.113.538-.535q-.036-2.227,0-4.455c.007-.428-.127-.538-.54-.528C877.722,546.519,876.558,546.5,875.394,546.5Zm10.247,5.5c1.137,0,2.274-.015,3.411.008.414.008.621-.048.609-.549-.035-1.482-.022-2.965-.005-4.447,0-.365-.065-.524-.48-.52q-3.522.029-7.044,0c-.4,0-.494.128-.489.508.02,1.483.029,2.966,0,4.448-.011.481.156.574.592.563C883.367,551.983,884.5,552,885.641,552Zm.029,7.73c1.14,0,2.28-.013,3.419.007.388.007.578-.053.57-.513-.028-1.51-.021-3.022,0-4.532,0-.359-.11-.463-.463-.461q-3.531.02-7.061,0c-.4,0-.494.13-.489.509q.03,2.229,0,4.458c-.006.416.1.556.535.545C883.34,559.712,884.505,559.731,885.67,559.731Zm10.179-28.7c-1.138,0-2.276.026-3.412-.013-.481-.016-.569.148-.561.586.026,1.458.021,2.917,0,4.375-.005.391.061.567.516.562,2.324-.023,4.649-.02,6.974,0,.4,0,.5-.143.5-.515-.015-1.483-.028-2.967.006-4.45.012-.5-.189-.561-.609-.553C898.124,531.052,896.986,531.036,895.848,531.036Zm-20.454,13.23c1.163,0,2.326-.018,3.488.01.419.01.55-.108.542-.534q-.037-2.225,0-4.452c.008-.431-.133-.529-.542-.526q-3.451.028-6.9,0c-.4,0-.568.076-.56.524.027,1.483.024,2.968,0,4.452-.007.433.148.542.558.534C873.117,544.25,874.256,544.266,875.394,544.265Zm20.443,0c1.162,0,2.324-.018,3.485.01.427.01.55-.13.544-.545-.02-1.482-.017-2.965,0-4.448,0-.367-.076-.522-.486-.519q-3.522.027-7.045,0c-.359,0-.459.108-.455.46.017,1.507.023,3.015,0,4.522-.007.436.141.537.55.528C893.562,544.249,894.7,544.265,895.836,544.265Zm-20.433-7.73c1.162,0,2.325-.018,3.487.01.428.01.54-.129.533-.542-.023-1.483-.025-2.967,0-4.45.008-.431-.133-.529-.542-.526-2.226.019-4.452.025-6.678,0-.581-.007-.793.188-.782.768.026,1.384.032,2.77,0,4.153-.013.518.186.61.645.6C873.177,536.516,874.29,536.536,875.4,536.536Zm.08,23.2c1.138,0,2.276-.011,3.413.006.351.005.535-.039.528-.468-.025-1.532-.021-3.066,0-4.6,0-.37-.126-.448-.468-.446q-3.524.019-7.048,0c-.334,0-.488.07-.483.447.019,1.459.016,2.918,0,4.376,0,.51.211.7.718.689C873.258,559.715,874.371,559.731,875.484,559.731Zm30.658-28.695c-1.164,0-2.329.014-3.493-.008-.4-.007-.564.074-.556.52.027,1.485.025,2.972,0,4.458-.007.431.139.54.553.537q3.456-.026,6.913,0c.383,0,.516-.1.51-.5-.021-1.511-.023-3.022,0-4.533.007-.407-.134-.494-.51-.487C908.421,531.05,907.281,531.036,906.141,531.036Zm10.135,0c-1.139,0-2.278.023-3.416-.011-.471-.014-.582.142-.571.59.029,1.286.027,2.574,0,3.86-.008.435.116.575.544.47a19.573,19.573,0,0,1,7-.392c.464.055.466-.146.463-.479-.01-1.113-.027-2.228.006-3.341.017-.579-.24-.718-.76-.706C918.455,531.054,917.365,531.036,916.276,531.036ZM899.145,546.5c-2.36,0-4.586.008-6.813-.008-.363,0-.457.114-.453.463q.025,2.3,0,4.6c0,.375.139.449.477.445,1.486-.015,2.972-.007,4.458-.005.229,0,.408.011.475-.305A21.337,21.337,0,0,1,899.145,546.5Zm-7.259,10.482c0,.743.025,1.487-.01,2.228-.021.438.137.535.548.528,1.386-.024,2.774-.03,4.16,0,.475.011.594-.114.517-.58a16.832,16.832,0,0,1-.2-4.51c.037-.345-.08-.421-.395-.419-1.387.011-2.774.015-4.16,0-.348,0-.477.085-.465.451C891.9,555.449,891.886,556.217,891.886,556.984Zm14.241-18.206c-1.388,0-2.6,0-3.812,0-.154,0-.211.1-.211.24v3.234A23.178,23.178,0,0,1,906.127,538.778Z" transform="translate(-17.224 -57.017)" fill="#030303"/>
    <path id="Trazado_651344" data-name="Trazado 651344" d="M861.906,464.687c-.27.923-.549,1.139-1.541,1.14-4.262,0-8.525.015-12.787-.014-.6,0-.715.176-.714.737q.023,21,.013,41.991a2.784,2.784,0,0,0,3.134,3.1q15.129,0,30.258,0a5.4,5.4,0,0,1,.743.011,1.028,1.028,0,0,1,.978,1.028,1.055,1.055,0,0,1-.911,1.169,2.879,2.879,0,0,1-.666.023q-15.241,0-30.481,0a4.972,4.972,0,0,1-5.292-5.3q0-25.232,0-50.464a4.983,4.983,0,0,1,5.186-5.272c.619-.012,1.242-.041,1.858.009.634.052.87-.092.873-.81a4.558,4.558,0,0,1,9.114.038c.027.7.25.774.847.773q16.17-.025,32.34,0c.574,0,.8-.074.8-.737a4.554,4.554,0,0,1,9.1-.26c.074.985.074.985,1.077.985.57,0,1.141-.014,1.71,0a4.943,4.943,0,0,1,5.089,5.2c.014,5.029,0,10.058,0,15.087,0,1.511-.011,3.022,0,4.534a1.175,1.175,0,0,1-1.084,1.34c-.917-.205-1.159-.507-1.16-1.5q-.005-5.524,0-11.048c0-.293.132-.643-.425-.636-2.644.034-5.288.035-7.932.047-.3-.012-.592-.033-.888-.033l-34.624,0c-1.151,0-1.422-.187-1.683-1.141.269-.95.488-1.1,1.622-1.1q17.3,0,34.6,0c.32,0,.64-.028.961-.042,2.643.016,5.287.027,7.93.055.455,0,.442-.266.442-.58,0-1.705.009-3.411-.006-5.116a2.689,2.689,0,0,0-2.708-2.824c-.789-.043-1.582.006-2.373-.019-.427-.014-.556.156-.55.565a4.6,4.6,0,0,1-2.732,4.386c-.072.018-.145.032-.216.055a4.529,4.529,0,0,1-6.156-4.363c-.013-.676-.357-.613-.788-.613q-16.2,0-32.4-.012c-.623,0-.821.17-.785.782a3.649,3.649,0,0,1-.179,1.167,4.554,4.554,0,0,1-8.941-1.051c-.013-.8-.274-.956-.972-.895-.615.054-1.238,0-1.857.015A2.713,2.713,0,0,0,846.876,458c-.008,1.609.028,3.22-.017,4.828-.018.626.173.773.783.769,4.26-.027,8.52-.016,12.781-.013C861.408,463.588,861.621,463.755,861.906,464.687Zm-7.141-10.769c0,.619-.021,1.239,0,1.857a2.385,2.385,0,0,0,2.241,2.346,2.31,2.31,0,0,0,2.389-2.074,18.675,18.675,0,0,0,0-4.147,2.275,2.275,0,0,0-2.449-2.084,2.381,2.381,0,0,0-2.182,2.321C854.743,452.728,854.766,453.323,854.765,453.918Zm47.747.035c0-.618.017-1.237,0-1.855a2.315,2.315,0,0,0-4.629-.017q-.044,1.891,0,3.784a2.314,2.314,0,0,0,4.626.017C902.531,455.24,902.51,454.6,902.512,453.952Z" transform="translate(0 0)" fill="#030303"/>
    <path id="Trazado_651345" data-name="Trazado 651345" d="M907.256,481.209c-.32.015-.64.042-.961.042q-17.3,0-34.6,0c-1.135,0-1.354.152-1.623,1.1H867.14c-.285-.932-.5-1.1-1.483-1.1-4.26,0-8.52-.015-12.781.013-.61,0-.8-.143-.783-.769.045-1.608.009-3.218.017-4.828a2.713,2.713,0,0,1,2.858-2.911c.619-.016,1.242.039,1.857-.015.7-.061.959.094.972.895a4.554,4.554,0,0,0,8.941,1.051,3.647,3.647,0,0,0,.179-1.167c-.036-.612.162-.783.785-.782q16.2.03,32.4.012c.431,0,.775-.064.788.613a4.529,4.529,0,0,0,6.156,4.363c.071-.022.144-.036.216-.054Q907.257,479.443,907.256,481.209Z" transform="translate(-5.234 -17.668)" fill="#d08284"/>
    <path id="Trazado_651346" data-name="Trazado 651346" d="M1037.318,508.872c2.644-.013,5.288-.013,7.932-.047.557-.007.424.344.425.636q.006,5.524,0,11.048c0,.991.243,1.293,1.16,1.5l0,2.764a22.125,22.125,0,0,0-5.915-2.636c-.413-.106-.327-.358-.328-.608-.006-1.236,0-2.471,0-3.706,0-2.016-.958-2.983-2.982-3.023-.1,0-.2-.02-.293-.03Q1037.316,511.82,1037.318,508.872Z" transform="translate(-135.285 -43.009)" fill="#e8e6e9"/>
    <path id="Trazado_651347" data-name="Trazado 651347" d="M988.451,558.514a18.342,18.342,0,1,1-18.9,17.7A18.385,18.385,0,0,1,988.451,558.514Zm-.627,34.441a16.115,16.115,0,1,0-16.062-16.171A16.134,16.134,0,0,0,987.825,592.954Z" transform="translate(-87.697 -77.886)" fill="#dfbd7b"/>
    <path id="Trazado_651348" data-name="Trazado 651348" d="M915.061,536.345c1.164,0,2.329.015,3.493-.008.392-.007.505.117.5.505-.021,1.511-.017,3.022,0,4.533,0,.344-.09.478-.456.476q-3.568-.02-7.136,0c-.334,0-.42-.124-.417-.435.011-1.536.021-3.072-.005-4.607-.007-.432.182-.474.53-.469C912.732,536.355,913.9,536.345,915.061,536.345Z" transform="translate(-46.622 -62.326)" fill="#caddf6"/>
    <path id="Trazado_651349" data-name="Trazado 651349" d="M915.025,562.316c1.164,0,2.329.017,3.492-.009.42-.01.547.116.54.539-.024,1.485-.02,2.971,0,4.456,0,.377-.092.518-.5.515q-3.529-.025-7.058,0c-.363,0-.462-.122-.458-.471.015-1.535.02-3.07,0-4.6-.006-.4.178-.432.492-.428C912.7,562.323,913.861,562.316,915.025,562.316Z" transform="translate(-46.624 -80.56)" fill="#caddf6"/>
    <path id="Trazado_651350" data-name="Trazado 651350" d="M880.7,588.265c1.164,0,2.328.017,3.491-.009.413-.009.547.1.54.528q-.039,2.227,0,4.455c.007.422-.12.539-.538.535q-3.454-.029-6.908,0c-.41,0-.563-.1-.556-.532q.036-2.227,0-4.455c-.007-.44.151-.537.556-.529C878.425,588.28,879.564,588.265,880.7,588.265Z" transform="translate(-22.533 -98.78)" fill="#caddf6"/>
    <path id="Trazado_651351" data-name="Trazado 651351" d="M915.033,593.767c-1.137,0-2.275-.019-3.411.01-.436.011-.6-.082-.592-.563.033-1.482.024-2.965,0-4.447-.005-.379.087-.51.489-.508q3.522.027,7.044,0c.415,0,.485.155.48.52-.017,1.483-.029,2.966.005,4.447.012.5-.194.557-.609.549C917.307,593.752,916.17,593.767,915.033,593.767Z" transform="translate(-46.616 -98.782)" fill="#caddf7"/>
    <path id="Trazado_651352" data-name="Trazado 651352" d="M915.069,619.731c-1.164,0-2.33-.019-3.493.01-.431.011-.542-.129-.535-.545q.035-2.229,0-4.458c-.005-.379.085-.512.489-.509q3.531.028,7.061,0c.353,0,.467.1.463.461-.018,1.511-.025,3.022,0,4.532.009.46-.182.52-.57.513C917.349,619.718,916.209,619.731,915.069,619.731Z" transform="translate(-46.624 -117.017)" fill="#caddf7"/>
    <path id="Trazado_651353" data-name="Trazado 651353" d="M949.371,536.332c1.138,0,2.275.016,3.412-.008.421-.009.621.053.609.552-.034,1.482-.021,2.966-.006,4.45,0,.372-.094.518-.5.515-2.325-.017-4.649-.021-6.974,0-.455,0-.521-.171-.516-.562.019-1.458.024-2.917,0-4.375-.008-.438.08-.6.561-.586C947.1,536.358,948.234,536.332,949.371,536.332Z" transform="translate(-70.747 -62.313)" fill="#c9dcf6"/>
    <path id="Trazado_651354" data-name="Trazado 651354" d="M880.7,567.81c-1.138,0-2.277-.016-3.414.008-.41.009-.565-.1-.558-.534.023-1.484.026-2.968,0-4.452-.008-.448.162-.527.56-.524q3.451.024,6.9,0c.409,0,.549.094.542.525q-.04,2.225,0,4.452c.007.427-.123.544-.542.534C883.028,567.792,881.864,567.81,880.7,567.81Z" transform="translate(-22.532 -80.561)" fill="#c9dcf6"/>
    <path id="Trazado_651355" data-name="Trazado 651355" d="M949.36,567.81c-1.137,0-2.274-.016-3.411.009-.409.009-.557-.092-.55-.528.026-1.507.02-3.015,0-4.522,0-.352.1-.462.455-.46q3.522.022,7.045,0c.41,0,.491.152.486.519-.016,1.482-.019,2.965,0,4.448.006.415-.117.555-.544.545C951.684,567.792,950.521,567.81,949.36,567.81Z" transform="translate(-70.747 -80.561)" fill="#c9dcf6"/>
    <path id="Trazado_651356" data-name="Trazado 651356" d="M880.707,541.84c-1.113,0-2.227-.019-3.339.009-.459.012-.658-.08-.645-.6.036-1.384.03-2.769,0-4.153-.011-.58.2-.774.782-.768,2.226.026,4.452.02,6.678,0,.409,0,.55.094.542.526-.026,1.483-.024,2.967,0,4.45.006.414-.105.553-.533.542C883.032,541.821,881.869,541.84,880.707,541.84Z" transform="translate(-22.528 -62.321)" fill="#caddf6"/>
    <path id="Trazado_651357" data-name="Trazado 651357" d="M880.8,619.722c-1.113,0-2.226-.016-3.339.007-.506.01-.722-.179-.718-.689.013-1.459.015-2.918,0-4.376,0-.377.149-.449.483-.447q3.524.015,7.048,0c.342,0,.473.076.468.446-.02,1.533-.024,3.066,0,4.6.007.429-.177.473-.528.468C883.074,619.712,881.937,619.722,880.8,619.722Z" transform="translate(-22.539 -117.008)" fill="#caddf6"/>
    <path id="Trazado_651358" data-name="Trazado 651358" d="M983.747,536.347c1.14,0,2.28.014,3.419-.008.376-.007.516.08.51.487-.024,1.51-.022,3.022,0,4.533.005.4-.128.5-.511.5q-3.456-.024-6.913,0c-.414,0-.559-.107-.553-.537.023-1.486.026-2.973,0-4.458-.008-.446.161-.527.556-.519C981.418,536.361,982.583,536.347,983.747,536.347Z" transform="translate(-94.83 -62.327)" fill="#cbdef7"/>
    <path id="Trazado_651359" data-name="Trazado 651359" d="M1017.918,536.338c1.089,0,2.179.018,3.268-.008.52-.012.777.127.76.706-.032,1.113-.016,2.227-.006,3.341,0,.333,0,.534-.463.479a19.573,19.573,0,0,0-7,.392c-.429.1-.553-.035-.545-.47.025-1.286.028-2.574,0-3.86-.01-.448.1-.6.571-.59C1015.64,536.361,1016.779,536.338,1017.918,536.338Z" transform="translate(-118.866 -62.318)" fill="#caddf7"/>
    <path id="Trazado_651360" data-name="Trazado 651360" d="M952.675,588.272a21.333,21.333,0,0,0-1.857,5.195c-.067.316-.247.306-.475.305-1.486,0-2.972-.01-4.458.005-.338,0-.481-.07-.477-.445q.028-2.3,0-4.6c0-.349.09-.466.453-.463C948.089,588.279,950.316,588.272,952.675,588.272Z" transform="translate(-70.755 -98.786)" fill="#cbdef7"/>
    <path id="Trazado_651361" data-name="Trazado 651361" d="M945.408,616.989c0-.768.018-1.536-.008-2.3-.013-.366.117-.456.465-.451,1.387.017,2.773.014,4.16,0,.315,0,.431.074.395.419a16.832,16.832,0,0,0,.2,4.51c.076.466-.043.591-.517.58-1.386-.032-2.774-.026-4.16,0-.41.007-.568-.09-.548-.528C945.433,618.476,945.408,617.732,945.408,616.989Z" transform="translate(-70.746 -117.021)" fill="#cbdef7"/>
    <path id="Trazado_651362" data-name="Trazado 651362" d="M983.762,562.358a23.18,23.18,0,0,0-4.023,3.475V562.6c0-.141.057-.24.211-.24C981.162,562.357,982.373,562.358,983.762,562.358Z" transform="translate(-94.859 -80.596)" fill="#c9dcf6"/>
    <path id="Trazado_651363" data-name="Trazado 651363" d="M1037.288,481.187q0-1.767,0-3.533a4.6,4.6,0,0,0,2.732-4.386c-.006-.409.122-.579.55-.565.79.025,1.584-.024,2.372.019a2.689,2.689,0,0,1,2.708,2.824c.015,1.7,0,3.41.006,5.116,0,.314.014.585-.442.58C1042.574,481.213,1039.931,481.2,1037.288,481.187Z" transform="translate(-135.266 -17.645)" fill="#c3666b"/>
    <path id="Trazado_651364" data-name="Trazado 651364" d="M878.618,459.195c0-.594-.022-1.189,0-1.782a2.381,2.381,0,0,1,2.182-2.321,2.275,2.275,0,0,1,2.449,2.084,18.686,18.686,0,0,1,0,4.147,2.31,2.31,0,0,1-2.39,2.074,2.385,2.385,0,0,1-2.241-2.346C878.6,460.433,878.618,459.814,878.618,459.195Z" transform="translate(-23.853 -5.277)" fill="#716c74"/>
    <path id="Trazado_651365" data-name="Trazado 651365" d="M1027.958,459.234c0,.643.02,1.287-.005,1.929a2.314,2.314,0,0,1-4.627-.017q-.047-1.891,0-3.784a2.315,2.315,0,0,1,4.629.017C1027.976,458,1027.959,458.616,1027.958,459.234Z" transform="translate(-125.448 -5.282)" fill="#736d76"/>
    <path id="Trazado_651366" data-name="Trazado 651366" d="M993.066,598.2a16.115,16.115,0,1,1,16.18-16.044A16.155,16.155,0,0,1,993.066,598.2Zm-2.555-2.541c.677.179,1.325.565,1.8-.445a.985.985,0,0,1,1.718.115c.252.588.576.6,1.063.5.313-.069.635-.1.948-.17a13.587,13.587,0,0,0,6.037-2.994c-.84-.939-.972-1.476-.51-2.01a1.115,1.115,0,0,1,.7-.37c.658-.105,1,.4,1.423.784a13.819,13.819,0,0,0,3.205-7.349c.036-.3.034-.482-.332-.591a1,1,0,0,1-.726-1.016.989.989,0,0,1,.7-1.027c.387-.118.391-.336.351-.664a13.989,13.989,0,0,0-2.682-6.659c-.343-.466-.564-.712-1.075-.135a1,1,0,0,1-1.52-.038,1.138,1.138,0,0,1-.014-1.548c.144-.181.386-.29.433-.557a13.977,13.977,0,0,0-7.022-3.14.733.733,0,0,0-.952.466,1.035,1.035,0,0,1-1.891-.03c-.221-.509-.51-.505-.9-.435-.337.061-.668.153-1,.232a13.025,13.025,0,0,0-6.08,2.929c.077.1.127.188.192.259.681.748.766,1.288.281,1.81s-1.052.488-1.8-.179c-.261-.233-.37-.192-.566.055a13.981,13.981,0,0,0-2.939,6.942c-.05.365.008.581.4.713a.967.967,0,0,1,.649.985,1,1,0,0,1-.7,1.029c-.342.112-.394.274-.356.583a13.774,13.774,0,0,0,3.2,7.345c.094-.074.155-.116.209-.167.739-.693,1.359-.791,1.866-.29s.454,1.011-.221,1.8c-.2.236-.178.341.046.515A12.856,12.856,0,0,0,990.511,595.659Z" transform="translate(-92.939 -83.132)" fill="#040403"/>
    <path id="Trazado_651367" data-name="Trazado 651367" d="M996.013,601.793a12.855,12.855,0,0,1-6.062-2.759c-.225-.174-.248-.28-.046-.515.676-.789.722-1.306.221-1.8s-1.127-.4-1.866.29c-.054.051-.115.093-.209.167a13.774,13.774,0,0,1-3.2-7.345c-.038-.309.013-.471.356-.583a1,1,0,0,0,.7-1.029.967.967,0,0,0-.649-.985c-.4-.132-.453-.348-.4-.713a13.983,13.983,0,0,1,2.939-6.942c.2-.247.3-.288.566-.055.748.667,1.312.7,1.8.179s.4-1.061-.281-1.81c-.065-.071-.115-.155-.192-.259a13.025,13.025,0,0,1,6.081-2.929c.233.14.46.289.7.417a14.109,14.109,0,0,1,5.088,4.629,14.485,14.485,0,0,1,2.5,10.324,14.779,14.779,0,0,1-7.592,11.28C996.277,601.465,996.029,601.51,996.013,601.793Zm3.73-19.678c0-.742,0-1.485,0-2.227-.007-.863-.424-1.375-1.109-1.377s-1.12.523-1.124,1.374c-.007,1.485-.011,2.969,0,4.454a.681.681,0,0,1-.439.728,3.481,3.481,0,0,0-1.209,5.343.615.615,0,0,1,.061.777c-.335.631-.647,1.276-.947,1.926a1.119,1.119,0,1,0,1.988,1.009c.326-.609.64-1.226.916-1.858a.755.755,0,0,1,.828-.522,3.438,3.438,0,0,0,3.26-2.359,3.2,3.2,0,0,0-1.127-3.834,2.174,2.174,0,0,1-1.105-2.468C999.76,582.76,999.744,582.437,999.744,582.115Z" transform="translate(-98.441 -89.266)" fill="#f4f2f5"/>
    <path id="Trazado_651368" data-name="Trazado 651368" d="M1021.776,601.168c.016-.283.264-.328.449-.437a14.779,14.779,0,0,0,7.592-11.28,14.486,14.486,0,0,0-2.5-10.324,14.11,14.11,0,0,0-5.088-4.629c-.239-.128-.466-.278-.7-.417.334-.078.665-.171,1-.231.395-.071.684-.074.9.435a1.035,1.035,0,0,0,1.891.03.733.733,0,0,1,.952-.466,13.976,13.976,0,0,1,7.022,3.14c-.046.267-.289.376-.433.557a1.138,1.138,0,0,0,.014,1.548,1,1,0,0,0,1.52.038c.511-.577.733-.332,1.075.135a13.987,13.987,0,0,1,2.682,6.658c.041.328.036.545-.351.664a.989.989,0,0,0-.7,1.027,1,1,0,0,0,.726,1.016c.366.109.368.288.332.591a13.82,13.82,0,0,1-3.205,7.35c-.424-.383-.765-.889-1.423-.784a1.116,1.116,0,0,0-.7.37c-.462.534-.33,1.071.51,2.01a13.588,13.588,0,0,1-6.037,2.994c-.313.071-.635.1-.948.17-.487.109-.811.093-1.063-.495a.985.985,0,0,0-1.718-.115C1023.1,601.733,1022.453,601.347,1021.776,601.168Z" transform="translate(-124.204 -88.641)" fill="#eae8eb"/>
    <path id="Trazado_651369" data-name="Trazado 651369" d="M1023.272,591.084c0,.322.017.645,0,.965a2.174,2.174,0,0,0,1.105,2.467,3.2,3.2,0,0,1,1.127,3.834,3.437,3.437,0,0,1-3.26,2.359.755.755,0,0,0-.827.522c-.276.632-.59,1.249-.916,1.858a1.119,1.119,0,1,1-1.988-1.009c.3-.649.612-1.294.947-1.926a.615.615,0,0,0-.061-.777,3.481,3.481,0,0,1,1.209-5.343.681.681,0,0,0,.439-.728c-.016-1.485-.012-2.969,0-4.454,0-.851.444-1.376,1.124-1.374s1.1.514,1.109,1.377C1023.277,589.6,1023.272,590.342,1023.272,591.084Zm.169,6.124a1.264,1.264,0,0,0-1.306-1.3,1.281,1.281,0,0,0-1.264,1.276,1.258,1.258,0,0,0,1.31,1.3A1.245,1.245,0,0,0,1023.442,597.208Z" transform="translate(-121.97 -98.235)" fill="#030303"/>
    <path id="Trazado_651370" data-name="Trazado 651370" d="M1029.386,617.067a1.245,1.245,0,0,1-1.26,1.269,1.258,1.258,0,0,1-1.31-1.3,1.281,1.281,0,0,1,1.264-1.276A1.264,1.264,0,0,1,1029.386,617.067Z" transform="translate(-127.914 -118.094)" fill="#d08284"/>
  </g>
</svg>
