<svg xmlns="http://www.w3.org/2000/svg" width="235.517" height="250.586" viewBox="0 0 235.517 250.586">
  <g id="Grupo_992354" data-name="Grupo 992354" transform="translate(0 0)">
    <g id="Background_Complete" data-name="Background Complete" transform="translate(0 4.844)">
      <g id="Grupo_992183" data-name="Grupo 992183" transform="translate(0 98.855)">
        <path id="Trazado_652179" data-name="Trazado 652179" d="M53.332,217.645v28.742a9.416,9.416,0,0,0,9.416,9.416h103.06a9.416,9.416,0,0,0,9.416-9.416V222.1l12.831-13.48-125.277-.392A9.415,9.415,0,0,0,53.332,217.645Z" transform="translate(-53.332 -208.229)" fill="#00859b"/>
        <g id="Grupo_992180" data-name="Grupo 992180" transform="translate(13.18 14.107)">
          <path id="Trazado_652180" data-name="Trazado 652180" d="M168.7,234.915l-93.52-.432.01-2.875,93.52.432Z" transform="translate(-75.176 -231.609)" fill="#006475"/>
        </g>
        <g id="Grupo_992181" data-name="Grupo 992181" transform="translate(13.18 23.563)">
          <path id="Trazado_652181" data-name="Trazado 652181" d="M168.7,250.589l-93.52-.432.01-2.875,93.52.432Z" transform="translate(-75.176 -247.282)" fill="#006475"/>
        </g>
        <g id="Grupo_992182" data-name="Grupo 992182" transform="translate(69.695 33.031)">
          <rect id="Rectángulo_309195" data-name="Rectángulo 309195" width="2.874" height="37.003" transform="translate(0 2.874) rotate(-89.718)" fill="#e0e0e0"/>
        </g>
      </g>
      <g id="Grupo_992187" data-name="Grupo 992187" transform="translate(95.495 198.169)">
        <path id="Trazado_652182" data-name="Trazado 652182" d="M211.6,382.244v28.742a9.416,9.416,0,0,0,9.416,9.416h103.06a9.416,9.416,0,0,0,9.417-9.416V386.7l12.83-13.48-125.277-.392A9.416,9.416,0,0,0,211.6,382.244Z" transform="translate(-211.602 -372.828)" fill="#00859b"/>
        <g id="Grupo_992184" data-name="Grupo 992184" transform="translate(13.628 13.361)">
          <path id="Trazado_652183" data-name="Trazado 652183" d="M327.708,398.278l-93.52-.432.01-2.875,93.52.432Z" transform="translate(-234.188 -394.971)" fill="#006475"/>
        </g>
        <g id="Grupo_992185" data-name="Grupo 992185" transform="translate(13.628 22.817)">
          <path id="Trazado_652184" data-name="Trazado 652184" d="M327.708,413.951l-93.52-.432.01-2.875,93.52.432Z" transform="translate(-234.188 -410.644)" fill="#006475"/>
        </g>
        <g id="Grupo_992186" data-name="Grupo 992186" transform="translate(70.143 32.284)">
          <rect id="Rectángulo_309196" data-name="Rectángulo 309196" width="2.874" height="37.003" transform="translate(0 2.874) rotate(-89.718)" fill="#006475"/>
        </g>
      </g>
      <path id="Trazado_652185" data-name="Trazado 652185" d="M144.63,44.39h60.785a5.448,5.448,0,0,1,5.448,5.448V79.569a5.448,5.448,0,0,1-5.448,5.448H153.835a5.448,5.448,0,0,1-5.448-5.448V48.146Z" transform="translate(-89.544 -44.39)" fill="#f5f5f5"/>
      <g id="Grupo_992191" data-name="Grupo 992191" transform="translate(0.97 22.659)">
        <path id="Trazado_652186" data-name="Trazado 652186" d="M144.294,88.189v19.063a6.245,6.245,0,0,1-6.245,6.245H69.7a6.245,6.245,0,0,1-6.245-6.245V91.145L54.94,82.2l83.09-.259A6.245,6.245,0,0,1,144.294,88.189Z" transform="translate(-54.94 -81.944)" fill="#e0e0e0"/>
        <g id="Grupo_992188" data-name="Grupo 992188" transform="translate(18.58 9.356)">
          <path id="Trazado_652187" data-name="Trazado 652187" d="M85.74,99.643l62.027-.286-.007-1.906-62.027.287Z" transform="translate(-85.733 -97.451)" fill="#f5f5f5"/>
        </g>
        <g id="Grupo_992189" data-name="Grupo 992189" transform="translate(18.58 15.628)">
          <path id="Trazado_652188" data-name="Trazado 652188" d="M85.74,110.038l62.027-.287-.007-1.906-62.027.287Z" transform="translate(-85.733 -107.846)" fill="#f5f5f5"/>
        </g>
        <g id="Grupo_992190" data-name="Grupo 992190" transform="translate(18.577 21.907)">
          <rect id="Rectángulo_309197" data-name="Rectángulo 309197" width="24.542" height="1.906" transform="translate(0 0.121) rotate(-0.282)" fill="#f5f5f5"/>
        </g>
      </g>
      <g id="Grupo_992195" data-name="Grupo 992195" transform="translate(130.459 111.058)">
        <path id="Trazado_652189" data-name="Trazado 652189" d="M358.905,234.7v19.063a6.245,6.245,0,0,1-6.245,6.245H284.306a6.245,6.245,0,0,1-6.245-6.245V237.655l-8.51-8.941,83.089-.26A6.245,6.245,0,0,1,358.905,234.7Z" transform="translate(-269.551 -228.454)" fill="#e0e0e0"/>
        <g id="Grupo_992192" data-name="Grupo 992192" transform="translate(18.579 9.357)">
          <path id="Trazado_652190" data-name="Trazado 652190" d="M300.35,246.154l62.027-.287-.007-1.906-62.027.287Z" transform="translate(-300.344 -243.961)" fill="#f5f5f5"/>
        </g>
        <g id="Grupo_992193" data-name="Grupo 992193" transform="translate(18.579 15.628)">
          <path id="Trazado_652191" data-name="Trazado 652191" d="M300.35,256.549l62.027-.287-.007-1.906-62.027.287Z" transform="translate(-300.344 -254.356)" fill="#f5f5f5"/>
        </g>
        <g id="Grupo_992194" data-name="Grupo 992194" transform="translate(18.577 21.908)">
          <rect id="Rectángulo_309198" data-name="Rectángulo 309198" width="24.542" height="1.906" transform="translate(0 0.121) rotate(-0.282)" fill="#f5f5f5"/>
        </g>
      </g>
    </g>
    <g id="Plants" transform="translate(37.73 60.379)">
      <g id="Grupo_992213" data-name="Grupo 992213" transform="translate(114.355 83.437)">
        <g id="Grupo_992197" data-name="Grupo 992197">
          <g id="Grupo_992196" data-name="Grupo 992196">
            <path id="Trazado_652192" data-name="Trazado 652192" d="M314.568,347.685c-10.216-9.948-10.384-25.336-7.726-38.708.443-2.232.584-4.639,1.974-6.434s4.1-2.732,5.957-1.457c1.539,1.058,1.948,3.116,2.617,4.872a13.3,13.3,0,0,0,4.441,5.89c1.308.976,3,1.719,4.54,1.172,2.111-.751,2.777-3.389,3.129-5.624l1.966-12.5a21.088,21.088,0,0,1,1.759-6.52,7.014,7.014,0,0,1,5.118-3.97c2.222-.247,4.648,1.407,4.738,3.665a21.033,21.033,0,0,1-.392,2.791A2.379,2.379,0,0,0,343.7,293.3a2.734,2.734,0,0,0,2.619-.623,30.071,30.071,0,0,0,6.647-7.173,41.736,41.736,0,0,1,6.33-7.489c2.493-2.117,5.7-3.591,8.931-3.249s6.311,2.874,6.6,6.145-2.064,6.173-4.479,8.393A50.494,50.494,0,0,1,358.36,297.5a4.154,4.154,0,0,0-2.041,1.582c-.729,1.409.439,3.118,1.829,3.848,1.573.827,3.407.949,5.114,1.439s3.468,1.567,3.857,3.32c.541,2.432-1.759,4.511-3.893,5.77A43.264,43.264,0,0,1,349.4,318.68a14.583,14.583,0,0,0-5.069,1.513c-1.513.938-2.641,2.813-2.1,4.516s2.514,2.544,4.286,2.507a30.182,30.182,0,0,0,5.205-1.069c3.258-.656,7.185.2,8.716,3.177a7.159,7.159,0,0,1-.271,6.371,16.507,16.507,0,0,1-4.288,4.963,43.5,43.5,0,0,1-20.438,9.88c-7.52,1.3-14.224.891-20.873-2.854" transform="translate(-305.393 -274.717)" fill="#00c1ab"/>
          </g>
        </g>
        <g id="Grupo_992200" data-name="Grupo 992200" transform="translate(7.366 2.603)">
          <g id="Grupo_992199" data-name="Grupo 992199">
            <g id="Grupo_992198" data-name="Grupo 992198">
              <path id="Trazado_652193" data-name="Trazado 652193" d="M317.6,359.337a99.333,99.333,0,0,1,6.66-17.8A202.688,202.688,0,0,1,335.728,321.3l3.278-5.15c1.08-1.688,2.151-3.362,3.3-4.934a101.242,101.242,0,0,1,7.117-8.658c2.4-2.645,4.768-5.067,7-7.315s4.366-4.3,6.384-6.086a80.266,80.266,0,0,1,10.141-7.723c1.264-.815,2.266-1.415,2.95-1.812l.781-.448a1.764,1.764,0,0,1,.273-.139,1.6,1.6,0,0,1-.252.177l-.76.483c-.669.421-1.656,1.043-2.906,1.877A84.88,84.88,0,0,0,363,289.377c-2,1.8-4.11,3.857-6.335,6.11s-4.58,4.685-6.963,7.329a102.391,102.391,0,0,0-7.07,8.64c-1.14,1.566-2.2,3.226-3.281,4.919l-3.274,5.149A207.789,207.789,0,0,0,324.6,341.7a101.076,101.076,0,0,0-6.72,17.709" transform="translate(-317.601 -279.032)" fill="#263238"/>
            </g>
          </g>
        </g>
        <g id="Grupo_992203" data-name="Grupo 992203" transform="translate(32.119 9.692)">
          <g id="Grupo_992202" data-name="Grupo 992202">
            <g id="Grupo_992201" data-name="Grupo 992201">
              <path id="Trazado_652194" data-name="Trazado 652194" d="M358.7,315.876a4.575,4.575,0,0,1-.062-.988c-.016-.636-.009-1.557.016-2.695.048-2.275.223-5.413.427-8.873s.334-6.594.348-8.862c.01-1.134.008-2.053,0-2.687a4.565,4.565,0,0,1,.034-.99,4.459,4.459,0,0,1,.128.981c.059.634.1,1.554.132,2.692.062,2.276-.021,5.424-.226,8.888-.211,3.414-.4,6.5-.548,8.862-.06,1.066-.109,1.965-.148,2.686A4.484,4.484,0,0,1,358.7,315.876Z" transform="translate(-358.627 -290.781)" fill="#263238"/>
            </g>
          </g>
        </g>
        <g id="Grupo_992206" data-name="Grupo 992206" transform="translate(32.19 33.291)">
          <g id="Grupo_992205" data-name="Grupo 992205">
            <g id="Grupo_992204" data-name="Grupo 992204">
              <path id="Trazado_652195" data-name="Trazado 652195" d="M388.325,330.724a6.369,6.369,0,0,1-1.168-.051c-.747-.055-1.828-.141-3.166-.2-2.675-.147-6.378-.22-10.467-.121s-7.787.358-10.455.618c-1.336.121-2.415.247-3.16.331a6.219,6.219,0,0,1-1.165.091,6.256,6.256,0,0,1,1.143-.253c.74-.133,1.816-.3,3.152-.465,2.668-.337,6.375-.637,10.477-.743a102.541,102.541,0,0,1,10.495.246c1.34.1,2.42.232,3.165.338A6.148,6.148,0,0,1,388.325,330.724Z" transform="translate(-358.744 -329.893)" fill="#263238"/>
            </g>
          </g>
        </g>
        <g id="Grupo_992209" data-name="Grupo 992209" transform="translate(6.012 25.611)">
          <g id="Grupo_992208" data-name="Grupo 992208">
            <g id="Grupo_992207" data-name="Grupo 992207">
              <path id="Trazado_652196" data-name="Trazado 652196" d="M323.81,356.189a1.513,1.513,0,0,1-.139-.382c-.087-.3-.192-.672-.321-1.119-.274-.973-.634-2.391-1.056-4.149-.847-3.515-1.863-8.407-2.912-13.82s-2.019-10.31-2.791-13.838l-.927-4.175-.246-1.138a1.5,1.5,0,0,1-.058-.4,1.539,1.539,0,0,1,.139.383l.321,1.117c.274.973.634,2.391,1.056,4.149.847,3.515,1.863,8.407,2.912,13.822s2.019,10.309,2.791,13.836c.381,1.715.693,3.127.926,4.175l.246,1.138A1.464,1.464,0,0,1,323.81,356.189Z" transform="translate(-315.357 -317.164)" fill="#263238"/>
            </g>
          </g>
        </g>
        <g id="Grupo_992212" data-name="Grupo 992212" transform="translate(14.465 58.579)">
          <g id="Grupo_992211" data-name="Grupo 992211">
            <g id="Grupo_992210" data-name="Grupo 992210">
              <path id="Trazado_652197" data-name="Trazado 652197" d="M369.522,371.812a1.567,1.567,0,0,1-.4.094l-1.169.19-4.3.655c-3.632.554-8.639,1.377-14.171,2.293s-10.553,1.694-14.2,2.173c-1.822.24-3.3.419-4.32.522l-1.178.112a1.535,1.535,0,0,1-.414.01,1.572,1.572,0,0,1,.4-.095l1.169-.189,4.3-.655c3.632-.553,8.64-1.376,14.172-2.293s10.551-1.694,14.195-2.172c1.822-.24,3.3-.419,4.321-.522l1.178-.112A1.517,1.517,0,0,1,369.522,371.812Z" transform="translate(-329.367 -371.804)" fill="#263238"/>
            </g>
          </g>
        </g>
      </g>
      <g id="Grupo_992217" data-name="Grupo 992217">
        <path id="Trazado_652198" data-name="Trazado 652198" d="M150.8,162.276a6.716,6.716,0,0,1-2.309-6.335,8.919,8.919,0,0,1,3.839-5.723,3.758,3.758,0,0,1,3.063-.8,2.873,2.873,0,0,1,1.858,2.24,5.828,5.828,0,0,1-.35,3c-1.145,3.307-2.859,6.3-6.1,7.612" transform="translate(-128.767 -141.546)" fill="#455a64"/>
        <path id="Trazado_652199" data-name="Trazado 652199" d="M136.3,177.512a15.711,15.711,0,0,0-13.886-3.635c-1.234.286-2.623.938-2.827,2.189s.915,2.315,2.013,2.952a13.421,13.421,0,0,0,14.845-1.195" transform="translate(-117.333 -151.133)" fill="#455a64"/>
        <path id="Trazado_652200" data-name="Trazado 652200" d="M117.123,136.662a7.873,7.873,0,0,1,6.075,1.046,13.9,13.9,0,0,1,4.344,4.538c2.187,3.454,2.956,8.1,3.054,12.183-4.536-.183-8.413-3.749-10.266-5.681-2.928-3.054-6.367-10.352-3.207-12.086" transform="translate(-115.864 -136.432)" fill="#455a64"/>
        <g id="Grupo_992214" data-name="Grupo 992214" transform="translate(21.88 13.135)">
          <path id="Trazado_652201" data-name="Trazado 652201" d="M156.08,177.616a16.2,16.2,0,0,1-1.132-1.71,28.8,28.8,0,0,1-2.555-7.284,14.449,14.449,0,0,1,.567-7.683,9.471,9.471,0,0,1,1.1-2.082,2.654,2.654,0,0,1,.561-.655,20.1,20.1,0,0,0-1.353,2.847,15.156,15.156,0,0,0-.421,7.491,33.4,33.4,0,0,0,2.4,7.23" transform="translate(-152.128 -158.202)" fill="#263238"/>
        </g>
        <g id="Grupo_992215" data-name="Grupo 992215" transform="translate(4.366 5.555)">
          <path id="Trazado_652202" data-name="Trazado 652202" d="M144.609,172.689l-2.362-3.046c-1.988-2.577-4.743-6.13-7.838-10.015s-5.943-7.36-8.011-9.873l-2.442-2.983a8.326,8.326,0,0,1-.854-1.13,8.443,8.443,0,0,1,.989,1.014c.615.672,1.489,1.659,2.555,2.89,2.133,2.461,5.024,5.911,8.122,9.8s5.815,7.477,7.738,10.106c.962,1.314,1.729,2.386,2.247,3.135" transform="translate(-123.101 -145.64)" fill="#263238"/>
        </g>
        <g id="Grupo_992216" data-name="Grupo 992216" transform="translate(7.918 24.833)">
          <path id="Trazado_652203" data-name="Trazado 652203" d="M128.987,178.184a2.843,2.843,0,0,1,.787-.24,6.551,6.551,0,0,1,.948-.181,11.051,11.051,0,0,1,1.273-.137,16.53,16.53,0,0,1,3.332.127A17.669,17.669,0,0,1,142.9,180.7a16.527,16.527,0,0,1,2.543,2.159,11.139,11.139,0,0,1,.846.961,6.58,6.58,0,0,1,.576.774c.294.441.253.647.227.665a26.658,26.658,0,0,0-1.878-2.17,18.474,18.474,0,0,0-2.55-2.038,18.66,18.66,0,0,0-7.395-2.876,18.442,18.442,0,0,0-3.257-.22C130.144,178,129.005,178.273,128.987,178.184Z" transform="translate(-128.987 -177.59)" fill="#263238"/>
        </g>
      </g>
    </g>
    <g id="Device" transform="translate(62.067 0)">
      <g id="Grupo_992226" data-name="Grupo 992226" transform="translate(0 34.366)">
        <g id="Grupo_992225" data-name="Grupo 992225">
          <g id="Grupo_992221" data-name="Grupo 992221">
            <g id="Grupo_992220" data-name="Grupo 992220">
              <g id="Grupo_992218" data-name="Grupo 992218">
                <path id="Trazado_652204" data-name="Trazado 652204" d="M241,298.715l-69.689-.322A15.18,15.18,0,0,1,156.2,283.148l.739-174.712A15.181,15.181,0,0,1,172.189,93.32l69.689.322a15.181,15.181,0,0,1,15.11,15.245L256.25,283.6A15.181,15.181,0,0,1,241,298.715Z" transform="translate(-156.2 -93.32)" fill="#263238"/>
              </g>
              <g id="Grupo_992219" data-name="Grupo 992219" transform="translate(4.628 6.03)">
                <path id="Trazado_652205" data-name="Trazado 652205" d="M244.821,103.636l-13.512-.063a3.357,3.357,0,0,0-3.295,3.415L228,109.439a3.355,3.355,0,0,1-3.295,3.414l-26.337-.121a3.36,3.36,0,0,1-3.267-3.445l.011-2.451a3.36,3.36,0,0,0-3.267-3.445l-4.752-.022-11.826-.055A10.633,10.633,0,0,0,164.59,113.9l-.72,170.532a10.631,10.631,0,0,0,10.582,10.677l69.55.321a10.632,10.632,0,0,0,10.68-10.587l.721-170.533A10.632,10.632,0,0,0,244.821,103.636Z" transform="translate(-163.87 -103.314)" fill="#fafafa"/>
              </g>
            </g>
          </g>
          <g id="Grupo_992222" data-name="Grupo 992222" transform="translate(43.348 180.581)">
            <path id="Trazado_652206" data-name="Trazado 652206" d="M230.913,393.848a1.452,1.452,0,1,1-1.43-1.24A1.345,1.345,0,0,1,230.913,393.848Z" transform="translate(-228.043 -392.608)" fill="#455a64"/>
          </g>
          <g id="Grupo_992223" data-name="Grupo 992223" transform="translate(47.795 180.601)">
            <path id="Trazado_652207" data-name="Trazado 652207" d="M238.283,393.882a1.451,1.451,0,1,1-1.429-1.24A1.345,1.345,0,0,1,238.283,393.882Z" transform="translate(-235.413 -392.642)" fill="#455a64"/>
          </g>
          <g id="Grupo_992224" data-name="Grupo 992224" transform="translate(52.241 180.622)">
            <path id="Trazado_652208" data-name="Trazado 652208" d="M245.652,393.915a1.452,1.452,0,1,1-1.43-1.239A1.345,1.345,0,0,1,245.652,393.915Z" transform="translate(-242.782 -392.676)" fill="#455a64"/>
          </g>
        </g>
      </g>
      <path id="Trazado_652209" data-name="Trazado 652209" d="M199.517,240.1c1.133.162,69.5,13.57,69.5,13.57V240.1Z" transform="translate(-173.381 -117.172)" fill="#ebebeb"/>
      <path id="Trazado_652210" data-name="Trazado 652210" d="M163.869,376.187s74.369-10.522,73.721-10.2-73.721,0-73.721,0Z" transform="translate(-159.242 -167.101)" fill="#ebebeb"/>
      <g id="Grupo_992227" data-name="Grupo 992227" transform="translate(90.836 9.981)">
        <path id="Trazado_652211" data-name="Trazado 652211" d="M306.905,52.9c.086,0,.157,3.76.157,8.4s-.071,8.4-.157,8.4-.158-3.759-.158-8.4S306.819,52.9,306.905,52.9Z" transform="translate(-306.748 -52.905)" fill="#263238"/>
      </g>
      <g id="Grupo_992228" data-name="Grupo 992228" transform="translate(105.387 29.304)">
        <path id="Trazado_652212" data-name="Trazado 652212" d="M346.23,84.933c.035.08-3.376,1.662-7.619,3.535s-7.711,3.326-7.746,3.247,3.375-1.662,7.619-3.535S346.195,84.854,346.23,84.933Z" transform="translate(-330.865 -84.93)" fill="#263238"/>
      </g>
      <g id="Grupo_992229" data-name="Grupo 992229" transform="translate(100.697)">
        <path id="Trazado_652213" data-name="Trazado 652213" d="M342.395,36.363a1.608,1.608,0,0,1-.162.322l-.516.889c-.451.772-1.125,1.874-1.968,3.23-1.689,2.71-4.121,6.394-6.875,10.412s-5.212,7.678-6.948,10.357l-2.051,3.174-.566.859a1.532,1.532,0,0,1-.215.288,1.529,1.529,0,0,1,.161-.321l.516-.89c.451-.771,1.125-1.873,1.968-3.23,1.689-2.71,4.122-6.394,6.876-10.414s5.211-7.677,6.948-10.354l2.051-3.175.565-.859A1.537,1.537,0,0,1,342.395,36.363Z" transform="translate(-323.092 -36.363)" fill="#263238"/>
      </g>
    </g>
    <g id="Speech_Bubbles" data-name="Speech Bubbles" transform="translate(21.462 71.034)">
      <g id="Grupo_992235" data-name="Grupo 992235" transform="translate(60.978)">
        <path id="Trazado_652214" data-name="Trazado 652214" d="M331.31,154.092H195.285a5.32,5.32,0,0,0-5.32,5.32v42.193a5.32,5.32,0,0,0,5.32,5.32h10.134c.816,4.406,1.771,9.966,1.771,9.966l9.172-9.966H331.31a5.32,5.32,0,0,0,5.319-5.32V159.412A5.319,5.319,0,0,0,331.31,154.092Z" transform="translate(-189.965 -154.092)" fill="#00c1ab"/>
        <g id="Grupo_992234" data-name="Grupo 992234" transform="translate(12.908 16.244)">
          <g id="Grupo_992230" data-name="Grupo 992230" transform="translate(0 6.486)">
            <path id="Trazado_652215" data-name="Trazado 652215" d="M283.674,191.922c0,.087-16.189.157-36.156.157s-36.16-.07-36.16-.157,16.187-.157,36.16-.157S283.674,191.835,283.674,191.922Z" transform="translate(-211.358 -191.765)" fill="#f5f5f5"/>
          </g>
          <g id="Grupo_992231" data-name="Grupo 992231">
            <path id="Trazado_652216" data-name="Trazado 652216" d="M283.674,181.172c0,.086-16.189.157-36.156.157s-36.16-.071-36.16-.157,16.187-.157,36.16-.157S283.674,181.086,283.674,181.172Z" transform="translate(-211.358 -181.015)" fill="#f5f5f5"/>
          </g>
          <g id="Grupo_992232" data-name="Grupo 992232" transform="translate(0 12.901)">
            <path id="Trazado_652217" data-name="Trazado 652217" d="M283.674,202.553c0,.087-16.189.157-36.156.157s-36.16-.071-36.16-.157,16.187-.157,36.16-.157S283.674,202.466,283.674,202.553Z" transform="translate(-211.358 -202.396)" fill="#f5f5f5"/>
          </g>
          <g id="Grupo_992233" data-name="Grupo 992233" transform="translate(0 19.545)">
            <path id="Trazado_652218" data-name="Trazado 652218" d="M258.726,213.565c0,.087-10.6.158-23.683.158s-23.685-.071-23.685-.158,10.6-.157,23.685-.157S258.726,213.479,258.726,213.565Z" transform="translate(-211.358 -213.408)" fill="#f5f5f5"/>
          </g>
        </g>
      </g>
      <g id="Grupo_992241" data-name="Grupo 992241" transform="translate(0 75.858)">
        <path id="Trazado_652219" data-name="Trazado 652219" d="M229.766,279.816H92.624a3.722,3.722,0,0,0-3.722,3.722v44.641a3.722,3.722,0,0,0,3.722,3.722h99.6l9.067,9.851s.952-5.537,1.752-9.851h26.72a3.722,3.722,0,0,0,3.722-3.722V283.538A3.722,3.722,0,0,0,229.766,279.816Z" transform="translate(-88.902 -279.816)" fill="#455a64"/>
        <g id="Grupo_992240" data-name="Grupo 992240" transform="translate(63.168 16.377)">
          <g id="Grupo_992236" data-name="Grupo 992236" transform="translate(0 6.486)">
            <path id="Trazado_652220" data-name="Trazado 652220" d="M265.911,317.865c0,.087-16.19.157-36.156.157s-36.16-.07-36.16-.157,16.186-.157,36.16-.157S265.911,317.778,265.911,317.865Z" transform="translate(-193.595 -317.708)" fill="#f5f5f5"/>
          </g>
          <g id="Grupo_992237" data-name="Grupo 992237">
            <path id="Trazado_652221" data-name="Trazado 652221" d="M265.911,307.116c0,.086-16.19.157-36.156.157s-36.16-.071-36.16-.157,16.186-.158,36.16-.158S265.911,307.029,265.911,307.116Z" transform="translate(-193.595 -306.958)" fill="#f5f5f5"/>
          </g>
          <g id="Grupo_992238" data-name="Grupo 992238" transform="translate(0 12.901)">
            <path id="Trazado_652222" data-name="Trazado 652222" d="M265.911,328.5c0,.087-16.19.157-36.156.157s-36.16-.07-36.16-.157,16.186-.157,36.16-.157S265.911,328.409,265.911,328.5Z" transform="translate(-193.595 -328.339)" fill="#f5f5f5"/>
          </g>
          <g id="Grupo_992239" data-name="Grupo 992239" transform="translate(0 19.545)">
            <path id="Trazado_652223" data-name="Trazado 652223" d="M240.963,339.508c0,.087-10.6.158-23.683.158s-23.685-.071-23.685-.158,10.6-.157,23.685-.157S240.963,339.422,240.963,339.508Z" transform="translate(-193.595 -339.351)" fill="#f5f5f5"/>
          </g>
        </g>
      </g>
    </g>
    <g id="Character_2" data-name="Character 2" transform="translate(170.054 34.366)">
      <g id="Grupo_992297" data-name="Grupo 992297" transform="translate(0 0)">
        <g id="Grupo_992285" data-name="Grupo 992285">
          <path id="Trazado_652224" data-name="Trazado 652224" d="M365.578,112.091c.081-1.109-.908-2.639-1.825-3.518a3.608,3.608,0,0,1-1.007-3.843c.369-1.37,1.238-1.268,1.581-2.073a6.094,6.094,0,0,0,.2-1.922,4.006,4.006,0,0,1,4.776-3.4,5.549,5.549,0,0,1,10.234-1.066,4.268,4.268,0,0,1,6.224,3.464,3.107,3.107,0,0,1,4.04.61,3.828,3.828,0,0,1,.291,4.219,5.02,5.02,0,0,1-3.626,2.388,7.37,7.37,0,0,1-4.354-.791,14.1,14.1,0,0,1-3.571-2.7" transform="translate(-346.042 -93.32)" fill="#263238"/>
          <ellipse id="Elipse_8161" data-name="Elipse 8161" cx="26.12" cy="25.508" rx="26.12" ry="25.508" transform="translate(3.281 37.091)" fill="#e0e0e0"/>
          <g id="Grupo_992280" data-name="Grupo 992280" transform="translate(0 6.225)">
            <g id="Grupo_992274" data-name="Grupo 992274" transform="translate(4.005)">
              <path id="Trazado_652225" data-name="Trazado 652225" d="M418.658,192.231l-2.891-7.414-10.362,6.51,9.233,14.237S418.394,200.686,418.658,192.231Z" transform="translate(-367.035 -135.836)" fill="#eb996e"/>
              <g id="Grupo_992265" data-name="Grupo 992265" transform="translate(12.759)">
                <g id="Grupo_992264" data-name="Grupo 992264">
                  <g id="Grupo_992263" data-name="Grupo 992263" transform="translate(0 1.039)">
                    <g id="Grupo_992260" data-name="Grupo 992260">
                      <g id="Grupo_992255" data-name="Grupo 992255" transform="translate(3.288)">
                        <g id="Grupo_992254" data-name="Grupo 992254">
                          <g id="Grupo_992242" data-name="Grupo 992242">
                            <path id="Trazado_652226" data-name="Trazado 652226" d="M375.378,144.664h0a6.95,6.95,0,0,0,6.98-6.572c.153-3.07.281-6.026.281-6.026s5.7-.413,6.226-5.985.6-18.459.6-18.459h0a19.775,19.775,0,0,0-19.855.862l-.542.348-.658,28.837A6.951,6.951,0,0,0,375.378,144.664Z" transform="translate(-368.407 -105.359)" fill="#ffbe9d"/>
                          </g>
                          <g id="Grupo_992246" data-name="Grupo 992246" transform="translate(8.954 10.242)">
                            <g id="Grupo_992243" data-name="Grupo 992243" transform="translate(0.21 0.551)">
                              <path id="Trazado_652227" data-name="Trazado 652227" d="M384.673,123.288a.812.812,0,0,1,.52,1.028.821.821,0,0,1-1.036.515.812.812,0,0,1-.521-1.028A.822.822,0,0,1,384.673,123.288Z" transform="translate(-383.595 -123.246)" fill="#263238"/>
                            </g>
                            <g id="Grupo_992245" data-name="Grupo 992245">
                              <g id="Grupo_992244" data-name="Grupo 992244">
                                <path id="Trazado_652228" data-name="Trazado 652228" d="M386.1,123.215c-.094.092-.622-.363-1.4-.413s-1.364.314-1.443.21c-.039-.046.059-.215.316-.386a1.931,1.931,0,0,1,2.268.162C386.07,122.994,386.143,123.175,386.1,123.215Z" transform="translate(-383.247 -122.333)" fill="#263238"/>
                              </g>
                            </g>
                          </g>
                          <g id="Grupo_992250" data-name="Grupo 992250" transform="translate(17.565 10.259)">
                            <g id="Grupo_992247" data-name="Grupo 992247" transform="translate(0.105 0.534)">
                              <path id="Trazado_652229" data-name="Trazado 652229" d="M398.772,123.288a.812.812,0,0,1,.52,1.028.822.822,0,0,1-1.037.515.812.812,0,0,1-.52-1.028A.821.821,0,0,1,398.772,123.288Z" transform="translate(-397.694 -123.246)" fill="#263238"/>
                            </g>
                            <g id="Grupo_992249" data-name="Grupo 992249">
                              <g id="Grupo_992248" data-name="Grupo 992248">
                                <path id="Trazado_652230" data-name="Trazado 652230" d="M400.369,123.244c-.094.092-.622-.364-1.4-.413s-1.364.314-1.443.211c-.04-.046.059-.216.316-.387a1.932,1.932,0,0,1,2.268.162C400.341,123.022,400.414,123.2,400.369,123.244Z" transform="translate(-397.519 -122.362)" fill="#263238"/>
                              </g>
                            </g>
                          </g>
                          <g id="Grupo_992252" data-name="Grupo 992252" transform="translate(14.56 10.451)">
                            <g id="Grupo_992251" data-name="Grupo 992251">
                              <path id="Trazado_652231" data-name="Trazado 652231" d="M392.539,129.4a3.784,3.784,0,0,1,1.275-.162c.2-.005.367-.038.391-.145a1.084,1.084,0,0,0-.1-.587l-.485-1.61a21.318,21.318,0,0,1-.991-4.211,21.306,21.306,0,0,1,1.417,4.09c.156.559.3,1.093.451,1.62a1.277,1.277,0,0,1,.043.844.531.531,0,0,1-.376.293,1.3,1.3,0,0,1-.349.017A3.8,3.8,0,0,1,392.539,129.4Z" transform="translate(-392.539 -122.679)" fill="#263238"/>
                            </g>
                          </g>
                          <g id="Grupo_992253" data-name="Grupo 992253" transform="translate(7.08 23.968)">
                            <path id="Trazado_652232" data-name="Trazado 652232" d="M387.309,147.741a13.211,13.211,0,0,1-7.168-2.658s1.406,4.154,7.063,4.1Z" transform="translate(-380.141 -145.083)" fill="#eb996e"/>
                          </g>
                        </g>
                      </g>
                      <g id="Grupo_992259" data-name="Grupo 992259" transform="translate(0 10.793)">
                        <g id="Grupo_992256" data-name="Grupo 992256">
                          <path id="Trazado_652233" data-name="Trazado 652233" d="M366.768,124.111a.846.846,0,0,0-.8-.861c-1.051-.049-2.779.331-3,3.2-.311,4.1,3.7,3.156,3.713,3.039C366.7,129.4,366.749,125.708,366.768,124.111Z" transform="translate(-362.959 -123.246)" fill="#ffbe9d"/>
                        </g>
                        <g id="Grupo_992258" data-name="Grupo 992258" transform="translate(1.109 1.308)">
                          <g id="Grupo_992257" data-name="Grupo 992257">
                            <path id="Trazado_652234" data-name="Trazado 652234" d="M366.535,128.72c-.017-.014-.076.045-.2.09a.729.729,0,0,1-.54-.029,1.768,1.768,0,0,1-.705-1.649,2.349,2.349,0,0,1,.279-1.008.832.832,0,0,1,.584-.508.37.37,0,0,1,.411.227c.046.119.015.2.036.208s.094-.062.074-.234a.454.454,0,0,0-.144-.269.549.549,0,0,0-.391-.135,1.015,1.015,0,0,0-.8.58,2.417,2.417,0,0,0-.337,1.125,1.857,1.857,0,0,0,.918,1.851.781.781,0,0,0,.668-.059C366.52,128.819,366.549,128.729,366.535,128.72Z" transform="translate(-364.796 -125.413)" fill="#eb996e"/>
                          </g>
                        </g>
                      </g>
                    </g>
                    <g id="Grupo_992261" data-name="Grupo 992261" transform="translate(11.379 7.821)">
                      <path id="Trazado_652235" data-name="Trazado 652235" d="M381.857,119.438c.2.263.918.14,1.845.1.925-.074,1.649-.039,1.817-.325.192-.3-.7-.982-1.9-.884C382.428,118.379,381.629,119.166,381.857,119.438Z" transform="translate(-381.818 -118.32)" fill="#263238"/>
                    </g>
                    <g id="Grupo_992262" data-name="Grupo 992262" transform="translate(20.441 7.784)">
                      <path id="Trazado_652236" data-name="Trazado 652236" d="M396.85,119.141c.112.358.792.466,1.546.461s1.431-.141,1.534-.5-.579-.855-1.551-.841S396.735,118.793,396.85,119.141Z" transform="translate(-396.837 -118.26)" fill="#263238"/>
                    </g>
                  </g>
                  <path id="Trazado_652237" data-name="Trazado 652237" d="M390.228,108.7a9.263,9.263,0,0,1-7.782-.559c-2.887-1.441-6.253-2.146-7-1.565s-.9,3.556-3.759,4.424c0,0,.2,5.677-2.067,5.475s-.849-8.995-.849-8.995l5.537-2.7,6.043-1.142,5.693.8,4.405,1.206Z" transform="translate(-365.093 -103.637)" fill="#263238"/>
                </g>
              </g>
              <g id="Grupo_992273" data-name="Grupo 992273" transform="translate(0 28.271)">
                <g id="Grupo_992269" data-name="Grupo 992269" transform="translate(0 4.202)">
                  <path id="Trazado_652238" data-name="Trazado 652238" d="M341.812,162.9c5.917-6.085,16.332-5.421,16.332-5.421l8.632,6.18,4.9-5.7a31.743,31.743,0,0,1,9.966,3.084l.332.1,0,.069c3.787,2.056,9.149,6.988,14.257,11.775l-6.113,5.672-6.766,6.006a.181.181,0,0,1,.011.12c-.071.364.941,8.625,1.976,14.9A25.476,25.476,0,0,1,362.6,206.56a67.7,67.7,0,0,1-6.67-1.832,9.281,9.281,0,0,1-6.873-8.179h0c-.461-5.263-.812-11.778-.812-11.778" transform="translate(-341.812 -157.458)" fill="#455a64"/>
                  <g id="Grupo_992266" data-name="Grupo 992266" transform="translate(35.27 1.563)">
                    <path id="Trazado_652239" data-name="Trazado 652239" d="M400.27,160.048a6.592,6.592,0,0,1,.372.971c.221.631.523,1.551.879,2.692.713,2.283,1.62,5.462,2.478,9.009s1.5,6.793,1.907,9.149c.2,1.178.356,2.134.447,2.8a6.666,6.666,0,0,1,.112,1.034,6.448,6.448,0,0,1-.233-1.013c-.139-.707-.323-1.644-.545-2.776-.463-2.343-1.14-5.573-1.994-9.116s-1.729-6.723-2.386-9.02l-.782-2.719A6.576,6.576,0,0,1,400.27,160.048Z" transform="translate(-400.267 -160.048)" fill="#263238"/>
                  </g>
                  <g id="Grupo_992267" data-name="Grupo 992267" transform="translate(40.83 13.76)">
                    <path id="Trazado_652240" data-name="Trazado 652240" d="M409.483,189.819c-.054-.068,2.526-2.261,5.765-4.9s5.908-4.723,5.963-4.656-2.526,2.26-5.765,4.9S409.538,189.886,409.483,189.819Z" transform="translate(-409.483 -180.262)" fill="#263238"/>
                  </g>
                  <path id="Trazado_652241" data-name="Trazado 652241" d="M351.275,180.32l-5.3,17.422,1.971,1.025,1.943-4.927S351.89,183.489,351.275,180.32Z" transform="translate(-343.465 -166.526)" opacity="0.2"/>
                  <g id="Grupo_992268" data-name="Grupo 992268" transform="translate(27.167 0.411)" opacity="0.2">
                    <path id="Trazado_652242" data-name="Trazado 652242" d="M394.37,159.3c2.855,1.5-4.3,5.127-7.532,5.029l2.346-6.192A32.575,32.575,0,0,1,394.37,159.3Z" transform="translate(-386.838 -158.139)"/>
                  </g>
                </g>
                <path id="Trazado_652243" data-name="Trazado 652243" d="M367.468,155.106v-4.613s9.011,2.319,9.338,7.71c0,0,1.146-5.959,5.789-6.245l.655,8.383-5.4,4.7h-5.476l-4.338-3.741-.567-5.821" transform="translate(-351.988 -150.493)" fill="#455a64"/>
                <g id="Grupo_992270" data-name="Grupo 992270" transform="translate(24.761 8.526)">
                  <path id="Trazado_652244" data-name="Trazado 652244" d="M384.935,189.668a5.927,5.927,0,0,1-.016-.992c.013-.638.025-1.56.028-2.7.008-2.278-.063-5.426-.349-8.889s-.739-6.581-1.122-8.827L383,165.6a6.006,6.006,0,0,1-.148-.981,6.005,6.005,0,0,1,.268.956c.155.619.352,1.522.572,2.643a82.782,82.782,0,0,1,1.475,17.759c-.031,1.142-.077,2.064-.128,2.7A6.119,6.119,0,0,1,384.935,189.668Z" transform="translate(-382.85 -164.623)" fill="#263238"/>
                </g>
                <g id="Grupo_992271" data-name="Grupo 992271" transform="translate(15.149 3.742)">
                  <path id="Trazado_652245" data-name="Trazado 652245" d="M376.174,159.111a1.09,1.09,0,0,0-.535.049c-.344.111-.652.54-.905,1.152a26.094,26.094,0,0,0-1.714,4.985l-.048.206-.182-.109c-.538-.325-1.091-.678-1.647-1.054a33,33,0,0,1-2.921-2.22,3.69,3.69,0,0,1-.995-1.3,4.106,4.106,0,0,1-.3-1.391,8.061,8.061,0,0,1,.2-2.018,2.986,2.986,0,0,1,.2-.714,3.838,3.838,0,0,1-.077.734,9.535,9.535,0,0,0-.1,1.983,3.993,3.993,0,0,0,.32,1.3,3.465,3.465,0,0,0,.948,1.191c.852.712,1.841,1.453,2.907,2.178.551.373,1.1.725,1.63,1.051l-.229.1a22.8,22.8,0,0,1,1.834-5,3.784,3.784,0,0,1,.474-.777,1.205,1.205,0,0,1,.575-.39C375.987,158.953,376.189,159.107,376.174,159.111Z" transform="translate(-366.919 -156.695)" fill="#263238"/>
                </g>
                <g id="Grupo_992272" data-name="Grupo 992272" transform="translate(25.508 1.465)">
                  <path id="Trazado_652246" data-name="Trazado 652246" d="M389.187,152.921a3.308,3.308,0,0,1,.084.72l.144,1.963c.068.827.168,1.81.337,2.893a4.839,4.839,0,0,1,.109,1.771,3.044,3.044,0,0,1-1.186,1.514,13.341,13.341,0,0,0-1.983,1.506l-.24.269-.024-.359A10.792,10.792,0,0,0,385.1,158.7c-.573-1.028-1.045-1.556-1.008-1.586a1.708,1.708,0,0,1,.355.356,8.871,8.871,0,0,1,.817,1.134,10.3,10.3,0,0,1,1.467,4.569l-.264-.09a12.658,12.658,0,0,1,2.019-1.556,2.792,2.792,0,0,0,1.076-1.34,4.768,4.768,0,0,0-.1-1.652c-.155-1.094-.233-2.087-.273-2.92s-.046-1.508-.045-1.974A3.147,3.147,0,0,1,389.187,152.921Z" transform="translate(-384.089 -152.921)" fill="#263238"/>
                </g>
              </g>
            </g>
            <g id="Grupo_992279" data-name="Grupo 992279" transform="translate(0 30.894)">
              <g id="Grupo_992276" data-name="Grupo 992276" transform="translate(3.227)">
                <path id="Trazado_652247" data-name="Trazado 652247" d="M431.646,154.84c-.366.431-13.632,18.169-13.632,18.169l1.867,1.058,13.613-17.513Z" transform="translate(-371.259 -154.84)" fill="#263238"/>
                <path id="Trazado_652248" data-name="Trazado 652248" d="M347.619,174.363s13.955,20.089,14.8,20.483c1.656.778,20.749-15.721,22.569-17.3.251-.335.769-1.043,1.786-2.45,0,0,1.506-6.893,3.113-6.363s-.88,3.5.167,6.121,5.841-3.627,6.033-4.188l1.236-1.616s1.3,3.676,1.209,5.211c-.282,4.917-4.934,10.766-4.934,10.766s-20.895,25.883-35.206,26.686c-4.122.231-11.448-11.465-16.345-20.236a12,12,0,0,1,3.42-15.543Z" transform="translate(-340.524 -160.339)" fill="#ffbe9d"/>
                <g id="Grupo_992275" data-name="Grupo 992275" transform="translate(55.653 11.162)">
                  <path id="Trazado_652249" data-name="Trazado 652249" d="M432.765,176.975c-.046-.029.4-.819.894-1.82s.854-1.835.9-1.816a11.341,11.341,0,0,1-1.8,3.635Z" transform="translate(-432.762 -173.339)" fill="#eb996e"/>
                </g>
              </g>
              <g id="Grupo_992278" data-name="Grupo 992278" transform="translate(0 4.221)">
                <path id="Trazado_652250" data-name="Trazado 652250" d="M343.135,161.835s-14.979,5.325-3.842,30.515l17.292-10.436-2.46-5.89Z" transform="translate(-335.175 -161.835)" fill="#455a64"/>
                <g id="Grupo_992277" data-name="Grupo 992277" transform="translate(4.118 0.413)">
                  <path id="Trazado_652251" data-name="Trazado 652251" d="M344.695,162.542a5.2,5.2,0,0,1,1.8.151,7.34,7.34,0,0,1,1.965.829,10.619,10.619,0,0,1,2.182,1.791,26.161,26.161,0,0,1,4.069,6.079c1.268,2.449,2.45,5.238,3.662,8.17l1.06,2.562.054.13-.123.067c-5,2.727-9.359,5.281-12.438,7.193-1.541.953-2.768,1.738-3.61,2.283l-.97.623a2.094,2.094,0,0,1-.348.2,2.056,2.056,0,0,1,.315-.25c.213-.154.526-.384.94-.669.823-.574,2.034-1.387,3.562-2.365,3.054-1.961,7.4-4.551,12.4-7.289l-.069.2c-.34-.819-.7-1.685-1.062-2.562-1.212-2.93-2.384-5.715-3.63-8.158a26.627,26.627,0,0,0-3.973-6.058,10.7,10.7,0,0,0-2.113-1.794,7.482,7.482,0,0,0-1.9-.86A10.807,10.807,0,0,0,344.695,162.542Z" transform="translate(-342 -162.52)" fill="#263238"/>
                </g>
              </g>
            </g>
          </g>
          <g id="Grupo_992281" data-name="Grupo 992281" transform="translate(26.931 4.43)">
            <path id="Trazado_652252" data-name="Trazado 652252" d="M391.914,100.661a.9.9,0,0,1,.074.263,3.422,3.422,0,0,1,.043.782,4,4,0,0,1-5.174,3.63,3.561,3.561,0,0,1-2.064-1.5,2.106,2.106,0,0,1-.309-1.362,1.763,1.763,0,0,1,.74-1.245,1.531,1.531,0,0,1,1.449-.093,1.841,1.841,0,0,1,.99.995,2.642,2.642,0,0,1-.4,2.508,3.146,3.146,0,0,1-3.957.86,6.757,6.757,0,0,0-1.49-.572,1.873,1.873,0,0,0-1.153.121,6.251,6.251,0,0,0-.858.565c-.008-.007.053-.078.176-.208a1.5,1.5,0,0,1,.246-.221,1.85,1.85,0,0,1,.384-.247,1.964,1.964,0,0,1,1.234-.184,6.618,6.618,0,0,1,1.549.541,4.386,4.386,0,0,0,.871.288,2.753,2.753,0,0,0,.972-.017,2.851,2.851,0,0,0,1.792-1.1,2.359,2.359,0,0,0,.345-2.218,1.422,1.422,0,0,0-1.982-.758,1.456,1.456,0,0,0-.6,1.024,1.8,1.8,0,0,0,.264,1.163,3.287,3.287,0,0,0,1.881,1.376,3.86,3.86,0,0,0,3.792-.9,4.1,4.1,0,0,0,1.178-2.465A8.25,8.25,0,0,0,391.914,100.661Z" transform="translate(-379.809 -100.661)" fill="#455a64"/>
          </g>
          <g id="Grupo_992282" data-name="Grupo 992282" transform="translate(32.815 25.695)">
            <path id="Trazado_652253" data-name="Trazado 652253" d="M392.52,137.393c.007.038-.185.118-.517.132a2.685,2.685,0,0,1-2.229-1.123c-.186-.275-.236-.477-.2-.494a4.134,4.134,0,0,0,2.948,1.485Z" transform="translate(-389.562 -135.906)" fill="#263238"/>
          </g>
          <g id="Grupo_992283" data-name="Grupo 992283" transform="translate(17.979 23.491)">
            <path id="Trazado_652254" data-name="Trazado 652254" d="M366.944,133.277c.028-.026.2.265-.022.681a1.006,1.006,0,0,1-.615.488,1.045,1.045,0,0,1-.937-.246,1.123,1.123,0,0,1-.4-.876,1.206,1.206,0,0,1,.275-.722c.29-.341.584-.372.589-.338.023.045-.213.152-.409.468a.937.937,0,0,0,.147,1.231.794.794,0,0,0,.664.2.846.846,0,0,0,.494-.325C366.954,133.545,366.895,133.284,366.944,133.277Z" transform="translate(-364.973 -132.253)" fill="#263238"/>
          </g>
          <g id="Grupo_992284" data-name="Grupo 992284" transform="translate(35.826 6.462)">
            <path id="Trazado_652255" data-name="Trazado 652255" d="M398.755,104.03a1.988,1.988,0,0,1,.29,1.108,3.684,3.684,0,0,1-3.354,3.868,1.99,1.99,0,0,1-1.138-.13c.007-.054.439.026,1.108-.09a3.724,3.724,0,0,0,3.162-3.646C398.842,104.461,398.7,104.044,398.755,104.03Z" transform="translate(-394.553 -104.029)" fill="#455a64"/>
          </g>
        </g>
        <g id="Grupo_992286" data-name="Grupo 992286" transform="translate(1.713 56.943)">
          <path id="Trazado_652256" data-name="Trazado 652256" d="M355.926,187.7c.039.078-3.94,2.123-8.885,4.569s-8.987,4.365-9.026,4.287,3.939-2.123,8.886-4.569S355.887,187.62,355.926,187.7Z" transform="translate(-338.015 -187.695)" fill="#e0e0e0"/>
        </g>
        <g id="Grupo_992287" data-name="Grupo 992287" transform="translate(0.03 50.1)">
          <path id="Trazado_652257" data-name="Trazado 652257" d="M351.193,176.356c.041.077-3.5,2.057-7.91,4.423s-8.017,4.224-8.059,4.147,3.5-2.057,7.91-4.424S351.152,176.28,351.193,176.356Z" transform="translate(-335.224 -176.353)" fill="#e0e0e0"/>
        </g>
        <g id="Grupo_992288" data-name="Grupo 992288" transform="translate(0.269 44.566)">
          <path id="Trazado_652258" data-name="Trazado 652258" d="M347.847,167.184a14.381,14.381,0,0,1-1.772,1.048l-4.332,2.416-4.309,2.458a14.2,14.2,0,0,1-1.814.974,12.546,12.546,0,0,1,1.7-1.164c1.075-.68,2.579-1.587,4.269-2.541s3.245-1.771,4.382-2.339A12.534,12.534,0,0,1,347.847,167.184Z" transform="translate(-335.62 -167.181)" fill="#e0e0e0"/>
        </g>
        <g id="Grupo_992289" data-name="Grupo 992289" transform="translate(19.489 38.237)">
          <path id="Trazado_652259" data-name="Trazado 652259" d="M373.732,161.715a2.83,2.83,0,0,1-1.165-.314,8.931,8.931,0,0,1-2.44-1.588,16.724,16.724,0,0,1-1.968-2.13,4.37,4.37,0,0,1-.681-.989,4.782,4.782,0,0,1,.85.845,28.418,28.418,0,0,0,2.007,2.04,11.18,11.18,0,0,0,2.325,1.621C373.309,161.532,373.746,161.667,373.732,161.715Z" transform="translate(-367.475 -156.692)" fill="#e0e0e0"/>
        </g>
        <g id="Grupo_992290" data-name="Grupo 992290" transform="translate(31.298 39.99)">
          <path id="Trazado_652260" data-name="Trazado 652260" d="M390.3,159.6a4.2,4.2,0,0,1-3.249,2.735,21.042,21.042,0,0,0,1.793-1.167C389.746,160.416,390.213,159.555,390.3,159.6Z" transform="translate(-387.047 -159.598)" fill="#e0e0e0"/>
        </g>
        <g id="Grupo_992291" data-name="Grupo 992291" transform="translate(16.738 49.064)">
          <path id="Trazado_652261" data-name="Trazado 652261" d="M396.415,174.645a1.451,1.451,0,0,1-.337.063l-.97.119c-.844.094-2.067.211-3.58.329-3.026.241-7.214.477-11.842.646s-8.824.224-11.86.2c-1.517-.01-2.746-.04-3.594-.073l-.976-.05a1.374,1.374,0,0,1-.34-.039,1.407,1.407,0,0,1,.341-.024l.977-.009,3.592-.028c3.033-.032,7.222-.13,11.849-.291s8.81-.369,11.838-.554l3.585-.229.975-.061A1.4,1.4,0,0,1,396.415,174.645Z" transform="translate(-362.916 -174.636)" fill="#e0e0e0"/>
        </g>
        <g id="Grupo_992292" data-name="Grupo 992292" transform="translate(20.012 56.216)">
          <path id="Trazado_652262" data-name="Trazado 652262" d="M393.8,186.5a6.142,6.142,0,0,1-.992.156c-.64.08-1.569.18-2.719.284-2.3.212-5.48.43-9,.574s-6.709.179-9.017.154c-1.154-.01-2.088-.036-2.733-.063a6.082,6.082,0,0,1-1-.075,6.084,6.084,0,0,1,1-.046l2.73-.037c2.305-.031,5.489-.1,9.005-.246s6.694-.326,8.994-.481l2.724-.184A6.259,6.259,0,0,1,393.8,186.5Z" transform="translate(-368.343 -186.491)" fill="#e0e0e0"/>
        </g>
        <g id="Grupo_992293" data-name="Grupo 992293" transform="translate(20.913 65.032)">
          <path id="Trazado_652263" data-name="Trazado 652263" d="M383.579,201.121a12.09,12.09,0,0,1-2,.282c-1.24.128-2.957.265-4.856.36s-3.623.128-4.87.124a12,12,0,0,1-2.018-.082,13.76,13.76,0,0,1,2.013-.14l4.858-.215,4.855-.268A13.7,13.7,0,0,1,383.579,201.121Z" transform="translate(-369.835 -201.101)" fill="#e0e0e0"/>
        </g>
        <g id="Grupo_992294" data-name="Grupo 992294" transform="translate(12.565 43.967)">
          <path id="Trazado_652264" data-name="Trazado 652264" d="M364.265,166.332c0,.09-1.853.11-4.131.206s-4.125.223-4.134.134a30.831,30.831,0,0,1,8.265-.34Z" transform="translate(-356 -166.189)" fill="#e0e0e0"/>
        </g>
        <g id="Grupo_992295" data-name="Grupo 992295" transform="translate(35.562 43.606)">
          <path id="Trazado_652265" data-name="Trazado 652265" d="M404.836,165.77a91.521,91.521,0,0,1-10.722-.04,91.5,91.5,0,0,1,10.722.04Z" transform="translate(-394.114 -165.591)" fill="#e0e0e0"/>
        </g>
        <g id="Grupo_992296" data-name="Grupo 992296" transform="translate(31.683 80.496)">
          <path id="Trazado_652266" data-name="Trazado 652266" d="M403.213,226.734a2.451,2.451,0,0,1-.55.316c-.361.188-.9.434-1.569.715a34.305,34.305,0,0,1-11.052,2.547c-.727.041-1.317.054-1.724.044a2.473,2.473,0,0,1-.632-.043c0-.051.9-.085,2.339-.223a42.317,42.317,0,0,0,10.988-2.533C402.369,227.051,403.192,226.689,403.213,226.734Z" transform="translate(-387.685 -226.731)" fill="#e0e0e0"/>
        </g>
      </g>
    </g>
    <g id="Character_1" data-name="Character 1" transform="translate(17.451 109.791)">
      <g id="Grupo_992353" data-name="Grupo 992353" transform="translate(0 0)">
        <ellipse id="Elipse_8162" data-name="Elipse 8162" cx="26.12" cy="24.917" rx="26.12" ry="24.917" transform="translate(10.71 37.365)" fill="#e0e0e0"/>
        <g id="Grupo_992330" data-name="Grupo 992330" transform="translate(19.623)">
          <path id="Trazado_652267" data-name="Trazado 652267" d="M126.661,221.982c-4.144.215-5.771,4.536-6.266,5.5a8.356,8.356,0,0,0-.664,3.161,6.875,6.875,0,0,1-.795,3.121c-.912,1.455-2.829,2.208-3.35,3.844-.591,1.851.925,3.83.521,5.73-.217,1.02-.961,1.86-1.224,2.868a4.223,4.223,0,0,0,.559,3.133c1.361,2.337,4.182,3.512,6.885,3.608a24.234,24.234,0,0,0,7.932-1.512" transform="translate(-114.776 -219.776)" fill="#263238"/>
          <path id="Trazado_652268" data-name="Trazado 652268" d="M162.236,230.88a2.581,2.581,0,0,0,.614,2.67,16.635,16.635,0,0,0,2.243,1.828,3.662,3.662,0,0,1,1.531,2.368c.08.884-.363,1.761-.243,2.64.31,2.259,3.912,2.936,4.1,5.208.128,1.513-1.425,2.9-.994,4.358a6.911,6.911,0,0,0,.9,1.488,4.429,4.429,0,0,1-1.152,5.354,8.8,8.8,0,0,1-5.52,1.869c-1.664.075-3.556-.2-4.536-1.545-.9-1.233-.713-2.914-.534-4.428a154.981,154.981,0,0,0,.551-21.334" transform="translate(-132.118 -223.305)" fill="#263238"/>
          <g id="Grupo_992321" data-name="Grupo 992321" transform="translate(6.929 1.699)">
            <g id="Grupo_992320" data-name="Grupo 992320">
              <g id="Grupo_992319" data-name="Grupo 992319">
                <g id="Grupo_992313" data-name="Grupo 992313" transform="translate(0.069 3.628)">
                  <g id="Grupo_992298" data-name="Grupo 992298">
                    <path id="Trazado_652269" data-name="Trazado 652269" d="M132.35,262.124c.031-3.714,0-7.626,0-7.626s-4.776-.85-5.7-7.1c-.876-5.965.611-18.795.611-18.795h0c6.919-2.729,14.71-1.674,19.557,3.9h0l-.754,30.166a6.471,6.471,0,0,1-6.917,6.093h0A6.837,6.837,0,0,1,132.35,262.124Z" transform="translate(-126.375 -227.155)" fill="#ffbe9d"/>
                  </g>
                  <g id="Grupo_992302" data-name="Grupo 992302" transform="translate(0.887 9.852)">
                    <g id="Grupo_992299" data-name="Grupo 992299" transform="translate(1.3 0.728)">
                      <path id="Trazado_652270" data-name="Trazado 652270" d="M130,245.4a.8.8,0,0,0,.763.817.765.765,0,0,0,.833-.712.8.8,0,0,0-.761-.818A.766.766,0,0,0,130,245.4Z" transform="translate(-129.999 -244.69)" fill="#263238"/>
                    </g>
                    <g id="Grupo_992301" data-name="Grupo 992301">
                      <g id="Grupo_992300" data-name="Grupo 992300">
                        <path id="Trazado_652271" data-name="Trazado 652271" d="M127.857,244.307c.1.106.71-.336,1.572-.324,1.621.235,1.592.483,1.583.346.046-.046-.052-.236-.326-.44a2.2,2.2,0,0,0-1.265-.406,2.105,2.105,0,0,0-1.252.389C127.9,244.072,127.809,244.259,127.857,244.307Z" transform="translate(-127.845 -243.483)" fill="#263238"/>
                      </g>
                    </g>
                  </g>
                  <g id="Grupo_992306" data-name="Grupo 992306" transform="translate(9.874 10.149)">
                    <g id="Grupo_992303" data-name="Grupo 992303" transform="translate(1.131 0.685)">
                      <path id="Trazado_652272" data-name="Trazado 652272" d="M144.615,245.826a.8.8,0,0,0,.763.817.766.766,0,0,0,.833-.713.8.8,0,0,0-.762-.818A.767.767,0,0,0,144.615,245.826Z" transform="translate(-144.614 -245.111)" fill="#263238"/>
                    </g>
                    <g id="Grupo_992305" data-name="Grupo 992305">
                      <g id="Grupo_992304" data-name="Grupo 992304">
                        <path id="Trazado_652273" data-name="Trazado 652273" d="M142.751,244.8c.1.106.711-.336,1.572-.324s1.488.451,1.583.346c.046-.046-.051-.236-.325-.439a2.2,2.2,0,0,0-1.265-.407,2.113,2.113,0,0,0-1.253.389C142.8,244.565,142.7,244.753,142.751,244.8Z" transform="translate(-142.739 -243.976)" fill="#263238"/>
                      </g>
                    </g>
                  </g>
                  <g id="Grupo_992308" data-name="Grupo 992308" transform="translate(4.497 9.979)">
                    <g id="Grupo_992307" data-name="Grupo 992307">
                      <path id="Trazado_652274" data-name="Trazado 652274" d="M136.016,250.869a5.721,5.721,0,0,0-1.4-.269c-.22-.025-.428-.071-.463-.222a1.118,1.118,0,0,1,.154-.65l.67-1.668a28.81,28.81,0,0,0,1.512-4.365,28.848,28.848,0,0,0-1.86,4.233l-.643,1.679a1.275,1.275,0,0,0-.124.862.553.553,0,0,0,.358.326,1.522,1.522,0,0,0,.373.056A5.624,5.624,0,0,0,136.016,250.869Z" transform="translate(-133.828 -243.694)" fill="#263238"/>
                    </g>
                  </g>
                  <g id="Grupo_992309" data-name="Grupo 992309" transform="translate(5.972 25.209)">
                    <path id="Trazado_652275" data-name="Trazado 652275" d="M136.273,271.07a15.879,15.879,0,0,0,8.387-2.133s-2.078,4.265-8.32,3.609Z" transform="translate(-136.273 -268.936)" fill="#eb996e"/>
                  </g>
                  <g id="Grupo_992310" data-name="Grupo 992310" transform="translate(6.937 18.663)">
                    <path id="Trazado_652276" data-name="Trazado 652276" d="M137.96,258.658a1.553,1.553,0,0,1,1.4-.561,1.416,1.416,0,0,1,.973.536.9.9,0,0,1,.057,1.027,1.042,1.042,0,0,1-1.133.273,3.262,3.262,0,0,1-1.093-.67.946.946,0,0,1-.243-.257.289.289,0,0,1,0-.321" transform="translate(-137.873 -258.087)" fill="#eb996e"/>
                  </g>
                  <g id="Grupo_992312" data-name="Grupo 992312" transform="translate(6.441 17.78)">
                    <g id="Grupo_992311" data-name="Grupo 992311">
                      <path id="Trazado_652277" data-name="Trazado 652277" d="M139.823,256.622c-.141-.01-.153.926-.961,1.58s-1.8.541-1.811.671c-.014.059.22.184.641.2a2.327,2.327,0,0,0,1.511-.507,2.026,2.026,0,0,0,.745-1.326C139.988,256.85,139.887,256.617,139.823,256.622Z" transform="translate(-137.05 -256.622)" fill="#263238"/>
                    </g>
                  </g>
                </g>
                <g id="Grupo_992314" data-name="Grupo 992314">
                  <path id="Trazado_652278" data-name="Trazado 652278" d="M144.063,225.654c-2.284,3.258-8.332,6.608-12.663,7.386.506-.665,3.166-2.306,3.671-2.972-1.963,1.466-4.773,3.427-7.377,3.56a1.581,1.581,0,0,1-.895-.139,1.208,1.208,0,0,1-.456-.981,26.023,26.023,0,0,1,.18-5.658,6.261,6.261,0,0,1,2.253-4.037c1.668-1.289,4.056-1.607,6.307-1.661a14.268,14.268,0,0,1,5.557.748,5.213,5.213,0,0,1,3.453,3.645" transform="translate(-126.261 -221.142)" fill="#263238"/>
                </g>
                <g id="Grupo_992315" data-name="Grupo 992315" transform="translate(12.492 0.722)">
                  <path id="Trazado_652279" data-name="Trazado 652279" d="M158.824,240.724a35.343,35.343,0,0,0,.624-4.174c.184-3.223-.746-15.114-11.855-14.157l-.448,3.383s-1.717,11.581,5.469,11.667a12.919,12.919,0,0,0,3.651,6.807s1.884-.057,2.559-3.527" transform="translate(-146.965 -222.339)" fill="#263238"/>
                </g>
                <g id="Grupo_992316" data-name="Grupo 992316" transform="translate(17.832 15.756)">
                  <path id="Trazado_652280" data-name="Trazado 652280" d="M156.124,247.327a3.726,3.726,0,0,1,2.008.152,2.6,2.6,0,0,1,1.456,1.352,2.718,2.718,0,0,1-.006,2,4.6,4.6,0,0,1-1.157,1.666,3.119,3.119,0,0,1-1.221.79,1.489,1.489,0,0,1-1.388-.232" transform="translate(-155.816 -247.257)" fill="#ffbe9d"/>
                </g>
                <g id="Grupo_992318" data-name="Grupo 992318" transform="translate(18.451 16.691)">
                  <g id="Grupo_992317" data-name="Grupo 992317">
                    <path id="Trazado_652281" data-name="Trazado 652281" d="M156.853,251.992c-.077.024.209.431.821.274a1.315,1.315,0,0,0,.762-.65,2.962,2.962,0,0,0,.345-1.1,1.742,1.742,0,0,0-.269-1.178,1.161,1.161,0,0,0-.871-.529c-.628-.021-.828.411-.757.425.049.051.3-.17.706-.066a1.125,1.125,0,0,1,.681,1.3c-.082.686-.354,1.312-.721,1.464C157.168,252.116,156.9,251.938,156.853,251.992Z" transform="translate(-156.841 -248.805)" fill="#eb996e"/>
                  </g>
                </g>
              </g>
            </g>
          </g>
          <path id="Trazado_652282" data-name="Trazado 652282" d="M157.708,223.375a3.787,3.787,0,0,0,5.127-1.347,2.425,2.425,0,0,0,.351-1.812,2.493,2.493,0,0,0-1.866-1.618,3.812,3.812,0,0,0-3.5.841,3.345,3.345,0,0,0-.9,3.438,2.983,2.983,0,0,0,2.881,1.988" transform="translate(-131.426 -218.386)" fill="#263238"/>
          <path id="Trazado_652283" data-name="Trazado 652283" d="M157.611,256.445a8.8,8.8,0,0,0-1.727,1.489,2.973,2.973,0,0,0-.745,2.1,5.468,5.468,0,0,1,.14,1.266,4.23,4.23,0,0,1-.875,1.505,3.578,3.578,0,0,0,.564,4.193,5.8,5.8,0,0,0,4.1,1.668,3.513,3.513,0,0,0,3.988-3.957" transform="translate(-130.315 -233.445)" fill="#263238"/>
          <g id="Grupo_992322" data-name="Grupo 992322" transform="translate(21.393 7.48)">
            <path id="Trazado_652284" data-name="Trazado 652284" d="M156.889,230.724a4.1,4.1,0,0,1-.655,1.139,13.192,13.192,0,0,1-4.777,4.105,4.114,4.114,0,0,1-1.224.476,28.531,28.531,0,0,0,3.657-2.478A28.54,28.54,0,0,0,156.889,230.724Z" transform="translate(-150.233 -230.723)" fill="#455a64"/>
          </g>
          <g id="Grupo_992323" data-name="Grupo 992323" transform="translate(23.962 7.42)">
            <path id="Trazado_652285" data-name="Trazado 652285" d="M159.73,230.624a4.95,4.95,0,0,1-.2,1.522,12.3,12.3,0,0,1-3.784,6.288,4.938,4.938,0,0,1-1.25.894,15.506,15.506,0,0,0,5.238-8.7Z" transform="translate(-154.491 -230.624)" fill="#455a64"/>
          </g>
          <g id="Grupo_992324" data-name="Grupo 992324" transform="translate(5.035 12.449)">
            <path id="Trazado_652286" data-name="Trazado 652286" d="M123.169,238.958c.092-.007.211,1.039.572,2.273s.809,2.185.727,2.228a7.146,7.146,0,0,1-1.3-4.5Z" transform="translate(-123.121 -238.958)" fill="#455a64"/>
          </g>
          <g id="Grupo_992325" data-name="Grupo 992325" transform="translate(29.212 13.753)">
            <path id="Trazado_652287" data-name="Trazado 652287" d="M165.673,261.162a1.745,1.745,0,0,0,.919.3,1.879,1.879,0,0,0,1.063-.335,2.145,2.145,0,0,0,.8-1.219,3.932,3.932,0,0,0,.011-1.819c-.13-.655-.384-1.332-.608-2.07a5.461,5.461,0,0,1-.268-2.432,13.649,13.649,0,0,1,.991-2.4,3.136,3.136,0,0,0-1.832-3.892c-.345-.147-.7-.272-1.035-.453a2.11,2.11,0,0,1-.826-.74,3.475,3.475,0,0,1-.374-1.9,6.483,6.483,0,0,0-.062-1.534,2.508,2.508,0,0,0-.453-1.039,1.5,1.5,0,0,0-.814-.5.55.55,0,0,1,.263.021,1.258,1.258,0,0,1,.644.4,2.551,2.551,0,0,1,.531,1.079,6.33,6.33,0,0,1,.113,1.574,3.3,3.3,0,0,0,.371,1.758,3.355,3.355,0,0,0,1.753,1.066,3.421,3.421,0,0,1,2.017,4.263,14.469,14.469,0,0,0-.985,2.344,5.227,5.227,0,0,0,.243,2.3c.211.727.461,1.419.586,2.1a4.1,4.1,0,0,1-.054,1.93,2.3,2.3,0,0,1-.921,1.3,1.962,1.962,0,0,1-1.165.311,1.421,1.421,0,0,1-.722-.237A.66.66,0,0,1,165.673,261.162Z" transform="translate(-163.191 -241.12)" fill="#455a64"/>
          </g>
          <g id="Grupo_992326" data-name="Grupo 992326" transform="translate(27.335 23.043)">
            <path id="Trazado_652288" data-name="Trazado 652288" d="M160.084,266.845c.028-.017.079.194.372.326a.99.99,0,0,0,1.171-.317,1.847,1.847,0,0,0-.1-1.889,7.911,7.911,0,0,1-1.2-2.347,1.7,1.7,0,0,1,.335-1.391c.3-.364.642-.607.868-.905a2.63,2.63,0,0,0,.42-1.927,7.475,7.475,0,0,0-.346-1.369,1.8,1.8,0,0,1-.139-.51,1.676,1.676,0,0,1,.253.466,5.874,5.874,0,0,1,.451,1.38,2.792,2.792,0,0,1-.409,2.134c-.256.346-.608.6-.856.92a1.4,1.4,0,0,0-.268,1.151,8.4,8.4,0,0,0,1.149,2.264,2.05,2.05,0,0,1,.021,2.152,1.081,1.081,0,0,1-.766.419,1.058,1.058,0,0,1-.641-.123C160.077,267.083,160.073,266.836,160.084,266.845Z" transform="translate(-160.081 -256.517)" fill="#455a64"/>
          </g>
          <g id="Grupo_992327" data-name="Grupo 992327" transform="translate(1.889 16.528)">
            <path id="Trazado_652289" data-name="Trazado 652289" d="M119.705,260.986a2.683,2.683,0,0,1-.491-.49,5.957,5.957,0,0,1-1.053-1.586,3.165,3.165,0,0,1-.253-1.317,2.294,2.294,0,0,1,.532-1.461c.374-.434.917-.658,1.244-1.064a1.778,1.778,0,0,0,.25-1.552,6.62,6.62,0,0,0-.662-1.595,5.474,5.474,0,0,1-.586-1.583,2.07,2.07,0,0,1,.311-1.524,5.314,5.314,0,0,1,.919-.958,2.755,2.755,0,0,0,1.031-1.47,1.814,1.814,0,0,0-.026-.665c.007,0,.048.046.091.159a1.077,1.077,0,0,1,.056.524,2.744,2.744,0,0,1-1,1.615,5.351,5.351,0,0,0-.851.937,1.812,1.812,0,0,0-.244,1.334,5.362,5.362,0,0,0,.575,1.49,6.714,6.714,0,0,1,.694,1.666,2.073,2.073,0,0,1-.317,1.816c-.41.482-.95.691-1.265,1.061a2.05,2.05,0,0,0-.489,1.28,3.015,3.015,0,0,0,.2,1.225,6.746,6.746,0,0,0,.941,1.591A3.225,3.225,0,0,1,119.705,260.986Z" transform="translate(-117.907 -245.72)" fill="#455a64"/>
          </g>
          <g id="Grupo_992328" data-name="Grupo 992328" transform="translate(25.44 3.167)">
            <path id="Trazado_652290" data-name="Trazado 652290" d="M160.349,226.186a6.1,6.1,0,0,0-3.409-2.579,3.608,3.608,0,0,1,3.409,2.579Z" transform="translate(-156.94 -223.576)" fill="#00c1ab"/>
          </g>
          <g id="Grupo_992329" data-name="Grupo 992329" transform="translate(28.449)">
            <path id="Trazado_652291" data-name="Trazado 652291" d="M163.2,218.327c.032-.02.234.216.4.684a3.269,3.269,0,0,1-.976,3.53c-.38.318-.675.417-.691.384s.221-.207.539-.545a3.589,3.589,0,0,0,.914-3.309A4.562,4.562,0,0,1,163.2,218.327Z" transform="translate(-161.926 -218.326)" fill="#455a64"/>
          </g>
        </g>
        <path id="Trazado_652292" data-name="Trazado 652292" d="M113.254,339.133s14.991,14.235,23.9,11.658,11.548-9.263,11.548-9.263l.216-2.395-.893-.584-34.307-2.778Z" transform="translate(-94.55 -264.909)" opacity="0.3"/>
        <g id="Grupo_992352" data-name="Grupo 992352" transform="translate(0 35.389)">
          <g id="Grupo_992333" data-name="Grupo 992333" transform="translate(9.327 1.413)">
            <path id="Trazado_652293" data-name="Trazado 652293" d="M98.555,314.37l2.891-7.413,10.362,6.51L102.575,327.7S98.819,322.826,98.555,314.37Z" transform="translate(-98.046 -290.282)" fill="#eb996e"/>
            <g id="Grupo_992332" data-name="Grupo 992332">
              <g id="Grupo_992331" data-name="Grupo 992331">
                <path id="Trazado_652294" data-name="Trazado 652294" d="M109.914,282.926a36.993,36.993,0,0,1,11.065-3.244h0c1.812,3.627,7.523,4.088,10.981,1.612l2.916-1.971a10.582,10.582,0,0,1,1.222.05,15.574,15.574,0,0,1,13.794,12.4,31.1,31.1,0,0,1,.729,7.839c-.379,6.591-7.206,7.187-7.206,7.187s-.351,6.516-.812,11.778h0a9.825,9.825,0,0,1-5.97,8.515,24.246,24.246,0,0,1-7.61,2.346,25.558,25.558,0,0,1-22.676-7.852c1.035-6.278,2.025-14.407,1.954-14.771a.181.181,0,0,1,.011-.12l-6.766-6.006-3.834-3.22s8.415-12.489,12.2-14.545" transform="translate(-97.712 -279.32)" fill="#00c1ab"/>
              </g>
            </g>
          </g>
          <g id="Grupo_992334" data-name="Grupo 992334" transform="translate(19.34 8.392)">
            <path id="Trazado_652295" data-name="Trazado 652295" d="M124.879,291.576a3.6,3.6,0,0,0-1.673-.462,2.752,2.752,0,0,0-1.726.6,7.382,7.382,0,0,0-.768.825,2,2,0,0,1-1.095.726,1.783,1.783,0,0,1-1.275-.341c-.348-.222-.644-.466-.95-.641a2.071,2.071,0,0,0-1.77-.154,2.338,2.338,0,0,0-1.028.71c-.19.235-.259.395-.285.383a.923.923,0,0,1,.186-.456,2.335,2.335,0,0,1,3.04-.735c.337.185.642.428.971.632a1.5,1.5,0,0,0,1.055.293,1.734,1.734,0,0,0,.923-.623,6.92,6.92,0,0,1,.816-.845,2.892,2.892,0,0,1,1.91-.595,2.751,2.751,0,0,1,1.292.369C124.775,291.428,124.889,291.565,124.879,291.576Z" transform="translate(-114.307 -290.888)" fill="#fafafa"/>
          </g>
          <g id="Grupo_992335" data-name="Grupo 992335" transform="translate(26.245 15.424)">
            <path id="Trazado_652296" data-name="Trazado 652296" d="M136.293,305.206a3.594,3.594,0,0,0-1.437-.973,2.749,2.749,0,0,0-1.826.016,7.289,7.289,0,0,0-.991.536,2,2,0,0,1-1.27.339,1.78,1.78,0,0,1-1.1-.731c-.259-.322-.462-.647-.7-.911a2.071,2.071,0,0,0-1.628-.711,2.337,2.337,0,0,0-1.2.343c-.255.162-.372.291-.393.273s.074-.168.322-.372a2.334,2.334,0,0,1,3.115.275c.26.282.472.611.718.909a1.5,1.5,0,0,0,.907.615,1.731,1.731,0,0,0,1.073-.3,6.93,6.93,0,0,1,1.043-.54,2.894,2.894,0,0,1,2,.046,2.76,2.76,0,0,1,1.107.763A1.023,1.023,0,0,1,136.293,305.206Z" transform="translate(-125.752 -302.542)" fill="#fafafa"/>
          </g>
          <g id="Grupo_992336" data-name="Grupo 992336" transform="translate(42.067 4.538)">
            <path id="Trazado_652297" data-name="Trazado 652297" d="M161.964,284.861a3.585,3.585,0,0,0-1.733-.1,2.753,2.753,0,0,0-1.559.95,7.208,7.208,0,0,0-.576.969,2,2,0,0,1-.917.941,1.779,1.779,0,0,1-1.318-.063c-.387-.144-.729-.319-1.064-.425a2.07,2.07,0,0,0-1.762.224,2.34,2.34,0,0,0-.855.911c-.136.27-.17.441-.2.435a.919.919,0,0,1,.086-.484,2.334,2.334,0,0,1,2.815-1.362c.367.109.718.282,1.082.412a1.5,1.5,0,0,0,1.094.063,1.736,1.736,0,0,0,.769-.8,6.877,6.877,0,0,1,.618-1,2.892,2.892,0,0,1,1.741-.985,2.754,2.754,0,0,1,1.341.087A1.018,1.018,0,0,1,161.964,284.861Z" transform="translate(-151.974 -284.501)" fill="#fafafa"/>
          </g>
          <g id="Grupo_992337" data-name="Grupo 992337" transform="translate(36.948 12.411)">
            <path id="Trazado_652298" data-name="Trazado 652298" d="M151.553,299.935a3.093,3.093,0,0,0-1.084-.776,2.1,2.1,0,0,0-1.388-.043,5.656,5.656,0,0,0-.777.379,1.574,1.574,0,0,1-1.013.22,1.4,1.4,0,0,1-.842-.615c-.189-.259-.334-.518-.5-.726a1.575,1.575,0,0,0-1.2-.6,2.195,2.195,0,0,0-1.25.394c-.012-.01.055-.134.254-.288a1.739,1.739,0,0,1,1-.328,1.772,1.772,0,0,1,1.427.64c.193.229.346.49.524.726a1.125,1.125,0,0,0,.656.491c.554.1,1.064-.4,1.643-.567a2.248,2.248,0,0,1,1.559.113C151.392,299.339,151.584,299.942,151.553,299.935Z" transform="translate(-143.491 -297.549)" fill="#fafafa"/>
          </g>
          <g id="Grupo_992338" data-name="Grupo 992338" transform="translate(21.408 20.75)">
            <path id="Trazado_652299" data-name="Trazado 652299" d="M125.8,313.756a3.06,3.06,0,0,0-1.083-.777,2.109,2.109,0,0,0-1.388-.043,5.661,5.661,0,0,0-.777.379,1.57,1.57,0,0,1-1.013.22,1.406,1.406,0,0,1-.843-.615c-.189-.259-.334-.517-.5-.726a1.578,1.578,0,0,0-1.2-.6,2.192,2.192,0,0,0-1.25.395c-.013-.01.056-.134.253-.288a1.738,1.738,0,0,1,1-.329,1.772,1.772,0,0,1,1.427.64c.194.229.346.49.524.726a1.122,1.122,0,0,0,.656.491c.554.1,1.064-.4,1.643-.567a2.251,2.251,0,0,1,1.559.114C125.636,313.16,125.829,313.763,125.8,313.756Z" transform="translate(-117.736 -311.369)" fill="#fafafa"/>
          </g>
          <g id="Grupo_992339" data-name="Grupo 992339" transform="translate(35.794 22.709)">
            <path id="Trazado_652300" data-name="Trazado 652300" d="M149.781,315.231a3.086,3.086,0,0,0-1.277-.384,2.1,2.1,0,0,0-1.327.408,5.593,5.593,0,0,0-.612.61,1.574,1.574,0,0,1-.888.536,1.4,1.4,0,0,1-1-.31c-.264-.184-.484-.381-.71-.525a1.575,1.575,0,0,0-1.334-.179,2.2,2.2,0,0,0-1.055.777c-.015-.005.009-.144.147-.354a1.738,1.738,0,0,1,.837-.634,1.772,1.772,0,0,1,1.557.143c.257.154.486.352.731.517a1.124,1.124,0,0,0,.78.253c.556-.088.877-.725,1.371-1.069a2.247,2.247,0,0,1,1.511-.4A1.63,1.63,0,0,1,149.781,315.231Z" transform="translate(-141.577 -314.616)" fill="#fafafa"/>
          </g>
          <g id="Grupo_992340" data-name="Grupo 992340" transform="translate(30.995 29.335)">
            <path id="Trazado_652301" data-name="Trazado 652301" d="M141.828,326.214a3.07,3.07,0,0,0-1.277-.384,2.11,2.11,0,0,0-1.327.409,5.588,5.588,0,0,0-.612.61,1.574,1.574,0,0,1-.888.536,1.406,1.406,0,0,1-1-.31c-.264-.185-.484-.382-.71-.525a1.576,1.576,0,0,0-1.334-.179,2.193,2.193,0,0,0-1.055.778c-.015-.006.009-.145.147-.354a1.735,1.735,0,0,1,.837-.634,1.772,1.772,0,0,1,1.557.144c.257.154.486.351.731.516a1.121,1.121,0,0,0,.78.253c.556-.087.877-.725,1.371-1.068a2.244,2.244,0,0,1,1.511-.4A1.627,1.627,0,0,1,141.828,326.214Z" transform="translate(-133.624 -325.598)" fill="#fafafa"/>
          </g>
          <g id="Grupo_992341" data-name="Grupo 992341" transform="translate(20.979 44.109)">
            <path id="Trazado_652302" data-name="Trazado 652302" d="M125.11,352.374a3.066,3.066,0,0,0-1.095-.761,2.106,2.106,0,0,0-1.388-.023,5.722,5.722,0,0,0-.772.39,1.568,1.568,0,0,1-1.01.235,1.4,1.4,0,0,1-.851-.6c-.193-.256-.341-.512-.512-.719a1.577,1.577,0,0,0-1.213-.583,2.2,2.2,0,0,0-1.244.412c-.013-.01.054-.135.25-.291a1.736,1.736,0,0,1,.993-.343,1.771,1.771,0,0,1,1.436.619c.2.226.353.485.535.718a1.12,1.12,0,0,0,.662.482c.556.089,1.058-.417,1.635-.59a2.247,2.247,0,0,1,1.56.091C124.941,351.78,125.142,352.38,125.11,352.374Z" transform="translate(-117.024 -350.083)" fill="#fafafa"/>
          </g>
          <g id="Grupo_992342" data-name="Grupo 992342" transform="translate(32.707 49.261)">
            <path id="Trazado_652303" data-name="Trazado 652303" d="M144.677,359.26a3.078,3.078,0,0,0-1.271-.4,2.108,2.108,0,0,0-1.333.39,5.711,5.711,0,0,0-.621.6,1.573,1.573,0,0,1-.895.524,1.407,1.407,0,0,1-.992-.323c-.261-.188-.478-.389-.7-.535a1.579,1.579,0,0,0-1.332-.2,2.193,2.193,0,0,0-1.066.763c-.015-.006.011-.145.152-.352a1.738,1.738,0,0,1,.847-.622,1.771,1.771,0,0,1,1.555.165c.255.158.481.358.724.527a1.122,1.122,0,0,0,.776.264c.558-.08.887-.712,1.386-1.049a2.245,2.245,0,0,1,1.517-.376A1.627,1.627,0,0,1,144.677,359.26Z" transform="translate(-136.462 -358.623)" fill="#fafafa"/>
          </g>
          <g id="Grupo_992347" data-name="Grupo 992347">
            <g id="Grupo_992345" data-name="Grupo 992345">
              <g id="Grupo_992344" data-name="Grupo 992344">
                <path id="Trazado_652304" data-name="Trazado 652304" d="M84.1,276.979c.366.431,13.632,18.17,13.632,18.17l-1.867,1.058L82.254,278.694Z" transform="translate(-82.254 -276.979)" fill="#263238"/>
                <path id="Trazado_652305" data-name="Trazado 652305" d="M138.659,295.134s-12.443,21.458-13.284,21.852c-1.656.777-20.749-15.721-22.569-17.3-.251-.335-.769-1.043-1.786-2.45,0,0-1.506-6.893-3.113-6.364s.88,3.5-.167,6.122-5.841-3.628-6.033-4.189l-1.236-1.615s-1.3,3.676-1.209,5.211c.282,4.918,4.934,10.766,4.934,10.766s18.906,23.691,33.218,24.494c4.122.231,12-11.637,16.894-20.407,2.958-5.3,1.585-10.677-3.317-14.251Z" transform="translate(-85.032 -282.478)" fill="#ffbe9d"/>
                <g id="Grupo_992343" data-name="Grupo 992343" transform="translate(4.775 11.163)">
                  <path id="Trazado_652306" data-name="Trazado 652306" d="M91.972,299.114a11.329,11.329,0,0,1-1.8-3.635,20.261,20.261,0,0,1,.9,1.815C91.572,298.3,92.019,299.086,91.972,299.114Z" transform="translate(-90.169 -295.479)" fill="#eb996e"/>
                </g>
              </g>
            </g>
            <path id="Trazado_652307" data-name="Trazado 652307" d="M162.235,288.061c-.492.295-12.062,21.775-12.062,21.775L165.066,321.5a172.486,172.486,0,0,0,5.918-17.3,24.863,24.863,0,0,0-.514-9.9c-1.113-3.085-2.791-2.317-5.3-4.124Z" transform="translate(-109.193 -281.375)" fill="#00c1ab"/>
            <g id="Grupo_992346" data-name="Grupo 992346" transform="translate(40.782 6.066)" opacity="0.7">
              <path id="Trazado_652308" data-name="Trazado 652308" d="M167,287.653c-.009.013-.146-.082-.425-.222a2.5,2.5,0,0,0-1.309-.275,3.572,3.572,0,0,0-1.943.812,9.647,9.647,0,0,0-1.939,2.088c-.629.857-1.149,1.9-1.784,2.994l-1.99,3.494-4.577,8-2.855,4.963-.039-.2,10.077,7.963,2.924,2.347.775.64a1.644,1.644,0,0,1,.257.236,1.714,1.714,0,0,1-.29-.193l-.807-.6-2.979-2.276-10.145-7.876-.1-.081.066-.115,2.846-4.966,4.6-7.981,2.014-3.479a34.434,34.434,0,0,1,1.833-3,9.656,9.656,0,0,1,2.014-2.1,3.654,3.654,0,0,1,2.043-.793,2.464,2.464,0,0,1,1.344.342,2.186,2.186,0,0,1,.3.2C166.969,287.622,167,287.649,167,287.653Z" transform="translate(-149.845 -287.032)"/>
            </g>
          </g>
          <g id="Grupo_992348" data-name="Grupo 992348" transform="translate(45.425 24.441)">
            <path id="Trazado_652309" data-name="Trazado 652309" d="M165.6,319.873a3.084,3.084,0,0,0-1.084-.777,2.109,2.109,0,0,0-1.388-.043,5.8,5.8,0,0,0-.777.379,1.574,1.574,0,0,1-1.013.221,1.406,1.406,0,0,1-.842-.616c-.189-.259-.334-.517-.5-.726a1.579,1.579,0,0,0-1.2-.6,2.2,2.2,0,0,0-1.25.395c-.012-.01.055-.134.254-.288a1.739,1.739,0,0,1,1-.329,1.771,1.771,0,0,1,1.426.64c.194.229.346.49.525.726a1.123,1.123,0,0,0,.656.491c.555.1,1.064-.4,1.643-.567a2.248,2.248,0,0,1,1.559.113C165.441,319.277,165.634,319.88,165.6,319.873Z" transform="translate(-157.541 -317.486)" fill="#fafafa"/>
          </g>
          <g id="Grupo_992349" data-name="Grupo 992349" transform="translate(53.009 19.858)">
            <path id="Trazado_652310" data-name="Trazado 652310" d="M177.4,314.082a3.081,3.081,0,0,0-.834-1.04,2.106,2.106,0,0,0-1.326-.416,5.694,5.694,0,0,0-.85.156,1.573,1.573,0,0,1-1.035-.062,1.4,1.4,0,0,1-.646-.82c-.112-.3-.182-.588-.287-.834a1.579,1.579,0,0,0-1-.9,2.195,2.195,0,0,0-1.31.043c-.009-.013.09-.114.322-.209a1.738,1.738,0,0,1,1.049-.047,1.772,1.772,0,0,1,1.2,1c.124.273.2.565.309.841a1.125,1.125,0,0,0,.5.65c.507.243,1.133-.1,1.735-.1a2.248,2.248,0,0,1,1.471.53A1.628,1.628,0,0,1,177.4,314.082Z" transform="translate(-170.11 -309.89)" fill="#fafafa"/>
          </g>
          <g id="Grupo_992350" data-name="Grupo 992350" transform="translate(53.359 10.978)">
            <path id="Trazado_652311" data-name="Trazado 652311" d="M177.975,299.366a3.067,3.067,0,0,0-.834-1.04,2.107,2.107,0,0,0-1.325-.416,5.583,5.583,0,0,0-.85.155,1.571,1.571,0,0,1-1.035-.061,1.405,1.405,0,0,1-.645-.82c-.113-.3-.182-.588-.287-.835a1.576,1.576,0,0,0-1-.9,2.19,2.19,0,0,0-1.31.042c-.009-.013.089-.114.322-.209a1.74,1.74,0,0,1,1.05-.047,1.77,1.77,0,0,1,1.2,1c.124.272.2.565.31.84a1.121,1.121,0,0,0,.5.65c.508.244,1.133-.1,1.735-.1a2.248,2.248,0,0,1,1.47.53A1.624,1.624,0,0,1,177.975,299.366Z" transform="translate(-170.69 -295.174)" fill="#fafafa"/>
          </g>
          <g id="Grupo_992351" data-name="Grupo 992351" transform="translate(50.064 31.39)">
            <path id="Trazado_652312" data-name="Trazado 652312" d="M172.514,333.2a3.078,3.078,0,0,0-.834-1.04,2.108,2.108,0,0,0-1.326-.416,5.691,5.691,0,0,0-.85.155,1.57,1.57,0,0,1-1.035-.061,1.406,1.406,0,0,1-.646-.82c-.112-.3-.182-.588-.287-.835a1.576,1.576,0,0,0-1-.9,2.194,2.194,0,0,0-1.309.042c-.01-.013.089-.113.322-.208a1.732,1.732,0,0,1,1.049-.048,1.773,1.773,0,0,1,1.2,1c.124.273.2.565.309.84a1.124,1.124,0,0,0,.5.65c.507.243,1.133-.1,1.735-.1a2.251,2.251,0,0,1,1.471.53A1.628,1.628,0,0,1,172.514,333.2Z" transform="translate(-165.229 -329.004)" fill="#fafafa"/>
          </g>
        </g>
      </g>
    </g>
  </g>
</svg>
