<svg xmlns="http://www.w3.org/2000/svg" width="111.679" height="111.679" viewBox="0 0 111.679 111.679">
  <g id="Grupo_989445" data-name="Grupo 989445" transform="translate(-744.161 -1365.16)">
    <g id="Grupo_985926" data-name="Grupo 985926" transform="translate(309.161 -2975.84)">
      <circle id="Elipse_7706" data-name="Elipse 7706" cx="55.839" cy="55.839" r="55.839" transform="translate(435 4341)" fill="#006475"/>
    </g>
    <g id="Grupo_991936" data-name="Grupo 991936" transform="translate(-62.221 997.326)">
      <path id="Trazado_651226" data-name="Trazado 651226" d="M907.834,388.327a1.478,1.478,0,0,1,1.4,2.169q-5.686,14.517-11.367,29.034-6.055,15.5-12.085,31.017a1.517,1.517,0,0,1-2.129.965c-4.343-1.383-8.69-2.75-13.024-4.159a1.22,1.22,0,0,0-1.324.248q-6.669,5.505-13.364,10.978a1.534,1.534,0,0,1-2.39-.271q-7.637-9.732-15.264-19.472a2.766,2.766,0,0,0-1.389-.968q-10.369-3.414-20.729-6.854a1.442,1.442,0,0,1-1.11-1.4,1.46,1.46,0,0,1,.995-1.49q43.2-18.786,86.405-37.57,2.313-1.006,4.613-2.043A1.392,1.392,0,0,1,907.834,388.327Zm-3.723,7.1-.134-.086c-.135.1-.279.2-.4.308q-15.373,13.737-30.753,27.467a.72.72,0,0,0-.2,1.062q5.6,10.85,11.172,21.72c.084.163.094.436.445.42Zm-51.875,56.195c.159-.24.055-.483.018-.7-.569-3.443-1.133-6.887-1.742-10.323a1.972,1.972,0,0,1,.607-2.053q18.4-16.411,36.777-32.851c.17-.152.433-.247.427-.561-.4-.142-.621.2-.872.367q-22.964,15.606-45.928,31.212c-.677.459-.628.715-.169,1.292,3.453,4.343,6.87,8.715,10.3,13.073C851.819,451.28,851.923,451.561,852.236,451.624Zm40.625-53.391-.143-.217-62.533,27.211a1.348,1.348,0,0,0,.931.035q14.751-2.838,29.5-5.672a6.07,6.07,0,0,0,2.339-.982q13.664-9.33,27.353-18.623C891.163,399.405,892.011,398.818,892.861,398.233Zm-38.044,41,26.566,8.442-11.327-22.064Zm-32.092-9.369-.041.175c4.964,1.655,9.931,3.3,14.887,4.978a1.591,1.591,0,0,0,1.593-.215c5.1-3.5,10.23-6.976,15.345-10.465.239-.163.563-.255.7-.718Zm31.025,12.125c.691,4.117,1.366,8.034,1.992,11.959.113.708.248.767.792.317,3.072-2.539,6.166-5.052,9.243-7.584.215-.177.567-.283.527-.7Zm39.292-44.063-.067.062.064.064.063-.1Z" fill="#030302"/>
      <path id="Trazado_651227" data-name="Trazado 651227" d="M1002.315,407.446l-19.873,50.892c-.35.016-.361-.257-.445-.42q-5.587-10.86-11.172-21.72a.72.72,0,0,1,.2-1.062q15.388-13.721,30.753-27.467c.126-.113.269-.206.4-.308Z" transform="translate(-98.204 -12.016)" fill="#f6cc68"/>
      <path id="Trazado_651228" data-name="Trazado 651228" d="M896.626,480.327c-.312-.063-.417-.344-.577-.547-3.434-4.358-6.851-8.73-10.3-13.073-.459-.577-.508-.833.169-1.292q22.978-15.585,45.928-31.212c.252-.172.469-.51.872-.367.006.314-.257.409-.427.561q-18.381,16.433-36.777,32.851a1.972,1.972,0,0,0-.607,2.053c.609,3.436,1.173,6.88,1.742,10.323C896.681,479.843,896.785,480.087,896.626,480.327Z" transform="translate(-44.39 -28.702)" fill="#e0a94e"/>
      <path id="Trazado_651229" data-name="Trazado 651229" d="M918.731,414.821c-.85.584-1.7,1.172-2.55,1.752Q902.5,425.881,888.827,435.2a6.07,6.07,0,0,1-2.339.982q-14.753,2.823-29.5,5.672a1.348,1.348,0,0,1-.931-.035L918.588,414.6Z" transform="translate(-25.87 -16.588)" fill="#f4cb67"/>
      <path id="Trazado_651230" data-name="Trazado 651230" d="M922.823,503.032l15.239-13.622,11.327,22.064Z" transform="translate(-68.006 -63.796)" fill="#ebba59"/>
      <path id="Trazado_651231" data-name="Trazado 651231" d="M835.766,490.256l32.482-6.244c-.136.463-.46.555-.7.718-5.114,3.489-10.241,6.961-15.345,10.465a1.591,1.591,0,0,1-1.593.215c-4.956-1.678-9.923-3.323-14.887-4.978Z" transform="translate(-13.041 -60.389)" fill="#eab959"/>
      <path id="Trazado_651232" data-name="Trazado 651232" d="M919.93,533.8l12.554,3.989c.04.42-.312.526-.527.7-3.077,2.533-6.171,5.046-9.243,7.584-.545.45-.679.391-.792-.317C921.3,541.838,920.621,537.921,919.93,533.8Z" transform="translate(-66.18 -91.812)" fill="#d69e49"/>
      <path id="Trazado_651233" data-name="Trazado 651233" d="M1026.319,414.368l.06.03-.063.1-.064-.064Z" transform="translate(-133.277 -16.439)" fill="#f4cb67"/>
    </g>
  </g>
</svg>
