<svg xmlns="http://www.w3.org/2000/svg" width="111.679" height="111.679" viewBox="0 0 111.679 111.679">
  <g id="Grupo_989448" data-name="Grupo 989448" transform="translate(-744.161 -1365.16)">
    <g id="Grupo_985926" data-name="Grupo 985926" transform="translate(309.161 -2975.84)">
      <circle id="Elipse_7706" data-name="Elipse 7706" cx="55.839" cy="55.839" r="55.839" transform="translate(435 4341)" fill="#006475"/>
    </g>
    <g id="Grupo_991939" data-name="Grupo 991939" transform="translate(-458.563 970.721)">
      <path id="Trazado_651266" data-name="Trazado 651266" d="M1338.788,567.84l-3.572-.032c-.277-1.122-.636-1.415-1.8-1.419-1.819-.007-3.638,0-5.457,0-1.877,0-2.219-.336-2.219-2.188q0-15.213,0-30.427c0-1.954.3-2.257,2.244-2.257q21.829,0,43.658,0c.337,0,.675.032,1.012.05a5.262,5.262,0,0,1,.193,1.452q-.012,15.939,0,31.876a4.518,4.518,0,0,1-.195,1.451c-.735.014-1.472.073-2.2.031a3.956,3.956,0,0,0-3.476,1.493,4.711,4.711,0,0,0-1.553.078c-1.155.379-1.237,1.4-1.462,2.353a7.679,7.679,0,0,1-2.84,4.785,14.272,14.272,0,0,0,.6-4.181c-.259-2.857-1.443-4.622-4.7-4.551-5.451.119-10.906.031-16.36.034C1339.453,566.389,1339.12,566.655,1338.788,567.84Zm11.651-17.509h16c1.467,0,2.169-.472,2.134-1.427-.034-.926-.71-1.359-2.128-1.359q-16,0-31.992,0a3.845,3.845,0,0,0-1.094.113,1.36,1.36,0,0,0,.167,2.622,5.836,5.836,0,0,0,1.013.046Q1342.487,550.333,1350.439,550.331Zm-6.847-5.879q4.668,0,9.336,0a4.535,4.535,0,0,0,1.1-.1,1.244,1.244,0,0,0,.976-1.3,1.277,1.277,0,0,0-1.058-1.33,3.318,3.318,0,0,0-.734-.059q-9.474,0-18.949,0a3.419,3.419,0,0,0-.825.068,1.364,1.364,0,0,0-.09,2.605,3.878,3.878,0,0,0,1.1.11C1337.492,544.456,1340.542,544.452,1343.592,544.452Zm-2.777,11.769c2.278,0,4.557.006,6.835,0,1.017,0,1.635-.51,1.665-1.326.032-.845-.625-1.444-1.663-1.446q-6.789-.016-13.577,0c-1.059,0-1.672.568-1.646,1.445.026.854.59,1.323,1.645,1.328C1336.321,556.228,1338.568,556.221,1340.816,556.221Zm22.85-11.771c1.109,0,2.218.022,3.326-.007a1.439,1.439,0,0,0,1.577-1.436A1.414,1.414,0,0,0,1367,541.67q-3.372-.029-6.744,0c-1,.007-1.625.568-1.627,1.38s.63,1.376,1.621,1.4C1361.387,544.47,1362.527,544.451,1363.666,544.45Z" transform="translate(-72.081 -80.924)" fill="#c7e5b2"/>
      <path id="Trazado_651267" data-name="Trazado 651267" d="M1300.578,450.642c-.338-.017-.675-.05-1.012-.05q-21.829,0-43.658,0c-1.942,0-2.244.3-2.244,2.257q0,15.213,0,30.427c0,1.853.342,2.188,2.219,2.188,1.819,0,3.638-.005,5.457,0,1.159,0,1.518.3,1.8,1.419-.306,1.123-.6,1.354-1.8,1.356-2.005,0-4.011.009-6.016,0a4.179,4.179,0,0,1-4.441-4.472c-.021-5.49-.007-10.98-.007-16.471,0-3.979-.012-7.958.013-11.937,0-.629-.065-.909-.825-.9q-9.162.054-18.324,0a1.161,1.161,0,0,0-1.307.98,6.272,6.272,0,0,0,.156,3.46,5.077,5.077,0,0,1,.334,1.99,3.393,3.393,0,0,1-5.127,2.579,11.224,11.224,0,0,1-5.726-8.087.927.927,0,0,0-1.109-.915c-1.078.039-2.16.026-3.239.007a4.264,4.264,0,0,1-4.532-4.6q0-21.19,0-42.38a4.245,4.245,0,0,1,4.621-4.588q30.586,0,61.172,0c2.937,0,4.664,1.713,4.674,4.639q.012,3.563,0,7.125c0,1.231-.242,1.545-1.42,1.927-1.2-.425-1.355-.637-1.357-1.949,0-2.395.009-4.79-.006-7.184-.008-1.271-.533-1.771-1.806-1.782-.306,0-.613.019-.919.029-.277-.009-.554-.027-.831-.027h-59.3c-1.635,0-2.052.427-2.052,2.1q0,12.07,0,24.141,0,8.972,0,17.944c0,1.293.494,1.792,1.779,1.811,1.017.015,2.035,0,3.052,0,2.44.009,3.59.995,4.032,3.406a7.661,7.661,0,0,0,2.6,4.644,4.361,4.361,0,0,0,1.263,1.035c.331.219.663.631,1.142.305.526-.358.235-.832.11-1.244a8.281,8.281,0,0,1,.489-6.745,4.085,4.085,0,0,1,3.442-1.415c4.408.034,8.817.013,13.226.013,1.7,0,3.391,0,5.087,0,.32,0,.624.074.778-.415.818-2.592,2.021-3.447,4.734-3.447q9.2,0,18.405,0c.8,0,1.6-.035,2.4-.053.336.02.672.061,1.007.057,1.59-.019,1.352.218,1.354-1.372q.013-12.142.005-24.285c0-1.323.218-1.619,1.366-1.918,1.155.282,1.411.637,1.411,1.995,0,8.17.018,16.341-.023,24.511,0,.913.245,1.095,1.116,1.089,6.136-.041,12.272-.023,18.408-.021,3.137,0,4.783,1.649,4.784,4.786q0,15.446,0,30.893c0,3.08-1.662,4.751-4.722,4.754-1.018,0-2.036.023-3.052-.008a.944.944,0,0,0-1.117.918,11.348,11.348,0,0,1-5.468,7.862,3.369,3.369,0,0,1-3.976-.008,3.448,3.448,0,0,1-1.228-3.871,7.455,7.455,0,0,0,.362-3.811,1.212,1.212,0,0,0-1.4-1.1c-5.581.032-11.163,0-16.744.03-1.011.005-1.663-.322-1.889-1.34.332-1.185.665-1.451,1.881-1.452,5.453,0,10.909.085,16.36-.034,3.255-.071,4.44,1.694,4.7,4.551a14.276,14.276,0,0,1-.6,4.181c.032.811.466.861,1.039.508a8.568,8.568,0,0,0,4.2-5.8,7.046,7.046,0,0,1,.62-1.919,3.956,3.956,0,0,1,3.476-1.493c.731.042,1.468-.017,2.2-.031,2.213.152,2.583-.183,2.583-2.339q0-15.148,0-30.3a6.4,6.4,0,0,0-.012-.831,1.374,1.374,0,0,0-1.373-1.348C1301.376,450.587,1300.976,450.629,1300.578,450.642Z" fill="#040404"/>
      <path id="Trazado_651268" data-name="Trazado 651268" d="M1386.377,410.421c.306-.01.613-.031.919-.029,1.273.011,1.8.511,1.806,1.782.015,2.394,0,4.789.006,7.184,0,1.313.155,1.524,1.357,1.949q0,1.822.008,3.642c-1.148.3-1.366.6-1.366,1.918q0,12.143-.005,24.285c0,1.59.237,1.353-1.354,1.372-.335,0-.672-.037-1.007-.057q0-20.371.015-40.742A2.372,2.372,0,0,0,1386.377,410.421Z" transform="translate(-110.231 -4.714)" fill="#f1df87"/>
      <path id="Trazado_651269" data-name="Trazado 651269" d="M1361.783,577.533q-7.952,0-15.9,0a5.835,5.835,0,0,1-1.013-.046,1.36,1.36,0,0,1-.167-2.622,3.843,3.843,0,0,1,1.094-.113q16-.008,31.992,0c1.419,0,2.095.433,2.128,1.359.035.955-.667,1.426-2.134,1.427Z" transform="translate(-83.425 -108.126)" fill="#050605"/>
      <path id="Trazado_651270" data-name="Trazado 651270" d="M1452.262,531.586c.4-.013.8-.056,1.195-.034a1.374,1.374,0,0,1,1.374,1.348,6.405,6.405,0,0,1,.012.831q0,15.148,0,30.3c0,2.155-.37,2.491-2.583,2.339a4.515,4.515,0,0,0,.195-1.451q-.01-15.938,0-31.876A5.267,5.267,0,0,0,1452.262,531.586Z" transform="translate(-151.684 -80.944)" fill="#b6dc9b"/>
      <path id="Trazado_651271" data-name="Trazado 651271" d="M1354.932,561.672c-3.051,0-6.1,0-9.151,0a3.877,3.877,0,0,1-1.1-.11,1.364,1.364,0,0,1,.09-2.605,3.42,3.42,0,0,1,.825-.068q9.475-.005,18.949,0a3.32,3.32,0,0,1,.734.059,1.277,1.277,0,0,1,1.058,1.33,1.244,1.244,0,0,1-.976,1.3,4.534,4.534,0,0,1-1.1.1Q1359.6,561.678,1354.932,561.672Z" transform="translate(-83.421 -98.144)" fill="#060705"/>
      <path id="Trazado_651272" data-name="Trazado 651272" d="M1352.156,593.423c-2.247,0-4.495.006-6.742,0-1.055,0-1.619-.474-1.645-1.328-.026-.876.588-1.442,1.646-1.445q6.789-.016,13.577,0c1.039,0,1.7.6,1.663,1.446-.03.816-.648,1.322-1.665,1.326C1356.713,593.429,1354.435,593.423,1352.156,593.423Z" transform="translate(-83.422 -118.126)" fill="#040403"/>
      <path id="Trazado_651273" data-name="Trazado 651273" d="M1419.461,561.659c-1.139,0-2.279.019-3.418-.005-.991-.021-1.624-.59-1.621-1.4s.632-1.373,1.627-1.38q3.372-.024,6.744,0a1.414,1.414,0,0,1,1.571,1.338,1.439,1.439,0,0,1-1.577,1.436C1421.679,561.681,1420.57,561.659,1419.461,561.659Z" transform="translate(-127.877 -98.132)" fill="#060705"/>
      <path id="Trazado_651274" data-name="Trazado 651274" d="M1427.009,629.517a7.045,7.045,0,0,0-.62,1.919,8.567,8.567,0,0,1-4.2,5.8c-.573.353-1.007.3-1.039-.508a7.68,7.68,0,0,0,2.84-4.785c.225-.949.307-1.974,1.462-2.353A4.708,4.708,0,0,1,1427.009,629.517Z" transform="translate(-132.112 -142.57)" fill="#b4d999"/>
      <path id="Trazado_651275" data-name="Trazado 651275" d="M1280.865,410.423a2.371,2.371,0,0,1,.379,1.3q-.017,20.371-.015,40.742c-.8.019-1.6.053-2.4.053q-9.2.007-18.405,0c-2.713,0-3.916.855-4.734,3.447-.154.488-.458.413-.778.415-1.7.006-3.391,0-5.087,0-4.409,0-8.818.022-13.226-.013a4.085,4.085,0,0,0-3.442,1.415c-1.087-.093-2.136-.046-2.7,1.1a5.173,5.173,0,0,0-.518,1.942c-.082,1.218.212,2.4.209,3.608a7.661,7.661,0,0,1-2.6-4.644c-.442-2.411-1.592-3.4-4.032-3.406-1.018,0-2.035.011-3.052,0-1.285-.018-1.778-.517-1.78-1.811q-.007-8.972,0-17.944,0-12.071,0-24.141c0-1.669.417-2.1,2.052-2.1h59.3C1280.311,410.4,1280.588,410.414,1280.865,410.423ZM1251.2,429.07h-9.339c-2.435,0-4.87-.009-7.3.005a1.324,1.324,0,0,0-1.48,1.3,1.38,1.38,0,0,0,1.436,1.465c.245.017.493,0,.739,0h29.5c.986,0,1.973.022,2.959-.008a1.4,1.4,0,0,0,1.492-1.509c-.066-.813-.664-1.258-1.724-1.259Q1259.341,429.067,1251.2,429.07Zm6.066,5.9c-3.481,0-6.962-.006-10.443,0-.974,0-1.544.491-1.584,1.3-.045.918.623,1.475,1.812,1.476q10.166.006,20.331,0c1.164,0,1.8-.494,1.818-1.379.02-.91-.622-1.4-1.861-1.4Q1262.307,434.969,1257.271,434.972Zm.929-9.033h8.868c.185,0,.369,0,.554,0,.989-.031,1.6-.576,1.581-1.417s-.624-1.355-1.633-1.355q-9.283-.008-18.567,0c-1.163,0-1.8.486-1.818,1.362-.014.9.655,1.411,1.869,1.412Q1253.627,425.942,1258.2,425.939Zm-16.657,17.708c2.217,0,4.434.008,6.651,0,1.148-.006,1.781-.537,1.762-1.432-.019-.862-.621-1.342-1.736-1.346-2.463-.008-4.927,0-7.39,0-2.063,0-4.126-.012-6.189.006-1.06.009-1.63.585-1.558,1.5.064.8.618,1.266,1.624,1.273C1236.985,443.659,1239.264,443.647,1241.542,443.647Zm-4.12-8.675c-.955,0-1.91-.015-2.864,0a1.326,1.326,0,0,0-1.478,1.3,1.348,1.348,0,0,0,1.434,1.46q2.863.053,5.727,0a1.379,1.379,0,1,0-.048-2.756C1239.27,434.955,1238.346,434.973,1237.422,434.972Z" transform="translate(-4.719 -4.716)" fill="#faedb4"/>
      <path id="Trazado_651276" data-name="Trazado 651276" d="M1249.24,544.813c0-1.206-.291-2.391-.209-3.608a5.176,5.176,0,0,1,.518-1.942c.559-1.144,1.609-1.191,2.7-1.1a8.281,8.281,0,0,0-.489,6.745c.125.412.416.887-.11,1.244-.479.326-.811-.086-1.142-.305A4.363,4.363,0,0,1,1249.24,544.813Z" transform="translate(-23.804 -85.089)" fill="#f7e48a"/>
      <path id="Trazado_651277" data-name="Trazado 651277" d="M1275.63,460.755q8.137,0,16.273,0c1.06,0,1.658.446,1.724,1.259a1.4,1.4,0,0,1-1.492,1.509c-.985.03-1.972.008-2.959.008h-29.5c-.247,0-.494.012-.739,0a1.38,1.38,0,0,1-1.436-1.465,1.324,1.324,0,0,1,1.481-1.3c2.435-.014,4.87-.005,7.3-.005Z" transform="translate(-29.145 -36.401)" fill="#030202"/>
      <path id="Trazado_651278" data-name="Trazado 651278" d="M1302.334,476.673q5.036,0,10.073,0c1.239,0,1.881.488,1.861,1.4-.019.885-.655,1.379-1.818,1.379q-10.166.006-20.331,0c-1.188,0-1.857-.558-1.812-1.476.04-.807.61-1.3,1.584-1.3C1295.373,476.667,1298.853,476.673,1302.334,476.673Z" transform="translate(-49.783 -46.417)" fill="#050503"/>
      <path id="Trazado_651279" data-name="Trazado 651279" d="M1306.562,447.6q-4.573,0-9.145,0c-1.214,0-1.883-.511-1.869-1.412.013-.876.654-1.362,1.818-1.362q9.283,0,18.567,0c1.009,0,1.618.523,1.633,1.355s-.593,1.386-1.581,1.417c-.185.006-.369,0-.554,0Z" transform="translate(-53.081 -26.38)" fill="#010101"/>
      <path id="Trazado_651280" data-name="Trazado 651280" d="M1265.964,495.34c-2.279,0-4.558.012-6.836-.006-1.006-.007-1.56-.471-1.624-1.273-.072-.914.5-1.49,1.558-1.5,2.063-.018,4.126-.006,6.189-.006,2.463,0,4.927-.006,7.39,0,1.114,0,1.717.484,1.736,1.346.019.9-.614,1.426-1.762,1.432C1270.4,495.348,1268.181,495.34,1265.964,495.34Z" transform="translate(-29.141 -56.409)" fill="#070605"/>
      <path id="Trazado_651281" data-name="Trazado 651281" d="M1261.846,476.667c.924,0,1.848-.017,2.771.006a1.379,1.379,0,1,1,.048,2.756q-2.863.061-5.728,0a1.348,1.348,0,0,1-1.434-1.46,1.325,1.325,0,0,1,1.478-1.3C1259.937,476.651,1260.892,476.666,1261.846,476.667Z" transform="translate(-29.143 -46.41)" fill="#050504"/>
    </g>
  </g>
</svg>
