<svg id="Grupo_992175" data-name="Grupo 992175" xmlns="http://www.w3.org/2000/svg" width="57.576" height="57.933" viewBox="0 0 57.576 57.933">
  <g id="Grupo_992172" data-name="Grupo 992172" transform="translate(0 0)">
    <path id="Trazado_652166" data-name="Trazado 652166" d="M2162.848-257.7a1.2,1.2,0,0,1,.54-1.688,28.661,28.661,0,0,1,44.436,17.144,28.623,28.623,0,0,1-21.987,34.4,28.186,28.186,0,0,1-18.892-2.448,1.313,1.313,0,0,0-1.011-.093q-6.556,1.789-13.116,3.559a1.966,1.966,0,0,1-.941.133,1.143,1.143,0,0,1-.834-1.525c1.078-3.875,2.113-7.763,3.272-11.614a4.743,4.743,0,0,0-.274-3.649c-4.556-10.011-3.78-19.653,2.291-28.845.537-.813,1-.912,1.859-.465.525.747.485,1-.111,1.927-5.839,9.057-6.227,18.367-1.251,27.906a2.213,2.213,0,0,1,.206,1.767c-1.071,3.74-2.107,7.489-3.156,11.235-.039.142-.166.314-.066.422.123.133.308.006.463-.036,3.846-1.036,7.7-2.061,11.536-3.122a2.222,2.222,0,0,1,1.771.185,25.642,25.642,0,0,0,10.675,2.981,25.027,25.027,0,0,0,13.783-2.961c8.976-4.961,13.762-12.618,14.214-22.881a23.491,23.491,0,0,0-2.482-11.7c-4.821-9.59-12.63-14.757-23.37-15.226a25.139,25.139,0,0,0-15.666,4.714A1.221,1.221,0,0,1,2162.848-257.7Z" transform="translate(-2150.985 264.597)" fill="#030303"/>
    <path id="Trazado_652167" data-name="Trazado 652167" d="M2171-249.893a1.221,1.221,0,0,0,1.889.124,25.138,25.138,0,0,1,15.666-4.714c10.74.469,18.549,5.637,23.37,15.226a23.493,23.493,0,0,1,2.482,11.7c-.451,10.263-5.238,17.92-14.214,22.881a25.027,25.027,0,0,1-13.784,2.961,25.641,25.641,0,0,1-10.674-2.981,2.222,2.222,0,0,0-1.771-.185c-3.84,1.061-7.69,2.085-11.536,3.122-.155.042-.34.169-.463.036-.1-.107.027-.28.066-.422,1.048-3.746,2.085-7.5,3.156-11.235a2.212,2.212,0,0,0-.206-1.767c-4.975-9.539-4.588-18.849,1.251-27.906.6-.924.636-1.18.111-1.927.148-.643.764-.949,1.072-1.479.074-.128.192-.228.195-.391.641.484,1.217.52,1.668.1.467-.432.479-.982.035-1.665A12.035,12.035,0,0,0,2171-249.893Zm30.721,40.307,1.747-1.407c.663.414,1.216.4,1.634-.035a1.15,1.15,0,0,0,.018-1.54c.032-.224.217-.346.342-.507a7.576,7.576,0,0,0,.979-1.3c.96.294,1.331.207,1.762-.46a23.852,23.852,0,0,0,3.7-16.82,22.9,22.9,0,0,0-5.779-12.4,23.594,23.594,0,0,0-21.707-7.918,22.832,22.832,0,0,0-14.092,7.438,23.656,23.656,0,0,0-6.138,20.449,23.5,23.5,0,0,0,3.41,8.949,1.181,1.181,0,0,1,.134,1.054c-.684,2.365-1.342,4.738-2,7.11-.323,1.159.371,1.869,1.527,1.561,2.252-.6,4.513-1.173,6.746-1.838a2.761,2.761,0,0,1,2.262.256q12.634,6.582,24.847-.8A1.211,1.211,0,0,0,2201.724-209.586Z" transform="translate(-2159.141 256.794)" fill="#fbfbfb"/>
    <path id="Trazado_652168" data-name="Trazado 652168" d="M2189.344-228.616c.444.683.432,1.233-.035,1.665-.451.417-1.027.382-1.668-.1-.328-.718-.28-1.183.164-1.574S2188.694-229,2189.344-228.616Z" transform="translate(-2179.169 236.997)" fill="#070707"/>
    <path id="Trazado_652169" data-name="Trazado 652169" d="M2219.063-195.645l-1.747,1.407c-.69-.6-1.039-.615-1.862-.1a21.722,21.722,0,0,1-16.237,3.04,22.986,22.986,0,0,1-7.365-2.918,1.9,1.9,0,0,0-1.61-.193c-1.862.534-3.739,1.017-5.612,1.514-.171.046-.382.214-.521.034-.113-.147.012-.357.062-.536.428-1.521.789-3.065,1.3-4.557a2.947,2.947,0,0,0-.412-3.108,3.848,3.848,0,0,1-.317-.534,21.465,21.465,0,0,1-2.874-13.847,21.111,21.111,0,0,1,7.528-13.931,21.178,21.178,0,0,1,18.847-4.755,21.8,21.8,0,0,1,17.226,20.375,21.239,21.239,0,0,1-3.424,12.775,1.49,1.49,0,0,0-.015,1.949,7.589,7.589,0,0,1-.979,1.3c-.125.161-.31.283-.341.507a1.259,1.259,0,0,0-.625-.339,1.124,1.124,0,0,0-1.133.46A1.167,1.167,0,0,0,2219.063-195.645Zm-7.939-2.667a9.988,9.988,0,0,0,2.355-.241,6.278,6.278,0,0,0,5.216-6.766,2.656,2.656,0,0,0-1.594-2.467c-1.53-.728-3.04-1.5-4.564-2.236a2.766,2.766,0,0,0-3.795.866c-.445.561-.9,1.115-1.3,1.71a.746.746,0,0,1-1.056.286,15.547,15.547,0,0,1-2.853-1.6,18.922,18.922,0,0,1-5.3-5.341.533.533,0,0,1,.076-.812c.39-.381.712-.828,1.087-1.226a2.971,2.971,0,0,0,.539-3.454c-.74-1.751-1.51-3.489-2.266-5.233a2.4,2.4,0,0,0-1.719-1.424,5.789,5.789,0,0,0-2.525-.048,5.313,5.313,0,0,0-3.617,2.759,9.477,9.477,0,0,0-.2,9.361,29.336,29.336,0,0,0,14.2,13.928A17.622,17.622,0,0,0,2211.124-198.312Z" transform="translate(-2174.733 241.445)" fill="#57ac4e"/>
    <path id="Trazado_652170" data-name="Trazado 652170" d="M2214.4-206.625a1.49,1.49,0,0,1,.015-1.95,21.24,21.24,0,0,0,3.424-12.775,21.8,21.8,0,0,0-17.227-20.375,21.177,21.177,0,0,0-18.847,4.755,21.112,21.112,0,0,0-7.528,13.931,21.465,21.465,0,0,0,2.874,13.847,3.873,3.873,0,0,0,.317.534,2.947,2.947,0,0,1,.412,3.108c-.514,1.491-.875,3.036-1.3,4.557-.05.179-.175.389-.062.536.139.18.349.012.521-.034,1.873-.5,3.75-.98,5.612-1.514a1.9,1.9,0,0,1,1.61.193,22.983,22.983,0,0,0,7.365,2.918,21.723,21.723,0,0,0,16.237-3.04c.823-.518,1.172-.505,1.862.1a1.211,1.211,0,0,1-.613,1.791q-12.2,7.389-24.846.8a2.761,2.761,0,0,0-2.262-.256c-2.233.666-4.494,1.237-6.746,1.838-1.156.309-1.85-.4-1.528-1.561.66-2.372,1.319-4.745,2-7.11a1.181,1.181,0,0,0-.134-1.054,23.5,23.5,0,0,1-3.41-8.949,23.659,23.659,0,0,1,6.138-20.449,22.832,22.832,0,0,1,14.092-7.438,23.593,23.593,0,0,1,21.706,7.918,22.9,22.9,0,0,1,5.779,12.4,23.851,23.851,0,0,1-3.7,16.82C2215.727-206.418,2215.355-206.331,2214.4-206.625Z" transform="translate(-2167.093 249.044)" fill="#020302"/>
    <path id="Trazado_652171" data-name="Trazado 652171" d="M2345.511-69.068a1.167,1.167,0,0,1-.1-1.454,1.123,1.123,0,0,1,1.133-.46,1.256,1.256,0,0,1,.625.339,1.15,1.15,0,0,1-.018,1.54C2346.727-68.667,2346.174-68.655,2345.511-69.068Z" transform="translate(-2301.181 114.869)" fill="#040503"/>
    <path id="Trazado_652172" data-name="Trazado 652172" d="M2234.27-170.169a17.622,17.622,0,0,1-7.308-1.936,29.335,29.335,0,0,1-14.2-13.928,9.477,9.477,0,0,1,.2-9.361,5.314,5.314,0,0,1,3.616-2.759,5.789,5.789,0,0,1,2.525.048,2.4,2.4,0,0,1,1.719,1.424c.756,1.744,1.525,3.483,2.266,5.233a2.971,2.971,0,0,1-.539,3.454c-.375.4-.7.846-1.087,1.226a.533.533,0,0,0-.076.812,18.922,18.922,0,0,0,5.3,5.341,15.548,15.548,0,0,0,2.853,1.6.746.746,0,0,0,1.056-.286c.395-.6.853-1.149,1.3-1.71a2.766,2.766,0,0,1,3.795-.866c1.524.74,3.035,1.508,4.564,2.236a2.656,2.656,0,0,1,1.594,2.467,6.278,6.278,0,0,1-5.216,6.766A9.993,9.993,0,0,1,2234.27-170.169Zm-.027-2.259a9.266,9.266,0,0,0,1.632-.135,4.09,4.09,0,0,0,3.706-4.412.609.609,0,0,0-.34-.643q-2.307-1.117-4.6-2.266a.644.644,0,0,0-.923.21c-.513.674-1.049,1.331-1.553,2.013a2.467,2.467,0,0,1-2.853.927,11.918,11.918,0,0,1-3.468-1.722,20.712,20.712,0,0,1-6.523-6.551,2.336,2.336,0,0,1,.293-3.093c.377-.421.722-.875,1.129-1.264a1.033,1.033,0,0,0,.214-1.321c-.714-1.615-1.41-3.238-2.108-4.86-.086-.2-.186-.372-.426-.4a3.116,3.116,0,0,0-2.774.752,5.5,5.5,0,0,0-1.162,1.784,7.677,7.677,0,0,0,.5,6.8,27.387,27.387,0,0,0,13.2,12.572A15.47,15.47,0,0,0,2234.243-172.428Z" transform="translate(-2197.88 213.303)" fill="#020302"/>
    <path id="Trazado_652173" data-name="Trazado 652173" d="M2242.064-164.609a15.472,15.472,0,0,1-6.061-1.605,27.39,27.39,0,0,1-13.2-12.572,7.678,7.678,0,0,1-.5-6.8,5.5,5.5,0,0,1,1.162-1.784,3.117,3.117,0,0,1,2.775-.752c.24.024.34.194.426.4.7,1.622,1.394,3.245,2.108,4.86a1.033,1.033,0,0,1-.214,1.321c-.408.389-.752.843-1.129,1.264a2.336,2.336,0,0,0-.294,3.093,20.712,20.712,0,0,0,6.523,6.551,11.923,11.923,0,0,0,3.468,1.722,2.467,2.467,0,0,0,2.853-.927c.5-.681,1.04-1.339,1.553-2.013a.644.644,0,0,1,.923-.21q2.288,1.154,4.6,2.266a.609.609,0,0,1,.34.643,4.09,4.09,0,0,1-3.706,4.412A9.264,9.264,0,0,1,2242.064-164.609Z" transform="translate(-2205.7 205.483)" fill="#fcfcfc"/>
  </g>
</svg>
