<svg xmlns="http://www.w3.org/2000/svg" width="85" height="85" viewBox="0 0 85 85">
  <g id="Grupo_994034" data-name="Grupo 994034" transform="translate(-180 -2205)">
    <g id="Grupo_993058" data-name="Grupo 993058" transform="translate(0 -3894)">
      <rect id="Rectángulo_34178" data-name="Rectángulo 34178" width="85" height="85" transform="translate(180 6099)" fill="none"/>
    </g>
    <g id="Grupo_994033" data-name="Grupo 994033" transform="translate(-651.015 2228.235)">
      <path id="Trazado_652929" data-name="Trazado 652929" d="M852.929,134.632q0-1.377.006-2.754c.9-.255,1.1-.506,1.1-1.421q.016-5.792.027-11.585a6.687,6.687,0,0,0,2.235,2.519.6.6,0,0,1,.277.522,5.969,5.969,0,0,0,6.009,4.943c1.182-.078,2.374,0,3.561-.019a4.974,4.974,0,0,0,3.334-1.37c.36-.329.71-.668,1.065-1a5.691,5.691,0,0,0,2.047,4.13.734.734,0,0,1,.235.681c0,1.3-.011,2.609,0,3.913a3.324,3.324,0,1,0,6.64-.007c.015-1.258.021-2.516-.006-3.773a1.2,1.2,0,0,1,.453-1.01,5.574,5.574,0,0,0-1.9-9.336,5.927,5.927,0,0,0-4.1.112.79.79,0,0,1,.027-.206,5.777,5.777,0,0,0-.782-6.248.521.521,0,0,1,.149-.866,2.985,2.985,0,0,0,1.03-1,4.783,4.783,0,0,1,.483-.048q8.25,0,16.5,0a4.619,4.619,0,0,1,.483.05,6.07,6.07,0,0,1,1.431,4.568q-.077,12.474,0,24.949a5.238,5.238,0,0,1-1.56,4.217c-.069.007-.139.02-.208.02q-16.953,0-33.906,0a3.431,3.431,0,0,1-3.521-3.544c-.013-1.7,0-3.4-.005-5.1C854.03,135.1,853.77,134.8,852.929,134.632Z" transform="translate(-2.622 -91.642)" fill="#b3f1c6"/>
      <path id="Trazado_652930" data-name="Trazado 652930" d="M889.184,19.212a4.62,4.62,0,0,0-.483-.05q-8.25,0-16.5,0a4.781,4.781,0,0,0-.483.048,12.871,12.871,0,0,1-1.808-.067,2.232,2.232,0,0,0-2.878,1.776c-.165.551-.142.678.369.922a3.073,3.073,0,0,1,1.845,3.038,3,3,0,0,1-2.071,2.948,1.029,1.029,0,0,0-.819,1.215,3.328,3.328,0,0,1-3.567,3.594c-.816.011-1.632,0-2.448,0-2.533,0-3.856-1.3-3.834-3.822,0-.516-.107-.746-.642-.913a3.04,3.04,0,0,1-2.2-2.558,3.26,3.26,0,0,1,1.38-3.3c.316-.241.939-.179.946-.638.006-.375-.322-.755-.5-1.132-.595-1.235-.983-1.364-2.214-.71a2.089,2.089,0,0,0-.862.685,2.85,2.85,0,0,0-.97,2.075q0,2.452,0,4.9-.013,5.792-.027,11.585c0,.915-.2,1.166-1.1,1.421-.764-.176-1.014-.666-1.011-1.431.021-5.059.076-10.119-.015-15.176-.052-2.854.9-4.987,3.625-6.231a12.57,12.57,0,0,1-2.81-4.31,12.031,12.031,0,0,1-.706-5.766c.108-.912.372-1.128,1.307-1.213a1.313,1.313,0,0,1,.77,1.529,9.875,9.875,0,0,0,4.81,9.671,19.565,19.565,0,0,1,1.5,2.9c.676,1.354.662,1.349,2.172,1.285.331-.014.438-.1.434-.435-.022-1.629-.022-3.257-.03-4.886.008-1.795.023-3.589.02-5.384a1.2,1.2,0,0,0-1.092-1.3c-.628-.047-1.111.4-1.253,1.154s-.583,1.146-1.2,1.05-.977-.67-.86-1.439a3.26,3.26,0,0,1,5.1-2.276c.221.143.357.258.657.069,1.895-1.2,3.621-.773,4.887,1.164.089.308.2.611.262.924.223,1.115-.3,1.662-1.434,1.508a1.414,1.414,0,0,1-.63-1.095,1.16,1.16,0,0,0-1.248-1.058,1.187,1.187,0,0,0-1.075,1.242c-.011,1.346.01,2.693.018,4.039q-.012,2.652-.023,5.3c0,1.421,0,1.4,1.4,1.422a.768.768,0,0,0,.843-.522c.381-.872.844-1.708,1.222-2.581a3.315,3.315,0,0,1,1.234-1.448c5.8-4.028,5.667-12.91-.23-16.545-.173-.117-.339-.245-.519-.349a9.969,9.969,0,0,0-13.123,2.833c-.446.618-.911.988-1.689.665-.622-.7-.643-1.012-.108-1.779a11.428,11.428,0,0,1,2.668-2.743,1.494,1.494,0,0,0,.631-.939A19.288,19.288,0,0,1,892.651.213a53.158,53.158,0,0,1,.164,6.845c.006.714-.485,1-1.1,1.145a1.313,1.313,0,0,1-1-1.524c.045-1.327.015-2.656.011-3.984a16.189,16.189,0,0,0-.341-3.33,17.1,17.1,0,0,0-19.954-13.523,16.53,16.53,0,0,0-11.8,8.352,13.369,13.369,0,0,0-1.405,3.152,13.417,13.417,0,0,1,3.784-.737.5.5,0,0,0,.5-.293,20.049,20.049,0,0,1,1.432-2.229c.1-.1.2-.187.3-.29a13.607,13.607,0,0,1,23.861,7.962c.137,2.72.047,5.452.065,8.179.009,1.327.03,2.654.045,3.98-.128.923-.024,1.852-.06,2.777-.013.32.161.388.435.386.9-.006,1.81-.012,2.714,0,.33.006.449-.108.439-.443-.026-.9-.024-1.809-.034-2.713.008-.556.041-1.114.017-1.669a1.154,1.154,0,0,1,1.02-1.336c.858.219,1.082.489,1.085,1.354.005,1.446.012,2.891-.006,4.336,0,.358.073.49.464.578a5.5,5.5,0,0,1,4.457,5.565q.015,13.324,0,26.648a5.519,5.519,0,0,1-5.659,5.659q-18.564.016-37.129,0a5.532,5.532,0,0,1-5.629-5.621c-.016-1.725.009-3.45-.009-5.175a1.112,1.112,0,0,1,1-1.278c.841.168,1.1.468,1.1,1.325.007,1.7-.008,3.4.005,5.1a3.431,3.431,0,0,0,3.521,3.544q16.953.013,33.906,0a2.087,2.087,0,0,0,.208-.02c.908.007,1.816.021,2.723.021a3.487,3.487,0,0,0,3.862-3.836q0-9.015,0-18.031c0-2.819.012-5.638-.006-8.457a3.37,3.37,0,0,0-3.106-3.432A17.635,17.635,0,0,0,889.184,19.212Zm-25.17,6.748c.649.009,1.3.041,1.947.02a1.193,1.193,0,0,0,0-2.387c-.648-.022-1.3.01-1.947.018-2.369-.008-4.738-.028-7.106-.016a1.192,1.192,0,0,0,0,2.383C859.277,25.989,861.646,25.968,864.014,25.959Zm6.325-8.9h2.208q5.941,0,11.883,0c.3,0,.647.12.643-.438-.029-4.871.122-9.749-.091-14.61a10.729,10.729,0,0,0-6.965-9.87c-4.287-1.829-8.335-1.1-11.964,1.817a9.352,9.352,0,0,0-2.368,2.815A12.258,12.258,0,0,1,870.339,17.058ZM861.5,28.08c-.79,0-1.58,0-2.37,0-.2,0-.416-.03-.526.23a1.637,1.637,0,0,0,1.383,2.239c.812.04,1.627.011,2.44.01,1.5,0,1.943-.5,1.866-2-.018-.361-.132-.491-.492-.483C863.033,28.093,862.266,28.08,861.5,28.08Z" transform="translate(0)" fill="#030303"/>
      <path id="Trazado_652931" data-name="Trazado 652931" d="M855.258,42.668c.779.324,1.243-.047,1.689-.665a9.969,9.969,0,0,1,13.123-2.833c.18.1.346.232.519.349a1.774,1.774,0,0,0,.167.811,10.786,10.786,0,0,1,.493,3.55,11.215,11.215,0,0,1-.576,3.678c-.094.277-.115.6-.422.77-1.266-1.937-2.992-2.362-4.887-1.164-.3.19-.436.075-.657-.069a3.26,3.26,0,0,0-5.1,2.276c-.116.769.226,1.341.86,1.439s1.06-.287,1.2-1.05.625-1.2,1.253-1.154a1.2,1.2,0,0,1,1.092,1.3c0,1.795-.012,3.59-.02,5.385a20.746,20.746,0,0,1-4.074,1.137,9.875,9.875,0,0,1-4.81-9.671,1.313,1.313,0,0,0-.77-1.529A10.466,10.466,0,0,1,855.258,42.668Z" transform="translate(-3.64 -39.121)" fill="#f6ce74"/>
      <path id="Trazado_652932" data-name="Trazado 652932" d="M915.713,16.324a1.154,1.154,0,0,0-1.02,1.336c.024.555-.009,1.113-.017,1.669l-3.494-.011c-.016-1.327-.036-2.654-.045-3.98-.018-2.726.072-5.458-.065-8.179A13.607,13.607,0,0,0,887.212-.8c-.092.1-.2.193-.3.29-.523-.031-1.048-.1-1.569-.084-.914.034-1.827.124-2.741.19a16.53,16.53,0,0,1,11.8-8.352A17.1,17.1,0,0,1,914.357,4.765a16.189,16.189,0,0,1,.341,3.33c0,1.328.034,2.657-.011,3.984a1.313,1.313,0,0,0,1,1.524Q915.7,14.963,915.713,16.324Z" transform="translate(-23.978 -5.4)" fill="#aaa"/>
      <path id="Trazado_652933" data-name="Trazado 652933" d="M991.261,110.783a17.636,17.636,0,0,1,3.343,0,3.37,3.37,0,0,1,3.106,3.432c.019,2.819.006,5.638.006,8.457q0,9.016,0,18.031a3.487,3.487,0,0,1-3.862,3.836c-.908,0-1.816-.014-2.723-.021a5.237,5.237,0,0,0,1.56-4.217q-.069-12.474,0-24.949A6.07,6.07,0,0,0,991.261,110.783Z" transform="translate(-102.077 -91.572)" fill="#a0edae"/>
      <path id="Trazado_652934" data-name="Trazado 652934" d="M857.942,111.683A2.089,2.089,0,0,1,858.8,111c1.231-.654,1.619-.524,2.214.71.182.377.509.758.5,1.132-.007.459-.63.4-.946.638a3.26,3.26,0,0,0-1.38,3.3,3.04,3.04,0,0,0,2.2,2.558c.535.167.647.4.642.913-.022,2.518,1.3,3.818,3.834,3.822.816,0,1.632.01,2.448,0a3.328,3.328,0,0,0,3.567-3.594,1.029,1.029,0,0,1,.819-1.215,3,3,0,0,0,2.071-2.948,3.073,3.073,0,0,0-1.845-3.038c-.511-.244-.533-.371-.369-.922a2.232,2.232,0,0,1,2.878-1.776,12.871,12.871,0,0,0,1.808.067,2.985,2.985,0,0,1-1.03,1,.521.521,0,0,0-.149.866,5.776,5.776,0,0,1,.782,6.248.8.8,0,0,0-.027.206,5.817,5.817,0,0,0-3.373,5.29c-.354.335-.7.674-1.065,1a4.974,4.974,0,0,1-3.334,1.37c-1.187.024-2.379-.059-3.561.019a5.969,5.969,0,0,1-6.009-4.943.6.6,0,0,0-.277-.522,6.688,6.688,0,0,1-2.235-2.519q0-2.452,0-4.9c.408-.437.575-1.05,1.062-1.432C858.354,112.074,858.044,111.887,857.942,111.683Z" transform="translate(-5.528 -91.432)" fill="#9ee8ab"/>
      <path id="Trazado_652935" data-name="Trazado 652935" d="M915.756,144.864a5.817,5.817,0,0,1,3.373-5.29,5.927,5.927,0,0,1,4.1-.112,5.574,5.574,0,0,1,1.9,9.336,1.2,1.2,0,0,0-.453,1.01c.027,1.257.022,2.516.006,3.773a3.324,3.324,0,1,1-6.64.007c-.014-1.3,0-2.609,0-3.913a.734.734,0,0,0-.235-.681A5.691,5.691,0,0,1,915.756,144.864Zm4.378,6.227h0c0,.862-.025,1.725.007,2.585a1.2,1.2,0,0,0,1.34,1.272,1.234,1.234,0,0,0,1.1-1.377c.017-1.421.041-2.843-.008-4.263a1.963,1.963,0,0,1,.894-1.877,3.341,3.341,0,0,0,1-4.249,3.418,3.418,0,0,0-3.983-1.811,3.282,3.282,0,0,0-2.516,2.7,3.216,3.216,0,0,0,1.365,3.422,1.692,1.692,0,0,1,.81,1.638C920.1,149.784,920.134,150.438,920.134,151.091Z" transform="translate(-47.835 -112.041)" fill="#030403"/>
      <path id="Trazado_652936" data-name="Trazado 652936" d="M900.482,52.693c.307-.165.328-.492.422-.77a11.215,11.215,0,0,0,.576-3.678,10.786,10.786,0,0,0-.493-3.55,1.774,1.774,0,0,1-.167-.811c5.9,3.635,6.029,12.517.23,16.545a3.314,3.314,0,0,0-1.234,1.448c-.378.873-.841,1.709-1.222,2.581a.768.768,0,0,1-.843.522c-1.4-.019-1.4,0-1.4-1.422q.007-2.652.023-5.3a10.644,10.644,0,0,0,2.935-3.129c1.13.154,1.657-.394,1.434-1.508C900.681,53.3,900.57,53,900.482,52.693Z" transform="translate(-33.871 -43.486)" fill="#f4c164"/>
      <path id="Trazado_652937" data-name="Trazado 652937" d="M880.536,128.977c-2.368.009-4.737.029-7.106.019a1.192,1.192,0,0,1,0-2.383c2.369-.012,4.737.008,7.106.016A2.9,2.9,0,0,1,880.536,128.977Z" transform="translate(-16.522 -103.017)" fill="#ababab"/>
      <path id="Trazado_652938" data-name="Trazado 652938" d="M874.246,101.282a20.747,20.747,0,0,0,4.074-1.137c.008,1.629.008,3.257.03,4.886,0,.335-.1.421-.434.435-1.51.064-1.5.069-2.172-1.285A19.565,19.565,0,0,0,874.246,101.282Z" transform="translate(-17.962 -83.973)" fill="#f4c164"/>
      <path id="Trazado_652939" data-name="Trazado 652939" d="M885.106,142.6c.767,0,1.534.013,2.3-.006.36-.009.474.122.492.483.077,1.506-.37,2-1.866,2-.813,0-1.628.03-2.44-.01a1.637,1.637,0,0,1-1.383-2.239c.11-.259.323-.228.526-.23C883.525,142.6,884.315,142.6,885.106,142.6Z" transform="translate(-23.607 -114.525)" fill="#565656"/>
      <path id="Trazado_652940" data-name="Trazado 652940" d="M984.37,92.1l3.494.011c.009.9.008,1.809.034,2.713.01.334-.109.448-.439.443-.9-.015-1.81-.009-2.714,0-.273,0-.447-.066-.435-.386C984.345,93.956,984.241,93.027,984.37,92.1Z" transform="translate(-97.164 -78.186)" fill="#8f8f8f"/>
      <path id="Trazado_652941" data-name="Trazado 652941" d="M879,21.254c.913-.066,1.826-.156,2.741-.19.521-.019,1.046.053,1.569.084a20.049,20.049,0,0,0-1.432,2.229.5.5,0,0,1-.5.293,13.417,13.417,0,0,0-3.784.737A13.369,13.369,0,0,1,879,21.254Z" transform="translate(-20.371 -27.06)" fill="#999"/>
      <path id="Trazado_652942" data-name="Trazado 652942" d="M899.317,78.44a10.645,10.645,0,0,1-2.935,3.129c-.008-1.346-.029-2.693-.018-4.039a1.187,1.187,0,0,1,1.075-1.242,1.16,1.16,0,0,1,1.248,1.058A1.414,1.414,0,0,0,899.317,78.44Z" transform="translate(-33.877 -66.801)" fill="#f4cd73"/>
      <path id="Trazado_652943" data-name="Trazado 652943" d="M901.816,128.962a2.9,2.9,0,0,0,0-2.349c.649-.008,1.3-.04,1.947-.018a1.193,1.193,0,0,1,0,2.387C903.115,129,902.465,128.971,901.816,128.962Z" transform="translate(-37.801 -103.003)" fill="#999"/>
      <path id="Trazado_652944" data-name="Trazado 652944" d="M857.954,114.694c.1.2.412.391.093.642-.488.382-.654,1-1.062,1.432A2.85,2.85,0,0,1,857.954,114.694Z" transform="translate(-5.54 -94.443)" fill="#a0edae"/>
      <path id="Trazado_652945" data-name="Trazado 652945" d="M925.622,156.483c0-.652-.033-1.307.009-1.956a1.692,1.692,0,0,0-.81-1.638,3.216,3.216,0,0,1-1.365-3.422,3.282,3.282,0,0,1,2.516-2.7,3.418,3.418,0,0,1,3.983,1.811,3.341,3.341,0,0,1-1,4.249,1.963,1.963,0,0,0-.894,1.877c.049,1.419.025,2.842.008,4.263a1.234,1.234,0,0,1-1.1,1.377,1.2,1.2,0,0,1-1.34-1.272c-.032-.861-.007-1.724-.007-2.585Z" transform="translate(-53.323 -117.433)" fill="#74a97e"/>
    </g>
  </g>
</svg>
