<svg xmlns="http://www.w3.org/2000/svg" xmlns:xlink="http://www.w3.org/1999/xlink" width="112" height="112" viewBox="0 0 112 112">
  <defs>
    <clipPath id="clip-path">
      <rect id="Rectángulo_309075" data-name="Rectángulo 309075" width="112" height="112" fill="none"/>
    </clipPath>
  </defs>
  <g id="Enmascarar_grupo_878507" data-name="Enmascarar grupo 878507" clip-path="url(#clip-path)">
    <circle id="Elipse_8057" data-name="Elipse 8057" cx="48.5" cy="48.5" r="48.5" transform="translate(8 7)" fill="#faebcd"/>
    <g id="Grupo_991142" data-name="Grupo 991142" transform="translate(12.18 19.009)">
      <path id="Trazado_650024" data-name="Trazado 650024" d="M228.305-372.373H186.458c-1.437,0-1.821-.377-1.821-1.791q0-33.742,0-67.483a4.107,4.107,0,0,1,4.376-4.362h78.581a4.112,4.112,0,0,1,4.338,4.318q0,33.784,0,67.569c0,1.349-.408,1.75-1.78,1.75Zm-.02-2.727q19.99,0,39.979.018c.772,0,.96-.188.959-.959q-.034-30.424,0-60.847c0-.774-.191-.958-.96-.958q-39.979.032-79.958,0c-.773,0-.959.189-.958.959q.034,30.424,0,60.848c0,.773.189.959.96.958Q208.3-375.12,228.285-375.1Zm-29.456-65.455h1.07q34.054,0,68.108-.027c.373,0,1.093.5,1.192-.4.145-1.329-.236-2.086-1.115-2.262a3.954,3.954,0,0,0-.764-.032h-68.5C199.938-442.27,199.941-441.574,198.829-440.555Zm-8.178-2.7c1.119.923,1.123,1.742,0,2.675.209.01.368.024.527.024.815,0,1.63,0,2.506,0-1.091-1-1.09-1.705-.046-2.7Zm7.2,2.664a1.571,1.571,0,0,1-.906-1.354,1.718,1.718,0,0,1,.837-1.3H194.6a1.442,1.442,0,0,1,.963,1.336,1.538,1.538,0,0,1-.871,1.32Zm-8.248-2.656c-.143-.021-.2-.036-.255-.037-1.634-.031-2.309.8-2,2.424.053.272.17.308.39.306.6-.006,1.2,0,1.923,0C188.5-441.523,188.5-442.314,189.6-443.245Z" transform="translate(-184.637 446.01)"/>
      <path id="Trazado_650025" data-name="Trazado 650025" d="M233.508-359.363q-19.99,0-39.979.018c-.771,0-.96-.185-.96-.958q.035-30.424,0-60.848c0-.771.185-.96.958-.959q39.979.033,79.958,0c.77,0,.961.183.96.958q-.035,30.424,0,60.847c0,.772-.187.961-.959.959Q253.5-359.384,233.508-359.363Zm-16.327-6.817,1.334-.18a1.424,1.424,0,0,0,1.642,1.017,1.271,1.271,0,0,0,1.075-1.156c.033-.223.036-.45.053-.675l1.516-.426a1.417,1.417,0,0,0,1.74.489,1.405,1.405,0,0,0,.8-1.546,5.383,5.383,0,0,1,.026-.593l1.675-1.4c1.4.822,2.375.273,2.388-1.343,0-.508.017-1.016.027-1.524l1.306-2.208c.287,1.041.812,1.482,1.62,1.361.761-.113,1.135-.673,1.137-1.72q.009-4.556.01-9.113a16.155,16.155,0,0,0-.274-3.132,17.709,17.709,0,0,0-20.758-14.33,17.742,17.742,0,0,0-14.3,15.427c-.344,3.823-.08,7.66-.131,11.49a1.308,1.308,0,0,0,1.228,1.384c.809.073,1.3-.373,1.51-1.371a23.2,23.2,0,0,0,1.306,2.057c.012.532.028,1.065.034,1.6.017,1.537.939,2.1,2.323,1.41l1.741,1.407a4.624,4.624,0,0,1,.026.5,1.486,1.486,0,0,0,.869,1.665,1.458,1.458,0,0,0,1.81-.682,2.414,2.414,0,0,0,1.378.588c.035.823.148,1.626,1.131,1.833a1.378,1.378,0,0,0,1.639-1l1.332.166c.142.812.529,1.4,1.439,1.374C216.694-364.835,217.08-365.383,217.181-366.18ZM233.5-408.441q16.871,0,33.743,0c1.3,0,1.741-.44,1.745-1.728q.007-2.385,0-4.77c-.005-1.211-.483-1.678-1.719-1.682-2.272-.006-4.544,0-6.817,0h-60.5c-1.447,0-1.887.438-1.889,1.871s0,2.839,0,4.259c0,1.689.359,2.051,2.035,2.051Zm19.8,12.281h5.876c2.782,0,5.563.008,8.345-.006a1.325,1.325,0,0,0,1.46-1.318,1.37,1.37,0,0,0-1.4-1.4c-.2-.015-.4-.005-.6-.005q-13.667,0-27.334,0a4.274,4.274,0,0,0-.932.049,1.341,1.341,0,0,0-.947,1.912,1.5,1.5,0,0,0,1.566.772Q246.316-396.17,253.3-396.16Zm.008,5.455h6.557c2.555,0,5.109.009,7.664-.006a1.321,1.321,0,0,0,1.451-1.326,1.37,1.37,0,0,0-1.41-1.393c-.2-.015-.4,0-.6,0H239.639a4.678,4.678,0,0,0-.849.032,1.35,1.35,0,0,0-1.019,1.937,1.5,1.5,0,0,0,1.571.764Q246.324-390.716,253.307-390.705Zm-.017,5.454H258.4c3.037,0,6.075.007,9.112-.006a1.328,1.328,0,0,0,1.469-1.31,1.37,1.37,0,0,0-1.392-1.409c-.169-.013-.341,0-.511,0q-13.752,0-27.505,0a4,4,0,0,0-.847.045,1.347,1.347,0,0,0-1.049,1.669c.246.818.858,1.024,1.649,1.021C243.979-385.258,248.635-385.251,253.29-385.251Zm-.033,5.454q7.111,0,14.221,0a1.336,1.336,0,0,0,1.5-1.363,1.373,1.373,0,0,0-1.443-1.358c-.17-.011-.341,0-.511,0q-13.71,0-27.42,0a3.767,3.767,0,0,0-.929.06,1.351,1.351,0,0,0-.7,2.221,1.685,1.685,0,0,0,1.4.448Q246.316-379.8,253.257-379.8Zm.033,5.455h5.28c2.952,0,5.9.005,8.856,0,.965,0,1.534-.5,1.554-1.312.021-.841-.573-1.379-1.562-1.413-.113,0-.227,0-.341,0q-13.752,0-27.505,0a3.949,3.949,0,0,0-.847.044,1.343,1.343,0,0,0-.991,1.828,1.464,1.464,0,0,0,1.591.861Q246.307-374.352,253.289-374.342Zm-7.478,5.454c2.187,0,4.374.006,6.562,0,1.005,0,1.6-.528,1.594-1.364s-.614-1.357-1.62-1.359q-6.562-.012-13.124,0a1.424,1.424,0,0,0-1.6,1.386c.01.82.621,1.333,1.63,1.337C241.436-368.882,243.624-368.887,245.811-368.887Z" transform="translate(-189.86 430.273)" fill="#e4e7ea"/>
      <path id="Trazado_650026" data-name="Trazado 650026" d="M226.178-435.3c1.111-1.019,1.108-1.715-.005-2.727h68.5a3.952,3.952,0,0,1,.764.032c.879.176,1.259.933,1.114,2.262-.1.9-.818.4-1.192.4q-34.054.045-68.108.027Z" transform="translate(-211.986 440.756)" fill="#ccd0d7"/>
      <path id="Trazado_650027" data-name="Trazado 650027" d="M202.242-437.938h2.985c-1.044.995-1.045,1.7.046,2.7-.876,0-1.691,0-2.506,0-.159,0-.318-.014-.527-.024C203.364-436.2,203.361-437.015,202.242-437.938Z" transform="translate(-196.227 440.695)" fill="#c6cad1"/>
      <path id="Trazado_650028" data-name="Trazado 650028" d="M217.063-435.259h-3.157a1.538,1.538,0,0,0,.871-1.32,1.442,1.442,0,0,0-.963-1.336h3.18a1.718,1.718,0,0,0-.837,1.3A1.571,1.571,0,0,0,217.063-435.259Z" transform="translate(-203.848 440.68)" fill="#c6cad1"/>
      <path id="Trazado_650029" data-name="Trazado 650029" d="M194.7-437.987c-1.107.931-1.108,1.722.064,2.692-.724,0-1.324,0-1.923,0-.22,0-.338-.034-.39-.306-.314-1.62.361-2.456,2-2.424C194.5-438.023,194.552-438.008,194.7-437.987Z" transform="translate(-189.729 440.752)" fill="#c6cad1"/>
      <path id="Trazado_650030" data-name="Trazado 650030" d="M244.073-397.869h-33.4c-1.676,0-2.034-.362-2.035-2.051q0-2.13,0-4.259c0-1.434.443-1.871,1.889-1.871h60.5c2.272,0,4.544,0,6.817,0,1.236,0,1.713.471,1.719,1.682q.011,2.385,0,4.77c0,1.288-.446,1.728-1.745,1.728Q260.945-397.867,244.073-397.869Zm-2.72-2.728h28.29c1.735,0,1.678,0,1.759-1.764.04-.869-.256-.983-1.035-.982q-28.588.035-57.176.018c-1.83,0-1.8,0-1.845,1.856-.019.694.139.891.866.89Q226.782-400.619,241.353-400.6Zm34.041,0c1.441,0,1.441,0,1.441-1.475a4.5,4.5,0,0,1,0-.6c.07-.514-.113-.743-.652-.664a4.754,4.754,0,0,1-.68.005c-1.4,0-1.4,0-1.4,1.439C274.1-400.6,274.1-400.6,275.394-400.6Z" transform="translate(-200.438 419.701)" fill="#020202"/>
      <path id="Trazado_650031" data-name="Trazado 650031" d="M211.322-338.771c-.211,1-.7,1.445-1.51,1.372a1.308,1.308,0,0,1-1.228-1.384c.05-3.83-.213-7.667.13-11.49a17.742,17.742,0,0,1,14.3-15.427,17.709,17.709,0,0,1,20.758,14.33,16.157,16.157,0,0,1,.274,3.133q0,4.556-.01,9.113c0,1.048-.377,1.607-1.137,1.721-.808.121-1.333-.32-1.62-1.361q.015-4.387.03-8.774a17.178,17.178,0,0,0-.274-3.644,14.967,14.967,0,0,0-16.458-11.985,14.913,14.913,0,0,0-13.126,13.075C211.08-346.33,211.341-342.545,211.322-338.771Z" transform="translate(-200.371 393.316)" fill="#030303"/>
      <path id="Trazado_650032" data-name="Trazado 650032" d="M222.878-325.895c-1.385.687-2.306.127-2.324-1.41-.006-.533-.023-1.065-.034-1.6.009-3.775.049-7.55.018-11.324a13.746,13.746,0,0,1,13.615-13.891,13.679,13.679,0,0,1,13.686,13.79c0,3.86.014,7.72.022,11.581-.009.508-.022,1.016-.027,1.524-.014,1.616-.988,2.165-2.388,1.343a2.749,2.749,0,0,1-.347-1.463q.019-5.964.005-11.929a22.159,22.159,0,0,0-.052-2.383,10.966,10.966,0,0,0-11.326-9.728A10.939,10.939,0,0,0,223.3-340.534c-.03,4.4-.018,8.8-.01,13.207A2.2,2.2,0,0,1,222.878-325.895Z" transform="translate(-208.264 385.505)" fill="#020203"/>
      <path id="Trazado_650033" data-name="Trazado 650033" d="M235.222-315.109a1.458,1.458,0,0,1-1.81.681,1.486,1.486,0,0,1-.869-1.665,4.6,4.6,0,0,0-.026-.5c.01-5.136.026-10.272.021-15.408a15.1,15.1,0,0,1,.168-2.2,9.58,9.58,0,0,1,10.42-7.851,9.53,9.53,0,0,1,8.519,9.805c-.007,5.221.017,10.442.027,15.663a5.4,5.4,0,0,0-.026.593,1.405,1.405,0,0,1-.8,1.546,1.416,1.416,0,0,1-1.74-.489,3.589,3.589,0,0,1-.194-1.335q.01-7.584,0-15.167a13.028,13.028,0,0,0-.1-2.292,6.808,6.808,0,0,0-7.115-5.661,6.808,6.808,0,0,0-6.4,6.82c-.042,5.084-.015,10.168-.023,15.252C235.27-316.584,235.239-315.846,235.222-315.109Z" transform="translate(-216.164 377.613)" fill="#020203"/>
      <path id="Trazado_650034" data-name="Trazado 650034" d="M247.239-305.807a1.378,1.378,0,0,1-1.639,1c-.983-.207-1.1-1.01-1.131-1.833.013-.169.038-.338.038-.507,0-5.758.005-11.517-.013-17.276a5.56,5.56,0,0,1,5.483-5.738,5.475,5.475,0,0,1,5.444,5.661c0,2.922-.008,5.844,0,8.766.007,3.034.025,6.068.039,9.1-.017.225-.02.452-.053.675a1.271,1.271,0,0,1-1.075,1.155,1.424,1.424,0,0,1-1.642-1.017q0-9.412-.013-18.824a2.671,2.671,0,0,0-1.872-2.649,2.7,2.7,0,0,0-3.554,2.743C247.227-318.3,247.24-312.053,247.239-305.807Z" transform="translate(-224.033 369.729)" fill="#020203"/>
      <path id="Trazado_650035" data-name="Trazado 650035" d="M245.206-331.3c-.008-3.86-.025-7.721-.022-11.581A13.679,13.679,0,0,0,231.5-356.67a13.746,13.746,0,0,0-13.615,13.891c.031,3.775-.01,7.55-.018,11.325a23.194,23.194,0,0,1-1.306-2.057c.019-3.775-.242-7.56.127-11.323a14.913,14.913,0,0,1,13.126-13.075,14.967,14.967,0,0,1,16.458,11.985,17.176,17.176,0,0,1,.274,3.644q-.014,4.387-.03,8.774Z" transform="translate(-205.608 388.058)" fill="#a290df"/>
      <path id="Trazado_650036" data-name="Trazado 650036" d="M248.318-319.23c-.01-5.221-.033-10.442-.027-15.663a9.53,9.53,0,0,0-8.519-9.805,9.58,9.58,0,0,0-10.42,7.85,15.1,15.1,0,0,0-.168,2.2c.006,5.136-.011,10.272-.02,15.408l-1.74-1.407a2.2,2.2,0,0,0,.411-1.432c-.008-4.4-.02-8.8.01-13.207a10.939,10.939,0,0,1,10.429-10.848,10.966,10.966,0,0,1,11.326,9.728,22.171,22.171,0,0,1,.052,2.383q.006,5.965-.005,11.929a2.749,2.749,0,0,0,.347,1.463Z" transform="translate(-212.809 380.255)" fill="#a291df"/>
      <path id="Trazado_650037" data-name="Trazado 650037" d="M340.159-351.4q-6.983,0-13.965.006a1.5,1.5,0,0,1-1.566-.772,1.341,1.341,0,0,1,.947-1.912,4.27,4.27,0,0,1,.932-.049q13.667,0,27.334,0c.2,0,.4-.01.6.005a1.37,1.37,0,0,1,1.4,1.4,1.325,1.325,0,0,1-1.46,1.318c-2.782.014-5.563.006-8.345.006Z" transform="translate(-276.72 385.517)" fill="#030303"/>
      <path id="Trazado_650038" data-name="Trazado 650038" d="M340.166-335.434q-6.983,0-13.965.005a1.5,1.5,0,0,1-1.571-.764,1.35,1.35,0,0,1,1.019-1.937,4.683,4.683,0,0,1,.849-.032q13.667,0,27.335,0c.2,0,.4-.01.6,0a1.37,1.37,0,0,1,1.41,1.393,1.321,1.321,0,0,1-1.451,1.326c-2.555.015-5.109.006-7.664.007Z" transform="translate(-276.718 375.002)" fill="#030303"/>
      <path id="Trazado_650039" data-name="Trazado 650039" d="M340.14-319.464c-4.655,0-9.311-.008-13.966.007-.791,0-1.4-.2-1.649-1.021a1.347,1.347,0,0,1,1.049-1.669,3.994,3.994,0,0,1,.847-.045q13.752,0,27.505,0c.17,0,.342-.009.511,0a1.37,1.37,0,0,1,1.392,1.409,1.328,1.328,0,0,1-1.469,1.31c-3.037.013-6.075.005-9.112.006Z" transform="translate(-276.71 364.486)" fill="#030303"/>
      <path id="Trazado_650040" data-name="Trazado 650040" d="M340.109-303.493q-6.94,0-13.88,0a1.685,1.685,0,0,1-1.4-.448,1.351,1.351,0,0,1,.7-2.221,3.77,3.77,0,0,1,.929-.06q13.71,0,27.42,0c.17,0,.341-.007.511,0a1.373,1.373,0,0,1,1.443,1.358,1.336,1.336,0,0,1-1.5,1.363Q347.22-303.485,340.109-303.493Z" transform="translate(-276.712 353.97)" fill="#030303"/>
      <path id="Trazado_650041" data-name="Trazado 650041" d="M340.157-287.521q-6.983,0-13.966.005a1.464,1.464,0,0,1-1.591-.861,1.343,1.343,0,0,1,.991-1.828,3.951,3.951,0,0,1,.847-.044q13.753,0,27.505,0c.114,0,.228,0,.341,0,.988.033,1.583.571,1.562,1.413-.02.81-.59,1.309-1.554,1.312-2.952.009-5.9,0-8.856,0Z" transform="translate(-276.727 343.453)" fill="#030303"/>
      <path id="Trazado_650042" data-name="Trazado 650042" d="M252.8-309.269c-.014-3.034-.032-6.068-.039-9.1-.006-2.922,0-5.844,0-8.766a5.475,5.475,0,0,0-5.444-5.661,5.56,5.56,0,0,0-5.483,5.738c.018,5.758.011,11.517.013,17.276,0,.169-.025.338-.038.507a2.415,2.415,0,0,1-1.378-.588c.017-.737.049-1.475.05-2.213.008-5.084-.019-10.168.023-15.252a6.808,6.808,0,0,1,6.4-6.82,6.808,6.808,0,0,1,7.115,5.661,13.028,13.028,0,0,1,.1,2.292q.012,7.584,0,15.168a3.587,3.587,0,0,0,.194,1.334Z" transform="translate(-221.376 372.369)" fill="#a291e0"/>
      <path id="Trazado_650043" data-name="Trazado 650043" d="M252.573-300.546c0-6.246-.012-12.493.011-18.739a2.7,2.7,0,0,1,3.554-2.743,2.671,2.671,0,0,1,1.872,2.649q.016,9.412.013,18.824l-1.335.18c-.009-2.723-.023-5.445-.026-8.168,0-3.574,0-7.149-.005-10.723a1.378,1.378,0,0,0-1.346-1.536,1.426,1.426,0,0,0-1.373,1.531c-.01.255,0,.51,0,.766q-.014,9.062-.029,18.125Z" transform="translate(-229.367 364.468)" fill="#a391e0"/>
      <path id="Trazado_650044" data-name="Trazado 650044" d="M256.48-297.746q.014-9.062.029-18.125c0-.256-.008-.511,0-.766a1.426,1.426,0,0,1,1.373-1.531,1.378,1.378,0,0,1,1.346,1.536c.01,3.574,0,7.149.005,10.723,0,2.723.017,5.445.026,8.168-.1.8-.487,1.345-1.344,1.368C257.009-296.347,256.622-296.934,256.48-297.746Z" transform="translate(-231.941 361.834)" fill="#020203"/>
      <path id="Trazado_650045" data-name="Trazado 650045" d="M332.656-271.555c-2.187,0-4.375.005-6.562,0-1.009,0-1.62-.517-1.63-1.337a1.424,1.424,0,0,1,1.6-1.386q6.562-.014,13.124,0c1.006,0,1.612.532,1.62,1.359s-.589,1.36-1.594,1.364C337.031-271.549,334.843-271.555,332.656-271.555Z" transform="translate(-276.705 332.941)" fill="#030303"/>
      <path id="Trazado_650046" data-name="Trazado 650046" d="M246.577-395.371q-14.571,0-29.141.018c-.726,0-.884-.2-.866-.89.05-1.855.015-1.856,1.845-1.856q28.588,0,57.176-.018c.778,0,1.074.113,1.035.982-.081,1.761-.024,1.763-1.759,1.763Z" transform="translate(-205.662 414.475)" fill="#fcfcfc"/>
      <path id="Trazado_650047" data-name="Trazado 650047" d="M401.6-395.378c-1.29,0-1.29,0-1.29-1.29,0-1.439,0-1.439,1.4-1.439a4.762,4.762,0,0,0,.68-.005c.539-.08.721.15.652.664a4.5,4.5,0,0,0,0,.6C403.041-395.378,403.041-395.378,401.6-395.378Z" transform="translate(-326.644 414.482)" fill="#a391e0"/>
    </g>
  </g>
</svg>
