<svg xmlns="http://www.w3.org/2000/svg" xmlns:xlink="http://www.w3.org/1999/xlink" width="112" height="112" viewBox="0 0 112 112">
  <defs>
    <clipPath id="clip-path">
      <rect id="Rectángulo_309076" data-name="Rectángulo 309076" width="112" height="112" transform="translate(-0.152)" fill="none"/>
    </clipPath>
  </defs>
  <g id="Grupo_878508" data-name="Grupo 878508" transform="translate(0.152)" clip-path="url(#clip-path)">
    <circle id="Elipse_8058" data-name="Elipse 8058" cx="48.5" cy="48.5" r="48.5" transform="translate(7.848 7)" fill="#00c1ab"/>
    <g id="Grupo_991147" data-name="Grupo 991147" transform="translate(8.149 19.56)">
      <path id="Trazado_650144" data-name="Trazado 650144" d="M639.993-473.109h3.947c.372,1.455.857,1.817,2.461,1.817q27.05,0,54.1,0c2.647,0,4.1,1.449,4.1,4.088q.006,11.524,0,23.049c0,2.634-1.458,4.074-4.112,4.079-2.451,0-4.9-.034-7.352.022a1.548,1.548,0,0,1-1.585-.851,22.168,22.168,0,0,0-5.758-6.337,23.655,23.655,0,0,0-5.748-3.223c-.225-.088-.806-.031-.541-.591.811-1.717,1.641-3.426,2.52-5.253.25.462.426.775.591,1.094.861,1.661,1.711,3.328,2.581,4.985a1.8,1.8,0,0,0,1.665,1.068,1.763,1.763,0,0,0,1.653-1.078c1.495-3.1,3-6.191,4.46-9.305a1.772,1.772,0,0,0-.807-2.472,1.774,1.774,0,0,0-2.434.913c-.835,1.64-1.6,3.317-2.409,4.969-.152.309-.208.694-.592.924-.163-.3-.322-.583-.472-.87-.878-1.687-1.75-3.377-2.631-5.061a1.8,1.8,0,0,0-1.665-1.064,1.805,1.805,0,0,0-1.655,1.08c-.155.294-.285.6-.429.9l-2.489,5.139c-.236-.419-.4-.694-.551-.978-.862-1.661-1.7-3.335-2.586-4.982a1.8,1.8,0,0,0-2.725-.82,1.87,1.87,0,0,0-.442,2.587c1.141,2.23,2.307,4.448,3.45,6.677.11.214.364.411.184.782a25.432,25.432,0,0,0-9.562.581c.98-2.038,1.881-3.878,2.75-5.734a20.38,20.38,0,0,0,1.338-2.964,1.692,1.692,0,0,0-1.141-2.147,1.824,1.824,0,0,0-2.329,1.176c-.941,1.915-1.853,3.845-2.818,5.851-.2-.37-.344-.633-.482-.9-.906-1.74-1.776-3.5-2.725-5.216a1.788,1.788,0,0,0-3.261.009c-.164.288-.3.594-.44.893-.825,1.707-1.648,3.414-2.52,5.219-.323-.617-.587-1.118-.849-1.62-.78-1.5-1.539-3.01-2.346-4.495a1.722,1.722,0,0,0-1.952-.993,1.747,1.747,0,0,0-1.459,1.534,2.436,2.436,0,0,0,.417,1.54q1.916,3.7,3.835,7.395l.751,1.447a1.8,1.8,0,0,0,1.655,1.079,1.8,1.8,0,0,0,1.7-1.146q.944-1.957,1.894-3.91c.323-.668.642-1.337,1.013-2.109,1.067,2.065,2.037,4.01,3.08,5.915.3.545.123.69-.33.92a23.272,23.272,0,0,0-9.571,8.886,1.017,1.017,0,0,1-1.015.546q-13.752-.022-27.5-.014a3.634,3.634,0,0,1-3.936-3.887q-.016-11.706,0-23.412a3.645,3.645,0,0,1,3.911-3.914c2.239-.013,4.478,0,6.717,0,1.409,0,1.927-.426,2.283-1.816h4.491q.443,1.766,1.794,1.807C639.026-471.274,639.679-471.9,639.993-473.109Zm-5.651,16.793c1.036,2,2,3.829,2.932,5.671.4.793.88,1.479,1.868,1.487,1.033.008,1.52-.7,1.918-1.536,1.305-2.752,2.636-5.492,3.954-8.238.72-1.5.544-2.545-.51-3.073-1.088-.545-2.026-.031-2.774,1.518-.853,1.769-1.708,3.538-2.627,5.44-1.032-1.987-2-3.824-2.942-5.675-.4-.794-.883-1.473-1.87-1.481-1.038-.009-1.523.7-1.916,1.539-.865,1.837-1.753,3.664-2.694,5.626-1.052-2.033-2.026-3.935-3.018-5.828-.646-1.232-1.66-1.648-2.659-1.121-.968.511-1.2,1.539-.581,2.753,1.513,2.954,3.044,5.9,4.571,8.843a2.287,2.287,0,0,0,.728.909,1.813,1.813,0,0,0,2.752-.917C632.418-452.3,633.331-454.226,634.342-456.316Z" transform="translate(-615.274 474.925)" fill="#f5c579"/>
      <path id="Trazado_650145" data-name="Trazado 650145" d="M625.473-476.285c-.356,1.39-.874,1.812-2.283,1.816-2.239.007-4.478-.008-6.717,0a3.645,3.645,0,0,0-3.911,3.914q-.014,11.706,0,23.412a3.634,3.634,0,0,0,3.936,3.887q13.752.012,27.5.014a1.017,1.017,0,0,0,1.015-.546,23.272,23.272,0,0,1,9.571-8.886c.453-.23.629-.375.33-.92-1.043-1.905-2.012-3.85-3.08-5.915-.371.772-.69,1.441-1.013,2.109q-.946,1.956-1.894,3.91a1.8,1.8,0,0,1-1.7,1.146,1.8,1.8,0,0,1-1.655-1.079l-.751-1.447q-1.918-3.7-3.835-7.395a2.437,2.437,0,0,1-.417-1.54,1.747,1.747,0,0,1,1.459-1.534,1.722,1.722,0,0,1,1.952.993c.807,1.485,1.566,3,2.346,4.495.261.5.525,1,.849,1.62.872-1.805,1.7-3.512,2.52-5.219.144-.3.276-.6.44-.893a1.788,1.788,0,0,1,3.261-.009c.95,1.716,1.82,3.476,2.725,5.216.139.267.284.53.482.9.964-2.006,1.877-3.936,2.817-5.851a1.824,1.824,0,0,1,2.329-1.176,1.692,1.692,0,0,1,1.141,2.147,20.4,20.4,0,0,1-1.338,2.964c-.868,1.855-1.77,3.7-2.75,5.734a25.432,25.432,0,0,1,9.562-.581c.18-.371-.073-.568-.184-.783-1.143-2.229-2.309-4.446-3.45-6.677a1.87,1.87,0,0,1,.442-2.587,1.8,1.8,0,0,1,2.725.82c.888,1.647,1.724,3.321,2.586,4.982.148.284.314.56.551.978l2.489-5.139c.144-.3.274-.605.429-.9a1.805,1.805,0,0,1,1.655-1.08,1.8,1.8,0,0,1,1.665,1.064c.881,1.685,1.753,3.374,2.631,5.061.15.287.308.569.472.87.384-.23.44-.615.592-.924.812-1.652,1.574-3.329,2.409-4.969a1.774,1.774,0,0,1,2.434-.913,1.771,1.771,0,0,1,.806,2.471c-1.459,3.115-2.965,6.208-4.46,9.306a1.763,1.763,0,0,1-1.653,1.078,1.8,1.8,0,0,1-1.665-1.068c-.87-1.657-1.72-3.324-2.581-4.985-.165-.319-.341-.632-.591-1.094-.878,1.828-1.708,3.536-2.52,5.253-.265.56.316.5.541.591a23.654,23.654,0,0,1,5.748,3.223,22.166,22.166,0,0,1,5.758,6.337,1.548,1.548,0,0,0,1.585.851c2.45-.056,4.9-.017,7.352-.022,2.653,0,4.11-1.445,4.112-4.079q.007-11.525,0-23.049c0-2.639-1.455-4.088-4.1-4.088q-27.05,0-54.1,0c-1.6,0-2.089-.362-2.461-1.817.36-1.4.868-1.811,2.282-1.811q27.227,0,54.454,0a7.255,7.255,0,0,1,7.555,7.537q.033,11.7,0,23.408a7.273,7.273,0,0,1-7.567,7.527c-2.057.015-4.115.025-6.172-.011-.626-.011-.685.155-.508.71a23.353,23.353,0,0,1-1,17.128,34.409,34.409,0,0,1-1.978,3.549,25.575,25.575,0,0,1-4.229,4.586c-.514.413-.186.623.1.906q6.581,6.576,13.16,13.154c1.253,1.251,2.765,1.328,3.84.226,1.049-1.076.956-2.549-.26-3.775-1.662-1.675-3.338-3.336-5-5.008-1.087-1.091-1.17-1.63-.481-2.964,1.354-.8,1.9-.739,3.027.381,1.693,1.685,3.4,3.359,5.066,5.071,2.846,2.921,2.637,6.991-.457,9.439a6.1,6.1,0,0,1-7.336.03,14.427,14.427,0,0,1-1.279-1.152q-6.615-6.6-13.212-13.219a.945.945,0,0,0-1.352-.239,23.576,23.576,0,0,1-33.122-12.583,23.216,23.216,0,0,1-.42-15.286,1.62,1.62,0,0,0,.172-.94h-.96q-12.658,0-25.317,0a7.244,7.244,0,0,1-7.385-5.372,8.106,8.106,0,0,1-.283-2.33q0-11.52,0-23.041a7.313,7.313,0,0,1,7.727-7.735q3.266-.009,6.533,0C624.6-478.092,625.114-477.675,625.473-476.285Zm59.709,44.634A20.031,20.031,0,0,0,665.193-451.6a20.032,20.032,0,0,0-19.952,19.983,20.033,20.033,0,0,0,19.99,19.945A20.031,20.031,0,0,0,685.182-431.651Z" transform="translate(-608.925 478.102)" fill="#020201"/>
      <path id="Trazado_650146" data-name="Trazado 650146" d="M816.376-306.432c-.689,1.334-.606,1.873.481,2.964,1.666,1.672,3.342,3.333,5,5.008,1.216,1.226,1.309,2.7.26,3.775-1.075,1.1-2.587,1.025-3.84-.226q-6.586-6.572-13.16-13.154c-.283-.283-.611-.493-.1-.906a25.573,25.573,0,0,0,4.229-4.586l2.875,2.777a1.9,1.9,0,0,0-.263,2.188c.569.989,1.533,1.152,2.83.47A12.41,12.41,0,0,1,816.376-306.432Z" transform="translate(-733.516 373.415)" fill="#eb6762"/>
      <path id="Trazado_650147" data-name="Trazado 650147" d="M670.44-476.262c-.314,1.21-.966,1.835-1.885,1.807q-1.352-.041-1.794-1.807.447-1.761,1.794-1.8C669.47-478.092,670.123-477.468,670.44-476.262Z" transform="translate(-645.721 478.078)" fill="#050504"/>
      <path id="Trazado_650148" data-name="Trazado 650148" d="M826.706-304.077c-1.3.682-2.261.519-2.83-.47a1.9,1.9,0,0,1,.263-2.188c1.081-.631,1.881-.62,2.549.033C827.381-306.025,827.387-305.237,826.706-304.077Z" transform="translate(-745.526 369.371)" fill="#070505"/>
      <path id="Trazado_650149" data-name="Trazado 650149" d="M641.645-437.264c-1.011,2.09-1.924,4.011-2.867,5.918a1.813,1.813,0,0,1-2.752.917,2.287,2.287,0,0,1-.728-.909c-1.527-2.946-3.058-5.89-4.571-8.843-.622-1.214-.387-2.242.581-2.753,1-.527,2.012-.112,2.659,1.121.992,1.893,1.966,3.795,3.018,5.828.941-1.962,1.829-3.788,2.694-5.626.394-.836.878-1.548,1.916-1.539.988.008,1.467.686,1.87,1.481.94,1.851,1.909,3.688,2.942,5.675.919-1.9,1.773-3.67,2.627-5.44.747-1.549,1.685-2.063,2.773-1.518,1.054.527,1.23,1.574.51,3.073-1.318,2.746-2.649,5.486-3.954,8.238-.4.839-.885,1.545-1.918,1.536-.988-.008-1.466-.694-1.868-1.487C643.642-433.435,642.681-435.265,641.645-437.264Z" transform="translate(-622.576 455.874)" fill="#030302"/>
      <path id="Trazado_650150" data-name="Trazado 650150" d="M748.7-385.294a20.031,20.031,0,0,1-19.951,19.983,20.033,20.033,0,0,1-19.99-19.945,20.032,20.032,0,0,1,19.952-19.983A20.031,20.031,0,0,1,748.7-385.294Zm-3.995,0a16.028,16.028,0,0,0-16.016-15.952A16.029,16.029,0,0,0,712.752-385.3a16.03,16.03,0,0,0,15.972,16A16.028,16.028,0,0,0,744.7-385.294Z" transform="translate(-672.44 431.745)" fill="#fbfbfb"/>
      <path id="Trazado_650151" data-name="Trazado 650151" d="M751.689-378.309A16.028,16.028,0,0,1,735.71-362.32a16.03,16.03,0,0,1-15.972-16,16.029,16.029,0,0,1,15.935-15.944A16.028,16.028,0,0,1,751.689-378.309ZM735.7-365.951a12.387,12.387,0,0,0,12.352-12.331,12.385,12.385,0,0,0-12.334-12.349A12.387,12.387,0,0,0,723.37-378.3,12.387,12.387,0,0,0,735.7-365.951Z" transform="translate(-679.426 424.761)" fill="#030303"/>
      <path id="Trazado_650152" data-name="Trazado 650152" d="M742.056-359.6a12.387,12.387,0,0,1-12.335-12.349,12.387,12.387,0,0,1,12.353-12.331,12.385,12.385,0,0,1,12.334,12.349A12.387,12.387,0,0,1,742.056-359.6Zm.236-20.495a1.866,1.866,0,0,0-2.023,1.663,1.852,1.852,0,0,0,1.742,1.947c3.029.43,4.144,1.552,4.6,4.633a1.842,1.842,0,0,0,1.976,1.7,1.867,1.867,0,0,0,1.629-2.05A8.22,8.22,0,0,0,742.292-380.1Z" transform="translate(-685.778 418.411)" fill="#89d4f9"/>
      <path id="Trazado_650153" data-name="Trazado 650153" d="M760.726-372.778a8.22,8.22,0,0,1,7.929,7.9,1.867,1.867,0,0,1-1.629,2.05,1.841,1.841,0,0,1-1.976-1.7c-.461-3.082-1.576-4.2-4.6-4.633a1.852,1.852,0,0,1-1.742-1.947A1.866,1.866,0,0,1,760.726-372.778Z" transform="translate(-704.212 411.093)" fill="#020303"/>
    </g>
  </g>
</svg>
